<?xml version="1.0" encoding="UTF-8"?> <!-- Generator: Adobe Illustrator 24.1.3, SVG Export Plug-In . SVG Version: 6.00 Build 0) --> <svg xmlns="http://www.w3.org/2000/svg" xmlns:xlink="http://www.w3.org/1999/xlink" id="Слой_1" x="0px" y="0px" viewBox="0 0 1920 1080" style="enable-background:new 0 0 1920 1080;" xml:space="preserve"> <style type="text/css"> .st0{fill:#222220;} </style> <g> <g> <g> <path class="st0" d="M408.01,374.33v13.73c0,37.54-4.58,83.32-33.42,120.86c-36.62,47.16-89.28,53.56-125.9,53.1 c-36.16-0.46-80.57-7.32-118.11-46.7c-36.16-37.99-43.04-83.77-43.04-122.68c0-38.46,6.88-84.7,43.04-122.69 c37.08-38.91,83.77-46.7,118.11-46.7c50.36,0,83.32,15.57,103.93,31.13c27.47,20.61,47.61,50.36,52.18,92.47h-90.64 c-0.92-13.73-5.96-27.92-14.65-38.45c-11.91-14.19-28.85-21.51-50.82-20.6c-27.46,1.37-45.32,14.19-56.31,35.7 c-5.49,10.53-11.9,30.67-11.9,68.67c0,22.43,2.29,48.99,11.9,67.29c9.16,16.94,27.93,35.26,59.98,35.71 c22.43,0.45,37.99-8.7,46.7-17.86c5.95-6.41,18.31-21.51,16.94-46.24h-86.07v-56.77H408.01z"></path> <path class="st0" d="M581.4,474.13v78.74h-88.81v-78.74H581.4z"></path> <path class="st0" d="M714.57,232.41v299.41h136.87v21.05H691.21V232.41H714.57z"></path> <path class="st0" d="M959.41,281.85c31.14-47.61,75.09-55.85,102.55-55.85c27.47,0,71.42,8.24,102.56,55.85 c24.72,37.54,27.92,81.03,27.92,110.79c0,29.75-3.2,73.25-27.92,110.78c-31.14,47.62-75.09,55.85-102.56,55.85 c-27.46,0-71.41-8.23-102.55-55.85c-24.72-37.53-27.92-81.03-27.92-110.78C931.49,362.88,934.69,319.4,959.41,281.85z M978.64,490.15c24.72,39.82,59.98,47.61,83.32,47.61c23.35,0,58.61-7.78,83.33-47.61c20.15-32.51,22.88-71.42,22.88-97.97 c0-26.55-2.74-65.46-22.88-97.97c-24.72-39.83-59.98-47.62-83.33-47.62c-23.34,0-58.6,7.78-83.32,47.62 c-20.14,32.51-22.88,71.42-22.88,97.97C955.75,418.74,958.5,457.65,978.64,490.15z"></path> <path class="st0" d="M1304.04,232.41l102.09,301.24h5.5l102.09-301.24h24.72l-110.78,320.46h-37.55l-110.78-320.46H1304.04z"></path> <path class="st0" d="M1828.58,232.41v20.61h-170.76v120.85h166.16v20.15h-166.16v137.34h174.42v21.51h-197.78V232.41H1828.58z"></path> </g> </g> </g> </svg> 