<?xml version="1.0" encoding="utf-8"?>
<!-- Generator: Adobe Illustrator 24.3.0, SVG Export Plug-In . SVG Version: 6.00 Build 0)  -->
<svg version="1.1" xmlns="http://www.w3.org/2000/svg" xmlns:xlink="http://www.w3.org/1999/xlink" x="0px" y="0px"
	 viewBox="0 0 1000 175" style="enable-background:new 0 0 1000 175;" xml:space="preserve">
<style type="text/css">
	.st0{fill:none;}
	.st1{fill:#3C289B;}
	.st2{fill:#464646;}
</style>
<g id="Boundingbox">
</g>
<g id="Logo">
	<g>
		<g>
			<rect class="st0" width="1000" height="175"/>
		</g>
		<g>
			<path id="AB_Logo" class="st1" d="M56.15,78.03H73.3C65.82,52.25,56.85,26.58,45.8,0.8H28.42C17.73,25.68,8.4,51.45,0,78.03
				h17.27c1.5-5.18,3-10.35,4.6-15.55H38.9l4.15-15.08H26.82c3.23-9.42,6.68-18.75,10.25-28.07C44.3,38.68,50.62,58.13,56.15,78.03
				 M143.4,21.4c-8.05,0-13.47,3.45-17.15,9.1c-3.9-5.98-10.6-9.1-18.07-9.1c-6.68,0-11.98,3.68-15.07,9.1l-0.57-7.7h-14.5v55.25
				h16.12v-31.1c0-7.35,4.15-11.5,9.9-11.5c5.75,0,9.68,4.03,9.68,10.92v31.65h16.1V47.65c0-8.05,4.5-12.2,10.25-12.2
				c5.18,0,9.55,3.35,9.55,10.82v31.77h16.1V43.98C165.73,29.35,155.38,21.4,143.4,21.4 M229.38,49.83
				c0-15.3-12.2-28.42-28.65-28.42c-15.88,0-29.23,12.2-29.23,29.22c0,16.58,12.65,28.88,29.57,28.88c10.93,0,21.98-5.4,26.35-16.67
				h-16.35c-2.53,2.65-5.97,3.58-10.25,3.58c-5.4,0-12.33-3.35-13.93-10.25h41.9C229.15,54.1,229.38,51.9,229.38,49.83 M200.7,33.73
				c7.37,0,12.78,4.95,14.38,11.4h-28.4C188.17,38.68,193.35,33.73,200.7,33.73 M265.9,21.88c-6.22,0-12.32,3.92-14.72,11.5
				l-0.58-10.6h-14.72v55.25h16.1V51.45c0-8.05,5.3-14.62,15.07-14.62c1.28,0,2.43,0.12,3.68,0.12v-14.5
				C268.9,22.1,267.28,21.88,265.9,21.88 M277.75,16.13h16.35V0h-16.35V16.13z M277.85,78.03h16.22V22.8h-16.22V78.03z M326,79.4
				c13.92,0,24.05-6.9,24.05-18.3c0-9.1-6.33-14.95-18.42-17.02l-5.18-0.93c-6.1-0.93-8.52-2.3-8.52-5.53c0-2.65,2.65-4.38,6.8-4.38
				c5.07,0,7.7,2.18,8.62,5.98h15.43c-1.38-11.05-9.67-17.85-23.83-17.85c-15.77,0-23.12,7.38-23.12,17.6
				c0,11.28,9.2,15.53,17.95,17.03l5.75,0.93c4.73,0.8,7.13,2.53,7.13,5.17c0,3-2.52,4.6-7.25,4.6c-4.95,0-7.6-1.6-8.62-5.4h-15.42
				C302.88,73.88,312.55,79.4,326,79.4 M385.38,79.4c17.15,0,30.72-12.42,30.72-29s-13.57-29-30.72-29
				c-16.93,0-30.62,12.42-30.62,29C354.78,66.98,368.35,79.4,385.38,79.4 M385.5,65.15c-8.05,0-14.63-6.68-14.63-14.72
				s6.55-14.72,14.63-14.72c8.05,0,14.62,6.55,14.62,14.72C400.12,58.48,393.55,65.15,385.5,65.15 M459.38,22.8v31.07
				c0,7.38-4.95,11.5-10.83,11.5c-5.75,0-9.77-4.03-9.77-10.93V22.8h-16.12v34.07c0,15.3,9.9,22.55,21.88,22.55
				c7.02,0,12.9-3.67,15.88-9.43l0.57,8.05h14.5V22.8H459.38z M515.16,21.88c-6.23,0-12.33,3.92-14.73,11.5l-0.57-10.6h-14.73v55.25
				h16.1V51.45c0-8.05,5.3-14.62,15.07-14.62c1.28,0,2.43,0.12,3.68,0.12v-14.5C518.16,22.1,516.54,21.88,515.16,21.88 M551.46,79.4
				c12.42,0,25.08-6.8,28.55-22.45h-15.88c-1.95,5.08-6.67,8.18-12.55,8.18c-8.17,0-13.7-6.55-13.7-14.73
				c0-8.05,5.53-14.72,13.7-14.72c5.75,0,10.25,2.88,12.43,8.3h16c-3-14.38-15.07-22.55-28.55-22.55c-16.8,0-29.7,12.33-29.7,29
				C521.76,67.2,534.66,79.4,551.46,79.4 M642.54,49.83c0-15.3-12.2-28.42-28.65-28.42c-15.88,0-29.22,12.2-29.22,29.22
				c0,16.58,12.65,28.88,29.57,28.88c10.93,0,21.98-5.4,26.35-16.67h-16.35c-2.52,2.65-5.97,3.58-10.25,3.58
				c-5.4,0-12.33-3.35-13.93-10.25h41.9C642.31,54.1,642.54,51.9,642.54,49.83 M613.89,33.73c7.38,0,12.78,4.95,14.38,11.4h-28.42
				C601.34,38.68,606.51,33.73,613.89,33.73 M693.98,37.53c7.47-3.22,11.18-9.32,11.18-16.67c0-11.05-10.03-20.03-27.05-20.03
				h-28.55v77.22h29c20.6,0,29.8-10.48,29.8-22.45C708.36,48.68,704.43,40.75,693.98,37.53 M679.23,63.75h-12.55V15.3h11.17
				c6.8,0,10.35,3.32,10.35,8.28c0,5.65-4.02,8.4-10.47,8.4h-1.5l-3.8,14.38h6.8c6.8,0,11.17,3,11.17,8.63
				S686.04,63.75,679.23,63.75 M771.89,49.83c0-15.3-12.2-28.42-28.65-28.42c-15.88-0.01-29.23,12.19-29.23,29.22
				c0,16.58,12.65,28.88,29.57,28.88c10.93,0,21.98-5.4,26.35-16.67h-16.35c-2.53,2.65-5.97,3.58-10.25,3.58
				c-5.4,0-12.32-3.35-13.92-10.25h41.9C771.66,54.1,771.89,51.9,771.89,49.83 M743.24,33.73c7.38,0,12.77,4.95,14.38,11.4H729.2
				C730.68,38.68,735.86,33.73,743.24,33.73 M809.06,21.88c-6.22,0-12.3,3.92-14.73,11.5l-0.58-10.6h-14.73v55.25h16.1V51.45
				c0-8.05,5.3-14.62,15.08-14.62c1.28,0,2.42,0.12,3.67,0.12v-14.5C812.06,22.1,810.44,21.88,809.06,21.88 M861.08,22.8l-0.45,5.52
				c-3.93-4.15-9.55-6.9-16.68-6.9c-14.95,0-28.65,11.85-28.65,28.3c0,16.35,13.7,28.3,28.65,28.3c6.68,0,12.07-2.43,15.88-6.22
				v1.95c0,10.25-4.72,14.38-13.35,14.38c-5.75,0-10.35-2.08-12.55-6.8h-15.2c3.23,14.15,14.27,20.25,27.4,20.25
				c19.68,0,29.93-12.65,29.93-28.43V22.8H861.08z M845.76,63.88c-8.17,0-14.63-6.33-14.63-14.15s6.45-14.27,14.63-14.27
				c8.05,0,14.5,6.32,14.5,14.27C860.26,57.55,853.84,63.88,845.76,63.88 M940.06,49.83c0-15.3-12.2-28.42-28.65-28.42
				c-15.88,0-29.23,12.2-29.23,29.22c0,16.58,12.65,28.88,29.57,28.88c10.92,0,21.98-5.4,26.35-16.67h-16.35
				c-2.53,2.65-5.98,3.58-10.25,3.58c-5.4,0-12.33-3.35-13.92-10.25h41.9C939.83,54.1,940.06,51.9,940.06,49.83 M911.41,33.73
				c7.38,0,12.77,4.95,14.38,11.4h-28.43C898.86,38.68,904.03,33.73,911.41,33.73 M978.13,21.4c-7.12,0-12.9,3.68-15.88,9.2
				l-0.58-7.82h-14.5v55.25h16.13V46.95c0-7.35,4.95-11.5,10.7-11.5s9.9,4.03,9.9,10.92v31.65h16.1V43.98
				C1000.01,28.65,990.01,21.4,978.13,21.4"/>
			<g>
				<path class="st2" d="M43.8,159.57h-5.52v-32.82l-13.74,22.86h-0.72l-13.74-22.8v32.76H4.5v-42h6.3l13.38,22.2l13.32-22.2h6.3
					V159.57z"/>
				<path class="st2" d="M49.8,117.57h5.88l9.6,34.56l10.2-34.56h5.64l10.2,34.56l9.6-34.56h5.88l-12.06,42h-6.48l-9.96-33.54
					l-9.96,33.54h-6.48L49.8,117.57z"/>
				<path class="st2" d="M118.38,117.57v42h-5.58v-42H118.38z"/>
				<path class="st2" d="M166.62,150.15h-18.9l-3.42,9.42h-5.94l15.66-42h6.3l15.66,42h-5.94L166.62,150.15z M164.7,144.93
					l-7.56-20.7l-7.5,20.7H164.7z"/>
				<path class="st2" d="M207,141.15v18.42h-5.22v-18.12c0-4.92-2.82-7.68-7.44-7.68c-4.8,0-8.7,2.82-8.7,9.9v15.9h-5.22v-30h5.22
					v4.32c2.22-3.54,5.52-5.1,9.72-5.1C202.38,128.79,207,133.47,207,141.15z"/>
				<path class="st2" d="M213.66,120.63c0-1.92,1.56-3.54,3.54-3.54c1.92,0,3.48,1.62,3.48,3.54s-1.56,3.48-3.48,3.48
					C215.22,124.11,213.66,122.55,213.66,120.63z M214.56,129.57h5.22v30h-5.22V129.57z"/>
				<path class="st2" d="M271.74,140.91v18.66h-5.22v-18.48c0-4.74-2.64-7.32-6.6-7.32c-4.2,0-7.38,2.64-7.38,9.12v16.68h-5.22
					v-18.48c0-4.74-2.46-7.32-6.36-7.32c-4.02,0-7.68,2.64-7.68,9.12v16.68h-5.22v-30h5.22v4.02c2.16-3.36,5.28-4.8,8.94-4.8
					c4.08,0,7.08,1.86,8.82,5.1c2.1-3.42,5.52-5.1,9.42-5.1C267.12,128.79,271.74,133.41,271.74,140.91z"/>
				<path class="st2" d="M309.06,129.57v30h-5.22v-5.16c-2.4,3.66-6.24,5.94-11.34,5.94c-8.34,0-15.18-6.9-15.18-15.78
					c0-8.88,6.84-15.78,15.18-15.78c5.1,0,8.94,2.28,11.34,5.94v-5.16H309.06z M303.84,144.57c0-6.12-4.62-10.74-10.68-10.74
					c-6,0-10.62,4.62-10.62,10.74c0,6.12,4.62,10.74,10.62,10.74C299.22,155.31,303.84,150.69,303.84,144.57z"/>
				<path class="st2" d="M316.98,115.77h5.22v43.8h-5.22V115.77z"/>
				<path class="st2" d="M377.22,117.57v42h-5.52v-18.9h-20.4v18.9h-5.58v-42h5.58v17.82h20.4v-17.82H377.22z"/>
				<path class="st2" d="M399.6,155.43c4.14,0,7.14-1.92,8.64-4.38l4.44,2.52c-2.64,4.08-7.2,6.78-13.2,6.78
					c-9.66,0-16.08-6.78-16.08-15.78c0-8.88,6.36-15.78,15.72-15.78c9.06,0,14.94,7.44,14.94,15.84c0,0.78-0.06,1.56-0.18,2.34
					h-25.14C389.76,152.37,394.02,155.43,399.6,155.43z M388.74,142.41h20.04c-0.9-5.94-5.16-8.7-9.66-8.7
					C393.48,133.71,389.58,137.19,388.74,142.41z"/>
				<path class="st2" d="M450.12,129.57v30h-5.22v-5.16c-2.4,3.66-6.24,5.94-11.34,5.94c-8.34,0-15.18-6.9-15.18-15.78
					c0-8.88,6.84-15.78,15.18-15.78c5.1,0,8.94,2.28,11.34,5.94v-5.16H450.12z M444.9,144.57c0-6.12-4.62-10.74-10.68-10.74
					c-6,0-10.62,4.62-10.62,10.74c0,6.12,4.62,10.74,10.62,10.74C440.28,155.31,444.9,150.69,444.9,144.57z"/>
				<path class="st2" d="M458.04,115.77h5.22v43.8h-5.22V115.77z"/>
				<path class="st2" d="M479.58,134.61v16.26c0,4.56,2.64,4.26,7.98,4.02v4.68c-9,1.2-13.2-1.2-13.2-8.7v-16.26h-5.94v-5.04h5.94
					v-6.84l5.22-1.56v8.4h7.98v5.04H479.58z"/>
				<path class="st2" d="M520.49,141.15v18.42h-5.22v-18.12c0-4.92-2.82-7.68-7.44-7.68c-4.8,0-8.7,2.82-8.7,9.9v15.9h-5.22v-42
					h5.22v16.32c2.22-3.54,5.52-5.1,9.72-5.1C515.87,128.79,520.49,133.47,520.49,141.15z"/>
				<path class="st2" d="M543.1,125.91c0,5.14-4.17,9.31-9.31,9.31c-5.14,0-9.31-4.17-9.31-9.31c0-5.15,4.17-9.31,9.31-9.31
					C538.93,116.59,543.1,120.76,543.1,125.91z M542.25,125.91c0-4.73-3.81-8.54-8.46-8.54c-4.68,0-8.49,3.81-8.49,8.54
					c0,4.73,3.81,8.54,8.49,8.54C538.44,134.45,542.25,130.64,542.25,125.91z M535.95,127.04l1.98,3.63h-2.16l-1.67-3.22h-0.15
					h-1.24v3.22h-1.98v-9.52h3.22c2.29,0,3.63,1.39,3.63,3.09C537.57,125.55,537,126.53,535.95,127.04z M532.71,125.65h1.24
					c1.05,0,1.65-0.54,1.65-1.31c0-0.85-0.59-1.34-1.65-1.34h-1.24V125.65z"/>
			</g>
		</g>
	</g>
</g>
</svg>
