<svg xmlns="http://www.w3.org/2000/svg" viewBox="0 0 411.05 133.72"><defs><style>.cls-1{fill:#28383d;}.cls-2{fill:#00838f;}.cls-3{fill:#29383d;}.cls-4{fill:#fff;}</style></defs><g id="Layer_2" data-name="Layer 2"><g id="ARTWORK"><path class="cls-1" d="M162.64,106.26h2.28l6.46,15.64,6.49-15.64h2.21l-7.81,18.29h-1.82Z"/><path class="cls-1" d="M187.42,123a5.56,5.56,0,0,0,4.23-1.89l1.24,1.11a6.9,6.9,0,0,1-5.52,2.52,6.68,6.68,0,0,1-6.7-7c0-3.89,2.73-7,6.44-7,4,0,6.25,3.16,6.25,7.11a6.58,6.58,0,0,1,0,.7H182.7A4.68,4.68,0,0,0,187.42,123Zm3.92-6.07c-.24-2.44-1.64-4.51-4.28-4.51-2.31,0-4.08,1.92-4.36,4.51Z"/><path class="cls-1" d="M197.57,120.86v-8.09H195.7V111h1.87v-4h2v4h4.26v1.77h-4.26v7.83a2,2,0,0,0,2.26,2.24,4.17,4.17,0,0,0,2-.47v1.71a5.09,5.09,0,0,1-2.42.57C199.2,124.65,197.57,123.59,197.57,120.86Z"/><path class="cls-1" d="M212.88,123a5.56,5.56,0,0,0,4.23-1.89l1.24,1.11a6.9,6.9,0,0,1-5.52,2.52,6.68,6.68,0,0,1-6.7-7c0-3.89,2.73-7,6.44-7,4,0,6.25,3.16,6.25,7.11a6.58,6.58,0,0,1,0,.7H208.16A4.68,4.68,0,0,0,212.88,123Zm3.92-6.07c-.24-2.44-1.64-4.51-4.29-4.51-2.3,0-4.07,1.92-4.35,4.51Z"/><path class="cls-1" d="M222.32,111h2v3.51a5.76,5.76,0,0,1,5.48-3.74v2.15h-.16c-2.93,0-5.32,2.11-5.32,6.15v5.35h-2Z"/><path class="cls-1" d="M232.89,105.87h2.28v2.2h-2.28ZM233,111h2v13.42h-2Z"/><path class="cls-1" d="M239.66,111h2v2.34a5.08,5.08,0,0,1,4.59-2.62c3.24,0,5.14,2.18,5.14,5.37v8.33h-2v-7.84c0-2.49-1.35-4-3.71-4a3.94,3.94,0,0,0-4,4.2v7.68h-2Z"/><path class="cls-1" d="M254.63,120.53v-.06c0-2.88,2.34-4.38,5.74-4.38a14,14,0,0,1,4.1.57v-.41c0-2.39-1.46-3.64-4-3.64a9.36,9.36,0,0,0-4.08,1l-.59-1.63a10.86,10.86,0,0,1,4.87-1.14,6,6,0,0,1,4.34,1.48,5.31,5.31,0,0,1,1.4,3.94v8.2h-2v-2a5.91,5.91,0,0,1-4.83,2.28C257.12,124.7,254.63,123.28,254.63,120.53Zm9.86-1v-1.25a13.94,13.94,0,0,0-3.92-.57c-2.49,0-3.91,1.09-3.91,2.7v0c0,1.69,1.55,2.68,3.37,2.68C262.49,123.1,264.49,121.62,264.49,119.49Z"/><path class="cls-1" d="M270.67,111h2v3.51a5.75,5.75,0,0,1,5.47-3.74v2.15H278c-2.94,0-5.32,2.11-5.32,6.15v5.35h-2Z"/><path class="cls-1" d="M280.4,128l.67-1.58a4.19,4.19,0,0,0,2.11.49c1.19,0,1.94-.62,2.75-2.51L279.83,111H282l4.88,11.19L291.22,111h2.13l-5.63,13.86c-1.14,2.78-2.44,3.79-4.47,3.79A6.12,6.12,0,0,1,280.4,128Z"/><path class="cls-1" d="M303.44,121.77l1.27-1.5a8.67,8.67,0,0,0,6.23,2.57c2.44,0,4.05-1.3,4.05-3.09v0c0-1.69-.91-2.65-4.72-3.45-4.18-.91-6.1-2.26-6.1-5.25v0c0-2.85,2.52-5,6-5a9.47,9.47,0,0,1,6.38,2.23l-1.19,1.58a8,8,0,0,0-5.24-2c-2.37,0-3.87,1.3-3.87,2.93v0c0,1.72.93,2.68,4.93,3.53s5.91,2.36,5.91,5.14v.05c0,3.11-2.59,5.14-6.2,5.14A10.61,10.61,0,0,1,303.44,121.77Z"/><path class="cls-1" d="M320.7,119.33V111h2v7.84c0,2.49,1.35,4,3.71,4a4,4,0,0,0,4-4.21V111h2v13.42h-2v-2.34a5.09,5.09,0,0,1-4.59,2.62C322.59,124.7,320.7,122.52,320.7,119.33Z"/><path class="cls-1" d="M336.89,111h2v2.7a6,6,0,0,1,5.14-3c3.21,0,6.41,2.54,6.41,7v0c0,4.39-3.17,7-6.41,7a6.07,6.07,0,0,1-5.14-2.85v6.72h-2Zm11.5,6.75v0c0-3.17-2.18-5.19-4.73-5.19a5,5,0,0,0-4.85,5.16v0a5,5,0,0,0,4.85,5.19C346.26,122.91,348.39,121,348.39,117.75Z"/><path class="cls-1" d="M354.12,111h2v2.7a6,6,0,0,1,5.14-3c3.21,0,6.41,2.54,6.41,7v0c0,4.39-3.17,7-6.41,7a6.07,6.07,0,0,1-5.14-2.85v6.72h-2Zm11.5,6.75v0c0-3.17-2.18-5.19-4.73-5.19a5,5,0,0,0-4.85,5.16v0a5,5,0,0,0,4.85,5.19C363.49,122.91,365.62,121,365.62,117.75Z"/><path class="cls-1" d="M371.53,105.48h2v18.94h-2Z"/><path class="cls-1" d="M378.23,105.87h2.28v2.2h-2.28Zm.13,5.13h2v13.42h-2Z"/><path class="cls-1" d="M390.92,123a5.56,5.56,0,0,0,4.23-1.89l1.24,1.11a6.91,6.91,0,0,1-5.53,2.52,6.68,6.68,0,0,1-6.69-7c0-3.89,2.73-7,6.44-7,4,0,6.25,3.16,6.25,7.11a6.58,6.58,0,0,1,0,.7H386.19A4.69,4.69,0,0,0,390.92,123Zm3.91-6.07c-.23-2.44-1.63-4.51-4.28-4.51-2.31,0-4.07,1.92-4.36,4.51Z"/><path class="cls-1" d="M399.25,122.71l1-1.43A7.82,7.82,0,0,0,404.9,123c1.61,0,2.78-.83,2.78-2.13v0c0-1.35-1.58-1.87-3.35-2.36-2.1-.6-4.43-1.32-4.43-3.79v0c0-2.31,1.92-3.84,4.56-3.84a9.17,9.17,0,0,1,4.83,1.48l-.91,1.5a7.62,7.62,0,0,0-4-1.29c-1.58,0-2.59.83-2.59,1.94v.06c0,1.27,1.66,1.76,3.45,2.3,2.07.63,4.3,1.43,4.3,3.84v.06c0,2.54-2.1,4-4.77,4A9.2,9.2,0,0,1,399.25,122.71Z"/><path class="cls-2" d="M198,5.91h17.22l36.38,85.5H232.08l-7.76-19H188.43l-7.76,19h-19Zm19.64,50L206.37,28.35,195.1,55.87Z"/><path class="cls-2" d="M346.42,6.52h64V23.13H365V40.35h40V57H365V74.79h46.08V91.41H346.42Z"/><path class="cls-2" d="M299.63,93.36A44.15,44.15,0,1,1,330.85,18L318.69,30.17a27,27,0,1,0,0,38.11l12.16,12.17A44,44,0,0,1,299.63,93.36Z"/><path class="cls-3" d="M66.86,0a66.86,66.86,0,1,0,66.86,66.86A66.85,66.85,0,0,0,66.86,0ZM107.2,93.56h0c1.92,3.19,2.31,5.94,5,9.24-2,20.42-30.63,33.09-51.63,26.9-2.43-.72-4.69-2.06-7.15-2.31-3.44-4.38-4.88-10-4.12-16.41a20.1,20.1,0,0,0-3.11-4.29,18.87,18.87,0,0,0-13.58-5.93c-9.68,0-17.61-8.3-17.61-18.45V76.15a1.23,1.23,0,0,1,1.21-1.27h9c5.47-19.1,19.86-33.31,43.07-40.5C68,28.94,70,23.18,76,20.16c-1.76,4-1.88,7.2,0,10.61l.69.31a7.51,7.51,0,0,1,3.27-7.73c-.23,6.3,5.93,9,4.18,13.62l0,0c12.09-2.76,10.37,7,20.18,9.72a32.61,32.61,0,0,1-10.45.52c1.16,1.35,2.35,2.8,3.64,4.41l.25.32c.4.52.82,1,1.24,1.6,5.36,6.93,11.5,15.32,15.54,21.54,1.06,1.63,2,3.1,2.67,4.37a22.09,22.09,0,0,1,1.45,2.91C122.28,92,113.69,99.75,107.2,93.56Z"/><path class="cls-2" d="M60.82,76.42q.06-.3.12-.63"/><path class="cls-2" d="M60.94,75.79c.16-1,.26-2.13.55-3.39.06-.27.13-.55.21-.83a8.93,8.93,0,0,0,.4.83A22.83,22.83,0,0,0,64,75.31C68,80.61,74.84,87.55,75.34,96a36,36,0,0,1,18.42-7.53l-.5-.08A18.88,18.88,0,0,1,82.83,86h0a26.63,26.63,0,0,1-7.44-7A36.31,36.31,0,0,0,73.2,72.4,34.06,34.06,0,0,0,52.63,53.48a.68.68,0,0,0-.86.67v8.31a1,1,0,0,1-1,1H44.87A13.33,13.33,0,0,0,32,74.2a.83.83,0,0,1-.81.68h-15A1.23,1.23,0,0,0,15,76.15v6.16c0,10.15,7.93,18.45,17.61,18.45a18.87,18.87,0,0,1,13.58,5.93A20.1,20.1,0,0,1,49.26,111a35.94,35.94,0,0,1,2.64-9.68c.22-.53.44-1.06.69-1.59-4.45-.26-6.67-2.63-7.68-7.57a8.28,8.28,0,0,0,2.59-2.72c.72-1.3.22-3,1.19-4.89a4.69,4.69,0,0,1,1.8-1.91c2.3-1.42,5.69-1.28,8.37-3.1a4.26,4.26,0,0,0,1.61-1.94,6.82,6.82,0,0,0,.35-1.16"/><path class="cls-4" d="M118.68,82.4a22.09,22.09,0,0,0-1.45-2.91c-.71-1.27-1.61-2.74-2.67-4.37-4-6.22-10.18-14.61-15.54-21.54-.42-.56-.84-1.08-1.24-1.6l-.25-.32c-1.29-1.61-2.48-3.06-3.64-4.41a32.61,32.61,0,0,0,10.45-.52C94.53,44.05,96.25,34.25,84.16,37l0,0c1.75-4.61-4.41-7.32-4.18-13.62a7.51,7.51,0,0,0-3.27,7.73L76,30.77c-1.85-3.41-1.73-6.6,0-10.61-6,3-8.06,8.78-7.75,14.22-23.21,7.19-37.6,21.4-43.07,40.5h6A.83.83,0,0,0,32,74.2,13.33,13.33,0,0,1,44.87,63.5h5.91a1,1,0,0,0,1-1V54.15a.68.68,0,0,1,.86-.67A34.06,34.06,0,0,1,73.2,72.4,36.31,36.31,0,0,1,75.38,79a26.63,26.63,0,0,0,7.44,7h0a18.88,18.88,0,0,0,10.43,2.4l.5.08,1.33.21c4.55.74,8.81,1.74,12.11,4.88h0C113.69,99.75,122.28,92,118.68,82.4Z"/><path class="cls-3" d="M107.2,93.56c-3.3-3.14-7.56-4.14-12.11-4.88l-1.33-.21A36,36,0,0,0,75.34,96C74.84,87.55,68,80.61,64,75.31A22.83,22.83,0,0,1,62.1,72.4a8.93,8.93,0,0,1-.4-.83c-.08.28-.15.56-.21.83-.29,1.26-.39,2.39-.55,3.39q-.06.33-.12.63a6.82,6.82,0,0,1-.35,1.16,4.26,4.26,0,0,1-1.61,1.94c-2.68,1.82-6.07,1.68-8.37,3.1a4.69,4.69,0,0,0-1.8,1.91c-1,1.86-.47,3.59-1.19,4.89a8.28,8.28,0,0,1-2.59,2.72c1,4.94,3.23,7.31,7.68,7.57-.25.53-.47,1.06-.69,1.59A35.94,35.94,0,0,0,49.26,111c-.76,6.39.68,12,4.12,16.41,2.46.25,4.72,1.59,7.15,2.31,21,6.19,49.65-6.48,51.63-26.9C109.51,99.5,109.12,96.75,107.2,93.56Z"/></g></g></svg>