<svg xmlns="http://www.w3.org/2000/svg" viewBox="0 0 825.91 355.54"><defs><style>.cls-1{fill:#1269b0;}.cls-2{fill:none;}.cls-3{fill:#d9d9d9;}</style></defs><title>ACIG Logo</title><g id="Ebene_2" data-name="Ebene 2"><g id="Ebene_1-2" data-name="Ebene 1"><path class="cls-1" d="M821.64,111.19v46.94c-25.24-16-61.15-23.47-88.18-5.69-13.86,8.89-19.55,23.82-22.75,38.39-.36,13.87,2.13,27,11.38,37,12.79,12.09,27.25,20.31,46.93,17.07,1.7-.28,1.49-10.3,1.42-15.65-.06-4.14-3.46-2.95-19.91-2.84V180.88h74l1.43,105.25c-50.14,17.77-125.16,19.9-165-25.61-21.33-28.44-32-73.6-12.8-106.66,17.07-37,56.53-56.89,95.29-59.73,26,1.42,58,.71,78.22,17.06Z"/><path class="cls-2" d="M266.3,145.92c-15.35,18.57-31.15,37.67-45,54.83l61.76-.58c-.93-21.94-.61-47.43-.07-74.49Q275,135.48,266.3,145.92Z"/><path class="cls-1" d="M308.21,0,0,353.93H83.72l71.91-86.08H283.84v87.69l74.78-.21V0ZM221.33,200.75c13.82-17.16,29.62-36.26,45-54.83q8.64-10.44,16.72-20.24c-.54,27.06-.86,52.55.07,74.49Z"/><path class="cls-1" d="M541.47,107.28c2.49,19.55,1.07,40.88,1.42,61.15-19.2-18.49-47.64-24.18-73.95-17.07-14.94,7.83-30.49,23.12-29.87,41.25.58,16.77,5,27,15.65,37,19.91,18.49,53,13.51,75.37,4.27l12.8-7.11v54c-29.51,18.14-73.24,22.76-106.66,10-32.36-11-61.87-44.8-66.85-79.64-1.77-31.29,4.27-62.94,28.45-85.34,33.77-40.17,101-38,143.64-18.48Z"/><polygon class="cls-1" points="632.58 292.81 562.46 292.81 562.46 97.22 632.58 97.22 632.58 292.81 632.58 292.81"/><path class="cls-1" d="M597.52,1.34A40.68,40.68,0,1,0,638.21,42,40.68,40.68,0,0,0,597.52,1.34Z"/><path class="cls-3" d="M27.68,341.33H77.83l71.91-86.08h146.7V342.9l49.58-.14V12.6H313.94ZM296,206.06l.37,6.59L195,213.59l8.21-10.34c15.65-19.7,34.84-42.91,53.41-65.36q15-18.1,28.23-34.26L296.4,89.5,296,110C295.19,145.52,294.47,179.07,296,206.06Z"/><circle class="cls-3" cx="597.52" cy="42.02" r="29.68" transform="translate(419.34 613.9) rotate(-76.72)"/></g></g></svg>