<?xml version="1.0" encoding="UTF-8"?>
<svg width="72px" height="72px" viewBox="0 0 72 72" version="1.1" xmlns="http://www.w3.org/2000/svg" xmlns:xlink="http://www.w3.org/1999/xlink">
    <!-- Generator: Sketch 43.2 (39069) - http://www.bohemiancoding.com/sketch -->
    <title>ag_logo</title>
    <desc>Created with Sketch.</desc>
    <defs>
        <polygon id="path-1" points="27.2084809 0.573159322 18.5996045 12.5050463 18.5866157 18.6192836 27.2764809 6.60518192 29.5762562 9.6555774 31.7786157 6.65397288"></polygon>
        <polygon id="path-2" points="39.8810449 0.44580339 48.7149326 12.1644701 48.7317416 18.1999503 39.9219213 6.47821017 37.6771573 9.56702373 35.4213146 6.60268475"></polygon>
        <polygon id="path-3" points="33.6894157 5.69601808 41.8108315 16.5022554 41.8261124 22.4582102 33.7173034 11.665035 27.4177528 20.2307299 27.4762022 14.1453062"></polygon>
        <path d="M0.286516854,28.1835412 C0.286516854,26.2707051 1.82835955,24.7205356 3.73006742,24.7205356 L64.2554157,24.7205356 C66.1575056,24.7205356 67.6993483,26.2707051 67.6993483,28.1835412 L67.6993483,64.1559254 C67.6993483,66.0687616 66.1575056,67.6193153 64.2554157,67.6193153 L3.73006742,67.6193153 C1.82835955,67.6193153 0.286516854,66.0687616 0.286516854,64.1559254 L0.286516854,28.1835412 Z" id="path-4"></path>
    </defs>
    <g id="Symbols" stroke="none" stroke-width="1" fill="none" fill-rule="evenodd">
        <g id="Footer" transform="translate(-387.000000, 2.000000)">
            <g id="ag_logo">
                <g transform="translate(389.000000, 0.000000)">
                    <g id="Fill-8">
                        <use fill="#0068A6" fill-rule="evenodd" xlink:href="#path-1"></use>
                        <path stroke="#FFFFFF" stroke-width="1" d="M27.2848187,7.44679905 L29.17701,9.95657986 L29.5817038,10.493361 L29.9793829,9.95136253 L32.1817425,6.94975801 L32.4013951,6.65039256 L32.178315,6.35357235 L27.6081802,0.272758789 L27.2002635,-0.269996658 L26.8030027,0.280606091 L18.1941262,12.2124931 L18.0999476,12.3430246 L18.0996056,12.5039842 L18.0866169,18.6182214 L18.0833241,20.1682498 L18.9917469,18.9123172 L27.2848187,7.44679905 Z"></path>
                    </g>
                    <g id="Fill-10">
                        <use fill="#0068A6" fill-rule="evenodd" xlink:href="#path-2"></use>
                        <path stroke="#FFFFFF" stroke-width="1" d="M39.9286778,7.31941278 L48.3320448,18.5003542 L49.2359296,19.703001 L49.2317396,18.1985578 L49.2149306,12.1630775 L49.2144667,11.9965054 L49.1141973,11.8634922 L40.2803097,0.144825498 L39.8730246,-0.395461875 L39.4761145,0.152492441 L35.0163841,6.3093738 L34.7985977,6.61003894 L35.023424,6.90547689 L37.2792667,9.86981588 L37.6863952,10.4048119 L38.0816278,9.8609686 L39.9286778,7.31941278 Z"></path>
                    </g>
                    <g id="Fill-6">
                        <use fill="#0068A6" fill-rule="evenodd" xlink:href="#path-3"></use>
                        <path stroke="#FFFFFF" stroke-width="1" d="M33.7215817,12.5031472 L41.4263601,22.7585402 L42.3299704,23.9612845 L42.3261107,22.4569273 L42.3108298,16.5009725 L42.3104033,16.3347438 L42.2105341,16.2018593 L34.0891184,5.395622 L33.6850451,4.85796799 L33.2866016,5.39980733 L27.0733882,13.8490955 L26.9777754,13.9791183 L26.9762253,14.140504 L26.9177759,20.2259278 L26.9029,21.774721 L27.8205504,20.5269632 L33.7215817,12.5031472 Z"></path>
                    </g>
                    <g id="Fill-1">
                        <use fill="#FFFFFF" fill-rule="evenodd" xlink:href="#path-4"></use>
                        <path stroke="#FFFFFF" stroke-width="2" d="M-0.713483146,28.1835412 L-0.713483146,64.1559254 C-0.713483146,66.6197126 1.27473338,68.6193153 3.73006742,68.6193153 L64.2554157,68.6193153 C66.7110555,68.6193153 68.6993483,66.6197891 68.6993483,64.1559254 L68.6993483,28.1835412 C68.6993483,25.7197168 66.7110938,23.7205356 64.2554157,23.7205356 L3.73006742,23.7205356 C1.27469503,23.7205356 -0.713483146,25.7197932 -0.713483146,28.1835412 Z"></path>
                    </g>
                    <path d="M3.73014382,25.0087864 C1.98926742,25.0087864 0.573110112,26.4329446 0.573110112,28.1836565 L0.573110112,64.1560407 C0.573110112,65.9071367 1.98926742,67.3312949 3.73014382,67.3312949 L64.2554921,67.3312949 C65.9967506,67.3312949 67.4129079,65.9071367 67.4129079,64.1560407 L67.4129079,28.1836565 C67.4129079,26.4329446 65.9967506,25.0087864 64.2554921,25.0087864 L3.73014382,25.0087864 Z M64.2554921,67.9075661 L3.73014382,67.9075661 C1.67333483,67.9075661 7.64044941e-05,66.2244701 7.64044941e-05,64.1560407 L7.64044941e-05,28.1836565 C7.64044941e-05,26.1152271 1.67333483,24.4325153 3.73014382,24.4325153 L64.2554921,24.4325153 C66.3123011,24.4325153 67.9859416,26.1152271 67.9859416,28.1836565 L67.9859416,64.1560407 C67.9859416,66.2244701 66.3123011,67.9075661 64.2554921,67.9075661 L64.2554921,67.9075661 Z" id="Fill-3" fill="#1D1D1B"></path>
                    <g id="Group-2" transform="translate(44.000000, 0.000000)">
                        <path d="M2.45620674,4.14584859 C1.31930787,4.14584859 0.394813483,3.21613107 0.394813483,2.07280904 C0.394813483,0.929871186 1.31930787,0.000153672316 2.45620674,0.000153672316 C3.59310562,0.000153672316 4.5176,0.929871186 4.5176,2.07280904 C4.5176,3.21613107 3.59310562,4.14584859 2.45620674,4.14584859" id="Path" stroke="#FFFFFF" fill="#FFFFFF"></path>
                        <path d="M1.58920674,3.29300565 L1.91583596,3.29300565 L1.91583596,2.23881356 L2.71311685,2.23881356 C3.02943146,2.23881356 3.0878809,2.44281356 3.12226292,2.68484746 C3.17039775,2.92649718 3.11882472,3.19273446 3.21165618,3.29300565 L3.5757236,3.29300565 C3.43819551,3.1239661 3.45194831,2.85388701 3.4313191,2.61223729 C3.40763371,2.37020339 3.34880225,2.15928814 3.06343146,2.10435028 L3.06343146,2.09743503 C3.35949888,2.0140678 3.49015056,1.76896045 3.49015056,1.47160452 C3.49015056,1.07743503 3.20477978,0.825412429 2.74406067,0.825412429 L1.58920674,0.825412429 L1.58920674,3.29300565 Z M1.91583596,1.96258757 L1.91583596,1.10163842 L2.72725169,1.10163842 C3.03286966,1.10163842 3.16313933,1.28143503 3.16313933,1.52346893 C3.16313933,1.88306215 2.90221798,1.96258757 2.5966,1.96258757 L1.91583596,1.96258757 Z" id="Fill-12" fill="#000000"></path>
                        <path d="M2.45620674,0.237577401 C1.44957753,0.237577401 0.631285393,1.06087684 0.631285393,2.07280904 C0.631285393,3.08512542 1.44957753,3.90842486 2.45620674,3.90842486 C3.46283596,3.90842486 4.28112809,3.08512542 4.28112809,2.07280904 C4.28112809,1.06087684 3.46283596,0.237577401 2.45620674,0.237577401 M2.45620674,4.14584859 C1.31930787,4.14584859 0.394813483,3.21613107 0.394813483,2.07280904 C0.394813483,0.929871186 1.31930787,0.000153672316 2.45620674,0.000153672316 C3.59310562,0.000153672316 4.5176,0.929871186 4.5176,2.07280904 C4.5176,3.21613107 3.59310562,4.14584859 2.45620674,4.14584859" id="Fill-14" fill="#000000"></path>
                    </g>
                    <path d="M66.1357685,29.1554418 C66.1350045,27.5065379 64.7517011,26.1695887 63.0459708,26.1688203 L4.89756629,26.1688203 C3.19145393,26.168052 1.93001573,27.5038486 1.93077978,29.1527525 L1.93077978,45.575713 C1.93154382,47.2246169 3.20138652,48.5742441 4.90711685,48.5750124 L19.9603303,48.5750124 L19.9603303,36.7191932 L19.9546,36.2977469 C20.0306225,32.0198938 23.6414989,28.5749446 28.0848022,28.5749446 C32.5754764,28.5749446 36.2161506,32.0940407 36.2161506,36.4352836 C36.2161506,40.5460181 32.9521506,43.920278 28.7926899,44.266809 L28.7372966,44.2552836 L25.3159034,38.4157356 C25.9366899,39.2209785 26.9299483,39.742696 28.0485101,39.742696 C29.9295888,39.742696 31.4546225,38.2685944 31.4546225,36.4498825 C31.4546225,34.631939 29.9295888,33.1574531 28.0485101,33.1574531 C26.2067798,33.1574531 24.7107798,34.5716226 24.6485101,36.3369333 L24.6485101,43.5702893 L24.6485101,48.5750124 L63.0555213,48.5750124 C64.7612517,48.5757808 66.143791,47.2518938 66.143027,45.603374 L66.1357685,29.1554418 Z" id="Fill-18" fill="#000000"></path>
                    <path d="M24.6486629,36.3370486 C24.6475169,36.3750825 24.6425506,36.4115797 24.6425506,36.4499977 L24.6486629,36.3239864 L24.6486629,36.3370486 C24.7109326,34.5713537 26.2069326,33.1575684 28.0486629,33.1575684 C29.9297416,33.1575684 31.4543933,34.6320542 31.4543933,36.4499977 C31.4543933,38.2683254 29.9297416,39.7424271 28.0486629,39.7424271 C26.9297191,39.7424271 25.9368427,39.2210938 25.3160562,38.4154667 L28.7374494,44.2550147 L28.7928427,44.2669243 C32.9519213,43.920009 36.2159213,40.5461333 36.2159213,36.4353989 C36.2159213,32.0941559 32.5756292,28.5750599 28.0849551,28.5750599 C23.6416517,28.5750599 20.0307753,32.020009 19.9547528,36.297478 L19.9604831,36.7193085 L19.9604831,48.5747435 L24.6486629,48.5747435 L24.6486629,43.5700203 L24.6486629,36.3370486 Z" id="Fill-20" fill="#FFFFFF"></path>
                    <path d="M36.9834427,36.2199887 L36.9964315,44.1771412 L41.7117348,44.1771412 L41.7117348,36.4040113 L41.6723865,36.4297514 C41.7411506,34.6702034 43.2386787,33.2641017 45.0762067,33.2641017 C46.9316899,33.2641017 48.4043865,34.6725085 48.4444989,36.4566441 L48.4444989,29.2636271 C47.4275551,28.8210508 46.2994427,28.5751751 45.1117348,28.5751751 C40.6955551,28.5751751 37.1018697,31.9782486 36.9834427,36.2199887" id="Fill-22" fill="#FFFFFF"></path>
                    <path d="M65.4810202,36.365939 C65.4634472,32.0392949 61.8212449,28.5639955 57.3412674,28.5639955 C52.8502112,28.5639955 49.2099191,32.0834757 49.2099191,36.4247186 C49.2099191,40.5047186 52.4529079,43.8555435 56.5680539,44.2443345 L59.9753124,38.4478147 L59.9558292,38.5065944 C59.3312225,39.253826 58.3757843,39.7317469 57.3053573,39.7317469 C55.4242787,39.7317469 53.8992449,38.2576452 53.8992449,36.4389333 C53.8992449,34.6209898 55.4242787,33.1468881 57.3053573,33.1468881 C59.1516719,33.1468881 60.6564584,34.593713 60.7110876,36.365939 L60.7110876,44.2443345 L65.4810202,44.2550915 L65.4810202,36.365939 Z" id="Fill-24" fill="#FFFFFF"></path>
                    <path d="M24.6491978,56.0544746 L24.652636,50.4888475 L21.6747708,50.4888475 L21.6747708,56.074452 C21.745827,58.7425876 24.023827,60.8163955 26.8011303,60.8163955 C29.5864562,60.8163955 31.8514674,58.6615254 31.9099169,55.9826328 L31.9030404,50.4888475 L28.9316697,50.4876949 L28.9316697,56.0218192 C28.8548831,57.0979096 27.9204562,58.0038079 26.7877596,58.0038079 C25.6466584,58.0038079 24.7141416,57.1417062 24.6491978,56.0544746" id="Fill-26" fill="#1D1D1B"></path>
                    <path d="M35.7877506,60.4560339 L35.7877506,55.5811638 L35.7839303,55.6656836 C35.7839303,54.442452 36.8100427,53.4504972 38.0753011,53.4504972 C39.3409416,53.4504972 40.3666719,54.442452 40.3666719,55.6656836 C40.3666719,56.8889153 39.3409416,57.8808701 38.0753011,57.8808701 C37.3227169,57.8808701 36.6545596,57.530113 36.237009,56.9880339 L38.5386944,60.9166667 L38.5757506,60.9247345 C41.3744472,60.6911525 43.5703124,58.4214124 43.5703124,55.6560791 C43.5703124,52.7351525 41.1211663,50.3670621 38.0997506,50.3670621 C35.1104247,50.3670621 32.6811438,52.6848249 32.6295708,55.5631073 L32.633773,55.8470169 L32.633773,65.6213446 L35.7877506,65.6390169 L35.7877506,60.4560339 Z" id="Fill-28" fill="#1D1D1B"></path>
                    <path d="M47.2860921,60.4560339 L47.2860921,55.5811638 L47.2822719,55.6656836 C47.2822719,54.442452 48.3083843,53.4504972 49.5736427,53.4504972 C50.8392831,53.4504972 51.8650135,54.442452 51.8650135,55.6656836 C51.8650135,56.8889153 50.8392831,57.8808701 49.5736427,57.8808701 C48.8210584,57.8808701 48.1529011,57.530113 47.7353506,56.9880339 L50.037036,60.9166667 L50.0740921,60.9247345 C52.8724067,60.6911525 55.0686539,58.4214124 55.0686539,55.6560791 C55.0686539,52.7351525 52.6195079,50.3670621 49.5980921,50.3670621 C46.6087663,50.3670621 44.1791034,52.6848249 44.1279124,55.5631073 L44.1317326,55.8470169 L44.1321146,65.6213446 L47.2860921,65.6390169 L47.2860921,60.4560339 Z" id="Fill-30" fill="#1D1D1B"></path>
                    <path d="M60.8441843,61.0202802 C57.9496,61.0083706 55.6246112,58.9003706 55.6246112,55.8691842 C55.6246112,52.8306983 57.9793978,50.3673311 60.8839146,50.3673311 C63.6134652,50.3673311 65.855173,52.5613876 66.1153303,55.3455458 L62.2370382,57.6510147 L62.2763865,57.6379525 C62.7764539,57.2157379 63.0962067,56.5691616 63.0962067,55.8445966 C63.0962067,54.5721898 62.1098247,53.5402802 60.8934652,53.5402802 C59.6767236,53.5402802 58.6903416,54.5721898 58.6903416,55.8445966 C58.6903416,57.0939525 59.6583865,58.1124158 60.8441843,58.148913 L66.1153303,58.148913 L66.1222067,61.019896 L60.8441843,61.0202802 Z" id="Fill-32" fill="#1D1D1B"></path>
                    <path d="M9.67869213,55.6271503 C9.67869213,54.4035345 8.58114157,53.4119638 7.31550112,53.4119638 C6.04986067,53.4119638 5.02413034,54.4035345 5.02413034,55.6271503 C5.02413034,56.8507661 6.04986067,57.8423367 7.31550112,57.8423367 C8.06846742,57.8423367 8.73662472,57.4915797 9.15417528,56.9495006 L6.85248989,60.8785175 C4.01673708,60.6530034 1.82048989,58.3832633 1.82048989,55.6175458 C1.82048989,52.6966192 4.26963596,50.328913 7.29143371,50.328913 C10.2807596,50.328913 12.6473888,52.5717605 12.6985798,55.4496588 L12.6863551,55.8084836 L12.6863551,60.7813198 C12.5289618,63.6699751 10.1611865,65.7572294 7.55426517,65.8186983 C6.82613034,65.8363706 5.17235506,65.5728226 4.70284944,65.0799186 L3.07581573,62.889704 C3.07581573,62.889704 6.33102921,62.9246644 7.51377079,62.889704 C8.2075236,62.8693424 8.65678202,62.6023367 9.20804045,62.0479638 C9.65538876,61.5980881 9.69932135,60.473591 9.67869213,60.4939525 C9.67869213,60.4943367 9.67869213,55.6271503 9.67869213,55.6271503" id="Fill-34" fill="#1D1D1B"></path>
                    <path d="M20.7862629,50.7911209 C20.1429371,50.5183525 19.4319933,50.3673695 18.6843753,50.3673695 C15.7886449,50.3673695 13.4487573,52.6467141 13.4487573,55.4458554 L13.4487573,60.7775164 L16.384218,60.7775164 L16.384218,57.0847706 L16.383836,55.7858554 C16.3826899,55.7566576 16.3907124,55.3870757 16.3907124,55.3574938 C16.3907124,54.1838215 17.3751843,53.2322056 18.5892517,53.2322056 C19.8033191,53.2322056 20.7866449,54.1323412 20.7866449,55.3063977 L20.7862629,50.7911209 Z" id="Fill-36" fill="#1D1D1B"></path>
                    <path d="M19.0882494,36.3768113 C19.0706764,32.0501672 15.4280921,28.5748678 10.9484966,28.5748678 C6.45744045,28.5748678 2.81714831,32.094348 2.81714831,36.435591 C2.81714831,40.515591 6.06013708,43.8664158 10.1749011,44.255591 L13.5821596,38.4583028 L13.5630584,38.5174667 C12.9384517,39.2650825 11.9833955,39.7426192 10.9122045,39.7426192 C9.03112584,39.7426192 7.50647416,38.2685175 7.50647416,36.4498056 C7.50647416,34.6318621 9.03112584,33.1577605 10.9122045,33.1577605 C12.7589011,33.1577605 14.2636876,34.6045853 14.3183169,36.3768113 L14.3183169,44.255591 L19.0882494,44.2659638 L19.0882494,36.3768113 Z" id="Fill-38" fill="#FFFFFF"></path>
                </g>
            </g>
        </g>
    </g>
</svg>