<?xml version="1.0" encoding="utf-8"?>
<!-- Generator: Adobe Illustrator 23.1.0, SVG Export Plug-In . SVG Version: 6.00 Build 0)  -->
<svg version="1.1" id="Слой_1" xmlns="http://www.w3.org/2000/svg" xmlns:xlink="http://www.w3.org/1999/xlink" x="0px" y="0px"
	 viewBox="0 0 259 65" style="enable-background:new 0 0 259 65;" xml:space="preserve">
<style type="text/css">
	.st0{fill:#D31217;}
	.st1{fill:#282727;}
</style>
<g>
	<g>
		<path class="st0" d="M94.5,35.5c0-1.6-7.1-3-16.7-3.5c-0.2,0.4-0.5,0.7-0.9,0.8c0,0.8,0,1.5,0,2.3c0,1.2,0,2.5,0,3.7
			C86.9,38.5,94.4,37.2,94.5,35.5z"/>
		<path class="st0" d="M75.9,35.2c0-0.8,0-1.6,0-2.4c-0.4-0.1-0.8-0.5-1-0.9c-0.9,0-1.8,0-2.7,0c-1.1,0-2.2,0-3.2,0
			c0,1.1-0.1,2.2-0.1,3.3c0,0.7,0,1.5,0,2.2c0.7,0.2,1.2,0.7,1.4,1.4c0.6,0,1.2,0,1.9,0c1.2,0,2.5,0,3.7,0
			C75.8,37.6,75.9,36.4,75.9,35.2z"/>
		<path class="st0" d="M72.3,39.8c-0.7,0-1.4,0-2,0c-0.2,0.6-0.7,1.1-1.2,1.3c0.3,9.5,1.6,16.4,3.2,16.4c1.7,0,3.1-7.6,3.6-17.8
			C74.6,39.7,73.5,39.8,72.3,39.8z"/>
		<path class="st0" d="M76.7,29.6c0.5,0.1,0.9,0.4,1.1,0.9c7.7,0.2,14.1,1,17.7,2.2V27c0-0.7-0.6-1.2-1.2-1.2H82.8
			c-0.7,0-1.2-0.6-1.2-1.2v-1.9v-2.5v-7c0-0.7-0.6-1.2-1.2-1.2h-6.1C75.4,15.6,76.4,22,76.7,29.6z"/>
		<path class="st0" d="M76.9,39.7c-0.2,7.7-0.9,14.3-2,18.2h5.5c0.7,0,1.2-0.6,1.2-1.2v-7v-2.5v-1.9c0-0.7,0.6-1.2,1.2-1.2h11.5
			c0.7,0,1.2-0.6,1.2-1.2v-5.8C91.8,38.3,85,39.3,76.9,39.7z"/>
		<path class="st0" d="M67.8,41c-0.6-0.2-1.1-0.7-1.2-1.3c-8-0.2-14.6-1.1-18.1-2.3v5.5c0,0.7,0.6,1.2,1.2,1.2h11.8
			c0.7,0,1.2,0.6,1.2,1.2v1.9v2.5v7c0,0.7,0.6,1.2,1.2,1.2h6.1C69,54.2,68.1,48.2,67.8,41z"/>
		<path class="st0" d="M72.2,30.5c0.9,0,1.8,0,2.7,0c0.2-0.4,0.5-0.6,0.9-0.8c-0.3-9.7-1.6-16.8-3.2-16.8c-1.7,0-3.1,7.6-3.5,17.7
			C70.1,30.5,71.1,30.5,72.2,30.5z"/>
		<path class="st0" d="M49.9,35.1c0,1.6,7.1,3,16.7,3.5c0.2-0.5,0.6-1,1.1-1.2c0-0.7,0-1.5,0-2.2c0-1.1,0-2.2,0-3.3
			C57.5,32.1,49.9,33.4,49.9,35.1z"/>
		<path class="st0" d="M67.6,30.6c0.2-8,1-14.8,2.1-18.6H64c-0.7,0-1.2,0.6-1.2,1.2v7v2.5v1.9c0,0.7-0.6,1.2-1.2,1.2H49.6
			c-0.7,0-1.2,0.6-1.2,1.2v6.4C52,32,59.1,30.9,67.6,30.6z"/>
	</g>
	<g>
		<path class="st1" d="M193.8,44.3c-10,0-10.2-0.5-10.2-8c0-7.4,0.2-8,10.2-8c10,0,10.3,0.6,10.3,8
			C204.1,43.7,203.8,44.3,193.8,44.3 M193.8,32.3c-5.5,0-5.5,0-5.5,4c0,3.9,0,3.9,5.5,3.9c5.5,0,5.5,0,5.5-3.9
			C199.3,32.4,199.3,32.3,193.8,32.3"/>
		<path class="st1" d="M116.8,44.1c-0.1,0-0.2-0.1-0.3-0.2l-1.3-2.2c-0.1-0.1-0.2-0.2-0.3-0.2h-9.1c-0.1,0-0.2,0.1-0.3,0.2l-1.3,2.2
			c-0.1,0.1-0.2,0.2-0.3,0.2h-5.2c-0.1,0-0.2-0.1-0.1-0.2l7.5-15.1c0-0.1,0.2-0.2,0.3-0.2h7.7c0.1,0,0.2,0.1,0.3,0.2l7.5,15.1
			c0,0.1,0,0.2-0.1,0.2H116.8z M110.8,32.2c0-0.1-0.2-0.2-0.3-0.2h-0.4c-0.1,0-0.2,0.1-0.3,0.2l-2.4,5.1c0,0.1,0,0.2,0.1,0.2h5.5
			c0.1,0,0.2-0.1,0.1-0.2L110.8,32.2z"/>
		<path class="st1" d="M157.5,43.9c0,0.1-0.1,0.2-0.2,0.2h-4.4c-0.1,0-0.2-0.1-0.2-0.2V28.7c0-0.1,0.1-0.2,0.2-0.2h4.4
			c0.1,0,0.2,0.1,0.2,0.2V43.9z"/>
		<path class="st1" d="M141.1,28.5c-0.1,0-0.2,0.1-0.3,0.2l-3.9,8.4c0,0.1-0.1,0.2-0.1,0.2c0,0,0,0,0,0s-0.1,0.1-0.1,0.2
			c0,0-0.1,0.1-0.3,0.1c-0.1,0-0.2,0-0.2,0c-0.1-0.1-0.1-0.2-0.1-0.2c0,0-0.1-0.1-0.1-0.2l-3.9-8.4c0-0.1-0.2-0.2-0.3-0.2h-8.2
			c-0.1,0-0.2,0.1-0.2,0.2v15.1c0,0.1,0.1,0.2,0.2,0.2h4.4c0.1,0,0.2-0.1,0.2-0.2V33.4c0-0.1,0-0.3,0-0.3c0-0.1,0-0.3,0.1-0.4
			c0,0,0-0.1,0.2-0.1h0.1c0.1,0,0.2,0.2,0.2,0.3l5.7,11c0.1,0.1,0.2,0.2,0.3,0.2h3.5c0.1,0,0.2-0.1,0.3-0.2l5.3-11
			c0-0.1,0.1-0.2,0.2-0.3h0.1c0.1,0,0.2,0.1,0.2,0.1c0,0.1,0.1,0.2,0.1,0.3c0,0.1,0,0.3,0,0.5v10.4c0,0.1,0.1,0.2,0.2,0.2h4.4
			c0.1,0,0.2-0.1,0.2-0.2V28.7c0-0.1-0.1-0.2-0.2-0.2H141.1z"/>
		<path class="st1" d="M180.4,39.3v-1.1c0-0.1-0.1-0.2-0.2-0.2h-4.4c-0.1,0-0.2,0.1-0.2,0.2l0,0c-0.1,2-0.4,2.1-4.8,2.1
			c-5.5,0-5.5,0-5.5-3.9c0-3.9,0-4,5.5-4c3.6,0,4.3,0,4.7,1.1c0,0.1,0.1,0.3,0.1,0.3c0,0.1,0.1,0.2,0.2,0.2h4.4
			c0.1,0,0.2-0.1,0.2-0.2l0-1.6c-0.4-3.5-1.8-3.9-9.5-3.9c-10,0-10.2,0.6-10.2,8c0,7.4,0.2,8,10.2,8
			C179.3,44.3,180.3,43.9,180.4,39.3L180.4,39.3z"/>
	</g>
	<g>
		<g>
			<path class="st1" d="M91.7,55.9c-0.4-0.7-0.9-1.4-1.5-2.2c-0.6,0.8-1.2,1.5-1.7,2.2h-1.3c0.8-0.9,1.6-2,2.4-3.1
				c-0.8-1.1-1.7-2.2-2.4-3.1h1.4c0.5,0.6,1.1,1.4,1.6,2.2c0.6-0.8,1.1-1.5,1.5-2.2H93c-0.6,0.9-1.4,2-2.1,3c0.8,1,1.5,2.2,2.2,3.1
				H91.7z"/>
			<path class="st1" d="M93.6,52h2.8v1.1h-2.8V52z"/>
			<path class="st1" d="M97.7,49.8h1.1v0.5c0.2-0.3,0.8-0.6,1.7-0.6c0.2,0,0.4,0,0.6,0v1.1c-0.2,0-0.5-0.1-0.7-0.1
				c-0.8,0-1.6,0.2-1.6,0.8v4.5h-1.1V49.8z"/>
			<path class="st1" d="M107,55.6c-0.7,0.3-1.8,0.5-2.6,0.5c-1.9,0-2.6-0.5-2.6-2.1c0-1.8,1-2,2.4-2c0.6,0,1.1,0.1,1.6,0.2
				c0-1.3-0.3-1.6-1.7-1.6c-0.6,0-1.3,0.1-1.8,0.3l-0.2-1c0.5-0.1,1.4-0.3,2.3-0.3c1.8,0,2.6,0.5,2.6,2.4V55.6z M105.9,53
				c-0.4-0.1-0.9-0.1-1.4-0.1c-1,0-1.4,0.1-1.4,1.1c0,1,0.3,1.2,1.4,1.2c0.5,0,1-0.1,1.4-0.2V53z"/>
			<path class="st1" d="M108,49.8h1.2c0.6,1.4,1.2,3.4,1.7,5.1c0.7-1.7,1.3-3.4,1.7-5.1h1.2c-0.6,2.1-1.4,4.2-2.3,6.3
				c-0.3,0.7-0.7,1.6-1,2.2h-1.3c0.3-0.6,0.7-1.4,1-2C109.6,54,108.8,51.5,108,49.8z"/>
			<path class="st1" d="M119.8,50.8v3c0,0.9,0.2,1.3,1,1.3c0.4,0,0.8-0.1,1.1-0.2l0.2,1c-0.4,0.1-1,0.3-1.5,0.3c-1.4,0-2-0.4-2-2.2
				v-3.1h-1.1v-1h1.1v-1.2l1.2-0.5v1.6h2.2v1H119.8z"/>
			<path class="st1" d="M128.1,55.8c-0.6,0.2-1.5,0.3-2.1,0.3c-1.8,0-2.9-0.8-2.9-3.3c0-2.4,1-3.2,2.8-3.2c1.9,0,2.7,0.7,2.6,3.5
				h-4.2c0,1.7,0.6,2,1.8,2c0.4,0,1.3-0.1,1.8-0.3L128.1,55.8z M124.3,52.1h3c-0.1-1.3-0.4-1.6-1.4-1.6
				C124.8,50.6,124.4,50.9,124.3,52.1z"/>
			<path class="st1" d="M134.6,55.8c-0.5,0.2-1.3,0.3-1.8,0.3c-1.9,0-3-0.8-3-3.3c0-2.5,1.1-3.2,3-3.2c0.6,0,1.4,0.1,1.8,0.3l-0.3,1
				c-0.4-0.2-1-0.3-1.5-0.3c-1.3,0-1.9,0.3-1.9,2.2c0,1.8,0.6,2.2,1.9,2.2c0.5,0,1.1-0.1,1.5-0.3L134.6,55.8z"/>
			<path class="st1" d="M140.8,52.4v3.5h-1.2v-3.4c0-1.2-0.2-1.9-1.4-1.9c-0.8,0-1.4,0.2-1.4,0.7v4.6h-1.2v-8.8h1.2v2.9
				c0.4-0.2,1-0.5,1.7-0.5C140.1,49.6,140.8,50.1,140.8,52.4z"/>
			<path class="st1" d="M143.7,55.9h-1.1v-5.8c0.7-0.3,1.8-0.5,2.7-0.5c1.8,0,2.5,0.6,2.5,2.9v3.5h-1.1v-3.3c0-1.6-0.3-2-1.6-2
				c-0.5,0-0.9,0-1.3,0.2V55.9z"/>
			<path class="st1" d="M149.3,52.8c0-2.5,0.9-3.2,2.9-3.2c1.9,0,2.9,0.7,2.9,3.2c0,2.5-0.9,3.3-2.9,3.3
				C150.2,56.1,149.3,55.4,149.3,52.8z M150.5,52.8c0,1.9,0.4,2.3,1.7,2.3c1.3,0,1.7-0.4,1.7-2.3c0-1.9-0.4-2.3-1.7-2.3
				C150.9,50.6,150.5,50.9,150.5,52.8z"/>
			<path class="st1" d="M157.8,54.3c0,0.6,0.1,0.9,0.5,1.4l-1,0.5c-0.5-0.5-0.7-1-0.7-1.9v-7.2h1.1V54.3z"/>
			<path class="st1" d="M159.4,52.8c0-2.5,0.9-3.2,2.9-3.2c1.9,0,2.9,0.7,2.9,3.2c0,2.5-0.9,3.3-2.9,3.3
				C160.4,56.1,159.4,55.4,159.4,52.8z M160.6,52.8c0,1.9,0.4,2.3,1.7,2.3c1.3,0,1.7-0.4,1.7-2.3c0-1.9-0.4-2.3-1.7-2.3
				C161,50.6,160.6,50.9,160.6,52.8z"/>
			<path class="st1" d="M169.3,56.1c-1.8,0-2.7-0.7-2.7-3.3s0.9-3.3,2.9-3.3c0.8,0,1.9,0.2,2.6,0.5v5.4c0,2.4-1.2,2.9-3.2,2.9
				c-0.6,0-1.6-0.2-2.1-0.4l0.3-1c0.5,0.2,1.3,0.3,1.8,0.3c1.3,0,2-0.4,2-1.8C170.6,55.9,170.1,56.1,169.3,56.1z M170.9,50.8
				c-0.4-0.1-1-0.2-1.4-0.2c-1.3,0-1.7,0.3-1.7,2.3c0,1.8,0.4,2.2,1.7,2.2c0.8,0,1.5-0.3,1.5-0.7V50.8z"/>
			<path class="st1" d="M175.1,47.9c0,0.6-0.2,0.7-0.7,0.7c-0.5,0-0.7-0.1-0.7-0.7c0-0.5,0.2-0.6,0.7-0.6
				C174.9,47.3,175.1,47.4,175.1,47.9z M175,55.9h-1.1v-6.2h1.1V55.9z"/>
			<path class="st1" d="M181.6,55.8c-0.6,0.2-1.5,0.3-2.1,0.3c-1.8,0-2.9-0.8-2.9-3.3c0-2.4,1-3.2,2.8-3.2c1.9,0,2.7,0.7,2.6,3.5
				h-4.2c0,1.7,0.6,2,1.8,2c0.4,0,1.3-0.1,1.8-0.3L181.6,55.8z M177.8,52.1h3c-0.1-1.3-0.4-1.6-1.4-1.6
				C178.3,50.6,177.9,50.9,177.8,52.1z"/>
			<path class="st1" d="M187.5,50.9c-0.5-0.2-1.2-0.3-1.8-0.3c-0.9,0-1.3,0.1-1.3,0.9c0,0.5,0.3,0.7,1.4,0.8
				c1.5,0.1,2.2,0.6,2.2,1.8c0,1.5-0.9,2-2.5,2c-0.6,0-1.6-0.1-2.2-0.3l0.3-1c0.4,0.2,1.3,0.3,1.9,0.3c0.9,0,1.4-0.1,1.4-1
				c0-0.5-0.3-0.8-1.4-0.9c-1.4-0.1-2.2-0.5-2.2-1.7c0-1.5,1-2,2.5-2c0.6,0,1.4,0.1,2.1,0.3L187.5,50.9z"/>
		</g>
	</g>
</g>
</svg>
