<svg xmlns="http://www.w3.org/2000/svg" viewBox="0 0 862.55 192.84"><defs><style>.cls-1{fill:#dc911b;}.cls-2{fill:#6a6e75;}</style></defs><title>anton_hipp_logo_rgb</title><g id="Ebene_2" data-name="Ebene 2"><g id="Ebene_1-2" data-name="Ebene 1"><path class="cls-1" d="M278.09,135.8h3.73l-8.16,38.28h-3.72Z"/><path class="cls-1" d="M288.24,146h3.4l-1.4,6.37a17.6,17.6,0,0,1,2.62-2.78,18.78,18.78,0,0,1,3.13-2.19,15.18,15.18,0,0,1,3.43-1.4,13.28,13.28,0,0,1,3.56-.49c2.2,0,3.77.6,4.7,1.78a7.74,7.74,0,0,1,1.41,4.92,19,19,0,0,1-.19,2.56c-.13.89-.3,1.85-.52,2.89l-3.45,16.47h-3.67l3.34-15.71a23.51,23.51,0,0,0,.54-4.59q0-5-4.21-5a9.45,9.45,0,0,0-3.16.59,13.52,13.52,0,0,0-3.18,1.68,15.89,15.89,0,0,0-2.84,2.56,15.38,15.38,0,0,0-2.16,3.22L286,174.08H282.3Z"/><path class="cls-1" d="M321.08,174.62a16,16,0,0,1-5.88-1.08,10.89,10.89,0,0,1-4.48-3.13l2.16-2.48a11.5,11.5,0,0,0,8.74,3.88,9.78,9.78,0,0,0,5.86-1.64,5.17,5.17,0,0,0,2.3-4.4,2.91,2.91,0,0,0-.43-1.62,3.81,3.81,0,0,0-1.3-1.16,11,11,0,0,0-2.16-1c-.86-.29-1.85-.58-3-.86-1.3-.36-2.42-.71-3.37-1.06a10.35,10.35,0,0,1-2.38-1.16,4.35,4.35,0,0,1-1.43-1.54,4.3,4.3,0,0,1-.49-2.13,8.53,8.53,0,0,1,1-4.16,9.77,9.77,0,0,1,2.65-3.1,11.49,11.49,0,0,1,3.83-1.92,16.06,16.06,0,0,1,4.56-.65,12.61,12.61,0,0,1,5.35,1,8.77,8.77,0,0,1,3.51,2.79l-2.27,2.16a6.85,6.85,0,0,0-3.1-2.43,11.08,11.08,0,0,0-4.24-.81,11.29,11.29,0,0,0-2.92.37,7.57,7.57,0,0,0-2.45,1.14,5.44,5.44,0,0,0-1.68,1.89,5.55,5.55,0,0,0-.62,2.7,2.57,2.57,0,0,0,1.38,2.46,21.38,21.38,0,0,0,4.29,1.48,24.9,24.9,0,0,1,6.67,2.46,4.54,4.54,0,0,1,2.29,4.18,8.38,8.38,0,0,1-.91,3.89,9.46,9.46,0,0,1-2.57,3.08,12.31,12.31,0,0,1-3.94,2A16.33,16.33,0,0,1,321.08,174.62Z"/><path class="cls-1" d="M343.92,174.41a5.51,5.51,0,0,1-3.38-1,3.59,3.59,0,0,1-1.32-3,7,7,0,0,1,.16-1.35l4.27-20.15h-3.73l.65-2.91h3.67l2.06-9.51H350L347.92,146h6.15l-.65,2.91h-6.1l-3.89,18.31c-.07.4-.13.7-.18.92a2.17,2.17,0,0,0-.09.59,2,2,0,0,0,.76,1.78,3.08,3.08,0,0,0,1.84.54,7.05,7.05,0,0,0,2.7-.51,17.38,17.38,0,0,0,1.62-.73l.32,3a10.32,10.32,0,0,1-2.51,1.08A12.57,12.57,0,0,1,343.92,174.41Z"/><path class="cls-1" d="M360,146h3.46L362,152.7a18.43,18.43,0,0,1,4.78-4.89,10.46,10.46,0,0,1,5.43-1.92c.29,0,.53,0,.73,0l.56.08-.7,3.19a12.51,12.51,0,0,0-6.53,2.05,14.22,14.22,0,0,0-4.86,5.35l-3.67,17.49H354Z"/><path class="cls-1" d="M380.09,174.62q-6.58,0-6.59-7.23a18.76,18.76,0,0,1,.14-2.3,24.45,24.45,0,0,1,.45-2.62L377.66,146h3.62l-3.35,15.87a19.34,19.34,0,0,0-.54,4.22q0,5.34,4.64,5.34a9.39,9.39,0,0,0,3.08-.54,12.23,12.23,0,0,0,3-1.56,17.87,17.87,0,0,0,2.76-2.43,16.22,16.22,0,0,0,2.27-3.19L396.94,146h3.67l-4.92,23a4.93,4.93,0,0,0-.16,1c0,.62.34.92,1,.92l-.7,3.24-.73.08-.57,0a2.77,2.77,0,0,1-1.89-.57,1.94,1.94,0,0,1-.65-1.54,4.22,4.22,0,0,1,0-.43c0-.18.05-.43.11-.75s.12-.74.21-1.25.23-1.15.41-1.94a17.93,17.93,0,0,1-5.83,5.1A14.25,14.25,0,0,1,380.09,174.62Z"/><path class="cls-1" d="M408.5,146h3.4l-1.4,6.37a17.78,17.78,0,0,1,5.31-5,12,12,0,0,1,6.24-1.84,5.91,5.91,0,0,1,4.83,1.92,8.24,8.24,0,0,1,1.6,5.43,17.14,17.14,0,0,1,5.48-5.48,12.11,12.11,0,0,1,6.34-1.87q3.4,0,4.84,1.84a8.07,8.07,0,0,1,1.43,5.07,24.51,24.51,0,0,1-.65,5.24l-3.51,16.47h-3.67L442,158.37c.18-.83.32-1.61.41-2.35a16.77,16.77,0,0,0,.13-2q0-5.18-4.26-5.18a8.13,8.13,0,0,0-3,.59,11.35,11.35,0,0,0-2.84,1.68,15.64,15.64,0,0,0-2.51,2.56,17.94,17.94,0,0,0-2,3.27l-3.62,17.17h-3.67l3.29-15.71c.18-.9.33-1.72.43-2.46a13.86,13.86,0,0,0,.17-2c0-3.39-1.43-5.08-4.27-5.08a9.33,9.33,0,0,0-5.83,2.21,16.57,16.57,0,0,0-4.59,5.84l-3.62,17.22h-3.67Z"/><path class="cls-1" d="M461.53,174.62a11,11,0,0,1-4.62-.92,9.56,9.56,0,0,1-3.4-2.53,11.24,11.24,0,0,1-2.1-3.78,14.34,14.34,0,0,1-.73-4.65,16.65,16.65,0,0,1,1.29-6.45,18.09,18.09,0,0,1,3.57-5.51,17.54,17.54,0,0,1,5.37-3.86,15.64,15.64,0,0,1,6.72-1.46,12.07,12.07,0,0,1,3.49.49,8.54,8.54,0,0,1,2.86,1.43,6.61,6.61,0,0,1,1.91,2.37,7.34,7.34,0,0,1,.71,3.27,6.81,6.81,0,0,1-3.68,6.27q-3.66,2.1-11.34,2.1c-1,0-2.09,0-3.26,0s-2.44-.11-3.81-.22c0,.29-.06.56-.08.81s0,.51,0,.76a12,12,0,0,0,.49,3.48,8.8,8.8,0,0,0,1.46,2.92,6.75,6.75,0,0,0,2.43,2,7.44,7.44,0,0,0,3.4.73,9.83,9.83,0,0,0,2.64-.37,12.31,12.31,0,0,0,2.57-1.06,11.21,11.21,0,0,0,2.24-1.64,10.2,10.2,0,0,0,1.73-2.16l3,.91a14.42,14.42,0,0,1-2.37,2.89,15.13,15.13,0,0,1-3.11,2.27,16,16,0,0,1-3.56,1.46A14.4,14.4,0,0,1,461.53,174.62Zm5.72-26.3a10.93,10.93,0,0,0-4.42.87,12.84,12.84,0,0,0-3.57,2.27,13.39,13.39,0,0,0-2.64,3.24,15.62,15.62,0,0,0-1.62,3.78l3.59.18c1.09.06,2.15.09,3.16.09a28.55,28.55,0,0,0,5.4-.44,12,12,0,0,0,3.56-1.18,4.81,4.81,0,0,0,1.94-1.84,4.69,4.69,0,0,0,.6-2.32,3.87,3.87,0,0,0-1.78-3.54A7.84,7.84,0,0,0,467.25,148.32Z"/><path class="cls-1" d="M484.61,146H488l-1.4,6.37a17.16,17.16,0,0,1,2.62-2.78,18.78,18.78,0,0,1,3.13-2.19,15.18,15.18,0,0,1,3.43-1.4,13.23,13.23,0,0,1,3.56-.49c2.2,0,3.76.6,4.7,1.78a7.74,7.74,0,0,1,1.4,4.92,17.46,17.46,0,0,1-.19,2.56c-.12.89-.29,1.85-.51,2.89l-3.45,16.47h-3.68L501,158.37a23.51,23.51,0,0,0,.54-4.59q0-5-4.21-5a9.45,9.45,0,0,0-3.16.59,13.52,13.52,0,0,0-3.18,1.68,15.56,15.56,0,0,0-2.84,2.56,15.38,15.38,0,0,0-2.16,3.22l-3.62,17.22h-3.67Z"/><path class="cls-1" d="M515,174.41a5.49,5.49,0,0,1-3.38-1,3.59,3.59,0,0,1-1.32-3,6.31,6.31,0,0,1,.16-1.35l4.27-20.15H511l.65-2.91h3.67l2.05-9.51H521l-2,9.51h6.16l-.65,2.91h-6.1l-3.89,18.31c-.07.4-.13.7-.19.92a2.6,2.6,0,0,0-.08.59,2,2,0,0,0,.76,1.78,3,3,0,0,0,1.83.54,7.05,7.05,0,0,0,2.7-.51,15.13,15.13,0,0,0,1.62-.73l.33,3a10.32,10.32,0,0,1-2.51,1.08A12.57,12.57,0,0,1,515,174.41Z"/><path class="cls-1" d="M534.68,174.62a16,16,0,0,1-5.88-1.08,10.89,10.89,0,0,1-4.48-3.13l2.16-2.48a11.5,11.5,0,0,0,8.74,3.88,9.78,9.78,0,0,0,5.86-1.64,5.17,5.17,0,0,0,2.3-4.4,2.91,2.91,0,0,0-.43-1.62,3.91,3.91,0,0,0-1.3-1.16,11,11,0,0,0-2.16-1c-.86-.29-1.86-.58-3-.86-1.3-.36-2.42-.71-3.38-1.06a10.47,10.47,0,0,1-2.37-1.16,4.35,4.35,0,0,1-1.43-1.54,4.3,4.3,0,0,1-.49-2.13,8.53,8.53,0,0,1,1-4.16,9.77,9.77,0,0,1,2.65-3.1,11.4,11.4,0,0,1,3.83-1.92,16.06,16.06,0,0,1,4.56-.65,12.61,12.61,0,0,1,5.35,1,8.77,8.77,0,0,1,3.51,2.79l-2.27,2.16a6.85,6.85,0,0,0-3.1-2.43,11.08,11.08,0,0,0-4.24-.81,11.29,11.29,0,0,0-2.92.37,7.73,7.73,0,0,0-2.46,1.14,5.37,5.37,0,0,0-2.29,4.59,2.57,2.57,0,0,0,1.38,2.46,21.15,21.15,0,0,0,4.29,1.48,24.9,24.9,0,0,1,6.67,2.46,4.54,4.54,0,0,1,2.29,4.18,8.38,8.38,0,0,1-.91,3.89,9.46,9.46,0,0,1-2.57,3.08,12.31,12.31,0,0,1-3.94,2A16.33,16.33,0,0,1,534.68,174.62Z"/><path class="cls-1" d="M587.22,168.47A20.91,20.91,0,0,1,581.5,173a13.41,13.41,0,0,1-6.32,1.62,9.48,9.48,0,0,1-3.64-.67,8.65,8.65,0,0,1-2.84-1.84,8.21,8.21,0,0,1-1.86-2.81,9.37,9.37,0,0,1-.68-3.59,10.12,10.12,0,0,1,.79-4,13.24,13.24,0,0,1,2.13-3.46,19.67,19.67,0,0,1,3.21-3c1.25-.94,2.6-1.86,4.08-2.76a25.3,25.3,0,0,1-2.32-4.24,8.88,8.88,0,0,1-.7-3.32,8,8,0,0,1,.91-3.75,10.59,10.59,0,0,1,2.46-3.08,11.92,11.92,0,0,1,3.57-2.08,12.08,12.08,0,0,1,4.23-.75,9.11,9.11,0,0,1,5.19,1.51,9.26,9.26,0,0,1,3.4,4.16l-2.54,2.26a8.42,8.42,0,0,0-2.62-3.67,6.29,6.29,0,0,0-4-1.4,7.28,7.28,0,0,0-2.7.51A7.55,7.55,0,0,0,579,140a6.72,6.72,0,0,0-1.56,2,5,5,0,0,0-.6,2.37,7.69,7.69,0,0,0,.7,2.89,27.61,27.61,0,0,0,2.6,4.4l7.77,11.13a30.14,30.14,0,0,0,2.41-5.19,40.63,40.63,0,0,0,1.59-6h8.64l-.65,3h-5.35a41.26,41.26,0,0,1-2.07,5.8,31.11,31.11,0,0,1-2.79,5l6.11,8.69h-4.65Zm-11.28,3.13a9.65,9.65,0,0,0,5-1.49A18.83,18.83,0,0,0,585.6,166l-7.66-11.18a27.53,27.53,0,0,0-6,4.83,8.17,8.17,0,0,0-2.19,5.59,5.91,5.91,0,0,0,6.16,6.32Z"/><path class="cls-1" d="M625.4,135.8h3.73L621,174.08h-3.72Z"/><path class="cls-1" d="M635.55,146H639l-1.41,6.37a17.81,17.81,0,0,1,5.32-5,11.9,11.9,0,0,1,6.24-1.84,5.91,5.91,0,0,1,4.83,1.92,8.29,8.29,0,0,1,1.59,5.43,17.24,17.24,0,0,1,5.48-5.48,12.15,12.15,0,0,1,6.35-1.87q3.4,0,4.83,1.84a8,8,0,0,1,1.43,5.07,23.89,23.89,0,0,1-.65,5.24l-3.51,16.47h-3.67l3.3-15.71c.18-.83.31-1.61.4-2.35a16.91,16.91,0,0,0,.14-2c0-3.45-1.43-5.18-4.27-5.18a8.13,8.13,0,0,0-3,.59,11.3,11.3,0,0,0-2.83,1.68,15.25,15.25,0,0,0-2.51,2.56,18,18,0,0,0-2,3.27l-3.62,17.17H647.7l3.3-15.71c.18-.9.32-1.72.43-2.46a13.75,13.75,0,0,0,.16-2q0-5.08-4.26-5.08a9.35,9.35,0,0,0-5.84,2.21,16.68,16.68,0,0,0-4.59,5.84l-3.61,17.22h-3.68Z"/><path class="cls-1" d="M682.91,146h3.24L685,151.4a17.64,17.64,0,0,1,5.13-4.29,12.3,12.3,0,0,1,6-1.65,9,9,0,0,1,4.19,1,10,10,0,0,1,3.16,2.6,11.52,11.52,0,0,1,2,3.78,14.91,14.91,0,0,1,.67,4.48,17.21,17.21,0,0,1-1.24,6.42,18.68,18.68,0,0,1-3.4,5.57,17,17,0,0,1-5,3.88,12.78,12.78,0,0,1-6,1.46,8.46,8.46,0,0,1-5.59-1.81,10.15,10.15,0,0,1-3.16-4.56l-3.67,17.33h-3.67Zm7.34,25.43a9.55,9.55,0,0,0,4.65-1.21,14.06,14.06,0,0,0,3.86-3.13,15.46,15.46,0,0,0,2.62-4.33,12.73,12.73,0,0,0,1-4.83,11.49,11.49,0,0,0-.54-3.56,8.79,8.79,0,0,0-1.56-2.92,7.85,7.85,0,0,0-2.44-2,6.84,6.84,0,0,0-3.18-.73,8.23,8.23,0,0,0-2.84.57,15.26,15.26,0,0,0-3,1.51,13,13,0,0,0-2.62,2.22,8.25,8.25,0,0,0-1.7,2.67l-1.84,8.64a9.52,9.52,0,0,0,1,2.81,8.35,8.35,0,0,0,1.67,2.24,7.6,7.6,0,0,0,2.27,1.48A6.84,6.84,0,0,0,690.25,171.38Z"/><path class="cls-1" d="M714,174.41a4.51,4.51,0,0,1-3.13-1,3.72,3.72,0,0,1-1.14-2.92,4.51,4.51,0,0,1,.06-.7A5.5,5.5,0,0,1,710,169l7.23-34.29h3.68l-7,33.05c0,.18-.07.34-.09.49s0,.3,0,.48c0,1.59.84,2.38,2.54,2.38a8,8,0,0,0,1.4-.16,11.75,11.75,0,0,0,1.57-.44l-.11,3a13.3,13.3,0,0,1-2.57.71A14.58,14.58,0,0,1,714,174.41Z"/><path class="cls-1" d="M732.61,174.62a9.06,9.06,0,0,1-4.21-.94,9.49,9.49,0,0,1-3.13-2.57,11.38,11.38,0,0,1-2-3.75,14.57,14.57,0,0,1-.68-4.51,16.7,16.7,0,0,1,1.3-6.48,19.41,19.41,0,0,1,3.45-5.56,17.24,17.24,0,0,1,5-3.89,12.62,12.62,0,0,1,5.89-1.46,8.37,8.37,0,0,1,5.61,1.87,10.09,10.09,0,0,1,3.13,4.5l1.3-5.88h3.67l-5,23.33a3,3,0,0,0-.1.7c0,.57.34.86,1,.86l-.7,3.24-.81.11a4.08,4.08,0,0,1-.65.05,3,3,0,0,1-1.86-.67,1.93,1.93,0,0,1-.62-1.49,6.27,6.27,0,0,1,.13-1.13c.09-.47.25-1.24.46-2.32a16.23,16.23,0,0,1-5.21,4.37A12.75,12.75,0,0,1,732.61,174.62Zm1.51-3.24a9,9,0,0,0,2.92-.54,13.49,13.49,0,0,0,3-1.48,14,14,0,0,0,2.59-2.22,8.31,8.31,0,0,0,1.7-2.72l1.78-8.7a7.34,7.34,0,0,0-.86-2.72,8.83,8.83,0,0,0-1.73-2.22,8.51,8.51,0,0,0-2.32-1.51,6.68,6.68,0,0,0-2.7-.57,9.39,9.39,0,0,0-4.62,1.22,13.51,13.51,0,0,0-3.83,3.16,15.44,15.44,0,0,0-2.62,4.37,13,13,0,0,0-1,4.86,11.31,11.31,0,0,0,.54,3.54,8.52,8.52,0,0,0,1.57,2.86,7.75,7.75,0,0,0,2.43,1.94A6.66,6.66,0,0,0,734.12,171.38Z"/><path class="cls-1" d="M759.8,146h3.4l-1.4,6.37a17.16,17.16,0,0,1,2.62-2.78,18.78,18.78,0,0,1,3.13-2.19A15.18,15.18,0,0,1,771,146a13.23,13.23,0,0,1,3.56-.49c2.2,0,3.76.6,4.7,1.78a7.8,7.8,0,0,1,1.4,4.92,17.46,17.46,0,0,1-.19,2.56c-.12.89-.29,1.85-.51,2.89l-3.45,16.47h-3.68l3.35-15.71a23.51,23.51,0,0,0,.54-4.59q0-5-4.21-5a9.45,9.45,0,0,0-3.16.59,13.78,13.78,0,0,0-3.19,1.68,15.84,15.84,0,0,0-2.83,2.56,15,15,0,0,0-2.16,3.22l-3.62,17.22h-3.67Z"/><path class="cls-1" d="M790.14,174.41a5.49,5.49,0,0,1-3.38-1,3.59,3.59,0,0,1-1.32-3,6.31,6.31,0,0,1,.16-1.35l4.27-20.15h-3.73l.65-2.91h3.67l2-9.51h3.67l-2,9.51h6.16l-.65,2.91h-6.1l-3.89,18.31c-.07.4-.14.7-.19.92a2.6,2.6,0,0,0-.08.59,2,2,0,0,0,.76,1.78A3,3,0,0,0,792,171a7.05,7.05,0,0,0,2.7-.51,15.13,15.13,0,0,0,1.62-.73l.33,3a10.26,10.26,0,0,1-2.52,1.08A12.46,12.46,0,0,1,790.14,174.41Z"/><path class="cls-1" d="M809.87,174.62a16,16,0,0,1-5.88-1.08,11,11,0,0,1-4.49-3.13l2.17-2.48a11.5,11.5,0,0,0,8.74,3.88,9.78,9.78,0,0,0,5.86-1.64,5.17,5.17,0,0,0,2.3-4.4,2.84,2.84,0,0,0-.44-1.62,3.77,3.77,0,0,0-1.29-1.16,11,11,0,0,0-2.16-1c-.86-.29-1.86-.58-3-.86-1.3-.36-2.42-.71-3.38-1.06A10.47,10.47,0,0,1,806,159a4.35,4.35,0,0,1-1.43-1.54,4.3,4.3,0,0,1-.49-2.13,8.53,8.53,0,0,1,1-4.16,9.77,9.77,0,0,1,2.65-3.1,11.4,11.4,0,0,1,3.83-1.92,16.06,16.06,0,0,1,4.56-.65,12.64,12.64,0,0,1,5.35,1,8.77,8.77,0,0,1,3.51,2.79l-2.27,2.16a6.85,6.85,0,0,0-3.1-2.43,11.08,11.08,0,0,0-4.24-.81,11.29,11.29,0,0,0-2.92.37,7.63,7.63,0,0,0-2.46,1.14,5.37,5.37,0,0,0-2.29,4.59,2.57,2.57,0,0,0,1.38,2.46,20.92,20.92,0,0,0,4.29,1.48,24.9,24.9,0,0,1,6.67,2.46,4.54,4.54,0,0,1,2.29,4.18,8.27,8.27,0,0,1-.92,3.89,9.3,9.3,0,0,1-2.56,3.08,12.31,12.31,0,0,1-3.94,2A16.33,16.33,0,0,1,809.87,174.62Z"/><path class="cls-2" d="M314.33,23.46l24,84.38H319.52l-4.3-17.33H291.56l-4.17,17.33H270.31l25.3-84.38ZM311.8,76l-8.47-34.41L295.11,76Z"/><path class="cls-2" d="M365.44,23.46l21.63,52.37V23.46H401.5v84.38H384.92L359.24,46.73v61.11H344.82V23.46Z"/><path class="cls-2" d="M459.89,23.46V39.27H442.68v68.57H424.21V39.27H407.39V23.46Z"/><path class="cls-2" d="M525.8,65.71c0,15.43-2.78,43.39-30.62,43.39-27.07,0-30.61-26.44-30.61-43.39,0-16.19,3.16-43.52,30.61-43.52C522,22.19,525.8,48.13,525.8,65.71Zm-41.75,0c0,18.09,1.77,28.34,11.13,28.34s11.14-10.5,11.14-28.34-1.52-28.46-11.14-28.46C485.82,37.25,484.05,47.37,484.05,65.71Z"/><path class="cls-2" d="M558.56,23.46,580.2,75.83V23.46h14.42v84.38H578.05L552.36,46.73v61.11H537.94V23.46Z"/><path class="cls-2" d="M691.27,107.84H672.8V73.3H652.43v34.54H634V23.46h18.47v34H672.8v-34h18.47Z"/><path class="cls-2" d="M725.67,23.46v84.38H707.2V23.46Z"/><path class="cls-2" d="M765.78,23.46c8.85,0,18.09,0,24.41,6.45,5.82,6.07,7.09,14.17,7.09,20,0,8.35-2.28,16.82-8.86,21.88-6.32,4.94-16.7,4.94-21.88,4.94H760v31.12H741.49V23.46ZM760,37.12V62.17h5.82c6.45,0,11.89-1.39,11.89-12.65,0-12.4-7.85-12.4-11.89-12.4Z"/><path class="cls-2" d="M831.05,23.46c8.86,0,18.09,0,24.42,6.45,5.82,6.07,7.08,14.17,7.08,20,0,8.35-2.27,16.82-8.85,21.88-6.33,4.94-16.7,4.94-21.89,4.94h-6.58v31.12H806.76V23.46Zm-5.82,13.66V62.17h5.82c6.45,0,11.89-1.39,11.89-12.65,0-12.4-7.84-12.4-11.89-12.4Z"/><polygon class="cls-1" points="86.61 133.07 40.88 105.44 68.88 150.81 86.61 133.07"/><polygon class="cls-1" points="13.82 94.48 0 108.3 46 154.3 13.82 94.48"/><polyline class="cls-1" points="128.63 158.75 105.66 144.72 80.44 169.95 94.55 192.84"/><polygon class="cls-1" points="70.17 94.97 131.29 156.09 148.75 138.63 70.17 94.97"/><polygon class="cls-1" points="33.63 74.67 70.17 94.97 41.75 66.55 33.63 74.67"/><rect class="cls-1" x="75.05" y="28.62" width="30.44" height="51.13" transform="translate(-11.87 79.7) rotate(-45)"/><polygon class="cls-1" points="115.4 25.34 140.75 0 160.67 19.93 135.36 45.25 115.4 25.34"/><polygon class="cls-1" points="151.93 61.82 177.25 36.5 214.06 73.32 188.56 98.82 151.93 61.82"/><polygon class="cls-1" points="114.38 99.82 135.24 78.97 171.35 116.03 150.97 136.41 114.38 99.82"/></g></g></svg>