<?xml version="1.0" encoding="UTF-8"?> <!-- Generator: Adobe Illustrator 23.1.1, SVG Export Plug-In . SVG Version: 6.00 Build 0) --> <svg xmlns="http://www.w3.org/2000/svg" xmlns:xlink="http://www.w3.org/1999/xlink" id="Layer_1" x="0px" y="0px" viewBox="0 0 354.1 77.9" style="enable-background:new 0 0 354.1 77.9;" xml:space="preserve"> <style type="text/css"> .st0{fill:#00303F;} .st1{fill:#EFB908;} </style> <g id="Group_16" transform="translate(-276.612 -791.832)"> <g id="Group_15" transform="translate(389.411 802.428)"> <g id="Group_14" transform="translate(0)"> <path id="Path_45" class="st0" d="M14.7,22.7h-14l-2.3,5H-7L5,1h5.5l12,26.8H17L14.7,22.7z M7.7,6.7L2.7,18h9.9L7.7,6.7z"></path> <path id="Path_46" class="st0" d="M49.2,19.9h-7.6v7.9h-5V1c4.2,0,8.4,0,12.6,0C62.3,1,62.3,19.9,49.2,19.9z M41.7,15.3h7.6 c6.5,0,6.4-9.5,0-9.5h-7.6V15.3z"></path> <path id="Path_47" class="st0" d="M86.4,19.9h-7.6v7.9h-5V1c4.2,0,8.4,0,12.6,0C99.4,1,99.5,19.9,86.4,19.9z M78.8,15.3h7.6 c6.5,0,6.4-9.5,0-9.5h-7.6V15.3z"></path> <path id="Path_48" class="st0" d="M117.9,1v22.1h13.8v4.7h-18.8V1H117.9z"></path> <path id="Path_49" class="st0" d="M150.5,27.8V1h5v26.8H150.5z"></path> <path id="Path_50" class="st0" d="M195.5,27.8h-20V1h20v4.9h-15v6.2H195v4.7h-14.5v6h15V27.8z"></path> <path id="Path_51" class="st0" d="M238.3,14.2c0.1,6.8-4,13.6-13.4,13.6h-10.5V1h10.5C234,1,238.1,7.6,238.3,14.2z M219.4,22.9 h5.5c6.1,0,8.5-4.4,8.4-8.8c-0.1-4.2-2.6-8.3-8.4-8.3h-5.5V22.9z"></path> </g> </g> <path id="Path_52" class="st1" d="M296.1,862.3c17.4,11.7,41,7,52.7-10.4c11.7-17.4,7-41-10.4-52.7s-41-7-52.7,10.4 c-4.1,6.2-6.4,13.4-6.4,20.9l0,8.5c1.2,5.7,3.7,11,7.3,15.6l0-24.3c0.3-16.9,14.2-30.5,31.2-30.2s30.5,14.2,30.2,31.2 c-0.3,16.8-13.9,30.2-30.7,30.2c-7.9,0-15.4-3-21.1-8.5L296.1,862.3z"></path> <path id="Path_53" class="st0" d="M317.2,807.2c-13.1,0-23.7,10.6-23.7,23.6c0,13.1,10.6,23.7,23.6,23.7c2.3,0,4.6-0.3,6.8-1v-7.8 c-2.1,1-4.4,1.5-6.8,1.5c-9,0-16.4-7.3-16.4-16.4c0-9,7.3-16.4,16.4-16.4c9,0,16.4,7.3,16.4,16.4c0,0,0,0,0,0c0,0.2,0,12.9,0,17.1 c0.3-0.3,0.6-0.6,0.9-0.9c3-3,6.3-8.6,6.4-12.1l0-5.1C340.2,817.1,329.8,807.1,317.2,807.2z"></path> <g id="Group_115" transform="translate(-11.563 -6.078)"> <path id="Path_283" class="st1" d="M415.5,847.7h-4.4v14.8h2.5v-5.6h2c3.5,0,5.6-1.7,5.6-4.7S419.2,847.7,415.5,847.7z M413.6,849.8h1.7c2.5,0,3.4,0.6,3.4,2.4c0,1.8-1,2.6-3.3,2.6h-1.8L413.6,849.8z"></path> <path id="Path_284" class="st1" d="M444.2,847.7h-2.5v14.8h8.6v-2.2h-6.2L444.2,847.7z"></path> <path id="Path_285" class="st1" d="M473.6,847.7l-5,14.8h2.5l1.4-4.3h4.7l1.3,4.3h2.6l-5-14.8H473.6z M476.5,856.1h-3.4l0.5-1.7 c0.4-1.2,0.8-2.5,1.1-3.8c0.4,1.4,0.8,2.6,1.1,3.8L476.5,856.1z"></path> <path id="Path_286" class="st1" d="M507,854.3l-2-0.9c-1.1-0.5-2.1-0.9-2.1-2c0-1.1,0.9-1.7,2.3-1.7c1.1,0,2.2,0.4,3,1.2l0.3,0.2 l1.4-1.7l-0.2-0.2c-1.2-1.2-2.8-1.8-4.4-1.8c-2.8,0-4.8,1.7-4.8,4.1c0,1.8,1,3.1,3.1,4l2,0.9c1.4,0.6,2.1,1,2.1,2.2 c0,1.2-1,2-2.6,2c-1.4,0-2.7-0.6-3.7-1.7l-0.3-0.3l-1.5,1.8l0.2,0.2c1.4,1.4,3.2,2.2,5.2,2.2c3,0,5.1-1.8,5.1-4.4 C510.1,856,508.6,855,507,854.3z"></path> <path id="Path_287" class="st1" d="M528.8,849.8h4.3v12.7h2.5v-12.7h4.3v-2.2h-11V849.8z"></path> <rect id="Rectangle_130" x="560.1" y="847.7" class="st1" width="2.5" height="14.8"></rect> <path id="Path_288" class="st1" d="M592.9,859c-0.7,0.9-1.9,1.5-3,1.5c-2.5,0-4.1-2.1-4.1-5.5c0-3.3,1.6-5.4,4.1-5.4 c1,0,2,0.5,2.7,1.2l0.3,0.3l1.4-1.7l-0.2-0.2c-1-1.2-2.6-1.9-4.1-1.9c-4,0-6.6,3.1-6.6,7.7s2.6,7.7,6.5,7.7c1.8,0,3.5-0.8,4.6-2.2 l0.2-0.2l-1.4-1.6L592.9,859z"></path> <path id="Path_289" class="st1" d="M620.6,854.3l-2-0.9c-1.1-0.5-2.1-0.9-2.1-2c0-1.1,0.9-1.7,2.3-1.7c1.1,0,2.2,0.4,3,1.2 l0.3,0.2l1.4-1.7l-0.2-0.2c-1.2-1.2-2.8-1.8-4.4-1.8c-2.8,0-4.8,1.7-4.8,4.1c0,1.8,1,3.1,3.1,4l2,0.9c1.4,0.6,2.1,1,2.1,2.2 c0,1.2-1,2-2.6,2c-1.4,0-2.7-0.6-3.7-1.7l-0.3-0.3l-1.5,1.8l0.2,0.2c1.4,1.4,3.2,2.2,5.2,2.2c3,0,5.1-1.8,5.1-4.4 C623.7,856,622.1,855,620.6,854.3z"></path> </g> </g> </svg> 