<?xml version="1.0" encoding="UTF-8" standalone="no"?>
<svg
   xmlns:dc="http://purl.org/dc/elements/1.1/"
   xmlns:cc="http://creativecommons.org/ns#"
   xmlns:rdf="http://www.w3.org/1999/02/22-rdf-syntax-ns#"
   xmlns:svg="http://www.w3.org/2000/svg"
   xmlns="http://www.w3.org/2000/svg"
   viewBox="0 0 585.82666 188.97333"
   height="188.97333"
   width="585.82666"
   xml:space="preserve"
   id="svg2"
   version="1.1"><metadata
     id="metadata8"><rdf:RDF><cc:Work
         rdf:about=""><dc:format>image/svg+xml</dc:format><dc:type
           rdf:resource="http://purl.org/dc/dcmitype/StillImage" /></cc:Work></rdf:RDF></metadata><defs
     id="defs6" /><g
     transform="matrix(1.3333333,0,0,-1.3333333,0,188.97333)"
     id="g10"><g
       transform="scale(0.1)"
       id="g12"><path
         id="path14"
         style="fill:#4e8192;fill-opacity:1;fill-rule:nonzero;stroke:none"
         d="M 863.297,572.398 H 1108.91 L 682.352,1387.54 H 436.738 L 10.1836,572.398 H 255.797 l 76.527,154.247 H 786.766 Z M 560.73,1185.83 709.047,885.641 H 411.23 Z m 1432.73,160.78 c -25.72,8.3 -53.69,16.21 -83.95,23.73 -30.25,7.5 -61.6,14.13 -94.03,19.87 -32.43,5.73 -65.36,10.18 -98.78,13.35 -33.42,3.16 -65.95,4.74 -97.59,4.74 -28.87,0 -59.33,-1.18 -91.36,-3.55 -32.04,-2.38 -63.68,-6.73 -94.92,-13.06 -31.25,-6.33 -61.02,-15.23 -89.29,-26.69 -28.28,-11.48 -53.2,-26.4 -74.75,-44.8 -21.56,-18.39 -38.66,-40.63 -51.32,-66.74 -12.66,-26.1 -18.98,-57.16 -18.98,-93.14 0,-30.46 5.93,-57.25 17.8,-80.39 11.86,-23.13 28.07,-43.51 48.64,-61.1 20.56,-17.6 44.5,-32.834 71.79,-45.682 27.29,-12.859 56.26,-24.128 86.91,-33.816 30.65,-9.695 62.19,-18.098 94.63,-25.215 32.42,-7.121 63.97,-13.746 94.62,-19.875 30.65,-6.137 59.62,-12.262 86.91,-18.39 27.29,-6.137 51.22,-12.856 71.79,-20.172 20.56,-7.321 36.78,-15.821 48.65,-25.508 11.86,-9.695 17.79,-21.063 17.79,-34.113 0,-8.305 -2.96,-17.012 -8.9,-26.106 -5.93,-9.101 -17.2,-17.5 -33.81,-25.211 -16.61,-7.715 -39.66,-14.047 -69.12,-18.984 -29.46,-4.949 -67.54,-7.418 -114.2,-7.418 -79.11,0 -153.36,8.5 -222.77,25.512 -69.41,17 -131.21,40.535 -185.39,70.597 v -194.59 c 52.59,-19.781 113.21,-36.293 181.83,-49.539 68.62,-13.246 143.27,-19.871 223.96,-19.871 30.85,0 63.38,0.992 97.59,2.965 34.2,1.984 68.02,6.137 101.45,12.457 33.41,6.332 65.35,15.324 95.81,26.996 30.45,11.66 57.25,27.188 80.39,46.571 23.13,19.375 41.62,43.101 55.47,71.191 13.84,28.078 20.76,61.699 20.76,100.855 0,30.45 -5.93,57.543 -17.8,81.278 -11.86,23.726 -28.08,44.687 -48.65,62.883 -20.56,18.187 -44.49,34.113 -71.78,47.755 -27.29,13.65 -56.27,25.61 -86.91,35.9 -30.66,10.27 -62.3,19.27 -94.92,26.99 -32.63,7.71 -64.28,14.83 -94.93,21.35 -30.65,6.53 -59.62,12.85 -86.91,18.99 -27.29,6.13 -51.22,12.66 -71.78,19.58 -20.57,6.91 -36.79,14.83 -48.65,23.73 -11.87,8.9 -17.8,19.28 -17.8,31.15 0,3.55 0.69,7.5 2.08,11.86 1.38,4.35 4.45,8.69 9.19,13.05 4.75,4.35 11.57,8.61 20.47,12.76 8.9,4.15 20.96,7.8 36.19,10.97 15.22,3.16 34.01,5.73 56.36,7.72 22.34,1.97 49.33,2.96 80.98,2.96 39.54,0 78.11,-2.87 115.69,-8.6 37.57,-5.74 72.37,-12.86 104.41,-21.36 32.04,-8.51 60.71,-17.5 86.02,-26.99 25.31,-9.5 45.68,-18 61.11,-25.51 z m 497.15,40.93 H 2269.33 V 572.398 h 221.28 v 338.754 l 461.56,-338.754 h 320.95 l -585.55,424.184 548.77,390.958 H 2941.49 L 2490.61,1076.67 Z M 4132.17,572.398 h 245.61 L 3951.22,1387.54 H 3705.61 L 3279.06,572.398 h 245.61 l 76.53,154.247 h 454.44 z M 3829.6,1185.83 3977.92,885.641 H 3680.1 Z" /><path
         id="path16"
         style="fill:#656263;fill-opacity:1;fill-rule:nonzero;stroke:none"
         d="m 1606.57,164.051 c -4.1,12.199 -10.55,22.711 -19.34,31.5 -8.79,8.777 -20.12,15.82 -33.98,21.09 -13.87,5.269 -30.57,8.589 -50.1,9.961 13.67,2.539 25.58,6.007 35.74,10.398 10.15,4.391 18.5,10.012 25.05,16.852 6.54,6.828 11.43,15.027 14.65,24.609 3.22,9.559 4.83,20.891 4.83,33.98 0,14.649 -1.9,27.34 -5.71,38.09 -3.81,10.731 -9.08,19.918 -15.82,27.528 -6.74,7.621 -14.65,13.769 -23.73,18.461 -9.08,4.691 -18.95,8.351 -29.59,10.992 -10.65,2.629 -21.73,4.437 -33.25,5.418 -11.53,0.968 -23.05,1.461 -34.57,1.461 H 1213.7 V 11.8516 h 232.32 c 15.04,0 29.59,0.5898 43.65,1.7578 14.07,1.1719 27.25,3.2695 39.55,6.3008 12.31,3.0312 23.59,7.1289 33.84,12.3086 10.26,5.1718 19.04,11.9101 26.37,20.2109 7.32,8.3008 13.04,18.2109 17.14,29.7422 4.1,11.5195 6.15,25.0901 6.15,40.7191 0,15.23 -2.05,28.949 -6.15,41.16 z m -61.38,120.371 c -2.64,-8.563 -8.2,-16.043 -16.7,-22.461 -8.5,-6.422 -20.65,-11.52 -36.47,-15.313 -15.82,-3.796 -36.92,-5.687 -63.28,-5.687 h -178.42 v 140.027 h 178.42 c 18.55,0 34.42,-0.918 47.6,-2.769 13.19,-1.848 24.27,-4.379 33.25,-7.578 8.99,-3.211 16.07,-7.051 21.24,-11.532 5.18,-4.468 9.13,-9.281 11.87,-14.437 2.73,-5.152 4.49,-10.551 5.27,-16.192 0.78,-5.64 1.18,-11.281 1.18,-16.921 0,-9.528 -1.32,-18.579 -3.96,-27.137 z m 22.56,-196.7736 c -4.4,-9.9375 -11.72,-18.0781 -21.97,-24.4101 -10.26,-6.3399 -23.73,-10.918 -40.43,-13.75 -16.7,-2.8281 -37.26,-4.2383 -61.67,-4.2383 h -193.36 v 163.48 h 188.38 c 23.63,0 44.04,-1.609 61.23,-4.832 17.18,-3.207 31.24,-8.238 42.18,-15.058 10.94,-6.82 19.05,-15.602 24.32,-26.32 5.27,-10.719 7.91,-23.692 7.91,-38.891 0,-14.039 -2.2,-26.0274 -6.59,-35.9806 z M 1752.47,11.8516 V 414.391 h -36.63 V 11.8516 Z M 2351.3,306.43 c -13.08,26.269 -31.03,47.949 -53.87,65.039 -22.84,17.09 -49.78,29.742 -80.82,37.941 -31.03,8.203 -64.51,12.309 -100.42,12.309 -24.02,0 -46.95,-1.809 -68.81,-5.418 -21.87,-3.621 -42.31,-9.192 -61.35,-16.699 -19.03,-7.524 -36.3,-16.954 -51.82,-28.274 -15.52,-11.328 -28.74,-24.758 -39.67,-40.289 -10.93,-15.519 -19.43,-33.098 -25.48,-52.73 -6.05,-19.629 -9.07,-41.457 -9.07,-65.481 0,-36.137 6.53,-67.34 19.61,-93.598 13.08,-26.2691 31.13,-47.9487 54.17,-65.0386 23.03,-17.1016 50.16,-29.7422 81.4,-37.9414 31.23,-8.19922 64.9,-12.30859 101.02,-12.30859 35.91,0 69.39,4.10937 100.42,12.30859 31.04,8.1992 57.98,20.8398 80.82,37.9414 22.84,17.0899 40.79,38.7695 53.87,65.0386 13.08,26.258 19.62,57.461 19.62,93.598 0,36.133 -6.54,67.332 -19.62,93.602 z m -31.8,-169.192 c -9.29,-21.867 -23.02,-40.2771 -41.19,-55.2185 -18.18,-14.9414 -40.8,-26.2695 -67.87,-33.9804 -27.07,-7.7188 -58.49,-11.5782 -94.25,-11.5782 -35.77,0 -67.29,3.8594 -94.55,11.5782 -27.26,7.7109 -50.08,19.039 -68.45,33.9804 -18.38,14.9414 -32.25,33.3515 -41.63,55.2185 -9.39,21.883 -14.07,47.071 -14.07,75.59 0,28.133 4.68,53.172 14.07,75.152 9.38,21.969 23.25,40.43 41.63,55.372 18.37,14.937 41.19,26.308 68.45,34.128 27.26,7.809 58.78,11.719 94.55,11.719 35.76,0 67.18,-3.859 94.25,-11.57 27.07,-7.719 49.69,-19.051 67.87,-33.988 18.17,-14.942 31.9,-33.352 41.19,-55.219 9.28,-21.883 13.92,-47.082 13.92,-75.594 0,-28.519 -4.64,-53.707 -13.92,-75.59 z m 493.22,243.75 v 33.403 h -402.54 v -33.403 h 183.11 V 11.8516 h 36.32 V 380.988 Z M 3285.57,75.4297 c -7.82,-4.8906 -17.88,-9.6211 -30.2,-14.2109 -12.31,-4.5899 -25.9,-8.6875 -40.75,-12.3086 -14.86,-3.6094 -30.39,-6.4883 -46.62,-8.6407 -16.22,-2.1484 -32.25,-3.2187 -48.08,-3.2187 -37.14,0 -69.63,3.7578 -97.49,11.2773 -27.85,7.5117 -51.3,18.3125 -70.36,32.3711 -19.05,14.0625 -33.76,31.1528 -44.12,51.2698 -10.36,20.109 -16.61,42.672 -18.77,67.679 h 429.5 v 9.082 c 0,32.418 -5.08,61.571 -15.24,87.45 -10.16,25.879 -25,47.898 -44.53,66.058 -19.53,18.172 -43.56,32.133 -72.07,41.903 -28.52,9.757 -61.04,14.644 -97.56,14.644 -35.15,0 -67.28,-5.074 -96.38,-15.234 -29.11,-10.153 -54.11,-24.41 -75,-42.77 -20.91,-18.359 -37.17,-40.332 -48.78,-65.922 -11.63,-25.589 -17.44,-53.711 -17.44,-84.371 0,-31.636 6.06,-60.16 18.17,-85.547 12.11,-25.3902 29.34,-47.0191 51.71,-64.8902 22.36,-17.8711 49.46,-31.6016 81.3,-41.1719 31.83,-9.55859 67.48,-14.34765 106.93,-14.34765 16.99,0 32.57,0.53906 46.73,1.60938 14.16,1.07812 28.07,2.73828 41.75,4.98047 13.67,2.2383 27.54,5.168 41.6,8.7891 14.06,3.6093 29.29,7.9609 45.7,13.039 z M 2889.18,231.578 c 2.54,20.703 8.5,40.383 17.89,59.031 9.38,18.653 22.28,35.063 38.7,49.219 16.41,14.16 36.45,25.442 60.1,33.844 23.65,8.398 51.21,12.598 82.68,12.598 33.43,0 62.11,-4.2 86.05,-12.598 23.94,-8.402 43.68,-19.731 59.23,-33.981 15.53,-14.261 27.21,-30.722 35.03,-49.371 7.82,-18.648 12.41,-38.23 13.78,-58.742 z M 3838.7,43.7891 v 43.6523 c -10.36,-6.8398 -21.84,-13.332 -34.45,-19.4805 -12.61,-6.1601 -26.39,-11.582 -41.34,-16.2617 -14.96,-4.6875 -30.98,-8.3984 -48.08,-11.1406 -17.11,-2.7305 -35.23,-4.0977 -54.39,-4.0977 -38.7,0 -72.22,4.1485 -100.56,12.4493 -28.34,8.3007 -51.75,20.1211 -70.22,35.4492 -18.47,15.332 -32.15,33.8396 -41.04,55.5196 -8.9,21.68 -13.34,46 -13.34,72.949 0,26.953 4.44,51.32 13.34,73.102 8.89,21.769 22.57,40.32 41.04,55.66 18.47,15.332 41.88,27.199 70.22,35.601 28.34,8.387 61.86,12.59 100.56,12.59 19.16,0 37.14,-1.371 53.95,-4.101 16.8,-2.739 32.58,-6.442 47.34,-11.129 14.76,-4.692 28.49,-10.16 41.2,-16.41 12.7,-6.25 24.62,-12.891 35.77,-19.922 v 43.953 c -14.07,5.859 -27.98,11.168 -41.75,15.957 -13.77,4.793 -28.08,8.941 -42.92,12.449 -14.85,3.524 -30.47,6.25 -46.88,8.207 -16.4,1.953 -34.27,2.934 -53.61,2.934 -24.02,0 -46.98,-1.957 -68.85,-5.86 -21.87,-3.91 -42.29,-9.769 -61.23,-17.578 -18.95,-7.812 -36.13,-17.531 -51.56,-29.152 -15.43,-11.617 -28.67,-25.149 -39.7,-40.578 -11.03,-15.43 -19.53,-32.813 -25.49,-52.153 -5.96,-19.328 -8.93,-40.527 -8.93,-63.57 0,-23.047 2.97,-44.238 8.93,-63.566 5.96,-19.34 14.46,-36.731 25.49,-52.1526 11.03,-15.4297 24.27,-28.961 39.7,-40.5781 15.43,-11.6211 32.61,-21.3399 51.56,-29.1524 18.94,-7.8086 39.41,-13.668 61.38,-17.57812 21.97,-3.90234 44.87,-5.85937 68.7,-5.85937 19.34,0 37.21,0.98047 53.61,2.92968 16.41,1.95704 32.03,4.68751 46.88,8.20701 14.84,3.5117 29.15,7.711 42.92,12.5938 13.77,4.8789 27.68,10.2578 41.75,16.1172 z M 4381.27,11.8516 V 414.391 h -36.62 v -173.43 h -360.64 v 173.43 h -36.62 V 11.8516 h 36.62 V 207.559 h 360.64 V 11.8516 h 36.62" /></g></g></svg>