<svg width="291" height="49" viewBox="0 0 291 49" xmlns="http://www.w3.org/2000/svg" display="block"><title>LOGO_ASO-EUROPE_WHITE_WEB</title><g fill="#FFF" fill-rule="nonzero"><path d="M38.027 38.514l-10.87-10.096c5.6-.988 5.885-6.461 2.763-9.319-1.444-1.324-7.581-7.064-7.581-7.064-1.901-1.806-1.586-3.376-.547-4.533 1.491-1.656 3.889-1.477 5.437.205l.026.045a5.538 5.538 0 1 0 10.307 2.166 20.59 20.59 0 0 1 6 14.544 20.579 20.579 0 0 1-5.535 14.052zM4.624 34.091l3.293-5.104h11.531L33.59 42.136a20.527 20.527 0 0 1-10.692 2.986c-7.917 0-14.805-4.476-18.274-11.031zm12.766-7.018H9.151l3.089-4.788 5.15 4.788zm5.508-23.277c2.652 0 5.186.507 7.517 1.421a5.537 5.537 0 0 0-1.996 1.12l-.027.017c-2.312-3.224-7.474-2.817-10.007.085-1.332 1.528-2.632 5.362 1.106 8.866 2.74 2.537 5.787 5.45 7.758 7.312 1.542 1.508.598 3.751-1.539 4.456L13.321 15.564 3.33 31.085a20.563 20.563 0 0 1-1.095-6.624c0-11.396 9.27-20.665 20.663-20.665zm12.731 6.715a3.577 3.577 0 0 1-3.574 3.572 3.576 3.576 0 0 1-3.572-3.572 3.578 3.578 0 0 1 3.572-3.576 3.58 3.58 0 0 1 3.574 3.576zM22.898 1.562C10.252 1.562 0 11.813 0 24.461c0 12.645 10.252 22.896 22.898 22.896 12.647 0 22.898-10.251 22.898-22.896 0-12.649-10.251-22.899-22.898-22.899zM64.444 11.357h-.104l-7.61 18.016h14.962l-7.248-18.016zm-1.967-5.59h4.09L82.15 42.42h-5.074l-3.727-9.009H55.022l-3.78 9.009h-4.918L62.477 5.767zM103.117 12.237c-.725-1.173-1.691-2.027-2.899-2.563a9.238 9.238 0 0 0-3.779-.802c-.967 0-1.916.121-2.848.362a8.45 8.45 0 0 0-2.511 1.087 5.434 5.434 0 0 0-1.786 1.916c-.449.794-.673 1.727-.673 2.796 0 .829.13 1.562.388 2.2.259.64.682 1.216 1.269 1.733.586.519 1.38 1.002 2.382 1.451 1 .448 2.225.897 3.675 1.346a67.79 67.79 0 0 1 4.116 1.449c1.328.519 2.502 1.174 3.52 1.967a8.707 8.707 0 0 1 2.433 2.978c.604 1.19.907 2.684.907 4.478 0 1.83-.363 3.417-1.087 4.764a9.967 9.967 0 0 1-2.874 3.339c-1.19.881-2.563 1.537-4.115 1.967a17.892 17.892 0 0 1-4.815.646 18.51 18.51 0 0 1-3.21-.283 15.478 15.478 0 0 1-3.081-.88 12.435 12.435 0 0 1-2.77-1.554 9.398 9.398 0 0 1-2.226-2.354l3.728-3.056a7.661 7.661 0 0 0 3.313 3.056 10.16 10.16 0 0 0 7.326.621 8.577 8.577 0 0 0 2.563-1.218 6.639 6.639 0 0 0 1.864-1.992c.482-.793.724-1.709.724-2.744 0-1.14-.19-2.063-.569-2.771-.38-.707-.967-1.32-1.76-1.837-.795-.518-1.796-.984-3.003-1.398l-4.245-1.45a26.485 26.485 0 0 1-3.624-1.423 11.103 11.103 0 0 1-2.874-1.968 8.41 8.41 0 0 1-1.915-2.796c-.466-1.087-.699-2.39-.699-3.908 0-1.761.344-3.296 1.035-4.607a9.696 9.696 0 0 1 2.796-3.288 12.673 12.673 0 0 1 3.986-1.993 16.036 16.036 0 0 1 4.66-.673c2.07 0 3.96.319 5.668.957 1.709.639 3.236 1.753 4.582 3.34l-3.572 3.105zM128.951 39.313c2.139 0 4.098-.396 5.876-1.189 1.777-.795 3.305-1.882 4.582-3.263 1.276-1.38 2.269-2.994 2.976-4.84.708-1.847 1.062-3.823 1.062-5.928 0-2.106-.354-4.082-1.062-5.928-.707-1.847-1.7-3.462-2.976-4.842a13.885 13.885 0 0 0-4.582-3.262c-1.778-.793-3.737-1.191-5.876-1.191-2.141 0-4.099.398-5.876 1.191a13.875 13.875 0 0 0-4.582 3.262c-1.277 1.38-2.27 2.995-2.977 4.842-.708 1.846-1.061 3.821-1.061 5.928 0 2.104.353 4.081 1.061 5.928.707 1.846 1.7 3.46 2.977 4.84 1.277 1.381 2.804 2.468 4.582 3.263 1.777.794 3.735 1.189 5.876 1.189m0 4.039c-2.796 0-5.359-.484-7.688-1.449-2.33-.966-4.349-2.304-6.057-4.012-1.709-1.709-3.038-3.745-3.987-6.11-.949-2.362-1.424-4.926-1.424-7.687 0-2.762.475-5.324 1.424-7.689.949-2.363 2.278-4.399 3.987-6.107 1.708-1.709 3.727-3.046 6.057-4.015 2.329-.965 4.892-1.448 7.688-1.448 2.796 0 5.358.483 7.688 1.448 2.33.969 4.349 2.306 6.057 4.015 1.709 1.708 3.037 3.744 3.986 6.107.949 2.365 1.424 4.928 1.424 7.689s-.476 5.324-1.424 7.687c-.949 2.365-2.277 4.401-3.986 6.11-1.708 1.708-3.727 3.046-6.057 4.012-2.33.964-4.892 1.449-7.688 1.449"/><polygon points="176.414 14.715 190.105 14.715 190.105 17.115 178.999 17.115 178.999 23.945 189.367 23.945 189.367 26.345 178.999 26.345 178.999 34.099 190.659 34.099 190.659 36.498 176.414 36.498"/><path d="M210.078 28.191c0 1.19-.148 2.318-.447 3.384a7.817 7.817 0 0 1-1.414 2.816c-.646.81-1.491 1.456-2.539 1.937-1.045.482-2.317.725-3.814.725-1.498 0-2.77-.242-3.814-.725-1.047-.48-1.892-1.127-2.539-1.937a7.841 7.841 0 0 1-1.414-2.816 12.465 12.465 0 0 1-.446-3.384V14.714h2.584V27.82c0 .883.092 1.734.276 2.554a6.34 6.34 0 0 0 .924 2.186 4.66 4.66 0 0 0 1.722 1.521c.718.382 1.621.57 2.708.57 1.087 0 1.99-.188 2.709-.57a4.69 4.69 0 0 0 1.723-1.521 6.32 6.32 0 0 0 .922-2.186c.186-.819.277-1.671.277-2.554V14.714h2.584v13.477h-.002zM217.807 24.314h2.308c.72 0 1.462-.02 2.231-.062a7.643 7.643 0 0 0 2.123-.4 3.685 3.685 0 0 0 1.6-1.062c.419-.481.63-1.173.63-2.076 0-.779-.153-1.405-.461-1.877a3.122 3.122 0 0 0-1.216-1.092 5.166 5.166 0 0 0-1.692-.508 14.73 14.73 0 0 0-1.891-.123h-3.632v7.2zm-2.584-9.599h5.568c1.047 0 2.088.062 3.123.185 1.035.123 1.965.391 2.784.8a5.05 5.05 0 0 1 2.001 1.8c.512.79.77 1.862.77 3.216 0 1.6-.483 2.892-1.446 3.876-.966.985-2.298 1.611-4.001 1.877l6.185 10.03h-3.169l-5.908-9.784h-3.322v9.784h-2.584V14.715h-.001zM243.519 34.652c1.272 0 2.437-.235 3.491-.708a8.235 8.235 0 0 0 2.724-1.938 8.839 8.839 0 0 0 1.769-2.876 9.77 9.77 0 0 0 .631-3.522 9.772 9.772 0 0 0-.631-3.523 8.854 8.854 0 0 0-1.769-2.877 8.249 8.249 0 0 0-2.724-1.938c-1.055-.472-2.219-.708-3.491-.708-1.272 0-2.437.236-3.492.708a8.255 8.255 0 0 0-2.722 1.938 8.84 8.84 0 0 0-1.77 2.877 9.754 9.754 0 0 0-.631 3.523c0 1.251.21 2.425.631 3.522a8.824 8.824 0 0 0 1.77 2.876 8.212 8.212 0 0 0 2.722 1.938c1.055.473 2.219.708 3.492.708m0 2.4c-1.661 0-3.185-.287-4.568-.86a10.945 10.945 0 0 1-3.6-2.386c-1.015-1.015-1.806-2.225-2.369-3.63-.565-1.406-.847-2.928-.847-4.568 0-1.642.281-3.164.847-4.569a10.708 10.708 0 0 1 2.369-3.631 10.942 10.942 0 0 1 3.6-2.385c1.384-.573 2.907-.861 4.568-.861 1.661 0 3.185.288 4.569.861a10.953 10.953 0 0 1 3.6 2.385c1.015 1.016 1.805 2.226 2.369 3.631.564 1.405.846 2.928.846 4.569s-.281 3.162-.846 4.568c-.564 1.405-1.354 2.615-2.369 3.63a10.955 10.955 0 0 1-3.6 2.386c-1.385.573-2.908.86-4.569.86M261.503 24.314h4.368c1.293 0 2.343-.293 3.152-.878.812-.584 1.217-1.491 1.217-2.722 0-1.231-.405-2.138-1.217-2.723-.81-.585-1.859-.877-3.152-.877h-4.368v7.2zm-2.585-9.599h6.461c1.005 0 1.964.098 2.876.292.914.196 1.723.523 2.432.985a5.075 5.075 0 0 1 1.692 1.846c.419.769.63 1.718.63 2.846 0 1.19-.226 2.174-.677 2.954-.451.78-1.03 1.396-1.738 1.845a7.087 7.087 0 0 1-2.322.955c-.842.184-1.642.276-2.4.276h-4.368v9.784h-2.585V14.715h-.001z"/><polygon points="276.307 14.715 276.307 36.499 290.551 36.499 290.551 34.098 278.891 34.098 278.891 26.345 289.26 26.345 289.26 23.944 278.891 23.944 278.891 17.115 289.998 17.115 289.998 14.715"/><path d="M162.707.639a.923.923 0 0 0-.923.923v45.795a.924.924 0 1 0 1.846 0V1.562a.923.923 0 0 0-.923-.923"/></g></svg>