<svg xmlns="http://www.w3.org/2000/svg" viewBox="0 0 715.18 126.01"><defs><style>.a{fill:#00327a;}.b{fill:#00e0b5;}.c{fill:#0af;}</style></defs><title>atlas-link-logo</title><path class="a" d="M145.1,96.6A3.79,3.79,0,0,1,144,93.85a4.62,4.62,0,0,1,.43-1.72l21.92-51.75a6.51,6.51,0,0,1,1.93-2.53,4.75,4.75,0,0,1,3.05-1h.86a4.75,4.75,0,0,1,3.05,1,6.63,6.63,0,0,1,1.94,2.53l21.92,51.75a4.82,4.82,0,0,1,.43,1.72,3.79,3.79,0,0,1-1.08,2.75,3.69,3.69,0,0,1-2.79,1.12,4,4,0,0,1-2.19-.64A4.15,4.15,0,0,1,192,95.31L186.4,81.9H157.18l-5.59,13.41a4.13,4.13,0,0,1-1.5,1.77,4,4,0,0,1-2.2.64A3.69,3.69,0,0,1,145.1,96.6Zm15.09-21.83H183.4L171.79,46.83Z" transform="translate(-5.89 -5.48)"/><path class="a" d="M211.25,86.8V60.16h-6.11a1.62,1.62,0,0,1-1.63-1.64,1.81,1.81,0,0,1,.77-1.46L216,45.63a2.19,2.19,0,0,1,1.47-.78,1.55,1.55,0,0,1,1.16.52,1.75,1.75,0,0,1,.47,1.2v6.88h9.71a3.23,3.23,0,0,1,3.35,3.35,3.31,3.31,0,0,1-.94,2.37,3.18,3.18,0,0,1-2.41,1h-9.71v26c0,2.23.53,3.65,1.59,4.25a8,8,0,0,0,4,.9,12,12,0,0,0,3.43-.51l.74-.18a5.14,5.14,0,0,1,1-.08,3,3,0,0,1,2.15.9,2.92,2.92,0,0,1,.95,2.19,3.24,3.24,0,0,1-2,3,16.81,16.81,0,0,1-7.13,1.55Q211.25,98.15,211.25,86.8Z" transform="translate(-5.89 -5.48)"/><path class="a" d="M242.62,96.6a3.75,3.75,0,0,1-1.12-2.75V38.06a3.91,3.91,0,0,1,1.12-2.79,3.67,3.67,0,0,1,2.75-1.16,3.83,3.83,0,0,1,4,4V93.85a3.67,3.67,0,0,1-1.16,2.75,3.89,3.89,0,0,1-2.8,1.12A3.71,3.71,0,0,1,242.62,96.6Z" transform="translate(-5.89 -5.48)"/><path class="a" d="M267.08,96.6A12.17,12.17,0,0,1,262,92.09a12.45,12.45,0,0,1-1.89-6.83,12.07,12.07,0,0,1,5-10.15q5-3.78,14.74-3.78h10.4v-.69q0-5.67-2.79-8.16T278.72,60a29.53,29.53,0,0,0-5.8.52,47.4,47.4,0,0,0-5.63,1.55,5.08,5.08,0,0,1-1.12.17,3,3,0,0,1-2.23-.95A3.15,3.15,0,0,1,263,59a3.31,3.31,0,0,1,2.24-3.26,37.69,37.69,0,0,1,14.87-3.1,19.35,19.35,0,0,1,10,2.41,15.12,15.12,0,0,1,6,6.23,18.12,18.12,0,0,1,1.93,8.29V93.85a3.63,3.63,0,0,1-1.16,2.75,3.85,3.85,0,0,1-2.79,1.12,3.71,3.71,0,0,1-2.75-1.12,3.75,3.75,0,0,1-1.12-2.75V91.62a21.6,21.6,0,0,1-16.16,6.53A16,16,0,0,1,267.08,96.6Zm17.23-7.18a20.24,20.24,0,0,0,5.93-4.59V77.6h-9.37q-13,0-13,6.8a6.35,6.35,0,0,0,2.11,5c1.4,1.26,3.74,1.89,7,1.89A15.44,15.44,0,0,0,284.31,89.42Z" transform="translate(-5.89 -5.48)"/><path class="a" d="M309.75,94.28a3.3,3.3,0,0,1-1.46-2.84,3.46,3.46,0,0,1,.95-2.4,3.11,3.11,0,0,1,2.41-1,3.73,3.73,0,0,1,1.54.34,35.22,35.22,0,0,0,5.51,1.89,25.4,25.4,0,0,0,6.18.69q9.54,0,9.55-6.1a3.24,3.24,0,0,0-2.2-3,44.64,44.64,0,0,0-7.17-2.32,65.84,65.84,0,0,1-8.39-2.5A14.78,14.78,0,0,1,311,73.09a9.92,9.92,0,0,1-2.36-6.92,12.39,12.39,0,0,1,4.34-9.8q4.33-3.78,12.42-3.78a35.86,35.86,0,0,1,12.46,2.15A3.21,3.21,0,0,1,339.71,56a3.47,3.47,0,0,1,.65,2,3.35,3.35,0,0,1-1,2.4,3.26,3.26,0,0,1-2.45,1,4.54,4.54,0,0,1-1.12-.17,33,33,0,0,0-9.8-1.54,13.38,13.38,0,0,0-7.26,1.67,5,5,0,0,0-2.62,4.34,4,4,0,0,0,2.4,3.78A34.27,34.27,0,0,0,326,71.85a72.1,72.1,0,0,1,8.25,2.53,13.71,13.71,0,0,1,5.46,3.91A10.62,10.62,0,0,1,342,85.43a11.36,11.36,0,0,1-4.34,9.11q-4.35,3.61-12.25,3.61A32,32,0,0,1,309.75,94.28Z" transform="translate(-5.89 -5.48)"/><path class="a" d="M378,95.7a5.2,5.2,0,0,1-1.59-3.82V40.81A3.91,3.91,0,0,1,377.49,38a3.69,3.69,0,0,1,2.75-1.16,4,4,0,0,1,4,4V89.47h28.1a4,4,0,0,1,4,4,3.67,3.67,0,0,1-1.16,2.75,3.87,3.87,0,0,1-2.8,1.12H381.79A5.23,5.23,0,0,1,378,95.7Z" transform="translate(-5.89 -5.48)"/><path class="a" d="M424.94,43.22a4.22,4.22,0,0,1-1.29-3.09v-.35A4.4,4.4,0,0,1,428,35.4h.51a4.39,4.39,0,0,1,4.38,4.38v.35a4.39,4.39,0,0,1-4.38,4.38H428A4.22,4.22,0,0,1,424.94,43.22Zm.52,53.38a3.71,3.71,0,0,1-1.12-2.75V57a3.86,3.86,0,0,1,1.12-2.79A3.67,3.67,0,0,1,428.21,53a3.83,3.83,0,0,1,4,3.95V93.85A3.67,3.67,0,0,1,431,96.6a3.86,3.86,0,0,1-2.79,1.12A3.71,3.71,0,0,1,425.46,96.6Z" transform="translate(-5.89 -5.48)"/><path class="a" d="M446.86,96.6a3.71,3.71,0,0,1-1.12-2.75V57a3.86,3.86,0,0,1,1.12-2.79A3.67,3.67,0,0,1,449.61,53,4,4,0,0,1,453.56,57V60.5a28.52,28.52,0,0,1,7.05-5.76,17.82,17.82,0,0,1,8.94-2.15,14.87,14.87,0,0,1,8.21,2.24,14.51,14.51,0,0,1,5.33,6.1,19.5,19.5,0,0,1,1.85,8.51V93.85a3.67,3.67,0,0,1-1.16,2.75A3.86,3.86,0,0,1,481,97.72a3.82,3.82,0,0,1-3.87-3.87V70.3q0-10.48-9.46-10.49A13.68,13.68,0,0,0,460,62.05a27.82,27.82,0,0,0-6.41,6V93.85a3.63,3.63,0,0,1-1.16,2.75,3.85,3.85,0,0,1-2.79,1.12A3.71,3.71,0,0,1,446.86,96.6Z" transform="translate(-5.89 -5.48)"/><path class="a" d="M499.21,96.6a3.71,3.71,0,0,1-1.12-2.75V38.06a3.86,3.86,0,0,1,1.12-2.79A3.67,3.67,0,0,1,502,34.11a4,4,0,0,1,4,4V73.22l20.46-18.91A4,4,0,0,1,529,53.19a3.5,3.5,0,0,1,2.88,1.12,4.12,4.12,0,0,1,.9,2.66,4.2,4.2,0,0,1-1.46,2.93L518.89,71l15.56,20.63a3.71,3.71,0,0,1,.86,2.32,3.59,3.59,0,0,1-1.11,2.75,4,4,0,0,1-2.84,1,3.77,3.77,0,0,1-1.72-.43,4.34,4.34,0,0,1-1.46-1.2L513.39,76l-7.48,6.79V93.85a3.63,3.63,0,0,1-1.16,2.75A3.85,3.85,0,0,1,502,97.72,3.71,3.71,0,0,1,499.21,96.6Z" transform="translate(-5.89 -5.48)"/><path class="a" d="M544.29,109.5a2.59,2.59,0,0,1-.73-1.81,2.4,2.4,0,0,1,1.29-2.15,9.77,9.77,0,0,0,3.27-3,9.18,9.18,0,0,0,1.12-5h-.35a4.85,4.85,0,0,1-4.81-4.82v-.51a4.85,4.85,0,0,1,4.81-4.82h.86a4.85,4.85,0,0,1,4.82,4.82v5.07a13.83,13.83,0,0,1-7.05,12.55,2.7,2.7,0,0,1-1.46.43A2.37,2.37,0,0,1,544.29,109.5Z" transform="translate(-5.89 -5.48)"/><path class="a" d="M592.3,96.6a3.75,3.75,0,0,1-1.12-2.75v-53A3.91,3.91,0,0,1,592.3,38a3.69,3.69,0,0,1,2.75-1.16,4,4,0,0,1,4,4v53a3.67,3.67,0,0,1-1.16,2.75,3.89,3.89,0,0,1-2.8,1.12A3.73,3.73,0,0,1,592.3,96.6Z" transform="translate(-5.89 -5.48)"/><path class="a" d="M614.39,96.6a3.74,3.74,0,0,1-1.11-2.75V57a3.9,3.9,0,0,1,1.11-2.79A3.69,3.69,0,0,1,617.14,53a4,4,0,0,1,4,3.95V60.5a28.52,28.52,0,0,1,7-5.76,17.82,17.82,0,0,1,8.94-2.15,14.87,14.87,0,0,1,8.21,2.24,14.58,14.58,0,0,1,5.33,6.1,19.5,19.5,0,0,1,1.84,8.51V93.85a3.63,3.63,0,0,1-1.16,2.75,3.85,3.85,0,0,1-2.79,1.12,3.82,3.82,0,0,1-3.87-3.87V70.3q0-10.48-9.45-10.49a13.71,13.71,0,0,0-7.7,2.24,27.78,27.78,0,0,0-6.4,6V93.85a3.67,3.67,0,0,1-1.16,2.75,3.89,3.89,0,0,1-2.8,1.12A3.73,3.73,0,0,1,614.39,96.6Z" transform="translate(-5.89 -5.48)"/><path class="a" d="M674.48,95.4a21.1,21.1,0,0,1-8.38-7.91A22.89,22.89,0,0,1,663,75.37a22.89,22.89,0,0,1,3.14-12.12,21.17,21.17,0,0,1,8.38-7.91,24.27,24.27,0,0,1,11.43-2.75,24,24,0,0,1,7.87,1.16,29.3,29.3,0,0,1,6.14,3,3.42,3.42,0,0,1,.73,5.37,3,3,0,0,1-2.27,1.07,4,4,0,0,1-1.89-.51,32.94,32.94,0,0,0-4.86-2.11,16.77,16.77,0,0,0-5-.64q-7.4,0-11.6,4.25t-4.22,11.22q0,7,4.22,11.22t11.6,4.25a16.77,16.77,0,0,0,5-.64,32.94,32.94,0,0,0,4.86-2.11,4,4,0,0,1,1.89-.51,3,3,0,0,1,2.27,1.07,3.42,3.42,0,0,1-.73,5.37,29.3,29.3,0,0,1-6.14,3,24,24,0,0,1-7.87,1.16A24.27,24.27,0,0,1,674.48,95.4Z" transform="translate(-5.89 -5.48)"/><path class="a" d="M712,96.13a4.63,4.63,0,0,1-1.42-3.4v-.51a4.85,4.85,0,0,1,4.82-4.82h.85a4.85,4.85,0,0,1,4.82,4.82v.51a4.85,4.85,0,0,1-4.82,4.82h-.85A4.63,4.63,0,0,1,712,96.13Z" transform="translate(-5.89 -5.48)"/><path class="b" d="M47.08,66.47a19.59,19.59,0,0,0-18.26,9.7L17.16,96a2,2,0,0,0,.73,2.78,2,2,0,0,0,1,.28,2,2,0,0,0,1.75-1l.34-.57,21.8,12.8a2.08,2.08,0,0,0,1,.27,2,2,0,0,0,1.75-1,2,2,0,0,0-.72-2.78L23.05,94l4-6.81L42.88,96.5a2,2,0,1,0,2-3.5L29.1,83.71l3.22-5.49c.26-.44.55-.87.85-1.28l9,5.31a2,2,0,0,0,1,.28,2,2,0,0,0,1-3.78L36,73.92a15.53,15.53,0,0,1,10.8-3.4,2,2,0,0,0,.25-4Z" transform="translate(-5.89 -5.48)"/><path class="b" d="M111.7,40.85a2,2,0,0,0-2.77.73l-.8,1.36L86.32,30.15a2,2,0,0,0-2,3.5l21.8,12.79-4,6.81L86.24,44a2,2,0,1,0-2,3.5L100,56.75,97.51,61a15.92,15.92,0,0,1-1.73,2.38L86.9,58.21a2,2,0,0,0-2.05,3.5l7.71,4.53A15.67,15.67,0,0,1,83,68.75a2,2,0,0,0-.26,4c.43,0,.86,0,1.28,0a19.64,19.64,0,0,0,17-9.75l11.42-19.46A2,2,0,0,0,111.7,40.85Z" transform="translate(-5.89 -5.48)"/><path class="c" d="M76.46,84,57,53.73a15.58,15.58,0,0,1-2.44-9.82l20.27,11.9a2.11,2.11,0,0,0,1,.27,2,2,0,0,0,1-3.78L55.46,39.76a15.52,15.52,0,0,1,1.14-2.45l2.63-4.49L74.87,42a2,2,0,0,0,1,.28,2,2,0,0,0,1-3.78L61.29,29.32l4-6.81,8.92,5.23a2,2,0,0,0,2.06-3.5L67.34,19l.92-1.57a2,2,0,1,0-3.5-2.05L53.1,35.25a19.64,19.64,0,0,0,.44,20.68L73.05,86.17A15.62,15.62,0,0,1,75.36,97l-21-12.33a2,2,0,1,0-2.05,3.5L74.18,101a16.62,16.62,0,0,1-.79,1.58l-3.1,5.29-16-9.41A2,2,0,0,0,52.2,102l16,9.41-4,6.81-9.32-5.47a2,2,0,0,0-2.78.73,2,2,0,0,0,.73,2.77l9.32,5.47-.22.37a2,2,0,0,0,.73,2.77,2,2,0,0,0,1,.28,2,2,0,0,0,1.75-1l11.42-19.46A19.64,19.64,0,0,0,76.46,84Z" transform="translate(-5.89 -5.48)"/><path class="a" d="M64.07,131.49a26.88,26.88,0,0,1-13.46-3.59L19.36,109.85A27,27,0,0,1,5.89,86.54V50.44A27,27,0,0,1,19.36,27.13l31.25-18a27,27,0,0,1,26.93,0l31.25,18a27,27,0,0,1,13.47,23.31v36.1a27,27,0,0,1-13.47,23.31L77.54,127.9A26.89,26.89,0,0,1,64.07,131.49Zm0-122a22.93,22.93,0,0,0-11.43,3.05L21.38,30.64A22.93,22.93,0,0,0,10,50.44v36.1a22.93,22.93,0,0,0,11.43,19.8l31.26,18a22.92,22.92,0,0,0,22.87,0l31.25-18a22.92,22.92,0,0,0,11.44-19.8V50.44a22.92,22.92,0,0,0-11.44-19.8l-31.25-18A22.94,22.94,0,0,0,64.07,9.54Z" transform="translate(-5.89 -5.48)"/></svg>