<?xml version="1.0" encoding="UTF-8"?> <svg xmlns="http://www.w3.org/2000/svg" viewBox="0 0 392.83 83.46"><defs><style>.cls-1,.cls-2,.cls-3{fill:#005eb8;}.cls-2{font-size:25.64px;font-family:ArialMT, Arial;}.cls-3{fill-rule:evenodd;}</style></defs><g id="Layer_2" data-name="Layer 2"><g id="Layer_1-2" data-name="Layer 1"><path class="cls-1" d="M6.54,52.72,17.58,0h18a62.58,62.58,0,0,1,8.2.36,17.3,17.3,0,0,1,6.58,2.16,10.74,10.74,0,0,1,4.1,4.31,12.83,12.83,0,0,1,1.4,6,12.19,12.19,0,0,1-2.44,7.6,14.86,14.86,0,0,1-7.56,4.87,11.88,11.88,0,0,1,6.35,4,10.07,10.07,0,0,1,2.28,6.45,16.54,16.54,0,0,1-2.69,9,15.13,15.13,0,0,1-7.45,6.13q-4.74,1.88-13,1.87Zm12.62-8.49H29.63c4.38,0,7.33-.28,8.83-.84a7.41,7.41,0,0,0,3.59-2.79,7.05,7.05,0,0,0,1.35-4.1,5.53,5.53,0,0,0-1.94-4.33Q39.53,30.46,35,30.46H22ZM24,21.29h8.27a28.7,28.7,0,0,0,8-.79,6.69,6.69,0,0,0,4.89-6.44A4.8,4.8,0,0,0,44,10.75,5.8,5.8,0,0,0,40.71,9,42.59,42.59,0,0,0,35,8.81H26.57Z"></path><path class="cls-1" d="M57.16,52.73,68.2,0H78.49l-11,52.73Z"></path><path class="cls-1" d="M82.56,14.53H92.88L88.17,37.15a34.65,34.65,0,0,0-.86,5.07,3.82,3.82,0,0,0,1.22,2.85,4.3,4.3,0,0,0,3.13,1.18,7.23,7.23,0,0,0,2.69-.52,11.65,11.65,0,0,0,2.74-1.58,14.8,14.8,0,0,0,2.51-2.43,15.39,15.39,0,0,0,2.09-3.59,34.07,34.07,0,0,0,1.48-5.4L107,14.53H117.3l-8,38.2H99.68l1.07-5.18Q94.44,53.63,87,53.63a10,10,0,0,1-7.41-2.7,9.76,9.76,0,0,1-2.69-7.23,48.32,48.32,0,0,1,1.22-7.88Z"></path><path class="cls-1" d="M155,36.83H129.15c0,.41,0,.72,0,.94a8.63,8.63,0,0,0,2.18,6.15,6.93,6.93,0,0,0,5.3,2.33q5.15,0,8-5.32l9.24,1.55a19.43,19.43,0,0,1-7.21,8.36,18.85,18.85,0,0,1-10.12,2.79A16.84,16.84,0,0,1,124,48.75q-4.81-4.87-4.82-12.89a23.38,23.38,0,0,1,4.36-13.95q5.92-8.28,16.93-8.27,7,0,11.15,4.33t4.14,12.14A28.73,28.73,0,0,1,155,36.83Zm-8.7-6.29c0-.46,0-.8,0-1q0-4.24-1.9-6.37A6.55,6.55,0,0,0,139.36,21a8.11,8.11,0,0,0-5.74,2.41,12.83,12.83,0,0,0-3.43,7.12Z"></path><path class="cls-1" d="M165.54,28.74h20l-2.09,10h-20Z"></path><path class="cls-1" d="M238.86,52.73h-11L226.7,14.18,207.5,52.73H196.31L194.34,0H205l.46,36.9L223.5,0h11.76l1.22,36.5L253.86,0h10.5Z"></path><path class="cls-1" d="M268.5,52.73H258.18L269.22,0h10.32l-4,18.78a26.57,26.57,0,0,1,6.51-3.94,17.16,17.16,0,0,1,6.47-1.21,10,10,0,0,1,7.34,2.67,9.33,9.33,0,0,1,2.69,7,38.72,38.72,0,0,1-1,7.12l-4.68,22.34H282.6L287.38,30a31.69,31.69,0,0,0,.76-4.75,4,4,0,0,0-1.19-3A4.43,4.43,0,0,0,283.72,21a8.18,8.18,0,0,0-5,1.79A15.72,15.72,0,0,0,274,28.64a52.07,52.07,0,0,0-2.37,9Z"></path><path class="cls-1" d="M308.08,14.54H318.4l-8,38.2H300.1ZM311.1,0h10.32l-1.94,9.35H309.16Z"></path><path class="cls-1" d="M322.22,22.2l1.58-7.66h5l1.26-6.11,11.83-7.12-2.77,13.23h6.3l-1.58,7.66h-6.33l-3.35,16a49.72,49.72,0,0,0-.9,5,2.31,2.31,0,0,0,.76,1.85,4.15,4.15,0,0,0,2.73.67c.45,0,1.59-.08,3.41-.25l-1.61,7.66a27.5,27.5,0,0,1-5.47.54q-5.46,0-7.95-2.11a7.25,7.25,0,0,1-2.48-5.84A54.07,54.07,0,0,1,324,37.56l3.2-15.36Z"></path><path class="cls-1" d="M381,36.84H355.07c0,.41,0,.72,0,.94a8.67,8.67,0,0,0,2.18,6.15,7,7,0,0,0,5.3,2.34q5.14,0,8-5.33l9.24,1.55a19.31,19.31,0,0,1-7.21,8.36,18.85,18.85,0,0,1-10.12,2.79,16.88,16.88,0,0,1-12.52-4.87q-4.82-4.87-4.81-12.9a23.46,23.46,0,0,1,4.35-13.95q5.94-8.28,16.94-8.27,7,0,11.15,4.33t4.13,12.14A28.73,28.73,0,0,1,381,36.84Zm-8.7-6.29c0-.45,0-.8,0-1q0-4.25-1.91-6.37A6.54,6.54,0,0,0,365.28,21a8.09,8.09,0,0,0-5.73,2.41,12.87,12.87,0,0,0-3.44,7.12Z"></path><text class="cls-2" transform="translate(381.79 13.99) scale(0.58)">®</text><polygon class="cls-3" points="376.96 83.46 381.14 63.53 4.15 63.53 0 83.46 376.96 83.46"></polygon></g></g></svg> 