<?xml version="1.0" encoding="utf-8"?>
<!-- Generator: Adobe Illustrator 23.0.1, SVG Export Plug-In . SVG Version: 6.00 Build 0)  -->
<svg version="1.1" id="Layer_1" xmlns="http://www.w3.org/2000/svg" xmlns:xlink="http://www.w3.org/1999/xlink" x="0px" y="0px"
	 viewBox="0 0 417.7 89.5" style="enable-background:new 0 0 417.7 89.5;" xml:space="preserve">
<style type="text/css">
	.st0{fill:#FFFFFF;}
	.st1{fill:#D31245;}
</style>
<g>
	<g>
		<path class="st0" d="M28,23.3c4.3-1.9,6.7-5.4,6.7-10c0-3,0-12.1-17.2-12.1H0v46.7h19.2c8.5,0,17.7-3.5,17.7-13.2
			C36.9,29,33.4,24.6,28,23.3z M17.9,19.4h-6.8v-8.7h6.3c2.3,0,6.3,0.6,6.3,4.3C23.7,19.1,19.2,19.4,17.9,19.4z M25.8,33.5
			c0,3.6-3.2,4.9-6.2,4.9h-8.5v-9.4h7.1C21.7,28.9,25.8,29.7,25.8,33.5z"/>
		<path class="st0" d="M77.4,15.5c0-9.4-6.1-14.4-17.7-14.4H41.5v46.7h11.1V29.6h4.2l9.5,18.3h13.2L67.8,28.4
			C73.8,27,77.4,22.3,77.4,15.5z M65.9,15.5c0,4.2-3.8,4.6-7.9,4.6h-5.4v-9.4h6.1C63.7,10.7,65.9,12.2,65.9,15.5z"/>
		<path class="st0" d="M100.1,1.2L79.9,47.8h12.2l3.8-9.7H113l3.9,9.7h12.5L109.1,1.2H100.1z M109.2,28.6h-9.7l4.8-12.3L109.2,28.6z
			"/>
		<path class="st0" d="M147.9,1.2h-15.6v46.7h16.9c12.6,0,26.2-7.3,26.2-23.2C175.5,9.7,165.4,1.2,147.9,1.2z M164,24.1
			c0,8.9-5.3,13.4-15.9,13.4h-4.7V11.4h5.4C156.2,11.4,164,14.8,164,24.1z"/>
		<path class="st0" d="M196.8,10.3c2.3,0,5.4,0.9,6.9,2.8l0.4,0.5l7.6-8.4l-0.4-0.3C207.6,1.6,202.8,0,197,0
			C188.3,0,179,4.8,179,15.3c0,9.1,7.4,11.5,13.4,13.4c4.3,1.4,8,2.5,8,5.7c0,2.8-3.3,4.3-6.5,4.3c-3.2,0-6.4-1.6-8.4-4.1l-0.4-0.5
			l-7.9,8.7l0.4,0.3c4.3,4,9.4,5.9,15.7,5.9c11,0,18.1-6.1,18.1-15.5c0-9.7-7.4-11.9-13.4-13.6c-4.3-1.3-7.6-2.2-7.6-5.4
			C190.5,11.4,194.2,10.3,196.8,10.3z"/>
		<polygon class="st0" points="213.8,11.1 226.8,11.1 226.8,47.8 237.9,47.8 237.9,11.1 250.9,11.1 250.9,1.2 213.8,1.2 		"/>
		<path class="st0" d="M277.4,0c-15,0-25.1,9.8-25.1,24.5S262.4,49,277.4,49c15,0,25.1-9.8,25.1-24.5S292.4,0,277.4,0z M291.1,24.5
			c0,8.4-5.6,14.2-13.7,14.2s-13.7-5.8-13.7-14.2s5.6-14.2,13.7-14.2S291.1,16.1,291.1,24.5z"/>
		<polygon class="st0" points="341.3,31.8 322.5,1.2 308,1.2 308,47.8 319.1,47.8 319.1,16.4 338.2,47.6 338.4,47.8 352.3,47.8 
			352.3,1.2 341.3,1.2 		"/>
		<polygon class="st0" points="371.7,37.5 371.7,29.3 391.5,29.3 391.5,19 371.7,19 371.7,11.4 392.7,11.4 392.7,1.2 360.7,1.2 
			360.7,47.8 393.9,47.8 393.9,37.5 		"/>
	</g>
	<g>
		<path class="st0" d="M183.1,67.4h1.7l6.6,14.6l3.5-14.6h1.8l-4.3,18h-1.5l-6.7-14.9l-3.6,14.9h-1.8L183.1,67.4z"/>
		<path class="st0" d="M196.6,81.9c0-3,2.2-4.8,5.3-4.8c1.6,0,3.1,0.4,4.2,0.7l0.1-0.4c0.1-0.4,0.1-0.8,0.1-1.2
			c0-1.7-1.1-2.7-3.2-2.7c-1.3,0-2.3,0.3-3.4,0.7l-0.3-1.7c1.2-0.5,2.4-0.8,4-0.8c3,0,4.7,1.6,4.7,4.1c0,0.5-0.1,1.2-0.2,1.8
			l-1.8,7.5h-1.8l0.5-2.1c-1.1,1.4-2.6,2.4-4.4,2.4C198.4,85.6,196.6,84.3,196.6,81.9z M205.6,80.1l0.2-0.9c-1-0.3-2.4-0.6-3.8-0.6
			c-2.1,0-3.5,1.3-3.5,3.1c0,1.4,1,2.3,2.5,2.3C202.9,84.1,205,82.5,205.6,80.1z"/>
		<path class="st0" d="M210.9,82.9c0-0.5,0.1-1,0.2-1.4l1.9-7.7h-1.6l0.4-1.7h1.7l1-4h1.8l-1,4h3.8l-0.4,1.7h-3.8l-1.8,7.6
			c0,0.3-0.1,0.7-0.1,1c0,0.9,0.6,1.4,1.6,1.4c0.5,0,1.1-0.1,1.7-0.4l-0.4,1.8c-0.6,0.3-1.2,0.4-1.9,0.4
			C212.1,85.6,210.9,84.7,210.9,82.9z"/>
		<path class="st0" d="M219.8,81.5c0-0.6,0.1-1.4,0.3-2.1l1.8-7.4h1.8l-1.8,7.5c-0.1,0.4-0.2,1.1-0.2,1.5c0,1.7,1,2.8,2.6,2.8
			c1.8,0,3.7-1.8,4.3-4.3l1.8-7.5h1.8L229,85.3h-1.8l0.5-2.2c-1.1,1.4-2.3,2.4-4.2,2.4C221.3,85.6,219.8,84,219.8,81.5z"/>
		<path class="st0" d="M236.1,72.1h1.8l-0.8,3.5c1.5-2.3,3.3-3.8,5.7-3.7l-0.5,2.1h-0.1c-2.6,0-5.2,2.1-6.1,6.1l-1.3,5.2h-1.8
			L236.1,72.1z"/>
		<path class="st0" d="M241.9,81.9c0-3,2.2-4.8,5.3-4.8c1.6,0,3.1,0.4,4.2,0.7l0.1-0.4c0.1-0.4,0.1-0.8,0.1-1.2
			c0-1.7-1.1-2.7-3.2-2.7c-1.3,0-2.3,0.3-3.4,0.7l-0.3-1.7c1.2-0.5,2.4-0.8,4-0.8c3,0,4.7,1.6,4.7,4.1c0,0.5-0.1,1.2-0.2,1.8
			l-1.8,7.5h-1.8l0.5-2.1c-1.1,1.4-2.6,2.4-4.4,2.4C243.6,85.6,241.9,84.3,241.9,81.9z M250.9,80.1l0.2-0.9c-1-0.3-2.4-0.6-3.8-0.6
			c-2.1,0-3.5,1.3-3.5,3.1c0,1.4,1,2.3,2.5,2.3C248.2,84.1,250.3,82.5,250.9,80.1z"/>
		<path class="st0" d="M259.8,66.6h1.8L257,85.3h-1.8L259.8,66.6z"/>
		<path class="st0" d="M265.9,66.6h1.8l-4.5,18.7h-1.8L265.9,66.6z"/>
		<path class="st0" d="M265.2,88.6l1-1.5c0.4,0.4,1.2,0.7,1.8,0.7c1,0,1.9-0.6,3.1-2.5l-2.2-13.2h1.8l1.7,11.1l6.4-11.1h2l-8.2,13.7
			c-1.7,2.7-3.1,3.7-4.9,3.7C266.7,89.5,265.9,89.2,265.2,88.6z"/>
		<path class="st0" d="M292,67.4h5c2,0,3.6,0.5,4.6,1.7c0.7,0.8,1.2,1.9,1.2,3.3c0,4.2-3.2,6.6-7.9,6.6h-3.8l-1.5,6.4h-1.8L292,67.4
			z M295,77.2c3.8,0,6-1.7,6-4.6c0-0.9-0.2-1.6-0.7-2.1c-0.7-0.7-1.8-1.1-3.2-1.1h-3.6l-1.9,7.9H295z"/>
		<path class="st0" d="M305.9,72.1h1.8l-0.8,3.5c1.5-2.3,3.3-3.8,5.7-3.7l-0.5,2.1h-0.1c-2.6,0-5.2,2.1-6.1,6.1l-1.3,5.2h-1.8
			L305.9,72.1z"/>
		<path class="st0" d="M314.4,79.9c0,2.4,1.4,4,3.6,4c1.5,0,2.6-0.6,3.7-1.6l0.9,1.3c-1.2,1.1-2.6,2-4.7,2c-3.2,0-5.3-2.3-5.3-5.6
			c0-4.1,2.9-8.2,6.9-8.2c3,0,4.6,2.3,4.6,5.1c0,0.9-0.2,1.8-0.4,2.6h-9.3C314.4,79.6,314.4,79.8,314.4,79.9z M322.3,77.9
			c0-0.3,0.1-0.6,0.1-1c0-1.8-0.9-3.4-3-3.4c-2.3,0-4.1,2-4.8,4.4H322.3z"/>
		<path class="st0" d="M328.9,73.8h-1.6l0.4-1.7h1.6l0.4-1.6c0.6-2.7,2-3.9,4.1-3.9c0.9,0,1.8,0.2,2.4,0.6l-0.4,1.7
			c-0.7-0.4-1.3-0.5-2-0.5c-1.1,0-2,0.8-2.4,2.5l-0.3,1.3h3.9l-0.4,1.7h-3.9l-2.8,11.5h-1.8L328.9,73.8z"/>
		<path class="st0" d="M336.3,79.9c0,2.4,1.4,4,3.6,4c1.5,0,2.6-0.6,3.7-1.6l0.9,1.3c-1.2,1.1-2.6,2-4.7,2c-3.2,0-5.3-2.3-5.3-5.6
			c0-4.1,2.9-8.2,6.9-8.2c3,0,4.6,2.3,4.6,5.1c0,0.9-0.2,1.8-0.4,2.6h-9.3C336.3,79.6,336.3,79.8,336.3,79.9z M344.3,77.9
			c0-0.3,0.1-0.6,0.1-1c0-1.8-0.9-3.4-3-3.4c-2.3,0-4.1,2-4.8,4.4H344.3z"/>
		<path class="st0" d="M350.6,72.1h1.8l-0.8,3.5c1.5-2.3,3.3-3.8,5.7-3.7l-0.5,2.1h-0.1c-2.6,0-5.2,2.1-6.1,6.1l-1.3,5.2h-1.8
			L350.6,72.1z"/>
		<path class="st0" d="M359.9,72.1h1.8l-0.8,3.5c1.5-2.3,3.3-3.8,5.7-3.7L366,74h-0.1c-2.6,0-5.2,2.1-6.1,6.1l-1.3,5.2h-1.8
			L359.9,72.1z"/>
		<path class="st0" d="M368.3,79.9c0,2.4,1.4,4,3.6,4c1.5,0,2.6-0.6,3.7-1.6l0.9,1.3c-1.2,1.1-2.6,2-4.7,2c-3.2,0-5.3-2.3-5.3-5.6
			c0-4.1,2.9-8.2,6.9-8.2c3,0,4.6,2.3,4.6,5.1c0,0.9-0.2,1.8-0.4,2.6h-9.3C368.3,79.6,368.3,79.8,368.3,79.9z M376.2,77.9
			c0-0.3,0.1-0.6,0.1-1c0-1.8-0.9-3.4-3-3.4c-2.3,0-4.1,2-4.8,4.4H376.2z"/>
		<path class="st0" d="M380.1,80c0-4.7,3.2-8.2,6.7-8.2c2.4,0,3.8,1.5,4.5,3.3l2-8.5h1.8l-4.5,18.7h-1.8l0.5-2.3
			c-1.1,1.4-2.6,2.6-4.5,2.6C382.2,85.6,380.1,83.4,380.1,80z M390.7,77.6c0-2.3-1.5-4.1-3.7-4.1c-2.8,0-5,2.9-5,6.3
			c0,2.5,1.4,4.1,3.4,4.1C388,83.9,390.7,80.9,390.7,77.6z"/>
	</g>
	<path class="st1" d="M409.7,32.9c0.1,0.2,0.3,0.1,0.3,0.1l1.9-1c0,0-0.9,4.5-0.9,4.7c0,0.2,0.1,0.1,0.1,0.1l2.9-1.3
		c0,0,0.5,0.9,0.6,1.1c0.1,0.2,0.2,0.1,0.2,0.1l2.7-0.5c0,0-0.7,2.9-0.8,3.2c-0.1,0.2,0.1,0.3,0.1,0.3l1,0.6c0,0-4.6,3.9-4.8,4
		c-0.2,0.2-0.1,0.3-0.1,0.3l0.5,2l-5.3-0.8v2.6h-0.5v-2.6l-5.3,0.8l0.5-2c0,0,0.1-0.2-0.1-0.3c-0.2-0.2-4.8-4-4.8-4l1-0.6
		c0,0,0.2-0.1,0.1-0.3c-0.1-0.2-0.8-3.2-0.8-3.2l2.7,0.5c0,0,0.1,0.1,0.2-0.1c0.1-0.2,0.6-1.1,0.6-1.1l2.9,1.3c0,0,0.1,0.1,0.1-0.1
		c0-0.2-0.9-4.7-0.9-4.7l1.9,1c0,0,0.1,0.1,0.3-0.1c0.1-0.2,2-3.4,2-3.4L409.7,32.9z"/>
</g>
</svg>
