<?xml version="1.0" encoding="UTF-8" standalone="no"?>
<!-- Generator: Adobe Illustrator 16.0.4, SVG Export Plug-In . SVG Version: 6.00 Build 0)  -->

<svg
   xmlns:dc="http://purl.org/dc/elements/1.1/"
   xmlns:cc="http://creativecommons.org/ns#"
   xmlns:rdf="http://www.w3.org/1999/02/22-rdf-syntax-ns#"
   xmlns:svg="http://www.w3.org/2000/svg"
   xmlns="http://www.w3.org/2000/svg"
   xmlns:sodipodi="http://sodipodi.sourceforge.net/DTD/sodipodi-0.dtd"
   xmlns:inkscape="http://www.inkscape.org/namespaces/inkscape"
   version="1.1"
   id="Layer_1"
   x="0px"
   y="0px"
   width="127px"
   height="49px"
   viewBox="0 0 127 49"
   enable-background="new 0 0 127 49"
   xml:space="preserve"
   inkscape:version="0.91 r13725"
   sodipodi:docname="epipole-logo-white.svg"><metadata
     id="metadata29"><rdf:RDF><cc:Work
         rdf:about=""><dc:format>image/svg+xml</dc:format><dc:type
           rdf:resource="http://purl.org/dc/dcmitype/StillImage" /><dc:title></dc:title></cc:Work></rdf:RDF></metadata><defs
     id="defs27" /><sodipodi:namedview
     pagecolor="#ffffff"
     bordercolor="#666666"
     borderopacity="1"
     objecttolerance="10"
     gridtolerance="10"
     guidetolerance="10"
     inkscape:pageopacity="0"
     inkscape:pageshadow="2"
     inkscape:window-width="640"
     inkscape:window-height="480"
     id="namedview25"
     showgrid="false"
     inkscape:zoom="2.2913386"
     inkscape:cx="63.5"
     inkscape:cy="24.5"
     inkscape:window-x="2229"
     inkscape:window-y="316"
     inkscape:window-maximized="0"
     inkscape:current-layer="Layer_1" /><g
     id="g3"
     style="fill:#ffffff"><g
       id="g5"
       style="fill:#ffffff"><g
         id="g7"
         style="fill:#ffffff"><path
           fill="#424141"
           d="M9.796,14.21c5.096,0,9.017,3.824,9.017,9.066c0,0.341-0.048,0.979-0.097,1.321     c-0.05,0.493-0.439,0.834-0.883,0.834H4.505c0.146,2.649,2.454,5.241,5.638,5.241c1.76,0,3.379-0.785,4.359-1.418     c0.584-0.346,0.932-0.541,1.321-0.049l1.369,1.857c0.348,0.396,0.494,0.784-0.097,1.277c-1.418,1.225-3.963,2.449-7.25,2.449     C3.921,34.79,0,30.138,0,24.5C0,18.966,3.921,14.21,9.796,14.21z M14.26,22.345c-0.153-2.35-2.108-4.36-4.513-4.36     c-2.642,0-4.701,1.906-4.999,4.36H14.26z"
           id="path9"
           style="fill:#ffffff" /><path
           fill="#424141"
           d="M26.998,48.069c0,0.542-0.341,0.931-1.029,0.931h-2.739c-0.494,0-0.932-0.438-0.932-0.931v-32.44     c0-0.487,0.438-0.932,0.932-0.932h1.467c0.39,0,0.64,0.201,0.834,0.64l0.487,1.272c0.347-0.341,2.356-2.399,5.978-2.399     c5.389,0,9.358,4.707,9.358,10.338c0,5.735-4.212,10.241-9.552,10.241c-2.552,0-4.457-1.127-4.804-1.322V48.069z M31.211,30.577     c3.233,0,5.589-2.698,5.589-6.028c0-3.281-2.058-6.076-5.388-6.076c-2.843,0-4.317,2.252-4.512,2.843v7.841     C26.9,29.157,28.617,30.577,31.211,30.577z"
           id="path11"
           style="fill:#ffffff" /><path
           fill="#424141"
           d="M44.54,6.193c0-1.62,1.23-2.893,2.794-2.893c1.62,0,2.893,1.273,2.893,2.893     c0,1.564-1.273,2.843-2.893,2.843C45.77,9.036,44.54,7.757,44.54,6.193z M45.081,15.629c0-0.487,0.438-0.932,0.932-0.932h2.795     c0.487,0,0.931,0.445,0.931,0.932v17.743c0,0.486-0.444,0.931-0.931,0.931h-2.795c-0.494,0-0.932-0.444-0.932-0.931V15.629z"
           id="path13"
           style="fill:#ffffff" /><path
           fill="#424141"
           d="M59.584,48.069c0,0.542-0.341,0.931-1.028,0.931h-2.739c-0.494,0-0.932-0.438-0.932-0.931v-32.44     c0-0.487,0.438-0.932,0.932-0.932h1.466c0.39,0,0.639,0.201,0.834,0.64l0.487,1.272c0.347-0.341,2.356-2.399,5.979-2.399     c5.387,0,9.357,4.707,9.357,10.338c0,5.735-4.213,10.241-9.553,10.241c-2.551,0-4.457-1.127-4.805-1.322V48.069z M63.798,30.577     c3.233,0,5.588-2.698,5.588-6.028c0-3.281-2.057-6.076-5.388-6.076c-2.843,0-4.317,2.252-4.511,2.843v7.841     C59.487,29.157,61.206,30.577,63.798,30.577z"
           id="path15"
           style="fill:#ffffff" /><path
           fill="#424141"
           d="M86.096,14.21c5.49,0,9.898,4.707,9.898,10.241c0,5.631-4.408,10.338-9.898,10.338     c-5.486,0-9.895-4.707-9.895-10.338C76.201,18.917,80.609,14.21,86.096,14.21z M86.096,30.577c3.086,0,5.539-2.747,5.539-6.125     c0-3.282-2.453-5.979-5.539-5.979c-3.088,0-5.535,2.697-5.535,5.979C80.561,27.83,83.008,30.577,86.096,30.577z"
           id="path17"
           style="fill:#ffffff" /><path
           fill="#424141"
           d="M99.674,0.931c0-0.493,0.439-0.931,0.932-0.931h2.789c0.492,0,0.932,0.438,0.932,0.931v32.441     c0,0.486-0.439,0.931-0.932,0.931h-2.789c-0.492,0-0.932-0.444-0.932-0.931V0.931z"
           id="path19"
           style="fill:#ffffff" /><path
           fill="#424141"
           d="M117.848,14.21c5.1,0,9.018,3.824,9.018,9.066c0,0.341-0.049,0.979-0.098,1.321     c-0.049,0.493-0.438,0.834-0.883,0.834h-13.328c0.15,2.649,2.455,5.241,5.639,5.241c1.766,0,3.379-0.785,4.359-1.418     c0.59-0.346,0.932-0.541,1.32-0.049l1.377,1.857c0.342,0.396,0.486,0.784-0.098,1.277c-1.424,1.225-3.969,2.449-7.25,2.449     c-5.932,0-9.854-4.652-9.854-10.29C108.051,18.966,111.973,14.21,117.848,14.21z M122.312,22.345     c-0.146-2.35-2.107-4.36-4.514-4.36c-2.641,0-4.699,1.906-4.996,4.36H122.312z"
           id="path21"
           style="fill:#ffffff" /></g></g><path
       fill="#424141"
       d="M15.922,3.333c-1.293,0-2.342,0.876-2.668,2.083H5.979V3.405c0-0.171-0.092-0.326-0.239-0.413   c-0.153-0.089-0.333-0.089-0.486,0L0.321,5.839c-0.147,0.088-0.24,0.243-0.24,0.413c0,0.177,0.093,0.332,0.24,0.42l4.933,2.849   c0.08,0.044,0.159,0.066,0.24,0.066c0.086,0,0.166-0.022,0.246-0.066c0.147-0.088,0.239-0.243,0.239-0.42V7.089h7.298   c0.349,1.144,1.379,1.98,2.645,1.98c1.619,0,2.892-1.273,2.892-2.843C18.813,4.612,17.541,3.333,15.922,3.333z"
       id="path23"
       style="fill:#ffffff" /></g></svg>