<?xml version="1.0" encoding="utf-8"?>
<svg version="1.1" id="Layer_1" x="0px" y="0px" width="186px" height="200px" viewBox="0 0 80 50" enable-background="new 0 0 576 576" xmlns="http://www.w3.org/2000/svg">
  <path fill="#0096FF" d="M 59.749 18.242 L 59.749 18.242 C 59.548 18.016 59.249 17.88 58.946 17.88 L 44.854 17.88 C 44.826 17.88 44.811 17.88 44.795 17.893 C 44.78 17.893 44.767 17.893 44.754 17.893 C 44.72 17.893 44.674 17.893 44.647 17.893 C 39.012 17.893 33.984 22.272 33.153 27.891 L 27.913 32.437 L 32.308 3.747 L 32.308 3.713 L 32.308 3.713 L 32.686 1.239 C 32.729 0.936 32.64 0.62 32.446 0.393 C 32.248 0.136 31.96 0 31.644 0 L 27.659 0 C 27.114 0 26.646 0.407 26.57 0.936 L 25.877 5.494 C 24.804 12.323 18.371 17.88 11.546 17.88 L 11.396 17.88 L 12.073 13.457 C 12.285 12.037 13.145 11.297 14.596 11.267 L 16.573 11.267 C 17.118 11.267 17.586 10.858 17.661 10.327 L 18.265 6.342 C 18.311 6.04 18.22 5.722 18.024 5.494 C 17.825 5.271 17.525 5.132 17.224 5.132 L 15.228 5.132 C 11.982 5.132 6.834 7.277 5.929 13.198 L 5.202 17.893 L 3.043 17.893 C 2.651 17.893 2.275 18.106 2.074 18.453 L 0.143 21.851 C -0.083 22.243 -0.036 22.742 0.251 23.074 L 3.782 27.242 L 1.624 41.314 C 1.004 45.393 2.696 48.503 6.064 49.437 C 6.714 49.621 7.408 49.71 8.118 49.71 C 11.183 49.71 14.295 48.051 16.256 45.377 C 17.844 43.202 20.785 37.27 13.855 29.082 L 10.308 24.916 L 10.442 24.038 L 10.883 24.038 C 15.382 24.038 19.926 22.411 23.746 19.42 L 21.572 33.643 C 21.329 35.183 21.724 36.634 22.662 37.722 C 23.596 38.809 24.938 39.414 26.465 39.414 C 27.944 39.414 29.424 38.841 30.618 37.812 L 34.377 34.549 C 34.741 35.171 35.146 35.744 35.614 36.243 C 37.486 38.296 40.115 39.414 43 39.414 C 48.902 39.414 54.099 34.61 54.581 28.72 C 54.716 27.106 54.475 25.489 53.901 24.038 L 58.295 24.038 C 58.841 24.038 59.308 23.631 59.384 23.105 L 59.99 19.119 C 60.032 18.785 59.942 18.484 59.749 18.242 M 43.363 33.252 C 42.139 33.252 41.035 32.783 40.251 31.922 C 39.466 31.064 39.088 29.914 39.18 28.706 C 39.389 26.124 41.656 24.025 44.238 24.025 C 45.46 24.025 46.565 24.495 47.348 25.355 C 48.136 26.216 48.51 27.364 48.419 28.572 C 48.209 31.151 45.944 33.252 43.363 33.252 M 11.366 42.132 C 10.489 43.338 9.023 43.701 8.312 43.505 C 8.118 43.443 7.497 43.277 7.755 41.59 L 9.007 33.402 C 11.936 36.907 12.815 40.152 11.366 42.132"/>
</svg>