<svg viewBox="0 0 102 33" xmlns="http://www.w3.org/2000/svg" fill-rule="evenodd" clip-rule="evenodd" stroke-linejoin="round" stroke-miterlimit="1.414"><path d="M29.6 6.8c-.8-.4-1.9-.6-3.3-.6-2.1 0-3.5.6-4.4 1.4-.9.8-1.2 1.9-1.4 2.9v.2c0 .2.1.4.2.5.1.1.3.2.5.2h1.3c.2 0 .4-.1.5-.2.1-.1.2-.3.2-.4.1-.3.1-.6.3-.8.2-.4.4-.7.9-.9.4-.2 1.1-.3 2-.3.8 0 1.4.1 1.8.3.7.3 1 .7 1.2 1.3.2.6.3 1.3.3 2v.8h-3.9c-1.5 0-2.9.2-4.1 1-.6.4-1.1.9-1.4 1.5-.3.6-.5 1.4-.5 2.4 0 1.6.6 2.8 1.5 3.6 1 .8 2.3 1.2 3.7 1.2h.6c.9 0 1.9-.2 2.7-.6.5-.3 1-.6 1.3-1.1v.6c0 .2.1.4.2.6.1.1.3.2.6.2h1.2c.2 0 .4-.1.5-.2.1-.1.2-.3.2-.6v-9.3c0-1.4-.1-2.9-1-4.2-.2-.6-.8-1.1-1.7-1.5M22.7 17c.2-.4.5-.7 1-1 .5-.2 1.2-.3 2.2-.3h3.9v.7c0 .9-.2 1.9-.7 2.7-.3.4-.6.7-1.1.9-.5.2-1.1.4-1.9.4h-.6c-.8 0-1.5-.2-2-.6-.5-.4-.8-.9-.8-1.7-.2-.4-.1-.8 0-1.1M43.3 6.6H40V3.3c0-.4-.4-.8-.8-.8H38c-.2 0-.4.1-.6.2-.1.1-.2.3-.2.5v1.2c0 .5 0 .8-.1 1.1-.1.3-.2.5-.3.6-.2.2-.4.3-.7.4-.3.1-.7.1-1.1.1-.2 0-.4.1-.6.2-.1.1-.2.3-.2.5v1.1c0 .2.1.4.2.6.1.1.3.2.6.2h2.2v7.7c0 .9 0 1.7.2 2.4.1.5.3 1 .5 1.4.3.6.9 1.1 1.6 1.4.7.3 1.7.5 2.9.5h.9c.2 0 .4-.1.5-.2.1-.1.2-.3.2-.6v-1.1c0-.2-.1-.4-.2-.6-.1-.1-.3-.2-.5-.2h-.6c-.6 0-1.1 0-1.5-.2-.3-.1-.5-.2-.6-.3-.2-.2-.4-.5-.5-1-.1-.3-.1-.9-.1-1.7V9.2h3.3c.2 0 .4-.1.5-.2.1-.1.2-.3.2-.6V7.3c0-.2-.1-.4-.2-.5-.1-.1-.3-.2-.5-.2m9.3-.4c-1.9 0-3.5.7-4.7 1.9-1.2 1.2-1.9 3-1.9 5.3v2.4c0 2.2.7 4 1.9 5.3 1.2 1.2 2.9 1.9 4.8 1.9 1.1 0 2.4-.3 3.5-1s2.2-1.8 2.7-3.5c0-.1.1-.2.1-.3v-.3c0-.2-.1-.3-.2-.4-.1-.1-.3-.2-.4-.2H57c-.2 0-.4.1-.5.2-.1.1-.2.2-.2.3-.5 1.2-1.1 1.8-1.7 2.1-.6.3-1.3.4-1.9.4-1.1 0-2-.4-2.7-1.1-.7-.7-1.1-1.8-1.1-3.1v-.4h9.6c.2 0 .4-.1.6-.2.2-.1.3-.3.3-.6v-1.6c0-2.2-.7-4-1.9-5.2-1.4-1.2-3-1.9-4.9-1.9m-3.8 6.9c0-1.4.4-2.5 1.1-3.2.7-.7 1.6-1.1 2.7-1.1s2 .4 2.7 1.1c.7.7 1.1 1.8 1.1 3.2v.2h-7.6v-.2zm33.3-6.3c-.8-.3-1.7-.5-2.9-.5s-2.2.3-3.1.8c-.7.4-1.3 1.1-1.8 1.8-.5-.8-1.1-1.4-1.8-1.9-.9-.5-1.9-.8-3.1-.8-1.2 0-2.1.3-2.8.8-.4.3-.8.6-1.1 1v-.7c0-.2-.1-.4-.2-.5-.1-.1-.3-.2-.6-.2h-1.3c-.2 0-.4.1-.6.2-.1.1-.2.3-.2.5v14.5c0 .2.1.4.2.6.1.1.3.2.6.2h1.3c.2 0 .4-.1.6-.2.1-.1.2-.3.2-.6v-8.3c0-1.4.2-2.6.7-3.5.3-.4.6-.7 1.1-1 .4-.2 1-.4 1.7-.4s1.2.1 1.6.3c.6.3 1.1.8 1.3 1.5.3.7.4 1.7.4 2.9v8.3c0 .2.1.4.2.6.1.1.3.2.6.2h1.3c.2 0 .4-.1.6-.2.1-.1.2-.3.2-.6v-8.3c0-1.6.2-2.8.8-3.5.3-.4.6-.7 1-.9.4-.2 1-.3 1.7-.3s1.3.1 1.7.3c.7.3 1.1.9 1.3 1.6.3.7.4 1.7.4 2.8v8.3c0 .2.1.4.2.6.1.1.3.2.5.2h1.3c.2 0 .4-.1.6-.2.2-.1.2-.3.2-.6v-8.1c0-2.3-.3-4.1-1.2-5.4-.2-.5-.8-1-1.6-1.3m17.7 1.6c-.4-.6-1-1.2-1.9-1.5-.8-.4-1.9-.6-3.3-.6-2.1 0-3.5.6-4.4 1.4-.9.8-1.2 1.9-1.4 2.9v.2c0 .2.1.4.2.5.1.1.3.2.5.2h1.3c.2 0 .4-.1.5-.2.1-.1.2-.3.2-.4.1-.3.1-.6.3-.8.2-.4.4-.7.9-.9.4-.2 1.1-.3 2-.3.8 0 1.4.1 1.8.3.7.3 1 .7 1.2 1.3.2.6.3 1.3.3 2v.8h-3.9c-1.5 0-2.9.2-4.1 1-.6.4-1.1.9-1.4 1.5-.3.6-.5 1.4-.5 2.4 0 1.6.6 2.8 1.5 3.6 1 .8 2.3 1.2 3.7 1.2h.7c.9 0 1.9-.2 2.7-.6.5-.3 1-.6 1.3-1.1v.6c0 .2.1.4.2.6.1.1.3.2.6.2h1.2c.2 0 .4-.1.5-.2.1-.1.2-.3.2-.6v-9.3c.1-1.4 0-3-.9-4.2M91 17c.2-.4.5-.7 1-1 .5-.2 1.2-.3 2.2-.3H98v.7c0 .9-.2 1.9-.7 2.7-.3.4-.6.7-1.1.9-.5.2-1.1.4-1.9.4h-.6c-.8 0-1.5-.2-2-.6-.5-.4-.8-.9-.8-1.7 0-.4 0-.8.1-1.1" fill-rule="nonzero"/><path d="M11.9 18.9c-.8.8-2 1.4-3.6 1.4-1.4 0-2.6-.5-3.5-1.3-.9-.8-1.6-2.1-1.8-3.7H.1c.2 2.1 1.1 4 2.4 5.4C3.9 22.1 5.8 23 8.2 23c1.4 0 2.7-.4 3.8-1l-.1-3.1z" fill="#d2091e" fill-rule="nonzero"/><path d="M2.9 13.6V8.8c0-2 .6-3.5 1.6-4.5s2.3-1.6 3.8-1.6c1.6 0 2.8.6 3.7 1.4.9.9 1.4 2 1.5 3.1 0 .2.1.4.2.5.1.1.1.1.2.1h1.9c.2 0 .3 0 .4-.2.1-.1.2-.3.2-.4 0-.1 0-.3-.1-.5C16 5 15.2 3.3 13.8 2 12.5.8 10.6 0 8.3 0 5.9 0 3.9.9 2.4 2.4S0 6.1 0 8.8v4.8h2.9z" fill-rule="nonzero"/><path d="M15.6 11.1H8.5c-.2 0-.4.1-.6.2-.1.1-.2.3-.2.5V13c0 .2.1.4.2.6.1.1.3.2.6.2h5.1v1l.2 7.4c0 .1.1.2.2.3.1.1.3.2.6.2h1.1c.2 0 .4-.1.6-.2.2-.1.2-.3.2-.6V11.8c-.1-.4-.5-.7-.9-.7" fill-rule="nonzero"/><path d="M42.5 31.4v1h-1v-6.3h1v4l1.9-1.9h1.3L44 29.9l1.9 2.5h-1.3l-1.3-1.7-.8.7zm10.7-1.3v2.3h-1v-2.3c0-.7-.4-1.1-1-1.1-.4 0-.8.2-1.1.6v2.8h-1v-4.2h1v.3c.4-.3.8-.5 1.3-.5 1.1 0 1.8.8 1.8 2.1m7.8.2c0 1.3-1 2.2-2.2 2.2-1.3 0-2.2-.9-2.2-2.2 0-1.3 1-2.2 2.2-2.2 1.3 0 2.2.9 2.2 2.2m-1 0c0-.7-.5-1.3-1.2-1.3s-1.2.6-1.2 1.3c0 .7.5 1.3 1.2 1.3S60 31 60 30.3m8.9 2.1H68l-.8-2.6-.9 2.6h-.9l-1.6-4.2h1.1l.9 2.5.9-2.5h.9l.9 2.6.9-2.6h1.1l-1.6 4.2zm13.9 0h-.9l-.9-2.6-.8 2.6h-.9l-1.6-4.2h1.1l.9 2.5.9-2.5h.9l.9 2.6.9-2.6h1.1l-1.6 4.2zm8.8-2.1c0 1.3-1 2.2-2.2 2.2-1.3 0-2.2-.9-2.2-2.2 0-1.3 1-2.2 2.2-2.2 1.3 0 2.2.9 2.2 2.2m-1 0c0-.7-.5-1.3-1.2-1.3s-1.2.6-1.2 1.3c0 .7.5 1.3 1.2 1.3s1.2-.6 1.2-1.3m8.9 2.1h-.9l-.8-2.6-.9 2.6H96l-1.6-4.2h1.1l.9 2.5.9-2.5h.9l.9 2.6.9-2.6h1.1l-1.6 4.2z" fill="#d2091e" fill-rule="nonzero"/></svg>