<svg xmlns="http://www.w3.org/2000/svg" viewBox="0 0 114 31.06"><defs><style>.cls-1,.cls-3{fill:#fff;}.cls-2{fill:#d31245;}.cls-3{fill-rule:evenodd;}</style></defs><g id="Layer_2" data-name="Layer 2"><g id="Layer_1-2" data-name="Layer 1"><path class="cls-1" d="M36.59,11.59h-6V12c1.61.12,2.08.14,2.08,2.1V18c0,.85-1.63,1.39-3.23,1.39-3.66,0-6.12-2.67-6.12-6.94,0-6,3.47-7.47,5.72-7.47,3.3,0,4.53,2.34,5.17,4h.54l-.19-5H34c-.14.66-.92.78-1.11.78-.75,0-1.84-.78-4.23-.78A7.89,7.89,0,0,0,20.6,11.9c0,3.09.71,4.49,2,5.86a9.08,9.08,0,0,0,6.63,2.52c2.6,0,5.74-1.37,5.74-1.7V13.84c0-1.68.62-1.73,1.66-1.82Z"/><path class="cls-1" d="M50,16h-.67c-1,2.39-2.22,3.1-5.17,3.1-3.52,0-3.52,0-3.52-1V12.21l3.64,0c2,0,2.31.35,2.6,2.24h.54V9h-.54c-.26,1.68-.5,2.24-2.6,2.24H40.63V6c0-.8.29-.8.78-.8H44.6c2.62,0,3.24.38,3.59,2.48h.59l-.07-3.38H36.17v.45c1.49.12,2.06.26,2.06,2.12V17.38c0,1.82-.55,2-2.06,2.12V20H48.92Z"/><path class="cls-1" d="M66,4.32H60.47v.45c1.6.12,2.27.31,2.27,3v7.89h-.05l-9-11.36h-4v.45c.94,0,1.32.12,2.29,1.3V16.48c0,2.55-.5,2.91-2.29,3V20h5.54V19.5c-1.72-.07-2.21-.59-2.21-3V7.27h0L63.37,20.21h.4V7.79c0-2.76.76-2.86,2.25-3Z"/><path class="cls-1" d="M76,19.5c-2-.07-2.27-.52-2.27-2.12V5.31h1.28c2.6,0,3.26.43,3.75,3h.57l-.14-4H65.91l-.14,4h.57c.51-2.58,1.15-3,3.75-3h1.27V17.12c0,1.75-.07,2.29-2.21,2.38V20H76Z"/><path class="cls-1" d="M92.9,16h-.66c-1,2.39-2.22,3.1-5.17,3.1-3.52,0-3.52,0-3.52-1V12.21l3.63,0c2,0,2.32.35,2.6,2.24h.55V9h-.55c-.26,1.68-.49,2.24-2.6,2.24H83.55V6c0-.8.28-.8.78-.8h3.19c2.62,0,3.23.38,3.58,2.48h.6l-.08-3.38H79.09v.45c1.48.12,2,.26,2,2.12V17.38c0,1.82-.54,2-2,2.12V20H91.84Z"/><path class="cls-1" d="M102,4.77c1.16.05,1.6.09,1.6.73,0,.8-.68,1.44-6,6.24V6.89c0-1.74.33-2,2.18-2.12V4.32H93v.45c1.6.12,2.12.28,2.12,2.12V17.12c0,1.94-.28,2.29-2.12,2.38V20H99.7V19.5c-1.84-.09-2.13-.47-2.13-2.12V13l.62-.49,2.5,2.48c.8.8,3.07,3.23,3.07,4,0,.52-.4.55-1.65.59V20h7.2V19.5c-1.35.05-2.17-.85-3.71-2.55l-5.5-5.9,4.49-4.44c1.67-1.65,2.17-1.72,3.59-1.84V4.32H102Z"/><polygon class="cls-2" points="0 3.45 3.44 5.35 12.34 0 13.77 2.52 3.44 8.73 0 6.85 0 3.45"/><polygon class="cls-2" points="0 9.03 3.44 10.93 12.34 5.58 13.77 8.1 3.44 14.31 0 12.43 0 9.03"/><polygon class="cls-2" points="0 14.61 3.44 16.51 12.34 11.17 13.77 13.69 3.44 19.9 0 18.01 0 14.61"/><polygon class="cls-2" points="0 20.2 3.44 22.1 12.34 16.75 13.77 19.27 3.44 25.48 0 23.6 0 20.2"/><polygon class="cls-2" points="0 25.78 3.44 27.68 12.34 22.33 13.77 24.85 3.44 31.06 0 29.18 0 25.78"/><path class="cls-3" d="M111.74,16.69a1.79,1.79,0,0,1,.66.09.61.61,0,0,1,.38.62.52.52,0,0,1-.24.47.76.76,0,0,1-.35.12.6.6,0,0,1,.42.24.64.64,0,0,1,.13.37v.18a1.09,1.09,0,0,0,0,.18.31.31,0,0,0,0,.13v0h-.4V18.8c0-.28-.07-.47-.23-.56a1,1,0,0,0-.47-.08h-.34v1h-.43V16.69Zm.46.39a1.13,1.13,0,0,0-.52-.09h-.36v.87h.39a1,1,0,0,0,.4-.05.37.37,0,0,0,.25-.38.35.35,0,0,0-.16-.35m1.15,2.4a2.21,2.21,0,1,1-3.12-3.13A2.21,2.21,0,0,1,114,17.91a2.15,2.15,0,0,1-.65,1.57m-2.91-2.91a1.83,1.83,0,0,0-.55,1.34,1.87,1.87,0,0,0,.55,1.36,1.9,1.9,0,0,0,2.69,0,1.87,1.87,0,0,0,.55-1.36,1.83,1.83,0,0,0-.55-1.34,1.9,1.9,0,0,0-2.69,0"/></g></g></svg>