<?xml version="1.0" encoding="utf-8"?>
<!-- Generator: Adobe Illustrator 16.0.3, SVG Export Plug-In . SVG Version: 6.00 Build 0)  -->
<!DOCTYPE svg PUBLIC "-//W3C//DTD SVG 1.1//EN" "http://www.w3.org/Graphics/SVG/1.1/DTD/svg11.dtd">
<svg version="1.1" id="Layer_1" xmlns="http://www.w3.org/2000/svg" xmlns:xlink="http://www.w3.org/1999/xlink" x="0px" y="0px"
	 width="256.219px" height="245.303px" viewBox="0 0 256.219 245.303" enable-background="new 0 0 256.219 245.303"
	 xml:space="preserve">
<g>
	<g>
		<path fill="#FFFFFF" d="M188.682,135.46c22.574-22.575,28.493-48.736,28.493-48.736c0.154-1.085-0.002-2.491-1.246-3.734
			L176.069,43.13c-1.56-1.56-4.203-1.715-5.761-0.156l-29.894,29.894c-1.713,1.711-1.714,4.204,0,5.918l12.299,12.299
			c1.556,1.557,4.052,1.555,5.762-0.156l12.453-12.454l13.233,13.233c-1.864,4.358-5.912,13.699-14.634,22.419
			c-19.616,19.617-51.381,18.683-70.686-0.621c-19.462-19.463-20.708-51.54-1.247-71.002c8.564-8.564,19.931-13.701,32.54-14.477
			c2.649-0.158,4.052-1.56,4.049-4.048l-0.467-19.774c0-2.496-2.022-4.203-4.515-4.206c-19.619,1.559-38.456,9.5-52.47,23.511
			c-30.984,30.984-30.829,80.962,0.311,112.104c4.343,4.341,9.05,8.049,14.007,11.17h83.396
			C179.492,143.623,184.279,139.862,188.682,135.46z"/>
	</g>
	<g>
		<path fill="#FFFFFF" d="M28.374,160.213c7.113,0,13.91,2.767,19.284,7.351c0.633,0.633,0.712,1.58,0.08,2.213l-4.9,5.138
			c-0.633,0.633-1.344,0.633-2.056,0c-3.397-3.004-7.587-4.584-11.935-4.584c-9.879,0-17.704,8.457-17.704,18.337
			c0,9.8,7.825,18.098,17.783,18.098c4.427,0,7.825-1.342,9.405-1.974v-6.718h-6.323c-0.868,0-1.501-0.634-1.501-1.425v-6.242
			c0-0.871,0.633-1.501,1.501-1.501h15.176c0.79,0,1.423,0.71,1.423,1.501v20.233c0,0.631-0.316,1.026-0.633,1.265
			c0,0-8.141,5.137-19.601,5.137C12.646,217.041,0,204.553,0,188.745S12.646,160.213,28.374,160.213z"/>
		<path fill="#FFFFFF" d="M60.221,162.505c0-0.79,0.632-1.502,1.501-1.502h32.169c0.869,0,1.502,0.712,1.502,1.502v6.481
			c0,0.79-0.633,1.502-1.502,1.502H70.495v12.962h19.522c0.79,0,1.502,0.711,1.502,1.502v6.561c0,0.868-0.712,1.502-1.502,1.502
			H70.495v13.831h23.396c0.869,0,1.502,0.711,1.502,1.502v6.479c0,0.791-0.633,1.502-1.502,1.502H61.722
			c-0.869,0-1.501-0.711-1.501-1.502V162.505z"/>
		<path fill="#FFFFFF" d="M103.449,208.584l2.846-4.899c0.632-1.106,1.976-1.106,2.688-0.554c0.395,0.236,6.797,4.899,11.935,4.899
			c4.109,0,7.191-2.687,7.191-6.086c0-4.03-3.397-6.798-10.037-9.483c-7.43-3.003-14.858-7.746-14.858-17.073
			c0-7.034,5.216-15.175,17.783-15.175c8.062,0,14.227,4.109,15.808,5.296c0.789,0.474,1.027,1.817,0.474,2.607l-3.003,4.506
			c-0.634,0.948-1.818,1.58-2.766,0.948c-0.634-0.396-6.641-4.347-10.987-4.347c-4.506,0-6.955,3.004-6.955,5.532
			c0,3.715,2.924,6.244,9.326,8.853c7.668,3.082,16.519,7.666,16.519,17.862c0,8.141-7.034,15.649-18.179,15.649
			c-9.958,0-15.808-4.663-17.388-6.165C103.133,210.244,102.738,209.849,103.449,208.584z"/>
		<path fill="#FFFFFF" d="M174.024,160.213c7.982,0,13.753,2.529,19.127,7.351c0.712,0.633,0.712,1.58,0.08,2.213l-4.821,4.979
			c-0.554,0.632-1.345,0.632-1.977,0c-3.318-2.925-7.745-4.663-12.172-4.663c-10.116,0-17.625,8.457-17.625,18.416
			c0,9.879,7.589,18.256,17.706,18.256c4.74,0,8.772-1.816,12.091-4.505c0.632-0.553,1.502-0.473,1.977,0l4.9,5.059
			c0.632,0.555,0.475,1.582-0.079,2.135c-5.375,5.216-12.171,7.667-19.207,7.667c-15.806,0-28.532-12.567-28.532-28.375
			S158.219,160.213,174.024,160.213z"/>
		<path fill="#FFFFFF" d="M227.766,160.213c15.808,0,28.453,12.725,28.453,28.532s-12.646,28.375-28.453,28.375
			c-15.809,0-28.376-12.567-28.376-28.375S211.957,160.213,227.766,160.213z M227.766,206.846c9.958,0,18.177-8.143,18.177-18.101
			s-8.219-18.257-18.177-18.257c-9.959,0-18.1,8.299-18.1,18.257S217.807,206.846,227.766,206.846z"/>
	</g>
	<g>
		<path fill="#FFFFFF" d="M27,232.263c1.739,0,3.17,0.634,4.401,1.684c0.145,0.145,0.163,0.361,0.018,0.507
			c-0.271,0.291-0.543,0.563-0.815,0.852c-0.145,0.164-0.289,0.145-0.47-0.018c-0.852-0.743-1.975-1.233-3.08-1.233
			c-2.572,0-4.546,2.174-4.546,4.711c0,2.519,1.974,4.692,4.546,4.692c1.503,0,2.536-0.544,2.718-0.617v-2.028h-1.775
			c-0.199,0-0.345-0.146-0.345-0.326v-1.052c0-0.199,0.146-0.344,0.345-0.344h3.297c0.181,0,0.325,0.164,0.325,0.344
			c0,1.45,0.019,2.937,0.019,4.385c0,0.091-0.072,0.236-0.146,0.29c0,0-1.865,1.194-4.491,1.194c-3.605,0-6.521-2.878-6.521-6.502
			C20.479,235.178,23.395,232.263,27,232.263z"/>
		<path fill="#FFFFFF" d="M35.384,232.787c0-0.181,0.146-0.344,0.345-0.344h4.926c2.174,0,3.949,1.72,3.949,3.876
			c0,1.668-1.104,3.044-2.681,3.678l2.481,4.602c0.127,0.234,0,0.524-0.308,0.524h-1.413c-0.146,0-0.254-0.091-0.29-0.164
			l-2.409-4.8h-2.735v4.619c0,0.181-0.163,0.345-0.344,0.345h-1.177c-0.199,0-0.345-0.164-0.345-0.345V232.787z M40.51,238.602
			c1.178,0,2.21-0.996,2.21-2.245c0-1.179-1.032-2.156-2.21-2.156h-3.225v4.401H40.51z"/>
		<path fill="#FFFFFF" d="M53.912,232.263c3.623,0,6.521,2.915,6.521,6.538c0,3.624-2.898,6.502-6.521,6.502
			c-3.622,0-6.503-2.878-6.503-6.502C47.409,235.178,50.29,232.263,53.912,232.263z M53.912,243.492c2.591,0,4.71-2.1,4.71-4.691
			c0-2.573-2.119-4.728-4.71-4.728c-2.571,0-4.69,2.154-4.69,4.728C49.222,241.393,51.341,243.492,53.912,243.492z"/>
		<path fill="#FFFFFF" d="M63.764,232.787c0-0.181,0.163-0.344,0.345-0.344h1.213c0.199,0,0.345,0.163,0.345,0.344v7.481
			c0,1.812,1.159,3.224,3.007,3.224c1.865,0,3.043-1.396,3.043-3.187v-7.519c0-0.181,0.145-0.344,0.344-0.344h1.214
			c0.182,0,0.345,0.163,0.345,0.344v7.608c0,2.753-2.083,4.907-4.945,4.907c-2.845,0-4.909-2.154-4.909-4.907V232.787z"/>
		<path fill="#FFFFFF" d="M77.873,232.787c0-0.181,0.145-0.344,0.344-0.344h4.13c2.229,0,4.058,1.81,4.058,4.003
			c0,2.245-1.829,4.074-4.04,4.074h-2.626v4.258c0,0.181-0.163,0.345-0.344,0.345h-1.178c-0.199,0-0.344-0.164-0.344-0.345V232.787z
			 M82.238,238.746c1.25,0,2.301-1.014,2.301-2.319c0-1.231-1.051-2.174-2.301-2.174h-2.5v4.493H82.238z"/>
		<path fill="#FFFFFF" d="M100.005,232.263c3.622,0,6.521,2.915,6.521,6.538c0,3.624-2.898,6.502-6.521,6.502
			c-3.623,0-6.503-2.878-6.503-6.502C93.502,235.178,96.382,232.263,100.005,232.263z M100.005,243.492
			c2.59,0,4.709-2.1,4.709-4.691c0-2.573-2.119-4.728-4.709-4.728c-2.572,0-4.691,2.154-4.691,4.728
			C95.313,241.393,97.433,243.492,100.005,243.492z"/>
		<path fill="#FFFFFF" d="M110.021,232.787c0-0.181,0.145-0.344,0.344-0.344h7.245c0.199,0,0.344,0.163,0.344,0.344v1.015
			c0,0.182-0.145,0.344-0.344,0.344h-5.724v4.186h4.836c0.181,0,0.345,0.162,0.345,0.344v0.995c0,0.182-0.164,0.345-0.345,0.345
			h-4.836v4.764c0,0.181-0.163,0.345-0.345,0.345h-1.177c-0.199,0-0.344-0.164-0.344-0.345V232.787z"/>
		<path fill="#FFFFFF" d="M131.683,232.263c1.829,0,3.151,0.614,4.383,1.684c0.164,0.145,0.164,0.361,0.018,0.507l-0.796,0.816
			c-0.129,0.162-0.291,0.162-0.453,0c-0.853-0.743-2.01-1.216-3.134-1.216c-2.591,0-4.547,2.174-4.547,4.711
			c0,2.536,1.975,4.692,4.564,4.692c1.321,0,2.246-0.526,3.116-1.196c0.162-0.127,0.324-0.109,0.434-0.018l0.833,0.815
			c0.145,0.125,0.109,0.361-0.018,0.488c-1.231,1.196-2.789,1.756-4.4,1.756c-3.624,0-6.54-2.878-6.54-6.502
			C125.143,235.178,128.059,232.263,131.683,232.263z"/>
		<path fill="#FFFFFF" d="M145.102,232.263c3.623,0,6.521,2.915,6.521,6.538c0,3.624-2.898,6.502-6.521,6.502
			c-3.622,0-6.502-2.878-6.502-6.502C138.6,235.178,141.479,232.263,145.102,232.263z M145.102,243.492c2.591,0,4.71-2.1,4.71-4.691
			c0-2.573-2.119-4.728-4.71-4.728c-2.572,0-4.691,2.154-4.691,4.728C140.41,241.393,142.529,243.492,145.102,243.492z"/>
		<path fill="#FFFFFF" d="M156.492,232.533c0.037-0.145,0.182-0.271,0.326-0.271h0.291c0.107,0,0.271,0.09,0.307,0.199l3.787,9.255
			h0.07l3.77-9.255c0.035-0.109,0.18-0.199,0.309-0.199h0.289c0.145,0,0.29,0.126,0.325,0.271l2.229,12.173
			c0.055,0.253-0.072,0.417-0.325,0.417h-1.179c-0.162,0-0.307-0.127-0.344-0.255l-1.34-8.097c-0.019,0-0.055,0-0.055,0
			l-3.261,8.332c-0.036,0.109-0.145,0.199-0.309,0.199h-0.324c-0.145,0-0.273-0.09-0.309-0.199l-3.279-8.332
			c-0.018,0-0.055,0-0.072,0l-1.306,8.097c-0.016,0.128-0.18,0.255-0.324,0.255h-1.177c-0.255,0-0.382-0.164-0.345-0.417
			L156.492,232.533z"/>
		<path fill="#FFFFFF" d="M171.761,232.787c0-0.181,0.145-0.344,0.344-0.344h4.131c2.227,0,4.057,1.81,4.057,4.003
			c0,2.245-1.83,4.074-4.039,4.074h-2.628v4.258c0,0.181-0.162,0.345-0.344,0.345h-1.177c-0.199,0-0.344-0.164-0.344-0.345V232.787z
			 M176.127,238.746c1.248,0,2.3-1.014,2.3-2.319c0-1.231-1.052-2.174-2.3-2.174h-2.502v4.493H176.127z"/>
		<path fill="#FFFFFF" d="M181.105,244.651l5.56-12.189c0.055-0.109,0.219-0.199,0.309-0.199h0.182c0.091,0,0.253,0.09,0.308,0.199
			l5.524,12.189c0.109,0.236-0.035,0.472-0.307,0.472h-1.142c-0.218,0-0.345-0.109-0.417-0.272l-1.124-2.48h-5.923
			c-0.362,0.833-0.743,1.647-1.104,2.48c-0.055,0.127-0.2,0.272-0.417,0.272h-1.14C181.141,245.123,180.996,244.888,181.105,244.651
			z M189.311,240.812l-2.229-4.963h-0.091l-2.209,4.963H189.311z"/>
		<path fill="#FFFFFF" d="M195.703,232.588c0-0.181,0.162-0.325,0.344-0.325h0.452l7.862,9.091h0.018v-8.566
			c0-0.181,0.145-0.344,0.345-0.344h1.159c0.182,0,0.344,0.163,0.344,0.344v12.19c0,0.181-0.162,0.325-0.344,0.325h-0.472
			l-7.86-9.345h-0.018v8.82c0,0.181-0.146,0.345-0.345,0.345h-1.142c-0.182,0-0.344-0.164-0.344-0.345V232.588z"/>
		<path fill="#FFFFFF" d="M210.646,232.787c0-0.181,0.162-0.344,0.344-0.344h1.194c0.182,0,0.345,0.163,0.345,0.344v11.991
			c0,0.181-0.163,0.345-0.345,0.345h-1.194c-0.182,0-0.344-0.164-0.344-0.345V232.787z"/>
		<path fill="#FFFFFF" d="M216.948,232.787c0-0.181,0.145-0.344,0.344-0.344h7.245c0.199,0,0.344,0.163,0.344,0.344v1.015
			c0,0.182-0.145,0.344-0.344,0.344h-5.724v3.695h4.836c0.182,0,0.345,0.162,0.345,0.346v1.013c0,0.199-0.163,0.344-0.345,0.344
			h-4.836v3.895h5.724c0.199,0,0.344,0.164,0.344,0.344v0.997c0,0.181-0.145,0.345-0.344,0.345h-7.245
			c-0.199,0-0.344-0.164-0.344-0.345V232.787z"/>
		<path fill="#FFFFFF" d="M227.705,243.293c0.162-0.234,0.307-0.508,0.471-0.743c0.162-0.234,0.416-0.307,0.616-0.145
			c0.107,0.09,1.503,1.251,2.897,1.251c1.25,0,2.046-0.762,2.046-1.685c0-1.088-0.941-1.775-2.734-2.519
			c-1.848-0.778-3.296-1.739-3.296-3.84c0-1.413,1.087-3.351,3.966-3.351c1.813,0,3.17,0.94,3.352,1.067
			c0.145,0.091,0.289,0.345,0.109,0.616c-0.146,0.217-0.31,0.471-0.454,0.688c-0.145,0.236-0.381,0.346-0.633,0.182
			c-0.127-0.072-1.396-0.907-2.446-0.907c-1.521,0-2.047,0.962-2.047,1.631c0,1.032,0.798,1.667,2.301,2.283
			c2.101,0.852,3.895,1.847,3.895,4.058c0,1.883-1.685,3.422-4.039,3.422c-2.211,0-3.604-1.157-3.896-1.431
			C227.65,243.727,227.523,243.602,227.705,243.293z"/>
	</g>
</g>
</svg>
