<svg enable-background="new 0 0 259.5 75.78" viewBox="0 0 259.5 75.78" xmlns="http://www.w3.org/2000/svg"><g fill="#fff"><path d="m80.15 15.37c14.71 8.59 13.08 14.78 12.96 17.52-.12 1.98-2.08 5.16-4.66 6.78 1.61 2.7 4.93 8.18 4.93 8.18s-1.4 2.45-2.49 3.76c-2.19-3.07-4.28-6.8-6.32-10.01v16.06c-1.52.96-2.91 1.89-4.43 2.84v-45.13zm4.62 8.6v12.53l1.37-.66c4.99-3.08 2.04-8.96-1.37-11.87zm-58.93-8.93v45.64c-1.74-.87-2.9-1.7-4.32-2.68v-18.04h-4.67v14.14c-2.02-1.99-3.06-3.45-3.84-4.81v-22.81c.35-.87 2.88-4 3.78-4.78v13.33h4.9v-17.4c1.15-.9 2.64-1.66 4.15-2.59zm40.81-4.76c3.3.85 7.48 2 10.85 3.72v4.84c-2.22-.92-4.3-1.85-6.4-2.56v19.16h6.4v4.46h-6.28v19.59c1.98-.71 4.08-1.64 6.28-2.33v4.58c-3.3 1.57-6.94 2.8-10.85 3.75zm-18.15-1.36c2.94.09 4.47.56 4.47.56 12.2 2.93 11.25 15.56 11.07 17.04-.56 4.38-1.92 7.9-6.05 10.68 8.17 6.19 9.79 24.96-4.52 29.23-2.24.52-4.98.46-4.98.46v-57.97zm4.49 5.3v20.33c10.83-4.85 6.14-17.97 0-20.33zm-.4 26.14v20.69c8.69-1.51 8.65-18.49 0-20.69zm-8.56-31.01v48.75c0 5.03-2.94 6.56-6.75 6.48-4.05-.09-6.95-1.73-6.94-6.41v-45.19c1.32-.64 4.39-1.57 4.39-1.57v46.47c.02 1.28 1.28 2.24 2.58 2.24 1.47 0 2.56-1.08 2.56-1.96v-48.09c1.03-.22 2.18-.45 4.16-.72zm-44.03 28.54c0-20.93 23.62-37.89 52.76-37.89 29.15 0 52.76 16.96 52.76 37.89 0 20.92-23.62 37.89-52.76 37.89s-52.76-16.97-52.76-37.89zm6.54 0c0 18.94 20.69 34.29 46.22 34.29 25.54 0 46.23-15.36 46.23-34.29 0-18.94-20.69-34.29-46.23-34.29-25.53 0-46.22 15.35-46.22 34.29"/><path d="m125.61 18.46h11.99v3.21h-7.46v3.51h7.04v3.22h-7.04v3.85h7.72v3.21h-12.25z"/><path d="m140.69 21.29h4.83l4.81 9.65h.04l-.06-9.65h3.46v14.22h-4.71l-4.97-9.72h-.04l.12 9.72h-3.48z"/><path d="m169.62 35.1c-2.4.61-4.2.65-5.5.65-3.79 0-8.17-1.91-8.17-7.29 0-5.36 3.77-7.41 8.98-7.41.94 0 2.91.1 4.3.63l-.3 3.1c-1.18-.69-2.57-.92-3.46-.92-3.08 0-5.6 1.28-5.6 4.6 0 2.79 1.97 4.48 4.74 4.48.51 0 1-.08 1.34-.24v-2.81h-2.22v-2.69h5.88v7.9"/><path d="m172.51 21.29h3.79v14.22h-3.79z"/><path d="m179.2 21.29h4.82l4.81 9.65h.04l-.06-9.65h3.46v14.22h-4.7l-4.97-9.72h-.05l.13 9.72h-3.48z"/><path d="m194.88 21.29h10.02v2.69h-6.23v2.93h5.89v2.69h-5.89v3.22h6.46v2.69h-10.25z"/><path d="m207.33 21.29h10.02v2.69h-6.23v2.93h5.89v2.69h-5.89v3.22h6.46v2.69h-10.25z"/><path d="m219.78 21.29h6.76c2.52 0 4.58 1.14 4.58 3.58 0 1.9-.89 3.16-2.73 3.58v.04c1.22.33 1.3 1.41 2.02 3.14l1.38 3.87h-3.95l-.82-2.57c-.77-2.44-1.26-3.06-2.67-3.06h-.79v5.62h-3.79v-14.2zm3.79 5.91h1c1.22 0 2.77-.04 2.77-1.65 0-1.33-1.33-1.57-2.77-1.57h-1z"/><path d="m233.36 21.29h10.03v2.69h-6.23v2.93h5.88v2.69h-5.88v3.22h6.45v2.69h-10.25z"/><path d="m245.92 21.29h5.18c4.95 0 8.41 1.55 8.41 7.05 0 5.32-3.56 7.17-8.41 7.17h-5.18zm3.78 11.41h1.47c2.83 0 4.42-1.47 4.42-4.3s-1.65-4.3-4.42-4.3h-1.47z"/><path d="m124.35 40.11h4.62l2.2 13.06h.04l2.29-13.06h5.75l2.39 13.06h.05l2.21-13.06h4.41l-3.8 17h-5.82l-2.41-13.05h-.05l-2.24 13.05h-5.87z"/><path d="m155.78 42.48c4.69 0 7.13 2.79 7.13 7.35 0 4.52-2.48 7.35-7.13 7.35s-7.13-2.83-7.13-7.35c0-4.55 2.44-7.35 7.13-7.35zm0 11.91c2.3 0 3.21-2.2 3.21-4.55 0-2.46-.91-4.54-3.21-4.54s-3.22 2.08-3.22 4.54c0 2.34.92 4.55 3.22 4.55"/><path d="m171.63 42.48c4.69 0 7.13 2.79 7.13 7.35 0 4.52-2.49 7.35-7.13 7.35s-7.13-2.83-7.13-7.35c0-4.55 2.44-7.35 7.13-7.35zm0 11.91c2.3 0 3.22-2.2 3.22-4.55 0-2.46-.92-4.54-3.22-4.54s-3.22 2.08-3.22 4.54c0 2.34.92 4.55 3.22 4.55"/><path d="m180.88 42.73h5.17c4.95 0 8.41 1.55 8.41 7.05 0 5.32-3.56 7.17-8.41 7.17h-5.17zm3.79 11.41h1.47c2.83 0 4.42-1.47 4.42-4.3s-1.65-4.3-4.42-4.3h-1.47z"/><path d="m196.77 53.44c.98.53 2.34.94 3.91.94 1.21 0 2.34-.25 2.34-1.39 0-2.65-6.72-.98-6.72-6.16 0-3.42 3.35-4.36 6.2-4.36 1.37 0 2.71.2 3.67.53l-.24 2.93c-.98-.45-2.08-.65-3.16-.65-.96 0-2.55.08-2.55 1.32 0 2.3 6.72.75 6.72 5.89 0 3.69-3.1 4.69-6.26 4.69-1.32 0-2.97-.2-4.24-.61z"/><path d="m92.7 68.88c0-1.05.84-1.89 1.9-1.89s1.9.84 1.9 1.89-.84 1.89-1.9 1.89-1.9-.84-1.9-1.89m3.51 0c0-.89-.74-1.6-1.61-1.6s-1.61.71-1.61 1.6.74 1.6 1.61 1.6 1.61-.71 1.61-1.6m-.71 1.02h-.35l-.62-.95h-.35v.95h-.29v-2.07h.9c.37 0 .74.1.74.55 0 .41-.29.56-.65.57zm-.97-1.24c.26 0 .71.05.71-.28 0-.21-.28-.25-.5-.25h-.55v.53z"/></g></svg>