<?xml version="1.0" encoding="UTF-8"?> <svg xmlns="http://www.w3.org/2000/svg" xmlns:xlink="http://www.w3.org/1999/xlink" width="145px" height="29px"><path fill-rule="evenodd" fill="rgb(255, 255, 255)" d="M141.421,28.950 C139.450,28.950 137.848,27.330 137.848,25.332 C137.848,23.333 139.450,21.717 141.421,21.717 C143.397,21.717 144.998,23.333 144.998,25.332 C144.998,27.330 143.397,28.950 141.421,28.950 ZM130.376,27.933 C127.395,30.390 125.137,27.617 125.137,27.617 L116.207,16.755 C114.395,14.191 116.312,12.105 116.312,12.105 C117.731,10.593 119.424,10.877 119.424,10.877 L122.643,10.873 C124.310,10.704 124.321,9.130 124.321,9.130 C124.249,7.345 122.603,7.262 122.603,7.262 L113.599,7.262 L113.599,24.974 C113.536,29.135 109.885,28.929 109.885,28.929 C106.040,28.570 106.467,24.847 106.467,24.847 L106.432,3.632 C106.432,3.632 106.504,0.228 109.936,0.028 L122.603,0.028 C126.054,0.028 128.105,1.994 128.105,1.994 C132.653,5.815 131.264,11.039 131.264,11.039 C130.275,15.770 126.001,17.405 126.001,17.405 L130.886,23.343 C132.485,26.254 130.376,27.933 130.376,27.933 ZM100.546,28.949 L79.261,28.932 C76.526,29.151 75.591,27.047 75.591,27.047 C74.747,25.530 75.465,23.842 75.465,23.842 L86.201,2.157 C87.249,-0.075 89.544,0.011 89.544,0.011 C92.016,0.229 92.747,2.157 92.747,2.157 L103.248,23.384 C103.838,24.435 103.788,25.287 103.788,25.287 C103.648,28.704 100.546,28.949 100.546,28.949 ZM89.485,11.738 L84.566,21.705 L94.406,21.705 L89.485,11.738 ZM75.446,7.258 L69.828,7.258 L69.828,25.256 C69.693,28.901 66.379,28.968 66.379,28.968 C62.527,28.716 62.679,25.256 62.679,25.256 L62.698,7.225 L57.129,7.225 C53.631,6.801 53.762,3.637 53.762,3.637 C53.983,0.216 57.129,-0.002 57.129,-0.002 L75.499,0.011 C78.979,0.709 78.812,3.669 78.812,3.669 C78.508,7.175 75.446,7.258 75.446,7.258 ZM53.407,25.660 C50.328,29.468 45.871,28.973 45.871,28.973 L34.081,28.973 C34.051,28.971 34.025,28.967 33.995,28.965 C29.485,28.425 30.564,24.317 30.564,24.317 C31.707,21.339 34.453,21.762 34.453,21.762 L46.528,21.762 C48.512,21.524 48.299,19.688 48.299,19.688 C48.037,18.172 46.560,18.107 46.560,18.107 L39.496,18.107 C31.994,18.125 30.632,11.029 30.632,11.029 C29.674,6.931 32.177,3.672 32.177,3.672 C34.835,0.100 39.038,0.024 39.038,0.024 L44.753,0.024 C48.498,0.560 48.299,3.672 48.299,3.672 C48.101,7.287 44.778,7.287 44.778,7.287 L39.496,7.287 C37.699,7.269 37.581,9.021 37.581,9.021 C37.663,10.995 39.464,10.858 39.464,10.858 L45.871,10.926 C49.960,10.589 52.651,13.359 52.651,13.359 C55.239,16.147 55.306,18.392 55.306,18.392 C56.029,22.984 53.407,25.660 53.407,25.660 ZM25.370,28.945 L4.087,28.929 C1.351,29.151 0.416,27.045 0.416,27.045 C-0.429,25.526 0.291,23.836 0.291,23.836 L11.028,2.154 C12.074,-0.080 14.370,0.008 14.370,0.008 C16.842,0.226 17.574,2.154 17.574,2.154 L28.071,23.378 C28.664,24.429 28.613,25.284 28.613,25.284 C28.473,28.700 25.370,28.945 25.370,28.945 ZM14.317,11.732 L9.397,21.701 L19.237,21.701 L14.317,11.732 Z"></path></svg> 