<?xml version="1.0" encoding="utf-8"?>
<!-- Generator: Adobe Illustrator 24.0.2, SVG Export Plug-In . SVG Version: 6.00 Build 0)  -->
<svg version="1.1" id="Layer_1" xmlns="http://www.w3.org/2000/svg" xmlns:xlink="http://www.w3.org/1999/xlink" x="0px" y="0px"
	 viewBox="0 0 1082.8 308.1" style="enable-background:new 0 0 1082.8 308.1;" xml:space="preserve">
<style type="text/css">
	.st0{fill:#1D1D1B;}
	.st1{fill:#5FB670;}
</style>
<rect x="10.8" y="180.8" class="st0" width="23.9" height="113.9"/>
<polygon class="st0" points="123,180.8 95.8,270.5 68.6,180.8 43.7,180.8 82,294.7 109.7,294.7 148,180.8 "/>
<path class="st0" d="M209.4,178.8c2.8,0,5.8,0.1,8.7,0.4c3,0.3,5.8,0.7,8.6,1.2c2.8,0.5,5.5,1.1,8,1.9c2.6,0.7,4.9,1.6,6.9,2.6
	l-3.4,17.5c-3.6-1.4-7.7-2.5-12.1-3.3c-4.4-0.9-8.8-1.3-13.2-1.3c-13,0-23,3.4-29.8,10.1c-6.9,6.8-10.3,16.7-10.3,29.9
	s3.4,23.1,10.3,29.9c6.9,6.8,16.8,10.1,29.8,10.1c4.3,0,8.7-0.4,13.2-1.3c4.5-0.9,8.5-2,12.1-3.3l3.4,17.5c-2,1-4.4,1.9-6.9,2.6
	c-2.6,0.7-5.3,1.4-8,1.9c-2.8,0.5-5.7,0.9-8.6,1.2c-3,0.3-5.9,0.4-8.7,0.4c-9.8,0-18.5-1.5-26-4.5c-7.5-3-13.9-7.1-19-12.3
	c-5.1-5.2-9-11.5-11.6-18.6c-2.6-7.2-3.9-15.1-3.9-23.6c0-8.6,1.3-16.4,3.9-23.6c2.6-7.2,6.5-13.4,11.6-18.6
	c5.1-5.2,11.5-9.3,19-12.3C190.9,180.3,199.6,178.8,209.4,178.8"/>
<polygon class="st0" points="288.4,180.8 356.9,180.8 356.9,199.8 312.4,199.8 312.4,227.4 354.8,227.4 354.8,246.3 312.4,246.3 
	312.4,275.8 357.4,275.8 357.4,294.7 288.4,294.7 "/>
<polygon class="st0" points="441.7,180.8 466.7,180.8 428.3,294.7 400.6,294.7 362.3,180.8 387.3,180.8 414.5,270.5 "/>
<rect x="475.6" y="180.8" class="st0" width="23.9" height="113.9"/>
<path class="st0" d="M519.9,180.8h34.4c10,0,19.1,1.4,27.3,4.3s15.1,6.8,20.9,11.9c5.8,5.1,10.2,11.1,13.3,18.1
	c3.1,7,4.7,14.5,4.7,22.7c0,8.2-1.6,15.8-4.7,22.8c-3.1,7-7.6,13-13.3,18c-5.8,5.1-12.7,9-20.9,11.9c-8.2,2.8-17.2,4.3-27.3,4.3
	h-34.4V180.8z M554.7,275.8c6.1,0,11.6-0.9,16.8-2.6c5.1-1.7,9.6-4.2,13.3-7.5c3.7-3.3,6.6-7.2,8.6-11.9c2-4.7,3.1-10,3.1-16
	c0-6-1-11.3-3.1-16c-2-4.7-4.9-8.7-8.6-11.9c-3.7-3.3-8.1-5.8-13.3-7.5c-5.1-1.7-10.7-2.6-16.8-2.6h-10.9v76L554.7,275.8
	L554.7,275.8z"/>
<polygon class="st0" points="633.4,180.8 701.9,180.8 701.9,199.8 657.4,199.8 657.4,227.4 699.8,227.4 699.8,246.3 657.4,246.3 
	657.4,275.8 702.4,275.8 702.4,294.7 633.4,294.7 "/>
<polygon class="st0" points="794.9,294.7 741.7,220.2 741.7,294.7 718.8,294.7 718.8,180.8 741.7,180.8 794.9,255.4 794.9,180.8 
	817.8,180.8 817.8,294.7 "/>
<path class="st0" d="M909.8,262.2c0,5-1,9.6-3.1,13.9c-2.1,4.2-4.9,7.9-8.6,11c-3.7,3.1-8.2,5.5-13.4,7.2
	c-5.3,1.7-11.1,2.6-17.5,2.6c-6,0-12.1-0.7-18.2-2c-6.1-1.3-11.7-3.2-16.8-5.7l5-18.3c4.1,1.9,8.7,3.6,13.8,5
	c5.1,1.4,10.3,2.1,15.7,2.1c5.7,0,10.3-1.2,13.9-3.5c3.6-2.3,5.4-5.7,5.4-10.2c0-4.1-1.7-7.5-5.1-10.1c-3.4-2.6-8.7-5.4-15.7-8.2
	c-5-2.1-9.5-4.2-13.4-6.4c-3.9-2.2-7.1-4.7-9.7-7.4c-2.6-2.7-4.7-5.8-6.1-9.2c-1.4-3.4-2.1-7.1-2.1-11.4c0-10.5,3.6-18.6,10.7-24.2
	c7.1-5.6,16.7-8.5,28.7-8.5c6.2,0,11.8,0.6,16.9,1.7c5.1,1.1,10.1,3,14.9,5.5l-4.5,18.3c-4-1.9-8.2-3.5-12.6-4.7
	c-4.4-1.2-8.9-1.8-13.4-1.8c-5,0-9.1,0.9-12.1,2.8c-3.1,1.9-4.6,4.8-4.6,8.8c0,1.8,0.3,3.4,0.8,4.8c0.5,1.4,1.4,2.6,2.8,3.8
	c1.4,1.2,3.2,2.4,5.4,3.6c2.2,1.2,5.1,2.5,8.5,4c4.6,1.9,8.9,4,13.1,6.2c4.2,2.2,7.8,4.7,11,7.5c3.2,2.9,5.8,6.2,7.7,9.9
	C908.9,253,909.8,257.3,909.8,262.2"/>
<rect x="923.9" y="180.8" class="st0" width="24" height="113.9"/>
<path class="st0" d="M1072,294.7h-24.8l-8-23.9h-46.9l-8,23.9h-24.8l43.3-113.9h26L1072,294.7z M1015.7,200l-17.1,51.8h34.2
	L1015.7,200z"/>
<path class="st0" d="M652.5,25.2c0,0,10.2-1.9,16.6,1.1c6.4,3,19.7,7.5,23.4,8.8c3.8,1.3,6.8,1.4,10.8,1.3c3.9-0.1,8.3-1.3,9.5-1.6
	c1.3-1.2,6.1-0.9,5-3.5c1.1,0.2,2.6,0.9,3.6,0.4c-0.4-0.4-0.4-0.8-0.7-1.3c2.4,0.3,3.7,2.2,6.2,0.8c-1.4-0.8-2.8-1.7-4.1-2.7
	c2.4,0.3,4.6,1.3,7,0.5c-0.4-0.9-1.6-1.2-2.3-2c2.1,0.2,5.1,1.5,7,0.4c-1.4-0.4-3-0.8-4.1-1.7c1.7-0.2,3,0.5,4.8-0.1
	c1.8-0.6,3.3-1.1,5.2-0.9c1.9,0.1,3.9,0.4,5.8,0.7c0.9,0.2,2.4,0.2,3.2,0.8c0,0-0.4-1-1.8-1.6c0,0,2.9-0.2,3.9,0.3
	c0,0,4.4-2.5,8.1-0.8c0,0,2.6-3.2,4.3-3.4c1.2-0.3,1.8-0.3,1.8-0.3s-1.6,1.8-2.1,3.1l0.2,0.5c0,0,2.3-1,2.9-1.3
	c0.5-0.3,0.3,0.5-0.5,2c-0.8,1.4-0.3,1.3-1.6,2.9c-1.3,1.6-1.3,2-1.3,2.2c-0.1,0.2,2.1,3.3,3.2,5.3c1.2,2,2.6,6.9,3.6,8.6
	c0.9,1.7,1.9,4.9,2.2,5.8c0.3,0.9-0.7,5.9-1.2,7c-0.5,1.2-0.5,1.3-1.9,2c-1.5,0.8-2.4,0.8-3.1,0.7s-1.5-0.9-2.2-2.1
	c-0.7-1.2-1.2-1.8-1.1-2.5c0,0-1.7-1.2-4.7-4c-3-2.8-5.1-3.8-6.3-4c-1.2-0.2-4.5-0.1-5.8-0.2c0,0-8,8.8-12.6,12.2
	c0,0-0.4,3.6-2.5,7.4c-2.1,3.8-3.7,5.1-4,5.6c-0.3,0.5-1.3,1.6-1.3,1.9c0,0.3,2.1,3.4,3.7,5.6c1.6,2.3,2.1,3.9,2.8,5.4
	c0.7,1.5,0.6,4.9,0.1,7.1c-0.5,2.2-1,4.7-1.1,5.3c-0.1,0.7,0.7,3.7,0.2,5.5c-0.5,1.8-2.2,3.8-2.4,4.2c-0.2,0.3-0.8,0.8-0.8,0.8
	s-2.3,6.3-3.6,7.9c0,0-2.6-3.3-2-5.2c0,0,0.2-1.2,0.4-1.5c0.2-0.3,0.4-1.5,0.4-1.5c0-1.1,0.2-2.1,0.7-2.6c0.5-0.4,0.8-1,1.1-1.5
	c0.3-0.6,1.1-3.7,1.8-5.8c0.7-2.1,0.5-6.2-0.7-8.7c-1.2-2.5-6.1-6.5-7.1-7.4c-0.9-0.9-2.7-3.3-2.7-3.3l-1.4-2.1c0,0-4.1,1.3-8.3,5.2
	c-4.2,3.9-10.9,10.4-11.8,11.5c-0.9,1.1-5.2,5.8-5.8,7.1c-0.6,1.3-1,3.4-1.3,4.4c-0.3,1.1-0.4,2.5-0.4,2.5s2,2.9,1.7,4.6
	c0,0-5.6-0.1-7.7-1.4c0,0,0.4-3,1.4-5c0.9-2,1.2-2,0.2-1.8c-1,0.1-1.5-0.4,0.1-2.8c1.6-2.4,3.3-5.3,5.1-7c1.7-1.8,3.1-3.7,3.3-4
	c0.3-0.3-0.3-1.9,1.3-3.5c1.6-1.6,3-3.4,4.4-5.5c1.5-2.1,1.9-3.2,2.4-4.4c0.5-1.2,0.7-3.2,0.7-3.2s-10.2-0.2-17.9-3.8
	c-7.8-3.6-15.2-9.5-15.2-9.5s-0.8-1.8-1.6-1.1c-0.8,0.7-3.8,6.2-9,9c-5.1,2.8-6.1,2.6-5.9,5c0.2,2.4,1.5,6,3.1,8.2
	c1.6,2.2,3.1,5.7,3.5,6.8c0.4,1.1-0.1,4.9-0.7,7c-0.6,2.1-2.5,5-2.5,5s-4.3-2.5-4-5.5c0,0,0.2-1.5,0.7-2.4c0.5-0.9,0.7-1.5,0.7-1.8
	s-1.1-0.8-1.2-2.8c-0.1-1.9-0.3-3.3-0.4-3.6c0-0.3-1.9-3.2-3.3-6c-1.4-2.8-4.9-6.7-4.9-6.7s-2.2-2.4-0.4-3.7
	c1.8-1.3,4.6-3.4,5.3-3.9c0.7-0.5,1.8-2,1.8-2s-2.6,0.1-5.1,2.3c-2.5,2.2-5.6,4.6-8.3,6.8c-2.6,2.2-4.8,3.4-6.7,6
	c-1.9,2.6-3.3,4.3-3.9,5.6c-0.6,1.3-0.7,0.9-1.3,2.1c-0.7,1.2-2.4,3.4-2.9,4.7c-0.5,1.3,0.7,3.6,0.1,5.9c0,0-5.5-0.8-7.1-2.7
	c0,0,0.2-2.6,1.9-3.8c1.7-1.2,2.2-1.7,2.3-2c0.1-0.4-1.5,0.7-1.3-1.1c0.2-1.8,1.4-3.1,2.9-4.8c1.5-1.7,5.2-6.3,6.3-8.3
	c1.1-2,2.2-5,2.7-5.8c0.5-0.8,0.6-2.3,1.8-2.8c1.2-0.5,4.7-2.7,5.8-3.6c1.1-0.9,4.4-4.1,4.4-4.1s1.3-2.8,1.8-8.4
	c0.5-5.6,1.3-14.4,5.5-18.2c0,0-3.2-5.9-6.7-6c-3.5-0.2-4.3,1.3-6.7,3.9c-2.4,2.6-7.4,5.9-10.7,8.1c-3.4,2.1-5.5,1.4-7.5,2.3
	c-2,0.8-4.4,3.3-5.7,4.1c-1.3,0.8-4,3.1-5,4.3c-1,1.2-1.4,1.6-1.9,2.3c0,0-1.1-1.3,0.1-3.3c0,0-2.8,1.9-3.7,4.2c0,0,0.4-2.9,0.9-4
	c0.5-1-0.7-0.6-0.7-0.6s0.6-1.6,1.3-2.4s2.1-2.5,2.8-2.8c0.6-0.3,1.4-1.5,1.4-1.5s-3.4,0.5-4.7,1.5c-1.4,1-2.8,1.4-3.4,2.3
	c-0.6,0.9-0.5-0.5,1.3-2.3c1.8-1.7,3.6-2.4,4.8-2.8c1.2-0.5,2-0.8,2.4-1.5c0.4-0.7,1-1.9,1.2-2.2c0.1-0.2,0.5-1.8,0.5-1.8
	s-2,1.8-5.1,2.3c-3.1,0.5-6.9-1.1-6.9-1.1s6.3-0.4,8.5-1.9c0,0-4.8,0.5-7.6,0c0,0,2.5-0.6,4.2-1.3c1.7-0.6,4.1-1.4,6.1-2.1
	c2-0.8,3.3-1.6,3.3-1.6s-2.4-1-4.3-0.2c-1.9,0.8-3.3,0.8-4.6,1c0,0,1.8-1,3.6-1.8c1.8-0.8,4.2-0.5,6.6-1c2.4-0.5,4.1-0.9,4.5-1.1
	c0.4-0.2-5.8-2.3-8.7-0.8c-2.9,1.5-4.5,1.4-4.5,1.4s1.4-0.5,3.2-1.8c1.7-1.3,3.9-1.5,5.4-1.7c0,0-5.6-2.6-8.7-2.2
	c-3,0.4-4.2-0.9-4.6-0.9c-0.4,0,3.3-0.9,5.9-0.4c2.5,0.5,9.6,1.9,10.7,2.3c1.1,0.4,2.2,0.3,2.2,0.3s-2.8-0.8-4.4-2.1
	c0,0,4,0.8,6.8,0.8c2.9-0.1,10-3.2,15.3-2.4c5.2,0.8,10.9,3,14.3,6.3C651.8,23.4,652.5,25.2,652.5,25.2"/>
<path class="st0" d="M982,91.5c0.1,0.3,0.5,0.8,1,1c0.9,0.3,2.8,0.6,2.8,0.6s1.2,0.2,1.4-0.5c0.1-0.7,0.9-2.9-1.9-3.5
	c-0.4-0.3-2.4-1.4-2.4-1.4s-7.3-4.6-8.2-5.3c-0.9-0.7-1.8-2.5-2-3.1c-0.1-0.2-0.2-1.3-0.3-1.8c-0.1-0.5,0-0.8,0.1-1.8
	c0.1-1,0.7-1,1.5-1.8c0.8-0.9,1.5-1.5,2.5-1.9c1-0.4,1.3-0.1,2.7-0.5c1.4-0.4,1.4-1.1,1.4-1.1c0.3-0.1,0.5-0.5,1.2-1.2
	c0.6-0.7-0.1-1.5-0.6-2.3c-0.5-0.8-1-2.1-2.3-3.1c-1.3-1-3-1.5-3.5-1.6c-0.5-0.1-1.3-0.4-2.6-0.8c-1.3-0.3-3-2.7-3.4-3
	c-0.4-0.3-0.6,0.2-0.6,0.2c-0.6,1.6,0.5,4.7,0.5,4.7s-4.9,2.9-5.7,3.4c-0.8,0.5-23.5,6.2-24.9,6.3c-1.7,0.2-3.8-0.7-6.1-2.5
	c-2.3-1.8-8.5-10.6-9.7-12.1c-1.2-1.4-0.6-2.6-0.3-4.5c0.3-1.9-0.6-2.5-1.3-2.8c-0.7-0.3-0.9,0.7-0.9,0.7s-4.2,3.7-2.1,8.2
	c2,4.4,11.7,15.6,11.7,15.6s1.2,1.5,1.1,3.2c-0.1,1.7,0.1,7.3,0.6,10.8c0,0-2.5,5.4-3.4,6.2c-0.9,0.8-0.8,1.3-0.7,2.3
	c0.1,1,1.3,12.1,1.3,12.1s0.3,1.1,1.3,1c1-0.2,1.7-1.5,1.8-3.6c0.1-2.1-0.4-5.9-0.4-5.9s0.1-1.1,1-2.1c1-1,6.3-6.4,6.3-6.4l1.4,5.2
	c0,0,0.4,0.7,1.5,2c1,1.3,4.5,4.9,4.5,4.9s0.7,1,1.8,0.9c1.1-0.1,3.2-0.8,3.2-0.8s1.5-0.1,1.2-0.9c-0.2-0.8-0.5-3.8-3.6-3
	c0,0-2.8-2.1-3.2-3c0-0.3,0.2-5,0.5-6.4c0.3-1.4,0.1-2.1,1.2-2.3c1-0.2,2-0.5,2-0.5l9.1-2.6l3.4,13.1c0.6,2.4,2.4,2.2,2.4,2.2
	s1.7-0.4,3.2-0.8c1.5-0.4,1-1.3,1-1.3c-0.1-1.4-1.2-2.5-1.9-2.5c-0.7,0-1.5-0.4-1.5-0.4s-0.3-9.7,0.2-10.9c0.5-1.3,1.9-0.8,1.9-0.8
	S978.2,89.8,982,91.5"/>
<path class="st0" d="M896.3,75.6c-0.2-0.2-1.5-0.9-1.5-0.9l-0.9-0.4c0,0-3.9-2-4.4-2.2c-0.5-0.2-0.5-0.5-0.6-1c-0.1-0.4-0.4-1-0.4-1
	s0.2-0.6-0.6-1.2c-0.8-0.5-2.8-2.2-3.2-2.3c-0.4-0.1-1.1-0.5-1.3-0.6c-0.3-0.1-1.1-0.2-1.6-0.4c-0.5-0.1-1.6-0.4-1.6-0.4
	s-1.2-0.3-1.5-0.3c-0.7-0.1-1.8-1.1-2.7-0.8c-1,0.2-1.5,0.8-2.3,1.1c-0.8,0.4-1.4,0.1-2,0.4c-0.7,0.3-0.2,0.6-1.1,1.1
	c-0.8,0.5-1.5,1.5-1.6,2.7c0,0.6,0,0.8,0,0.8c-0.4,0.3-0.9,0.7-1.3,0.8c-0.9,0.1-3.4,0.9-3.4,0.9c-0.1,0.1-0.2,0.1-0.3,0.2
	c-0.1,0.1-0.2,0.1-0.3,0.1c-0.1,0-0.1,0-0.2,0.1c-0.2,0.1-0.4,0-0.6,0c-0.2,0-0.4,0-0.6,0c-0.5,0-0.9,0-1.4,0c-0.5,0-1,0-1.4,0.1
	c-0.5,0-0.9,0.1-1.3,0.2c-0.4,0.1-0.8,0.2-1.1,0.3c-1.7,0.7-3.5,0-5.2,0.2c-2.1,0.3-4.4,0.8-6.4,1.6c-1.5,0.7-2.8,1.1-2.8,1.1
	s-11.7-0.7-14.3-0.5c-2.6,0.2-12.1,1.3-12.8,1.4c-0.8,0.1-4,0.2-4,0.2c-0.7,0.3-4,0.7-7.8-0.7c-3.7-1.4-4-6.8-7.2-10.5
	c-3.2-3.7-6.9-4.9-9-5.6c-0.8-0.2-1.2-0.5-2-0.7c-0.4-0.1-0.5-0.2-0.7-0.5c-0.2-0.2-0.4-0.7-0.8-0.4c-0.6,0.6,0.8,1.3,1.1,1.7
	c0.4,0.6,0,1.2,0.3,1.7c0.1,0.2,0.7,0.3,0.7,0.6c0,0.4-0.6,0.4-0.7,0.7c-0.2,0.7,1.3,1,1.7,1.4c0.3,0.3,0.1,0.6,0.1,1
	c0,0.5,0.2,0.5,0.5,0.8c0.3,0.4,0.1,0.5,0.2,0.9c0.1,0.4,0.7,0.7,1,1c0.8,0.6,1.7,0.1,1.9,0.5c0.2,0.4-0.6,0.4-0.9,0.5
	c-0.3,0.1-0.9,0.1-0.9,0.6c0,0.5,0.8,0.6,1.2,0.6c-0.2,0.6-0.9,1-0.2,1.5c0.6,0.5,0.8,0.3,0.6,1.2c-0.3,1,0.6,1.1,1.1,1.8
	c0.4,0.6-0.2,0.7,0.2,1.1c0.2,0.2,0.6,0.2,0.8,0.5c0.2,0.3,0.1,0.6,0.2,1c0,0.3,0,0.4,0.3,0.7c0.4,0.4,1,0.3,1.4,0.6
	c0.2,0.2,0.1,0.4,0.2,0.7c0.1,0.2,0.6,0.5,0.8,0.6c0.9,0.6,1.6,0.9,2.6,0.4c0.1,0.3-0.1,1.2,0.2,1.4c0.3,0.3,0.4-0.1,0.8-0.2
	c0.6-0.1,1,1.1,1.5,0.6c0.2,0.3,0.4,0.6,0.8,0.7c0.5,0.1,0.7-0.3,1-0.5c0.6-0.3,1.4,0.1,2,0c0.6,0,1.1-0.2,1.6-0.3
	c0.5-0.1,1.3-0.2,1.7-0.5c0,0,0.9-0.4,1-0.4c0.4,0.5-0.3,1.3-0.3,1.3c-0.6,0.8-1.1,1.6-1.7,2.3c-0.4,0.5-0.8,1-1.2,1.4
	c-0.5,0.6-1.1,1.3-1.5,1.9c-1.2,1.6-1.4,2.9-1.4,2.9c0,0.1,0,0.2-0.1,0.3c0,0.2,0,0.3,0,0.5c0,0.2,0,0.3,0,0.5c0,0.2,0,0.4,0,0.6
	c0,0.1,0,0.3,0,0.3c0,0.2,0,0.5-0.1,0.7c0,0.1-0.1,0.2-0.1,0.3l-0.1,0.1l0,0.1c0,0.1-0.1,0.2-0.1,0.2c0,0-0.1,0-0.1,0
	c-0.1,0-0.1,0-0.1,0c0,0-0.1,0-0.1,0c-0.4,0-0.4,0.4-0.4,0.6v0c0,0.1,0,0.1,0,0.2c0,0,0,0.1,0,0.2c-0.1,0-0.1,0-0.2-0.1
	c0,0,0,0-0.1,0c-0.1,0-0.2-0.1-0.3-0.1c-0.1,0-0.2,0.1-0.3,0.2c-0.2,0.3,0,0.6,0,0.9c0,0,0.1,0.2,0.1,0.3h-0.1l-0.2,0l-0.1,0.2
	c-0.1,0.5,0.3,0.8,0.5,1c0,0,0.1,0,0.1,0c0,0-0.1,0-0.1,0l-0.2,0l-0.1,0.2c-0.1,0.3,0.1,0.5,0.3,0.6c0,0,0,0.1-0.1,0.1
	c0,0.1-0.1,0.2,0,0.4c-0.2,0-0.3-0.1-0.4-0.1l-0.3-0.1l-0.1,0.3c-0.1,0.2-0.1,0.5,0.1,0.6c0.1,0.2,0.3,0.3,0.5,0.3
	c-0.1,0.1-0.1,0.3,0,0.5c0.1,0.1,0.2,0.2,0.2,0.3c0,0,0,0,0,0.1c0,0.3,0.2,0.4,0.3,0.5c-0.1,0.1-0.1,0.1-0.2,0.2c0,0,0,0,0,0.1
	c-0.1,0.1-0.2,0.3-0.2,0.6l0.1,0.2l0.2,0h0.1c0,0.1,0,0.2,0,0.4c0,0.1,0,0.2,0,0.2c0,0.2-0.1,0.2-0.2,0.4c-0.1,0.1-0.2,0.2-0.3,0.3
	c-0.5,0.2-2.9,1.6-3.9,2c-0.2,0.1-0.5,0.2-0.8,0.3c-1.1,0.3-2.6,0.7-3.1,2.7c-0.6,2.5-1.5,4.3-1.8,5.1l-0.2,0.4
	c-0.4,0.8-0.6,1.2-0.6,1.7c0,0.3-0.1,0.8-0.4,1c-0.1,0.1-0.2,0.2-0.3,0.2c-0.3,0.2-0.6,0.4-0.7,1c-0.1,0.2-0.1,0.4-0.1,0.6
	c0,0.4-0.1,0.7-0.3,1c0,0.1-0.1,0.2-0.1,0.2c-0.2,0.4-0.5,0.8-0.4,1.4c0,0.3,0.2,1.1,0.7,1.7c0.2,0.3,0.5,0.7,0.7,1.1l0.2,0.3
	c0,0.1,0.1,0.1,0.1,0.2c0.1,0.4,0.3,0.7,1.1,0.7c0.1,0,0.1,0,0.2,0c1-0.1,1.5-1.7,1.8-2.7c0-0.1,0.1-0.2,0.1-0.3
	c0.2-0.6,0.3-1.2,0.5-1.8c0.2-0.8,0.3-1.5,0.7-2.3c0.3-0.6,2.7-5.9,5.2-7.1c2.4-1.1,3.8-1.3,5.5-1.6l0.2,0c1.9-0.3,5.2-1.5,7.2-2.8
	c2.1-1.4,2.9-2.8,4-5c0.1-0.3,0.3-0.5,0.4-0.8c0.2-0.4,0.3-0.7,0.5-1.1l0.2-0.2c0.7,0.4,1.6,1.4,2.4,3.6c0.9,2.6,0.3,3.3-0.5,5.4
	c-0.8,2.1-1.2,1.9,0.8,4.4c0.7,0.9,1.7,1.9,2.6,2.9c0.6,0.7,1.1,1.4,1.4,1.7c0.6,0.5,1.9,1.4,2.2,1.9c0.4,0.5,1,1.2,1,1.5
	c0,0.3,0.1,1.1,0.7,1.4c0.7,0.3,1.5,0.5,2,0.4c0,0,1.7,0.6,2.6,0.2c0,0,1.6,0.1,1.9-0.2c0.3-0.3,0.5-0.5,0.5-0.8
	c0-0.3-0.3-1.7-1.4-2.2c-1.1-0.5-1.9-0.7-2.5-0.8c-0.6-0.2-1.2-0.5-2.1-1.5c-0.4-0.5-0.9-1.2-1.4-1.8l-0.3-0.3c-0.8-1-2.3-2.4-2-4.4
	c0.6-2.9,1.8-4.2,2.8-6c1-1.8,2.1-3.7,2.3-4.7c0.1-0.6,0.2-1.2,0.4-1.8c0.1-0.4,0.1-1,0.5-1.3c0.2-0.2,0.8-0.2,1-0.2
	c0.2,0,0.3,0.1,0.5,0.1c0.6,0.1,1.2,0.2,1.8,0.3c1.6,0.3,3.2,0.6,4.8,0.9c0.7,0.2,1.4,0.3,2.1,0.6c2.4,0.9,4.3,2.3,6.3,2.1l0.7,0
	c0.2,1.6,0.5,3.7,0.8,4.6c0.4,1.4,0.6,2.1,0.8,2.8c0.2,0.7,0.4,1.4,0.3,1.7s-0.2,0.7-0.2,0.7s-0.5-0.2-0.9,0.5
	c-0.4,0.7-0.9,0.9-0.9,0.9s-1.6,0-2,0.1c-0.4,0.1-1.4,0.6-1.5,1c-0.2,0.5-0.6,0.4-0.9,0.8c-0.3,0.4-1.5,1.8-1.4,2.9
	c0,1.1,0.8,1.8,1.5,1.6c0.6-0.2,1.1-0.5,1.4-0.4c0.4,0,1.7-0.1,2.2-0.8c0.5-0.7,1.2-1.1,1.9-1.4c0.8-0.3,2.6-0.9,3.3-1.1
	c0.7-0.1,3.1-0.7,2.7-3.1c-0.4-2.4-0.4-5.3-0.5-6.5c-0.1-0.9-0.1-3,0.2-4.6l2.8-0.1c0.1,0,0.3-0.1,0.4-0.1c0.2-0.1,0.3-0.1,0.5-0.1
	c0.3-0.1,0.6-0.1,0.9-0.2c0.5-0.1,0.9-0.1,1.4-0.1c0.3,0,0.6,0,0.9,0c0.5,0,1-0.1,1.5-0.2c0,0,0.1,0,0.1-0.1c0.2,0.3,0.4,0.7,0.6,1
	c0.4,0.6,0.6,1.4,1,1.9c0.6,0.6,0.8,1.6,1.5,2.1c0.6,0.4,3.4,1.1,4,1.3c1.3,0.4,2.7,0.9,4,1.5c1.4,0.6,7.6,3,8.5,3
	c0.9,0.1,2.9,0.6,3.4,0.9c0.6,0.3,2.4,2,2.9,2.4c0.5,0.4,1.7,1.6,1.7,1.6s0.4,2.2,2.1,1.9c0,0,0.2,0.6,1.7,0.3
	c0.7-0.2,1.4-0.1,2.1-0.3c0.5-0.1,1.4-0.2,1.5-0.8c0.1-0.5-0.5-1.6-0.8-1.9c-0.4-0.4-1.2-0.4-1.7-0.7c-0.6-0.4-1.2-0.4-1.6-0.9
	c-0.6-0.7-2.2-1.9-2.2-1.9s-2.2-2.6-2.9-3.1c-0.7-0.5-3.8-2.5-5.6-3.1c-1.8-0.6-6.7-3.3-7.7-4.2c-0.2-0.2-0.4-0.4-0.6-0.6l-0.9-1.5
	c-0.4-0.7-1-1.3-1-2.1c0-0.1,0-0.3,0-0.4c0,0-0.3-0.8-0.4-1.2l-0.1,0c0-0.1,0.1-0.3,0.1-0.5c0,0,0,0,0-0.1c0.1-0.2,0.3-0.2,0.4-0.4
	c0.1-0.2-0.1-0.5,0-0.6c0.1-0.1,0.2-0.1,0.3-0.2c0.2-0.3,0.2-0.8,0.4-1.1c0.1-0.1,0.2-0.2,0.3-0.2c0.1,0,0.3,0.1,0.3,0
	c0.1,0,0.1-0.2,0.1-0.3c0.1-0.1,0.2-0.2,0.3-0.3c0.1-0.3,0.1-0.6,0.3-0.9c0.1-0.2,0.2-0.6,0.2-0.8c0.4,0,0.5,0,0.5-0.4
	c0-0.2-0.1-0.6,0.1-0.8c0.1,0,0.2,0,0.2,0.1c0.1-0.2,0.1-0.5,0.2-0.8c0.1,0.1,0.3,0.5,0.5,0.5c0.1-0.2,0.1-0.4,0.1-0.5
	c0-0.2,0.1-0.3,0.2-0.5c0.2-0.4,0.3-0.9,0.3-1.3c0,0.2,0.1,0.4,0.3,0.4c0.1-0.2,0.1-0.3,0.2-0.5c0-0.2,0-0.4,0-0.5c0,0,0.1,0,0.1,0
	c0.3-0.3,0.9-0.5,0.8-0.9c0-0.2-0.1-0.4,0-0.7c0.1-0.1,0.6,0,0.9-0.6c0,0,0,0,0,0c0.1-0.1,0.3-0.3,0.5-0.3c0.3,0,0.5,0.1,0.7,0.1
	c0.2-0.1,0.4-0.2,0.6-0.3c0.4-0.1,0.8,0.1,1.3-0.1c0.2-0.1,0.4-0.2,0.5-0.2c0.3,0,0.6,0.3,0.9,0.4c0.3,0.1,0.7,0.3,1,0.5
	c0.6,0.3,1.2,0.7,1.8,0.9c0.6,0.2,2.6,0.4,3.2,0c0.5-0.4,1-0.9,0.9-1.4c0,0,0.7,0.4,0.8-0.1c0.1-0.5,0.2-1.6-1-2.5
	c-0.4-0.3-0.6-0.5-0.8-0.6c0.3,0,2.8,0.2,3.4-0.3c0.6-0.5,1-1,1-1s0.4,0,0.8-0.4c0.4-0.4,0.3-0.8,0.6-1.2
	C896.4,76.8,896.5,75.8,896.3,75.6"/>
<path class="st1" d="M260.9,11.5C151.7,14.7,68.1,54,15.5,94.5c-3.5,2.7-5,6.3-3.4,8.8c2.3,3.6,9.3,1.9,12.8-0.2
	c47.5-28.2,94.4-42,148.7-50.8c48.1-7.8,96.5-7.8,144.9-3.3C363.3,53,407.5,60.7,451,72c48.4,12.6,96.4,26.5,144.7,39.4
	c58.5,15.5,117.6,27.4,178.3,29.5c49.9,1.7,99.2-3.7,147.9-15c50.3-11.7,93.8-27,139.9-50.1c5.2-2.6,10.7-6.2,9.7-9.7
	c-0.8-3-4.5-3-7-2.1c-8.1,3.3-16,7.1-24.1,10.5c-67.3,28.3-137,46.4-210.1,49.7c-38,1.7-75.7-1.3-113.2-7.9
	c-51.5-9.1-101.5-24-151-40.5c-47.9-16-95.8-32.5-145.1-44C368.7,19.6,310.4,10,260.9,11.5"/>
</svg>
