<svg id="Layer_1" data-name="Layer 1" xmlns="http://www.w3.org/2000/svg" viewBox="0 0 412.32 128.86"><defs><style>.cls-1,.cls-6{fill:#231f20;}.cls-2{fill:#ffde17;}.cls-3{fill:#fff0b2;}.cls-4{fill:#e7c51f;}.cls-5{fill:#0f0708;}.cls-6{font-size:12px;font-family:MyriadPro-Regular, Myriad Pro;}</style></defs><path class="cls-1" d="M92.67,62.82a108,108,0,0,1-14,29.23,108.38,108.38,0,0,1-6.68,8.82,111.93,111.93,0,0,1-11.66,11.88c-2.4,2.11-5,4.18-7.68,6.2L51,120.12l-1.57-1.18q-2.28-1.69-4.39-3.44a107.81,107.81,0,0,1-8.37-7.67,103.11,103.11,0,0,1-26-45.08,105,105,0,0,1-2.84-14c-.26-2-.44-3.76-.56-5.41a68.81,68.81,0,0,1-.11-10.62l.13-1.42,11.15-5.9,1.49-.79,6-3.18,15.06-8L51.39,7.9h0l5.54,2.83L69.26,17l16.2,8.27h0l11.67,5.95h0l.08,1.53C97.26,33.3,97.87,45.84,92.67,62.82Z"/><path class="cls-1" d="M120.16,75.29a.58.58,0,0,1-.65-.66V47.26a.58.58,0,0,1,.65-.65h4.26a.61.61,0,0,1,.66.65V74.63a.61.61,0,0,1-.66.66Z"/><path class="cls-1" d="M129.18,47.26a.58.58,0,0,1,.65-.65h9.83c3.85,0,5.9,2.09,5.9,5.94V69.39c0,3.85-2.05,5.9-5.9,5.9h-9.83c-.45,0-.65-.21-.65-.66Zm9.34,22.62a1.45,1.45,0,0,0,1.63-1.64V53.69A1.47,1.47,0,0,0,138.52,52h-3.77V69.88Z"/><path class="cls-1" d="M166,51.36c0,.41-.16.7-.66.7H155.23v6.31h7.7a.61.61,0,0,1,.66.69v4.06a.61.61,0,0,1-.66.69h-7.7v6.07h10.12c.5,0,.66.2.66.65v4.1c0,.41-.16.66-.66.66H150.28a.6.6,0,0,1-.62-.66V47.26a.6.6,0,0,1,.62-.65h15.07c.5,0,.66.25.66.65Z"/><path class="cls-1" d="M184.65,75.29a.64.64,0,0,1-.66-.58l-1.31-5.16H175l-1.27,5.16a.63.63,0,0,1-.65.58h-4c-.45,0-.65-.25-.53-.7l6.8-27.41a.64.64,0,0,1,.7-.57h5.69a.64.64,0,0,1,.7.57l6.8,27.41c.12.45-.08.7-.57.7Zm-5.82-21.64L176.25,64.8h5.16Z"/><path class="cls-1" d="M198.09,69.88h7.48a.58.58,0,0,1,.66.65v4.1a.58.58,0,0,1-.66.66h-12.4a.58.58,0,0,1-.65-.66V47.26a.6.6,0,0,1,.65-.65h4.27a.58.58,0,0,1,.65.65Z"/><path class="cls-1" d="M244,46.61c.58,0,.86.33.78.86l-3.93,27.08a.81.81,0,0,1-.9.74h-4.43a.85.85,0,0,1-.9-.74l-3.77-16.8L227,74.55a.85.85,0,0,1-.9.74h-4.51a.81.81,0,0,1-.9-.78l-3.76-27c-.09-.53.2-.86.77-.86h3.85a.8.8,0,0,1,.86.78l2,17.12h.21l4-17.2a.86.86,0,0,1,.9-.7H232a.85.85,0,0,1,.9.7l4,17.2h.2l2.09-17.12c.09-.53.33-.78.86-.78Z"/><path class="cls-1" d="M261.26,75.29a.64.64,0,0,1-.66-.58l-1.31-5.16h-7.7l-1.27,5.16a.64.64,0,0,1-.66.58h-4c-.45,0-.66-.25-.53-.7l6.8-27.41a.63.63,0,0,1,.69-.57h5.7a.64.64,0,0,1,.7.57l6.8,27.41c.12.45-.09.7-.58.7Zm-5.82-21.64L252.86,64.8H258Z"/><path class="cls-1" d="M285.1,60.74c0,2.38-.78,4.06-2.29,5l2.13,8.81c.12.49-.12.74-.57.74h-4a.65.65,0,0,1-.7-.58l-2-8.07H274v8a.6.6,0,0,1-.66.66h-4a.6.6,0,0,1-.65-.66V47.26a.6.6,0,0,1,.65-.65h9.83c3.85,0,5.9,2,5.9,5.9Zm-7,.62a1.48,1.48,0,0,0,1.64-1.64V53.53a1.48,1.48,0,0,0-1.64-1.64H274v9.47Z"/><path class="cls-1" d="M305.55,51.36c0,.41-.16.7-.66.7H294.77v6.31h7.71a.61.61,0,0,1,.65.69v4.06a.61.61,0,0,1-.65.69h-7.71v6.07h10.12c.5,0,.66.2.66.65v4.1c0,.41-.16.66-.66.66H289.82a.6.6,0,0,1-.62-.66V47.26a.6.6,0,0,1,.62-.65h15.07c.5,0,.66.25.66.65Z"/><path class="cls-1" d="M320.46,47.26a.61.61,0,0,1,.66-.65h4.22c.49,0,.7.25.7.65V74.63c0,.41-.21.66-.7.66h-4.22a.61.61,0,0,1-.66-.66V63.73h-5.24v10.9a.61.61,0,0,1-.66.66h-4.22c-.49,0-.69-.25-.69-.66V47.26c0-.4.2-.65.69-.65h4.22a.61.61,0,0,1,.66.65V58.32h5.24Z"/><path class="cls-1" d="M330.14,52.51c0-3.85,2-5.9,5.89-5.9h4.59c3.85,0,5.9,2,5.9,5.9V69.39c0,3.85-2,5.9-5.9,5.9H336c-3.85,0-5.89-2.05-5.89-5.9ZM339.72,70a1.45,1.45,0,0,0,1.64-1.64V53.53a1.47,1.47,0,0,0-1.64-1.64H337.1a1.47,1.47,0,0,0-1.64,1.64V68.36A1.45,1.45,0,0,0,337.1,70Z"/><path class="cls-1" d="M366.19,46.61a.82.82,0,0,1,.82.82v22c0,3.85-2.05,5.9-5.9,5.9h-4.59c-3.85,0-5.9-2.05-5.9-5.9v-22a.82.82,0,0,1,.82-.82h3.93a.82.82,0,0,1,.82.82V68.24a1.46,1.46,0,0,0,1.64,1.64H360a1.46,1.46,0,0,0,1.64-1.64V47.43a.82.82,0,0,1,.82-.82Z"/><path class="cls-1" d="M381.35,46.61c3.85,0,5.9,2,5.9,5.9v2.7a.58.58,0,0,1-.65.66h-4.14a.61.61,0,0,1-.66-.66V53.49a1.45,1.45,0,0,0-1.64-1.64h-2.25a1.49,1.49,0,0,0-1.64,1.64V57l9.91,3.2a1.47,1.47,0,0,1,1.07,1.51v7.71c0,3.85-2.05,5.9-5.9,5.9h-4.59c-3.81,0-5.9-2.05-5.9-5.9V66.72a.58.58,0,0,1,.66-.65h4.14c.45,0,.65.2.65.65v1.72A1.47,1.47,0,0,0,378,70.08h2.21a1.45,1.45,0,0,0,1.64-1.64V64.31L372,61.11a1.46,1.46,0,0,1-1.11-1.52V52.51c0-3.85,2.09-5.9,5.9-5.9Z"/><path class="cls-1" d="M407.7,51.36c0,.41-.17.7-.66.7H396.92v6.31h7.7a.61.61,0,0,1,.66.69v4.06a.61.61,0,0,1-.66.69h-7.7v6.07H407c.49,0,.66.2.66.65v4.1a.58.58,0,0,1-.66.66H392a.6.6,0,0,1-.61-.66V47.26a.59.59,0,0,1,.61-.65H407c.49,0,.66.25.66.65Z"/><path class="cls-2" d="M85.47,25.37,79.14,59.9,69.26,17,56.93,10.73,55.19,22.88l-4.93,30.9L41.57,15.93,41,13.41l-15.06,8,.51,2.55,17.81,87.6.81,4q2.11,1.74,4.39,3.44L51,120.12,52.6,119c2.73-2,5.28-4.09,7.68-6.2L60.7,109l5-45.53L71.4,97.6l.54,3.27a108.38,108.38,0,0,0,6.68-8.82c1.26-3.44,2.34-6.82,3.28-10.11C90,53.32,86.56,30.92,85.47,25.37Z"/><path class="cls-2" d="M35.76,103.22,23.45,42.08l-8.59,3.64A103.17,103.17,0,0,0,16.74,73,104.83,104.83,0,0,0,20.4,86.29a103.17,103.17,0,0,0,16.29,21.54Z"/><path class="cls-2" d="M20.44,27.11l-.52-2.55-1.49.79c-.25.79-.59,1.92-.94,3.32a87.47,87.47,0,0,0-2.08,11.17l7-3Z"/><path class="cls-3" d="M16.74,73a103.17,103.17,0,0,1-1.88-27.24l-4.65,2-2.39,1a105,105,0,0,0,2.84,14A103.12,103.12,0,0,0,20.4,86.29,104.83,104.83,0,0,1,16.74,73Z"/><path class="cls-3" d="M7.28,31.25l-.13,1.42a68.81,68.81,0,0,0,.11,10.62l2.43-1,5.72-2.42a87.47,87.47,0,0,1,2.08-11.17c.35-1.4.69-2.53.94-3.32Z"/><path class="cls-4" d="M85.48,25.3h0v0Z"/><path class="cls-4" d="M97.23,32.78l-.08-1.53h0L85.48,25.3v.07c1.09,5.55,4.52,28-3.57,56.57-.94,3.29-2,6.67-3.28,10.11a108,108,0,0,0,14-29.23C97.87,45.84,97.26,33.3,97.23,32.78Z"/><path class="cls-5" d="M104.23,32.4l-.29-5.56L51.33,0,.65,26.82.16,32c0,.58-1.25,14.39,3.74,32.57a110.82,110.82,0,0,0,41.35,60l5.76,4.3,5.76-4.27A116.21,116.21,0,0,0,99.38,64.88C104.93,46.72,104.26,33,104.23,32.4ZM92.67,62.82a108,108,0,0,1-14,29.23,108.38,108.38,0,0,1-6.68,8.82,111.93,111.93,0,0,1-11.66,11.88c-2.4,2.11-5,4.18-7.68,6.2L51,120.12l-1.57-1.18q-2.28-1.69-4.39-3.44a107.81,107.81,0,0,1-8.37-7.67,103.11,103.11,0,0,1-26-45.08,105,105,0,0,1-2.84-14c-.26-2-.44-3.76-.56-5.41a68.81,68.81,0,0,1-.11-10.62l.13-1.42,11.15-5.9,1.49-.79,6-3.18,15.06-8L51.39,7.9h0l5.54,2.83L69.26,17l16.2,8.27h0l11.67,5.95h0l.08,1.53C97.26,33.3,97.87,45.84,92.67,62.82Z"/><path class="cls-1" d="M122.11,83a.32.32,0,0,1,.34.34v16a.32.32,0,0,1-.34.34h-2.17a.3.3,0,0,1-.33-.34v-16a.3.3,0,0,1,.33-.34Z"/><path class="cls-1" d="M144.07,83a.32.32,0,0,1,.34.34v16a.32.32,0,0,1-.34.34H142a.37.37,0,0,1-.38-.28l-3.19-8.91h-.11v8.85a.3.3,0,0,1-.33.34h-2.17a.31.31,0,0,1-.33-.34v-16a.31.31,0,0,1,.33-.34h2.07a.36.36,0,0,1,.37.27l3.17,8.87h.13v-8.8a.3.3,0,0,1,.33-.34Z"/><path class="cls-1" d="M166,83a.32.32,0,0,1,.34.34v16a.32.32,0,0,1-.34.34H164a.37.37,0,0,1-.38-.28l-3.19-8.91h-.11v8.85a.3.3,0,0,1-.33.34h-2.17a.32.32,0,0,1-.34-.34v-16a.32.32,0,0,1,.34-.34h2.06a.37.37,0,0,1,.38.27l3.17,8.87h.13v-8.8a.3.3,0,0,1,.33-.34Z"/><path class="cls-1" d="M179.41,86a2.7,2.7,0,0,1,3-3h2.34a2.69,2.69,0,0,1,3,3V96.66a2.69,2.69,0,0,1-3,3h-2.34a2.7,2.7,0,0,1-3-3Zm4.82,11a.74.74,0,0,0,.84-.83V86.5a.75.75,0,0,0-.84-.84H183a.75.75,0,0,0-.83.84v9.64A.74.74,0,0,0,183,97Z"/><path class="cls-1" d="M209.24,83c.31,0,.44.17.38.46l-3.53,15.86a.44.44,0,0,1-.46.38h-2.09a.44.44,0,0,1-.46-.38l-3.5-15.86c-.06-.29.06-.46.37-.46h2a.44.44,0,0,1,.46.38l2.19,11.18,2.21-11.18a.44.44,0,0,1,.46-.38Z"/><path class="cls-1" d="M227.82,99.67c-.19,0-.29-.11-.34-.3l-.58-3h-3.71l-.57,3a.32.32,0,0,1-.33.3h-2.23c-.23,0-.34-.13-.28-.36l3.47-16a.33.33,0,0,1,.35-.29h2.9a.33.33,0,0,1,.36.29l3.46,16c0,.23,0,.36-.29.36Zm-2.78-13-1.33,7.29h2.67Z"/><path class="cls-1" d="M249.09,83a.3.3,0,0,1,.33.34v2.08a.3.3,0,0,1-.33.34h-2.42v13.6c0,.23-.11.34-.33.34h-2.18a.3.3,0,0,1-.33-.34V85.73h-2.42a.31.31,0,0,1-.33-.34V83.31a.31.31,0,0,1,.33-.34Z"/><path class="cls-1" d="M264.56,83a.31.31,0,0,1,.33.34v16a.31.31,0,0,1-.33.34h-2.17a.31.31,0,0,1-.34-.34v-16a.31.31,0,0,1,.34-.34Z"/><path class="cls-1" d="M277.94,86a2.69,2.69,0,0,1,3-3h2.34a2.7,2.7,0,0,1,3,3V96.66a2.7,2.7,0,0,1-3,3h-2.34a2.69,2.69,0,0,1-3-3Zm4.82,11a.74.74,0,0,0,.83-.83V86.5a.75.75,0,0,0-.83-.84h-1.21a.76.76,0,0,0-.84.84v9.64a.74.74,0,0,0,.84.83Z"/><path class="cls-1" d="M307.91,83a.32.32,0,0,1,.34.34v16a.32.32,0,0,1-.34.34h-2.06a.37.37,0,0,1-.38-.28l-3.19-8.91h-.11v8.85a.3.3,0,0,1-.33.34h-2.17a.32.32,0,0,1-.34-.34v-16a.32.32,0,0,1,.34-.34h2.06a.37.37,0,0,1,.38.27l3.17,8.87h.13v-8.8a.3.3,0,0,1,.33-.34Z"/><path class="cls-1" d="M326.64,83a2.69,2.69,0,0,1,3,3v2.21a.29.29,0,0,1-.33.33h-2.17a.31.31,0,0,1-.34-.33V86.56a.74.74,0,0,0-.83-.83h-1a.76.76,0,0,0-.84.83v2.88l5,1.63a.77.77,0,0,1,.54.77v4.82a2.69,2.69,0,0,1-3,3H324.3a2.71,2.71,0,0,1-3-3V94.47a.3.3,0,0,1,.34-.33h2.17c.23,0,.33.1.33.33v1.61a.75.75,0,0,0,.84.83h1a.74.74,0,0,0,.83-.83V93.3l-4.94-1.63a.74.74,0,0,1-.57-.77V86a2.71,2.71,0,0,1,3-3Z"/><path class="cls-1" d="M361.37,83a.31.31,0,0,1,.33.34v16a.31.31,0,0,1-.33.34H359.2a.3.3,0,0,1-.33-.34v-16a.3.3,0,0,1,.33-.34Z"/><path class="cls-1" d="M383.33,83a.31.31,0,0,1,.33.34v16a.31.31,0,0,1-.33.34h-2.07a.36.36,0,0,1-.37-.28l-3.2-8.91h-.1v8.85a.3.3,0,0,1-.33.34h-2.17a.32.32,0,0,1-.34-.34v-16a.32.32,0,0,1,.34-.34h2.06a.38.38,0,0,1,.38.27l3.17,8.87h.12v-8.8a.31.31,0,0,1,.34-.34Z"/><path class="cls-1" d="M405.08,88.23a.3.3,0,0,1-.33.33h-2.09a.3.3,0,0,1-.34-.33V86.56a.74.74,0,0,0-.83-.83H400.4a.74.74,0,0,0-.83.83v9.52a.74.74,0,0,0,.83.83h1.09a.74.74,0,0,0,.83-.83V94.41a.31.31,0,0,1,.34-.34h2.09a.31.31,0,0,1,.33.34v2.25a2.71,2.71,0,0,1-3,3h-2.33a2.71,2.71,0,0,1-3-3V86a2.71,2.71,0,0,1,3-3h2.33a2.71,2.71,0,0,1,3,3Z"/><text class="cls-6" transform="translate(407.7 91.32)">®</text><text class="cls-6" transform="translate(407.7 91.32)">®</text></svg>