<svg version="1.1" id="Ebene_1" xmlns="http://www.w3.org/2000/svg" x="0" y="0" viewBox="0 0 518.9 82.3" xml:space="preserve"><style>.st0{fill:#52ae32}.st1{fill:#848d91}</style><path class="st0" d="M194.5 79.6h28l25.8-76.2h-27.8z"/><path class="st1" d="M250.6 19.4h39.6l5.5-16H256z"/><path class="st1" d="M230 79.6h40.1l5.5-16h-40.1z"/><path class="st1" d="M240.3 49.5h37.4l5.4-16h-37.4z"/><path class="st0" d="M136.5 3.4h-27.8l-26 76.2h28z"/><path class="st1" d="M143.9 79.6h24.8l-15-39.5 37.5-36.7h-23.6l-37.5 36.5z"/><path class="st0" d="M304.8 79.6h28l25.8-76.2h-27.8z"/><g><path class="st1" d="M351 47.7h8.2c9.6 0 15.6 4 13.4 10.3s-10.1 8-19.7 8h-8.3L340 79.5h20.9c14.3 0 19.2-1.7 25-5.9 3.9-2.9 7.7-7.7 9.5-13.7 2.7-8.9-2.9-17.4-11.9-18.9l.1-.2c9.6-2.4 17.4-6.9 19.2-17.6 1.9-11.4-9.3-19.9-22.4-19.9H366l-4.6 14.2h8.1c8.7 0 13.2 4.1 11.3 9.5-1.7 5.1-8.9 7.2-16.9 7.2h-8.3L351 47.7z"/></g><path class="st0" d="M470.5 3.4h-27.8l-26 76.2h28z"/><g><path class="st1" d="M495.9 7.6c0 3.3 2.6 5.8 5.8 5.8 3.1 0 5.7-2.5 5.7-5.8s-2.6-5.8-5.7-5.8c-3.2.1-5.8 2.6-5.8 5.8m1 0c0-2.8 2-4.9 4.7-4.9 2.6 0 4.7 2.1 4.7 4.9s-2 5-4.7 5-4.7-2.1-4.7-5m2.5 3.5h1v-3h1.1l1.8 2.9h1.1l-1.9-3c1-.1 1.8-.6 1.8-1.8 0-1.3-.7-1.9-2.3-1.9h-2.6v6.8zm1-6h1.4c.7 0 1.5.1 1.5 1 0 1.1-.8 1.1-1.8 1.1h-1.1V5.1z"/></g><path class="st1" d="M471.4 23.7l8.7 26.6h-17.8L456.8 67h28.9l4.3 12.7h25L487 3.4h-8.7z"/><path fill="#fff" stroke="#fff" stroke-miterlimit="10" d="M.5.5h80.1v80.9H.5z"/></svg>