<?xml version="1.0" encoding="utf-8"?>
<!-- Generator: Adobe Illustrator 24.1.2, SVG Export Plug-In . SVG Version: 6.00 Build 0)  -->
<svg version="1.1" id="Vrstva_1" xmlns="http://www.w3.org/2000/svg" xmlns:xlink="http://www.w3.org/1999/xlink" x="0px" y="0px"
	 viewBox="0 0 172.3 71.9" style="enable-background:new 0 0 172.3 71.9;" xml:space="preserve">
<style type="text/css">
	.st0{fill:#BCF7A2;}
	.st1{fill:#FFFFFF;}
</style>
<g>
	<path d="M0,0h13v71H0V12.2L0,0z"/>
	<path d="M23,24.7h13V71H23V24.7z"/>
	<path d="M92.2,24.7L72.6,71H61L44.7,32.4l-3.2-7.6h14.1l11.3,29.6l7.7-20.5l3.4-9.1H92.2z"/>
	<rect x="23.1" y="0.2" width="12.8" height="12.8"/>
	<path d="M142.1,47.7c0-13.8-10.5-22.9-23.4-22.9c-0.2,0-0.4,0-0.6,0l0,0l-22.2,0l3.5,9.1c-2.9,3.8-4.7,8.8-4.7,14.6
		c0,13.9,10.2,23.4,24,23.4c7.9,0,15.9-3.1,20.1-8.8l-7.4-7.4c-2.7,3.2-7.3,5-11.8,5c-6.1,0-10.4-2.9-11.7-8.1h34.1
		C142,50.6,142.1,49,142.1,47.7z M107.8,44.4c1.4-6.1,5.9-8.5,11-8.5c5.7,0,10.2,3.2,10.5,8.5H107.8z"/>
	<polygon points="149.1,24.7 149.1,6.2 162.1,6.2 162.1,24.7 172.3,24.7 172.3,35.4 162.1,35.4 162,71 149.1,71 149.1,34.8 	"/>
</g>
</svg>
