<?xml version="1.0" encoding="utf-8"?>
<!-- Generator: Adobe Illustrator 23.1.1, SVG Export Plug-In . SVG Version: 6.00 Build 0)  -->
<svg version="1.1" id="Layer_1" xmlns="http://www.w3.org/2000/svg" xmlns:xlink="http://www.w3.org/1999/xlink" x="0px" y="0px"
	 viewBox="0 0 205 62.8" style="enable-background:new 0 0 205 62.8;" xml:space="preserve">
<style type="text/css">
	.st0{fill:#FFFFFF;}
</style>
<path class="st0" d="M72.1,17.4v27.9h8.6v-7h17.7c0.8,0,3.4-0.1,5.1-1.9c1-1,1.5-2.4,1.5-3.8v-9.5c0.1-1.4-0.5-2.8-1.5-3.9
	c-1.7-1.7-4.3-1.9-5.1-1.9H72.1z M96.2,29.9c0,0.7-0.6,1.3-1.3,1.3H80.6v-6.1h14.3c0.7,0,1.3,0.6,1.3,1.3L96.2,29.9z"/>
<path class="st0" d="M145.4,45.3v-5.6c0-0.2,0-3.8-2.6-5c2.6-1.1,2.5-4.4,2.5-4.4v-7.1c0-1.4-0.5-2.8-1.5-3.9
	c-1.7-1.7-4.3-1.9-5.1-1.9h-28.1v27.9h8.6v-7.1h16.2c0.3,0,0.7,0.1,0.9,0.4c0.2,0.2,0.4,0.6,0.4,0.9v5.8L145.4,45.3z M136.7,29.6
	c0,0.7-0.6,1.3-1.3,1.3h-16.1v-6.1h16.1c0.3,0,0.7,0.1,0.9,0.4c0.2,0.2,0.4,0.6,0.4,0.9L136.7,29.6z"/>
<path class="st0" d="M173.6,17.4h-9.1l-16.1,27.9h9.5l2.9-5h16.6l2.9,5h9.5L173.6,17.4z M164.8,33.1l4.5-7.8l4.5,7.8H164.8z"/>
<polygon class="st0" points="43,45.3 51.6,45.3 51.6,17.4 43,17.4 43,27 24.4,27 24.4,17.4 15.8,17.4 15.8,45.3 24.4,45.3 
	24.4,34.4 43,34.5 "/>
<rect x="57.9" y="17.4" class="st0" width="8.6" height="27.9"/>
</svg>
