<?xml version="1.0" encoding="utf-8"?>
<!-- Generator: Adobe Illustrator 22.0.0, SVG Export Plug-In . SVG Version: 6.00 Build 0)  -->
<svg version="1.1" id="Layer_1" xmlns="http://www.w3.org/2000/svg" xmlns:xlink="http://www.w3.org/1999/xlink" x="0px" y="0px"
	 viewBox="0 0 373.7 157.1" style="enable-background:new 0 0 373.7 157.1;" xml:space="preserve">
<style type="text/css">
	.st0{fill:#75598F;}
</style>
<g>
	<path class="st0" d="M137.1,82.9h7.3l0.9-22.1l7.4,13.1h4l7-13.2l1,22.2h7.7l-1.6-34h-7.3l-8.7,15.9L146,49h-7.3L137.1,82.9
		L137.1,82.9z M196.5,75.7c-0.5,0.4-1.4,0.9-2.6,1.5c-1.2,0.6-2.7,0.8-4.6,0.8c-1.9,0-3.5-0.5-4.6-1.5c-1.1-1-1.7-2.1-1.7-3.4h17
		v-1.2c0-2-0.3-3.8-0.8-5.5s-1.3-3.1-2.3-4.3c-1-1.2-2.2-2.1-3.7-2.8c-1.5-0.7-3.2-1-5.1-1c-1.9,0-3.7,0.3-5.2,1
		c-1.5,0.7-2.8,1.6-3.9,2.8c-1.1,1.2-1.9,2.5-2.4,4c-0.6,1.5-0.8,3.1-0.8,4.8c0,1.9,0.3,3.6,0.9,5.2c0.6,1.6,1.5,2.9,2.6,4
		c1.1,1.1,2.5,2,4.2,2.6c1.6,0.6,3.5,0.9,5.5,0.9c1.5,0,2.9-0.1,4.1-0.4c1.2-0.3,2.2-0.6,3.1-1c0.9-0.4,1.6-0.8,2.1-1.1
		c0.5-0.4,1-0.7,1.2-0.8L196.5,75.7L196.5,75.7z M183,68.5c0-0.5,0.1-1,0.3-1.6c0.2-0.5,0.5-1,1-1.5c0.4-0.4,1-0.8,1.6-1.1
		c0.6-0.3,1.4-0.4,2.2-0.4c0.8,0,1.6,0.1,2.2,0.4c0.6,0.3,1.1,0.7,1.5,1.1c0.4,0.4,0.7,0.9,0.9,1.5c0.2,0.5,0.3,1,0.3,1.6H183
		L183,68.5z M219.7,82.9h6.8V49h-7.3v10.4c-0.7-0.2-1.3-0.4-2-0.6c-0.6-0.2-1.5-0.2-2.7-0.2c-1.4,0-2.9,0.3-4.4,0.8
		c-1.5,0.5-2.8,1.3-4,2.4c-1.2,1.1-2.2,2.4-3,4c-0.8,1.6-1.1,3.5-1.1,5.6c0,1.9,0.3,3.6,0.8,5.1c0.5,1.5,1.3,2.8,2.2,3.9
		c0.9,1.1,2,1.9,3.3,2.5c1.3,0.6,2.6,0.9,4.1,0.9c1.5,0,2.8-0.3,4-0.9c1.2-0.6,2.1-1.3,2.9-2.2L219.7,82.9L219.7,82.9z M219.3,72.1
		c0,0.7-0.1,1.3-0.3,2c-0.2,0.6-0.5,1.2-0.8,1.7c-0.4,0.5-0.9,0.9-1.5,1.1c-0.6,0.3-1.3,0.4-2.1,0.4c-1.7,0-3-0.6-3.8-1.7
		c-0.8-1.1-1.3-2.5-1.3-4.3c0-2,0.5-3.6,1.6-4.8c1-1.3,2.5-1.9,4.4-1.9c0.9,0,1.6,0.1,2.2,0.2c0.6,0.1,1.1,0.4,1.7,0.7V72.1
		L219.3,72.1z M230.7,55.5h7.8V49h-7.8V55.5L230.7,55.5z M231,82.9h7.3V59.1H231V82.9L231,82.9z M259.7,75c-0.5,0.6-1.2,1.1-2,1.6
		c-0.8,0.5-1.9,0.7-3.2,0.7c-0.9,0-1.7-0.2-2.4-0.6c-0.7-0.4-1.3-0.9-1.8-1.5c-0.5-0.6-0.9-1.3-1.1-2c-0.3-0.8-0.4-1.5-0.4-2.3
		c0-0.8,0.1-1.7,0.4-2.4c0.3-0.8,0.6-1.4,1.1-2c0.5-0.6,1.1-1,1.8-1.4c0.7-0.4,1.5-0.5,2.4-0.5c1.3,0,2.3,0.2,3.1,0.7
		c0.8,0.5,1.4,1,2,1.6l4.4-4.8c-1.1-1.2-2.4-2.1-4-2.9c-1.6-0.7-3.5-1.1-5.7-1.1c-1.9,0-3.6,0.3-5.2,1s-2.9,1.6-4.1,2.7
		c-1.1,1.2-2,2.5-2.7,4c-0.6,1.5-1,3.2-1,5c0,1.9,0.3,3.6,0.9,5.1c0.6,1.6,1.5,2.9,2.6,4c1.1,1.1,2.5,2,4,2.6
		c1.6,0.6,3.3,0.9,5.3,0.9c2.2,0,4.1-0.4,5.7-1.2c1.6-0.8,2.9-1.7,3.9-2.8L259.7,75L259.7,75z M280.8,82.9h6.9V69
		c0-3.3-0.9-5.9-2.6-7.9c-1.7-2-4.4-2.9-8-2.9c-1.4,0-2.7,0.1-3.8,0.3c-1.1,0.2-2.1,0.4-3,0.7c-0.9,0.3-1.6,0.6-2.3,1
		c-0.6,0.4-1.2,0.7-1.7,1.1l3,4.5c0.7-0.5,1.7-1,2.7-1.4c1.1-0.4,2.4-0.6,4-0.6c0.6,0,1.2,0.1,1.7,0.2c0.5,0.1,1,0.3,1.5,0.6
		c0.4,0.3,0.8,0.6,1,1.1s0.4,0.9,0.4,1.6v0.5c-0.3-0.1-0.8-0.1-1.7-0.2c-0.9,0-1.7-0.1-2.6-0.1c-1.6,0-3,0.2-4.4,0.6
		c-1.3,0.4-2.5,0.9-3.5,1.7c-1,0.7-1.8,1.6-2.3,2.7c-0.6,1.1-0.8,2.3-0.8,3.7c0,1.4,0.3,2.6,0.8,3.6c0.5,1,1.2,1.7,2,2.3
		c0.8,0.6,1.7,1,2.6,1.2c0.9,0.2,1.8,0.4,2.7,0.4c1.5,0,2.9-0.3,4.2-0.8c1.2-0.5,2.3-1.2,3.1-2.2L280.8,82.9L280.8,82.9z
		 M280.5,74.3c0,0.7-0.1,1.3-0.4,1.8c-0.3,0.5-0.6,0.9-1,1.3c-0.4,0.3-0.9,0.6-1.5,0.8c-0.6,0.2-1.1,0.3-1.7,0.3c-2.4,0-3.6-1-3.6-3
		c0-1.1,0.4-1.9,1.3-2.4c0.8-0.6,2.3-0.9,4.3-0.9c0.6,0,1.2,0,1.6,0.1c0.5,0.1,0.8,0.1,1,0.1V74.3L280.5,74.3z M291.9,82.9h7.3V49
		h-7.3V82.9L291.9,82.9z"/>
	<path class="st0" d="M136.9,41.1h8l2.6-7.8h12l2.6,7.8h8.4L158,7.2h-8.5L136.9,41.1L136.9,41.1z M149.3,27.4l4.2-12.8l4.1,12.8
		H149.3L149.3,27.4z M172.6,41.1h7.3V29.3c0-1.9,0.5-3.4,1.6-4.4c1.1-1,2.5-1.6,4.2-1.6c1,0,1.9,0.1,2.6,0.4l1.2-6.5
		c-0.4-0.2-0.9-0.3-1.4-0.4c-0.5-0.1-1-0.1-1.7-0.1c-1.7,0-3.1,0.4-4.2,1.1c-1.1,0.7-1.9,1.5-2.5,2.3l-0.3-3h-7V41.1L172.6,41.1z
		 M191.4,41.1h7.3V28.3c0-1.5,0.4-2.8,1.3-3.8c0.9-1,2-1.5,3.4-1.5c1.3,0,2.2,0.4,2.8,1.2c0.6,0.8,0.9,1.9,0.9,3.3v13.6h7.1V28.3
		c0-1.5,0.4-2.8,1.3-3.8c0.8-1,2-1.5,3.4-1.5c1.3,0,2.2,0.4,2.8,1.2c0.6,0.8,0.9,1.9,0.9,3.3v13.6h7.3V26.4c0-3-0.8-5.3-2.4-7.1
		c-1.6-1.7-3.9-2.6-7-2.6c-1.5,0-3,0.3-4.4,0.9c-1.4,0.6-2.6,1.4-3.6,2.4c-0.3-0.4-0.6-0.8-1-1.1c-0.4-0.4-0.9-0.7-1.5-1.1
		c-0.6-0.3-1.2-0.6-2-0.8c-0.7-0.2-1.6-0.3-2.5-0.3c-1.6,0-2.9,0.3-4.1,0.9c-1.2,0.6-2.1,1.4-2.9,2.3l-0.3-2.6h-7V41.1L191.4,41.1z
		 M232.7,38.4c1.2,1.2,2.7,2.1,4.6,2.6c1.9,0.6,3.9,0.9,6.1,0.9c1.3,0,2.6-0.2,3.9-0.5c1.3-0.3,2.4-0.8,3.4-1.4
		c1-0.6,1.8-1.4,2.4-2.4c0.6-0.9,0.9-2.1,0.9-3.4c0-2-0.6-3.5-1.7-4.7c-1.1-1.2-2.9-2.1-5.3-2.8c-1.8-0.5-3.2-0.9-4.3-1.3
		c-1.1-0.4-1.6-1-1.6-1.7c0-0.5,0.3-1,0.8-1.3c0.5-0.3,1.3-0.5,2.4-0.5c1.3,0,2.4,0.2,3.4,0.6c1,0.4,1.9,0.9,2.7,1.4l3.1-4.8
		c-1.3-0.9-2.7-1.6-4.2-2c-1.5-0.5-3.3-0.7-5.3-0.7c-1.4,0-2.8,0.2-4,0.5c-1.2,0.4-2.3,0.9-3.2,1.5c-0.9,0.7-1.6,1.4-2.1,2.3
		c-0.5,0.9-0.8,1.9-0.8,3c0,1.1,0.2,2,0.6,2.9c0.4,0.8,1,1.5,1.7,2.1c0.7,0.6,1.5,1.1,2.4,1.5c0.9,0.4,1.8,0.7,2.7,0.9
		c1.1,0.3,2,0.6,2.8,0.8c0.7,0.2,1.3,0.5,1.7,0.7c0.4,0.2,0.7,0.5,0.8,0.7c0.2,0.3,0.2,0.5,0.2,0.8c0,0.8-0.4,1.3-1.1,1.6
		c-0.7,0.3-1.6,0.4-2.7,0.4c-1.2,0-2.4-0.2-3.7-0.7c-1.3-0.5-2.3-1.1-3.1-1.8L232.7,38.4L232.7,38.4z M259.1,32
		c0,1.5,0.2,2.9,0.5,4.1c0.3,1.2,0.8,2.3,1.5,3.1c0.7,0.9,1.6,1.5,2.8,2c1.2,0.5,2.6,0.7,4.3,0.7c2.7,0,5.2-0.9,7.5-2.8l-3-4.5
		c-0.5,0.3-1,0.6-1.5,0.9c-0.5,0.3-1.2,0.4-1.9,0.4c-1,0-1.7-0.3-2.2-0.9c-0.5-0.6-0.7-1.5-0.7-2.7V23h6.2v-5.8h-6.2V9.4h-7.3v7.8
		h-3.8V23h3.8V32L259.1,32z M277.6,41.1h7.3V29.3c0-1.9,0.5-3.4,1.6-4.4c1.1-1,2.5-1.6,4.2-1.6c1,0,1.9,0.1,2.6,0.4l1.2-6.5
		c-0.4-0.2-0.9-0.3-1.4-0.4c-0.5-0.1-1-0.1-1.7-0.1c-1.7,0-3.1,0.4-4.2,1.1c-1.1,0.7-1.9,1.5-2.5,2.3l-0.3-3h-7V41.1L277.6,41.1z
		 M305.3,35c-0.7-0.4-1.3-0.8-1.8-1.5c-0.5-0.6-0.8-1.3-1.1-2.1c-0.3-0.8-0.4-1.6-0.4-2.4s0.1-1.6,0.4-2.4c0.3-0.8,0.6-1.4,1.1-2
		c0.5-0.6,1.1-1.1,1.8-1.4c0.7-0.4,1.6-0.5,2.5-0.5c0.9,0,1.7,0.2,2.4,0.5c0.7,0.4,1.3,0.8,1.8,1.4c0.5,0.6,0.9,1.3,1.1,2
		c0.2,0.8,0.4,1.6,0.4,2.4s-0.1,1.6-0.4,2.4c-0.2,0.8-0.6,1.5-1.1,2.1c-0.5,0.6-1.1,1.1-1.8,1.5c-0.7,0.4-1.5,0.5-2.4,0.5
		C306.8,35.6,306,35.4,305.3,35L305.3,35z M295.9,34.1c0.6,1.5,1.5,2.9,2.6,4.1c1.1,1.2,2.5,2.1,4,2.8c1.6,0.7,3.3,1,5.2,1
		c1.9,0,3.6-0.3,5.2-1c1.6-0.7,2.9-1.6,4-2.8c1.1-1.2,2-2.5,2.6-4.1c0.6-1.5,0.9-3.2,0.9-5c0-1.8-0.3-3.4-0.9-5
		c-0.6-1.5-1.5-2.9-2.6-4c-1.1-1.2-2.5-2.1-4-2.7c-1.6-0.7-3.3-1-5.2-1c-1.9,0-3.6,0.3-5.2,1c-1.6,0.7-2.9,1.6-4,2.7
		c-1.1,1.2-2,2.5-2.6,4c-0.6,1.5-0.9,3.2-0.9,5C294.9,30.9,295.2,32.6,295.9,34.1L295.9,34.1z M323.7,41.1h7.3V28.3
		c0-0.7,0.1-1.4,0.3-2c0.2-0.6,0.5-1.2,0.9-1.7c0.4-0.5,0.9-0.9,1.5-1.1c0.6-0.3,1.3-0.4,2.1-0.4c1.2,0,2.1,0.4,2.8,1.2
		c0.7,0.8,1,1.8,1,3.2v13.8h7.3V26.4c0-3.2-0.8-5.6-2.4-7.2c-1.6-1.6-3.8-2.4-6.5-2.4c-1.4,0-2.7,0.3-4,0.9
		c-1.3,0.6-2.3,1.3-3.1,2.3l-0.2-2.6h-7V41.1L323.7,41.1z M351.6,49.4c1.3,0.9,2.8,1.5,4.4,1.9c1.6,0.4,3.5,0.6,5.6,0.6
		c3.8,0,6.7-0.9,8.9-2.8c2.2-1.9,3.3-4.8,3.3-8.7V18.5c-1.4-0.5-3-0.9-4.8-1.3c-1.8-0.3-3.7-0.5-5.6-0.5c-2.1,0-3.9,0.3-5.6,0.9
		c-1.7,0.6-3.1,1.5-4.3,2.6c-1.2,1.1-2.1,2.5-2.8,4.1c-0.7,1.6-1,3.3-1,5.3c0,1.7,0.2,3.2,0.7,4.6c0.5,1.4,1.2,2.6,2.1,3.6
		c0.9,1,2,1.8,3.4,2.4c1.3,0.6,2.9,0.8,4.6,0.8c2.5,0,4.6-0.7,6.1-2v1.7c0,1.8-0.5,3.1-1.4,4c-1,0.9-2.3,1.3-3.9,1.3
		c-1.3,0-2.5-0.2-3.5-0.5c-1.1-0.3-2.1-0.8-3-1.3L351.6,49.4L351.6,49.4z M366.5,30.5c0,1.6-0.4,2.7-1.2,3.4c-0.8,0.7-2,1.1-3.5,1.1
		c-1.6,0-2.8-0.5-3.6-1.5c-0.8-1-1.2-2.4-1.2-4.1c0-0.9,0.1-1.7,0.4-2.5c0.3-0.8,0.6-1.5,1.2-2.1c0.5-0.6,1.2-1.1,2-1.4
		c0.8-0.4,1.7-0.5,2.8-0.5c0.8,0,1.4,0,1.9,0.1c0.5,0.1,1,0.2,1.4,0.4V30.5L366.5,30.5z"/>
	<path class="st0" d="M152.5,157.1L76.3,0L0,157.1h26l18.1-37.7l32.2,14.3l32.2-14.3l18.1,37.7H152.5L152.5,157.1z M76.3,51.1
		l23.5,50.3l-23.5,10.8l-23.5-10.8L76.3,51.1L76.3,51.1z"/>
</g>
</svg>
