<?xml version="1.0" encoding="UTF-8"?>
<svg enable-background="new 0 0 622.335 143.844" version="1.1" viewBox="0 0 622.335 143.844" xml:space="preserve" xmlns="http://www.w3.org/2000/svg">
<style type="text/css">
	.st0{fill:#BFBFBF;}
	.st1{fill:#009A66;}
	.st2{fill:#006838;}
	.st3{fill:#004427;}
	.st4{fill:#808080;}
	.st5{fill:#404040;}
	.st6{fill:#262626;}
	.st7{fill:#FFFFFF;}
	.st8{fill:#939598;}
	.st9{fill:#231F20;}
</style>
		<path d="m167.53 40.629c3.595 0 6.454 1.215 8.58 3.645 2.125 2.428 3.188 5.684 3.188 9.762 0 4.264-1.105 7.549-3.323 9.863-2.219 2.316-5.402 3.473-9.544 3.473h-19.633v15.535h-6.6v-42.278h27.332zm-0.988 19.318c3.995 0 5.992-1.922 5.992-5.771 0-4.08-2.126-6.119-6.379-6.119h-19.356v11.891h19.743z"/>
		<path d="m298.36 82.906h-32.721v-42.277h6.6v34.855h26.122v7.422z"/>
		<path d="m358.74 40.629l-19.242 25.641v16.637h-6.601v-16.637l-19.137-25.641h8.046l14.47 19.285 14.478-19.285h7.986z"/>
		<path d="m413.68 48.057h-28.542v9.141h19.854v7.424h-19.854v18.285h-6.6v-42.278h35.142v7.428z"/>
		<path d="m540.1 82.906h-7.561l-8.852-15.535h-16.801v15.535h-6.601v-42.277h27.332c3.593 0 6.452 1.215 8.577 3.645 2.13 2.428 3.193 5.684 3.193 9.762 0 7.014-2.805 11.299-8.414 12.854l9.127 16.016zm-13.473-22.959c3.998 0 5.997-1.922 5.997-5.771 0-4.08-2.126-6.119-6.381-6.119h-19.356v11.891h19.74z"/>
		<path d="m610.66 82.906h-6.6l-0.165-34.783-16.99 28.803-16.941-29.076-0.164 0.273v34.783h-6.6v-42.277h9.906l13.794 23.912 13.832-23.912h9.928v42.277z"/>
		<path d="m220.52 39.424c-12.242 0-22.161 9.922-22.161 22.164s9.919 22.166 22.161 22.166 22.17-9.924 22.17-22.166-9.928-22.164-22.17-22.164zm0 37.65c-8.548 0-15.48-6.928-15.48-15.486 0-8.551 6.933-15.48 15.48-15.48 8.557 0 15.489 6.93 15.489 15.48 0 8.558-6.933 15.486-15.489 15.486z"/>
		<path d="m455.15 39.424c-12.242 0-22.161 9.922-22.161 22.164s9.919 22.166 22.161 22.166 22.17-9.924 22.17-22.166-9.927-22.164-22.17-22.164zm0 37.65c-8.548 0-15.477-6.928-15.477-15.486 0-8.551 6.929-15.48 15.477-15.48 8.553 0 15.485 6.93 15.485 15.48 1e-3 8.558-6.932 15.486-15.485 15.486z"/>
	<path class="st0" d="m61.82 31.934c5.086-2.947 10.974-4.66 17.273-4.66 5.067 0 9.862 1.117 14.197 3.074-5.418-11.989-17.456-20.348-31.47-20.348-14.013 0-26.051 8.359-31.47 20.348 4.335-1.957 9.13-3.074 14.197-3.074 6.301 0 12.188 1.712 17.273 4.66z"/>
	<path d="m61.875 91.674c-5.083 2.94-11.034 4.693-17.327 4.693-5.067 0-9.862-1.117-14.197-3.074 5.419 11.99 17.457 20.348 31.47 20.348 14.014 0 26.052-8.357 31.471-20.348-4.335 1.957-9.13 3.074-14.197 3.074-6.278 0-12.147-1.767-17.22-4.693z"/>
	<path class="st1" d="m31.934 61.82c-2.945-5.086-4.66-10.973-4.66-17.273 0-5.064 1.118-9.863 3.077-14.199-11.991 5.42-20.351 17.455-20.351 31.472 0 14.018 8.36 26.055 20.351 31.473-1.959-4.334-3.077-9.135-3.077-14.199 0-6.301 1.714-12.188 4.66-17.274z"/>
	<path class="st2" d="m31.934 61.82c3.606-6.225 9.09-11.213 15.691-14.195 2.981-6.604 7.971-12.086 14.196-15.691-5.085-2.947-10.973-4.66-17.272-4.66-5.067 0-9.862 1.117-14.197 3.074-1.959 4.336-3.077 9.135-3.077 14.199-1e-3 6.301 1.713 12.187 4.659 17.273z"/>
	<path class="st2" d="m61.875 91.674c-2.792-1.521-5.971-4.012-8.266-6.586-2.714-3.044-4.493-5.766-5.985-9.072-6.601-2.982-12.085-7.971-15.691-14.195-2.945 5.086-4.66 10.973-4.66 17.274 0 5.064 1.118 9.865 3.077 14.199 4.335 1.957 9.13 3.074 14.197 3.074 6.294-1e-3 12.245-1.755 17.328-4.694z"/>
	<path class="st3" d="m47.624 47.625c-6.601 2.982-12.085 7.971-15.691 14.195 3.606 6.225 9.09 11.213 15.691 14.195-1.959-4.332-3.076-9.131-3.076-14.195s1.117-9.863 3.076-14.195z"/>
	<path class="st4" d="m113.64 61.82c0-14.018-8.36-26.053-20.35-31.473 1.959 4.336 3.077 9.135 3.077 14.199 0 6.301-1.715 12.188-4.661 17.273 2.946 5.086 4.661 10.973 4.661 17.274 0 5.064-1.118 9.865-3.077 14.199 11.989-5.417 20.35-17.454 20.35-31.472z"/>
	<path class="st5" d="m61.82 31.934c6.226 3.606 11.216 9.088 14.197 15.691 6.6 2.982 12.085 7.971 15.689 14.195 2.946-5.086 4.661-10.973 4.661-17.273 0-5.064-1.118-9.863-3.077-14.199-4.335-1.957-9.13-3.074-14.197-3.074-6.299 0-12.187 1.712-17.273 4.66z"/>
	<path class="st5" d="m61.875 91.674c5.073 2.926 10.942 4.693 17.219 4.693 5.067 0 9.862-1.117 14.197-3.074 1.959-4.334 3.077-9.135 3.077-14.199 0-6.301-1.715-12.188-4.661-17.274-3.589 6.195-9.039 11.166-15.597 14.154-0.015 0.027-0.023 0.066-0.037 0.096-0.032 0.012-0.066 0.025-0.098 0.037-2.979 6.541-7.928 11.977-14.1 15.567"/>
	<path class="st6" d="m76.018 47.625c1.451 2.997 3.132 8.705 3.132 14.25 0 5.027-1.105 9.793-3.039 14.1 6.558-2.988 12.008-7.959 15.597-14.154-3.605-6.225-9.091-11.214-15.69-14.196z"/>
	<path class="st3" d="m76.018 47.625c-2.981-6.604-7.971-12.086-14.197-15.691-6.226 3.606-11.215 9.088-14.196 15.691 4.335-1.961 9.13-3.078 14.196-3.078 5.067 0 9.862 1.117 14.197 3.078z"/>
	<path class="st3" d="m61.838 79.148l0.037 12.525c6.172-3.59 11.121-9.025 14.101-15.566-4.313 1.936-9.109 3.041-14.138 3.041z"/>
		<path class="st7" d="m76.11 75.975c1.934-4.307 3.039-9.072 3.039-14.1 0-5.545-1.681-11.253-3.132-14.25-4.335-1.961-9.13-3.078-14.197-3.078-5.066 0-9.861 1.117-14.196 3.078-1.959 4.332-3.076 9.131-3.076 14.195 0 5.065 1.117 9.863 3.076 14.195 1.492 3.307 3.271 6.028 5.985 9.072 2.294 2.573 5.474 5.065 8.266 6.586l-0.037-12.525c5.029 0 9.825-1.105 14.138-3.041l0.098-0.037 0.036-0.095z"/>
			<path class="st1" d="m200.48 115.95h1.655v2.222c0.576-0.819 1.167-1.418 1.774-1.797 0.836-0.504 1.716-0.756 2.639-0.756 0.623 0 1.214 0.122 1.774 0.366s1.018 0.569 1.373 0.975 0.663 0.987 0.923 1.743c0.55-1.008 1.238-1.774 2.063-2.298 0.826-0.525 1.714-0.786 2.665-0.786 0.888 0 1.672 0.225 2.352 0.674s1.185 1.075 1.515 1.879 0.495 2.009 0.495 3.616v7.02h-1.69v-7.02c0-1.379-0.098-2.326-0.294-2.843-0.196-0.516-0.532-0.932-1.007-1.246-0.475-0.315-1.042-0.473-1.702-0.473-0.801 0-1.533 0.236-2.197 0.709s-1.148 1.103-1.455 1.891c-0.306 0.788-0.459 2.104-0.459 3.947v5.034h-1.654v-6.582c0-1.553-0.097-2.606-0.29-3.162-0.193-0.555-0.53-1-1.01-1.335-0.481-0.335-1.052-0.502-1.714-0.502-0.764 0-1.479 0.23-2.145 0.691s-1.158 1.081-1.477 1.861c-0.319 0.779-0.479 1.973-0.479 3.58v5.448h-1.655v-12.856z"/>
			<path class="st1" d="m238.69 115.95v12.857h-1.631v-2.21c-0.693 0.843-1.471 1.478-2.334 1.902-0.862 0.426-1.806 0.639-2.83 0.639-1.82 0-3.374-0.66-4.662-1.979s-1.932-2.925-1.932-4.815c0-1.852 0.65-3.436 1.95-4.751 1.3-1.316 2.864-1.974 4.692-1.974 1.056 0 2.011 0.225 2.866 0.674 0.854 0.449 1.605 1.122 2.251 2.021v-2.363h1.63zm-6.612 1.265c-0.921 0-1.771 0.226-2.55 0.679-0.779 0.452-1.399 1.088-1.859 1.906s-0.691 1.684-0.691 2.597c0 0.905 0.232 1.771 0.697 2.597 0.464 0.826 1.088 1.47 1.871 1.931 0.783 0.46 1.623 0.69 2.521 0.69 0.905 0 1.763-0.229 2.573-0.685 0.81-0.457 1.434-1.074 1.871-1.854 0.437-0.779 0.655-1.656 0.655-2.633 0-1.486-0.49-2.73-1.47-3.729-0.98-1-2.186-1.499-3.618-1.499z"/>
			<path class="st1" d="m245.08 110.99h1.655v10.152l5.961-5.188h2.43l-7.067 6.133 7.481 6.725h-2.329l-6.476-5.789v5.789h-1.655v-17.822z"/>
			<path class="st1" d="m260.5 110.66c0.377 0 0.698 0.135 0.965 0.402s0.4 0.591 0.4 0.969c0 0.37-0.134 0.689-0.4 0.957-0.267 0.269-0.588 0.402-0.965 0.402-0.369 0-0.686-0.134-0.953-0.402s-0.4-0.587-0.4-0.957c0-0.378 0.133-0.701 0.4-0.969s0.584-0.402 0.953-0.402zm-0.821 5.295h1.655v12.857h-1.655v-12.857z"/>
			<path class="st1" d="m267.46 115.95h1.654v2.304c0.662-0.882 1.395-1.542 2.198-1.979 0.803-0.438 1.678-0.656 2.624-0.656 0.961 0 1.814 0.244 2.559 0.732 0.744 0.488 1.294 1.146 1.648 1.974 0.354 0.827 0.532 2.115 0.532 3.864v6.618h-1.654v-6.134c0-1.48-0.061-2.47-0.184-2.966-0.192-0.851-0.56-1.491-1.103-1.921-0.543-0.429-1.253-0.644-2.127-0.644-1.001 0-1.897 0.331-2.689 0.992-0.792 0.662-1.314 1.481-1.566 2.459-0.158 0.638-0.236 1.804-0.236 3.498v4.715h-1.654v-12.856z"/>
			<path class="st1" d="m296 115.95h1.654v10.246c0 1.804-0.158 3.123-0.473 3.959-0.434 1.182-1.186 2.091-2.257 2.729s-2.359 0.957-3.864 0.957c-1.103 0-2.094-0.156-2.972-0.468-0.879-0.312-1.594-0.731-2.145-1.257-0.551-0.525-1.06-1.294-1.524-2.305h1.796c0.489 0.851 1.12 1.48 1.893 1.891 0.773 0.409 1.731 0.614 2.875 0.614 1.128 0 2.081-0.21 2.857-0.63 0.777-0.42 1.332-0.948 1.663-1.584 0.332-0.637 0.497-1.663 0.497-3.08v-0.662c-0.623 0.788-1.384 1.393-2.283 1.814s-1.853 0.632-2.863 0.632c-1.183 0-2.295-0.293-3.336-0.881-1.041-0.586-1.846-1.376-2.413-2.369-0.567-0.992-0.852-2.084-0.852-3.273s0.296-2.299 0.887-3.326c0.592-1.028 1.41-1.842 2.455-2.44 1.045-0.599 2.148-0.898 3.307-0.898 0.962 0 1.859 0.199 2.691 0.597s1.634 1.054 2.407 1.968v-2.234zm-4.881 1.265c-0.938 0-1.808 0.227-2.612 0.679-0.804 0.453-1.434 1.08-1.891 1.88-0.457 0.799-0.686 1.664-0.686 2.594 0 1.41 0.473 2.576 1.418 3.498 0.946 0.922 2.17 1.383 3.675 1.383 1.521 0 2.744-0.457 3.669-1.371 0.926-0.914 1.389-2.115 1.389-3.604 0-0.969-0.212-1.834-0.638-2.594-0.425-0.761-1.028-1.361-1.808-1.803-0.779-0.441-1.618-0.662-2.516-0.662z"/>
			<path class="st1" d="m326.08 115.95v12.857h-1.631v-2.21c-0.693 0.843-1.471 1.478-2.334 1.902-0.862 0.426-1.806 0.639-2.83 0.639-1.82 0-3.374-0.66-4.662-1.979s-1.932-2.925-1.932-4.815c0-1.852 0.65-3.436 1.95-4.751 1.3-1.316 2.864-1.974 4.692-1.974 1.056 0 2.011 0.225 2.866 0.674s1.605 1.122 2.251 2.021v-2.363h1.63zm-6.612 1.265c-0.921 0-1.771 0.226-2.55 0.679-0.779 0.452-1.399 1.088-1.859 1.906s-0.69 1.684-0.69 2.597c0 0.905 0.233 1.771 0.697 2.597s1.088 1.47 1.871 1.931c0.783 0.46 1.623 0.69 2.52 0.69 0.905 0 1.763-0.229 2.573-0.685 0.811-0.457 1.434-1.074 1.871-1.854 0.437-0.779 0.655-1.656 0.655-2.633 0-1.486-0.49-2.73-1.47-3.729-0.98-1-2.186-1.499-3.618-1.499z"/>
			<path class="st1" d="m341.86 115.95h1.655v2.222c0.576-0.819 1.167-1.418 1.774-1.797 0.837-0.504 1.716-0.756 2.639-0.756 0.623 0 1.214 0.122 1.774 0.366s1.018 0.569 1.373 0.975 0.663 0.987 0.923 1.743c0.55-1.008 1.238-1.774 2.063-2.298 0.826-0.525 1.714-0.786 2.665-0.786 0.888 0 1.672 0.225 2.352 0.674s1.185 1.075 1.515 1.879 0.495 2.009 0.495 3.616v7.02h-1.69v-7.02c0-1.379-0.098-2.326-0.294-2.843-0.196-0.516-0.532-0.932-1.007-1.246-0.475-0.315-1.043-0.473-1.702-0.473-0.801 0-1.533 0.236-2.197 0.709-0.663 0.473-1.148 1.103-1.455 1.891-0.306 0.788-0.459 2.104-0.459 3.947v5.034h-1.654v-6.582c0-1.553-0.097-2.606-0.29-3.162-0.193-0.555-0.53-1-1.01-1.335-0.481-0.335-1.052-0.502-1.714-0.502-0.764 0-1.479 0.23-2.145 0.691-0.665 0.461-1.158 1.081-1.477 1.861-0.319 0.779-0.478 1.973-0.478 3.58v5.448h-1.655v-12.856z"/>
			<path class="st1" d="m380.07 115.95v12.857h-1.631v-2.21c-0.693 0.843-1.471 1.478-2.334 1.902-0.862 0.426-1.806 0.639-2.83 0.639-1.82 0-3.374-0.66-4.662-1.979s-1.932-2.925-1.932-4.815c0-1.852 0.65-3.436 1.95-4.751 1.3-1.316 2.864-1.974 4.692-1.974 1.056 0 2.011 0.225 2.866 0.674 0.854 0.449 1.605 1.122 2.251 2.021v-2.363h1.63zm-6.612 1.265c-0.921 0-1.77 0.226-2.55 0.679-0.779 0.452-1.399 1.088-1.859 1.906s-0.69 1.684-0.69 2.597c0 0.905 0.232 1.771 0.697 2.597 0.464 0.826 1.088 1.47 1.871 1.931 0.783 0.46 1.623 0.69 2.521 0.69 0.905 0 1.763-0.229 2.573-0.685 0.81-0.457 1.434-1.074 1.871-1.854 0.437-0.779 0.655-1.656 0.655-2.633 0-1.486-0.49-2.73-1.47-3.729-0.98-1-2.186-1.499-3.619-1.499z"/>
			<path class="st1" d="m387.92 111.18h1.655v4.774h2.624v1.43h-2.624v11.428h-1.655v-11.428h-2.257v-1.43h2.257v-4.774z"/>
			<path class="st1" d="m408.2 124.54l1.395 0.733c-0.458 0.897-0.985 1.623-1.585 2.174-0.6 0.552-1.273 0.972-2.022 1.259-0.75 0.288-1.597 0.432-2.544 0.432-2.098 0-3.738-0.688-4.92-2.062-1.183-1.375-1.774-2.929-1.774-4.662 0-1.631 0.5-3.084 1.502-4.36 1.27-1.623 2.969-2.435 5.098-2.435 2.192 0 3.943 0.831 5.252 2.493 0.93 1.174 1.403 2.64 1.419 4.396h-11.57c0.031 1.493 0.509 2.718 1.432 3.673s2.063 1.433 3.419 1.433c0.655 0 1.292-0.114 1.911-0.342s1.146-0.529 1.579-0.906c0.434-0.378 0.903-0.986 1.408-1.826zm0-3.462c-0.221-0.883-0.542-1.588-0.964-2.115-0.422-0.528-0.98-0.953-1.674-1.276s-1.424-0.485-2.189-0.485c-1.262 0-2.347 0.406-3.254 1.218-0.663 0.591-1.164 1.478-1.502 2.659h9.583z"/>
			<path class="st1" d="m415.16 115.95h1.69v1.879c0.504-0.74 1.036-1.294 1.595-1.66 0.56-0.367 1.142-0.55 1.749-0.55 0.457 0 0.945 0.146 1.465 0.438l-0.862 1.395c-0.347-0.15-0.638-0.225-0.874-0.225-0.552 0-1.084 0.227-1.596 0.68s-0.902 1.156-1.17 2.109c-0.205 0.732-0.307 2.214-0.307 4.443v4.349h-1.69v-12.858z"/>
			<path class="st1" d="m426.33 110.66c0.377 0 0.698 0.135 0.965 0.402s0.4 0.591 0.4 0.969c0 0.37-0.134 0.689-0.4 0.957-0.267 0.269-0.588 0.402-0.965 0.402-0.369 0-0.687-0.134-0.953-0.402-0.267-0.268-0.4-0.587-0.4-0.957 0-0.378 0.133-0.701 0.4-0.969s0.584-0.402 0.953-0.402zm-0.822 5.295h1.655v12.857h-1.655v-12.857z"/>
			<path class="st1" d="m446.1 115.95v12.857h-1.631v-2.21c-0.693 0.843-1.471 1.478-2.334 1.902-0.862 0.426-1.806 0.639-2.83 0.639-1.82 0-3.374-0.66-4.662-1.979s-1.932-2.925-1.932-4.815c0-1.852 0.65-3.436 1.95-4.751 1.3-1.316 2.864-1.974 4.692-1.974 1.056 0 2.011 0.225 2.866 0.674s1.605 1.122 2.251 2.021v-2.363h1.63zm-6.612 1.265c-0.921 0-1.771 0.226-2.55 0.679-0.779 0.452-1.399 1.088-1.859 1.906s-0.69 1.684-0.69 2.597c0 0.905 0.233 1.771 0.697 2.597s1.088 1.47 1.871 1.931c0.783 0.46 1.623 0.69 2.52 0.69 0.905 0 1.763-0.229 2.573-0.685 0.811-0.457 1.434-1.074 1.871-1.854 0.437-0.779 0.655-1.656 0.655-2.633 0-1.486-0.49-2.73-1.47-3.729-0.98-1-2.186-1.499-3.618-1.499z"/>
			<path class="st1" d="m452.26 110.99h1.655v17.821h-1.655v-17.821z"/>
			<path class="st1" d="m482.26 110.99v17.821h-1.631v-2.21c-0.693 0.843-1.471 1.478-2.334 1.902-0.863 0.426-1.806 0.639-2.831 0.639-1.82 0-3.374-0.66-4.662-1.979s-1.932-2.925-1.932-4.815c0-1.852 0.65-3.436 1.95-4.751 1.3-1.316 2.864-1.974 4.691-1.974 1.056 0 2.011 0.225 2.866 0.674s1.605 1.122 2.251 2.021v-7.327h1.632zm-6.612 6.229c-0.92 0-1.77 0.226-2.549 0.679-0.779 0.452-1.399 1.088-1.859 1.906-0.461 0.818-0.69 1.684-0.69 2.597 0 0.905 0.232 1.771 0.696 2.597s1.088 1.47 1.871 1.931c0.783 0.46 1.623 0.69 2.52 0.69 0.905 0 1.763-0.229 2.573-0.685 0.811-0.457 1.434-1.074 1.871-1.854 0.436-0.779 0.655-1.656 0.655-2.633 0-1.486-0.49-2.73-1.47-3.729-0.98-1-2.186-1.499-3.618-1.499z"/>
			<path class="st1" d="m489.26 110.66c0.377 0 0.698 0.135 0.965 0.402s0.4 0.591 0.4 0.969c0 0.37-0.134 0.689-0.4 0.957-0.267 0.269-0.588 0.402-0.965 0.402-0.369 0-0.686-0.134-0.953-0.402s-0.4-0.587-0.4-0.957c0-0.378 0.133-0.701 0.4-0.969s0.584-0.402 0.953-0.402zm-0.822 5.295h1.655v12.857h-1.655v-12.857z"/>
			<path class="st1" d="m501.52 110.99v1.619c-0.606-0.26-1.126-0.39-1.56-0.39-0.323 0-0.591 0.065-0.804 0.194-0.213 0.13-0.347 0.28-0.402 0.449-0.055 0.17-0.082 0.621-0.082 1.354l-1e-3 1.737h2.684v1.43h-2.685l-9e-3 11.428h-1.654v-11.428h-1.69v-1.43h1.69v-2.009c0-0.922 0.085-1.58 0.254-1.974 0.169-0.395 0.457-0.711 0.863-0.952 0.406-0.24 0.896-0.36 1.471-0.36 0.534 1e-3 1.176 0.112 1.925 0.332z"/>
			<path class="st1" d="m511.87 110.99v1.619c-0.606-0.26-1.126-0.39-1.56-0.39-0.323 0-0.591 0.065-0.804 0.194-0.213 0.13-0.347 0.28-0.402 0.449-0.055 0.17-0.083 0.621-0.083 1.354l-1e-3 1.737h2.684v1.43h-2.686l-9e-3 11.428h-1.654v-11.428h-1.69v-1.43h1.69v-2.009c0-0.922 0.084-1.58 0.254-1.974 0.169-0.395 0.457-0.711 0.863-0.952 0.406-0.24 0.896-0.36 1.471-0.36 0.536 1e-3 1.178 0.112 1.927 0.332z"/>
			<path class="st1" d="m527.69 124.54l1.395 0.733c-0.458 0.897-0.985 1.623-1.585 2.174-0.6 0.552-1.273 0.972-2.022 1.259-0.75 0.288-1.597 0.432-2.543 0.432-2.098 0-3.738-0.688-4.92-2.062-1.183-1.375-1.774-2.929-1.774-4.662 0-1.631 0.5-3.084 1.502-4.36 1.27-1.623 2.969-2.435 5.098-2.435 2.192 0 3.943 0.831 5.252 2.493 0.93 1.174 1.403 2.64 1.419 4.396h-11.57c0.031 1.493 0.509 2.718 1.432 3.673s2.063 1.433 3.419 1.433c0.655 0 1.292-0.114 1.911-0.342s1.146-0.529 1.579-0.906c0.432-0.378 0.902-0.986 1.407-1.826zm0-3.462c-0.221-0.883-0.542-1.588-0.964-2.115-0.422-0.528-0.98-0.953-1.674-1.276s-1.424-0.485-2.189-0.485c-1.262 0-2.347 0.406-3.254 1.218-0.663 0.591-1.164 1.478-1.502 2.659h9.583z"/>
			<path class="st1" d="m534.65 115.95h1.69v1.879c0.504-0.74 1.036-1.294 1.595-1.66 0.56-0.367 1.143-0.55 1.749-0.55 0.457 0 0.945 0.146 1.465 0.438l-0.862 1.395c-0.347-0.15-0.638-0.225-0.875-0.225-0.552 0-1.083 0.227-1.596 0.68-0.512 0.453-0.902 1.156-1.17 2.109-0.205 0.732-0.307 2.214-0.307 4.443v4.349h-1.69v-12.858z"/>
			<path class="st1" d="m555.98 124.54l1.395 0.733c-0.458 0.897-0.985 1.623-1.585 2.174-0.6 0.552-1.273 0.972-2.023 1.259-0.75 0.288-1.597 0.432-2.543 0.432-2.098 0-3.738-0.688-4.92-2.062-1.183-1.375-1.774-2.929-1.774-4.662 0-1.631 0.5-3.084 1.502-4.36 1.27-1.623 2.969-2.435 5.098-2.435 2.192 0 3.943 0.831 5.252 2.493 0.93 1.174 1.403 2.64 1.419 4.396h-11.57c0.031 1.493 0.509 2.718 1.432 3.673s2.063 1.433 3.419 1.433c0.655 0 1.292-0.114 1.911-0.342s1.146-0.529 1.579-0.906c0.434-0.378 0.903-0.986 1.408-1.826zm0-3.462c-0.221-0.883-0.542-1.588-0.964-2.115-0.422-0.528-0.98-0.953-1.674-1.276s-1.424-0.485-2.189-0.485c-1.262 0-2.347 0.406-3.254 1.218-0.663 0.591-1.164 1.478-1.502 2.659h9.583z"/>
			<path class="st1" d="m563.57 115.95h1.654v2.304c0.662-0.882 1.395-1.542 2.198-1.979 0.803-0.438 1.678-0.656 2.623-0.656 0.961 0 1.814 0.244 2.559 0.732 0.744 0.488 1.294 1.146 1.648 1.974 0.354 0.827 0.532 2.115 0.532 3.864v6.618h-1.654v-6.134c0-1.48-0.062-2.47-0.184-2.966-0.192-0.851-0.56-1.491-1.103-1.921-0.544-0.429-1.252-0.644-2.127-0.644-1.001 0-1.897 0.331-2.689 0.992-0.792 0.662-1.314 1.481-1.566 2.459-0.158 0.638-0.236 1.804-0.236 3.498v4.715h-1.654v-12.856z"/>
			<path class="st1" d="m593.49 118.62l-1.312 0.815c-1.133-1.505-2.679-2.258-4.639-2.258-1.566 0-2.866 0.504-3.901 1.512-1.035 1.007-1.552 2.23-1.552 3.671 0 0.937 0.238 1.817 0.714 2.644s1.129 1.468 1.96 1.925c0.83 0.456 1.76 0.685 2.792 0.685 1.889 0 3.431-0.753 4.627-2.258l1.312 0.863c-0.615 0.925-1.44 1.644-2.476 2.153-1.036 0.511-2.216 0.766-3.539 0.766-2.032 0-3.718-0.646-5.058-1.938-1.339-1.292-2.009-2.863-2.009-4.715 0-1.245 0.313-2.401 0.939-3.469 0.626-1.067 1.487-1.9 2.583-2.499 1.095-0.599 2.32-0.898 3.675-0.898 0.851 0 1.672 0.13 2.464 0.39s1.463 0.599 2.015 1.017c0.55 0.416 1.019 0.948 1.405 1.594z"/>
			<path class="st1" d="m610.18 124.54l1.395 0.733c-0.458 0.897-0.985 1.623-1.585 2.174-0.6 0.552-1.273 0.972-2.022 1.259-0.75 0.288-1.597 0.432-2.543 0.432-2.098 0-3.738-0.688-4.92-2.062-1.183-1.375-1.774-2.929-1.774-4.662 0-1.631 0.5-3.084 1.502-4.36 1.27-1.623 2.969-2.435 5.098-2.435 2.192 0 3.943 0.831 5.252 2.493 0.93 1.174 1.403 2.64 1.419 4.396h-11.57c0.031 1.493 0.509 2.718 1.432 3.673s2.063 1.433 3.419 1.433c0.655 0 1.291-0.114 1.911-0.342 0.619-0.228 1.146-0.529 1.579-0.906 0.433-0.378 0.902-0.986 1.407-1.826zm0-3.462c-0.221-0.883-0.542-1.588-0.964-2.115-0.422-0.528-0.98-0.953-1.674-1.276s-1.424-0.485-2.189-0.485c-1.262 0-2.347 0.406-3.254 1.218-0.663 0.591-1.164 1.478-1.502 2.659h9.583z"/>
</svg>
