<svg xmlns="http://www.w3.org/2000/svg" width="251.003" height="108.854" viewBox="0 0 251.003 108.854">
  <g id="logo_wonderware" transform="translate(-28.636 -31)">
    <g id="Group_631" data-name="Group 631" transform="translate(28.636 31)">
      <path id="Path_354" data-name="Path 354" d="M382,74.18c-.728.567-3.41,2.588-4.2,3.068-1.061.643-2.992,1.8-4.165,1.536a14.2,14.2,0,0,0,2.7-2.934c1.173-1.413,6.564-7.934,3.622-11.179-1.1-1.211-3.231-1.645-5.723-1.529a10.631,10.631,0,0,0-3.544,1.269c-4.416,2.808-9.394,8.236-8.673,15.226a11.816,11.816,0,0,0,.491,2.36c-5.726,2.335.034-11.559.3-12.1-4.5-1.565-4.841-4.16-6.087-6.205-1.094.888-2.4,1.214-4.462,1.553a31.166,31.166,0,0,1-.2,4.22,22.229,22.229,0,0,1-3.932,9.08c-2.234,2.541.495-4.356.894-5.523,1.723-5.173.467-11.453-6.381-10.976a9.626,9.626,0,0,0-5.462,2.133c-6.143,4.775-11.315,20.934-4.008,23.3,3.425,1.1,5.99-.895,8.4-2.2,5.5,9.268,13.057-9.045,14.6-13.048.082.35,1.107.489.96.975-.983,3.24-2.944,10.4-1.306,13.431,1.8,3.323,7.94-.466,9.973-1.67,1.616,1.06,2.726,1.222,5.165.9,6.783-.925,12.166-7.179,15.9-11.341a41.323,41.323,0,0,0,7.564-11.813,16.824,16.824,0,0,0,1.133-2.779C390.143,65.4,389.161,68.57,382,74.18m-43.039,4.834c-5.209,1.476-1.885-10.051,2.82-10.241,4.428-.205-.358,9.527-2.82,10.241m29.067-1.247c-2.285-2.146,1.627-7.9,4.321-8.527,5.709-1.353-1.2,7.508-4.321,8.527" transform="translate(-152.766 -42.938)" fill="#fff"/>
      <path id="Path_355" data-name="Path 355" d="M73.044,39.31c4.526,10.506,1.916,28.814-.854,38.972-.48,1.749-5.528,17.042-10.957,26.614C60.855,102.046,60,94.65,59.4,91.335c-.136-.7-.2-2.237-.437-3.017-2.059,3.827-7.468,14.447-12.753,19.917-9.109-11.829-8.512-25.7-7.259-44.54-4.062-.517-7.465-.808-10.312-1.988A46.628,46.628,0,0,0,41.09,56.218a70.617,70.617,0,0,0,9.492-6.9c.854-.763,1.651-1.33,2.523-2.02-.571,2.853-4.13,12.8-4.589,28.45a40.194,40.194,0,0,0,.224,8.35c3.214-6.021,6.357-14.525,9.541-21.86,1.707,3.492,3.236,7.856,4.815,10.6l1.06-2.1c4.9-10.309,7.848-25.455,8.887-31.423" transform="translate(-28.636 -34.427)" fill="#fff"/>
      <path id="Path_356" data-name="Path 356" d="M234.383,89.362c-16.963-22.948-89.068-9.349-108.036-5.185-2.32.5-5.782.777-7.7.157-3.2-1.025.589-11.3,3.237-16.487-1.093,4.984-.348,11.357,4.579,13.02,3.942,1.327,9.653-1.68,11.736-5.377,6.227,3.38,8.219.51,9.445-.1,1.259.611,4.158,2.331,7.471,1.856,7.709-1.12,11.891-6.164,16.3-10.522a39.821,39.821,0,0,0,4.427-7.618c.266.218.676.329.74.706-.508,2.979-5.338,14.835,3.877,14.25,1.6-.1,1.656-.393,3.659-1.364,4.9,3.347,10.125.606,12.249-2.1,1.157,2.118,2.607,3.853,5.311,3.754,5.34-.213,7.933-5.492,7.611-4.926,2.993-5.023,2.223-13.328.263-18-1.873-.966-3.534-.951-7.4-2.961a55.316,55.316,0,0,1,2.183,5.921,18.3,18.3,0,0,1-.2,10.28c-.906,2.636-2.723,1.26-3.4-.3a26.158,26.158,0,0,1-1.211-9.791c-.684,1.133-1.442,2.337-2.127,3.628-1.42,2.606-2.144,5.752-4.795,7.8-1.6.575-1.212-2.364-1.236-1.9.068-1.534,1.483-4.411,2.086-5.633,2.1-4.37,4.327-7.153,7.017-11.349-.831.052-3.3,1.4-4.269,1.931a28.9,28.9,0,0,1-4.222,2.089c.1,0-.769,1.053-1.436,2.016-1.385,1.994-2.307,3.631-2.794,4.416-1.5,2.4-2.763,4.21-3.505,6.713A26.524,26.524,0,0,0,183.4,67.7c-1.848,1.268-3.417.424-2.685-3.918a22.344,22.344,0,0,1,2.612-6.662c-4.264-1.587-5.763-3.545-7.411-7.555-1.677.817-3.261,1.995-4.815,2.3-.576,7.725-5.252,12.663-7.395,15.024-1.295,1.418-7.7,6.2-9.557,4.136a24.605,24.605,0,0,0,5.975-4.339c14.122-11.838,2.526-21.215-9.121-10.27a19.632,19.632,0,0,0-6.045,13.242c-.552-.09-1.138-.089-2.149-1.42-.281-4.413.845-6.284,1.747-8.755,3.8-10.5,9.092-19.462,10.421-28.48-3.473,2.217-7.065,4.182-10.608,6.279,2.475,3.526-3.354,14.522-5.539,20.305-3.572-1.172-9.91.41-12.862,3.752a30.97,30.97,0,0,0-3.393,4.845c.252-1.2,1.977-5.513.831-8.921-1-2.938-4.724-2.957-7.853-2.317a7.046,7.046,0,0,0-2.374.79,29.135,29.135,0,0,1,1.517-4.7c-.928.595-7.2,3.522-8.759,4.855-.723.728.716.4-2.4,4.447-.52.68-2,1.744-2.806,1.251C98.578,55.641,93.58,55.34,90.57,58.3c-2.7-.066-6.784,4.7-7.588,5.852-.375.52-1.888,3.075-2.219,3.709-5.066,9.712-1.1,23.317,7.819,19.021,4.787-2.311,7.952-11.5,10.777-17.7.27-.59.751-.433,1.431-.623-.312.843-.969,2.36-1.23,3.055-2.018,5.185-3.6,9.845-5.933,14.619,2.888-.277,9.317-.86,11.541-1.067-.84-1.039-.739-.38-1.428-2.535-1.363-4.236,2.766-10.508,4.368-14.866,1.069-2.931,2.729-5.881,5.844-5.447,1.551.209,3.048,1.093,2.115,4.18-3.283,10.894-6.5,13.412-6.351,20.641.1,4.686,6.79,5.015,10.83,4.863,7.066-.278,15.2-3.889,21.536-5.676,19.85-5.6,42.923-7.4,64.707-2.953,5.1,1.041,10.793,2.343,12.99,5.469a5.12,5.12,0,0,1-.165,5.507,4.148,4.148,0,0,1-1.075,1.123c-8.223,6.3-29.857,3.754-42.049,3.908-21.959.257-44.943-.939-62.763.2-23.182,1.464-42.559,6.636-57.486,15.786-6.279,3.837-16.017,12.547-12.705,24.489,9.494-.884,17.253-1.854,27.481-2.224-2.712-.949-6.56-2.371-7.961-5.613-5.123-11.806,15.9-19.291,24.32-21.976,11.615-3.7,31.872-5.992,47.1-5.659,9.193.2,16.71.421,24.335,1.254,15.171,1.662,69.155,11.608,76.241-3.891,2.049-4.5,1.818-9.012-.667-12.383m-75.2-32.018c2.454.205-1.843,7.584-7.178,7.759.058-3.137,4.022-8.028,7.178-7.759M134.92,64.087c1.462.857.468,3.347-1.053,6.069-1.5,2.768-3.329,4.317-4.851,3.556-1.575-.729-1.2-3.52.323-6.213,1.536-2.757,4.061-4.243,5.581-3.413M85.654,73.456c.522-3.96,2.18-7.3,4.042-8.7a9.323,9.323,0,0,0,3.394,4.23c-.995,5.147-9.112,16.94-7.437,4.472m9.523-9.641c-1.455.768-2.619-2.528-1.716-3.372,1.928-.135,2.419,1.707,1.716,3.372" transform="translate(-34.506 -31)" fill="#fff"/>
      <path id="Path_357" data-name="Path 357" d="M447.883,56.705a2.981,2.981,0,0,1,2.172.894,2.938,2.938,0,0,1,.895,2.165,2.968,2.968,0,0,1-.895,2.187,2.936,2.936,0,0,1-2.172.9,3.073,3.073,0,1,1,0-6.146m-.009,5.606a2.47,2.47,0,0,0,1.8-.741,2.551,2.551,0,0,0,0-3.592,2.477,2.477,0,0,0-1.8-.734,2.534,2.534,0,1,0,0,5.068m1.284-.92h-.6l-.7-1.359H447.4v1.359h-.535V58.136h1.087c.747,0,1.128.332,1.128.925a.9.9,0,0,1-.736.872l.809,1.458M447.4,59.58h.521a.727.727,0,0,0,.456-.126.436.436,0,0,0,.172-.374c0-.318-.172-.489-.579-.489H447.4Z" transform="translate(-200.285 -41.602)" fill="#fff"/>
    </g>
    <g id="Group_632" data-name="Group 632" transform="translate(68.011 121.087)">
      <path id="Path_358" data-name="Path 358" d="M95.651,201.6V186.856h5.475c2.62,0,4.38,1.017,4.38,3.833a3.059,3.059,0,0,1-1.623,3.011v.039c2.112.274,3.011,1.7,3.011,3.754,0,3.089-2.64,4.106-5.338,4.106Zm3.833-8.955h.43c1.017,0,2.073-.176,2.073-1.427,0-1.35-1.193-1.427-2.229-1.427h-.274Zm0,6.022h.489c1.135,0,3.051.059,3.051-1.564,0-1.779-1.9-1.6-3.148-1.6h-.391Z" transform="translate(-95.651 -185.37)" fill="#fff"/>
      <path id="Path_359" data-name="Path 359" d="M127.827,200.256h-7.49a1.994,1.994,0,0,0,2.229,2.229,1.779,1.779,0,0,0,1.7-.919h3.422c-.568,2.366-2.816,3.441-5.1,3.441-3.324,0-5.808-1.877-5.808-5.338,0-3.344,2.288-5.357,5.554-5.357,3.481,0,5.495,2.15,5.495,5.572Zm-3.3-2.053a2.135,2.135,0,0,0-4.126,0Z" transform="translate(-104.365 -188.445)" fill="#fff"/>
      <path id="Path_360" data-name="Path 360" d="M141.9,195.934h.039a3.47,3.47,0,0,1,3.207-1.622c2.7,0,3.774,1.7,3.774,4.164v6.2H145.36v-4.888c0-.958.157-2.639-1.6-2.639-1.447,0-1.858,1.075-1.858,2.327v5.2h-3.559V194.644H141.9Z" transform="translate(-113.258 -188.445)" fill="#fff"/>
      <path id="Path_361" data-name="Path 361" d="M170.118,200.256h-7.489a1.994,1.994,0,0,0,2.229,2.229,1.78,1.78,0,0,0,1.7-.919h3.422c-.567,2.366-2.816,3.441-5.1,3.441-3.324,0-5.807-1.877-5.807-5.338,0-3.344,2.288-5.357,5.553-5.357,3.481,0,5.495,2.15,5.495,5.572Zm-3.3-2.053a2.135,2.135,0,0,0-4.126,0Z" transform="translate(-121.808 -188.445)" fill="#fff"/>
      <path id="Path_362" data-name="Path 362" d="M184.19,200.556h-3.559V184.327h3.559Z" transform="translate(-130.701 -184.327)" fill="#fff"/>
      <path id="Path_363" data-name="Path 363" d="M194.139,194.877v5.357c0,1.271.313,2.17,1.78,2.17s1.779-.9,1.779-2.17v-5.357h3.558v6.042c0,3.3-2.326,4.321-5.337,4.321s-5.338-1.017-5.338-4.321v-6.042Z" transform="translate(-134.804 -188.678)" fill="#fff"/>
      <path id="Path_364" data-name="Path 364" d="M211.049,194.877h4.517l1.8,2.072,1.8-2.072h4.595l-4.145,4.595,5.006,5.436h-4.673l-2.581-2.972-2.581,2.972h-4.673l5.006-5.436Z" transform="translate(-142.86 -188.678)" fill="#fff"/>
      <path id="Path_365" data-name="Path 365" d="M255.472,190.376a4.028,4.028,0,0,0-2.542-.978c-.7,0-1.642.411-1.642,1.232,0,.861,1.036,1.193,1.7,1.408l.978.293c2.053.606,3.637,1.643,3.637,4.028a5.009,5.009,0,0,1-1.525,3.969,6.468,6.468,0,0,1-4.185,1.388,9.1,9.1,0,0,1-5.182-1.682l1.643-3.09a5.253,5.253,0,0,0,3.4,1.526c.9,0,1.858-.45,1.858-1.486,0-1.076-1.506-1.447-2.327-1.682-2.405-.685-3.989-1.31-3.989-4.165a4.778,4.778,0,0,1,5.083-4.947A10.08,10.08,0,0,1,257,187.4Z" transform="translate(-157.956 -185.096)" fill="#fff"/>
      <path id="Path_366" data-name="Path 366" d="M274.934,197.91a3.147,3.147,0,0,0-1.838-.7,2.409,2.409,0,0,0-2.445,2.444,2.383,2.383,0,0,0,2.5,2.464,2.735,2.735,0,0,0,1.78-.685v3.011a5.582,5.582,0,0,1-2.5.567,5.289,5.289,0,0,1-5.455-5.24,5.374,5.374,0,0,1,5.611-5.455,4.857,4.857,0,0,1,2.347.586Z" transform="translate(-166.314 -188.445)" fill="#fff"/>
      <path id="Path_367" data-name="Path 367" d="M294.74,204.675h-3.559v-1.114h-.039a3.521,3.521,0,0,1-3.031,1.447,5.357,5.357,0,0,1-.039-10.7,4.092,4.092,0,0,1,3.109,1.31v-.978h3.559Zm-8.017-5.005a2.288,2.288,0,0,0,4.576,0,2.288,2.288,0,0,0-4.576,0Z" transform="translate(-172.942 -188.445)" fill="#fff"/>
      <path id="Path_368" data-name="Path 368" d="M310.529,195.934h.039a3.468,3.468,0,0,1,3.207-1.622c2.7,0,3.774,1.7,3.774,4.164v6.2H313.99v-4.888c0-.958.156-2.639-1.6-2.639-1.446,0-1.857,1.075-1.857,2.327v5.2h-3.558V194.644h3.558Z" transform="translate(-182.81 -188.445)" fill="#fff"/>
      <path id="Path_369" data-name="Path 369" d="M336.1,199.442h-.039a3.523,3.523,0,0,1-3.031,1.447,5.357,5.357,0,0,1-.039-10.7,4.092,4.092,0,0,1,3.109,1.31v-7.176h3.558v16.229H336.1Zm-4.458-3.891a2.288,2.288,0,0,0,4.575,0,2.288,2.288,0,0,0-4.575,0Z" transform="translate(-191.469 -184.327)" fill="#fff"/>
      <path id="Path_370" data-name="Path 370" d="M355.28,186.921a1.994,1.994,0,1,1-1.994-1.994A2,2,0,0,1,355.28,186.921Zm-.215,13.883h-3.559V190.773h3.559Z" transform="translate(-201.09 -184.574)" fill="#fff"/>
      <path id="Path_371" data-name="Path 371" d="M365.264,195.934h.039a3.469,3.469,0,0,1,3.207-1.622c2.7,0,3.774,1.7,3.774,4.164v6.2h-3.559v-4.888c0-.958.156-2.639-1.6-2.639-1.447,0-1.857,1.075-1.857,2.327v5.2H361.7V194.644h3.559Z" transform="translate(-205.385 -188.445)" fill="#fff"/>
      <path id="Path_372" data-name="Path 372" d="M394.161,204.675H390.6v-1.114h-.039a3.521,3.521,0,0,1-3.031,1.447,5.357,5.357,0,0,1-.039-10.7,4.092,4.092,0,0,1,3.109,1.31v-.978h3.559Zm-8.017-5.005a2.288,2.288,0,0,0,4.576,0,2.288,2.288,0,0,0-4.576,0Z" transform="translate(-213.949 -188.445)" fill="#fff"/>
      <path id="Path_373" data-name="Path 373" d="M410.289,200.019l2.386-5.142h3.989l-5.24,10.031h-2.268l-5.26-10.031h3.989Z" transform="translate(-222.787 -188.678)" fill="#fff"/>
      <path id="Path_374" data-name="Path 374" d="M430.744,186.921a1.994,1.994,0,1,1-1.995-1.994A2,2,0,0,1,430.744,186.921Zm-.215,13.883H426.97V190.773h3.559Z" transform="translate(-232.215 -184.574)" fill="#fff"/>
      <path id="Path_375" data-name="Path 375" d="M447.63,204.675h-3.559v-1.114h-.039A3.522,3.522,0,0,1,441,205.007a5.357,5.357,0,0,1-.039-10.7,4.09,4.09,0,0,1,3.109,1.31v-.978h3.559Zm-8.018-5.005a2.288,2.288,0,0,0,4.576,0,2.288,2.288,0,0,0-4.576,0Z" transform="translate(-236.002 -188.445)" fill="#fff"/>
    </g>
  </g>
</svg>
