
<svg width="103px" height="32px" viewBox="0 0 103 32" version="1.1" xmlns="http://www.w3.org/2000/svg" xmlns:xlink="http://www.w3.org/1999/xlink">
    <!-- Generator: Sketch 50.2 (55047) - http://www.bohemiancoding.com/sketch -->
    <desc>Created with Sketch.</desc>
    <defs>
        <polygon id="path-1" points="0.0161780105 14.7261849 0.0161780105 0.0298487395 66.9163217 0.0298487395 66.9163217 14.7261849"></polygon>
        <polygon id="path-3" points="0.0161780105 14.7261849 0.0161780105 0.0298487395 66.9163217 0.0298487395 66.9163217 14.7261849"></polygon>
        <polygon id="path-5" points="0.0248062827 31.714958 101.274346 31.714958 101.274346 15.8944538 101.274346 0.0739495798 0.0248062827 0.0739495798"></polygon>
    </defs>
    <g id="Symbols" stroke="none" stroke-width="1" fill="none" fill-rule="evenodd">
        <g id="Footer" transform="translate(-1107.000000, -32.000000)">
            <g id="Logo-White">
                <g transform="translate(1107.000000, 32.000000)">
                    <g>
                        <path d="M65.6743639,1.78527731 C65.1108298,0.810756303 64.1619895,0.10702521 62.9640079,0.10702521 C61.7762723,0.10702521 60.8042435,0.788705882 60.2644372,1.76457143 L60.2568874,1.76457143 L51.155678,17.7565042 L54.9340524,17.7565042 L62.2529843,4.83576471 C62.2529843,4.83576471 62.4592539,4.50258824 62.9338089,4.50258824 C63.4059372,4.50258824 63.6119372,4.83576471 63.6119372,4.83576471 C63.862966,5.13694118 70.5655157,17.7565042 70.5655157,17.7565042 L74.8510707,17.7565042 L65.6743639,1.78527731" id="Fill-1" fill="#FFFFFE"></path>
                        <polygon id="Fill-2" fill="#FFFFFE" points="2.05002356 17.7565042 5.77474084 17.7565042 5.77474084 7.18547899 2.05002356 7.18547899"></polygon>
                        <path d="M25.8484162,7.18171429 L16.5708665,7.18171429 C15.5055445,7.14890756 15.0129241,6.8692437 15.0129241,5.81082353 L15.0129241,5.42978151 L15.0104974,5.42978151 L15.0104974,4.77741176 C15.029911,3.68914286 15.6034215,3.45922689 16.8262094,3.45922689 L24.8057435,3.45922689 C25.8840079,3.49095798 26.3857958,3.76712605 26.3857958,4.83146218 L26.3857958,5.16356303 L26.3890314,5.16356303 L26.3890314,5.43677311 L29.9562827,5.45855462 L29.9562827,4.22937815 C29.9562827,1.2410084 28.7434712,0.432403361 25.6464607,0.432403361 L15.786233,0.432403361 C12.519623,0.432403361 11.4747932,1.27381513 11.4747932,4.53055462 L11.4747932,6.44087395 C11.4747932,9.70057143 12.519623,10.5376807 15.786233,10.5376807 L24.9254607,10.5376807 C26.056034,10.5551597 26.5942225,10.7982521 26.6241518,11.8249412 L26.6241518,13.2095462 C26.5963796,14.2061176 26.0970183,14.4672269 25.0459869,14.4994958 L15.9291387,14.4994958 C14.8419764,14.4683025 14.3407277,14.1961681 14.3407277,13.1267227 L14.3407277,12.7437983 L14.338301,12.7437983 L14.338301,12.4520336 L10.7702408,12.4590252 L10.7702408,13.6621176 C10.7702408,16.9150924 11.8468874,17.7565042 15.1129581,17.7565042 L25.8484162,17.7565042 C29.1128691,17.7565042 30.192212,16.9150924 30.192212,13.6621176 L30.192212,11.2779832 C30.192212,8.02205042 29.1128691,7.18171429 25.8484162,7.18171429" id="Fill-3" fill="#FFFFFE"></path>
                        <path d="M48.9398298,0.432403361 L38.3815209,0.432403361 C35.1170681,0.432403361 34.0730471,1.27381513 34.0730471,4.53055462 L34.0730471,6.44087395 L34.0619921,17.7565042 L38.0331545,17.7565042 L38.0331545,4.79865546 C38.0331545,3.65956303 38.6069346,3.42211765 39.8515628,3.42211765 L47.1222304,3.42211765 C48.3668586,3.42211765 48.9398298,3.65956303 48.9398298,4.79865546 L48.9398298,6.6452437 C48.9398298,7.78810084 48.3668586,8.02205042 47.1222304,8.02205042 L39.988267,8.02205042 L39.988267,11.008 L48.9398298,11.008 C51.5989555,11.008 52.8446623,10.0692437 52.8446623,7.65257143 L52.8446623,3.7902521 C52.8446623,1.37546218 51.5989555,0.432403361 48.9398298,0.432403361" id="Fill-4" fill="#FFFFFE"></path>
                        <g id="Group-8" transform="translate(0.000000, 1.344538)">
                            <mask id="mask-2" fill="white">
                                <use xlink:href="#path-1"></use>
                            </mask>
                            <g id="Clip-6"></g>
                            <path d="M63.8036466,14.7261849 C63.8036466,14.7261849 65.0453089,14.7261849 65.1968429,14.7261849 C65.3481073,14.7261849 65.8388403,14.7019832 66.2041937,14.2943193 C66.5649634,13.8882689 66.5970497,13.8498151 66.6811754,13.7411765 C66.9238455,13.4276303 66.9162958,13.1619496 66.9162958,13.2116975 L66.9162958,12.9828571 C66.9162958,13.0315294 66.9238455,12.765042 66.6811754,12.4496134 C66.5970497,12.3436639 66.5649634,12.3065546 66.2041937,11.9005042 C65.8388403,11.490958 65.3481073,11.467563 65.1968429,11.467563 C65.0453089,11.467563 63.8036466,11.467563 63.8036466,11.467563 L62.2025628,11.467563 C62.2025628,11.467563 60.9606309,11.467563 60.8074791,11.467563 C60.655945,11.467563 60.1635942,11.490958 59.8022853,11.9005042 C59.4388194,12.3065546 59.4099686,12.3436639 59.325034,12.4496134 C59.0802068,12.765042 59.0891047,13.0315294 59.0891047,12.9828571 L59.0891047,13.2116975 C59.0891047,13.1619496 59.0802068,13.4276303 59.325034,13.7411765 C59.4099686,13.8498151 59.4388194,13.8882689 59.8022853,14.2943193 C60.1635942,14.7019832 60.655945,14.7261849 60.8074791,14.7261849 C60.9606309,14.7261849 62.2025628,14.7261849 62.2025628,14.7261849 L63.8036466,14.7261849" id="Fill-5" fill="#FFFFFE" mask="url(#mask-2)"></path>
                            <path d="M6.10773822,3.28685714 C6.25981152,3.28685714 6.7513534,3.26184874 7.11374084,2.85472269 C7.47720681,2.44571429 7.50524869,2.40968067 7.58964398,2.30588235 C7.83581937,1.99045378 7.8247644,1.72020168 7.8247644,1.77532773 L7.8247644,1.54057143 C7.8247644,1.59220168 7.83581937,1.32732773 7.58964398,1.00894118 C7.50524869,0.902722689 7.47720681,0.866957983 7.11374084,0.461983193 C6.7513534,0.0516302521 6.25981152,0.0298487395 6.10773822,0.0298487395 C5.95593455,0.0298487395 1.87152618,0.0298487395 1.71864398,0.0298487395 C1.56495288,0.0298487395 1.07637696,0.0516302521 0.712910995,0.461983193 C0.348636126,0.866957983 0.320324607,0.902722689 0.23673822,1.00894118 C-0.0105157068,1.32732773 -1.44334414e-17,1.59220168 -1.44334414e-17,1.54057143 L-1.44334414e-17,1.77532773 C-1.44334414e-17,1.72020168 -0.0105157068,1.99045378 0.23673822,2.30588235 C0.320324607,2.40968067 0.348636126,2.44571429 0.712910995,2.85472269 C1.07637696,3.26184874 1.56495288,3.28685714 1.71864398,3.28685714 C1.87152618,3.28685714 5.95593455,3.28685714 6.10773822,3.28685714" id="Fill-7" fill="#FFFFFE" mask="url(#mask-2)"></path>
                        </g>
                        <path d="M97.1985654,15.5920672 L97.1985654,0.394756303 L93.3061361,0.394756303 L93.3061361,11.0547899 L93.3031702,11.0547899 L93.3031702,11.3597311 C93.3031702,11.5581849 93.269466,11.6560672 93.1626911,11.7278655 C93.011966,11.8249412 92.8313115,11.7773445 92.6714188,11.645042 C92.5088298,11.5068235 80.4686152,1.17620168 80.0776466,0.846252101 C79.930966,0.722823529 79.2080785,0.178016807 78.6655759,0.178016807 C78.6070654,0.178016807 78.5067618,0.174789916 78.4493298,0.178016807 C77.4592356,0.245781513 76.7444372,0.921008403 76.7433586,2.26554622 L76.7444372,2.56053782 L76.7444372,17.7565042 L80.6374058,17.7565042 L80.6374058,7.09431933 L80.6414503,7.09431933 L80.6414503,6.78937815 C80.6414503,6.59334454 80.6743455,6.49223529 80.7838168,6.4212437 C80.9340026,6.32282353 81.1146571,6.37203361 81.2732016,6.50379832 C81.4379476,6.64309244 93.4760052,16.9742521 93.8694005,17.3042017 C94.0168901,17.4270924 94.7397775,17.9718992 95.2814712,17.9718992 C95.3389031,17.9718992 95.4389372,17.9745882 95.4974476,17.9718992 C96.4875419,17.9033277 97.1993743,17.2267563 97.2026099,15.8827563 L97.1985654,15.5920672" id="Fill-9" fill="#FFFFFE"></path>
                        <path d="M101.410241,1.86944538 C101.410241,1.77532773 101.382469,1.70836975 101.329081,1.66453782 C101.275154,1.62231933 101.199927,1.6 101.106634,1.6 L100.598105,1.6 L100.598105,2.14319328 L101.106634,2.14319328 C101.310207,2.14319328 101.410241,2.05230252 101.410241,1.86944538 Z M101.870236,1.85842017 C101.870236,2.04262185 101.827364,2.18003361 101.744586,2.27468908 C101.663157,2.36638655 101.563662,2.43710924 101.44772,2.47852101 L101.85972,3.31482353 L101.350113,3.31482353 L100.965346,2.53848739 L100.598105,2.53848739 L100.598105,3.31482353 L100.147547,3.31482353 L100.147547,1.18910924 L101.13899,1.18910924 C101.343911,1.18910924 101.517825,1.2445042 101.657225,1.35421849 C101.799592,1.46393277 101.870236,1.63226891 101.870236,1.85842017 Z M102.545128,2.29055462 C102.545128,2.06440336 102.505762,1.85357983 102.423524,1.65512605 C102.344251,1.46016807 102.229387,1.28806723 102.084325,1.14608403 C101.941958,1.00356303 101.770741,0.890890756 101.573908,0.80887395 C101.378154,0.728201681 101.166492,0.688403361 100.938382,0.688403361 C100.71162,0.688403361 100.499958,0.728201681 100.304204,0.80887395 C100.106563,0.890890756 99.9361545,1.00356303 99.7910916,1.14608403 C99.6476466,1.28806723 99.5357487,1.46016807 99.4537801,1.65512605 C99.3720812,1.85357983 99.3319058,2.06440336 99.3319058,2.29055462 C99.3319058,2.51563025 99.3720812,2.72887395 99.4537801,2.92490756 C99.5357487,3.11986555 99.6476466,3.28981513 99.7910916,3.43394958 C99.9361545,3.57835294 100.106563,3.68914286 100.304204,3.77223529 C100.499958,3.8507563 100.71162,3.89351261 100.938382,3.89351261 C101.166492,3.89351261 101.378154,3.8507563 101.573908,3.77223529 C101.770741,3.68914286 101.941958,3.57835294 102.084325,3.43394958 C102.229387,3.28981513 102.344251,3.11986555 102.423524,2.92490756 C102.505762,2.72887395 102.545128,2.51563025 102.545128,2.29055462 Z M102.892147,2.29055462 C102.892147,2.56752941 102.842804,2.82487395 102.743848,3.06205042 C102.644353,3.29922689 102.50711,3.50494118 102.33023,3.67811765 C102.156586,3.85559664 101.950856,3.98897479 101.714387,4.0890084 C101.474414,4.18904202 101.216914,4.23771429 100.938382,4.23771429 C100.660929,4.23771429 100.402351,4.18904202 100.164534,4.0890084 C99.926178,3.98897479 99.7212565,3.85559664 99.5454555,3.67811765 C99.3693848,3.50494118 99.2334895,3.29922689 99.1353429,3.06205042 C99.0353089,2.82487395 98.9848874,2.56752941 98.9848874,2.29055462 C98.9848874,2.01357983 99.0353089,1.75569748 99.1353429,1.5182521 C99.2334895,1.28107563 99.3693848,1.07509244 99.5454555,0.900840336 C99.7212565,0.72605042 99.926178,0.587831933 100.164534,0.48994958 C100.402351,0.392067227 100.660929,0.342857143 100.938382,0.342857143 C101.216914,0.342857143 101.474414,0.392067227 101.714387,0.48994958 C101.950856,0.587831933 102.156586,0.72605042 102.33023,0.900840336 C102.50711,1.07509244 102.644353,1.28107563 102.743848,1.5182521 C102.842804,1.75569748 102.892147,2.01357983 102.892147,2.29055462 Z" id="Fill-10" fill="#FFFFFE"></path>
                        <path d="M65.6743639,1.78527731 C65.1108298,0.810756303 64.1619895,0.10702521 62.9640079,0.10702521 C61.7762723,0.10702521 60.8042435,0.788705882 60.2644372,1.76457143 L60.2568874,1.76457143 L51.155678,17.7565042 L54.9340524,17.7565042 L62.2529843,4.83576471 C62.2529843,4.83576471 62.4592539,4.50258824 62.9338089,4.50258824 C63.4059372,4.50258824 63.6119372,4.83576471 63.6119372,4.83576471 C63.862966,5.13694118 70.5655157,17.7565042 70.5655157,17.7565042 L74.8510707,17.7565042 L65.6743639,1.78527731" id="Fill-11" fill="#FFFFFE"></path>
                        <polygon id="Fill-12" fill="#FFFFFE" points="2.05002356 17.7565042 5.77474084 17.7565042 5.77474084 7.18547899 2.05002356 7.18547899"></polygon>
                        <path d="M25.8484162,7.18171429 L16.5708665,7.18171429 C15.5055445,7.14890756 15.0129241,6.8692437 15.0129241,5.81082353 L15.0129241,5.42978151 L15.0104974,5.42978151 L15.0104974,4.77741176 C15.029911,3.68914286 15.6034215,3.45922689 16.8262094,3.45922689 L24.8057435,3.45922689 C25.8840079,3.49095798 26.3857958,3.76712605 26.3857958,4.83146218 L26.3857958,5.16356303 L26.3890314,5.16356303 L26.3890314,5.43677311 L29.9562827,5.45855462 L29.9562827,4.22937815 C29.9562827,1.2410084 28.7434712,0.432403361 25.6464607,0.432403361 L15.786233,0.432403361 C12.519623,0.432403361 11.4747932,1.27381513 11.4747932,4.53055462 L11.4747932,6.44087395 C11.4747932,9.70057143 12.519623,10.5376807 15.786233,10.5376807 L24.9254607,10.5376807 C26.056034,10.5551597 26.5942225,10.7982521 26.6241518,11.8249412 L26.6241518,13.2095462 C26.5963796,14.2061176 26.0970183,14.4672269 25.0459869,14.4994958 L15.9291387,14.4994958 C14.8419764,14.4683025 14.3407277,14.1961681 14.3407277,13.1267227 L14.3407277,12.7437983 L14.338301,12.7437983 L14.338301,12.4520336 L10.7702408,12.4590252 L10.7702408,13.6621176 C10.7702408,16.9150924 11.8468874,17.7565042 15.1129581,17.7565042 L25.8484162,17.7565042 C29.1128691,17.7565042 30.192212,16.9150924 30.192212,13.6621176 L30.192212,11.2779832 C30.192212,8.02205042 29.1128691,7.18171429 25.8484162,7.18171429" id="Fill-13" fill="#FFFFFE"></path>
                        <path d="M48.9398298,0.432403361 L38.3815209,0.432403361 C35.1170681,0.432403361 34.0730471,1.27381513 34.0730471,4.53055462 L34.0730471,6.44087395 L34.0619921,17.7565042 L38.0331545,17.7565042 L38.0331545,4.79865546 C38.0331545,3.65956303 38.6069346,3.42211765 39.8515628,3.42211765 L47.1222304,3.42211765 C48.3668586,3.42211765 48.9398298,3.65956303 48.9398298,4.79865546 L48.9398298,6.6452437 C48.9398298,7.78810084 48.3668586,8.02205042 47.1222304,8.02205042 L39.988267,8.02205042 L39.988267,11.008 L48.9398298,11.008 C51.5989555,11.008 52.8446623,10.0692437 52.8446623,7.65257143 L52.8446623,3.7902521 C52.8446623,1.37546218 51.5989555,0.432403361 48.9398298,0.432403361" id="Fill-14" fill="#FFFFFE"></path>
                        <g id="Group-18" transform="translate(0.000000, 1.344538)">
                            <mask id="mask-4" fill="white">
                                <use xlink:href="#path-3"></use>
                            </mask>
                            <g id="Clip-16"></g>
                            <path d="M65.1968429,14.7261849 C65.3481073,14.7261849 65.8388403,14.7019832 66.2041937,14.2943193 C66.5649634,13.8882689 66.5970497,13.8498151 66.6811754,13.7411765 C66.9238455,13.4276303 66.9162958,13.1619496 66.9162958,13.2116975 L66.9162958,12.9828571 C66.9162958,13.0315294 66.9238455,12.765042 66.6811754,12.4496134 C66.5970497,12.3436639 66.5649634,12.3065546 66.2041937,11.9005042 C65.8388403,11.490958 65.3481073,11.467563 65.1968429,11.467563 C65.0453089,11.467563 60.9606309,11.467563 60.8074791,11.467563 C60.655945,11.467563 60.1635942,11.490958 59.8022853,11.9005042 C59.4388194,12.3065546 59.4099686,12.3436639 59.325034,12.4496134 C59.0802068,12.765042 59.0891047,13.0315294 59.0891047,12.9828571 L59.0891047,13.2116975 C59.0891047,13.1619496 59.0802068,13.4276303 59.325034,13.7411765 C59.4099686,13.8498151 59.4388194,13.8882689 59.8022853,14.2943193 C60.1635942,14.7019832 60.655945,14.7261849 60.8074791,14.7261849 C60.9606309,14.7261849 65.0453089,14.7261849 65.1968429,14.7261849" id="Fill-15" fill="#FFFFFE" mask="url(#mask-4)"></path>
                            <path d="M6.10773822,3.28685714 C6.25981152,3.28685714 6.7513534,3.26184874 7.11374084,2.85472269 C7.47720681,2.44571429 7.50524869,2.40968067 7.58964398,2.30588235 C7.83581937,1.99045378 7.8247644,1.72020168 7.8247644,1.77532773 L7.8247644,1.54057143 C7.8247644,1.59220168 7.83581937,1.32732773 7.58964398,1.00894118 C7.50524869,0.902722689 7.47720681,0.866957983 7.11374084,0.461983193 C6.7513534,0.0516302521 6.25981152,0.0298487395 6.10773822,0.0298487395 C5.95593455,0.0298487395 1.87152618,0.0298487395 1.71864398,0.0298487395 C1.56495288,0.0298487395 1.07637696,0.0516302521 0.712910995,0.461983193 C0.348636126,0.866957983 0.320324607,0.902722689 0.23673822,1.00894118 C-0.0105157068,1.32732773 -1.44334414e-17,1.59220168 -1.44334414e-17,1.54057143 L-1.44334414e-17,1.77532773 C-1.44334414e-17,1.72020168 -0.0105157068,1.99045378 0.23673822,2.30588235 C0.320324607,2.40968067 0.348636126,2.44571429 0.712910995,2.85472269 C1.07637696,3.26184874 1.56495288,3.28685714 1.71864398,3.28685714 C1.87152618,3.28685714 5.95593455,3.28685714 6.10773822,3.28685714" id="Fill-17" fill="#FFFFFE" mask="url(#mask-4)"></path>
                        </g>
                        <path d="M97.1985654,15.5920672 L97.1985654,0.394756303 L93.3061361,0.394756303 L93.3061361,11.0547899 L93.3031702,11.0547899 L93.3031702,11.3597311 C93.3031702,11.5581849 93.269466,11.6560672 93.1626911,11.7278655 C93.011966,11.8249412 92.8313115,11.7773445 92.6714188,11.645042 C92.5088298,11.5068235 80.4686152,1.17620168 80.0776466,0.846252101 C79.930966,0.722823529 79.2080785,0.178016807 78.6655759,0.178016807 C78.6070654,0.178016807 78.5067618,0.174789916 78.4493298,0.178016807 C77.4592356,0.245781513 76.7444372,0.921008403 76.7433586,2.26554622 L76.7444372,2.56053782 L76.7444372,17.7565042 L80.6374058,17.7565042 L80.6374058,7.09431933 L80.6414503,7.09431933 L80.6414503,6.78937815 C80.6414503,6.59334454 80.6743455,6.49223529 80.7838168,6.4212437 C80.9340026,6.32282353 81.1146571,6.37203361 81.2732016,6.50379832 C81.4379476,6.64309244 93.4760052,16.9742521 93.8694005,17.3042017 C94.0168901,17.4270924 94.7397775,17.9718992 95.2814712,17.9718992 C95.3389031,17.9718992 95.4389372,17.9745882 95.4974476,17.9718992 C96.4875419,17.9033277 97.1993743,17.2267563 97.2026099,15.8827563 L97.1985654,15.5920672" id="Fill-19" fill="#FFFFFE"></path>
                        <g id="Group-29" transform="translate(1.617801, 0.268908)">
                            <mask id="mask-6" fill="white">
                                <use xlink:href="#path-5"></use>
                            </mask>
                            <g id="Clip-21"></g>
                            <path d="M99.7924398,1.60053782 C99.7924398,1.50642017 99.7646675,1.43946218 99.7112801,1.39563025 C99.6573534,1.35341176 99.5821257,1.33109244 99.4888325,1.33109244 L98.9803037,1.33109244 L98.9803037,1.87428571 L99.4888325,1.87428571 C99.6924058,1.87428571 99.7924398,1.78339496 99.7924398,1.60053782 Z M100.252435,1.58951261 C100.252435,1.77371429 100.209563,1.91112605 100.126785,2.00578151 C100.045356,2.09747899 99.9458613,2.16820168 99.8299188,2.20961345 L100.241919,3.04591597 L99.7323115,3.04591597 L99.3475445,2.26957983 L98.9803037,2.26957983 L98.9803037,3.04591597 L98.5297461,3.04591597 L98.5297461,0.920201681 L99.5211885,0.920201681 C99.7261099,0.920201681 99.9000236,0.975596639 100.039424,1.08531092 C100.181791,1.19502521 100.252435,1.36336134 100.252435,1.58951261 Z M100.927327,2.02164706 C100.927327,1.7954958 100.887961,1.58467227 100.805723,1.38621849 C100.72645,1.1912605 100.611586,1.01915966 100.466524,0.877176471 C100.324157,0.734655462 100.15294,0.621983193 99.9561073,0.539966387 C99.7603534,0.459294118 99.5486911,0.419495798 99.3205812,0.419495798 C99.0938194,0.419495798 98.8821571,0.459294118 98.6864031,0.539966387 C98.4887618,0.621983193 98.3183534,0.734655462 98.1732906,0.877176471 C98.0298455,1.01915966 97.9179476,1.1912605 97.8359791,1.38621849 C97.7542801,1.58467227 97.7141047,1.7954958 97.7141047,2.02164706 C97.7141047,2.24672269 97.7542801,2.45996639 97.8359791,2.656 C97.9179476,2.85095798 98.0298455,3.02090756 98.1732906,3.16504202 C98.3183534,3.30944538 98.4887618,3.42023529 98.6864031,3.50332773 C98.8821571,3.58184874 99.0938194,3.62460504 99.3205812,3.62460504 C99.5486911,3.62460504 99.7603534,3.58184874 99.9561073,3.50332773 C100.15294,3.42023529 100.324157,3.30944538 100.466524,3.16504202 C100.611586,3.02090756 100.72645,2.85095798 100.805723,2.656 C100.887961,2.45996639 100.927327,2.24672269 100.927327,2.02164706 Z M101.274346,2.02164706 C101.274346,2.29862185 101.225003,2.55596639 101.126047,2.79314286 C101.026552,3.03031933 100.889309,3.23603361 100.712429,3.40921008 C100.538785,3.58668908 100.333055,3.72006723 100.096586,3.82010084 C99.8566126,3.92013445 99.5991126,3.96880672 99.3205812,3.96880672 C99.0431283,3.96880672 98.7845497,3.92013445 98.546733,3.82010084 C98.308377,3.72006723 98.1034555,3.58668908 97.9276545,3.40921008 C97.7515838,3.23603361 97.6156885,3.03031933 97.5175419,2.79314286 C97.4175079,2.55596639 97.3670864,2.29862185 97.3670864,2.02164706 C97.3670864,1.74467227 97.4175079,1.48678992 97.5175419,1.24934454 C97.6156885,1.01216807 97.7515838,0.806184874 97.9276545,0.631932773 C98.1034555,0.457142857 98.308377,0.31892437 98.546733,0.221042017 C98.7845497,0.123159664 99.0431283,0.0739495798 99.3205812,0.0739495798 C99.5991126,0.0739495798 99.8566126,0.123159664 100.096586,0.221042017 C100.333055,0.31892437 100.538785,0.457142857 100.712429,0.631932773 C100.889309,0.806184874 101.026552,1.01216807 101.126047,1.24934454 C101.225003,1.48678992 101.274346,1.74467227 101.274346,2.02164706 Z" id="Fill-20" fill="#FFFFFE" mask="url(#mask-6)"></path>
                            <polyline id="Fill-22" fill="#FFFFFE" mask="url(#mask-6)" points="18.615767 27.1771429 13.3155812 21.5577815 16.48 21.5577815 19.9787644 25.4617815 23.4974817 21.5577815 26.2860314 21.5577815 21.0063377 27.1204034 21.0063377 31.7310924 18.615767 31.7310924 18.615767 27.1771429"></polyline>
                            <polyline id="Fill-23" fill="#FFFFFE" mask="url(#mask-6)" points="48.4321099 31.7310924 46.0598743 31.7310924 46.0598743 23.3191261 41.370678 23.3191261 41.370678 21.5577815 53.136945 21.5577815 53.136945 23.3191261 48.4321099 23.3191261 48.4321099 31.7310924"></polyline>
                            <path d="M8.88280628,25.5195966 L3.43216492,25.5195966 C2.80607592,25.5002353 2.51810733,25.3362017 2.51810733,24.7152941 L2.51810733,24.4888739 L2.51595026,24.4888739 L2.51595026,24.1078319 C2.52808377,23.4678319 2.86458639,23.333916 3.58342932,23.333916 L8.26992932,23.333916 C8.90329843,23.3511261 9.19854712,23.5151597 9.19854712,24.1398319 L9.19854712,24.4961345 L11.2968351,24.5109244 L11.2968351,23.7854118 C11.2968351,22.0278319 10.5839241,21.5556303 8.76281937,21.5556303 L2.97217016,21.5556303 C1.05103141,21.5556303 0.438693717,22.0498824 0.438693717,23.9634286 L0.438693717,25.085042 C0.438693717,27.0010084 1.05103141,27.4917647 2.97217016,27.4917647 L8.34084293,27.4917647 C9.00495026,27.5022521 9.32096073,27.6461176 9.33794764,28.2490084 L9.33794764,29.0624538 C9.32096073,29.6475966 9.02786911,29.8008739 8.41175654,29.821042 L3.05548691,29.821042 C2.41672513,29.8008739 2.12282461,29.6411429 2.12282461,29.0145882 L2.12282461,28.7887059 L2.12039791,28.7887059 L2.12039791,28.6174118 L0.0248062827,28.622521 L0.0248062827,29.3284034 C0.0248062827,31.237916 0.657366492,31.7310924 2.5741911,31.7310924 L8.88280628,31.7310924 C10.7999005,31.7310924 11.4346178,31.237916 11.4346178,29.3284034 L11.4346178,27.9276639 C11.4346178,26.0154622 10.7999005,25.5195966 8.88280628,25.5195966" id="Fill-24" fill="#FFFFFE" mask="url(#mask-6)"></path>
                            <path d="M36.3166675,25.5195966 L30.8679136,25.5195966 C30.2418246,25.5002353 29.9533168,25.3362017 29.9533168,24.7152941 L29.9533168,24.4888739 L29.9498115,24.4888739 L29.9498115,24.1078319 C29.9622147,23.4678319 30.3003351,23.333916 31.016212,23.333916 L35.7054084,23.333916 C36.3387775,23.3511261 36.6315995,23.5151597 36.6315995,24.1398319 L36.6315995,24.3366723 L36.6342958,24.3366723 L36.6342958,24.4961345 L38.7296178,24.5109244 L38.7296178,23.7854118 C38.7296178,22.0278319 38.0194031,21.5556303 36.1982984,21.5556303 L30.4065707,21.5556303 C28.4854319,21.5556303 27.8739031,22.0498824 27.8739031,23.9634286 L27.8739031,25.085042 C27.8739031,27.0010084 28.4854319,27.4917647 30.4065707,27.4917647 L35.776322,27.4917647 C36.437733,27.5022521 36.7559005,27.6461176 36.7723482,28.2490084 L36.7723482,29.0624538 C36.7559005,29.6475966 36.4633482,29.8008739 35.846966,29.821042 L30.4893482,29.821042 C29.8519346,29.8008739 29.5566859,29.6411429 29.5566859,29.0145882 L29.5566859,28.7887059 L29.5542592,28.7887059 L29.5542592,28.6174118 L27.4589372,28.622521 L27.4589372,29.3284034 C27.4589372,31.237916 28.0901492,31.7310924 30.0096702,31.7310924 L36.3166675,31.7310924 C38.2351099,31.7310924 38.8687487,31.237916 38.8687487,29.3284034 L38.8687487,27.9276639 C38.8687487,26.0154622 38.2351099,25.5195966 36.3166675,25.5195966" id="Fill-25" fill="#FFFFFE" mask="url(#mask-6)"></path>
                            <path d="M93.1818351,25.5195966 L87.7325419,25.5195966 C87.1064529,25.5002353 86.8163272,25.3362017 86.8163272,24.7152941 L86.8163272,24.4888739 L86.8136309,24.4888739 L86.8136309,24.1078319 C86.8241466,23.4678319 87.1638848,23.333916 87.8813796,23.333916 L92.5686885,23.333916 C93.2023272,23.3511261 93.4964974,23.5151597 93.4964974,24.1398319 L93.4964974,24.3366723 L93.4991937,24.3366723 L93.4991937,24.4961345 L95.5945157,24.5109244 L95.5945157,23.7854118 C95.5945157,22.0278319 94.8818743,21.5556303 93.0629267,21.5556303 L87.2698508,21.5556303 C85.3497906,21.5556303 84.738801,22.0498824 84.738801,23.9634286 L84.738801,25.085042 C84.738801,27.0010084 85.3497906,27.4917647 87.2698508,27.4917647 L92.6396021,27.4917647 C93.3037094,27.5022521 93.6210681,27.6461176 93.6364372,28.2490084 L93.6364372,29.0624538 C93.6210681,29.6475966 93.3279764,29.8008739 92.713212,29.821042 L87.355055,29.821042 C86.7171021,29.8008739 86.4202356,29.6411429 86.4202356,29.0145882 L86.4202356,28.7887059 L86.4188874,28.7887059 L86.4188874,28.6174118 L84.3224869,28.622521 L84.3224869,29.3284034 C84.3224869,31.237916 84.955856,31.7310924 86.8734895,31.7310924 L93.1818351,31.7310924 C95.0978508,31.7310924 95.7339162,31.237916 95.7339162,29.3284034 L95.7339162,27.9276639 C95.7339162,26.0154622 95.0978508,25.5195966 93.1818351,25.5195966" id="Fill-26" fill="#FFFFFE" mask="url(#mask-6)"></path>
                            <path d="M79.572623,31.7310924 L81.7682487,31.7310924 L81.7623168,22.5855462 C81.7623168,21.9191933 81.2114555,21.3719664 80.543034,21.3719664 C80.1242932,21.3719664 79.7546257,21.5774118 79.5367618,21.9001008 C79.5367618,21.9001008 75.4210759,27.3796303 75.3267042,27.496605 C75.2331414,27.6111597 75.1034476,27.6028235 75.0007173,27.4987563 C74.8982565,27.3957647 71.0079843,22.2859832 71.0079843,22.2859832 L70.6892775,21.8842353 C70.4673691,21.5731092 70.0987801,21.3719664 69.684623,21.3719664 C69.0075733,21.3719664 68.4397251,21.8914958 68.4397251,22.5707563 L68.4397251,31.7310924 L70.3578979,31.7310924 L70.3578979,25.4432269 C70.3578979,25.1076303 70.3414503,24.7725714 70.2985785,24.3573782 C70.4587408,24.7529412 70.6757958,25.0863866 70.9136126,25.4042353 C70.9136126,25.4042353 74.7558901,30.3163697 74.8518796,30.4198992 C75.0360393,30.6159328 75.2973141,30.6159328 75.4806649,30.3814454 C75.5879791,30.2448403 79.0600497,25.4235966 79.0600497,25.4235966 C79.2369293,25.1850756 79.4348403,24.8129076 79.6529738,24.3573782 C79.5920366,24.8906218 79.572623,25.2447731 79.572623,25.4432269 L79.572623,31.7310924" id="Fill-27" fill="#FFFFFE" mask="url(#mask-6)"></path>
                            <path d="M57.4389476,28.4375126 L57.4389476,28.6642017 L57.4354424,28.6642017 L57.4354424,29.0543866 C57.4475759,29.6946555 57.7856963,29.8288403 58.5021126,29.8288403 L65.3810026,29.8288403 L65.6083037,29.8309916 L65.6083037,31.7310924 L57.8711702,31.7310924 C55.9365497,31.7310924 55.0605105,31.0090756 55.0605105,29.1581849 L55.0605105,24.1212773 C55.0605105,22.269042 55.9365497,21.5448739 57.8711702,21.5448739 L65.3810026,21.5448739 L65.3810026,23.3242353 L58.5021126,23.333916 C57.7856963,23.333916 57.4475759,23.4678319 57.4354424,24.1078319 L57.4354424,24.4888739 L57.4389476,24.4888739 L57.4389476,24.7152941 L57.4421832,25.5123361 L64.2037827,25.5123361 L64.2037827,27.4810084 L57.4421832,27.4810084 L57.4389476,28.4375126" id="Fill-28" fill="#FFFFFE" mask="url(#mask-6)"></path>
                        </g>
                    </g>
                </g>
            </g>
        </g>
    </g>
</svg>