<?xml version="1.0" encoding="utf-8"?>
<!-- Generator: Adobe Illustrator 23.0.6, SVG Export Plug-In . SVG Version: 6.00 Build 0)  -->
<svg version="1.1" id="Ebene_1" xmlns="http://www.w3.org/2000/svg" xmlns:xlink="http://www.w3.org/1999/xlink" x="0px" y="0px"
	 viewBox="0 0 220 42.4" style="enable-background:new 0 0 220 42.4;" xml:space="preserve">
<style type="text/css">
	.st0{fill:#5F5F5F;}
	.st1{fill:#009B8B;}
</style>
<g>
	<path class="st0" d="M56.1,22.3c0,1.9-0.6,2.5-2.6,2.5h-5.8v-6.1h5.8c2.1,0,2.6,0.7,2.6,2.1V22.3z M55.6,13.6c0,2-0.7,2.6-2.1,2.6
		h-5.8v-5.6h5.3c2.1,0,2.6,0.6,2.6,2.6V13.6z M58.7,22.3v-1.5c0-1.8-0.9-3-1.7-3.6c0.8-0.8,1.2-2.2,1.2-3.6v-0.5
		c0-3.4-1.9-5.2-5.3-5.2h-8v19.6h8.5C56.8,27.5,58.7,25.7,58.7,22.3"/>
</g>
<polygon class="st0" points="73.3,27.5 73.3,24.9 63.7,24.9 63.7,18.7 71.8,18.7 71.8,16.1 63.7,16.1 63.7,10.5 73.3,10.5 73.3,7.9 
	61,7.9 61,27.5 "/>
<g>
	<path class="st0" d="M86.3,14.5c0,1.6-0.8,2.6-2.1,2.6h-6v-6.6h5c2.5,0,3.1,0.6,3.1,3V14.5z M89,27.5l-2.8-8.2
		c1.7-0.6,2.8-2.6,2.8-4.8v-1c0-3.9-1.9-5.7-5.8-5.7h-7.6v19.6h2.6v-7.8h5.5l2.5,7.8H89z"/>
</g>
<polygon class="st0" points="102.3,27.5 102.3,24.9 93.7,24.9 93.7,7.9 91.1,7.9 91.1,27.5 "/>
<rect x="104" y="7.9" class="st0" width="2.6" height="19.6"/>
<polygon class="st0" points="123.1,27.5 123.1,7.9 120.4,7.9 120.4,22.3 111.6,7.9 109.4,7.9 109.4,27.5 112,27.5 112,13.1 
	120.8,27.5 "/>
<polygon class="st0" points="137.5,27.5 137.5,24.9 127.8,24.9 127.8,18.7 136,18.7 136,16.1 127.8,16.1 127.8,10.5 137.5,10.5 
	137.5,7.9 125.2,7.9 125.2,27.5 "/>
<g>
	<path class="st0" d="M150.5,14.5c0,1.6-0.8,2.6-2.2,2.6h-6v-6.6h5c2.5,0,3.1,0.6,3.1,3V14.5z M153.2,27.5l-2.8-8.2
		c1.7-0.6,2.8-2.6,2.8-4.8v-1c0-3.9-1.9-5.7-5.8-5.7h-7.6v19.6h2.6v-7.8h5.5l2.5,7.8H153.2z"/>
	<path class="st0" d="M175.7,22.4v-6.1h-6.8v2.6h4.2v3.5c0,1.5-1.1,2.6-2.6,2.6h-2.9c-3,0-4.1-1.1-4.1-4v-6.8c0-2.4,1.1-3.7,4.7-3.7
		c3.4,0,6.6,0.8,6.6,0.8V8.7c0,0-2.5-0.9-6.6-0.9c-4.8,0-7.3,2.4-7.3,6.3v6.8c0,4.4,2.4,6.7,6.8,6.7h2.9
		C173.3,27.6,175.7,25.3,175.7,22.4"/>
</g>
<polygon class="st0" points="188,27.5 188,24.9 180.4,24.9 180.4,7.9 177.7,7.9 177.7,27.5 "/>
<path class="st0" d="M199.7,18.8H195l2.3-6.4L199.7,18.8z M205.8,27.5l-7.3-19.6h-2.2l-7.3,19.6h3l2.1-6h6.7l2.1,6H205.8z"/>
<g>
	<path class="st0" d="M220,22c0-7.9-11.1-3.8-11.1-8.9c0-1.7,0.7-2.8,4.2-2.8c1.6,0,4.4,0.5,5.6,0.9V8.5c-1.2-0.4-3.4-0.8-5.6-0.8
		c-4.8,0-6.8,2.5-6.8,5.5c0,7.7,11.1,4.1,11.1,8.9c0,2.3-0.9,3.2-4.4,3.2c-1.8,0-4.9-0.6-6.2-1v2.7c1,0.3,4.5,0.9,6.2,0.9
		C217.8,27.8,220,26,220,22"/>
	<path class="st1" d="M31.6,31.9c-7-0.9-12.5-6.9-12.5-14.2S24.6,4.4,31.6,3.5v2.4c-5.7,0.9-10.1,5.8-10.1,11.8c0,5,3.1,9.3,7.5,11
		V16.3h2.5V31.9z M15.9,17.7c0,5.9-4,11-9.7,13.4c-0.8,0.3-1.6,0.6-2.5,0.8v-1.4v-0.9v-0.3v-2.6v-6.7v-3.7h2.5v3.7v4.7v3v0.8
		c4.3-2.2,7.2-6.3,7.2-10.9c0-0.4,0-0.9-0.1-1.3H13h-0.6h-1.7H9.8c0-0.7-0.1-1.5-0.2-2.2c-0.7-3.4-2.9-6.3-6-8.2V3.5
		c4.5,2.2,7.7,6.1,8.5,10.7H13h1.8h0.6c0.2,0.7,0.3,1.4,0.4,2.2C15.9,16.8,15.9,17.3,15.9,17.7 M35.4,0H0v35.4h35.4V0z"/>
	<path class="st0" d="M161.3,36.7v1.1c0,0.7-0.3,1-1.2,1h-1.7v-3.1h1.7C161,35.7,161.3,36,161.3,36.7 M157.4,42.3h1v-2.7h1.7
		c1.6,0,2.2-0.7,2.2-1.9v-1.1c0-1.1-0.6-1.8-2.2-1.8h-2.7V42.3z M154.3,34.9v5.3c0,0.9-0.5,1.4-1.7,1.4c-1.2,0-1.7-0.5-1.7-1.4v-5.3
		h-1v5.4c0,1.2,0.7,2.2,2.6,2.2c1.9,0,2.6-1,2.6-2.2v-5.4H154.3z M143.5,37c0-0.9,0.6-1.4,1.7-1.4c1.2,0,1.7,0.5,1.7,1.4v3.1
		c0,0.9-0.6,1.4-1.7,1.4c-1.2,0-1.7-0.5-1.7-1.4V37z M147.9,37c0-1.2-0.8-2.3-2.7-2.3c-1.9,0-2.7,1-2.7,2.3v3.2
		c0,1.2,0.8,2.3,2.7,2.3c1.9,0,2.7-1,2.7-2.3V37z M139.5,36.7v1.1c0,0.7-0.3,1-1.2,1h-1.9v-3.1h1.9C139.2,35.7,139.5,36,139.5,36.7
		 M140.1,42.3h1.1l-1.9-2.8c0.9-0.2,1.2-0.9,1.2-1.7v-1.1c0-1.1-0.6-1.8-2.2-1.8h-2.8v7.5h1v-2.7h1.8L140.1,42.3z M129.4,37
		c0-1,0.4-1.4,1.6-1.4c0.6,0,1.3,0.1,2,0.2l0.1-0.8c-0.7-0.2-1.4-0.2-2.1-0.2c-1.9,0-2.6,0.7-2.6,2.2v3.3c0,1.4,0.6,2.2,2.5,2.2
		c0.8,0,1.6-0.1,2.4-0.3v-3.2h-0.9v2.5c-0.5,0.1-1,0.1-1.4,0.1c-1.3,0-1.6-0.4-1.6-1.4V37z M123.9,40.4c0-1.5-0.1-1.8-2.1-2.2
		c-1.5-0.4-1.5-0.4-1.5-1.4c0-0.9,0.2-1.1,1.4-1.1c0.6,0,1.3,0.1,1.9,0.2l0.1-0.8c-0.6-0.2-1.4-0.2-2-0.2c-1.9,0-2.4,0.6-2.4,1.9
		c0,1.5,0.2,1.9,2,2.3c1.5,0.3,1.5,0.4,1.5,1.4c0,0.9-0.2,1.2-1.4,1.2c-0.7,0-1.4-0.1-2.1-0.3l-0.2,0.8c0.6,0.3,1.5,0.4,2.2,0.4
		C123.5,42.4,123.9,41.7,123.9,40.4 M116.1,39.7h-2.7l1.3-4.1L116.1,39.7z M115.4,34.9h-1.3l-2.5,7.5h1l0.6-1.8h3.2l0.6,1.8h1
		L115.4,34.9z M107,34.9h-1v7.5h4.2v-0.9H107V34.9z M100,37c0-1,0.4-1.4,1.6-1.4c0.6,0,1.3,0.1,2,0.2l0.1-0.8
		c-0.7-0.2-1.4-0.2-2.1-0.2c-1.9,0-2.6,0.7-2.6,2.2v3.3c0,1.4,0.6,2.2,2.5,2.2c0.8,0,1.6-0.1,2.4-0.3v-3.2h-0.9v2.5
		c-0.5,0.1-1,0.1-1.4,0.1c-1.3,0-1.6-0.4-1.6-1.4V37z M93.1,36.7v1.1c0,0.7-0.3,1-1.2,1H90v-3.1h1.9C92.7,35.7,93.1,36,93.1,36.7
		 M93.7,42.3h1.1l-1.9-2.8c0.9-0.2,1.2-0.9,1.2-1.7v-1.1c0-1.1-0.6-1.8-2.2-1.8H89v7.5h1v-2.7h1.8L93.7,42.3z M82.6,42.3H87v-0.9
		h-3.4v-2.5h3.2v-0.9h-3.2v-2.3H87v-0.9h-4.4V42.3z M79,42.3h1.3v-7.5h-0.9v6.4l-3.3-6.4h-1.3v7.5h0.9V36L79,42.3z M72.6,34.9h-1
		v7.5h1V34.9z M66.6,34.9h-1v7.5h4.2v-0.9h-3.2V34.9z M62.2,36.7v1.1c0,0.7-0.3,1-1.2,1h-1.9v-3.1H61C61.9,35.7,62.2,36,62.2,36.7
		 M62.8,42.3h1.1L62,39.5c0.9-0.2,1.2-0.9,1.2-1.7v-1.1c0-1.1-0.6-1.8-2.2-1.8h-2.8v7.5h1v-2.7H61L62.8,42.3z M51.8,42.3h4.4v-0.9
		h-3.4v-2.5h3.2v-0.9h-3.2v-2.3h3.4v-0.9h-4.4V42.3z M48.7,37.2c0,0.5-0.3,0.9-1,0.9H46v-2.4h1.9c0.6,0,0.9,0.2,0.9,0.7V37.2z
		 M49,40.6c0,0.6-0.3,0.9-1,0.9H46v-2.6h1.9c0.7,0,1.1,0.3,1.1,0.9V40.6z M48.1,42.3c1.1,0,1.9-0.6,1.9-1.6v-0.9
		c0-0.8-0.4-1.2-1.1-1.3c0.7-0.2,0.9-0.7,0.9-1.2v-0.9c0-1-0.6-1.5-1.8-1.5H45v7.5H48.1z"/>
</g>
</svg>
