<svg xmlns="http://www.w3.org/2000/svg" viewBox="0 0 166.3 37.86">
    <path d="M0 9.984v7.876h37.862V9.984H0" fill="#2b923e"/>
    <path d="M37.862 7.86V0H0v7.86h37.862" fill="#1a5337"/>
    <path d="M0 29.985v7.875h37.862v-7.875H0" fill="#abdc50"/>
    <path d="M37.862 27.86v-7.875H0v7.875h37.862" fill="#76c92b"/>
    <path d="M55.17 8.865c0-3.08-2.194-5.39-5.006-5.39-2.753 0-5.005 2.367-5.005 5.39 0 3.042 2.252 5.391 5.005 5.391.905 0 1.753-.25 2.485-.693l-1.869-2.002h2.196l.885.963a5.656 5.656 0 001.31-3.659zm-.212 4.833l1.81 1.907h-2.195l-.827-.867a6.348 6.348 0 01-3.582 1.098c-3.659 0-6.624-3.062-6.624-6.97 0-3.89 2.965-6.951 6.624-6.951 3.716 0 6.624 2.984 6.624 6.95 0 1.868-.693 3.581-1.83 4.833M64.076 14.256c2.252 0 3.485-1.462 3.485-3.446V2.242h1.637v8.568c0 2.965-2.08 5.026-5.122 5.026-3.061 0-5.122-2.061-5.122-5.026V2.242h1.617v8.568c0 1.984 1.272 3.446 3.505 3.446M75.991 4.245l-2.176 5.949h4.313zm-2.735 7.47l-1.424 3.89H70.06l5.045-13.363h1.848l4.95 13.363h-1.83l-1.406-3.89h-5.41M85.047 3.801v10.224h3.312c2.464 0 4.39-1.52 4.39-5.12 0-3.66-1.945-5.104-4.39-5.104zM83.41 2.242h4.948c3.696 0 6.064 2.522 6.064 6.662 0 4.14-2.368 6.7-6.064 6.7H83.41V2.243M102.688 8.75c1.579 0 2.619-.943 2.619-2.465 0-1.732-1.04-2.484-2.676-2.484h-4.275V8.75zm4.139 6.855h-1.655c-.155-.366-.25-.828-.25-1.445V12.33c0-1.29-.674-2.002-2.195-2.002h-4.371v5.276h-1.637V2.242h5.912c2.733 0 4.332 1.655 4.332 4.043 0 1.425-.695 2.58-1.83 3.235.904.539 1.404 1.464 1.404 2.811v1.656c0 .5.136 1.232.29 1.618M114.065 4.245l-2.176 5.949h4.314zm-2.734 7.47l-1.424 3.89h-1.771l5.044-13.363h1.85l4.947 13.363h-1.83l-1.404-3.89h-5.412M124.513 3.801v11.804h-1.637V3.8h-4.197V2.242h10.032v1.56h-4.198M139.86 2.242v1.56h-7.915v4.043h7.144v1.56h-7.144v4.62h7.915v1.58h-9.55V2.242h9.55M147.564 15.836c-3.659 0-6.624-3.12-6.624-6.97 0-3.832 2.965-6.951 6.624-6.951 3.041 0 5.275 1.81 6.123 4.447h-1.714c-.732-1.675-2.233-2.888-4.41-2.888-2.752 0-5.006 2.445-5.006 5.391s2.254 5.391 5.007 5.391c1.964 0 3.6-1.116 4.41-2.888h1.713c-.906 2.715-3.255 4.468-6.123 4.468M166.3 2.242v13.363h-1.617v-6.22h-7.316v6.22h-1.638V2.242h1.638v5.565h7.316V2.242h1.617M45.254 23.912v10.224h3.312c2.464 0 4.39-1.52 4.39-5.12 0-3.66-1.945-5.104-4.39-5.104zm-1.637-1.56h4.95c3.696 0 6.064 2.523 6.064 6.664 0 4.139-2.368 6.699-6.065 6.699h-4.949V22.353M58.647 35.715h-1.636V22.353h1.636v13.362M66.11 24.355l-2.175 5.95h4.312zm-2.734 7.47l-1.424 3.89h-1.77l5.044-13.362h1.847l4.949 13.362h-1.83l-1.405-3.89h-5.41M85.37 28.437v7.278h-1.577v-2.271c-.964 1.444-2.638 2.502-4.91 2.502-3.679 0-6.643-3.12-6.643-6.97 0-3.832 2.964-6.95 6.643-6.95 2.849 0 5.16 1.714 6.142 4.448h-1.733c-.847-1.792-2.445-2.87-4.41-2.87-2.771 0-5.025 2.445-5.025 5.373 0 2.945 2.254 5.39 5.026 5.39 2.849 0 4.6-2.117 4.89-4.351H78.98v-1.579h6.392M98.465 35.715h-1.81l-7.182-10.878v10.878h-1.637V22.353h1.83l7.182 10.859v-10.86h1.617v13.363M112.39 28.977c0-3.081-2.195-5.391-5.006-5.391-2.753 0-5.007 2.367-5.007 5.39 0 3.042 2.254 5.391 5.007 5.391 2.753 0 5.005-2.367 5.005-5.39zm1.618 0c0 3.889-2.967 6.97-6.624 6.97-3.659 0-6.624-3.062-6.624-6.97 0-3.89 2.965-6.951 6.624-6.951 3.716 0 6.624 2.984 6.624 6.95M120.45 35.946c-3.08 0-5.102-1.79-5.102-4.467h1.693c0 1.79 1.387 2.907 3.41 2.907 2.292 0 3.408-.962 3.408-2.464 0-1.116-.5-1.887-3.447-2.387-2.965-.52-4.659-1.444-4.659-3.736 0-2.291 1.83-3.773 4.659-3.773 2.927 0 4.736 1.578 4.736 4.159h-1.656c0-1.56-1.059-2.6-3.061-2.6-2.06 0-3.022.905-3.022 2.157 0 1.155.616 1.732 3.35 2.233 2.926.559 4.736 1.387 4.736 3.947 0 2.618-2.06 4.024-5.044 4.024M132.15 23.912v11.803h-1.637V23.912h-4.198v-1.56h10.032v1.56h-4.198M139.639 35.715H138V22.353h1.638v13.362M148.543 35.946c-3.66 0-6.623-3.12-6.623-6.97 0-3.832 2.964-6.95 6.623-6.95 3.042 0 5.276 1.81 6.124 4.448h-1.715c-.732-1.676-2.233-2.888-4.41-2.888-2.751 0-5.005 2.444-5.005 5.39 0 2.946 2.254 5.391 5.006 5.391 1.964 0 3.6-1.116 4.409-2.888h1.715c-.907 2.715-3.254 4.467-6.124 4.467M161.032 35.946c-3.081 0-5.103-1.79-5.103-4.467h1.695c0 1.79 1.385 2.907 3.408 2.907 2.29 0 3.407-.962 3.407-2.464 0-1.116-.5-1.887-3.446-2.387-2.965-.52-4.66-1.444-4.66-3.736 0-2.291 1.83-3.773 4.66-3.773 2.927 0 4.736 1.578 4.736 4.159h-1.654c0-1.56-1.06-2.6-3.063-2.6-2.06 0-3.023.905-3.023 2.157 0 1.155.616 1.732 3.35 2.233 2.926.559 4.737 1.387 4.737 3.947 0 2.618-2.06 4.024-5.044 4.024" fill="#fff"/>
</svg>