<svg xmlns="http://www.w3.org/2000/svg" width="145" height="36" viewBox="0 0 145 36">
    <g fill="none" fill-rule="evenodd">
        <g>
            <g>
                <g>
                    <path fill="#3A3B38" d="M28.617 26.818L28.617 34.02 26.625 34.02 26.625 26.818 24.096 26.818 24.096 25.094 31.145 25.094 31.145 26.818 28.617 26.818M41.732 29.506c0-.797-.256-1.476-.767-2.037-.51-.562-1.139-.843-1.884-.843-.745 0-1.372.281-1.883.843-.51.561-.766 1.24-.766 2.037 0 .796.255 1.472.766 2.03.51.558 1.138.837 1.883.837.745 0 1.373-.28 1.884-.837.511-.558.767-1.234.767-2.03zm.676 3.281c-.902.882-2.013 1.322-3.333 1.322-1.32 0-2.43-.44-3.333-1.322-.903-.88-1.353-1.976-1.353-3.287 0-1.312.45-2.407 1.353-3.289.902-.881 2.013-1.322 3.333-1.322 1.32 0 2.43.44 3.333 1.322.903.882 1.354 1.977 1.354 3.289 0 1.311-.451 2.407-1.354 3.287zM50.109 31.715c.332.413.779.62 1.34.62.563 0 1.007-.207 1.335-.62.328-.413.491-.977.491-1.692v-4.93h1.993v4.994c0 1.294-.358 2.287-1.072 2.982-.716.694-1.631 1.04-2.746 1.04-1.116 0-2.033-.349-2.752-1.047-.72-.698-1.08-1.689-1.08-2.975v-4.993h1.993v4.93c0 .714.166 1.278.498 1.69M63.735 32.257c.979 0 1.779-.386 2.4-1.161l1.277 1.315c-1.013 1.14-2.207 1.71-3.582 1.71s-2.507-.433-3.397-1.302c-.89-.868-1.334-1.964-1.334-3.288 0-1.323.453-2.428 1.36-3.314.907-.885 2.015-1.328 3.326-1.328 1.465 0 2.69.558 3.678 1.674l-1.239 1.404c-.63-.783-1.413-1.175-2.349-1.175-.75 0-1.39.245-1.922.734-.532.49-.798 1.15-.798 1.98 0 .83.251 1.496.753 1.998.503.503 1.111.753 1.827.753M74.947 27.75l-1.124 2.592h2.235l-1.111-2.592zm2.695 6.27l-.83-1.928h-3.743l-.83 1.928h-2.12l3.858-8.926h1.928l3.856 8.926h-2.12zM89.339 25.094L91.331 25.094 91.331 34.02 89.339 34.02 85.087 28.427 85.087 34.02 83.095 34.02 83.095 25.094 84.958 25.094 89.339 30.84 89.339 25.094M105.276 26.818L105.276 34.02 103.284 34.02 103.284 26.818 100.755 26.818 100.755 25.094 107.805 25.094 107.805 26.818 105.276 26.818M118.39 29.506c0-.797-.254-1.476-.766-2.037-.51-.562-1.138-.843-1.883-.843-.745 0-1.373.281-1.883.843-.512.561-.767 1.24-.767 2.037 0 .796.255 1.472.767 2.03.51.558 1.138.837 1.883.837.745 0 1.373-.28 1.883-.837.512-.558.767-1.234.767-2.03zm.678 3.281c-.902.882-2.013 1.322-3.334 1.322-1.319 0-2.43-.44-3.332-1.322-.903-.88-1.354-1.976-1.354-3.287 0-1.312.451-2.407 1.354-3.289.902-.881 2.013-1.322 3.332-1.322 1.32 0 2.432.44 3.334 1.322.902.882 1.353 1.977 1.353 3.289 0 1.311-.45 2.407-1.353 3.287zM128.506 32.257c.978 0 1.779-.386 2.4-1.161l1.277 1.315c-1.013 1.14-2.208 1.71-3.582 1.71-1.376 0-2.508-.433-3.398-1.302-.889-.868-1.334-1.964-1.334-3.288 0-1.323.453-2.428 1.361-3.314.906-.885 2.015-1.328 3.327-1.328 1.463 0 2.69.558 3.678 1.674l-1.24 1.404c-.63-.783-1.413-1.175-2.35-1.175-.749 0-1.39.245-1.921.734-.532.49-.799 1.15-.799 1.98 0 .83.251 1.496.755 1.998.501.503 1.11.753 1.826.753M142.884 29.506c0-.797-.254-1.476-.766-2.037-.51-.562-1.139-.843-1.883-.843-.745 0-1.373.281-1.884.843-.51.561-.767 1.24-.767 2.037 0 .796.257 1.472.767 2.03.511.558 1.139.837 1.884.837.744 0 1.372-.28 1.883-.837.512-.558.766-1.234.766-2.03zm.677 3.281c-.902.882-2.013 1.322-3.332 1.322-1.32 0-2.431-.44-3.333-1.322-.904-.88-1.354-1.976-1.354-3.287 0-1.312.45-2.407 1.354-3.289.902-.881 2.013-1.322 3.333-1.322 1.319 0 2.43.44 3.332 1.322.903.882 1.354 1.977 1.354 3.289 0 1.311-.45 2.407-1.354 3.287zM0 17.76C0 7.952 7.952 0 17.761 0l.024 17.736c0 9.809-7.952 17.76-17.761 17.76L0 17.762" transform="translate(-250.000000, -414.000000) translate(100.000000, 369.000000) translate(150.000000, 45.000000)"/>
                    <path fill="#A0D1C5" d="M17.785 17.742V0c9.81 0 17.76 7.951 17.76 17.76l-17.76-.018" transform="translate(-250.000000, -414.000000) translate(100.000000, 369.000000) translate(150.000000, 45.000000)"/>
                    <path fill="#FFFFFE" d="M13.002 7.49c.601 0 1.089.488 1.089 1.09 0 .602-.488 1.09-1.09 1.09-.6 0-1.089-.488-1.089-1.09 0-.602.488-1.09 1.09-1.09" transform="translate(-250.000000, -414.000000) translate(100.000000, 369.000000) translate(150.000000, 45.000000)"/>
                    <path fill="#E7C229" d="M13.002 12.765c-2.312 0-4.186-1.874-4.186-4.185 0-2.312 1.874-4.187 4.186-4.187 2.311 0 4.185 1.875 4.185 4.187 0 2.311-1.874 4.185-4.185 4.185zm0-9.155c-2.745 0-4.97 2.225-4.97 4.97 0 2.744 2.225 4.97 4.97 4.97 2.744 0 4.968-2.226 4.968-4.97 0-2.745-2.224-4.97-4.968-4.97z" transform="translate(-250.000000, -414.000000) translate(100.000000, 369.000000) translate(150.000000, 45.000000)"/>
                    <path fill="#E7C229" d="M11.967 13.881c.017.166-.029.35-.183.438-.139.08-.36-.079-.446-.176-.141-.162-.155-.376-.047-.557.074-.123.21-.224.357-.185.236.06.303.34.319.55l.33-.09c-.193-.533-.707-.546-1.164-.332-.033.016-.11.077-.038.098.075.024.166-.007.233-.038.305-.144.539.086.639.362.03.086.338.002.33-.09-.026-.357-.207-.62-.585-.62-.301 0-.63.174-.773.442-.187.347.117.705.451.783.435.102.958-.192.908-.674-.009-.076-.342-.01-.331.09" transform="translate(-250.000000, -414.000000) translate(100.000000, 369.000000) translate(150.000000, 45.000000)"/>
                    <path fill="#E7C229" d="M11.565 14.238c3.837 6.967-5.146 13.06-11.541 13.06-.019 0 .003.048-.007.098-.007.041-.005.394 0 .394 6.49 0 16.139-6.585 11.929-13.655-.064-.107-.423.03-.38.103" transform="translate(-250.000000, -414.000000) translate(100.000000, 369.000000) translate(150.000000, 45.000000)"/>
                </g>
            </g>
        </g>
    </g>
</svg>
