<svg xmlns="http://www.w3.org/2000/svg" xmlns:xlink="http://www.w3.org/1999/xlink" width="279.139" height="74.393" viewBox="0 0 279.139 74.393">
  <defs>
    <filter id="Trazado_21" x="181.256" y="53.448" width="1.197" height="1.04" filterUnits="userSpaceOnUse">
      <feOffset dx="-0.783" dy="0.626" input="SourceAlpha"/>
      <feGaussianBlur stdDeviation="0.138" result="blur"/>
      <feFlood flood-color="#222220" flood-opacity="0.349"/>
      <feComposite operator="in" in2="blur"/>
      <feComposite in="SourceGraphic"/>
    </filter>
  </defs>
  <g id="Grupo_5" data-name="Grupo 5" transform="translate(-943.083 -1206.566)">
    <g id="Grupo_4" data-name="Grupo 4">
      <path id="Trazado_1" data-name="Trazado 1" d="M952.229,1215.689l-9.146-9.124,68.209.014,8.743,8.728L998.526,1261.9l-8.345-8.328,18.8-38.714Z" fill="#fff"/>
      <path id="Trazado_2" data-name="Trazado 2" d="M953.658,1216.68l35.167,35.1,10.32-21.1S970.687,1232.719,953.658,1216.68Z" fill="#fff"/>
    </g>
    <path id="Trazado_3" data-name="Trazado 3" d="M1019.493,1280.257v-3.53a9.787,9.787,0,0,0,3.707.954,2.366,2.366,0,0,0,1.382-.357,1.111,1.111,0,0,0,.5-.947,1.174,1.174,0,0,0-.408-.852,7.071,7.071,0,0,0-1.4-.966,14.6,14.6,0,0,1-3.482-2.534,3.81,3.81,0,0,1,.59-5.815,7.063,7.063,0,0,1,4.316-1.237,12.56,12.56,0,0,1,3.895.626v3.39a9.5,9.5,0,0,0-3.357-.839,2.568,2.568,0,0,0-1.358.312.964.964,0,0,0-.494.858c0,.633.768,1.348,2.312,2.144a13.141,13.141,0,0,1,2.8,1.978,3.879,3.879,0,0,1,1.415,2.957,3.835,3.835,0,0,1-1.852,3.249,8.053,8.053,0,0,1-4.7,1.29A11.484,11.484,0,0,1,1019.493,1280.257Z" fill="#fff"/>
    <path id="Trazado_4" data-name="Trazado 4" d="M1041.467,1280.914a7.328,7.328,0,0,1-5.654-2.106,8.639,8.639,0,0,1-1.943-6.073,7.933,7.933,0,0,1,1.953-5.714,7.16,7.16,0,0,1,5.443-2.048,7.516,7.516,0,0,1,5.692,2.055,8.133,8.133,0,0,1,1.971,5.865,8.4,8.4,0,0,1-1.942,5.915A7.127,7.127,0,0,1,1041.467,1280.914Zm-.168-12.5q-2.511,0-2.513,4.369a7.41,7.41,0,0,0,.638,3.755,2.077,2.077,0,0,0,1.842.94,2.336,2.336,0,0,0,2-.94,6.709,6.709,0,0,0,.7-3.688Q1043.966,1268.413,1041.3,1268.411Z" fill="#fff"/>
    <path id="Trazado_5" data-name="Trazado 5" d="M1053.941,1265.393h4.642v11.641h3.678v3.5h-8.32Z" fill="#fff"/>
    <path id="Trazado_6" data-name="Trazado 6" d="M1066.568,1265.393h4.767v10.665a1.439,1.439,0,0,0,.537,1.185,2.58,2.58,0,0,0,2.916-.027,1.593,1.593,0,0,0,.542-1.282v-10.541h4.733v9.939a6.388,6.388,0,0,1-.72,3.256,4.219,4.219,0,0,1-2.119,1.8,10.667,10.667,0,0,1-3.913.573q-3.712,0-5.223-1.408t-1.52-4.752Z" fill="#fff"/>
    <path id="Trazado_7" data-name="Trazado 7" d="M1084.3,1265.393h11.078v3.459h-3.2v11.687h-4.7v-11.687H1084.3Z" fill="#fff"/>
    <path id="Trazado_8" data-name="Trazado 8" d="M1099.989,1265.393h4.643v15.146h-4.643Z" fill="#fff"/>
    <path id="Trazado_9" data-name="Trazado 9" d="M1117.4,1280.914a7.327,7.327,0,0,1-5.654-2.106,8.639,8.639,0,0,1-1.943-6.073,7.937,7.937,0,0,1,1.952-5.714,7.162,7.162,0,0,1,5.443-2.048,7.518,7.518,0,0,1,5.693,2.055,8.133,8.133,0,0,1,1.971,5.865,8.394,8.394,0,0,1-1.943,5.915A7.123,7.123,0,0,1,1117.4,1280.914Zm-.168-12.5q-2.518,0-2.513,4.369a7.423,7.423,0,0,0,.637,3.755,2.078,2.078,0,0,0,1.842.94,2.335,2.335,0,0,0,2-.94,6.709,6.709,0,0,0,.7-3.688Q1119.9,1268.413,1117.23,1268.411Z" fill="#fff"/>
    <path id="Trazado_10" data-name="Trazado 10" d="M1129.871,1265.393h4.691l5.893,8.737-.168-1.635v-7.1h4.643v15.146h-4.763l-5.773-8.6.12,1.885v6.716h-4.643Z" fill="#fff"/>
    <path id="Trazado_11" data-name="Trazado 11" d="M1150.9,1280.257v-3.53a9.739,9.739,0,0,0,3.706.954,2.344,2.344,0,0,0,1.377-.357,1.1,1.1,0,0,0,.508-.947,1.189,1.189,0,0,0-.408-.852,7.361,7.361,0,0,0-1.4-.966,14.549,14.549,0,0,1-3.486-2.534,3.817,3.817,0,0,1,.59-5.815,7.065,7.065,0,0,1,4.321-1.237,12.519,12.519,0,0,1,3.889.626v3.39a9.475,9.475,0,0,0-3.352-.839,2.544,2.544,0,0,0-1.358.312.97.97,0,0,0-.5.858q0,.95,2.312,2.144a13.139,13.139,0,0,1,2.795,1.978,3.881,3.881,0,0,1,1.42,2.957,3.831,3.831,0,0,1-1.856,3.249,8.042,8.042,0,0,1-4.7,1.29A11.457,11.457,0,0,1,1150.9,1280.257Z" fill="#fff"/>
    <rect id="Rect치ngulo_1" data-name="Rect치ngulo 1" width="8.67" height="12.793" transform="translate(1116.885 1225.507)" fill="#fff"/>
    <path id="Trazado_12" data-name="Trazado 12" d="M1078.442,1260.025a2.751,2.751,0,0,1-.388-.91c-.106-.408-.217-.974-.336-1.707a6.959,6.959,0,0,1-2.69,2.491,8.329,8.329,0,0,1-3.866.856,6.446,6.446,0,0,1-5.112-2.084,8.5,8.5,0,0,1-1.822-5.781,8.216,8.216,0,0,1,1.6-5.321q1.6-1.976,6.349-3.966c.316-.141.762-.326,1.343-.563q3.9-1.562,3.9-3.669a2.535,2.535,0,0,0-.762-1.981,3.16,3.16,0,0,0-2.2-.688,3.5,3.5,0,0,0-2.672.914,4.055,4.055,0,0,0-.858,2.851v.542h-6.46q0-4.569,2.374-6.645t7.616-2.084q5.242,0,7.356,1.907t2.11,6.68v15.277a8.738,8.738,0,0,0,.225,2.045,7.075,7.075,0,0,0,.744,1.836Zm-.921-14.173a18.1,18.1,0,0,0-5.083,3.18,4.681,4.681,0,0,0-1.329,3.321,4.136,4.136,0,0,0,.71,2.657,2.725,2.725,0,0,0,2.221.851,2.865,2.865,0,0,0,2.614-1.427,8.372,8.372,0,0,0,.867-4.28Z" fill="#fff"/>
    <path id="Trazado_13" data-name="Trazado 13" d="M1030.974,1260.025a2.78,2.78,0,0,1-.384-.91,17.166,17.166,0,0,1-.335-1.707,6.958,6.958,0,0,1-2.7,2.491,8.28,8.28,0,0,1-3.861.856,6.435,6.435,0,0,1-5.107-2.084,8.475,8.475,0,0,1-1.827-5.781,8.226,8.226,0,0,1,1.6-5.321q1.605-1.976,6.355-3.966c.311-.141.758-.326,1.338-.563q3.906-1.562,3.9-3.669a2.55,2.55,0,0,0-.757-1.981,3.179,3.179,0,0,0-2.2-.688,3.5,3.5,0,0,0-2.676.914,4.055,4.055,0,0,0-.853,2.851v.542h-6.465q0-4.569,2.374-6.645t7.62-2.084q5.238,0,7.357,1.907c1.4,1.271,2.11,3.5,2.11,6.68v15.277a8.749,8.749,0,0,0,.22,2.045,6.923,6.923,0,0,0,.749,1.836Zm-.916-14.173a18.025,18.025,0,0,0-5.083,3.18,4.664,4.664,0,0,0-1.334,3.321,4.106,4.106,0,0,0,.71,2.657,2.735,2.735,0,0,0,2.225.851,2.855,2.855,0,0,0,2.609-1.427,8.355,8.355,0,0,0,.873-4.28Z" fill="#fff"/>
    <path id="Trazado_14" data-name="Trazado 14" d="M1099.534,1255.165c-3.545,4.326-5.477,5.005-5.477,5.005a4.923,4.923,0,0,1-2.93-1.161q-1.252-1.251-1.252-5.158v-16.235h-2.585v-4.657h2.585l3.419-3.436,3.243-3.551v6.987h2.752v4.657h-2.752v14.221a5.487,5.487,0,0,0,.431,2.763,1.883,1.883,0,0,0,1.607.582l.959-.014" fill="#fff"/>
    <path id="Trazado_15" data-name="Trazado 15" d="M1129.44,1246.5q0-8.186,2.234-11.229t7.88-3.043q5.669,0,7.908,3.043t2.235,11.229q0,8.19-2.235,11.22t-7.908,3.031q-5.64,0-7.88-3.031T1129.44,1246.5Zm6.81-.28v.633q0,6.294.671,7.695a2.587,2.587,0,0,0,2.585,1.405,2.751,2.751,0,0,0,2.685-1.323q.691-1.321.7-6.866v-2.643q0-5.312-.71-6.68a2.683,2.683,0,0,0-2.623-1.369,2.716,2.716,0,0,0-2.595,1.249q-.711,1.253-.709,6.028Z" fill="#fff"/>
    <path id="Trazado_16" data-name="Trazado 16" d="M1179.55,1260.025V1242.74c0-2.139-.225-3.52-.7-4.142a3,3,0,0,0-2.556-.937,2.792,2.792,0,0,0-2.476,1.065,7.29,7.29,0,0,0-.733,3.872v12.232s-3.366,3.99-6.56,5.2v-17.592a7.185,7.185,0,0,0-.687-3.767,2.644,2.644,0,0,0-2.368-1.005,2.983,2.983,0,0,0-2.575,1.074,6.339,6.339,0,0,0-.782,3.6v17.686h-6.561v-27.066h6.163v3.112a7.051,7.051,0,0,1,2.709-2.985,8.935,8.935,0,0,1,4.249-.854,7.25,7.25,0,0,1,3.679.9,5.116,5.116,0,0,1,2.239,2.513,8.234,8.234,0,0,1,2.859-2.62,8.107,8.107,0,0,1,3.75-.8,6.88,6.88,0,0,1,5.131,1.765,7.208,7.208,0,0,1,1.727,5.232v15.692A18.525,18.525,0,0,1,1179.55,1260.025Z" fill="#fff"/>
    <path id="Trazado_17" data-name="Trazado 17" d="M1191.679,1229.609v-4.1h6.613v4.1Zm0,30.416v-27.066h6.613v27.066Z" fill="#fff"/>
    <path id="Trazado_18" data-name="Trazado 18" d="M1222.174,1249.406c.015.187.029.386.039.6s.009.52.009.923q0,5.032-2.273,7.428t-7.045,2.4q-5.417,0-7.567-3.019t-2.149-11.232q0-8.186,2.149-11.229t7.567-3.043q4.747,0,7.006,2.221t2.264,6.881v.957h-6.359v-.6a6.973,6.973,0,0,0-.676-3.534,2.373,2.373,0,0,0-2.187-1.077,2.444,2.444,0,0,0-2.22,1.053,6.669,6.669,0,0,0-.686,3.51v9.335a8.327,8.327,0,0,0,.643,3.884,2.359,2.359,0,0,0,2.215,1.1,2.4,2.4,0,0,0,2.345-1.264,11.429,11.429,0,0,0,.662-4.726v-.585Z" fill="#fff"/>
    <path id="Trazado_19" data-name="Trazado 19" d="M1060.291,1255.053a17.662,17.662,0,0,1-6.413,4.972v-18.153a6.359,6.359,0,0,0-.647-3.357,2.409,2.409,0,0,0-2.163-.972,2.567,2.567,0,0,0-2.383,1.192,8.311,8.311,0,0,0-.725,4.048v17.242H1041.3v-27.066h6.508v2.738a7.312,7.312,0,0,1,2.561-2.585,6.757,6.757,0,0,1,3.458-.88,6.457,6.457,0,0,1,4.795,1.686,6.605,6.605,0,0,1,1.665,4.841Z" fill="#fff"/>
    <rect id="Rect치ngulo_2" data-name="Rect치ngulo 2" width="8.67" height="12.439" transform="translate(1116.885 1247.586)" fill="#fff"/>
    <path id="Trazado_20" data-name="Trazado 20" d="M1125.555,1247.121h-13.414v12.893h-8.656v-34.493h8.656v13.227h13.414" fill="#fff"/>
    <g transform="matrix(1, 0, 0, 1, 943.08, 1206.57)" filter="url(#Trazado_21)">
      <path id="Trazado_21-2" data-name="Trazado 21" d="M1125.536,1260.014" transform="translate(-943.08 -1206.57)" fill="#fff"/>
    </g>
  </g>
</svg>
