<svg xmlns="http://www.w3.org/2000/svg" xmlns:xlink="http://www.w3.org/1999/xlink" viewBox="0 0 2629.67 451.84"><defs><style>.cls-1,.cls-5{fill:#d5d7d8;}.cls-2{fill:#231f20;}.cls-3{fill:#00ab54;}.cls-10,.cls-11,.cls-12,.cls-13,.cls-4,.cls-5,.cls-6,.cls-7,.cls-8,.cls-9{stroke:#231f20;stroke-width:2px;}.cls-4,.cls-5{stroke-miterlimit:10;}.cls-4{fill:url(#Dégradé_sans_nom_41);}.cls-10,.cls-11,.cls-12,.cls-13,.cls-6,.cls-7,.cls-8,.cls-9{stroke-linecap:round;stroke-linejoin:round;}.cls-6{fill:url(#Dégradé_sans_nom_83);}.cls-7{fill:url(#Dégradé_sans_nom_83-2);}.cls-8{fill:url(#Dégradé_sans_nom_83-3);}.cls-9{fill:url(#Dégradé_sans_nom_57);}.cls-10{fill:url(#Dégradé_sans_nom_57-2);}.cls-11{fill:url(#Dégradé_sans_nom_57-3);}.cls-12{fill:url(#Dégradé_sans_nom_83-4);}.cls-13{fill:url(#Dégradé_sans_nom_57-4);}.cls-14{fill:url(#Dégradé_sans_nom_6);}</style><linearGradient id="Dégradé_sans_nom_41" x1="1771.74" y1="238.13" x2="1821.75" y2="238.13" gradientUnits="userSpaceOnUse"><stop offset="0" stop-color="#d5d7d8"/><stop offset="0.14" stop-color="#fff"/><stop offset="0.2" stop-color="#fff"/><stop offset="0.39" stop-color="#d5d7d8"/><stop offset="1" stop-color="#d5d7d8"/></linearGradient><linearGradient id="Dégradé_sans_nom_83" x1="1792.62" y1="14.18" x2="1801.12" y2="14.18" gradientUnits="userSpaceOnUse"><stop offset="0" stop-color="#d5d7d8"/><stop offset="0.25" stop-color="#fff"/><stop offset="0.5" stop-color="#d5d7d8"/><stop offset="0.75" stop-color="#fff"/><stop offset="1" stop-color="#d5d7d8"/></linearGradient><linearGradient id="Dégradé_sans_nom_83-2" x1="1762.87" y1="22.26" x2="1830.77" y2="22.26" xlink:href="#Dégradé_sans_nom_83"/><linearGradient id="Dégradé_sans_nom_83-3" x1="1762.87" y1="5.68" x2="1830.77" y2="5.68" xlink:href="#Dégradé_sans_nom_83"/><linearGradient id="Dégradé_sans_nom_57" x1="1811.02" y1="370.39" x2="1879.72" y2="370.39" gradientUnits="userSpaceOnUse"><stop offset="0" stop-color="#d5d7d8"/><stop offset="0.16" stop-color="#dddfe0"/><stop offset="0.4" stop-color="#f3f4f4"/><stop offset="0.51" stop-color="#fff"/><stop offset="0.67" stop-color="#ebeced"/><stop offset="0.86" stop-color="#dbdddd"/><stop offset="1" stop-color="#d5d7d8"/></linearGradient><linearGradient id="Dégradé_sans_nom_57-2" x1="1808.05" y1="379.07" x2="1879.75" y2="379.07" xlink:href="#Dégradé_sans_nom_57"/><linearGradient id="Dégradé_sans_nom_57-3" x1="1801.92" y1="339.69" x2="1879.46" y2="339.69" xlink:href="#Dégradé_sans_nom_57"/><linearGradient id="Dégradé_sans_nom_83-4" x1="1714.08" y1="346.13" x2="1879.46" y2="346.13" xlink:href="#Dégradé_sans_nom_83"/><linearGradient id="Dégradé_sans_nom_57-4" x1="1714.1" y1="361.9" x2="1791.07" y2="361.9" xlink:href="#Dégradé_sans_nom_57"/><linearGradient id="Dégradé_sans_nom_6" x1="1771.75" y1="190.71" x2="1821.67" y2="190.71" gradientUnits="userSpaceOnUse"><stop offset="0" stop-color="#00ab54"/><stop offset="0.13" stop-color="#fff"/><stop offset="0.19" stop-color="#fff"/><stop offset="0.39" stop-color="#00ab54"/><stop offset="1" stop-color="#00ab54"/></linearGradient></defs><title>logo-technometalpost</title><g id="Calque_6" data-name="Calque 6"><g id="Rectangle_TMP" data-name="Rectangle TMP"><rect class="cls-1" x="4.74" y="64.08" width="2620.19" height="255.75" rx="42.63" ry="42.63"/><path class="cls-2" d="M2582.3,68.81a37.89,37.89,0,0,1,37.89,37.89V277.2a37.88,37.88,0,0,1-37.89,37.89H47.36A37.89,37.89,0,0,1,9.47,277.2V106.7A37.9,37.9,0,0,1,47.36,68.81H2582.3m0-9.47H47.36A47.42,47.42,0,0,0,0,106.7V277.2a47.42,47.42,0,0,0,47.36,47.37H2582.3a47.42,47.42,0,0,0,47.37-47.37V106.7a47.42,47.42,0,0,0-47.37-47.36Z"/></g><g id="TMP"><path class="cls-3" d="M912.47,265.87c7.25-25.31,14.77-56.59,22.37-93,2.74-13,4.79-22.34,6.25-28.51,2.34-10.83,3.86-18.28,4.52-22.11l.34-2h8.9l.71.94c.61.81,5.45,6.74,25,30.36,30.95,37.7,54.72,65.3,70.66,82.08,4.19-4.1,12.11-13,23.59-26.57,8.36-9.78,24.92-28.51,49.23-55.68l25.62-28.35,2.34-2.78h7.6l.37,1.91c.58,2.9,5.19,29.61,8.94,51.5,6.37,38.12,12.65,70.21,18.68,95.37l.77,3.24-3.32-.33a143.39,143.39,0,0,0-14.42-.72c-6,0-12,.24-17.83.72l-2.48.21-.08-2.49a308.12,308.12,0,0,0-3.43-35.57c-1.92-12.85-6-35.78-12.08-68.16-7.53,7.82-22.24,24.51-43.84,49.77-23.62,28.25-37.84,46.11-42.25,53.06l-.7,1.09h-6.59l-.71-1c-3.19-4.66-10-13.26-20.25-25.54-5.78-6.79-13-15.52-21.42-26-10.88-13.22-25.22-29.77-42.64-49.22-9.75,47.24-15.07,81.39-15.82,101.56l-.1,2.59-2.57-.33a87.72,87.72,0,0,0-11-.71,114.56,114.56,0,0,0-12.71.72l-3.44.38Z"/><path class="cls-2" d="M1157.69,122.67q.68,3.36,8.93,51.44,9.6,57.52,18.7,95.52a145.07,145.07,0,0,0-14.66-.73q-9.09,0-18,.73a308.86,308.86,0,0,0-3.46-35.84q-2.94-19.69-12.38-69.76l-.51-2.94q-9.09,8.61-47.17,53.12-35.71,42.72-42.45,53.32h-4.05q-4.87-7.12-20.38-25.72-8.76-10.27-21.4-25.92-16.85-20.47-44-50.7L955,163Q939.35,238,938.17,269.63a88.62,88.62,0,0,0-11.29-.73,116.53,116.53,0,0,0-13,.73l.84-3.14q10.95-38.22,22.41-93.12,4.05-19.2,6.23-28.45,3.54-16.36,4.55-22.25h5.73q1.35,1.78,25.1,30.44,47.68,58,71.77,83.25h1.35q5.89-5.46,24.77-27.72,12.46-14.58,49.19-55.63l25.61-28.35,1.68-2h4.55m3.89-4.74h-10.64l-1.42,1.68-1.63,1.94-25.56,28.28c-24.35,27.22-40.92,46-49.27,55.74-10,11.85-17.34,20.13-21.76,24.71-15.88-16.89-39-43.83-68.87-80.17-20.6-24.85-24.49-29.65-25-30.29L956,117.93H944l-.68,3.94c-.64,3.78-2.16,11.18-4.49,22-1.47,6.19-3.52,15.52-6.25,28.52-7.59,36.34-15.1,67.56-22.33,92.78v.08l-.84,3.15-1.8,6.7,6.9-.77a111.83,111.83,0,0,1,12.44-.7,84.71,84.71,0,0,1,10.69.69l5.14.66.19-5.18c.73-19.38,5.71-51.84,14.83-96.56,16,17.91,29.25,33.25,39.46,45.65,8.41,10.41,15.64,19.17,21.44,26,10.16,12.18,16.93,20.71,20.09,25.32l1.41,2.06h9.14l1.39-2.19c4.36-6.86,18.52-24.63,42.08-52.81,18.86-22.06,32.44-37.55,40.55-46.29,5.61,30,9.38,51.31,11.21,63.51a305.43,305.43,0,0,1,3.4,35.29l.16,5,5-.41c5.79-.47,11.72-.71,17.63-.71a138.51,138.51,0,0,1,14.18.71l6.64.67-1.55-6.49c-6-25.11-12.29-57.14-18.64-95.2-5.47-31.89-8.48-49.24-9-51.58l-.76-3.82Z"/><path class="cls-3" d="M1303.93,274.84c-29.28,0-51.6-5.9-66.33-17.52-11.89-9.31-17.92-21.63-17.92-36.6,0-10.27,3.39-20.07,10.07-29.12,12.54-16.94,36.59-25.53,71.48-25.53,28.76,0,49.08,6.41,60.39,19.06a40.84,40.84,0,0,1,10.88,28.24c0,1.28-.17,3.4-.52,6.46l-.25,2.2-2.21-.1c-10.41-.49-29.3-.74-56.16-.74-15.73,0-35.73.24-59.49.7-.12,1.42-.14,2-.14,2.29,0,11.71,5.21,20.78,15.94,27.72,9.89,6.44,23.06,9.7,39.14,9.7,20.53,0,38-4.81,51.91-14.29l.88-.6,5.35,1.38-3.57,14-1.07.46a152.16,152.16,0,0,1-28.84,9.64A146.66,146.66,0,0,1,1303.93,274.84Zm-49.33-66.06c6.7.17,21.1.32,42.94.44,21.94-.12,36.2-.37,42.5-.75-.92-7.14-2.52-12.55-4.76-16.09-6.34-9.85-18.14-14.85-35.06-14.85-18.08,0-31.26,5.66-39.18,16.84A36,36,0,0,0,1254.6,208.78Z"/><path class="cls-2" d="M1301.23,168.44q42.29,0,58.63,18.27a38.4,38.4,0,0,1,10.28,26.66q0,1.78-.51,6.19-15.66-.74-56.27-.73-24.6,0-61.66.73c-.23,2.38-.34,3.92-.34,4.62q0,18.69,17,29.71Q1283.88,264,1308.81,264q31.68,0,53.24-14.7l2,.52-2.7,10.61a150,150,0,0,1-28.38,9.5,144.83,144.83,0,0,1-29.06,2.57q-43.31,0-64.87-17-17-13.32-17-34.74,0-14.7,9.6-27.72,18.19-24.56,69.58-24.56m-3.71,43.14q38.42-.21,45.15-.94-1.35-13.12-5.39-19.52-10.27-16-37.06-16-28.47,0-41.11,17.84a37.31,37.31,0,0,0-7.24,18.06q7.41.31,45.65.52m3.71-47.88c-35.68,0-60.37,8.91-73.38,26.49-7,9.47-10.54,19.74-10.54,30.53,0,15.74,6.34,28.68,18.83,38.47,15.15,11.95,38,18,67.79,18a149.2,149.2,0,0,0,30-2.67,154.69,154.69,0,0,0,29.31-9.79l2.13-.92.57-2.26,2.7-10.6,1.16-4.57-4.56-1.18-2-.52-2.08-.54-1.78,1.21c-13.51,9.2-30.52,13.87-50.57,13.87-15.61,0-28.35-3.13-37.85-9.31-10-6.47-14.85-14.88-14.86-25.71,22.78-.43,42-.65,57.26-.65,26.82,0,45.68.25,56.05.73l4.42.21.51-4.4a66.79,66.79,0,0,0,.53-6.73,43.21,43.21,0,0,0-11.5-29.85c-11.76-13.14-32.68-19.82-62.14-19.82Zm-43.64,42.77a34.74,34.74,0,0,1,5.36-10.69v0l0,0c7.55-10.66,19.73-15.85,37.24-15.85,16.29,0,27.11,4.51,33.08,13.79,1.78,2.81,3.13,7,4,12.56-7.13.3-20.46.5-39.8.61-19-.11-32.41-.23-39.93-.38Z"/><path class="cls-3" d="M1452.86,274.21c-12.66,0-22.83-2.5-30.21-7.43-7.69-5.14-11.59-12.26-11.59-21.18,0-2.72.23-7.26.69-13.51,1-12.69,1.51-27.08,1.51-42.76,0-2.66-.1-5.1-.28-7.29-10,0-16.73.16-19.91.41l-4.32.35,2-3.82a6.53,6.53,0,0,0,.9-3,7.74,7.74,0,0,0-.94-3.27l-1.66-3.4h24.33a161.44,161.44,0,0,0-2.16-20.48l-.33-2.15,33.57-8,.55,2.3a13.67,13.67,0,0,1,.57,3.08c0,1.92-.55,5.79-1.72,12.18-.28,1.69-.58,6.07-.87,13l38.48-.54-1.57,3.4a9.72,9.72,0,0,0-1.13,3.43,7,7,0,0,0,1.07,3l1.86,3.48H1443.1c-.26,5-.49,16.13-.68,33.14v18.76a88.25,88.25,0,0,0,.8,14.31,16.44,16.44,0,0,0,3.25,7.12c3.59,4.85,10.43,7.28,20.37,7.28a76.89,76.89,0,0,0,14.7-1.63l2.83-.57v9.64l-1.88.39C1470.81,273,1460.84,274.21,1452.86,274.21Z"/><path class="cls-2" d="M1442.75,141.56a16.89,16.89,0,0,1,.5,2.53,87.78,87.78,0,0,1-1.68,11.75q-.51,3-1,15.85l37.23-.52a12,12,0,0,0-1.35,4.41,9.32,9.32,0,0,0,1.35,4.09h-36.9q-.5,5-.84,35.48v18.79a89.84,89.84,0,0,0,.84,14.75,18.8,18.8,0,0,0,3.71,8.14q6.06,8.19,22.24,8.19a78.33,78.33,0,0,0,15.16-1.68v4.83q-17.36,3.66-29.14,3.67-18.37,0-28.9-7t-10.53-19.21q0-4,.68-13.34,1.52-19.2,1.51-42.93a81.18,81.18,0,0,0-.5-9.66q-17,0-22.24.42a8.7,8.7,0,0,0,1.18-4.09,10,10,0,0,0-1.18-4.31h22.74c.11-1.12.17-1.75.17-1.88q0-6.93-2.19-21.31l29.15-6.94m3.5-5.7-4.6,1.1-29.14,6.93-4.25,1,.66,4.31c1.14,7.49,1.83,13.44,2,17.75H1385.3l3.32,6.81a5.36,5.36,0,0,1,.7,2.23,4.19,4.19,0,0,1-.62,1.86l-4.08,7.65,8.64-.7c2.88-.23,8.76-.36,17.51-.39.08,1.53.12,3.17.12,4.91,0,15.63-.51,29.95-1.5,42.56-.47,6.42-.69,10.9-.69,13.71,0,9.76,4.25,17.54,12.63,23.15,7.78,5.19,18.39,7.83,31.53,7.83,8.14,0,18.28-1.27,30.12-3.78l3.76-.79V257.57l-5.66,1.12a73.77,73.77,0,0,1-14.24,1.59c-9.15,0-15.35-2.11-18.43-6.27l0,0,0,0a13.83,13.83,0,0,1-2.79-6.11c-.35-1.83-.76-5.72-.76-13.87V215.18c.18-16.93.39-26,.58-30.77h40.33l-3.73-7a7.45,7.45,0,0,1-.78-1.85,11.41,11.41,0,0,1,.91-2.45l3.12-6.81-7.5.1-32.21.46c.3-6.53.56-9.19.73-10.23,1.57-8.55,1.75-11.27,1.75-12.57a15.59,15.59,0,0,0-.64-3.63l-1.1-4.6Z"/><path class="cls-3" d="M1548.21,274.63c-15.76,0-28.09-2.7-36.63-8-8.34-5.11-12.57-12-12.57-20.48,0-11.31,7.19-19.89,21.37-25.51,7.47-3,18.93-5.12,35-6.56,13.11-1.24,22.74-2.42,28.59-3.48a70.82,70.82,0,0,0,14.07-4,23,23,0,0,0,.66-4.89,19.09,19.09,0,0,0-6.63-14.84c-6.25-5.58-16.32-8.41-29.91-8.41a71.57,71.57,0,0,0-24.14,3.9c-7.1,2.55-12.6,6-16.36,10.4l-.71.82h-6.82V177.65l3.85-1.54c11.45-4.31,20.92-7.24,28.2-8.73a130.23,130.23,0,0,1,25.75-2.25c18.92,0,33.88,3.59,44.45,10.68,8.63,5.84,13,14.2,13,24.86,0,3.85-.28,9.2-.85,16.35-.56,6.34-.84,12.69-.84,18.92,0,15.92,1.08,19.91,1.57,20.9,1.46,2.46,4.78,3.71,9.88,3.71a49.86,49.86,0,0,0,6.57-.61l2.7-.39v8.79l-1.8.45a99.64,99.64,0,0,1-23.31,3.32c-13.26,0-21.52-3.85-24.61-11.46C1584,269.93,1567,274.63,1548.21,274.63Zm50.52-54.79c-11.11,1.46-23.1,3.14-35.68,5-11.65,1.77-19.69,4-23.88,6.51-5.15,3-7.63,7.13-7.63,12.78,0,5.05,2.79,9,8.53,12.08a41.05,41.05,0,0,0,19.77,4.55,63.39,63.39,0,0,0,21.76-3.85,46.41,46.41,0,0,0,16.13-9.48c0-7.72.19-14.07.52-18.9C1598.56,223.43,1598.69,221,1598.73,219.84Z"/><path class="cls-2" d="M1572,167.49q27.79,0,43.13,10.29,12,8.08,12,22.89,0,5.67-.84,16.16-.85,9.66-.85,19.11,0,18.48,1.86,22,2.87,4.93,12,4.94a51.44,51.44,0,0,0,6.9-.63v4.2a96.5,96.5,0,0,1-22.74,3.25q-20.71,0-23.25-12.81-22.57,15.33-51.89,15.33-23.07,0-35.38-7.67-11.44-7-11.45-18.47,0-15.44,19.88-23.3,10.77-4.31,34.37-6.41,19.88-1.89,28.8-3.52a70.74,70.74,0,0,0,15.67-4.56,27.62,27.62,0,0,0,1-6.61,21.51,21.51,0,0,0-7.41-16.59q-10.11-9-31.5-9a73.67,73.67,0,0,0-24.94,4q-11.28,4.05-17.35,11.08h-3.37v-12l2.36-.94q17-6.41,27.8-8.61a127.34,127.34,0,0,1,25.27-2.21m-12.13,95.63a65.41,65.41,0,0,0,22.57-4,47.76,47.76,0,0,0,17.69-10.71q0-12.28.51-19.74c.34-5.38.5-8.57.5-9.55v-2q-17.85,2.31-38.41,5.35-18,2.73-24.76,6.82-8.78,5-8.77,14.81,0,8.93,9.78,14.17,8.92,4.83,20.89,4.82M1572,162.76a132.61,132.61,0,0,0-26.22,2.3c-7.4,1.51-17,4.48-28.52,8.81l0,0,0,0-2.36.94-3,1.19V196h10.28l1.42-1.65c3.48-4,8.65-7.3,15.36-9.71a69.13,69.13,0,0,1,23.34-3.76c13,0,22.53,2.63,28.35,7.82a16.82,16.82,0,0,1,5.83,13.06,17.87,17.87,0,0,1-.36,3.16,70.72,70.72,0,0,1-12.43,3.36c-5.79,1-15.35,2.21-28.41,3.46-16.32,1.45-28,3.65-35.68,6.72-15.16,6-22.86,15.32-22.86,27.7,0,9.35,4.62,16.93,13.72,22.51,8.89,5.55,21.64,8.37,37.85,8.37,18.3,0,35-4.37,49.57-13,5.1,8.49,16.27,10.47,25.57,10.47a101.35,101.35,0,0,0,23.88-3.4l3.6-.89V256.82l-5.41.78a48.29,48.29,0,0,1-6.23.58c-2.85,0-6.49-.43-7.79-2.45-.26-.65-1.29-4.22-1.29-19.79,0-6.16.28-12.45.82-18.7.58-7.24.86-12.65.86-16.57,0-11.49-4.72-20.51-14-26.81-11-7.37-26.38-11.1-45.78-11.1Zm-12.13,95.63a38.72,38.72,0,0,1-18.64-4.26c-6.53-3.51-7.29-7.39-7.29-10,0-4.8,2-8.19,6.39-10.7l0,0,.05,0c2.7-1.64,8.88-4.05,23-6.19,11.47-1.69,22.49-3.24,32.82-4.62-.08,1.37-.19,3.25-.35,5.84-.31,4.63-.48,10.68-.51,18a45,45,0,0,1-14.58,8.31,61.16,61.16,0,0,1-21,3.7Z"/><path class="cls-3" d="M1674.4,269.38c2-18.73,3-45.13,3-78.48V177.78c0-36.13-.72-58.31-2.15-65.91l-.6-3.2,3.23.42a113.24,113.24,0,0,0,14.19.82,131.15,131.15,0,0,0,15.22-.82l3-.36-.4,3c-.66,5-1.27,16.19-1.83,33.2s-.84,31.69-.84,43.54c0,40.84,1,68,3,80.78l.46,2.93-3-.2c-7-.49-12.5-.73-16.35-.73s-8.81.24-14.45.72l-2.86.25Z"/><path class="cls-2" d="M1707.59,111.44q-1,7.66-1.86,33.43t-.84,43.62q0,61.72,3,81.14-10.61-.74-16.51-.73-6.06,0-14.65.73,3-28.33,3-78.73V177.78q0-54.69-2.19-66.34a114.79,114.79,0,0,0,14.49.84,132.13,132.13,0,0,0,15.5-.84m-35.85-5.53,1.2,6.4c1.4,7.46,2.11,29.48,2.11,65.47V190.9c0,33.26-1,59.58-3,78.23l-.61,5.71,5.72-.49c5.57-.47,10.36-.71,14.25-.71s9.25.24,16.19.72l5.92.41-.92-5.87c-2-12.64-3-39.69-3-80.41,0-11.82.28-26.44.84-43.46s1.16-28,1.81-33l.8-6-6,.72a126.3,126.3,0,0,1-14.94.81,110.49,110.49,0,0,1-13.89-.8l-6.46-.83Z"/><path class="cls-3" d="M1916.62,272c-6.65-.49-12.15-.73-16.34-.73s-10,.24-17.19.73l-2.89.19.72-5.39a550.92,550.92,0,0,0,3.85-62.25c0-30.49-1.12-57.11-3.35-79.12l-.25-2.47,2.48-.14c1.3-.07,2.07-.1,2.31-.1,1.37,0,6,.16,14.42.52,2.41.07,5.17.11,8.16.11,4,0,17.41-.31,41-.95,2.93-.07,6.74-.1,11.35-.1,50.09,0,75.49,13,75.49,38.79,0,11.68-6.56,21.61-19.5,29.52-8.63,5.31-19.67,9.23-32.81,11.65-13,2.39-29.46,3.61-48.95,3.61-5.06,0-11.14-.12-18.11-.34,0,1.4-.08,2.23-.08,2.49,0,32.74.73,53.33,2.16,61.19l.54,3Zm.09-78.85c3.32.28,6.51.42,9.52.42,19.49,0,35.4-1.49,47.27-4.44,8.47-2.11,15.27-6,20.2-11.56,4.36-5,6.48-10.2,6.48-15.95,0-9.64-5.11-16.63-15.62-21.36-8-3.62-21.42-5.46-40-5.46-9.61,0-18.76.4-27.21,1.18-.72,6.54-1.08,20.34-1.08,41.07C1916.3,181.3,1916.44,186.71,1916.71,193.15Z"/><path class="cls-2" d="M1960.93,124.66q73.13,0,73.12,36.43,0,16.28-18.36,27.5-12.63,7.77-32,11.34t-48.52,3.57q-8.43,0-20.39-.42c-.11,2.87-.17,4.52-.17,4.93q0,49.56,2.2,61.62-10.11-.74-16.52-.73t-17.35.73l.34-2.51a552.76,552.76,0,0,0,3.87-62.57q0-46.08-3.37-79.36c1.24-.07,2-.11,2.19-.11q2,0,14.32.53c2.47.07,5.23.11,8.26.11q6.06,0,41.11-1,4.38-.1,11.28-.11m-34.7,71.28q29.65,0,47.84-4.51,13.48-3.36,21.4-12.28,7.08-8.09,7.08-17.53,0-15.85-17-23.52-12.46-5.67-40.94-5.67-15.66,0-29.31,1.37-1.35,8.61-1.35,43.25,0,7.14.51,18.26a117.34,117.34,0,0,0,11.79.63m34.7-76c-4.62,0-8.45,0-11.4.1-23.63.64-37,1-41,1-3,0-5.69,0-8.09-.1-8.6-.37-13.07-.53-14.49-.53-.33,0-.84,0-2.44.11l-5,.27.5,4.94c2.22,21.93,3.35,48.47,3.35,78.88a551.33,551.33,0,0,1-3.84,62l-.33,2.48-.77,5.74,5.78-.39c7.16-.48,12.89-.72,17-.72s9.58.24,16.17.72l6.1.44-1.1-6c-1.4-7.72-2.11-28.17-2.11-60.78v0c6,.18,11.32.27,15.82.27,19.63,0,36.25-1.23,49.38-3.65,13.43-2.47,24.74-6.5,33.63-12,13.68-8.37,20.62-19,20.62-31.54,0-14-7-24.65-20.91-31.56-13-6.46-31.6-9.6-57-9.6Zm-41.38,18.23c7.83-.66,16.24-1,25-1,18.21,0,31.33,1.76,39,5.24,9.72,4.38,14.24,10.48,14.24,19.21,0,5.16-1.93,9.87-5.9,14.41-4.59,5.17-11,8.81-19,10.8-11.69,2.9-27.4,4.37-46.7,4.37-2.31,0-4.73-.08-7.24-.25-.21-5.49-.32-10.15-.32-13.9,0-18.82.29-31.86.88-38.89Z"/><path class="cls-3" d="M2132.61,274c-18.42,0-35.22-3.06-49.93-9.1-22.66-9.24-34.15-24.53-34.15-45.44,0-9.82,3.46-19.12,10.29-27.62,7.11-8.86,17.57-15.62,31.1-20.09,13.2-4.39,28.46-6.69,45.36-6.83,27.15,0,48.59,5.62,63.76,16.72,12.94,9.54,19.5,21.66,19.5,36,0,11.12-4.23,21.47-12.57,30.77-7.66,8.6-18.55,15.22-32.37,19.67C2161.51,272,2147.72,274,2132.61,274Zm2-97.63c-17.1,0-30.52,4.92-39.89,14.6a41.59,41.59,0,0,0-11.63,29.64c0,10.75,3.08,19.61,9.16,26.34a43.65,43.65,0,0,0,18.23,11.84,67.41,67.41,0,0,0,22.3,3.75c17.62,0,31.31-5.34,40.68-15.89,7-7.91,10.52-17.73,10.52-29.19s-3.73-20.83-11.1-28.25C2164.61,180.89,2151.74,176.57,2134.61,176.37Z"/><path class="cls-2" d="M2135.3,167.28q40.1,0,62.34,16.28,18.53,13.63,18.53,34.11,0,15.86-12,29.19-11.11,12.48-31.34,19-17.85,5.76-40.26,5.77-27.3,0-49-8.92-32.68-13.33-32.68-43.25,0-14,9.77-26.14,10.27-12.81,30-19.32,19.55-6.5,44.64-6.72m-2.52,97.63q27.61,0,42.45-16.69,11.13-12.6,11.12-30.76t-11.79-29.92q-13.14-13.22-39.93-13.54-26.79,0-41.61,15.33-12.3,12.91-12.3,31.28,0,17.12,9.77,27.93A45.93,45.93,0,0,0,2109.7,261a69.43,69.43,0,0,0,23.08,3.88m2.52-102.36h0c-17.14.14-32.65,2.48-46.1,7-13.95,4.61-24.79,11.62-32.18,20.84-7.18,8.94-10.82,18.74-10.82,29.11,0,22,12,38,35.63,47.63,15,6.15,32.09,9.28,50.82,9.28,15.35,0,29.39-2,41.72-6,14.22-4.57,25.47-11.42,33.42-20.35,8.72-9.73,13.16-20.62,13.16-32.34,0-15.17-6.89-27.93-20.46-37.93-15.6-11.41-37.51-17.19-65.15-17.19Zm-2.52,97.63a65.08,65.08,0,0,1-21.52-3.62,41.46,41.46,0,0,1-17.26-11.2c-5.75-6.36-8.55-14.46-8.55-24.75,0-11.08,3.6-20.25,11-28,9-9.31,21.49-13.85,38.15-13.85,16.48.2,28.79,4.28,36.6,12.14,7,7.06,10.41,15.75,10.41,26.58,0,11-3.25,20-9.93,27.62-9,10.16-21.75,15.1-38.9,15.1Z"/><path class="cls-3" d="M2291.64,274.1c-16.94,0-31.85-2.42-44.31-7.19l-2.76-1.06,1.64-2.46A66.72,66.72,0,0,0,2253,248.5l.54-1.6h5.7l.69.69c9.61,9.5,22.42,14.32,38.1,14.32,9.5,0,17.29-1.85,23.18-5.52,5-3.19,7.47-6.76,7.47-10.9,0-4-2.09-7.1-6.4-9.6-4.78-2.78-12.9-5.13-24.13-7-10.28-1.64-17.52-3-22.11-4.19a55.42,55.42,0,0,1-12.84-5c-10.32-5.52-15.55-13-15.55-22.34,0-5.38,2-10.52,6-15.27a42.94,42.94,0,0,1,15.94-11.36c9.47-4.1,21.81-6.18,36.66-6.18,15.38,0,28.35,1.92,38.56,5.71l3.18,1.18-2.2,2.58c-2.62,3.08-5.21,7.83-7.68,14.13l-.59,1.5h-5.77l-.71-.87a40.82,40.82,0,0,0-5.85-6.23,31.53,31.53,0,0,0-10.47-4.64,51.43,51.43,0,0,0-13.52-1.9c-7.49,0-13.84,1.59-18.88,4.73-4.75,3-7.06,6.44-7.06,10.64,0,4.71,3.09,8.48,9.44,11.51a42.6,42.6,0,0,0,8.84,3.13c2.9.65,9.67,1.75,20.13,3.28,14.3,2.17,24.41,5.31,31,9.6,7.53,5,11.34,11.53,11.34,19.4,0,11-7,20.06-20.86,26.9C2323.31,271.12,2308.67,274.1,2291.64,274.1Z"/><path class="cls-2" d="M2306.3,167q22.75,0,37.74,5.56-4.22,4.93-8.09,14.8h-3a44.62,44.62,0,0,0-6.23-6.61,33.75,33.75,0,0,0-11.29-5,53.18,53.18,0,0,0-14.15-2q-12,0-20.13,5.09T2273,191.43q0,8.5,10.78,13.65a44.92,44.92,0,0,0,9.35,3.3q4.46,1,20.3,3.31,20.72,3.15,30,9.24,10.27,6.82,10.28,17.42,0,15.12-19.55,24.77-17.35,8.63-42.45,8.62t-43.47-7a68.19,68.19,0,0,0,7.08-15.43h3q15.16,15,39.76,15,15,0,24.43-5.88,8.58-5.44,8.59-12.91,0-7.25-7.58-11.65t-24.94-7.25q-15.15-2.42-21.9-4.14a53.26,53.26,0,0,1-12.3-4.78Q2250,210,2250,197.41q0-7.24,5.48-13.75A40.38,40.38,0,0,1,2270.59,173q13.82-6,35.71-6m0-4.74c-15.18,0-27.83,2.15-37.6,6.38a45.26,45.26,0,0,0-16.82,12c-4.37,5.2-6.58,10.85-6.58,16.8,0,10.25,5.66,18.47,16.82,24.44a58,58,0,0,0,13.35,5.19c4.67,1.2,12,2.58,22.34,4.23,10.92,1.79,18.77,4,23.3,6.66s5.22,5.62,5.22,7.56c0,1.2,0,4.85-6.39,8.92-5.47,3.4-12.84,5.13-21.89,5.13-15.24,0-27.16-4.46-36.43-13.64l-1.38-1.37h-8.37l-1.09,3.21a64.15,64.15,0,0,1-6.54,14.33L2241,267l5.52,2.12c12.73,4.88,27.93,7.35,45.17,7.35s32.38-3.06,44.56-9.1c14.71-7.27,22.17-17,22.17-29,0-8.72-4.17-15.9-12.39-21.37-6.85-4.49-17.27-7.75-31.9-10-10.42-1.52-17.14-2.62-20-3.25a40.57,40.57,0,0,1-8.36-3c-8.07-3.85-8.07-8-8.07-9.36,0-2.12.62-5.31,5.94-8.63,4.66-2.9,10.59-4.38,17.63-4.38a48.78,48.78,0,0,1,12.89,1.83,29.42,29.42,0,0,1,9.7,4.25,40.23,40.23,0,0,1,5.42,5.84l1.42,1.73h8.5l1.18-3c2.38-6.06,4.83-10.59,7.28-13.46l4.4-5.16-6.35-2.36c-10.48-3.89-23.73-5.86-39.39-5.86Z"/><path class="cls-3" d="M2437.71,274.21c-12.66,0-22.82-2.5-30.21-7.43-7.68-5.14-11.58-12.26-11.58-21.18,0-2.72.23-7.27.68-13.51,1-12.68,1.51-27.06,1.51-42.76,0-2.66-.09-5.1-.27-7.29-10,0-16.73.16-19.91.41l-4.32.35,2-3.82a6.66,6.66,0,0,0,.9-3,7.89,7.89,0,0,0-.94-3.27l-1.66-3.4h24.33a163.36,163.36,0,0,0-2.16-20.48l-.33-2.15,33.57-8,.55,2.3a14.51,14.51,0,0,1,.57,3.08c0,1.92-.55,5.8-1.73,12.18-.28,1.69-.57,6.07-.87,13l38.48-.54-1.56,3.4a9.72,9.72,0,0,0-1.13,3.43,7,7,0,0,0,1.06,3l1.87,3.48H2428c-.27,5-.5,16.13-.69,33.14v18.76a86.79,86.79,0,0,0,.81,14.31,16.42,16.42,0,0,0,3.24,7.12c3.59,4.85,10.44,7.28,20.38,7.28a76.79,76.79,0,0,0,14.69-1.63l2.84-.57v9.64l-1.88.39C2455.67,273,2445.7,274.21,2437.71,274.21Z"/><path class="cls-2" d="M2427.6,141.56a17.58,17.58,0,0,1,.51,2.53,86.71,86.71,0,0,1-1.69,11.75q-.49,3-1,15.85l37.24-.52a12,12,0,0,0-1.35,4.41,9.32,9.32,0,0,0,1.35,4.09h-36.9q-.51,5-.84,35.48v18.79a89.84,89.84,0,0,0,.84,14.75,18.69,18.69,0,0,0,3.71,8.14q6.06,8.19,22.24,8.19a78.33,78.33,0,0,0,15.16-1.68v4.83q-17.36,3.66-29.15,3.67-18.36,0-28.89-7t-10.53-19.21q0-4,.67-13.34,1.51-19.2,1.52-42.93a81,81,0,0,0-.51-9.66q-17,0-22.23.42a8.82,8.82,0,0,0,1.18-4.09,10.13,10.13,0,0,0-1.18-4.31h22.74c.11-1.12.17-1.75.17-1.88q0-6.93-2.19-21.31l29.14-6.94m3.51-5.7-4.6,1.1-29.15,6.93-4.24,1,.65,4.31c1.15,7.49,1.83,13.44,2.06,17.75h-25.67l3.32,6.81a5.54,5.54,0,0,1,.7,2.23,4.19,4.19,0,0,1-.62,1.86l-4.08,7.65,8.64-.7c2.88-.23,8.76-.36,17.5-.39.08,1.53.12,3.17.12,4.91,0,15.63-.5,29.95-1.5,42.56-.46,6.42-.69,10.9-.69,13.71,0,9.76,4.25,17.54,12.64,23.15,7.78,5.19,18.39,7.83,31.52,7.83,8.15,0,18.28-1.27,30.13-3.78l3.75-.79V257.57l-5.66,1.12a73.76,73.76,0,0,1-14.23,1.59c-9.15,0-15.35-2.11-18.44-6.27l0,0,0,0a14.05,14.05,0,0,1-2.79-6.11c-.34-1.83-.76-5.72-.76-13.87V215.18c.19-16.93.4-26,.58-30.77h40.33l-3.73-7a7.93,7.93,0,0,1-.78-1.85,12.87,12.87,0,0,1,.91-2.45l3.12-6.81-7.49.1-32.22.46c.31-6.53.56-9.18.73-10.23,1.57-8.55,1.76-11.27,1.76-12.57a15.59,15.59,0,0,0-.64-3.63l-1.1-4.6Z"/><path class="cls-2" d="M101.82,149l22.48-5.71a15.7,15.7,0,0,1,.39,2.08,75.69,75.69,0,0,1-1.3,9.67q-.39,2.5-.78,13l28.72-.43a10.43,10.43,0,0,0-1,3.63,8.08,8.08,0,0,0,1,3.36H122.87q-.39,4.16-.64,29.21V219.3a79.36,79.36,0,0,0,.64,12.14,16,16,0,0,0,2.86,6.69q4.68,6.75,17.15,6.74a56.85,56.85,0,0,0,11.7-1.38v4a105.07,105.07,0,0,1-22.48,3q-14.16,0-22.28-5.79a18.39,18.39,0,0,1-8.13-15.81c0-2.19.18-5.85.52-11q1.17-15.81,1.17-35.34a71.85,71.85,0,0,0-.39-8q-13.12,0-17.15.35a7.53,7.53,0,0,0,.91-3.37,8.58,8.58,0,0,0-.91-3.54h17.54c.09-.92.13-1.44.13-1.56A136.85,136.85,0,0,0,101.82,149Z"/><path class="cls-2" d="M273.21,232.34l-2.08,8.73a110.62,110.62,0,0,1-21.89,7.82A104.69,104.69,0,0,1,226.82,251q-33.39,0-50-14-13.12-11-13.12-28.6a39.36,39.36,0,0,1,7.4-22.8q14-20.22,53.67-20.22,32.61,0,45.21,15a32.82,32.82,0,0,1,7.93,22q0,1.47-.39,5.1-12.09-.61-43.4-.61-19,0-47.56.61c-.17,1.95-.26,3.22-.26,3.8q0,15.38,13.13,24.44,12,8.29,31.18,8.3,24.43,0,41.06-12.1Zm-16.5-32.22q-1-10.8-4.16-16.07-7.92-13.12-28.58-13.13-22,0-31.71,14.69a31.91,31.91,0,0,0-5.59,14.86q5.72.25,35.22.43Q251.52,200.72,256.71,200.12Z"/><path class="cls-2" d="M410.55,172l-5.71,11.49h-2.6q-4.42-5.88-13.58-9.42a54.51,54.51,0,0,0-19.82-3.54q-22.08,0-34.82,12.7a32.41,32.41,0,0,0-9.87,23.67q0,17.28,14.94,28.16,13.13,9.42,33.52,9.42A63.52,63.52,0,0,0,409,233.56l2.08.34-.91,7.78q-17.28,9.4-43,9.41-22.62,0-39.38-7-12.86-5.35-19.88-15.29a35.3,35.3,0,0,1-6.75-20.56,34.54,34.54,0,0,1,9-23.32q8.72-10,24.95-14.95a123.41,123.41,0,0,1,36-5A109.65,109.65,0,0,1,410.55,172Z"/><path class="cls-2" d="M455.64,181.29l1.3.43q12.87-16.5,41.45-16.5,18.06,0,30.41,7.25,12.35,7.09,12.34,22.29,0,3.9-.39,10.63-.64,10.29-.65,29.89a112.26,112.26,0,0,0,.65,13.39,83.36,83.36,0,0,0-10.52-.6,102,102,0,0,0-11.83.6,248.59,248.59,0,0,0,2.73-39.31q0-17.79-3.9-24.44-3-4.84-10.65-7.95a44.09,44.09,0,0,0-16.76-3.11q-12.75,0-22.22,5.61-6.9,4.07-9.29,10.28T455.9,210q0,25.83,1,38.7-6.75-.6-10.26-.6-1.95,0-11.83.6,2.34-18,2.34-82.24,0-37.67-1.56-47.95a110.79,110.79,0,0,0,11.57.6,102.16,102.16,0,0,0,11.17-.6q-1.31,7.86-1.95,32.31-.39,13.91-.52,23.15A68.55,68.55,0,0,1,455.64,181.29Z"/><path class="cls-2" d="M580,166.17q6.1.6,11.18.6a72.42,72.42,0,0,0,9.48-.6l-.13,1.73q-.64,11.06-.65,13.91a56.26,56.26,0,0,1,10.4-8.82q12.6-7.86,31.83-7.86,20.4,0,32.1,8,10.9,7.26,10.91,21.43,0,1.47-.78,13.9-.39,6.22-.39,16,0,14.16.52,24.27c-4.07-.4-7.67-.6-10.78-.6s-6.94.2-11.7.6q2.47-17.44,2.47-45.09,0-12.18-3.12-18.06-3-5.36-10.59-8.51A46.05,46.05,0,0,0,633,173.86a49.47,49.47,0,0,0-16,2.46q-7.22,2.46-10.85,6.78a24.2,24.2,0,0,0-5.2,12.74q-1,7.83-1,34.69,0,7.69.78,18.14a101,101,0,0,0-10.78-.6q-5.21,0-11.44.6,2.6-16.92,2.6-54.51Q581,176.72,580,166.17Z"/><path class="cls-2" d="M781.26,164.44q30.93,0,48.08,13.39,14.29,11.23,14.29,28.08,0,13.05-9.22,24-8.58,10.27-24.17,15.63a94.83,94.83,0,0,1-31,4.75q-21.06,0-37.82-7.34-25.2-11-25.2-35.59a35.13,35.13,0,0,1,7.53-21.51q7.93-10.55,23.13-15.9T781.26,164.44Zm-.52,5.53q-20.65,0-32.09,12.61-9.48,10.63-9.49,25.75,0,14.08,7.54,23a35.31,35.31,0,0,0,14.81,10.28,50.61,50.61,0,0,0,17.81,3.2q21.3,0,32.74-13.74,8.58-10.37,8.58-25.31t-9.1-24.63Q801.4,170.24,780.74,170Z"/><rect class="cls-2" x="85.84" y="260.57" width="757.79" height="9.47"/><path class="cls-2" d="M2503.85,246.35l0,.43c0,3-.07,7.53-.07,13.68,0,4,0,6.33.07,7.14a19.1,19.1,0,0,0,.24,2.41,16.76,16.76,0,0,0-2-.13,13.86,13.86,0,0,0-1.84.13q.32-2.14.39-14.61l.06-5.62c0-1.42,0-2.56-.11-3.43l-.43,0q-6.06.23-7.81.46a3.75,3.75,0,0,0,.15-1.05,7.3,7.3,0,0,0-.15-1.36q1.54.22,11.08.23,4.39,0,8.41-.23a3.65,3.65,0,0,0-.23,1.26,4,4,0,0,0,.17,1.15A52.88,52.88,0,0,0,2503.85,246.35Z"/><path class="cls-2" d="M2518.07,244.05h.63c.1.21,1,2,2.77,5.38q5.27,10.26,7.92,14.71h.15q.66-1,2.74-4.9,1.36-2.58,5.42-9.83l2.83-5,.19-.35h.5q.08.6,1,9.09,1.07,10.16,2.07,16.87a11.06,11.06,0,0,0-1.62-.13,16.49,16.49,0,0,0-2,.13c0-1.9-.16-4-.38-6.33s-.67-6.42-1.37-12.32l0-.52q-1,1.51-5.21,9.38-3.95,7.54-4.68,9.42h-.45q-.54-1.26-2.25-4.54-1-1.82-2.36-4.58-1.86-3.61-4.85-9l-.21-.39q-1.72,13.26-1.86,18.84a6.61,6.61,0,0,0-1.24-.13,8.74,8.74,0,0,0-1.43.13l.09-.55q1.22-6.75,2.47-16.45c.3-2.26.53-3.94.69-5C2517.83,246.05,2518,244.74,2518.07,244.05Z"/></g><path class="cls-4" d="M1821.75,394.35V27h-50V449.29q12.48-13.41,25.08-27.25T1821.75,394.35Z"/><rect class="cls-5" x="1784.02" y="6.3" width="25.5" height="15.76"/><rect class="cls-6" x="1792.62" y="9.4" width="8.5" height="9.57"/><rect class="cls-7" x="1762.87" y="17.58" width="67.9" height="9.36"/><rect class="cls-8" x="1762.87" y="1" width="67.9" height="9.36"/><path class="cls-9" d="M1879.72,376.55,1822,364.22a13.19,13.19,0,0,1-2.1,6.38,14.88,14.88,0,0,1-8.88,5.93Z"/><path class="cls-10" d="M1879.74,381.54V376.6H1811l-3,4.93Z"/><path class="cls-11" d="M1879.45,334h0l-57.4,0a25.25,25.25,0,0,1-3.29,3.8,30.15,30.15,0,0,1-16.85,7.62l2.32-.11A393,393,0,0,0,1879.45,334Z"/><path class="cls-12" d="M1802,345.42c-12.85.59-25.71,1.23-38.58,1.51-2.8.07-11.53.25-22.62,1.3-6,.56-10.88,1.21-15.8,2.06-4.38.76-8.07,1.56-10.85,2.22,0,1.9,0,3.8,0,5.71,15.06-2,28.27-3.23,39.41-3.94,18.23-1.16,22.69-.55,48.17-2,23.22-1.28,33.19-2.54,39.34-3.43a250.09,250.09,0,0,0,29.32-5.95c3.43-.92,6.49-1.82,9.13-2.65V334A404.61,404.61,0,0,1,1802,345.42Z"/><ellipse class="cls-2" cx="1797.13" cy="38.7" rx="4.43" ry="4.87"/><path class="cls-13" d="M1749.43,354.53c-21.41,1.39-35.33,3.69-35.33,3.69a230.23,230.23,0,0,0,30.11,8.7,233.41,233.41,0,0,0,27.24,4.05,19.81,19.81,0,0,1,5.58-12.2,20.58,20.58,0,0,1,14-5.92C1773.32,352.69,1759.13,353.9,1749.43,354.53Z"/><rect class="cls-14" x="1771.75" y="50.85" width="49.92" height="279.72"/><path class="cls-2" d="M1821.17,51.35V330.07h-48.92V51.35h48.92m1-1h-50.92V331.07h50.92V50.35Z"/></g></svg>