<svg width="129" height="40" xmlns="http://www.w3.org/2000/svg"><g fill="#001A70" fill-rule="evenodd"><path d="M125.873 2.504h.66c.096 0 .19-.005.28-.013a.635.635 0 0 0 .228-.063l.155-.145a.522.522 0 0 0 .055-.26.44.44 0 0 0-.06-.25l-.16-.141a.681.681 0 0 0-.229-.063 2.889 2.889 0 0 0-.268-.013h-.661v.948zm.552.356h-.552v1.33h-.4V1.2h1.199c.344 0 .592.071.748.211.155.141.232.346.232.619a.865.865 0 0 1-.06.342.664.664 0 0 1-.166.244.85.85 0 0 1-.245.158 1.288 1.288 0 0 1-.289.086l.913 1.33h-.494l-.886-1.33zm-2.114-.16c0 .294.056.57.168.827.11.257.262.48.456.67.195.192.42.342.68.452.263.109.54.164.838.164a2.159 2.159 0 0 0 1.517-.615c.192-.19.346-.414.458-.671.115-.257.171-.533.171-.827 0-.293-.056-.568-.171-.824a2.145 2.145 0 0 0-.458-.673 2.179 2.179 0 0 0-1.517-.622 2.1 2.1 0 0 0-.837.17c-.26.11-.486.262-.681.452a2.086 2.086 0 0 0-.456.673 2.04 2.04 0 0 0-.168.824zm-.4-.006c0-.346.068-.672.201-.976a2.536 2.536 0 0 1 1.352-1.333c.305-.132.637-.198.99-.198.35 0 .68.066.986.198a2.54 2.54 0 0 1 1.36 1.333c.133.304.2.63.2.976 0 .347-.067.672-.2.978a2.565 2.565 0 0 1-1.36 1.34 2.472 2.472 0 0 1-.987.196c-.352 0-.684-.065-.99-.197a2.496 2.496 0 0 1-.807-.54 2.584 2.584 0 0 1-.544-.8 2.41 2.41 0 0 1-.2-.977zm-33.864 9.561h-9.462v6.174l9.462.002c2.76 0 4.846-.546 4.846-3.149 0-2.3-1.9-3.027-4.846-3.027zm-13.826 0V8.686h13.706c2.85 0 4.107-.697 4.107-2.543 0-1.876-1.257-2.572-4.107-2.572H76.22V0h13.43c5.242 0 8.733 1.452 8.733 5.63 0 2.783-1.378 3.814-2.576 4.568 1.57.667 3.439 2.543 3.439 5.419 0 4.145-3.346 6.383-8.77 6.383H76.221v-9.745zm47.013 9.743l-2.331-5.051-1.726-3.691-4.646-9.805-4.62 9.722-1.843 3.774-2.366 5.051h-4.63L112.048 0h4.964l10.82 21.998h-4.597zm-56.9.002h4.351V0h-4.352v22zm-27.516-.002h10.91c7.357 0 12.507-3.627 12.507-11.133 0-7.93-5.64-10.863-12.688-10.863H38.818v21.996zm4.35-3.69V3.693h4.416c7.298 0 10.298 1.845 10.298 7.231 0 5.145-2.88 7.382-10.298 7.382H43.17zm-33.274 3.69h4.167V5.54l15.51 16.46h3.989V0h-4.174v15.888L14.492 0H9.894v21.998zM0 22h4.354V0H0v22zM3.72 30.067a6.378 6.378 0 0 0-.428-.072 3.184 3.184 0 0 0-.401-.028c-.693 0-1.205.217-1.536.65-.332.433-.499 1.115-.499 2.047v3.938H0v-7.291h.718l.125 1.141c.433-.827 1.168-1.24 2.2-1.24.15 0 .298.011.45.034.151.024.278.051.38.079l-.152.742zm1.924 3.197c.008.503.055.93.138 1.277.084.347.23.632.439.857.204.224.481.385.828.485.345.1.781.15 1.308.15.285 0 .59-.021.913-.064.321-.043.6-.093.83-.152l-.11.7a4.13 4.13 0 0 1-.825.185 6.89 6.89 0 0 1-.975.073c-.628 0-1.158-.074-1.591-.222-.433-.148-.782-.366-1.045-.656a2.557 2.557 0 0 1-.567-1.092c-.116-.438-.173-.952-.173-1.541v-.557c0-.541.055-1.033.167-1.47.11-.437.285-.814.525-1.126.241-.315.548-.556.928-.722.376-.165.835-.25 1.368-.25.471 0 .876.074 1.218.222.341.148.623.353.845.614.221.261.381.57.483.928.101.355.153.749.153 1.177v.414c0 .285-.038.485-.118.598-.079.115-.252.172-.518.172H5.644zm2.103-3.382c-.35 0-.657.048-.92.143-.263.094-.482.249-.658.464-.175.213-.307.491-.393.835-.089.342-.132.764-.132 1.27h4.067v-.5c0-.732-.155-1.284-.47-1.655-.313-.371-.811-.557-1.494-.557zm4.054-.572h.955l2.366 6.393 2.381-6.393h.928l-2.85 7.293h-.944l-2.836-7.293zm8.774-2.825c.415 0 .623.215.623.643 0 .417-.208.627-.623.627-.407 0-.608-.21-.608-.627 0-.428.201-.643.608-.643zm-.415 10.118V29.31h.858v7.293h-.858zm4.662-6.536v4.224c0 .342.032.625.091.849.059.223.152.4.277.527a.969.969 0 0 0 .468.265c.19.048.409.072.658.072.157 0 .312-.012.465-.036.152-.024.297-.05.435-.079l-.125.7a2.939 2.939 0 0 1-1.01.156c-.341 0-.643-.04-.906-.12a1.461 1.461 0 0 1-.658-.408 1.807 1.807 0 0 1-.393-.756c-.089-.314-.132-.708-.132-1.184v-4.21h-1.426l.126-.756h1.3v-1.899l.83-.156v2.055h2.366l-.138.756h-2.228zm3.708 4.295c0-.788.228-1.368.685-1.734.458-.366 1.153-.55 2.083-.55.48 0 .9.059 1.26.172.36.114.636.286.83.514v-.713c0-.78-.184-1.337-.547-1.67-.365-.334-.925-.5-1.682-.5-.323 0-.66.024-1.01.072-.35.048-.674.105-.969.172l.138-.7a7.012 7.012 0 0 1 1.925-.285c.443 0 .843.05 1.204.15.359.1.67.259.934.477.261.218.464.505.608.856.143.352.215.777.215 1.27v4.71h-.733l-.07-.856c-.24.35-.545.605-.914.763-.368.157-.811.236-1.328.236-.868 0-1.522-.177-1.964-.528-.443-.352-.665-.914-.665-1.684v-.172zm.83.086c0 .552.142.952.423 1.198.28.247.758.371 1.431.371a3.5 3.5 0 0 0 1.01-.127c.277-.086.503-.203.672-.35.17-.148.295-.324.373-.528.08-.205.118-.426.118-.663v-.116c0-.285-.051-.522-.153-.713-.1-.19-.24-.342-.415-.457a1.77 1.77 0 0 0-.621-.242 4.079 4.079 0 0 0-.775-.07h-.22c-.362 0-.66.034-.895.106-.235.07-.425.175-.565.314a1.095 1.095 0 0 0-.3.499 2.513 2.513 0 0 0-.083.679v.1zm7.126 2.155V26h.844v10.603h-.844zm3.612-10.118c.415 0 .623.215.623.643 0 .417-.208.627-.623.627-.407 0-.608-.21-.608-.627 0-.428.201-.643.608-.643zm-.415 10.118V29.31h.858v7.293h-.858zm3.736-.714h4.607l-.112.713h-5.52v-.627l4.469-5.95H42.49l.125-.714h5.272v.627l-4.47 5.951zm6.849-9.404c.414 0 .623.215.623.643 0 .417-.209.627-.623.627-.407 0-.609-.21-.609-.627 0-.428.202-.643.609-.643zm-.415 10.118V29.31h.858v7.293h-.858zm3.21 0V29.31h.72l.11 1.027c.213-.36.523-.651.934-.87.41-.218.914-.328 1.515-.328.822 0 1.448.219 1.883.657.431.438.648 1.09.648 1.955v4.852h-.845v-4.424c0-.809-.141-1.39-.426-1.74-.287-.353-.78-.53-1.482-.53-.756 0-1.314.196-1.674.586-.36.39-.538.994-.538 1.812v4.296h-.845zm13.836-.143c0 .543-.06 1.033-.179 1.47a2.997 2.997 0 0 1-.566 1.12c-.262.309-.593.544-.998.706-.407.162-.892.244-1.453.244-.85 0-1.68-.129-2.491-.387l.18-.727c.398.114.776.2 1.141.256.367.057.768.086 1.212.086.441 0 .813-.067 1.106-.199.295-.134.533-.328.713-.586.182-.256.308-.569.382-.935.073-.366.108-.782.108-1.247v-.842a2.455 2.455 0 0 1-.338.434 2.217 2.217 0 0 1-.485.372c-.187.11-.413.195-.668.256a3.886 3.886 0 0 1-.913.092c-.407 0-.778-.058-1.108-.177a2.087 2.087 0 0 1-.86-.586c-.238-.271-.427-.622-.56-1.055-.133-.433-.2-.969-.2-1.606v-.485c0-.6.078-1.117.237-1.555.155-.438.378-.804.668-1.1a2.764 2.764 0 0 1 1.038-.656 3.971 3.971 0 0 1 1.338-.214c.523 0 1.013.06 1.466.18.45.118.862.281 1.23.49v6.651zm-5.119-3.482c0 .458.032.863.097 1.22.063.356.178.657.338.9.162.242.373.425.637.55.263.123.594.185.99.185.746 0 1.302-.203 1.665-.607.367-.405.547-1.053.547-1.949v-2.981a3.571 3.571 0 0 0-.793-.3 4.355 4.355 0 0 0-1.018-.1c-.84 0-1.461.226-1.861.677-.402.452-.602 1.197-.602 2.234v.171zm11.07 3.625V26h.844v10.603h-.845zm3.61-10.118c.415 0 .623.215.623.643 0 .417-.208.627-.623.627-.407 0-.608-.21-.608-.627 0-.428.201-.643.608-.643zm-.415 10.118V29.31h.86v7.293h-.86zm2.587-7.293h.955l2.366 6.393 2.38-6.393h.93l-2.852 7.293h-.943l-2.836-7.293zm8.634 3.954c.01.503.055.93.138 1.277.085.347.23.632.439.857.206.224.483.385.83.485.344.1.78.15 1.307.15.285 0 .589-.021.914-.064.321-.043.598-.093.83-.152l-.112.7c-.214.077-.487.14-.825.185-.337.049-.66.073-.975.073-.628 0-1.158-.074-1.591-.222-.433-.148-.782-.366-1.045-.656-.263-.29-.45-.653-.566-1.092-.117-.438-.174-.952-.174-1.541v-.557c0-.541.055-1.033.167-1.47.11-.437.285-.814.525-1.126.241-.315.548-.556.928-.722.376-.165.835-.25 1.368-.25.471 0 .876.074 1.218.222a2.269 2.269 0 0 1 1.328 1.542c.103.355.153.749.153 1.177v.414c0 .285-.038.485-.116.598-.079.115-.254.172-.52.172h-4.22zm2.105-3.382c-.35 0-.659.048-.922.143a1.49 1.49 0 0 0-.656.464c-.177.213-.307.491-.395.835-.089.342-.132.764-.132 1.27h4.07v-.5c0-.732-.158-1.284-.472-1.655-.312-.371-.81-.557-1.493-.557zm6.488 3.296c-.728-.105-1.243-.31-1.543-.62-.298-.31-.45-.75-.45-1.32v-.058c0-.342.075-.64.224-.892.146-.251.348-.46.606-.627.258-.167.568-.29.922-.372.354-.08.744-.122 1.168-.122.396 0 .764.033 1.101.093.337.064.64.136.906.222l-.166.713a5.893 5.893 0 0 0-.845-.206 6.823 6.823 0 0 0-1.12-.08c-.268 0-.52.023-.755.066-.234.043-.44.112-.614.206a1.09 1.09 0 0 0-.417.385c-.1.162-.152.363-.152.6 0 .18.019.339.057.47a.718.718 0 0 0 .202.343c.095.096.226.175.391.235.169.064.38.114.637.151l1.123.157c.625.086 1.093.289 1.403.606.308.318.463.788.463 1.406v.086c0 .694-.253 1.222-.761 1.584-.507.361-1.213.542-2.117.542-.424 0-.83-.031-1.218-.093a7.038 7.038 0 0 1-1.064-.25l.151-.699c.35.105.693.18 1.032.229.336.048.711.07 1.126.07.655 0 1.15-.108 1.481-.328.332-.218.499-.579.499-1.084 0-.172-.014-.325-.042-.464a.835.835 0 0 0-.18-.371 1.011 1.011 0 0 0-.38-.27 2.483 2.483 0 0 0-.658-.165l-1.01-.143z"/></g></svg>
