<?xml version="1.0" encoding="UTF-8" standalone="no"?>
<!DOCTYPE svg PUBLIC "-//W3C//DTD SVG 1.1//EN" "http://www.w3.org/Graphics/SVG/1.1/DTD/svg11.dtd">
<svg width="100%" height="100%" viewBox="0 0 254 40" version="1.1" xmlns="http://www.w3.org/2000/svg" xmlns:xlink="http://www.w3.org/1999/xlink" xml:space="preserve" xmlns:serif="http://www.serif.com/" style="fill-rule:evenodd;clip-rule:evenodd;stroke-linejoin:round;stroke-miterlimit:2;">
    <g transform="matrix(1,0,0,1,-329.291,-36.0005)">
        <path d="M376.907,74.833C376.907,74.833 381.959,61.714 384.407,55.376C386.776,49.243 391.676,36.575 391.676,36.575L400.865,36.575C400.865,36.575 408.264,55.383 411.885,64.581C413.178,67.864 415.917,74.833 415.917,74.833L406.922,74.833L403.96,67.054L390.973,67.048L392.995,61.25L401.827,61.257C401.827,61.257 399.015,54.057 397.692,50.629C397.031,48.914 395.98,45.122 395.98,45.122C395.98,45.122 394.781,48.982 394.222,50.559C393.811,51.716 388.068,67.008 385.626,73.504C385.493,73.859 385.137,74.833 385.137,74.833L384.371,74.834L376.907,74.833Z" style="fill:rgb(90,121,183);fill-rule:nonzero;"/>
        <path d="M547.827,36.576L548.243,36.576C551.467,36.576 554.691,36.582 557.916,36.567C558.252,36.566 558.436,36.676 558.615,36.953C562.64,43.202 566.679,49.442 570.707,55.691C572.278,58.13 573.674,60.675 575.041,63.234C575.113,63.369 575.194,63.499 575.313,63.703C575.313,63.267 575.324,62.922 575.311,62.577C575.26,61.104 575.21,59.63 575.144,58.158C575.029,55.562 574.92,52.966 574.869,50.368C574.852,49.565 574.834,48.763 574.833,47.96C574.831,44.368 574.832,40.775 574.833,37.183C574.833,37.051 574.836,36.92 574.836,36.789C574.836,36.642 574.913,36.578 575.053,36.578C575.14,36.578 575.228,36.576 575.315,36.576L582.375,36.576C582.752,36.582 582.752,36.582 582.757,36.965C582.759,37.082 582.758,37.199 582.758,37.316C582.758,49.627 582.758,61.938 582.757,74.248C582.757,74.913 582.835,74.832 582.18,74.833C579.014,74.836 575.847,74.83 572.681,74.841C572.367,74.842 572.186,74.738 572.017,74.473C569.214,70.089 566.406,65.709 563.591,61.332C558.381,53.228 553.187,45.114 548.017,36.984C547.947,36.875 547.85,36.78 547.827,36.576" style="fill:rgb(90,121,183);fill-rule:nonzero;"/>
        <path d="M427.846,75.191C427.046,75.191 426.248,75.195 425.45,75.19C423.569,75.179 421.725,74.869 419.891,74.486C419.583,74.422 419.573,74.409 419.594,74.07C419.655,73.095 419.722,72.12 419.793,71.145C419.87,70.098 419.955,69.051 420.033,68.004C420.06,67.645 420.057,67.641 420.41,67.732C421.999,68.14 423.606,68.462 425.231,68.681C426.861,68.902 428.501,68.978 430.141,68.866C431.452,68.777 432.72,68.482 433.895,67.847C435.673,66.884 436.35,65.304 436.146,63.394C436.063,62.613 435.652,61.969 435.12,61.407C434.314,60.556 433.328,59.968 432.267,59.516C430.784,58.884 429.282,58.298 427.791,57.684C426.542,57.169 425.282,56.678 424.057,56.114C421.017,54.715 419.119,52.399 418.623,49.028C418.295,46.788 418.586,44.634 419.674,42.623C420.496,41.103 421.683,39.919 423.087,38.943C424.834,37.728 426.783,37.005 428.846,36.556C431.044,36.076 433.273,35.98 435.513,36.015C437.389,36.043 439.246,36.256 441.101,36.522C441.359,36.56 441.618,36.593 441.875,36.633C442.189,36.682 442.196,36.684 442.18,37.019C442.143,37.719 442.104,38.418 442.057,39.117C441.98,40.267 441.896,41.416 441.816,42.566C441.81,42.653 441.813,42.741 441.805,42.828C441.778,43.115 441.773,43.123 441.487,43.056C440.329,42.782 439.164,42.548 437.985,42.384C436.183,42.134 434.375,42.001 432.56,42.181C431.429,42.293 430.324,42.539 429.318,43.111C428.461,43.598 427.764,44.244 427.405,45.188C426.802,46.772 427.126,48.118 428.316,49.261C429.289,50.194 430.472,50.78 431.702,51.285C434.348,52.372 437.029,53.382 439.606,54.626C442.176,55.866 444.04,57.824 444.643,60.693C445.374,64.174 444.652,67.37 442.298,70.098C440.487,72.198 438.166,73.509 435.547,74.322C434.128,74.763 432.671,75.011 431.199,75.178C431.055,75.194 430.909,75.19 430.764,75.19C429.791,75.191 428.818,75.191 427.846,75.191" style="fill:rgb(90,121,183);fill-rule:nonzero;"/>
        <path d="M459.257,53.741C459.424,53.724 459.459,53.615 459.518,53.54C463.508,48.505 467.496,43.468 471.485,38.432C471.91,37.895 472.341,37.363 472.758,36.82C472.883,36.658 473.011,36.57 473.227,36.571C476.336,36.577 479.444,36.575 482.552,36.576C482.618,36.576 482.686,36.591 482.796,36.603C482.503,37.063 482.159,37.416 481.847,37.79C478.613,41.656 475.371,45.516 472.137,49.38C469.818,52.15 467.5,54.922 465.191,57.699C463.31,59.962 461.441,62.235 459.561,64.498C459.409,64.681 459.358,64.867 459.356,65.097C459.344,67.331 459.327,69.565 459.306,71.799C459.297,72.703 459.276,73.608 459.256,74.513C459.249,74.823 459.243,74.832 458.939,74.832C456.441,74.835 453.943,74.832 451.445,74.837C451.231,74.837 451.111,74.786 451.137,74.546C451.147,74.445 451.138,74.342 451.138,74.24C451.138,61.872 451.138,49.503 451.139,37.135C451.139,36.506 451.078,36.577 451.701,36.576C454.039,36.574 456.378,36.575 458.716,36.575C458.818,36.575 458.92,36.58 459.021,36.576C459.184,36.568 459.265,36.635 459.258,36.805C459.251,36.936 459.258,37.068 459.258,37.199L459.258,53.741L459.257,53.741Z" style="fill:rgb(90,121,183);fill-rule:nonzero;"/>
        <path d="M496.617,55.746C496.617,61.922 496.617,68.099 496.616,74.274C496.616,74.902 496.683,74.832 496.055,74.833C493.703,74.835 491.351,74.834 488.998,74.834C488.896,74.834 488.794,74.829 488.693,74.835C488.523,74.844 488.458,74.759 488.464,74.597C488.468,74.495 488.464,74.393 488.464,74.291C488.464,61.939 488.464,49.587 488.465,37.235C488.465,36.49 488.387,36.578 489.112,36.577C491.421,36.574 493.73,36.576 496.039,36.576C496.142,36.576 496.243,36.581 496.344,36.575C496.556,36.562 496.628,36.67 496.617,36.868C496.61,36.984 496.616,37.101 496.616,37.218L496.616,55.746L496.617,55.746Z" style="fill:rgb(90,121,183);fill-rule:nonzero;"/>
        <path d="M547.86,41.184C548.172,41.668 548.487,42.152 548.797,42.637C550.987,46.064 553.174,49.492 555.37,52.914C555.544,53.185 555.623,53.455 555.624,53.773C555.628,55.028 555.64,56.284 555.663,57.539C555.765,63.073 555.691,68.606 555.714,74.14C555.715,74.213 555.714,74.286 555.715,74.358C555.715,74.883 555.74,74.834 555.246,74.834L548.275,74.834C548.187,74.834 548.1,74.829 548.013,74.834C547.846,74.844 547.773,74.77 547.782,74.603C547.787,74.501 547.782,74.398 547.782,74.296L547.782,41.202C547.808,41.196 547.834,41.19 547.86,41.184" style="fill:rgb(90,121,183);fill-rule:nonzero;"/>
        <path d="M483.49,74.788C483.275,74.862 483.117,74.833 482.961,74.833C479.795,74.835 476.628,74.837 473.462,74.833C472.707,74.832 472.907,74.934 472.469,74.34C469.814,70.739 467.161,67.138 464.511,63.534C464.159,63.056 464.177,63.207 464.526,62.785C466.005,61.001 467.493,59.227 468.977,57.45C469.194,57.191 469.199,57.191 469.415,57.458C472.413,61.142 475.41,64.826 478.407,68.51C480.024,70.499 481.641,72.489 483.259,74.478C483.331,74.566 483.396,74.662 483.49,74.788" style="fill:rgb(90,121,183);fill-rule:nonzero;"/>
        <path d="M532.545,61.225C531.323,64.579 529.059,66.902 525.684,68.064C524.099,68.609 522.45,68.709 520.781,68.569C519.572,68.468 518.397,68.24 517.271,67.783C515.321,66.992 513.879,65.628 512.84,63.808C511.96,62.268 511.471,60.597 511.2,58.854C510.999,57.555 510.913,56.243 510.947,54.928C510.999,52.885 511.293,50.881 512.169,49.015C513.724,45.707 516.238,43.569 519.838,42.814C521.054,42.56 522.284,42.55 523.523,42.657C524.717,42.76 525.877,43 526.988,43.45C529.449,44.448 531.132,46.241 532.18,48.66C532.758,49.993 533.079,51.397 533.249,52.839C533.356,53.753 533.422,54.669 533.416,55.59C533.415,57.513 533.206,59.408 532.545,61.225M541.974,52.077C541.819,50.563 541.544,49.074 541.083,47.625C539.535,42.76 536.4,39.378 531.682,37.486C529.49,36.608 527.194,36.191 524.852,36.058C522.19,35.906 519.542,36.035 516.94,36.691C513.752,37.494 510.924,38.976 508.485,41.193C506.554,42.947 505.024,44.999 503.958,47.396C502.815,49.967 502.325,52.676 502.238,55.472C502.193,56.933 502.285,58.389 502.464,59.84C502.708,61.82 503.179,63.74 503.979,65.569C505.062,68.05 506.642,70.147 508.803,71.782C510.628,73.163 512.69,74.038 514.897,74.583C516.666,75.02 518.457,75.268 520.285,75.193C520.633,75.179 520.982,75.191 521.33,75.191C522.663,75.151 523.996,75.254 525.328,75.043C527.376,74.716 529.357,74.184 531.228,73.278C535.178,71.364 538.206,68.488 540.153,64.515C541.465,61.839 542.012,58.973 542.117,56.012C542.161,54.698 542.107,53.387 541.974,52.077" style="fill:rgb(90,121,183);fill-rule:nonzero;"/>
        <path d="M367.738,70.915C367.738,73.133 365.95,74.931 363.744,74.931L333.286,74.931C331.08,74.931 329.291,73.133 329.291,70.915L329.291,40.292C329.291,38.074 331.08,36.276 333.286,36.276L363.744,36.276C365.95,36.276 367.738,38.074 367.738,40.292L367.738,70.915Z" style="fill:rgb(130,178,62);fill-rule:nonzero;"/>
        <path d="M337.463,54.241L341.095,48.536C345.297,51.394 348.289,53.699 350.073,55.45C350.899,50.007 351.557,46.287 352.047,44.289L358.378,45.955C357.536,48.83 356.255,52.372 354.538,56.579C357.932,55.846 361.733,55.346 365.941,55.077L366.325,61.84C362.308,62.096 358.47,61.962 354.812,61.436C356.184,63.455 357.967,66.88 360.162,71.711L353.95,74.063C352.863,71.306 351.689,67.635 350.426,63.049C347.197,66.609 344.485,69.257 342.291,70.994L338.111,65.905C342.577,62.61 345.714,60.48 347.52,59.516C343.956,57.795 340.603,56.038 337.463,54.241" style="fill:white;fill-rule:nonzero;"/>
    </g>
</svg>
