<svg xmlns="http://www.w3.org/2000/svg" width="139.373" height="50.667" viewBox="0 0 139.373 50.667">
  <path id="Path_8" data-name="Path 8" d="M216.429,210.033h12.284L239.058,227.3l-10.345,17.265H216.429L226.774,227.3Zm116.364,0H320.509L310.165,227.3l10.344,17.265h12.284L322.449,227.3Zm-116.364-15.3H205.813v49.83h10.616Zm47.241,45v4.825h10.211V210.033H263.67v18.188c0,6.37-1.671,8.943-6,8.943-4.951,0-5.074-4.053-5.074-9.007V210.033H242.382V230.8c0,9.394,2.661,14.606,11.51,14.606,5.137,0,7.736-2.252,9.778-5.662m46.495-45H299.549v49.83h10.616Zm-19.246,37.605V194.734H280.3v40.115c0,8.107,2.96,9.716,11.453,9.716H294.8V236.19c-2.984-.091-3.88-.853-3.88-3.851M339.013,210.7v2.433h.793V210.7h1v-.669h-2.8v.669Zm3.9,2.433h.723l.754-2.215v2.215h.793v-3.1h-1.2l-.692,2.122-.668-2.122h-1.267v3.1h.8v-2.208Z" transform="translate(-205.813 -194.734)" fill="#fff"/>
</svg>
