<svg width="346" height="171" viewBox="0 0 346 171" xmlns="http://www.w3.org/2000/svg"><path fill="#E31837" d="M43 24.001h57.333V.334H43v23.667zM43 34h57v72.334S98.667 173 26 170.668L0 119h2.667S40.334 124.668 43 82.667V34zm62 2.334h24.333V77s.667 10 6 8c0 0 4.667 2.667 5-8.333V36.334h24.334v42s3.333 29.334-29 27.334c0 0-29.334 4.332-30.667-25.334v-44zm63.667.666H193v11.667S198 35.334 206 35l7.334.334v32.333S201 65.334 198.334 71c0 0-1.334 1.667-2 7.667V105h-28.001l.334-68zM276 36.334h29.667l5.333 12 7.334-11.667H345l-18.333 33L345 103.334h-29.333l-6-11.666-6 11.332h-29.333L295 70l-19-33.666zM60.334 171H346v-57H105.333l-1 1.334s-2.333 35-41.666 54.334L60.334 171zM248.898 35.243c-18.484 0-33.469 15.935-33.469 35.591s14.985 35.592 33.469 35.592c18.485 0 33.47-15.936 33.47-35.592s-14.985-35.591-33.47-35.591zm.204 50.424c-5.666 0-10.134-7.205-10.075-15.146.075-9.854 4.305-13.45 9.429-14.377C254.769 55 258.769 63.06 258.769 71c0 7.941-3.961 14.667-9.667 14.667z"/></svg>