<?xml version="1.0" encoding="utf-8"?>
<!-- Generator: Adobe Illustrator 20.0.0, SVG Export Plug-In . SVG Version: 6.00 Build 0)  -->
<!DOCTYPE svg PUBLIC "-//W3C//DTD SVG 1.1//EN" "http://www.w3.org/Graphics/SVG/1.1/DTD/svg11.dtd">
<svg version="1.1" id="Layer_1" xmlns="http://www.w3.org/2000/svg" xmlns:xlink="http://www.w3.org/1999/xlink" x="0px" y="0px"
	 viewBox="0 0 192.7 67.6" style="enable-background:new 0 0 192.7 67.6;" xml:space="preserve">
<style type="text/css">
	.st0{fill:#005497;}
	.st1{fill:#8CC349;}
	.st2{enable-background:new    ;}
</style>
<title>logo-color-en</title>
<path class="st0" d="M19.1,47.9c-2.4,1-4.9,1.6-7.5,1.7C3.2,49.6,0,42.9,0,35.4s2.8-13.2,10.8-13.2c6.3,0,9.3,3,9.3,7.6h-5.7
	c0-2.1-0.7-5.1-3.9-5.1S5.3,31,5.3,34.5s0.1,11.8,7.2,11.8c2.4-0.1,4.8-1,6.6-2.6v4.1V47.9z M30,47.7c3.2,0,3.4-3.7,3.4-7.8
	s-0.2-7.8-3.4-7.8s-3.4,3.7-3.4,7.8S26.9,47.7,30,47.7 M21.5,39.9c0-7,3.3-9.6,8.5-9.6s8.4,2.6,8.4,9.6s-3.2,9.6-8.4,9.6
	S21.5,46.9,21.5,39.9 M42.2,30.8h4.6v18.3h-4.6C42.2,49.1,42.2,30.8,42.2,30.8z M42.2,22.6h4.6v4.2h-4.6V22.6z M51.8,30.8h4.6v4.1
	h0.1c0.7-1.5,2.2-4.5,6-4.5c3.8,0,4.6,2.2,4.6,6.1v12.6h-4.6V37.7c0-2.3-0.2-4-2-4s-4,5.3-4,8.2v7.2h-4.7
	C51.8,49.1,51.8,30.8,51.8,30.8z M81.5,40.6c-1.6,0.2-5.6,0.7-5.6,3.6s0.8,2.6,2.1,2.6s3.5-2.3,3.5-4.9
	C81.5,41.9,81.5,40.6,81.5,40.6z M81.5,46.6L81.5,46.6c-1.2,1.8-3.2,2.8-5.3,2.8c-2.9,0-5.1-1.9-5.1-4.6c0-5.6,7.8-6,10.4-6.1v-3.1
	c0-2.7-0.8-3.6-2.3-3.6s-2.4,2.9-2.5,4.1h-4.9c0-3.8,2.6-5.9,7.5-5.9s6.9,2.7,6.9,6.3v12.4h-4.6v-2.4L81.5,46.6z M90.9,30.8h4.6v4.1
	h0.1c0.5-1.6,2-4.5,5.3-4.5s4.4,2.7,4.6,4.3h0.1c0.7-1.4,1.8-4.3,5.3-4.3s4.6,3.4,4.6,6.5v12.2h-4.6V37.2c0-1.4-0.2-3.5-2-3.5
	s-3.4,5.5-3.4,7.1V49h-4.7V37.7c0-2.3-0.2-4-2-4s-3.3,6.3-3.3,8.2v7.2h-4.6C90.9,49.1,90.9,30.8,90.9,30.8z M129.9,40.6
	c-1.6,0.2-5.6,0.7-5.6,3.6s0.8,2.6,2.1,2.6s3.5-2.3,3.5-4.9C129.9,41.9,129.9,40.6,129.9,40.6z M129.9,46.6h-0.1
	c-1.1,1.8-3.1,2.8-5.2,2.8c-2.9,0-5.1-1.9-5.1-4.6c0-5.6,7.8-6,10.4-6.1v-3.1c0-2.7-0.8-3.6-2.3-3.6s-2.4,2.9-2.5,4.1h-5
	c0-3.8,2.6-5.9,7.5-5.9c4.9,0,6.9,2.7,6.9,6.3v12.4h-4.7v-2.4L129.9,46.6z M149.9,49.3l-3.3,0.2c-3.6,0-5.8-0.9-5.8-5.1V33h-3.4
	v-2.2h3.4v-4.3l4.7-2.8v7.1h5.1V33h-5.1v10.8c0,2.4,0.7,3,2.4,3c0.7,0,1.4-0.1,2.1-0.3v2.7L149.9,49.3z M153.1,30.8h4.7v18.3h-4.7
	V30.8z M176.8,48.4c-1.8,0.7-3.7,1.1-5.7,1.1c-5.3,0-9.5-3-9.5-10.3c0-5.3,2.5-8.8,8.3-8.8s7.1,2.5,7.1,6.6h-5
	c0-3.2-0.3-4.8-2.3-4.8s-3,2.8-3,5.5c0,4.8,2.4,9.5,6.6,9.5c1.2,0,2.5-0.3,3.6-0.7v2L176.8,48.4z M140.3,7.5
	c9.9,2.6,17.2-3.2,23.5-5.5s12.1-3.9,19.1,4.3C170-4.6,152.6,22.7,140.3,7.5"/>
<path class="st1" d="M145.2,14.4c9.9,2.6,17.2-3.2,23.5-5.5s12.1-3.9,19.1,4.3C174.9,2.3,157.5,29.6,145.2,14.4"/>
<path class="st0" d="M150.1,21.4c9.9,2.6,17.2-3.2,23.5-5.5s12.1-3.9,19.1,4.3C179.8,9.3,162.4,36.6,150.1,21.4 M182.3,28h0.7
	c0.4,0,0.7-0.1,0.7-0.5c0-0.3-0.4-0.6-0.7-0.5c0,0,0,0,0,0h-0.7V28z M181.7,26.5h1.3c0.5-0.1,1.1,0.2,1.2,0.8c0,0.1,0,0.1,0,0.2
	c0.1,0.5-0.3,0.9-0.8,1c0,0-0.1,0-0.1,0l1,1.5h-0.5l-1-1.5h-0.5V30h-0.5v-3.5L181.7,26.5z M182.8,30.7c1.4,0.1,2.5-1,2.6-2.4
	c0.1-1.4-1-2.5-2.4-2.6s-2.5,1-2.6,2.4c0,0,0,0.1,0,0.1c-0.1,1.3,1,2.4,2.3,2.5C182.7,30.7,182.8,30.7,182.8,30.7 M182.8,25.2
	c1.7,0,3,1.3,3,3s-1.3,3-3,3s-3-1.3-3-3S181.1,25.2,182.8,25.2"/>
<g class="st2">
	<path class="st0" d="M18,65.1V58h1.6v5.9h3.1v1.3H18z"/>
	<path class="st0" d="M26.7,65.1l0-0.8c-0.4,0.6-1,1-1.7,1c-1,0-1.8-0.5-1.8-1.6c0-1.4,1.4-1.9,2.9-1.9c0.2,0,0.4,0,0.6,0v-0.2
		c0-0.8-0.5-1.1-1.3-1.1c-0.5,0-1.1,0.1-1.6,0.4l-0.1-1c0.6-0.2,1.3-0.3,1.9-0.3c1.4,0,2.5,0.5,2.5,2.1v2.1c0,0.5,0,0.9,0.1,1.3
		H26.7z M26.7,62.5h-0.2c-0.8,0-1.9,0.1-1.9,1c0,0.5,0.4,0.7,0.9,0.7c0.9,0,1.2-0.7,1.2-1.5V62.5z"/>
	<path class="st0" d="M32.9,65.1l0-0.9c-0.4,0.7-1,1-1.7,1c-1.3,0-1.8-0.8-1.8-2v-3.5h1.5v3.1c0,0.6,0.1,1.3,0.9,1.3
		c0.8,0,1.1-0.8,1.1-1.5v-3h1.5v4.2c0,0.4,0,0.8,0.1,1.2H32.9z"/>
	<path class="st0" d="M39.1,65.1V62c0-0.6-0.1-1.3-0.9-1.3c-0.8,0-1.1,0.8-1.1,1.5v3h-1.5v-4.2c0-0.4,0-0.8-0.1-1.2h1.4l0,0.9
		c0.4-0.7,1-1,1.7-1c1.3,0,1.8,0.8,1.8,2v3.5H39.1z"/>
	<path class="st0" d="M45.6,65.1l-0.1-0.9c-0.3,0.7-1,1-1.7,1c-1.7,0-2.3-1.4-2.3-2.8c0-1.4,0.6-2.8,2.2-2.8c0.7,0,1.3,0.4,1.6,1
		v-3.2h1.5v6.2c0,0.6,0,1.1,0,1.5H45.6z M44.3,60.7c-1,0-1.1,1-1.1,1.7s0.2,1.8,1.2,1.8c0.9,0,1.2-1,1.2-1.8
		C45.5,61.7,45.2,60.7,44.3,60.7z"/>
	<path class="st0" d="M51.5,61c-0.1-0.1-0.3-0.1-0.5-0.1c-1,0-1.3,1-1.3,1.8v2.4h-1.5v-4.2c0-0.4,0-0.8-0.1-1.2h1.4l0,1
		c0.2-0.6,0.8-1.2,1.5-1.2c0.2,0,0.3,0,0.4,0.1L51.5,61z"/>
	<path class="st0" d="M55.1,65.7c-0.2,0.8-0.7,1.8-2,1.8c-0.4,0-0.7-0.1-1.1-0.1l0.1-1c0.2,0.1,0.4,0.1,0.6,0.1
		c0.5,0,0.8-0.6,0.9-0.9l0.1-0.3l-1.9-5.5h1.6l1.2,4.1l1.1-4.1H57L55.1,65.7z"/>
	<path class="st0" d="M66.5,61.9v3c-0.6,0.2-1.8,0.3-2.6,0.3c-1.7,0-3.2-0.5-3.2-2.1c0-1,0.8-1.7,1.7-1.7c-1-0.1-1.5-0.8-1.5-1.6
		c0-1.3,1.3-2,3-2c0.7,0,1.4,0.1,2,0.3l-0.1,1.1c-0.6-0.3-1.2-0.4-1.9-0.4c-0.8,0-1.5,0.4-1.5,1c0,0.8,0.6,1.1,1.5,1.1h1.1v-0.7h1.4
		v0.7h1.1v1H66.5z M65.1,61.9h-1.1c-1,0-1.7,0.3-1.7,1.2c0,0.9,0.8,1.1,1.7,1.1c0.4,0,0.8,0,1.1-0.2V61.9z"/>
	<path class="st0" d="M74.3,65.1h-2.6V58h2.9c1.2,0,2.4,0.4,2.4,1.8c0,0.9-0.5,1.5-1.4,1.7c0.9,0.1,1.6,0.7,1.6,1.7
		C77.2,64.8,75.7,65.1,74.3,65.1z M74.1,58.9h-0.9v2H74c0.7,0,1.4-0.2,1.4-1.1C75.4,59.2,74.8,58.9,74.1,58.9z M73.9,61.9h-0.7v2.2
		H74c0.7,0,1.6-0.2,1.6-1.1C75.6,62.1,74.7,61.9,73.9,61.9z"/>
	<path class="st0" d="M79.5,62.8c0,0.9,0.7,1.5,1.6,1.5c0.5,0,1.2-0.1,1.6-0.4l0.1,1c-0.6,0.2-1.3,0.3-2,0.3c-1.8,0-2.8-1.1-2.8-2.8
		c0-1.6,1.1-2.8,2.6-2.8c1.7,0,2.4,1.2,2.4,2.8v0.3H79.5z M80.6,60.5c-0.8,0-1.2,0.9-1.2,1.5h2.2C81.7,61.3,81.5,60.5,80.6,60.5z"/>
	<path class="st0" d="M86.8,65.7c-0.2,0.8-0.7,1.8-2,1.8c-0.4,0-0.7-0.1-1.1-0.1l0.1-1c0.2,0.1,0.4,0.1,0.6,0.1
		c0.5,0,0.8-0.6,0.9-0.9l0.1-0.3l-1.9-5.5H85l1.2,4.1l1.1-4.1h1.5L86.8,65.7z"/>
	<path class="st0" d="M91.9,65.2c-1.8,0-2.8-1.1-2.8-2.8c0-1.8,1.2-2.8,2.8-2.8c1.7,0,2.8,1,2.8,2.8C94.8,64.1,93.7,65.2,91.9,65.2z
		 M91.9,60.6c-0.9,0-1.2,1-1.2,1.8c0,0.9,0.3,1.8,1.2,1.8c0.9,0,1.2-0.9,1.2-1.8C93.2,61.6,92.9,60.6,91.9,60.6z"/>
	<path class="st0" d="M99.2,65.1V62c0-0.6-0.1-1.3-0.9-1.3c-0.8,0-1.1,0.8-1.1,1.5v3h-1.5v-4.2c0-0.4,0-0.8-0.1-1.2h1.4l0,0.9
		c0.4-0.7,1-1,1.7-1c1.3,0,1.8,0.8,1.8,2v3.5H99.2z"/>
	<path class="st0" d="M105.8,65.1l-0.1-0.9c-0.3,0.7-1,1-1.7,1c-1.6,0-2.3-1.4-2.3-2.8c0-1.4,0.6-2.8,2.2-2.8c0.7,0,1.3,0.4,1.6,1
		v-3.2h1.5v6.2c0,0.6,0,1.1,0,1.5H105.8z M104.5,60.7c-1,0-1.1,1-1.1,1.7s0.2,1.8,1.2,1.8c0.9,0,1.2-1,1.2-1.8
		C105.6,61.7,105.4,60.7,104.5,60.7z"/>
	<path class="st0" d="M108.6,65.1v-1.3h1.4v1.3H108.6z"/>
</g>
<g class="st2">
	<path class="st1" d="M115.8,65.2c-0.7,0-1.5-0.1-2.2-0.3l0.1-1.2c0.6,0.3,1.3,0.4,2,0.4c0.7,0,1.4-0.2,1.4-1c0-0.5-0.8-0.8-1.3-1.1
		l-0.7-0.3c-0.8-0.4-1.5-0.9-1.5-1.8c0-1.6,1.6-2,2.9-2c0.6,0,1.2,0.1,1.8,0.2l-0.1,1.2c-0.5-0.2-1.1-0.3-1.6-0.3
		c-0.6,0-1.4,0.2-1.4,0.9c0,0.5,0.6,0.8,1.1,0.9l0.8,0.3c0.9,0.4,1.6,0.9,1.6,2C118.6,64.6,117.2,65.2,115.8,65.2z"/>
	<path class="st1" d="M119.7,58.7v-1.2h1.5v1.2H119.7z M119.7,65.1v-5.4h1.5v5.4H119.7z"/>
	<path class="st1" d="M129.1,65.1v-3.4c0-0.6-0.2-1.1-0.8-1.1c-0.7,0-1,0.8-1,1.4v3h-1.5v-3.4c0-0.6-0.2-1.1-0.8-1.1
		c-0.8,0-1,0.8-1,1.4v3h-1.5v-4.2c0-0.4,0-0.8-0.1-1.2h1.4l0,0.9c0.3-0.7,0.9-1,1.7-1c0.8,0,1.4,0.4,1.6,1.1c0.3-0.7,1-1.1,1.7-1.1
		c1.3,0,1.7,0.8,1.7,2v3.5H129.1z"/>
	<path class="st1" d="M135,65.2c-0.7,0-1.3-0.4-1.6-1v3.2h-1.5v-6.1c0-0.6,0-1.1-0.1-1.6h1.4l0,0.9c0.3-0.7,1-1,1.7-1
		c1.6,0,2.2,1.3,2.2,2.8C137.2,63.8,136.6,65.2,135,65.2z M134.5,60.7c-0.9,0-1.2,1-1.2,1.7c0,0.7,0.2,1.8,1.2,1.8
		c1,0,1.2-1,1.2-1.8S135.5,60.7,134.5,60.7z"/>
	<path class="st1" d="M138.3,65.1v-7.7h1.5v7.7H138.3z"/>
	<path class="st1" d="M143.8,65.7c-0.2,0.8-0.7,1.8-2,1.8c-0.4,0-0.7-0.1-1.1-0.1l0.1-1c0.2,0.1,0.4,0.1,0.6,0.1
		c0.5,0,0.8-0.6,0.9-0.9l0.1-0.3l-1.9-5.5h1.6l1.2,4.1l1.1-4.1h1.5L143.8,65.7z"/>
	<path class="st1" d="M153.3,65.2c-2.3,0-3.9-1.3-3.9-3.7c0-2.2,1.7-3.7,3.9-3.7c0.6,0,1.3,0.1,1.8,0.3l-0.1,1.2
		c-0.4-0.2-1-0.3-1.5-0.3c-1.5,0-2.5,1-2.5,2.5c0,1.5,0.9,2.5,2.5,2.5c0.5,0,1-0.1,1.5-0.3l0.1,1.2
		C154.5,65.1,153.9,65.2,153.3,65.2z"/>
	<path class="st1" d="M156.1,65.1v-7.7h1.5v7.7H156.1z"/>
	<path class="st1" d="M160,62.8c0,0.9,0.7,1.5,1.6,1.5c0.5,0,1.2-0.1,1.6-0.4l0.1,1c-0.6,0.2-1.3,0.3-2,0.3c-1.8,0-2.8-1.1-2.8-2.8
		c0-1.6,1.1-2.8,2.6-2.8c1.7,0,2.4,1.2,2.4,2.8v0.3H160z M161.2,60.5c-0.8,0-1.2,0.9-1.2,1.5h2.2C162.3,61.3,162,60.5,161.2,60.5z"
		/>
	<path class="st1" d="M167.8,65.1l0-0.8c-0.4,0.6-1,1-1.7,1c-1,0-1.8-0.5-1.8-1.6c0-1.4,1.4-1.9,2.9-1.9c0.2,0,0.4,0,0.6,0v-0.2
		c0-0.8-0.5-1.1-1.3-1.1c-0.5,0-1.1,0.1-1.6,0.4l-0.1-1c0.6-0.2,1.3-0.3,1.9-0.3c1.4,0,2.5,0.5,2.5,2.1v2.1c0,0.5,0,0.9,0.1,1.3
		H167.8z M167.8,62.5h-0.2c-0.8,0-1.9,0.1-1.9,1c0,0.5,0.4,0.7,0.9,0.7c0.9,0,1.2-0.7,1.2-1.5V62.5z"/>
	<path class="st1" d="M173.9,65.1V62c0-0.6-0.1-1.3-0.9-1.3c-0.8,0-1.1,0.8-1.1,1.5v3h-1.5v-4.2c0-0.4,0-0.8-0.1-1.2h1.4l0,0.9
		c0.4-0.7,1-1,1.7-1c1.3,0,1.8,0.8,1.8,2v3.5H173.9z"/>
	<path class="st1" d="M176.9,65.1v-1.3h1.4v1.3H176.9z"/>
</g>
</svg>
