<svg enable-background="new 0 0 1858.7 346.7" viewBox="0 0 1858.7 346.7" xmlns="http://www.w3.org/2000/svg"><path d="m1114.1 105.7c0 18.3 14.8 33.1 33.1 33.1s33.1-14.8 33.1-33.1-14.8-33.1-33.1-33.1-33.1 14.8-33.1 33.1" fill="#4e4e56"/><path d="m1349.7 45.3-25.6 60.4h-34.8l44.5-102.7h32.8l88.6 202.8h-37.4z" fill="#4e4e56"/><path d="m1245.3 205.8h36.2l16.6-39h-35.9z" fill="#4e4e56"/><path d="m1147.1 211.1c-56.8 0-105.5-47.3-105.5-105.6 0-29.7 10-55.7 29.4-75.3 19.1-19.2 45.8-30.2 73.2-30.2 51.9 0 81 32 82.2 33.3l-24.4 21.9c-.8-.9-21.1-22.5-57.8-22.5-18.7 0-37 7.5-50 20.6-13.1 13.2-20 31.2-19.9 52 .3 40.3 30.3 72.7 72.8 73 18.1 0 34.3-9.7 50.7-22.7 11.6-9.2 24.9-20.2 36.1-26 11.9-6 32.5-9.7 50.5-10.4h81.6l12.5 32.7h-94.4c-.5 0-19.7-.7-39.3 8.5-7.9 3.7-16.8 12.4-26.7 20.2-18 14.6-41.4 30.5-71 30.5z" fill="#6cab36"/><g fill="#4e4e56"><path d="m143 206.1v-88.2h-106.9v88.2h-36.1v-201.6h36.1v82.2h106.9v-82.2h36.1v201.6z"/><path d="m304.8 39.9-37 96.1h74zm62.3 166.2-15.1-39h-94.3l-15.1 39h-41l80.7-201.6h45l80.8 201.6z"/><path d="m573.6 206.1-107.2-144.1v144.1h-36.1v-201.6h37l105.1 139.7v-139.7h36v201.6z"/><path d="m795.5 206.1-107.2-144.1v144.1h-36.1v-201.6h37l105.1 139.7v-139.7h36.1v201.6z"/><path d="m874.1 206.1v-201.6h140.9v31.2h-104.8v51.9h102.6v31.2h-102.6v56.2h104.8v31.1z"/><path d="m1601.2 67.4c0-19.3-14.8-31.7-35.1-31.7h-49.6v64.1h49.6c20.3-.1 35.1-12.8 35.1-32.4m-3.4 138.7-45.3-75.3h-36.1v75.3h-36.1v-201.6h90.3c40.7 0 67.5 25.7 67.5 63.2 0 35.7-24 55.3-49 59.2l50.5 79.2z"/><path d="m1821.3 105.2c0-38.7-24.7-69.5-70.3-69.5h-40.7v139.3h40.4c44.7 0 70.6-31.4 70.6-69.8m-147 100.9v-201.6h76.4c64.4 0 107.6 41.7 107.6 100.6 0 59.5-43.1 100.9-107.3 100.9h-76.7z"/></g><path d="m688.9 322.7 25.9-47.2h-12.1l-19.8 34.5-20.2-34.4h-12l26.4 47.6v23.1h11.8zm67.4-47.5c-21.1 0-37.5 15.3-37.5 35.6 0 20.2 16.4 35.8 37.5 35.8s37.5-15.6 37.5-35.8c0-20.1-16.4-35.6-37.5-35.6m.1 10.7c13.8 0 25.1 10.9 25.1 24.9s-11.3 25.1-25.1 25.1-25.4-11.1-25.4-25.1 11.5-24.9 25.4-24.9m113.7-10.4h-11.9v41.4c0 12-7.2 19.1-18.7 19.1-11.6 0-19-7.2-19-19.1v-41.4h-11.9v41.4c0 18.5 11.7 29.8 30.8 29.8s30.7-11.3 30.7-29.8zm65.5 70.7h13.5l-15.9-23.6c9.4-3.6 14.6-11.6 14.6-22.9 0-15.3-10.4-24.1-28.5-24.1h-28.7v70.7h11.9v-21.3h16.8c1.1 0 2.2 0 3.2-.1zm-33-32v-28h16.8c10.9 0 17.2 4.4 17.2 13.7 0 9.6-6.3 14.2-17.2 14.2h-16.8zm139.1 32h13.5l-15.9-23.6c9.4-3.6 14.6-11.6 14.6-22.9 0-15.3-10.4-24.1-28.5-24.1h-28.7v70.7h11.9v-21.3h16.8c1.1 0 2.2 0 3.2-.1zm-32.9-32v-28h16.8c10.9 0 17.2 4.4 17.2 13.7 0 9.6-6.3 14.2-17.2 14.2h-16.8zm96.2-39c-21.1 0-37.5 15.3-37.5 35.6 0 20.2 16.4 35.8 37.5 35.8s37.5-15.6 37.5-35.8c0-20.1-16.4-35.6-37.5-35.6m.1 10.7c13.8 0 25.1 10.9 25.1 24.9s-11.3 25.1-25.1 25.1-25.4-11.1-25.4-25.1c-.1-14 11.5-24.9 25.4-24.9m65.5 49.5v-59.9h-11.9v70.7h42.5v-10.8zm57.5 0v-59.9h-11.9v70.7h42.5v-10.8zm96-49.2v-10.7h-50.5v70.7h51.7v-10.7h-39.8v-19.5h34.5v-10.7h-34.5v-19.1zm64.1 60h13.5l-15.9-23.6c9.4-3.6 14.6-11.6 14.6-22.9 0-15.3-10.4-24.1-28.5-24.1h-28.7v70.7h11.9v-21.3h16.8c1.1 0 2.2 0 3.2-.1zm-32.9-32v-28h16.8c10.9 0 17.2 4.4 17.2 13.7 0 9.6-6.3 14.2-17.2 14.2h-16.8zm144.7-28v-10.7h-50.5v70.7h51.7v-10.7h-39.8v-19.5h34.5v-10.7h-34.5v-19.1zm52 23.2 23.7-33.9h-13.9l-17.4 24.5-17.3-24.5h-13.8l23.9 34.4-25.8 36.2h13.9l19-26.7 19.1 26.7h14.2zm40.7-33.9v70.7h11.9v-21.3h16.3c17.8 0 28-9.3 28-25.2 0-15.3-10.2-24.1-28-24.1h-28.2zm11.9 10.7h15.8c10.9 0 17.1 4.4 17.1 13.7 0 9.6-6.2 14.2-17.1 14.2h-15.8zm110 0v-10.7h-50.5v70.7h51.7v-10.7h-39.8v-19.5h34.5v-10.7h-34.5v-19.1zm64.2 60h13.5l-15.8-23.6c9.4-3.6 14.6-11.6 14.6-22.9 0-15.3-10.4-24.1-28.5-24.1h-28.7v70.7h11.9v-21.3h16.8c1.1 0 2.2 0 3.2-.1zm-33-32v-28h16.8c10.9 0 17.2 4.4 17.2 13.7 0 9.6-6.3 14.2-17.2 14.2h-16.8zm112.9-28v-10.7h-56.6v10.7h22.3v60h11.9v-60z" fill="#6cab36"/></svg>