<?xml version="1.0" encoding="utf-8"?>
<!-- Generator: Adobe Illustrator 16.0.0, SVG Export Plug-In . SVG Version: 6.00 Build 0)  -->
<!DOCTYPE svg PUBLIC "-//W3C//DTD SVG 1.1//EN" "http://www.w3.org/Graphics/SVG/1.1/DTD/svg11.dtd">
<svg version="1.1" id="Layer_1" xmlns="http://www.w3.org/2000/svg" xmlns:xlink="http://www.w3.org/1999/xlink" x="0px" y="0px"
	 width="140.138px" height="112px" viewBox="0 0 140.138 112" enable-background="new 0 0 140.138 112" xml:space="preserve">
<g id="GIF" display="none">
	
		<image display="inline" overflow="visible" enable-background="new    " width="377" height="112" xlink:href="maibec-tmp.gif"  transform="matrix(1 0 0 1 1.0007 1)">
	</image>
</g>
<g id="RES_FR" display="none">
	<path display="inline" d="M30.375,95.596h-5.213v-12c0-2.935-1.301-3.904-2.832-3.904c-2.604,0-3.534,1.707-3.534,4.053v11.854
		h-5.22V83.705c0-1.67,0-4.014-3.124-4.014c-2.458,0-3.244,1.707-3.244,3.863v12.041H2V75.823h4.983v2.903h0.079
		c0.67-1.301,2.122-3.422,5.619-3.422c2.876,0,4.177,1.041,5.515,3.158c0.67-0.963,2.129-3.158,5.285-3.158
		c3.875,0,6.895,2.27,6.895,6.611L30.375,95.596L30.375,95.596z"/>
	<path display="inline" d="M51.116,91.73c0,2.344,0.523,2.858,1.159,3.086v0.779H46.65c-0.3-0.93-0.372-1.228-0.487-2.344
		c-1.19,1.23-2.866,2.861-6.404,2.861c-2.979,0-6.036-1.672-6.036-5.758c0-3.865,2.468-5.836,5.777-6.316l4.693-0.707
		c0.813-0.116,1.822-0.447,1.822-1.563c0-2.191-2.084-2.307-3.43-2.307c-2.602,0-3.052,1.604-3.195,2.752h-5.034
		c0.597-6.057,4.806-6.914,8.866-6.914c2.793,0,7.896,0.857,7.896,5.723L51.116,91.73L51.116,91.73z M46.014,85.975
		c-0.523,0.404-1.377,0.746-3.534,1.075c-1.939,0.329-3.537,0.816-3.537,2.976c0,1.82,1.411,2.373,2.417,2.373
		c2.309,0,4.653-1.48,4.653-3.896L46.014,85.975L46.014,85.975z"/>
	<path display="inline" d="M61.135,95.596h-5.217V75.823h5.217V95.596z M61.135,73.721h-5.217v-4.832h5.217V73.721z"/>
	<path display="inline" d="M70.938,78.393h0.07c0.827-1.266,2.392-3.088,5.741-3.088c4.361,0,8.231,3.348,8.231,10.182
		c0,5.432-2.459,10.631-8.344,10.631c-2.16,0-4.474-0.779-5.733-3.008h-0.071v2.486h-5.107V68.912h5.212L70.938,78.393
		L70.938,78.393z M75.191,79.809c-3.575,0-4.474,3.191-4.474,6.352c0,2.938,1.303,5.688,4.621,5.688
		c3.349,0,4.278-3.644,4.278-5.986C79.617,82.734,78.501,79.809,75.191,79.809"/>
	<path display="inline" d="M105.531,89.801c-1.381,4.754-5.329,6.314-8.718,6.314c-5.588,0-9.87-2.672-9.87-10.811
		c0-2.381,0.819-10,9.5-10c3.91,0,9.309,1.858,9.309,10.891v0.929H92.157c0.149,1.487,0.448,4.829,4.655,4.829
		c1.455,0,2.941-0.742,3.354-2.152H105.531L105.531,89.801z M100.388,83.742c-0.296-3.196-2.349-4.162-4.017-4.162
		c-2.461,0-3.767,1.563-4.064,4.162H100.388z"/>
	<path display="inline" d="M126.636,88.387c-0.188,2.043-1.786,7.729-9.052,7.729c-7.454,0-9.161-5.687-9.161-9.849
		c0-6.394,2.798-10.963,9.5-10.963c3.125,0,8.266,1.416,8.751,7.581h-5.296c-0.219-1.298-1.042-3.344-3.455-3.194
		c-3.279,0-4.136,3.271-4.136,5.729c0,2.148,0.071,6.428,4.021,6.428c2.646,0,3.537-2.527,3.537-3.459h5.29V88.387L126.636,88.387z"
		/>
	<path display="inline" d="M138.744,63.369c-0.904,0.878-1.988,1.314-3.254,1.314c-1.31,0-2.409-0.447-3.307-1.349
		c-0.896-0.897-1.344-1.999-1.344-3.313c0-1.361,0.484-2.494,1.451-3.396c0.908-0.844,1.976-1.265,3.199-1.265
		c1.281,0,2.376,0.456,3.286,1.37c0.909,0.905,1.361,2.01,1.361,3.293C140.138,61.348,139.673,62.462,138.744,63.369 M132.775,57.35
		c-0.738,0.758-1.104,1.652-1.104,2.689c0,1.074,0.375,1.99,1.122,2.74c0.749,0.752,1.647,1.129,2.704,1.129
		c1.051,0,1.949-0.381,2.694-1.135c0.747-0.763,1.119-1.672,1.119-2.734c0-1.032-0.371-1.926-1.11-2.689
		c-0.752-0.771-1.652-1.158-2.703-1.158C134.43,56.191,133.524,56.578,132.775,57.35 M133.454,62.6v-5.146h1.435
		c0.635,0.002,0.988,0.005,1.063,0.009c0.406,0.031,0.744,0.12,1.014,0.267c0.457,0.258,0.686,0.666,0.686,1.236
		c0,0.434-0.12,0.747-0.363,0.943c-0.243,0.188-0.542,0.307-0.896,0.342c0.33,0.064,0.579,0.162,0.749,0.288
		c0.308,0.235,0.46,0.62,0.46,1.149v0.459c0,0.056,0.004,0.105,0.011,0.154c0.004,0.051,0.018,0.102,0.028,0.152l0.039,0.146h-1.295
		c-0.042-0.166-0.071-0.402-0.088-0.722c-0.021-0.312-0.046-0.521-0.088-0.63c-0.065-0.186-0.193-0.313-0.376-0.387
		c-0.104-0.039-0.258-0.063-0.464-0.08l-0.295-0.02h-0.284V62.6H133.454z M135.901,58.458c-0.188-0.069-0.447-0.104-0.784-0.104
		h-0.331v1.508h0.525c0.315,0,0.564-0.064,0.741-0.191c0.176-0.127,0.266-0.332,0.266-0.613
		C136.318,58.77,136.178,58.568,135.901,58.458"/>
	<path display="inline" fill="#007FA3" d="M90.91,64.684c-0.001-7.66-3.015-14.509-7.855-19.479
		c-4.858-4.963-11.424-7.965-18.732-7.971c-7.309,0.006-13.872,3.008-18.73,7.971c-4.842,4.972-7.854,11.818-7.855,19.479H21.942
		c-0.001-11.857,4.706-22.686,12.345-30.508c7.623-7.83,18.3-12.74,30.034-12.734c11.737-0.006,22.415,4.904,30.037,12.734
		c7.64,7.821,12.348,18.648,12.345,30.508H90.91z"/>
	<path display="inline" fill="#007FA3" d="M70.966,64.689c-0.002-2.02-0.781-3.756-2.016-5.029
		c-1.251-1.264-2.829-1.979-4.633-1.984c-1.802,0.006-3.381,0.721-4.632,1.985c-1.233,1.272-2.015,3.011-2.017,5.028H41.878
		c-0.002-6.217,2.475-11.936,6.505-16.058c4.015-4.132,9.705-6.754,15.936-6.749c6.229-0.005,11.924,2.617,15.937,6.749
		c4.03,4.122,6.507,9.841,6.503,16.058l0,0H70.966z"/>
	<path display="inline" fill="#007FA3" d="M110.853,64.684c-0.002-13.307-5.246-25.262-13.697-33.934
		c-8.467-8.662-20.019-13.953-32.834-13.958C51.505,16.797,39.957,22.088,31.49,30.75c-8.45,8.67-13.694,20.627-13.697,33.934H2
		C1.998,47.18,8.938,31.242,20.185,19.722C31.417,8.193,47.08,0.994,64.321,1c17.243-0.006,32.907,7.193,44.14,18.722
		c11.247,11.521,18.188,27.458,18.186,44.961H110.853L110.853,64.684z"/>
	<path display="inline" fill="#53565A" d="M167.892,37.475h-1.327V22.74h4.816c1.285,0,2.347,0.081,3.47,0.775
		c1.021,0.611,1.51,1.674,1.51,3.081c0,1.593-1.123,2.735-2.837,3.163V29.8c1.877,0.306,2.286,1.571,2.47,3.285
		c0.266,2.388,0.185,3.49,0.776,4.389h-1.531c-0.347-0.979-0.429-2.021-0.511-3.062c-0.307-3.367-0.511-3.959-3.184-3.959h-3.653
		L167.892,37.475L167.892,37.475z M170.729,29.229c1.877,0,4.203-0.122,4.203-2.633c0-2.837-2.653-2.632-4.062-2.632h-2.979v5.265
		H170.729z"/>
	<path display="inline" fill="#53565A" d="M179.878,32.639c0.041,2.184,1.04,4.02,3.551,4.02c1.448,0,2.652-1.041,2.959-2.449h1.285
		c-0.632,2.449-2.162,3.572-4.632,3.572c-3.063,0-4.49-2.634-4.49-5.43c0-2.775,1.531-5.428,4.571-5.428
		c3.429,0,4.674,2.51,4.674,5.715H179.878z M186.469,31.516c-0.144-1.98-1.204-3.47-3.327-3.47c-1.999,0-3.062,1.674-3.225,3.47
		H186.469z"/>
	<polygon display="inline" fill="#53565A" points="189.749,27.229 193.28,35.781 196.687,27.229 198.034,27.229 193.973,37.475 
		192.585,37.475 188.402,27.229 	"/>
	<path display="inline" fill="#53565A" d="M199.913,32.638c0.041,2.184,1.042,4.021,3.55,4.021c1.45,0,2.655-1.041,2.961-2.449
		h1.285c-0.633,2.449-2.164,3.571-4.633,3.571c-3.062,0-4.489-2.632-4.489-5.429c0-2.775,1.531-5.429,4.571-5.429
		c3.429,0,4.673,2.511,4.673,5.715H199.913z M206.505,31.516c-0.144-1.98-1.205-3.47-3.326-3.47c-2,0-3.062,1.674-3.226,3.47
		H206.505z M202.506,23.046h1.489l2.02,2.96h-0.958l-1.815-2.164l-1.838,2.164h-0.938L202.506,23.046z"/>
	<path display="inline" fill="#53565A" d="M210.68,28.352h-2.041V27.23h2.041v-2.185l1.225-0.529v2.714h2.327v1.122h-2.327v6.857
		c-0.021,0.939,0.47,1.449,1.408,1.449c0.367,0,0.733-0.02,1.062-0.123v1.061c-0.389,0.104-0.836,0.186-1.245,0.186
		c-2.592,0-2.448-1.653-2.448-3.041L210.68,28.352L210.68,28.352z"/>
	<path display="inline" fill="#53565A" d="M216.463,32.639c0.041,2.184,1.042,4.02,3.553,4.02c1.447,0,2.651-1.041,2.959-2.449
		h1.285c-0.633,2.449-2.163,3.572-4.633,3.572c-3.063,0-4.488-2.634-4.488-5.43c0-2.775,1.53-5.428,4.57-5.428
		c3.43,0,4.673,2.51,4.673,5.715H216.463z M223.055,31.516c-0.144-1.98-1.204-3.47-3.326-3.47c-2,0-3.063,1.674-3.226,3.47H223.055z
		"/>
	<path display="inline" fill="#53565A" d="M227.788,28.74l0.042,0.04c0.714-1.266,1.877-1.857,3.204-1.857
		c1.611,0,2.877,0.898,3.326,2.245c0.756-1.203,1.938-2.245,3.53-2.245c3.346,0,3.611,2.959,3.611,4.144v6.408h-1.225v-6.612
		c0-1.775-1.021-2.816-2.693-2.816c-2.021,0-2.938,1.694-2.938,3.53v5.898h-1.226v-6.612c0-1.775-1.021-2.816-2.693-2.816
		c-2.021,0-2.938,1.694-2.938,3.53v5.898h-1.226v-7.939c0-0.795-0.062-1.611-0.103-2.305h1.266L227.788,28.74z"/>
	<path display="inline" fill="#53565A" d="M244.94,32.639c0.042,2.184,1.042,4.02,3.552,4.02c1.448,0,2.652-1.041,2.959-2.449h1.284
		c-0.632,2.449-2.163,3.572-4.633,3.572c-3.063,0-4.49-2.634-4.49-5.43c0-2.775,1.53-5.428,4.572-5.428
		c3.428,0,4.672,2.51,4.672,5.715H244.94z M251.532,31.516c-0.143-1.98-1.204-3.47-3.327-3.47c-2,0-3.063,1.674-3.225,3.47H251.532z
		"/>
	<path display="inline" fill="#53565A" d="M256.274,37.475h-1.225v-7.939c0-0.795-0.062-1.611-0.104-2.306h1.267l0.062,1.511
		l0.041,0.04c0.714-1.266,1.878-1.856,3.205-1.856c3.347,0,3.61,2.958,3.61,4.143v6.408h-1.225v-6.612
		c0-1.775-1.021-2.816-2.692-2.816c-2.021,0-2.938,1.694-2.938,3.53L256.274,37.475L256.274,37.475z"/>
	<path display="inline" fill="#53565A" d="M266.523,28.352h-2.042V27.23h2.042v-2.185l1.225-0.529v2.714h2.327v1.122h-2.327v6.857
		c-0.021,0.939,0.469,1.449,1.407,1.449c0.367,0,0.734-0.02,1.063-0.123v1.061c-0.389,0.104-0.837,0.186-1.245,0.186
		c-2.592,0-2.449-1.653-2.449-3.041L266.523,28.352L266.523,28.352z"/>
	<path display="inline" fill="#53565A" d="M284.971,35.965l-0.04-0.082c-0.837,1.225-2.083,1.897-3.512,1.897
		c-3.041,0-4.204-2.897-4.204-5.47c0-2.652,1.163-5.389,4.204-5.389c1.367,0,2.796,0.654,3.512,1.859l0.04-0.041v-6h1.225v12.428
		c0,0.797,0.063,1.611,0.103,2.307h-1.266L284.971,35.965z M281.625,28.046c-2.327,0-3.082,2.163-3.082,4.122
		c0,1.898,0.553,4.49,2.897,4.49c2.673,0,3.491-2.225,3.491-4.551C284.932,30.025,284.013,28.046,281.625,28.046"/>
	<polygon display="inline" fill="#53565A" points="291.617,22.74 290.147,26.924 289.086,26.924 289.963,22.74 	"/>
	<path display="inline" fill="#53565A" d="M295.838,24.271h-1.428V22.74h1.428V24.271z M295.736,37.475h-1.224V27.229h1.224V37.475z
		"/>
	<path display="inline" fill="#53565A" d="M299.66,37.475h-1.225v-7.939c0-0.795-0.062-1.611-0.104-2.306h1.267l0.062,1.511
		l0.041,0.04c0.714-1.266,1.878-1.856,3.204-1.856c3.349,0,3.612,2.958,3.612,4.143v6.408h-1.226v-6.612
		c0-1.775-1.021-2.816-2.692-2.816c-2.021,0-2.938,1.694-2.938,3.53L299.66,37.475L299.66,37.475z"/>
	<path display="inline" fill="#53565A" d="M316.451,27.229h1.267c-0.041,0.694-0.104,1.511-0.104,2.306v6.143
		c0,2.041,0.104,4.184-2.164,5.246c-0.814,0.387-1.365,0.469-2.325,0.469c-1.856,0-4.062-0.633-4.062-2.755h1.327
		c0.142,1.224,1.591,1.632,2.896,1.632c1.594,0,3.063-1.122,3.104-2.836v-1.918h-0.04c-0.593,1.204-2,1.918-3.327,1.918
		c-3.081,0-4.407-2.348-4.407-5.163c0-2.776,1.245-5.349,4.367-5.349c1.49,0,2.55,0.716,3.367,1.9l0.04-0.082L316.451,27.229z
		 M313.104,28.046c-2.224,0-3.163,2.245-3.163,4.122c0,1.878,0.959,4.143,3.204,4.143c2.348,0,3.245-2.184,3.245-4.184
		C316.39,30.168,315.309,28.046,313.104,28.046"/>
	<path display="inline" fill="#53565A" d="M321.008,32.638c0.042,2.184,1.041,4.021,3.551,4.021c1.449,0,2.653-1.041,2.959-2.449
		h1.286c-0.632,2.449-2.163,3.571-4.633,3.571c-3.063,0-4.489-2.632-4.489-5.429c0-2.775,1.53-5.429,4.571-5.429
		c3.429,0,4.673,2.511,4.673,5.715H321.008z M327.598,31.516c-0.144-1.98-1.203-3.47-3.326-3.47c-2,0-3.062,1.674-3.224,3.47
		H327.598z M326.762,23.046l-2.592,2.919h-0.897l1.857-2.919H326.762z"/>
	<path display="inline" fill="#53565A" d="M332.342,37.475h-1.227v-7.939c0-0.795-0.062-1.611-0.103-2.306h1.266l0.063,1.511
		l0.041,0.04c0.715-1.266,1.877-1.856,3.205-1.856c3.347,0,3.61,2.958,3.61,4.143v6.408h-1.225v-6.612
		c0-1.775-1.021-2.816-2.694-2.816c-2.021,0-2.938,1.694-2.938,3.53L332.342,37.475L332.342,37.475z"/>
	<path display="inline" fill="#53565A" d="M343.192,24.271h-1.428V22.74h1.428V24.271z M343.092,37.475h-1.227V27.229h1.227V37.475z
		"/>
	<path display="inline" fill="#53565A" d="M346.53,32.639c0.042,2.184,1.042,4.02,3.552,4.02c1.449,0,2.653-1.041,2.958-2.449h1.286
		c-0.633,2.449-2.163,3.572-4.633,3.572c-3.061,0-4.489-2.634-4.489-5.43c0-2.775,1.53-5.428,4.571-5.428
		c3.429,0,4.674,2.51,4.674,5.715H346.53z M353.121,31.516c-0.143-1.98-1.202-3.47-3.325-3.47c-1.999,0-3.063,1.674-3.226,3.47
		H353.121z"/>
	<path display="inline" fill="#53565A" d="M357.864,37.475h-1.224v-7.939c0.02-0.795-0.063-1.611-0.104-2.306h1.268l0.061,1.511
		h0.041c0.368-1.042,1.285-1.776,2.308-1.816c0.407-0.021,0.815,0,1.225,0.02v1.184c-0.245-0.021-0.51-0.081-0.754-0.081
		c-1.817,0-2.776,1.306-2.817,3.265L357.864,37.475L357.864,37.475z"/>
	<path display="inline" fill="#53565A" d="M364.355,24.271h-1.429V22.74h1.429V24.271z M364.253,37.475h-1.227V27.229h1.227V37.475z
		"/>
	<path display="inline" fill="#53565A" d="M367.692,32.639c0.042,2.184,1.041,4.02,3.552,4.02c1.448,0,2.653-1.041,2.958-2.449
		h1.286c-0.632,2.449-2.163,3.572-4.633,3.572c-3.062,0-4.489-2.634-4.489-5.43c0-2.775,1.531-5.428,4.571-5.428
		c3.429,0,4.673,2.51,4.673,5.715H367.692z M374.283,31.516c-0.142-1.98-1.204-3.47-3.326-3.47c-2,0-3.062,1.674-3.225,3.47H374.283
		z"/>
	<path display="inline" fill="#53565A" d="M171.985,64.684h-5.442V45.036h9.089c3.32,0,7.62,0.898,7.62,5.062
		c0,2.939-2.259,4.49-5.007,4.816v0.109c3.482,0.082,4.136,1.851,4.489,4.898c0.137,1.634,0.436,3.185,0.897,4.763h-5.904
		c-0.299-1.359-0.462-2.774-0.6-4.164c-0.218-2.367-0.327-3.348-3.103-3.348h-2.041L171.985,64.684L171.985,64.684z M174.108,53.363
		c1.742,0,3.43-0.245,3.43-2.258c0-2.016-1.688-2.26-3.43-2.26h-2.123v4.518H174.108z"/>
	<path display="inline" fill="#53565A" d="M189.682,58.889c-0.027,1.77,0.437,3.293,2.367,3.293c1.442,0,2.341-0.682,2.531-1.961
		h4.79c-0.164,1.771-1.28,3.049-2.586,3.812c-1.197,0.764-2.722,1.062-4.326,1.062c-5.471,0-7.646-2.34-7.646-7.699
		c0-4.328,3.238-6.775,7.348-6.775c5.552,0,7.32,3.184,7.32,8.271h-9.798V58.889z M194.581,56.111c0-0.734-0.219-1.469-0.626-2.041
		c-0.408-0.57-1.006-0.924-1.796-0.87c-1.796,0.082-2.23,1.36-2.367,2.911H194.581z"/>
	<path display="inline" fill="#53565A" d="M209.004,55.241c0-0.462-0.082-0.871-0.326-1.144c-0.272-0.299-0.708-0.488-1.415-0.488
		c-0.763,0-1.226,0.435-1.226,1.223c0,1.008,2.095,0.953,5.333,1.961c1.633,0.516,2.749,1.523,2.749,3.754
		c0,3.62-3.402,4.545-6.532,4.545c-3.348,0-6.612-0.68-6.586-4.844h4.898c-0.082,0.408,0.056,0.871,0.354,1.225
		c0.298,0.354,0.733,0.627,1.225,0.627c1.006,0,1.742-0.383,1.742-1.252c0-2.423-8.083-0.979-8.083-5.934
		c0-3.373,3.592-4.299,6.313-4.299c3.237,0,6.231,0.844,6.448,4.626H209.004z"/>
	<path display="inline" fill="#53565A" d="M216.476,45.036h5.226v3.646h-5.226V45.036z M216.502,51.023h5.17v13.661h-5.17V51.023z"
		/>
	<path display="inline" fill="#53565A" d="M232.029,55.241c0-0.462-0.082-0.871-0.326-1.144c-0.271-0.299-0.708-0.488-1.415-0.488
		c-0.763,0-1.226,0.435-1.226,1.223c0,1.008,2.096,0.953,5.334,1.961c1.633,0.516,2.749,1.523,2.749,3.754
		c0,3.62-3.401,4.545-6.532,4.545c-3.347,0-6.611-0.68-6.585-4.844h4.897c-0.081,0.408,0.056,0.871,0.354,1.225
		c0.301,0.354,0.735,0.627,1.226,0.627c1.008,0,1.742-0.383,1.742-1.252c0-2.423-8.082-0.979-8.082-5.934
		c0-3.373,3.592-4.299,6.313-4.299c3.238,0,6.231,0.844,6.449,4.626H232.029z"/>
	<path display="inline" fill="#53565A" d="M240.847,51.023v-2.068l5.17-1.959v4.027h2.994v3.265h-2.994v5.416
		c0,0.354-0.218,2.122,0.979,2.122c0.68,0,1.387,0,1.985-0.081v3.075c-1.17,0.218-2.013,0.271-2.774,0.271
		c-3.511,0-5.633-0.489-5.36-4.68v-6.124h-2.667v-3.265L240.847,51.023L240.847,51.023z"/>
	<path display="inline" fill="#53565A" d="M255.045,58.889c-0.027,1.77,0.436,3.293,2.367,3.293c1.441,0,2.34-0.682,2.53-1.961
		h4.789c-0.163,1.771-1.278,3.049-2.585,3.812c-1.197,0.764-2.722,1.062-4.327,1.062c-5.469,0-7.646-2.34-7.646-7.699
		c0-4.328,3.239-6.775,7.349-6.775c5.551,0,7.319,3.184,7.319,8.271h-9.796V58.889z M259.943,56.111
		c0-0.734-0.218-1.469-0.626-2.041c-0.407-0.57-1.007-0.924-1.795-0.87c-1.796,0.082-2.231,1.36-2.367,2.911H259.943z"/>
	<path display="inline" fill="#53565A" d="M275.787,55.813c0-0.68-0.109-1.225-0.409-1.604c-0.3-0.382-0.816-0.599-1.604-0.599
		c-1.878,0-1.986,2.829-1.986,4.244c0,1.414,0.107,4.246,1.986,4.246c1.795-0.136,2.015-1.522,2.015-2.75h5.171
		c0,1.936-0.846,3.35-2.123,4.301c-1.308,0.927-3.048,1.39-4.844,1.441c-5.172,0-7.512-2.503-7.512-7.238
		c0-4.953,3.4-7.236,7.512-7.236c3.455-0.055,6.721,1.306,6.967,5.197L275.787,55.813L275.787,55.813z"/>
	<path display="inline" fill="#53565A" d="M283.219,64.684V45.035h5.17v7.484c1.17-1.359,2.53-1.904,4.272-1.904
		c2.938,0,5.115,1.904,5.115,4.926v9.143h-5.171v-8.025c-0.054-1.333-0.38-2.775-1.985-2.775c-2.559,0-2.23,2.805-2.23,2.967v7.838
		h-5.171V64.684L283.219,64.684z"/>
	<polygon display="inline" fill="#53565A" points="302.375,51.357 302.365,51.357 301.322,54.295 300.897,54.295 299.853,51.357 
		299.844,51.357 299.844,54.295 299.392,54.295 299.392,51.032 300.201,51.032 301.141,53.721 301.149,53.721 302.072,51.032 
		302.827,51.032 302.827,54.295 302.375,54.295 	"/>
	<path display="inline" fill="#53565A" d="M305.77,51.873c-0.021-0.312-0.355-0.52-0.69-0.52c-0.806,0-0.955,0.736-0.955,1.311
		c0,0.674,0.204,1.311,0.914,1.311c0.349,0,0.665-0.172,0.718-0.52h0.475c-0.044,0.546-0.595,0.908-1.232,0.908
		c-0.963,0-1.348-0.785-1.348-1.699c0-0.8,0.353-1.73,1.446-1.699c0.628,0.018,1.099,0.324,1.146,0.908H305.77z"/>
</g>
<g id="BOIS_FR">
	<path d="M30.375,95.596h-5.213v-12c0-2.935-1.301-3.904-2.832-3.904c-2.604,0-3.534,1.707-3.534,4.053v11.854h-5.22V83.705
		c0-1.67,0-4.014-3.124-4.014c-2.458,0-3.244,1.707-3.244,3.863v12.041H2V75.823h4.983v2.903h0.079
		c0.67-1.301,2.122-3.422,5.619-3.422c2.876,0,4.177,1.041,5.515,3.158c0.67-0.963,2.129-3.158,5.285-3.158
		c3.875,0,6.895,2.27,6.895,6.611L30.375,95.596L30.375,95.596z"/>
	<path d="M51.116,91.73c0,2.344,0.523,2.858,1.159,3.086v0.779H46.65c-0.3-0.93-0.372-1.228-0.487-2.344
		c-1.19,1.23-2.866,2.861-6.404,2.861c-2.979,0-6.036-1.672-6.036-5.758c0-3.865,2.468-5.836,5.777-6.316l4.693-0.707
		c0.813-0.116,1.822-0.447,1.822-1.563c0-2.191-2.084-2.307-3.43-2.307c-2.602,0-3.052,1.604-3.195,2.752h-5.034
		c0.597-6.057,4.806-6.914,8.866-6.914c2.793,0,7.896,0.857,7.896,5.723L51.116,91.73L51.116,91.73z M46.014,85.975
		c-0.523,0.404-1.377,0.746-3.534,1.075c-1.939,0.329-3.537,0.816-3.537,2.976c0,1.82,1.411,2.373,2.417,2.373
		c2.309,0,4.653-1.48,4.653-3.896L46.014,85.975L46.014,85.975z"/>
	<path d="M61.135,95.596h-5.217V75.823h5.217V95.596z M61.135,73.721h-5.217v-4.832h5.217V73.721z"/>
	<path d="M70.938,78.393h0.07c0.827-1.266,2.392-3.088,5.741-3.088c4.361,0,8.231,3.348,8.231,10.182
		c0,5.432-2.459,10.631-8.344,10.631c-2.16,0-4.474-0.779-5.733-3.008h-0.071v2.486h-5.107V68.912h5.212L70.938,78.393
		L70.938,78.393z M75.191,79.809c-3.575,0-4.474,3.191-4.474,6.352c0,2.938,1.303,5.688,4.621,5.688
		c3.349,0,4.278-3.644,4.278-5.986C79.617,82.734,78.501,79.809,75.191,79.809"/>
	<path d="M105.531,89.801c-1.381,4.754-5.329,6.314-8.718,6.314c-5.588,0-9.87-2.672-9.87-10.811c0-2.381,0.819-10,9.5-10
		c3.91,0,9.309,1.858,9.309,10.891v0.929H92.157c0.149,1.487,0.448,4.829,4.655,4.829c1.455,0,2.941-0.742,3.354-2.152H105.531
		L105.531,89.801z M100.388,83.742c-0.296-3.196-2.349-4.162-4.017-4.162c-2.461,0-3.767,1.563-4.064,4.162H100.388z"/>
	<path d="M126.636,88.387c-0.188,2.043-1.786,7.729-9.052,7.729c-7.454,0-9.161-5.687-9.161-9.849c0-6.394,2.798-10.963,9.5-10.963
		c3.125,0,8.266,1.416,8.751,7.581h-5.296c-0.219-1.298-1.042-3.344-3.455-3.194c-3.279,0-4.136,3.271-4.136,5.729
		c0,2.148,0.071,6.428,4.021,6.428c2.646,0,3.537-2.527,3.537-3.459h5.29V88.387L126.636,88.387z"/>
	<path d="M138.744,63.369c-0.904,0.878-1.988,1.314-3.254,1.314c-1.31,0-2.409-0.447-3.307-1.349
		c-0.896-0.897-1.344-1.999-1.344-3.313c0-1.361,0.484-2.494,1.451-3.396c0.908-0.844,1.976-1.265,3.199-1.265
		c1.281,0,2.376,0.456,3.286,1.37c0.909,0.905,1.361,2.01,1.361,3.293C140.138,61.348,139.673,62.462,138.744,63.369 M132.775,57.35
		c-0.738,0.758-1.104,1.652-1.104,2.689c0,1.074,0.375,1.99,1.122,2.74c0.749,0.752,1.647,1.129,2.704,1.129
		c1.051,0,1.949-0.381,2.694-1.135c0.747-0.763,1.119-1.672,1.119-2.734c0-1.032-0.371-1.926-1.11-2.689
		c-0.752-0.771-1.652-1.158-2.703-1.158C134.43,56.191,133.524,56.578,132.775,57.35 M133.454,62.6v-5.146h1.435
		c0.635,0.002,0.988,0.005,1.063,0.009c0.406,0.031,0.744,0.12,1.014,0.267c0.457,0.258,0.686,0.666,0.686,1.236
		c0,0.434-0.12,0.747-0.363,0.943c-0.243,0.188-0.542,0.307-0.896,0.342c0.33,0.064,0.579,0.162,0.749,0.288
		c0.308,0.235,0.46,0.62,0.46,1.149v0.459c0,0.056,0.004,0.105,0.011,0.154c0.004,0.051,0.018,0.102,0.028,0.152l0.039,0.146h-1.295
		c-0.042-0.166-0.071-0.402-0.088-0.722c-0.021-0.312-0.046-0.521-0.088-0.63c-0.065-0.186-0.193-0.313-0.376-0.387
		c-0.104-0.039-0.258-0.063-0.464-0.08l-0.295-0.02h-0.284V62.6H133.454z M135.901,58.458c-0.188-0.069-0.447-0.104-0.784-0.104
		h-0.331v1.508h0.525c0.315,0,0.564-0.064,0.741-0.191c0.176-0.127,0.266-0.332,0.266-0.613
		C136.318,58.77,136.178,58.568,135.901,58.458"/>
	<path fill="#007FA3" d="M90.91,64.684c-0.001-7.66-3.015-14.509-7.855-19.479c-4.858-4.963-11.424-7.965-18.732-7.971
		c-7.309,0.006-13.872,3.008-18.73,7.971c-4.842,4.972-7.854,11.818-7.855,19.479H21.942c-0.001-11.857,4.706-22.686,12.345-30.508
		c7.623-7.83,18.3-12.74,30.034-12.734c11.737-0.006,22.415,4.904,30.037,12.734c7.64,7.821,12.348,18.648,12.345,30.508H90.91z"/>
	<path fill="#007FA3" d="M70.966,64.689c-0.002-2.02-0.781-3.756-2.016-5.029c-1.251-1.264-2.829-1.979-4.633-1.984
		c-1.802,0.006-3.381,0.721-4.632,1.985c-1.233,1.272-2.015,3.011-2.017,5.028H41.878c-0.002-6.217,2.475-11.936,6.505-16.058
		c4.015-4.132,9.705-6.754,15.936-6.749c6.229-0.005,11.924,2.617,15.937,6.749c4.03,4.122,6.507,9.841,6.503,16.058l0,0H70.966z"/>
	<path fill="#007FA3" d="M110.853,64.684c-0.002-13.307-5.246-25.262-13.697-33.934c-8.467-8.662-20.019-13.953-32.834-13.958
		C51.505,16.797,39.957,22.088,31.49,30.75c-8.45,8.67-13.694,20.627-13.697,33.934H2C1.998,47.18,8.938,31.242,20.185,19.722
		C31.417,8.193,47.08,0.994,64.321,1c17.243-0.006,32.907,7.193,44.14,18.722c11.247,11.521,18.188,27.458,18.186,44.961H110.853
		L110.853,64.684z"/>
</g>
<g id="RES_EN" display="none">
	<path display="inline" d="M30.375,95.596h-5.213v-12c0-2.935-1.301-3.904-2.832-3.904c-2.604,0-3.534,1.707-3.534,4.053v11.854
		h-5.22V83.705c0-1.67,0-4.014-3.124-4.014c-2.458,0-3.244,1.707-3.244,3.863v12.041H2V75.823h4.983v2.903h0.079
		c0.67-1.301,2.122-3.422,5.619-3.422c2.876,0,4.177,1.041,5.515,3.158c0.67-0.963,2.129-3.158,5.285-3.158
		c3.875,0,6.895,2.27,6.895,6.611L30.375,95.596L30.375,95.596z"/>
	<path display="inline" d="M51.116,91.73c0,2.344,0.523,2.858,1.159,3.086v0.779H46.65c-0.3-0.93-0.372-1.228-0.487-2.344
		c-1.19,1.23-2.866,2.861-6.404,2.861c-2.979,0-6.036-1.672-6.036-5.758c0-3.865,2.468-5.836,5.777-6.316l4.693-0.707
		c0.813-0.116,1.822-0.447,1.822-1.563c0-2.191-2.084-2.307-3.43-2.307c-2.602,0-3.052,1.604-3.195,2.752h-5.034
		c0.597-6.057,4.806-6.914,8.866-6.914c2.793,0,7.896,0.857,7.896,5.723L51.116,91.73L51.116,91.73z M46.014,85.975
		c-0.523,0.404-1.377,0.746-3.534,1.075c-1.939,0.329-3.537,0.816-3.537,2.976c0,1.82,1.411,2.373,2.417,2.373
		c2.309,0,4.653-1.48,4.653-3.896L46.014,85.975L46.014,85.975z"/>
	<path display="inline" d="M61.135,95.596h-5.217V75.823h5.217V95.596z M61.135,73.721h-5.217v-4.832h5.217V73.721z"/>
	<path display="inline" d="M70.938,78.393h0.07c0.827-1.266,2.392-3.088,5.741-3.088c4.361,0,8.231,3.348,8.231,10.182
		c0,5.432-2.459,10.631-8.344,10.631c-2.16,0-4.474-0.779-5.733-3.008h-0.071v2.486h-5.107V68.912h5.212L70.938,78.393
		L70.938,78.393z M75.191,79.809c-3.575,0-4.474,3.191-4.474,6.352c0,2.938,1.303,5.688,4.621,5.688
		c3.349,0,4.278-3.644,4.278-5.986C79.617,82.734,78.501,79.809,75.191,79.809"/>
	<path display="inline" d="M105.531,89.801c-1.381,4.754-5.329,6.314-8.718,6.314c-5.588,0-9.87-2.672-9.87-10.811
		c0-2.381,0.819-10,9.5-10c3.91,0,9.309,1.858,9.309,10.891v0.929H92.157c0.149,1.487,0.448,4.829,4.655,4.829
		c1.455,0,2.941-0.742,3.354-2.152H105.531L105.531,89.801z M100.388,83.742c-0.296-3.196-2.349-4.162-4.017-4.162
		c-2.461,0-3.767,1.563-4.064,4.162H100.388z"/>
	<path display="inline" d="M126.636,88.387c-0.188,2.043-1.786,7.729-9.052,7.729c-7.454,0-9.161-5.687-9.161-9.849
		c0-6.394,2.798-10.963,9.5-10.963c3.125,0,8.266,1.416,8.751,7.581h-5.296c-0.219-1.298-1.042-3.344-3.455-3.194
		c-3.279,0-4.136,3.271-4.136,5.729c0,2.148,0.071,6.428,4.021,6.428c2.646,0,3.537-2.527,3.537-3.459h5.29V88.387L126.636,88.387z"
		/>
	<path display="inline" d="M138.744,63.369c-0.904,0.878-1.988,1.314-3.254,1.314c-1.31,0-2.409-0.447-3.307-1.349
		c-0.896-0.897-1.344-1.999-1.344-3.313c0-1.361,0.484-2.494,1.451-3.396c0.908-0.844,1.976-1.265,3.199-1.265
		c1.281,0,2.376,0.456,3.286,1.37c0.909,0.905,1.361,2.01,1.361,3.293C140.138,61.348,139.673,62.462,138.744,63.369 M132.775,57.35
		c-0.738,0.758-1.104,1.652-1.104,2.689c0,1.074,0.375,1.99,1.122,2.74c0.749,0.752,1.647,1.129,2.704,1.129
		c1.051,0,1.949-0.381,2.694-1.135c0.747-0.763,1.119-1.672,1.119-2.734c0-1.032-0.371-1.926-1.11-2.689
		c-0.752-0.771-1.652-1.158-2.703-1.158C134.43,56.191,133.524,56.578,132.775,57.35 M133.454,62.6v-5.146h1.435
		c0.635,0.002,0.988,0.005,1.063,0.009c0.406,0.031,0.744,0.12,1.014,0.267c0.457,0.258,0.686,0.666,0.686,1.236
		c0,0.434-0.12,0.747-0.363,0.943c-0.243,0.188-0.542,0.307-0.896,0.342c0.33,0.064,0.579,0.162,0.749,0.288
		c0.308,0.235,0.46,0.62,0.46,1.149v0.459c0,0.056,0.004,0.105,0.011,0.154c0.004,0.051,0.018,0.102,0.028,0.152l0.039,0.146h-1.295
		c-0.042-0.166-0.071-0.402-0.088-0.722c-0.021-0.312-0.046-0.521-0.088-0.63c-0.065-0.186-0.193-0.313-0.376-0.387
		c-0.104-0.039-0.258-0.063-0.464-0.08l-0.295-0.02h-0.284V62.6H133.454z M135.901,58.458c-0.188-0.069-0.447-0.104-0.784-0.104
		h-0.331v1.508h0.525c0.315,0,0.564-0.064,0.741-0.191c0.176-0.127,0.266-0.332,0.266-0.613
		C136.318,58.77,136.178,58.568,135.901,58.458"/>
	<path display="inline" fill="#007FA3" d="M90.91,64.684c-0.001-7.66-3.015-14.509-7.855-19.479
		c-4.858-4.963-11.424-7.965-18.732-7.971c-7.309,0.006-13.872,3.008-18.73,7.971c-4.842,4.972-7.854,11.818-7.855,19.479H21.942
		c-0.001-11.857,4.706-22.686,12.345-30.508c7.623-7.83,18.3-12.74,30.034-12.734c11.737-0.006,22.415,4.904,30.037,12.734
		c7.64,7.821,12.348,18.648,12.345,30.508H90.91z"/>
	<path display="inline" fill="#007FA3" d="M70.966,64.689c-0.002-2.02-0.781-3.756-2.016-5.029
		c-1.251-1.264-2.829-1.979-4.633-1.984c-1.802,0.006-3.381,0.721-4.632,1.985c-1.233,1.272-2.015,3.011-2.017,5.028H41.878
		c-0.002-6.217,2.475-11.936,6.505-16.058c4.015-4.132,9.705-6.754,15.936-6.749c6.229-0.005,11.924,2.617,15.937,6.749
		c4.03,4.122,6.507,9.841,6.503,16.058l0,0H70.966z"/>
	<path display="inline" fill="#007FA3" d="M110.853,64.684c-0.002-13.307-5.246-25.262-13.697-33.934
		c-8.467-8.662-20.019-13.953-32.834-13.958C51.505,16.797,39.957,22.088,31.49,30.75c-8.45,8.67-13.694,20.627-13.697,33.934H2
		C1.998,47.18,8.938,31.242,20.185,19.722C31.417,8.193,47.08,0.994,64.321,1c17.243-0.006,32.907,7.193,44.14,18.722
		c11.247,11.521,18.188,27.458,18.186,44.961H110.853L110.853,64.684z"/>
	<path display="inline" fill="#53565A" d="M167.535,59.852c0.04,2.186,1.04,4.021,3.551,4.021c1.448,0,2.651-1.04,2.958-2.448h1.286
		c-0.634,2.448-2.164,3.57-4.633,3.57c-3.063,0-4.49-2.632-4.49-5.429c0-2.774,1.53-5.429,4.571-5.429
		c3.43,0,4.675,2.511,4.675,5.714H167.535L167.535,59.852z M174.126,58.73c-0.144-1.98-1.204-3.473-3.327-3.473
		c-2,0-3.063,1.676-3.225,3.473H174.126z"/>
	<path display="inline" fill="#53565A" d="M178.869,64.689h-1.226V56.75c0-0.796-0.062-1.612-0.103-2.307h1.266l0.063,1.511
		l0.04,0.041c0.715-1.265,1.878-1.858,3.204-1.858c3.348,0,3.612,2.96,3.612,4.145v6.407h-1.225v-6.612
		c0-1.775-1.021-2.816-2.693-2.816c-2.021,0-2.938,1.695-2.938,3.531V64.689L178.869,64.689z"/>
	<path display="inline" fill="#53565A" d="M195.66,54.443h1.265c-0.041,0.694-0.104,1.511-0.104,2.307v6.143
		c0,2.041,0.104,4.186-2.162,5.246c-0.816,0.387-1.367,0.469-2.327,0.469c-1.855,0-4.062-0.633-4.062-2.756h1.327
		c0.143,1.227,1.591,1.633,2.897,1.633c1.591,0,3.062-1.12,3.102-2.836v-1.92h-0.04c-0.593,1.205-2,1.92-3.326,1.92
		c-3.082,0-4.409-2.348-4.409-5.164c0-2.773,1.245-5.346,4.367-5.346c1.49,0,2.552,0.716,3.368,1.898l0.04-0.081L195.66,54.443z
		 M192.313,55.26c-2.225,0-3.163,2.245-3.163,4.123s0.959,4.143,3.204,4.143c2.348,0,3.245-2.184,3.245-4.184
		C195.598,57.383,194.517,55.26,192.313,55.26"/>
	<path display="inline" fill="#53565A" d="M200.794,51.484h-1.429v-1.529h1.429V51.484z M200.692,64.689h-1.226V54.443h1.226V64.689
		z"/>
	<path display="inline" fill="#53565A" d="M204.617,64.689h-1.225V56.75c0-0.796-0.062-1.612-0.104-2.307h1.266l0.063,1.511
		l0.041,0.041c0.714-1.265,1.878-1.858,3.204-1.858c3.347,0,3.612,2.96,3.612,4.145v6.407h-1.226v-6.612
		c0-1.775-1.021-2.816-2.693-2.816c-2.021,0-2.938,1.695-2.938,3.531V64.689L204.617,64.689z"/>
	<path display="inline" fill="#53565A" d="M214.91,59.852c0.041,2.186,1.041,4.021,3.552,4.021c1.448,0,2.651-1.04,2.959-2.448
		h1.285c-0.632,2.448-2.164,3.57-4.633,3.57c-3.063,0-4.489-2.632-4.489-5.429c0-2.774,1.531-5.429,4.57-5.429
		c3.43,0,4.675,2.511,4.675,5.714H214.91L214.91,59.852z M221.502,58.73c-0.144-1.98-1.204-3.473-3.327-3.473
		c-2,0-3.062,1.676-3.224,3.473H221.502z"/>
	<path display="inline" fill="#53565A" d="M225.795,59.852c0.042,2.186,1.042,4.021,3.553,4.021c1.447,0,2.651-1.04,2.959-2.448
		h1.285c-0.633,2.448-2.163,3.57-4.633,3.57c-3.063,0-4.489-2.632-4.489-5.429c0-2.774,1.529-5.429,4.57-5.429
		c3.43,0,4.673,2.511,4.673,5.714H225.795L225.795,59.852z M232.387,58.73c-0.144-1.98-1.204-3.473-3.326-3.473
		c-2,0-3.063,1.676-3.226,3.473H232.387z"/>
	<path display="inline" fill="#53565A" d="M237.13,64.689h-1.226V56.75c0.021-0.796-0.063-1.612-0.104-2.307h1.267l0.063,1.511h0.04
		c0.369-1.04,1.287-1.775,2.308-1.817c0.408-0.02,0.815,0,1.226,0.021v1.184c-0.245-0.021-0.511-0.082-0.756-0.082
		c-1.815,0-2.775,1.307-2.815,3.266L237.13,64.689L237.13,64.689z"/>
	<path display="inline" fill="#53565A" d="M242.609,59.852c0.041,2.186,1.041,4.021,3.553,4.021c1.447,0,2.652-1.04,2.958-2.448
		h1.285c-0.633,2.448-2.163,3.57-4.633,3.57c-3.062,0-4.488-2.632-4.488-5.429c0-2.774,1.529-5.429,4.57-5.429
		c3.43,0,4.674,2.511,4.674,5.714H242.609L242.609,59.852z M249.201,58.73c-0.143-1.98-1.203-3.473-3.326-3.473
		c-2,0-3.063,1.676-3.226,3.473H249.201z"/>
	<path display="inline" fill="#53565A" d="M259.931,63.18l-0.04-0.082c-0.837,1.227-2.082,1.896-3.512,1.896
		c-3.041,0-4.204-2.896-4.204-5.469c0-2.653,1.163-5.391,4.204-5.391c1.367,0,2.796,0.655,3.512,1.858l0.04-0.041v-5.999h1.227
		v12.428c0,0.796,0.06,1.611,0.101,2.309h-1.265L259.931,63.18z M256.584,55.26c-2.326,0-3.081,2.164-3.081,4.123
		c0,1.896,0.552,4.489,2.896,4.489c2.674,0,3.49-2.224,3.49-4.552C259.891,57.24,258.973,55.26,256.584,55.26"/>
	<path display="inline" fill="#53565A" d="M273.094,54.137c1.938,0,3.57,0.674,3.734,2.837h-1.327
		c-0.122-1.286-1.266-1.716-2.529-1.716c-1.145,0-2.307,0.449-2.307,1.653c0,1.51,1.979,1.367,4.755,2.347
		c1.063,0.367,1.734,1.285,1.734,2.39c0,2.307-2.143,3.347-4.307,3.347c-1.775,0-3.814-0.836-3.855-3.103h1.326
		c0.103,1.53,1.448,1.979,2.836,1.979c1.308,0,2.674-0.611,2.674-2.04c0-1.472-1.612-1.715-3.245-2.082
		c-1.612-0.39-3.245-0.856-3.245-2.756C269.339,54.873,271.298,54.137,273.094,54.137"/>
	<path display="inline" fill="#53565A" d="M280.654,51.484h-1.428v-1.529h1.428V51.484z M280.554,64.689h-1.227V54.443h1.227V64.689
		z"/>
	<path display="inline" fill="#53565A" d="M290.419,63.18l-0.04-0.082c-0.837,1.227-2.082,1.896-3.511,1.896
		c-3.041,0-4.204-2.896-4.204-5.469c0-2.653,1.163-5.391,4.204-5.391c1.366,0,2.796,0.655,3.511,1.858l0.04-0.041v-5.999h1.227
		v12.428c0,0.796,0.062,1.611,0.103,2.309h-1.266L290.419,63.18z M287.073,55.26c-2.326,0-3.08,2.164-3.08,4.123
		c0,1.896,0.551,4.489,2.896,4.489c2.674,0,3.489-2.224,3.489-4.552C290.379,57.24,289.461,55.26,287.073,55.26"/>
	<path display="inline" fill="#53565A" d="M295.615,51.484h-1.429v-1.529h1.429V51.484z M295.513,64.689h-1.227V54.443h1.227V64.689
		z"/>
	<path display="inline" fill="#53565A" d="M299.438,64.689h-1.225V56.75c0-0.796-0.063-1.612-0.104-2.307h1.267l0.062,1.511
		l0.041,0.041c0.714-1.265,1.877-1.858,3.205-1.858c3.347,0,3.612,2.96,3.612,4.145v6.407h-1.226v-6.612
		c0-1.775-1.021-2.816-2.693-2.816c-2.021,0-2.938,1.695-2.938,3.531L299.438,64.689L299.438,64.689z"/>
	<path display="inline" fill="#53565A" d="M316.228,54.443h1.266c-0.041,0.694-0.102,1.511-0.102,2.307v6.143
		c0,2.041,0.102,4.186-2.164,5.246c-0.816,0.387-1.367,0.469-2.326,0.469c-1.855,0-4.061-0.633-4.061-2.756h1.325
		c0.144,1.227,1.593,1.633,2.898,1.633c1.591,0,3.063-1.12,3.104-2.836v-1.92h-0.041c-0.595,1.205-2,1.92-3.327,1.92
		c-3.081,0-4.408-2.348-4.408-5.164c0-2.773,1.245-5.346,4.368-5.346c1.49,0,2.551,0.716,3.368,1.898l0.041-0.081L316.228,54.443z
		 M312.883,55.26c-2.226,0-3.163,2.245-3.163,4.123s0.958,4.143,3.204,4.143c2.347,0,3.245-2.184,3.245-4.184
		C316.166,57.383,315.087,55.26,312.883,55.26"/>
	<path display="inline" fill="#53565A" d="M171.985,41.885h-5.442V22.236h9.089c3.32,0,7.62,0.898,7.62,5.063
		c0,2.938-2.259,4.49-5.007,4.816v0.109c3.482,0.082,4.136,1.85,4.489,4.898c0.137,1.632,0.436,3.184,0.897,4.762h-5.904
		c-0.299-1.361-0.462-2.775-0.6-4.164c-0.218-2.367-0.326-3.347-3.103-3.347h-2.041L171.985,41.885L171.985,41.885z M174.108,30.563
		c1.742,0,3.43-0.245,3.43-2.259c0-2.012-1.688-2.258-3.43-2.258h-2.123v4.517H174.108z"/>
	<path display="inline" fill="#53565A" d="M189.682,36.089c-0.027,1.769,0.437,3.292,2.367,3.292c1.442,0,2.341-0.68,2.531-1.959
		h4.79c-0.164,1.77-1.28,3.048-2.586,3.81c-1.197,0.763-2.722,1.062-4.326,1.062c-5.471,0-7.646-2.341-7.646-7.701
		c0-4.327,3.238-6.776,7.348-6.776c5.552,0,7.32,3.184,7.32,8.273L189.682,36.089L189.682,36.089z M194.581,33.313
		c0-0.734-0.219-1.469-0.626-2.041c-0.408-0.571-1.006-0.925-1.796-0.871c-1.796,0.082-2.23,1.361-2.367,2.912H194.581z"/>
	<path display="inline" fill="#53565A" d="M209.004,32.441c0-0.463-0.082-0.871-0.326-1.143c-0.272-0.3-0.708-0.49-1.415-0.49
		c-0.763,0-1.226,0.436-1.226,1.225c0,1.008,2.095,0.953,5.333,1.959c1.633,0.518,2.749,1.525,2.749,3.756
		c0,3.619-3.402,4.545-6.532,4.545c-3.348,0-6.612-0.68-6.586-4.844h4.898c-0.082,0.408,0.056,0.871,0.354,1.225
		s0.733,0.626,1.225,0.626c1.006,0,1.742-0.382,1.742-1.251c0-2.423-8.083-0.98-8.083-5.935c0-3.373,3.592-4.299,6.313-4.299
		c3.237,0,6.231,0.845,6.448,4.626H209.004L209.004,32.441z"/>
	<path display="inline" fill="#53565A" d="M216.476,22.236h5.226v3.646h-5.226V22.236z M216.502,28.224h5.17v13.661h-5.17V28.224z"
		/>
	<path display="inline" fill="#53565A" d="M232.029,32.441c0-0.463-0.082-0.871-0.326-1.143c-0.271-0.3-0.708-0.49-1.415-0.49
		c-0.763,0-1.226,0.436-1.226,1.225c0,1.008,2.096,0.953,5.334,1.959c1.633,0.518,2.749,1.525,2.749,3.756
		c0,3.619-3.401,4.545-6.532,4.545c-3.347,0-6.611-0.68-6.585-4.844h4.897c-0.081,0.408,0.056,0.871,0.354,1.225
		c0.301,0.354,0.735,0.626,1.226,0.626c1.008,0,1.742-0.382,1.742-1.251c0-2.423-8.082-0.98-8.082-5.935
		c0-3.373,3.592-4.299,6.313-4.299c3.238,0,6.231,0.845,6.449,4.626H232.029L232.029,32.441z"/>
	<path display="inline" fill="#53565A" d="M240.847,28.224v-2.068l5.17-1.96v4.028h2.994v3.266h-2.994v5.415
		c0,0.354-0.218,2.123,0.979,2.123c0.68,0,1.387,0,1.985-0.082v3.075c-1.17,0.218-2.013,0.272-2.774,0.272
		c-3.511,0-5.633-0.49-5.36-4.681v-6.123h-2.667v-3.266L240.847,28.224L240.847,28.224z"/>
	<path display="inline" fill="#53565A" d="M255.045,36.089c-0.027,1.769,0.436,3.292,2.367,3.292c1.441,0,2.34-0.68,2.53-1.959
		h4.789c-0.163,1.77-1.278,3.048-2.585,3.81c-1.197,0.763-2.722,1.062-4.327,1.062c-5.469,0-7.646-2.341-7.646-7.701
		c0-4.327,3.239-6.776,7.349-6.776c5.551,0,7.319,3.184,7.319,8.273L255.045,36.089L255.045,36.089z M259.943,33.313
		c0-0.734-0.218-1.469-0.626-2.041c-0.407-0.571-1.007-0.925-1.795-0.871c-1.796,0.082-2.231,1.361-2.367,2.912H259.943z"/>
	<path display="inline" fill="#53565A" d="M275.787,33.014c0-0.68-0.109-1.225-0.409-1.605c-0.3-0.381-0.816-0.599-1.604-0.599
		c-1.878,0-1.986,2.83-1.986,4.245c0,1.414,0.107,4.245,1.986,4.245c1.795-0.136,2.015-1.524,2.015-2.749h5.171
		c0,1.934-0.846,3.348-2.123,4.301c-1.308,0.924-3.048,1.387-4.844,1.441c-5.172,0-7.512-2.504-7.512-7.238
		c0-4.953,3.4-7.239,7.512-7.239c3.455-0.055,6.721,1.306,6.967,5.198H275.787z"/>
	<path display="inline" fill="#53565A" d="M283.219,41.885V22.236h5.17v7.484c1.17-1.36,2.53-1.905,4.272-1.905
		c2.938,0,5.115,1.905,5.115,4.926v9.144h-5.171v-8.027c-0.054-1.334-0.38-2.776-1.985-2.776c-2.559,0-2.23,2.804-2.23,2.966v7.838
		L283.219,41.885L283.219,41.885z"/>
	<polygon display="inline" fill="#53565A" points="300.133,28.621 299.039,28.621 299.039,28.233 301.678,28.233 301.678,28.621 
		300.585,28.621 300.585,31.496 300.133,31.496 	"/>
	<polygon display="inline" fill="#53565A" points="305.307,28.559 305.298,28.559 304.255,31.496 303.829,31.496 302.784,28.559 
		302.776,28.559 302.776,31.496 302.324,31.496 302.324,28.232 303.133,28.232 304.073,30.922 304.083,30.922 305.004,28.232 
		305.759,28.232 305.759,31.496 305.307,31.496 	"/>
</g>
<g id="BOIS_EN" display="none">
	<path display="inline" d="M30.375,95.596h-5.213v-12c0-2.935-1.301-3.904-2.832-3.904c-2.604,0-3.534,1.707-3.534,4.053v11.854
		h-5.22V83.705c0-1.67,0-4.014-3.124-4.014c-2.458,0-3.244,1.707-3.244,3.863v12.041H2V75.823h4.983v2.903h0.079
		c0.67-1.301,2.122-3.422,5.619-3.422c2.876,0,4.177,1.041,5.515,3.158c0.67-0.963,2.129-3.158,5.285-3.158
		c3.875,0,6.895,2.27,6.895,6.611L30.375,95.596L30.375,95.596z"/>
	<path display="inline" d="M51.116,91.73c0,2.344,0.523,2.858,1.159,3.086v0.779H46.65c-0.3-0.93-0.372-1.228-0.487-2.344
		c-1.19,1.23-2.866,2.861-6.404,2.861c-2.979,0-6.036-1.672-6.036-5.758c0-3.865,2.468-5.836,5.777-6.316l4.693-0.707
		c0.813-0.116,1.822-0.447,1.822-1.563c0-2.191-2.084-2.307-3.43-2.307c-2.602,0-3.052,1.604-3.195,2.752h-5.034
		c0.597-6.057,4.806-6.914,8.866-6.914c2.793,0,7.896,0.857,7.896,5.723L51.116,91.73L51.116,91.73z M46.014,85.975
		c-0.523,0.404-1.377,0.746-3.534,1.075c-1.939,0.329-3.537,0.816-3.537,2.976c0,1.82,1.411,2.373,2.417,2.373
		c2.309,0,4.653-1.48,4.653-3.896L46.014,85.975L46.014,85.975z"/>
	<path display="inline" d="M61.135,95.596h-5.217V75.823h5.217V95.596z M61.135,73.721h-5.217v-4.832h5.217V73.721z"/>
	<path display="inline" d="M70.938,78.393h0.07c0.827-1.266,2.392-3.088,5.741-3.088c4.361,0,8.231,3.348,8.231,10.182
		c0,5.432-2.459,10.631-8.344,10.631c-2.16,0-4.474-0.779-5.733-3.008h-0.071v2.486h-5.107V68.912h5.212L70.938,78.393
		L70.938,78.393z M75.191,79.809c-3.575,0-4.474,3.191-4.474,6.352c0,2.938,1.303,5.688,4.621,5.688
		c3.349,0,4.278-3.644,4.278-5.986C79.617,82.734,78.501,79.809,75.191,79.809"/>
	<path display="inline" d="M105.531,89.801c-1.381,4.754-5.329,6.314-8.718,6.314c-5.588,0-9.87-2.672-9.87-10.811
		c0-2.381,0.819-10,9.5-10c3.91,0,9.309,1.858,9.309,10.891v0.929H92.157c0.149,1.487,0.448,4.829,4.655,4.829
		c1.455,0,2.941-0.742,3.354-2.152H105.531L105.531,89.801z M100.388,83.742c-0.296-3.196-2.349-4.162-4.017-4.162
		c-2.461,0-3.767,1.563-4.064,4.162H100.388z"/>
	<path display="inline" d="M126.636,88.387c-0.188,2.043-1.786,7.729-9.052,7.729c-7.454,0-9.161-5.687-9.161-9.849
		c0-6.394,2.798-10.963,9.5-10.963c3.125,0,8.266,1.416,8.751,7.581h-5.296c-0.219-1.298-1.042-3.344-3.455-3.194
		c-3.279,0-4.136,3.271-4.136,5.729c0,2.148,0.071,6.428,4.021,6.428c2.646,0,3.537-2.527,3.537-3.459h5.29V88.387L126.636,88.387z"
		/>
	<path display="inline" d="M138.744,63.369c-0.904,0.878-1.988,1.314-3.254,1.314c-1.31,0-2.409-0.447-3.307-1.349
		c-0.896-0.897-1.344-1.999-1.344-3.313c0-1.361,0.484-2.494,1.451-3.396c0.908-0.844,1.976-1.265,3.199-1.265
		c1.281,0,2.376,0.456,3.286,1.37c0.909,0.905,1.361,2.01,1.361,3.293C140.138,61.348,139.673,62.462,138.744,63.369 M132.775,57.35
		c-0.738,0.758-1.104,1.652-1.104,2.689c0,1.074,0.375,1.99,1.122,2.74c0.749,0.752,1.647,1.129,2.704,1.129
		c1.051,0,1.949-0.381,2.694-1.135c0.747-0.763,1.119-1.672,1.119-2.734c0-1.032-0.371-1.926-1.11-2.689
		c-0.752-0.771-1.652-1.158-2.703-1.158C134.43,56.191,133.524,56.578,132.775,57.35 M133.454,62.6v-5.146h1.435
		c0.635,0.002,0.988,0.005,1.063,0.009c0.406,0.031,0.744,0.12,1.014,0.267c0.457,0.258,0.686,0.666,0.686,1.236
		c0,0.434-0.12,0.747-0.363,0.943c-0.243,0.188-0.542,0.307-0.896,0.342c0.33,0.064,0.579,0.162,0.749,0.288
		c0.308,0.235,0.46,0.62,0.46,1.149v0.459c0,0.056,0.004,0.105,0.011,0.154c0.004,0.051,0.018,0.102,0.028,0.152l0.039,0.146h-1.295
		c-0.042-0.166-0.071-0.402-0.088-0.722c-0.021-0.312-0.046-0.521-0.088-0.63c-0.065-0.186-0.193-0.313-0.376-0.387
		c-0.104-0.039-0.258-0.063-0.464-0.08l-0.295-0.02h-0.284V62.6H133.454z M135.901,58.458c-0.188-0.069-0.447-0.104-0.784-0.104
		h-0.331v1.508h0.525c0.315,0,0.564-0.064,0.741-0.191c0.176-0.127,0.266-0.332,0.266-0.613
		C136.318,58.77,136.178,58.568,135.901,58.458"/>
	<path display="inline" fill="#007FA3" d="M90.91,64.684c-0.001-7.66-3.015-14.509-7.855-19.479
		c-4.858-4.963-11.424-7.965-18.732-7.971c-7.309,0.006-13.872,3.008-18.73,7.971c-4.842,4.972-7.854,11.818-7.855,19.479H21.942
		c-0.001-11.857,4.706-22.686,12.345-30.508c7.623-7.83,18.3-12.74,30.034-12.734c11.737-0.006,22.415,4.904,30.037,12.734
		c7.64,7.821,12.348,18.648,12.345,30.508H90.91z"/>
	<path display="inline" fill="#007FA3" d="M70.966,64.689c-0.002-2.02-0.781-3.756-2.016-5.029
		c-1.251-1.264-2.829-1.979-4.633-1.984c-1.802,0.006-3.381,0.721-4.632,1.985c-1.233,1.272-2.015,3.011-2.017,5.028H41.878
		c-0.002-6.217,2.475-11.936,6.505-16.058c4.015-4.132,9.705-6.754,15.936-6.749c6.229-0.005,11.924,2.617,15.937,6.749
		c4.03,4.122,6.507,9.841,6.503,16.058l0,0H70.966z"/>
	<path display="inline" fill="#007FA3" d="M110.853,64.684c-0.002-13.307-5.246-25.262-13.697-33.934
		c-8.467-8.662-20.019-13.953-32.834-13.958C51.505,16.797,39.957,22.088,31.49,30.75c-8.45,8.67-13.694,20.627-13.697,33.934H2
		C1.998,47.18,8.938,31.242,20.185,19.722C31.417,8.193,47.08,0.994,64.321,1c17.243-0.006,32.907,7.193,44.14,18.722
		c11.247,11.521,18.188,27.458,18.186,44.961H110.853L110.853,64.684z"/>
	<polygon display="inline" fill="#53565A" points="170.714,63.072 170.755,63.072 173.857,54.439 175.307,54.439 178.326,62.99 
		178.367,62.99 181.327,54.439 182.673,54.439 178.857,64.684 177.694,64.684 174.551,55.848 174.511,55.848 171.306,64.684 
		170.061,64.684 166.307,54.439 167.653,54.439 	"/>
	<path display="inline" fill="#53565A" d="M192.782,59.563c0,2.693-1.511,5.43-4.775,5.43c-3.266,0-4.774-2.734-4.774-5.43
		c0-2.694,1.511-5.43,4.774-5.43C191.271,54.133,192.782,56.867,192.782,59.563 M188.007,55.255c-2.469,0-3.448,2.409-3.448,4.308
		c0,1.897,0.979,4.307,3.448,4.307c2.471,0,3.45-2.408,3.45-4.307S190.477,55.255,188.007,55.255"/>
	<path display="inline" fill="#53565A" d="M203.827,59.563c0,2.693-1.511,5.43-4.776,5.43c-3.265,0-4.774-2.734-4.774-5.43
		c0-2.694,1.511-5.43,4.774-5.43C202.317,54.133,203.827,56.867,203.827,59.563 M199.051,55.255c-2.469,0-3.448,2.409-3.448,4.308
		c0,1.897,0.979,4.307,3.448,4.307c2.47,0,3.45-2.408,3.45-4.307S201.521,55.255,199.051,55.255"/>
	<path display="inline" fill="#53565A" d="M213.143,63.174l-0.041-0.082c-0.836,1.227-2.081,1.898-3.511,1.898
		c-3.041,0-4.203-2.898-4.203-5.471c0-2.652,1.164-5.389,4.203-5.389c1.367,0,2.796,0.654,3.511,1.857l0.041-0.041v-6h1.226v12.429
		c0,0.796,0.062,1.61,0.104,2.308h-1.267L213.143,63.174z M209.796,55.255c-2.326,0-3.082,2.164-3.082,4.123
		c0,1.897,0.553,4.489,2.897,4.489c2.675,0,3.489-2.225,3.489-4.551C213.102,57.236,212.184,55.255,209.796,55.255"/>
	<path display="inline" fill="#53565A" d="M226.305,54.133c1.938,0,3.571,0.674,3.734,2.838h-1.327
		c-0.123-1.287-1.266-1.716-2.529-1.716c-1.145,0-2.308,0.45-2.308,1.653c0,1.51,1.979,1.367,4.756,2.348
		c1.062,0.367,1.734,1.285,1.734,2.387c0,2.309-2.144,3.35-4.307,3.35c-1.775,0-3.815-0.838-3.855-3.104h1.326
		c0.103,1.53,1.448,1.979,2.838,1.979c1.306,0,2.673-0.611,2.673-2.04c0-1.471-1.611-1.715-3.245-2.081
		c-1.611-0.39-3.245-0.856-3.245-2.756C222.55,54.868,224.509,54.133,226.305,54.133"/>
	<path display="inline" fill="#53565A" d="M233.867,51.48h-1.43v-1.53h1.43V51.48z M233.765,64.684h-1.227V54.439h1.227V64.684z"/>
	<path display="inline" fill="#53565A" d="M243.631,63.174l-0.041-0.082c-0.836,1.227-2.082,1.898-3.51,1.898
		c-3.041,0-4.204-2.898-4.204-5.471c0-2.652,1.163-5.389,4.204-5.389c1.367,0,2.796,0.654,3.51,1.857l0.041-0.041v-6h1.226v12.429
		c0,0.796,0.062,1.61,0.103,2.308h-1.266L243.631,63.174z M240.284,55.255c-2.327,0-3.081,2.164-3.081,4.123
		c0,1.897,0.55,4.489,2.896,4.489c2.673,0,3.489-2.225,3.489-4.551C243.59,57.236,242.672,55.255,240.284,55.255"/>
	<path display="inline" fill="#53565A" d="M248.827,51.48h-1.429v-1.53h1.429V51.48z M248.725,64.684H247.5V54.439h1.226V64.684z"/>
	<path display="inline" fill="#53565A" d="M252.648,64.684h-1.225v-7.938c0-0.796-0.063-1.612-0.104-2.306h1.266l0.062,1.51
		l0.041,0.041c0.714-1.265,1.877-1.857,3.204-1.857c3.347,0,3.612,2.959,3.612,4.144v6.408h-1.226v-6.61
		c0-1.775-1.021-2.817-2.692-2.817c-2.021,0-2.938,1.694-2.938,3.531V64.684L252.648,64.684z"/>
	<path display="inline" fill="#53565A" d="M269.44,54.439h1.267c-0.041,0.693-0.103,1.51-0.103,2.306v6.144
		c0,2.041,0.103,4.185-2.163,5.244c-0.816,0.389-1.368,0.471-2.327,0.471c-1.856,0-4.062-0.633-4.062-2.756h1.326
		c0.144,1.226,1.593,1.633,2.897,1.633c1.593,0,3.063-1.123,3.104-2.838v-1.918h-0.041c-0.592,1.205-2,1.918-3.326,1.918
		c-3.081,0-4.408-2.347-4.408-5.162c0-2.773,1.246-5.348,4.368-5.348c1.489,0,2.551,0.715,3.367,1.898l0.041-0.082L269.44,54.439z
		 M266.093,55.255c-2.225,0-3.162,2.245-3.162,4.123s0.958,4.144,3.203,4.144c2.348,0,3.246-2.185,3.246-4.185
		C269.379,57.377,268.297,55.255,266.093,55.255"/>
	<path display="inline" fill="#53565A" d="M180.506,34.538h-4v-3.811h9.444v10.504c-4.409,0.653-5.254,1.062-9.988,1.062
		c-6.123-0.189-9.852-4.082-9.852-10.232c0-6.149,3.729-10.041,9.852-10.231c4.763-0.136,9.771,0.571,9.853,6.286h-5.442
		c-0.271-1.904-1.77-2.477-3.564-2.477c-3.675,0-4.979,3.238-4.979,6.422c0,3.865,1.932,6.424,5.852,6.424
		c1.007,0,2.014-0.164,2.829-0.328L180.506,34.538L180.506,34.538z"/>
	<path display="inline" fill="#53565A" d="M193.161,36.089c-0.027,1.769,0.436,3.292,2.366,3.292c1.442,0,2.341-0.68,2.531-1.959
		h4.789c-0.163,1.77-1.278,3.049-2.585,3.811c-1.197,0.762-2.722,1.061-4.327,1.061c-5.471,0-7.646-2.341-7.646-7.701
		c0-4.326,3.237-6.775,7.349-6.775c5.552,0,7.319,3.184,7.319,8.272L193.161,36.089L193.161,36.089z M198.059,33.313
		c0-0.734-0.219-1.469-0.625-2.041c-0.409-0.571-1.007-0.925-1.796-0.87c-1.796,0.081-2.232,1.36-2.368,2.911H198.059z"/>
	<path display="inline" fill="#53565A" d="M210.39,29.721c1.17-1.36,2.53-1.904,4.271-1.904c2.938,0,5.115,1.904,5.115,4.924v9.145
		h-5.171v-8.027c-0.054-1.334-0.38-2.775-1.985-2.775c-2.559,0-2.23,2.803-2.23,2.965v7.838h-5.171v-10.15
		c0-1.225-0.026-2.041-0.163-3.511h5.252L210.39,29.721z"/>
	<path display="inline" fill="#53565A" d="M232.049,40.389c-1.17,1.36-2.53,1.904-4.271,1.904c-2.938,0-5.115-1.904-5.115-4.926
		v-9.144h5.171v8.028c0.055,1.334,0.38,2.775,1.985,2.775c2.56,0,2.23-2.803,2.23-2.966v-7.838h5.172v10.151
		c0,1.225,0.026,2.04,0.162,3.51h-5.252L232.049,40.389z"/>
	<path display="inline" fill="#53565A" d="M240.279,22.237h5.226v3.646h-5.226V22.237z M240.305,28.224h5.17v13.661h-5.17V28.224z"
		/>
	<path display="inline" fill="#53565A" d="M253.677,29.721c1.17-1.36,2.53-1.904,4.272-1.904c2.938,0,5.115,1.904,5.115,4.924v9.145
		h-5.171v-8.027c-0.055-1.334-0.38-2.775-1.985-2.775c-2.559,0-2.23,2.803-2.23,2.965v7.838h-5.171v-10.15
		c0-1.225-0.026-2.041-0.162-3.511h5.251L253.677,29.721z"/>
	<path display="inline" fill="#53565A" d="M270.161,36.089c-0.028,1.769,0.436,3.292,2.366,3.292c1.443,0,2.341-0.68,2.531-1.959
		h4.791c-0.164,1.77-1.28,3.049-2.586,3.811c-1.197,0.762-2.722,1.061-4.327,1.061c-5.471,0-7.646-2.341-7.646-7.701
		c0-4.326,3.237-6.775,7.349-6.775c5.552,0,7.319,3.184,7.319,8.272L270.161,36.089L270.161,36.089z M275.059,33.313
		c0-0.734-0.218-1.469-0.625-2.041c-0.409-0.571-1.007-0.925-1.796-0.87c-1.797,0.081-2.232,1.36-2.368,2.911H275.059z"/>
</g>
</svg>
