<?xml version="1.0" encoding="utf-8"?>
<!-- Generator: Adobe Illustrator 16.0.0, SVG Export Plug-In . SVG Version: 6.00 Build 0)  -->
<!DOCTYPE svg PUBLIC "-//W3C//DTD SVG 1.1//EN" "http://www.w3.org/Graphics/SVG/1.1/DTD/svg11.dtd">
<svg version="1.1" id="레이어_1" xmlns="http://www.w3.org/2000/svg" xmlns:xlink="http://www.w3.org/1999/xlink" x="0px"
	 y="0px" width="150px" height="50px" viewBox="0 0 150 50" enable-background="new 0 0 150 50" xml:space="preserve">
<g>
	<path fill="#DF0522" d="M47.456,2.714H2.885v44.572h44.571V2.714z M46.929,17.405H32.766V3.241h14.163V17.405z M17.574,17.405
		H3.412V3.241h14.162V17.405z M3.412,32.597h14.162V46.76H3.412V32.597z M32.767,32.597H46.93V46.76H32.767V32.597z"/>
	<path fill="#DF0522" d="M0.17,50h50V0h-50V50z M48.59,48.419H1.753V1.581H48.59V48.419z"/>
	<g>
		<path d="M62.546,22.325c-0.241,0.055-0.51,0.107-0.804,0.162c-0.296,0.053-0.627,0.107-0.994,0.16
			c-0.879,0.129-1.795,0.199-2.748,0.209c-0.952,0.012-1.925,0.028-2.922,0.05v-8.974c0-0.162-0.002-0.325-0.007-0.492
			c-0.004-0.166-0.011-0.334-0.021-0.506h1.667c-0.009,0.172-0.017,0.34-0.022,0.506c-0.004,0.167-0.006,0.325-0.006,0.476v7.442
			c0.396,0,0.836-0.005,1.319-0.016c0.482-0.011,0.98-0.037,1.494-0.08c0.511-0.033,1.029-0.086,1.551-0.161
			c0.522-0.075,1.02-0.171,1.493-0.29V22.325z M64.78,17.218h0.666c0.193,0,0.4-0.002,0.617-0.006
			c0.217-0.007,0.423-0.02,0.616-0.042v1.644c-0.192-0.021-0.398-0.034-0.616-0.04c-0.217-0.005-0.424-0.009-0.617-0.009H64.78
			v6.315c0,0.183,0.002,0.365,0.007,0.548c0.004,0.184,0.012,0.36,0.021,0.532h-1.653c0.011-0.172,0.018-0.349,0.022-0.532
			c0.005-0.183,0.007-0.365,0.007-0.548V14.078c0-0.345-0.005-0.698-0.013-1.063c-0.011-0.365-0.025-0.71-0.044-1.031h1.696
			c-0.028,0.515-0.043,1.01-0.043,1.482V17.218z"/>
		<path d="M78.438,23.244h0.334c0.115,0,0.23-0.005,0.348-0.017c0.231,0,0.456-0.002,0.674-0.008s0.413-0.014,0.588-0.023v1.594
			c-0.184-0.01-0.37-0.018-0.56-0.023c-0.188-0.007-0.379-0.008-0.57-0.008H69.027c-0.193,0-0.383,0.001-0.565,0.008
			c-0.184,0.006-0.368,0.014-0.551,0.023v-1.594c0.841,0.031,1.687,0.048,2.537,0.048h2.886v-2.353h-3.755v-4.85h7.394v-1.738
			h-6.685c-0.105,0-0.22,0-0.339,0.007c-0.122,0.007-0.246,0.015-0.37,0.024v-1.578c0.124,0.01,0.248,0.019,0.37,0.023
			c0.119,0.006,0.233,0.008,0.339,0.008h8.309c-0.009,0.14-0.018,0.276-0.021,0.411c-0.005,0.134-0.007,0.271-0.007,0.411v3.93
			h-7.38v1.838h6.8c0.154,0,0.309-0.004,0.463-0.008c0.154-0.006,0.314-0.016,0.479-0.024v1.579
			c-0.164-0.011-0.326-0.02-0.485-0.025c-0.159-0.005-0.315-0.008-0.472-0.008h-3.015v2.353H78.438z"/>
		<path d="M82.656,23.163v-7.861c0-0.312-0.006-0.634-0.014-0.967c-0.012-0.332-0.025-0.654-0.043-0.967h5.104
			c-0.021,0.313-0.031,0.62-0.038,0.927c-0.004,0.306-0.006,0.614-0.006,0.926v1.821h1.421v-2.643c0-0.344-0.006-0.691-0.015-1.047
			c-0.011-0.354-0.024-0.703-0.043-1.048h1.622c-0.01,0.173-0.018,0.345-0.02,0.517c-0.007,0.172-0.009,0.344-0.009,0.516v11.148
			c0,0.172,0.002,0.344,0.009,0.515c0.002,0.171,0.01,0.344,0.02,0.516h-1.594c0.009-0.257,0.018-0.519,0.021-0.782
			c0.006-0.262,0.008-0.529,0.008-0.797v-5.364h-0.813h-0.303c-0.097,0-0.2,0.005-0.305,0.016v4.575H82.656z M86.078,14.884h-1.827
			v6.766h1.827V14.884z M91.703,14.03c0-0.345-0.004-0.691-0.014-1.041c-0.011-0.348-0.025-0.685-0.043-1.006h1.668
			c-0.011,0.182-0.02,0.356-0.023,0.523c-0.004,0.166-0.006,0.34-0.006,0.523v12.066c0,0.182,0.002,0.362,0.006,0.539
			c0.004,0.178,0.013,0.353,0.023,0.524h-1.64c0.011-0.172,0.017-0.347,0.022-0.524c0.004-0.177,0.006-0.357,0.006-0.539V14.03z"/>
		<path d="M104.521,22.438c-0.521,0.117-1.102,0.213-1.74,0.281c-0.638,0.07-1.295,0.121-1.971,0.154
			c-0.688,0.03-1.371,0.051-2.053,0.057c-0.682,0.004-1.323,0.008-1.92,0.008V14.03c0-0.141-0.004-0.281-0.008-0.42
			c-0.005-0.141-0.014-0.279-0.022-0.419h5.815c0.124,0,0.247-0.002,0.369-0.009c0.12-0.004,0.244-0.013,0.369-0.023v1.563
			c-0.125,0-0.249-0.002-0.369-0.008c-0.122-0.006-0.245-0.008-0.369-0.008h-4.191v6.701c0.231,0,0.455-0.002,0.667-0.008
			c0.214-0.006,0.425-0.008,0.639-0.008h0.638c0.318,0,0.687-0.017,1.1-0.049c0.418-0.033,0.828-0.074,1.234-0.129
			c0.396-0.043,0.762-0.091,1.094-0.145c0.334-0.054,0.574-0.098,0.719-0.129V22.438z M106.9,25.08c0,0.183,0.002,0.365,0.006,0.548
			c0.004,0.184,0.013,0.36,0.021,0.532h-1.652c0.01-0.172,0.018-0.349,0.021-0.532c0.004-0.183,0.008-0.365,0.008-0.548V14.077
			c0-0.344-0.005-0.697-0.014-1.063c-0.012-0.365-0.025-0.71-0.044-1.031h1.696c-0.029,0.515-0.043,1.01-0.043,1.482V25.08z"/>
		<path d="M111.336,14.208c-0.117,0-0.232,0-0.349,0.006s-0.231,0.015-0.349,0.025v-1.563c0.117,0.011,0.232,0.019,0.349,0.024
			c0.116,0.005,0.237,0.008,0.362,0.008h5.785c-0.097,0.891-0.309,1.699-0.638,2.424s-0.759,1.367-1.291,1.926
			c-0.531,0.569-1.159,1.056-1.884,1.458c-0.726,0.403-1.533,0.722-2.422,0.959c-0.174-0.204-0.346-0.409-0.516-0.612
			c-0.168-0.204-0.34-0.408-0.514-0.612c0.869-0.216,1.633-0.468,2.29-0.758c0.658-0.289,1.224-0.655,1.697-1.096
			c-0.406,0.044-0.821,0.081-1.247,0.114c-0.426,0.031-0.826,0.047-1.203,0.047h-1.131v-1.352h1.275
			c0.667-0.022,1.267-0.044,1.798-0.065s1.05-0.059,1.552-0.112c0.125-0.258,0.231-0.532,0.318-0.82H111.336z M111.843,22.31h7.148
			v-1.047h-6.308c-0.135,0-0.275,0.002-0.42,0.008c-0.146,0.006-0.285,0.014-0.421,0.024v-1.45c0.136,0.011,0.273,0.02,0.413,0.023
			c0.141,0.005,0.278,0.009,0.413,0.009h7.989c-0.029,0.483-0.043,0.989-0.043,1.515v2.271h-7.148v1.063h6.523
			c0.137,0,0.273-0.002,0.414-0.008c0.139-0.006,0.277-0.014,0.414-0.023v1.449c-0.146-0.01-0.291-0.019-0.436-0.023
			c-0.145-0.008-0.286-0.008-0.421-0.008h-8.119V22.31z M121.224,14.932c0.193,0,0.386-0.003,0.579-0.009
			c0.193-0.005,0.388-0.018,0.581-0.039v1.627c-0.193-0.022-0.388-0.035-0.581-0.041c-0.193-0.005-0.386-0.008-0.579-0.008h-0.608
			v1.74c0,0.16,0.002,0.322,0.007,0.482c0.005,0.162,0.011,0.317,0.021,0.468h-1.667c0.01-0.15,0.017-0.306,0.021-0.468
			c0.004-0.16,0.006-0.322,0.006-0.482V13.61c0-0.548-0.013-1.09-0.043-1.627h1.683c-0.011,0.15-0.017,0.303-0.021,0.459
			s-0.007,0.309-0.007,0.459v2.03H121.224z"/>
		<path d="M58.924,39.522c-0.701-1.338-1.407-2.688-2.119-4.053c0-0.053-0.038-0.158-0.116-0.313
			c-0.077-0.155-0.141-0.276-0.192-0.362v7.475c0,0.193,0.002,0.408,0.008,0.645c0.004,0.236,0.012,0.451,0.023,0.645h-1.779
			c0.02-0.258,0.033-0.537,0.038-0.838s0.007-0.59,0.007-0.871v-7.699c0-0.27-0.002-0.551-0.007-0.847
			c-0.005-0.294-0.018-0.581-0.038-0.862h2.288l4.037,7.83c0.05,0.119,0.109,0.245,0.17,0.379c0.062,0.135,0.123,0.266,0.186,0.395
			v-6.895c0-0.27-0.002-0.551-0.007-0.847c-0.005-0.294-0.018-0.581-0.039-0.862h1.778c-0.021,0.291-0.03,0.608-0.03,0.951v0.967
			v8.264v0.428c0,0.156,0.01,0.326,0.03,0.508h-2.119C60.33,42.204,59.625,40.858,58.924,39.522"/>
		<path d="M71.265,40.804H66.92l-0.929,2.754h-1.794l3.866-11.117h2.072l3.866,11.117h-1.793L71.265,40.804z M70.771,39.32
			L69.1,34.214l-1.7,5.106H70.771z"/>
		<path d="M75.054,33.858c0-0.473-0.016-0.945-0.046-1.418h3.016c0.536,0,1.06,0.035,1.57,0.105c0.51,0.07,0.966,0.213,1.368,0.428
			c0.392,0.213,0.706,0.518,0.943,0.91s0.356,0.91,0.356,1.554c0,0.388-0.058,0.726-0.172,1.015
			c-0.113,0.291-0.268,0.538-0.463,0.742c-0.196,0.215-0.423,0.389-0.68,0.523c-0.26,0.135-0.532,0.239-0.82,0.313
			c0.206,0.108,0.395,0.239,0.564,0.396c0.17,0.155,0.316,0.362,0.44,0.619c0.361,0.742,0.692,1.49,0.997,2.248
			s0.621,1.512,0.952,2.264h-1.934c-0.269-0.645-0.528-1.286-0.78-1.926c-0.254-0.639-0.524-1.281-0.813-1.924
			c-0.113-0.248-0.23-0.441-0.348-0.581c-0.119-0.14-0.246-0.241-0.379-0.306c-0.145-0.064-0.294-0.103-0.448-0.112
			c-0.155-0.011-0.325-0.017-0.511-0.017h-1.113v3.867c0,0.172,0.002,0.344,0.008,0.516c0.004,0.172,0.012,0.332,0.023,0.482h-1.779
			c0.021-0.258,0.033-0.537,0.039-0.838c0.005-0.301,0.007-0.59,0.007-0.871V33.858z M76.756,37.162h1.563
			c0.318,0,0.613-0.034,0.881-0.104s0.5-0.182,0.696-0.331c0.195-0.139,0.351-0.315,0.463-0.531c0.114-0.216,0.17-0.468,0.17-0.758
			c0-0.483-0.167-0.854-0.503-1.111c-0.334-0.257-0.852-0.387-1.553-0.387h-1.717V37.162z"/>
		<path d="M83.205,37.999c0.01-0.752,0.107-1.471,0.293-2.158c0.188-0.688,0.475-1.299,0.866-1.837
			c0.382-0.526,0.866-0.946,1.454-1.265c0.588-0.316,1.283-0.475,2.088-0.475c0.763,0,1.436,0.15,2.018,0.451
			c0.584,0.301,1.076,0.714,1.477,1.24c0.393,0.525,0.689,1.135,0.891,1.828c0.2,0.693,0.301,1.432,0.301,2.215
			c0,0.731-0.092,1.439-0.277,2.127c-0.187,0.688-0.47,1.301-0.851,1.836c-0.382,0.539-0.867,0.97-1.453,1.297
			c-0.589,0.328-1.29,0.492-2.104,0.492c-0.773,0-1.451-0.152-2.033-0.458c-0.584-0.308-1.07-0.724-1.463-1.25
			c-0.401-0.515-0.703-1.122-0.904-1.821C83.306,39.524,83.205,38.784,83.205,37.999 M84.937,37.999c0,0.463,0.046,0.943,0.14,1.441
			c0.092,0.5,0.253,0.954,0.479,1.363c0.216,0.407,0.516,0.746,0.896,1.014c0.382,0.269,0.866,0.402,1.454,0.402
			c0.557,0,1.023-0.12,1.399-0.362c0.376-0.241,0.683-0.562,0.921-0.958c0.227-0.396,0.391-0.848,0.494-1.354
			c0.104-0.504,0.154-1.021,0.154-1.547c0-0.473-0.049-0.959-0.146-1.457c-0.098-0.499-0.26-0.953-0.487-1.361
			c-0.227-0.408-0.531-0.742-0.912-1c-0.382-0.257-0.856-0.385-1.423-0.385c-0.557,0-1.023,0.123-1.399,0.369
			c-0.377,0.248-0.679,0.564-0.905,0.951c-0.236,0.397-0.408,0.849-0.511,1.354C84.988,36.974,84.937,37.483,84.937,37.999"/>
		<path d="M104.021,40.416c0.052,0.15,0.098,0.304,0.14,0.46c0.041,0.154,0.083,0.313,0.124,0.475
			c0.062-0.205,0.126-0.424,0.192-0.66c0.067-0.236,0.127-0.446,0.178-0.629l2.443-7.619h2.631
			c-0.021,0.182-0.031,0.381-0.031,0.596v0.563v8.829v0.555c0,0.209,0.01,0.4,0.031,0.572h-1.779
			c0.02-0.258,0.033-0.539,0.039-0.846c0.005-0.307,0.007-0.594,0.007-0.863v-7.151l-0.231,0.772l-2.629,8.088h-1.732l-2.907-8.908
			v7.781c0,0.16,0.002,0.346,0.007,0.555c0.006,0.209,0.02,0.4,0.039,0.572h-1.793c0.021-0.258,0.035-0.539,0.046-0.846
			c0.009-0.307,0.016-0.594,0.016-0.863v-7.699c0-0.256-0.003-0.516-0.009-0.773c-0.004-0.258-0.021-0.569-0.053-0.934h2.659
			L104.021,40.416z"/>
		<path d="M117.941,43.203c-0.424,0.173-0.85,0.312-1.276,0.419c-0.429,0.107-0.905,0.161-1.431,0.161
			c-0.703,0-1.313-0.105-1.834-0.314c-0.52-0.21-0.955-0.507-1.307-0.894c-0.35-0.375-0.61-0.838-0.78-1.387
			c-0.169-0.547-0.255-1.158-0.255-1.836c0-0.602,0.092-1.154,0.277-1.659s0.444-0.944,0.773-1.321
			c0.331-0.365,0.73-0.65,1.199-0.854s0.992-0.307,1.57-0.307c0.658,0,1.219,0.121,1.678,0.362c0.459,0.242,0.831,0.573,1.121,0.991
			c0.289,0.418,0.494,0.916,0.618,1.49s0.186,1.195,0.186,1.861h-5.676c0.011,0.375,0.087,0.717,0.231,1.021
			c0.146,0.308,0.331,0.568,0.557,0.781c0.228,0.216,0.488,0.385,0.782,0.509s0.601,0.185,0.92,0.185
			c0.505,0,0.972-0.085,1.399-0.257c0.427-0.172,0.791-0.388,1.09-0.645L117.941,43.203z M116.75,38.644
			c-0.021-0.279-0.08-0.543-0.179-0.789c-0.098-0.246-0.229-0.467-0.394-0.66c-0.166-0.183-0.361-0.328-0.588-0.436
			c-0.228-0.107-0.475-0.16-0.742-0.16c-0.311,0-0.588,0.059-0.835,0.178c-0.249,0.117-0.454,0.272-0.618,0.467
			c-0.176,0.191-0.316,0.41-0.419,0.65c-0.103,0.242-0.165,0.492-0.185,0.75H116.75z"/>
		<path d="M125.487,43.558c0.021-0.097,0.032-0.217,0.032-0.363v-0.459v-0.145c-0.094,0.129-0.223,0.26-0.387,0.395
			c-0.166,0.135-0.355,0.262-0.573,0.379c-0.216,0.107-0.456,0.196-0.719,0.266c-0.263,0.07-0.538,0.105-0.827,0.105
			c-0.609,0-1.129-0.119-1.563-0.355c-0.432-0.235-0.789-0.558-1.065-0.967c-0.279-0.396-0.482-0.861-0.611-1.392
			c-0.129-0.534-0.193-1.093-0.193-1.685c0-0.548,0.068-1.074,0.209-1.58c0.139-0.504,0.354-0.949,0.642-1.336
			s0.649-0.693,1.082-0.918c0.434-0.227,0.938-0.338,1.516-0.338c0.547,0,1.042,0.109,1.485,0.329s0.768,0.481,0.974,0.782v-3.851
			c0-0.129-0.002-0.269-0.007-0.419c-0.006-0.15-0.014-0.296-0.023-0.435h1.748c-0.021,0.278-0.034,0.563-0.039,0.854
			c-0.006,0.29-0.008,0.575-0.008,0.854v8.569c0,0.27,0.002,0.555,0.008,0.855c0.005,0.301,0.018,0.585,0.039,0.854H125.487z
			 M121.297,39.417c0,0.387,0.035,0.76,0.107,1.119c0.072,0.361,0.191,0.675,0.355,0.943c0.166,0.268,0.375,0.482,0.627,0.644
			s0.559,0.242,0.921,0.242c0.381,0,0.705-0.089,0.974-0.266c0.268-0.177,0.489-0.405,0.666-0.685
			c0.174-0.279,0.303-0.59,0.386-0.934c0.082-0.345,0.124-0.688,0.124-1.032c0-0.364-0.047-0.719-0.141-1.063
			c-0.092-0.344-0.226-0.654-0.4-0.934c-0.186-0.269-0.413-0.486-0.681-0.652c-0.269-0.167-0.577-0.25-0.928-0.25
			c-0.362,0-0.669,0.083-0.921,0.25c-0.252,0.166-0.456,0.384-0.61,0.652c-0.165,0.268-0.286,0.574-0.363,0.918
			S121.297,39.063,121.297,39.417"/>
		<path d="M130.885,42.253c0,0.203,0.002,0.424,0.008,0.66c0.005,0.236,0.013,0.451,0.023,0.645h-1.779
			c0.01-0.258,0.021-0.539,0.031-0.846c0.01-0.307,0.016-0.594,0.016-0.863v-4.783c0-0.27-0.003-0.551-0.008-0.846
			c-0.006-0.295-0.019-0.582-0.039-0.862h1.779c-0.011,0.161-0.019,0.356-0.023,0.587c-0.006,0.232-0.008,0.434-0.008,0.605V42.253z
			"/>
		<path d="M138.463,37.017c-0.31-0.15-0.607-0.258-0.897-0.322c-0.288-0.064-0.562-0.096-0.819-0.096
			c-0.412,0-0.781,0.074-1.105,0.225c-0.325,0.15-0.596,0.354-0.813,0.611c-0.227,0.27-0.398,0.581-0.518,0.936
			c-0.119,0.354-0.178,0.73-0.178,1.127c0,0.409,0.062,0.787,0.186,1.137c0.123,0.349,0.299,0.658,0.525,0.926
			s0.505,0.479,0.836,0.629c0.329,0.15,0.705,0.225,1.129,0.225c0.228,0,0.508-0.045,0.842-0.137
			c0.335-0.09,0.652-0.233,0.951-0.428l0.186,1.516c-0.393,0.184-0.777,0.299-1.158,0.347c-0.383,0.048-0.707,0.072-0.977,0.072
			c-0.607,0-1.169-0.105-1.685-0.314c-0.517-0.21-0.959-0.503-1.331-0.878c-0.381-0.376-0.68-0.827-0.896-1.354
			c-0.216-0.525-0.324-1.105-0.324-1.74c0-0.645,0.104-1.232,0.309-1.764c0.207-0.531,0.501-0.984,0.882-1.361
			c0.372-0.365,0.817-0.65,1.339-0.854c0.52-0.203,1.09-0.307,1.707-0.307c0.362,0,0.726,0.035,1.092,0.105
			c0.366,0.069,0.666,0.158,0.904,0.266L138.463,37.017z"/>
		<path d="M140.18,36.099c0.392-0.27,0.846-0.482,1.36-0.645c0.517-0.16,1.025-0.242,1.531-0.242c1.187,0,2.028,0.285,2.528,0.854
			c0.501,0.569,0.751,1.423,0.751,2.562v3.494c0,0.119,0.002,0.25,0.007,0.389c0.006,0.139,0.014,0.279,0.023,0.419
			c0,0.139,0.006,0.269,0.016,0.386c0.011,0.119,0.021,0.215,0.031,0.291h-1.608v-0.436c0-0.14-0.005-0.279-0.015-0.418
			c-0.207,0.235-0.51,0.466-0.906,0.691c-0.396,0.225-0.869,0.339-1.414,0.339c-0.454,0-0.866-0.048-1.238-0.146
			c-0.37-0.097-0.69-0.247-0.958-0.451c-0.271-0.214-0.476-0.486-0.619-0.813c-0.144-0.328-0.216-0.717-0.216-1.168
			c0-0.516,0.125-0.949,0.379-1.297c0.252-0.35,0.569-0.631,0.95-0.846c0.372-0.216,0.776-0.369,1.215-0.46
			c0.437-0.091,0.848-0.137,1.229-0.137c0.247,0,0.492,0.003,0.734,0.009c0.242,0.004,0.481,0.013,0.719,0.023
			c-0.041-0.611-0.195-1.082-0.464-1.41c-0.269-0.327-0.722-0.49-1.36-0.49c-0.382,0-0.813,0.1-1.292,0.297
			c-0.479,0.199-0.91,0.449-1.291,0.75L140.18,36.099z M144.696,39.771c-0.073,0-0.146-0.002-0.218-0.009
			c-0.072-0.004-0.148-0.007-0.231-0.007h-0.418c-0.206,0-0.458,0.014-0.758,0.04c-0.299,0.027-0.587,0.089-0.866,0.186
			c-0.277,0.096-0.52,0.24-0.719,0.435c-0.201,0.194-0.301,0.456-0.301,0.79c0,0.192,0.043,0.364,0.131,0.514
			c0.088,0.152,0.197,0.275,0.332,0.371c0.135,0.109,0.283,0.189,0.448,0.242s0.319,0.08,0.465,0.08
			c0.681,0,1.206-0.193,1.577-0.579c0.371-0.388,0.558-0.864,0.558-1.435V39.771z"/>
		<path d="M149.799,42.293c0,0.146,0.004,0.292,0.016,0.442c0,0.161,0.002,0.314,0.008,0.459c0.005,0.146,0.008,0.267,0.008,0.363
			h-1.748c0.02-0.269,0.033-0.553,0.039-0.854c0.005-0.302,0.007-0.592,0.007-0.87v-8.555c0-0.278-0.002-0.563-0.007-0.854
			c-0.006-0.29-0.02-0.575-0.039-0.854h1.748c0,0.063-0.003,0.147-0.008,0.249c-0.006,0.102-0.008,0.207-0.008,0.314
			c-0.012,0.117-0.016,0.231-0.016,0.338v0.274v9.183V42.293z"/>
		<path d="M131.084,32.925c0,0.585-0.475,1.059-1.058,1.059c-0.584,0-1.059-0.474-1.059-1.059c0-0.584,0.475-1.057,1.059-1.057
			C130.609,31.868,131.084,32.341,131.084,32.925"/>
	</g>
</g>
</svg>
