<svg xmlns="http://www.w3.org/2000/svg" xmlns:xlink="http://www.w3.org/1999/xlink" width="136" height="36.012" viewBox="0 0 136 36.012">
  <defs>
    <clipPath id="clip-path">
      <path id="패스_669" data-name="패스 669" d="M33,0a9,9,0,0,0-4.5,1.2l-6,3.47a3,3,0,0,1-3,0l-6-3.47A9,9,0,0,0,0,9V27a9,9,0,0,0,13.5,7.8l6-3.47a3,3,0,0,1,3,0l6,3.47A9,9,0,0,0,42,27V9A9,9,0,0,0,33,0Zm3,27a3,3,0,0,1-4.5,2.6l-6-3.46a9,9,0,0,0-9,0l-6,3.46A3,3,0,0,1,6,27V9a3,3,0,0,1,4.5-2.6l6,3.46a9,9,0,0,0,9,0l6-3.46A3,3,0,0,1,36,9Z" fill="none"/>
    </clipPath>
  </defs>
  <g id="레이어_2" data-name="레이어 2" transform="translate(0 0.006)">
    <g id="레이어_1" data-name="레이어 1">
      <path id="패스_666" data-name="패스 666" d="M73,8v3a5,5,0,0,0,5,5h7V13H78a2,2,0,0,1-2-2h9V8H76a2,2,0,0,1,2-2h7V3H78a5,5,0,0,0-5,5ZM87,6h4V16h3V6h4V3H87Zm22.34.12a4.14,4.14,0,0,0-8,0l-3,9.88h3l.9-3h6.28l.9,3h2.95ZM103.1,10l.89-3a1.38,1.38,0,0,1,2.68,0l.89,3ZM68.75,3.08a2.84,2.84,0,0,0-3.22,1.53l-3,6-3-6a2.84,2.84,0,0,0-3.22-1.53A2.93,2.93,0,0,0,54,6V16h3V6.38l2.8,5.54a3,3,0,0,0,5.38.05L68,6.39V16h3V6a2.93,2.93,0,0,0-2.25-2.92Z" fill="#003057"/>
      <path id="패스_667" data-name="패스 667" d="M109,24v3a5,5,0,0,0,5,5h7V29h-7a2,2,0,0,1-2-2h9V24h-9a2,2,0,0,1,2-2h7V19h-7a5,5,0,0,0-5,5Zm22-5h-8V32h8a5,5,0,0,0,5-5V24A5,5,0,0,0,131,19Zm2,8a2,2,0,0,1-2,2h-5V22h5a2,2,0,0,1,2,2ZM65.9,22.07a4.09,4.09,0,0,0-4-3.06H54V32h7.86a4.09,4.09,0,0,0,4-3.07,4,4,0,0,0-.77-3.43A4,4,0,0,0,65.9,22.07ZM62,29H57V27h5a1,1,0,0,1,0,2Zm0-5H57V22h5a1,1,0,0,1,0,2Zm6,8h3V19H68ZM82,19H78a5,5,0,0,0-5,5v3a5,5,0,0,0,5,5h4a5,5,0,0,0,5-5V24A5,5,0,0,0,82,19Zm2,8a2,2,0,0,1-2,2H78a2,2,0,0,1-2-2V24a2,2,0,0,1,2-2h4a2,2,0,0,1,2,2Zm19.75-7.93a2.84,2.84,0,0,0-3.22,1.53l-3,6-3-6a2.84,2.84,0,0,0-3.22-1.53A2.93,2.93,0,0,0,89,22V32h3V22.38l2.79,5.54a3,3,0,0,0,5.39,0L103,22.39V32h3V22a2.93,2.93,0,0,0-2.25-2.92Z" fill="#00b2a9"/>
      <path id="패스_668" data-name="패스 668" d="M33,0a9,9,0,0,0-4.5,1.2l-6,3.47a3,3,0,0,1-3,0l-6-3.47A9,9,0,0,0,0,9V27a9,9,0,0,0,13.5,7.8l6-3.47a3,3,0,0,1,3,0l6,3.47A9,9,0,0,0,42,27V9A9,9,0,0,0,33,0Zm3,27a3,3,0,0,1-4.5,2.6l-6-3.46a9,9,0,0,0-9,0l-6,3.46A3,3,0,0,1,6,27V9a3,3,0,0,1,4.5-2.6l6,3.46a9,9,0,0,0,9,0l6-3.46A3,3,0,0,1,36,9Z" fill="#00b2a9"/>
      <g id="그룹_1090" data-name="그룹 1090" clip-path="url(#clip-path)">
        <rect id="사각형_726" data-name="사각형 726" width="42" height="18" fill="#003057"/>
      </g>
    </g>
  </g>
</svg>
