<svg aria-hidden="true"  focusable='false' role="presentation" xmlns="http://www.w3.org/2000/svg" xmlns:xlink="http://www.w3.org/1999/xlink" viewBox="0 0 191 36">
  <defs>
    <path id="a" d="M0 0h28.5572759v35.626943H0z"/>
  </defs>
  <g fill="none" fill-rule="evenodd">
    <g>
      <mask id="b" fill="#fff">
        <use xlink:href="#a"/>
      </mask>
      <path fill="#E22B25" d="M13.3357664 24.2855898h1.8861144v-2.0374666h-1.8861144v2.0374666zm-1.5940197-7.8512205h5.0377039c.0989532-1.3564307-1.0501173-2.6575914-2.3709791-2.7144059-1.4472298-.0623886-2.6792874 1.1729586-2.6667248 2.7144059zm8.5247072 19.1925737H8.29082204c.05687181-.4193263.10687445-.8262286.16776875-1.2311834.72243911-4.8098959 1.44593025-9.6195903 2.17065911-14.4291503.2083649-1.3827561.4067665-2.7674597.6364197-4.1460521.2721678-1.6336534 1.6048495-2.7561773 3.1547456-2.6922442 1.4927149.0615155 2.6890652 1.302974 2.9122824 2.9192338.3400551 2.4616282.7306079 4.9150632 1.1004912 7.3717889.4964371 3.2968559.9939881 6.5935102 1.4901777 9.890366.1143624.7596764.2251356 1.5200915.3430874 2.3172413zM-.92120245 3.82969996C-.30014434 3.52672438.28857388 3.232411.88409007 2.95307181c.19100342-.0896437.33290299-.18251055.30465508-.42901396-.02811592-.24509327.08797773-.37751079.33475098-.35494878.25337323.02316635.35455092-.12247949.44899664-.33393119C2.24328994 1.22868953 2.53566906.63220636 2.83464815 0c.12190163.11623465.21707334.20218517.30696507.2935076 3.18330233 3.2377829 6.36323868 6.47912469 9.55512098 9.7081782.2377973.2405272.2598412.4128311.0863937.6912974-.2754171.4423766-.5811942.8852903-.7475797 1.3725895-.2008374.5884253-.5144684.9256468-1.1056286 1.1310551-.5390864.1873453-1.01058896.570698-1.5256514.8405021-.0969537.0508316-.30821906.0243078-.38339283-.0517718C5.72992736 10.6528282 2.44841732 7.31076312-.83348872 3.96896666c-.02613592-.02659095-.04124987-.06446289-.08771373-.1392667M25.6991676 0c.2572085.5451367.4833121 1.02414753.7093498 1.50309144.1799075.38102679.2688728.87255335.94692.64887664-.1665957.67123093.2630077.80395113.6545208.98399013.4788968.22026334.9486335.46087309 1.4685202.71533714-.1074174.11806275-.1873543.21209799-.2736177.29977498-3.1852863 3.23755644-6.3739336 6.47156567-9.5508507 9.71748817-.227158.2320429-.3842641.2524562-.6490511.0837951-.4898362-.312023-.9782226-.6563057-1.5147821-.8536124-.4657167-.1713383-.7273405-.3650977-.8824037-.8798486-.1653436-.5490186-.5234453-1.0440924-.8322537-1.5403709-.1758217-.2825743-.1524271-.4507668.0857362-.69090807 2.7225351-2.74582909 5.4324833-5.50450854 8.1451993-8.26024311C24.5521086 1.17306455 25.095324.61634915 25.6991676 0M3.51459962 30.0016362c-.27244336-.6124368-.54797355-1.2041266-.79800655-1.8082646-.09532122-.2302243-.21175634-.3733114-.45333143-.3518952-.23015383.0202785-.3034351-.1199977-.28158037-.3352307.0243242-.2399285-.09569164-.3380415-.27756749-.4280565C1.14644759 26.8020539.59656021 26.507514 0 26.1973804c.08229481-.1067464.1412532-.196226.21200329-.2730567 3.00866865-3.2636971 6.01844856-6.5261896 9.0274259-9.7895521.12007757-.1303043.23107987-.2970831.41863549-.1185254.18267843.173806.54025652.135993.46487612.608689-.3837543 2.4043715-.73367703 4.815101-1.10317023 7.2222166-.02216342.1443586-.0814305.3089288-.17391184.4097858-1.72498073 1.8823514-3.45755505 3.7565378-5.18938854 5.6315942-.03296731.0356714-.07562726.0609024-.14187057.1131044M28.5572759 26.1767092c-.5309495.2755908-1.0121167.5381921-1.5035241.7758858-.3287976.1590205-.6235434.3205183-.466979.8731059-.67166-.1582839-.7601208.3838586-.9486396.8040743-.1985123.4421773-.3932617.8862963-.6084298 1.371861-.1196132-.1174408-.2091227-.1981227-.2910445-.2869733-1.6452217-1.7842428-3.2939596-3.5647361-4.9270288-5.3619684-.1543436-.1698673-.2647036-.4356825-.30221-.6742467-.3643916-2.3167437-.6942379-4.6400491-1.0720158-6.9542484-.0714349-.4376243.1558241-.524801.3930766-.7021004.2621127-.1959801.3877714-.0081686.5404494.1576144 2.9726264 3.2290188 5.9458079 6.4575021 8.9184342 9.6865209.0758147.0823559.1468177.1698004.2679114.3104749" mask="url(#b)"/>
      <path fill="#E22B25" d="M12.8968343 13.1257158c.4153856-.8139492.7741426-1.5168508 1.1304119-2.2150258-.5928001-.500344-.6853699-.93148809-.2936832-1.30956639.3302136-.31871011.8544047-.29703001 1.152736.04777185.3254345.37618764.2027501.85478844-.3516211 1.24005144.1789202.3506631.3620958.7097713.5453368 1.0687534.1795094.3517345.3590843.7034689.5804269 1.137008-.9321135-.2774297-1.8009209-.3187102-2.7636073.0310075" mask="url(#b)"/>
    </g>
    <path fill="#E22B25" fill-rule="nonzero" d="M60.6225502 26.6346414h-3.7876653V15.1867388L52.314123 26.6346414h-3.1278785l-4.5207619-11.3017591v11.3017591H41V9.36535859h5.0339294l4.7651274 11.66711771 4.5207619-11.66711771h5.3027315V26.6346414zm7.6730769 0H64.385779V9.36535859h3.9098481V26.6346414zm15.0773518 0H72.0344194V9.36535859h3.860975V22.9566982h7.4775845v3.6779432zm13.8310877 0H85.8655071V9.36535859h3.860975V22.9566982h7.4775845v3.6779432zm6.3779394-9.5236806h2.248163c1.466193 0 2.468092-.8525034 2.468092-2.1921516 0-1.3883627-1.001899-2.2165088-2.468092-2.2165088h-2.248163v4.4086604zm2.639148 3.3125845h-2.663584v6.2110961h-3.8609752V9.36535859h6.5245592c3.518863 0 5.938082 2.31393771 5.938082 5.52909341 0 3.2638701-2.419219 5.5290933-5.938082 5.5290933zm19.671423 6.2110961h-11.338559V9.36535859h3.860975V22.9566982h7.477584v3.6779432zm13.488976 0h-10.996448V9.36535859h10.972012v3.62922871h-7.111037v3.2882273h6.45125v3.3856563h-6.45125v3.3125846h7.135473v3.6535859zm7.111036-3.6292287h2.248163c2.663584 0 4.838437-1.5345061 4.838437-4.9932341s-2.174853-5.0175913-4.838437-5.0175913h-2.248163v10.0108254zm2.394782 3.6292287h-6.255757V9.36535859h6.280194c5.204985 0 8.699412 3.31258461 8.699412 8.64682001 0 5.3342355-3.494427 8.6224628-8.723849 8.6224628zm27.49112 0h-3.127879l-.244365-1.7537212C172.248714 25.9769959 170.611465 27 168.143373 27c-4.814 0-8.772721-3.5317997-8.772721-8.9878214C159.370652 12.5805142 163.500429 9 168.387739 9c4.96062 0 7.257655 2.9228687 8.015188 5.3342355l-3.714355 1.2909336c-.268802-1.0717185-1.41732-3.0202977-4.300833-3.0202977-2.345909 0-5.107239 1.5588634-5.107239 5.4073072 0 3.6048715 2.394782 5.4803789 5.204985 5.4803789 2.859076 0 4.056467-1.8511502 4.276396-2.8254398h-5.204985v-3.2638701h8.821595v9.2313938zm14.246509 0h-10.996448V9.36535859h10.972011v3.62922871h-7.111036v3.2882273h6.45125v3.3856563h-6.45125v3.3125846H190.625v3.6535859z"/>
  </g>
</svg>