<svg xmlns="http://www.w3.org/2000/svg" width="4.99in" height="0.94in" viewBox="0 0 359.05 67.52"><path d="M220.29,179.12H139.18V111.6h81.11Z" transform="translate(-139.18 -111.6)" fill="#fdbb30"/><path d="M149.39,168.92h13V134.81h15v-13h-28Zm32.73-47.11v13h15v34.11h13V121.81Z" transform="translate(-139.18 -111.6)" fill="#fff"/><path d="M279.05,119v53H267l0-35.78L262.24,172h-8.55l-5-35,0,35h-12V119h17.77q.69,4.81,1.62,11.29l1.94,13.46L261.07,119h18" transform="translate(-139.18 -111.6)" fill="#006225"/><path d="M315.68,150q0,8-.37,11.29a12.63,12.63,0,0,1-7.7,10.29,19.41,19.41,0,0,1-7.84,1.47,19.79,19.79,0,0,1-7.62-1.39,12.76,12.76,0,0,1-7.9-10.22,112.35,112.35,0,0,1-.39-11.44v-9.07q0-8,.38-11.3a12.65,12.65,0,0,1,7.69-10.29,19.48,19.48,0,0,1,7.84-1.47,19.84,19.84,0,0,1,7.63,1.39,12.73,12.73,0,0,1,7.89,10.22,112.72,112.72,0,0,1,.39,11.45V150m-13.82-17.42a17.19,17.19,0,0,0-.39-4.73,1.58,1.58,0,0,0-1.63-1,1.8,1.8,0,0,0-1.6.84c-.37.55-.55,2.19-.55,4.92v24.75a25.4,25.4,0,0,0,.36,5.69,1.58,1.58,0,0,0,1.69,1.08,1.64,1.64,0,0,0,1.74-1.24,27.26,27.26,0,0,0,.38-5.92Z" transform="translate(-139.18 -111.6)" fill="#006225"/><path d="M320.52,119h10.31q10,0,13.51.92a10.43,10.43,0,0,1,5.36,3,9.59,9.59,0,0,1,2.29,4.67,71.25,71.25,0,0,1,.46,10.1v18.56c0,4.75-.23,7.93-.67,9.54a7.14,7.14,0,0,1-2.35,3.76,9.63,9.63,0,0,1-4.12,1.9,37.41,37.41,0,0,1-7.41.54H320.52V119m13.82,9v34.9q2.93,0,3.6-1.2t.68-6.5V134.59a28,28,0,0,0-.23-4.62,2.18,2.18,0,0,0-1-1.49,6.48,6.48,0,0,0-3-.48" transform="translate(-139.18 -111.6)" fill="#006225"/><path d="M461.27,150q0,8-.37,11.29a12.73,12.73,0,0,1-2.36,6.07,12.58,12.58,0,0,1-5.34,4.22,19.44,19.44,0,0,1-7.84,1.47,19.88,19.88,0,0,1-7.63-1.39,12.73,12.73,0,0,1-7.89-10.22,112.35,112.35,0,0,1-.39-11.44v-9.07q0-8,.38-11.3a12.65,12.65,0,0,1,7.69-10.29,19.44,19.44,0,0,1,7.84-1.47,19.88,19.88,0,0,1,7.63,1.39,12.73,12.73,0,0,1,7.89,10.22,112.72,112.72,0,0,1,.39,11.45V150m-13.82-17.42a16.64,16.64,0,0,0-.4-4.73,1.56,1.56,0,0,0-1.62-1,1.8,1.8,0,0,0-1.6.84c-.37.55-.56,2.19-.56,4.92v24.75a25.14,25.14,0,0,0,.37,5.69,1.58,1.58,0,0,0,1.69,1.08,1.64,1.64,0,0,0,1.74-1.24,27.26,27.26,0,0,0,.38-5.92Z" transform="translate(-139.18 -111.6)" fill="#006225"/><path d="M498.23,142H484.41v-9.2a17.12,17.12,0,0,0-.43-5,1.84,1.84,0,0,0-1.9-1A2,2,0,0,0,480,128a18.76,18.76,0,0,0-.45,5.24v24.62a17.52,17.52,0,0,0,.45,5,1.91,1.91,0,0,0,2,1.17,1.87,1.87,0,0,0,1.95-1.18,19.67,19.67,0,0,0,.47-5.56v-6.67h13.82v2.06q0,8.23-1.16,11.67a11.89,11.89,0,0,1-5.13,6,17.53,17.53,0,0,1-9.79,2.59,20.3,20.3,0,0,1-10-2.19,10.64,10.64,0,0,1-5.19-6.07q-1.28-3.87-1.28-11.65V137.65a69.1,69.1,0,0,1,.39-8.58,12,12,0,0,1,2.34-5.52,13.14,13.14,0,0,1,5.39-4.17,22.07,22.07,0,0,1,18,.83,11.28,11.28,0,0,1,5.2,5.86q1.23,3.51,1.24,10.93v5" transform="translate(-139.18 -111.6)" fill="#006225"/><polygon points="280.36 49.71 280.36 7.35 266.54 7.35 266.54 24.45 269.72 24.45 269.72 45.38 266.54 45.38 266.54 60.35 288.62 60.35 288.62 49.71 280.36 49.71" fill="#006225"/><path d="M385.38,157V136.05h3.16V119H374.71V158a19.93,19.93,0,0,1-.37,5,1.55,1.55,0,0,1-1.65,1.06,1.45,1.45,0,0,1-1.49-1,16.2,16.2,0,0,1-.37-4.44V119H357v31.36q0,9,.33,11.75a11.34,11.34,0,0,0,2.13,5.32,12.63,12.63,0,0,0,5.43,4.09,20.91,20.91,0,0,0,8.38,1.57,19.26,19.26,0,0,0,7.45-1.32,12.12,12.12,0,0,0,5.09-3.9,11.53,11.53,0,0,0,2.32-5,44.72,44.72,0,0,0,.37-5.84h-3.13" transform="translate(-139.18 -111.6)" fill="#006225"/><polygon points="259.94 27.63 259.94 32.18 255.98 32.18 255.98 27.63 249.38 27.63 249.38 42.2 266.54 42.2 266.54 27.63 259.94 27.63" fill="#006225"/><polygon points="42.91 26.48 42.91 31.93 38.15 31.93 38.15 26.48 30.23 26.48 30.23 43.95 50.82 43.95 50.82 26.48 42.91 26.48" fill="#fff"/></svg>