<?xml version="1.0" encoding="utf-8"?>
<!-- Generator: Adobe Illustrator 24.0.1, SVG Export Plug-In . SVG Version: 6.00 Build 0)  -->
<svg version="1.1" id="Layer_1" xmlns="http://www.w3.org/2000/svg" xmlns:xlink="http://www.w3.org/1999/xlink" x="0px" y="0px"
	 viewBox="0 0 159 36" style="enable-background:new 0 0 159 36;" xml:space="preserve">
<style type="text/css">
	.st0{fill:#5C87DE;}
	.st1{fill:#6646B9;}
	.st2{fill:#E02E7E;}
	.st3{fill:#050505;}
	.st4{fill:#F3B048;}
</style>
<path id="Path_33418_2_" class="st0" d="M38.3,9.3L38.3,9.3c-4.7,0-8.6,3.7-8.7,8.4h3.3c0.2-2.9,2.6-5.1,5.4-5.1
	c3,0,5.5,2.5,5.5,5.5l0,0c0,3-2.4,5.5-5.5,5.5l0,0c-2,0-3.8-1.1-4.8-2.8h-3.6c1.1,3.7,4.5,6.1,8.3,6.1c4.8,0,8.7-3.9,8.7-8.8l0,0
	C47,13.3,43.1,9.3,38.3,9.3L38.3,9.3z"/>
<path id="Path_33419_2_" class="st1" d="M78.5,9.3L78.5,9.3c-4.7,0-8.5,3.7-8.7,8.4H73c0.2-2.9,2.6-5.1,5.4-5.1c3,0,5.5,2.5,5.5,5.5
	l0,0c0,3-2.4,5.5-5.5,5.5l0,0c-2,0-3.8-1.1-4.8-2.8h-3.5c1.1,3.6,4.5,6.1,8.3,6.1c4.8,0,8.7-3.9,8.7-8.8
	C87.2,13.3,83.3,9.3,78.5,9.3z"/>
<path id="Path_33420_2_" class="st2" d="M119.1,9.3L119.1,9.3c-4.7,0-8.5,3.7-8.7,8.4h3.3c0.2-2.9,2.6-5.1,5.4-5.1
	c3,0,5.5,2.5,5.5,5.5l0,0c0,3-2.4,5.5-5.5,5.5l0,0c-2,0-3.8-1.1-4.8-2.8h-3.5c1.1,3.6,4.5,6.1,8.3,6.1c4.8,0,8.7-3.9,8.7-8.8
	S123.9,9.3,119.1,9.3z"/>
<g id="Group_1744_2_" transform="translate(0 14.044)">
	<path id="Path_33422_2_" class="st3" d="M23.7,2.7v1H27v-1c0-2.3-1-4.4-2.8-5.8C21-5.6,16.4-5.1,13.9-2l0,0
		c-1.4-1.8-3.5-2.8-5.7-2.8c-4.1,0-7.4,3.3-7.4,7.4v10.1h3.3v-10c0-2.3,1.8-4.1,4.1-4.1l0,0c2.3,0,4.1,1.8,4.1,4.1v10.1h3.3V2.7
		c0-2.3,1.8-4.1,4.1-4.1l0,0C21.9-1.4,23.7,0.4,23.7,2.7z"/>
	<rect id="Rectangle_46240_2_" x="23.7" y="6.7" class="st3" width="3.3" height="6.1"/>
</g>
<g id="Group_1745_2_" transform="translate(78.039 14.371)">
	<path id="Path_33423_2_" class="st3" d="M-14.3,3.3h3.3c-0.3-4.5-4-8.1-8.5-8.2c-4.8-0.1-8.8,3.7-8.9,8.6l0,0v8.8h3.3V3.7
		c0-3,2.4-5.5,5.5-5.5C-16.9-1.8-14.5,0.5-14.3,3.3z"/>
	<rect id="Rectangle_46241_2_" x="-14.3" y="6.4" class="st3" width="3.3" height="6.1"/>
</g>
<path id="Path_33424_2_" class="st3" d="M103.4,20.7c-1,1.8-2.8,2.8-4.8,2.8c-3,0-5.5-2.5-5.4-5.5l0,0c0-3,2.4-5.5,5.4-5.5l0,0
	c2.9,0,5.2,2.2,5.4,5.1h3.3c-0.2-4.7-4-8.4-8.7-8.4c-4.8,0-8.7,3.9-8.7,8.8l0,0c0,4.8,3.9,8.8,8.7,8.8l0,0c2,0,3.9-0.7,5.5-2v2l0,0
	c0,3-2.5,5.5-5.5,5.5l0,0c-2.2,0-4.1-1.3-5-3.3h-3.4c1,3.9,4.5,6.6,8.5,6.6c4.8,0,8.7-4,8.7-8.8v-6.1L103.4,20.7z"/>
<path id="Path_33421_2_" class="st4" d="M150,9.3L150,9.3c-4.7,0-8.5,3.7-8.7,8.4h3.3c0.2-2.9,2.6-5.1,5.4-5.1c3,0,5.5,2.5,5.5,5.5
	l0,0c0,3-2.4,5.5-5.5,5.5l0,0c-2,0-3.8-1.1-4.8-2.9h-3.5c1.1,3.6,4.5,6.1,8.3,6.1c4.8,0,8.7-3.9,8.7-8.8
	C158.7,13.2,154.8,9.3,150,9.3z"/>
<path class="st3" d="M140,23.7c-2.1,0-4-1.3-4.9-3.1h-3.4c1.1,3.6,4.4,6.1,8.3,6.1L140,23.7L140,23.7z"/>
<polygon class="st3" points="131.3,10.6 131.3,12.6 131.3,17.5 131.3,17.5 131.3,17.7 134.5,17.7 134.5,10.6 140,10.6 140,7.3 
	134.5,7.3 134.5,0.5 131.3,0.5 131.3,7.3 "/>
</svg>
