<svg width="116" height="50" viewBox="0 0 116 50" fill="none" xmlns="http://www.w3.org/2000/svg">
  <path d="M10.348 4.844c-.254 2.067-.691 4.495-1.194 7.082 1.382-3.633 3.637-8.398 5.583-9.968A5.468 5.468 0 0118.37.83c4.389.188 6.334 3.135 5.517 7.336-.752 3.948-3.008 12.473-1.378 16.11 1.067 2.317 4.263.122 6.54-7.585 0 0 2.508.564 2.32 1.377-1.569 5.766-3.764 8.962-6.71 10.155-3.384 1.378-7.646.189-9.215-3.322-2.632-5.721.44-12.914.94-18.868.065-.94-.062-1.504-.626-.94-4.013 3.886-7.711 17.425-9.469 22.942v.25c0 1.128-6.706 1.193-6.269-5.137.438-6.33 2.072-14.982 2.571-21.124.127-2.007 8.34-1.382 7.765 2.82h-.008zm36.146-2.82c-.061-2.007 8.34-1.382 7.765 2.82-.564 4.495-3.89 15.23-2.007 19.432 1.063 2.317 4.263.122 6.539-7.585 0-.066 2.57.376 2.256 1.635-1.566 5.64-3.699 8.708-6.645 9.902-3.384 1.377-7.646.188-9.216-3.323a10.543 10.543 0 01-.69-2.256 16.724 16.724 0 01-2.82 4.263 4.716 4.716 0 01-1.88 1.316c-3.388 1.377-7.585.188-9.215-3.323-2.636-5.766.874-20.621 6.58-23.441l.567-.188c1.815-.63 5.721-.503 7.765 1.818.324.336.599.716.817 1.128.115-.726.178-1.46.188-2.194l-.004-.004zm-5.517 21.434c3.135-6.706 4.328-13.285 3.699-16.755-.626-3.572-3.07-2.383-4.324.437-2.321 4.953-4.39 13.29-2.632 17.115.817 1.942 2.002 1.25 3.27-.817l-.013.02zm28.378 1.255c2.82-2.57 4.577-10.155 4.904-15.607.188-4.136-1.88-7.712-4.324-2.759-2.194 4.39-4.2 14.712-2.758 18.117.376.94 1.128 1.189 2.194.249h-.016zm18.619-6.457c-2.068 7.082-7.463 10.531-14.169 10.969-3.2.188-6.71-.123-8.402-3.27-.061-.065-.127-.188-.188-.253-1.067 7.209-1.88 15.296-1.565 22.628.061 1.757-8.402 2.697-8.026-2.881.752-10.969 4.638-31.28 5.721-43.062.127-1.691 5.954-1.442 7.462 1.128a7.545 7.545 0 012.452-1.88c2.885-1.254 6.457.25 7.834 1.566l.38.376c4.385 5.267.94 16.988-2.133 22.252 2.195-.188 7.082-2.947 8.337-9.028.127-.625 2.382 1.382 2.321 1.443l-.024.012zm11.634-14.48c-.564.254-1.127.88-1.818 1.82-3.445 4.903-5.39 20.184.253 20.494 2.195.127 4.496-3.886 5.767-8.713A7.475 7.475 0 01102.052 16c-2.19-2.574-2.256-7.008-1.569-10.34 1.316-6.076 5.202-5.72 6.269-4.086.564.69.879 1.757 1.128 3.135.122.663.207 1.333.253 2.006a35.118 35.118 0 01-.69 8.582c2.505.127 5.578-1.692 6.207-4.197 0 0 2.505.687 2.317 1.316-.94 3.27-5.312 5.767-9.215 5.64-1.255 4.577-3.449 8.651-6.584 10.47-5.39 3.008-12.538-.442-13.666-7.65-.94-6.13 1.316-15.42 5.722-19.053 5.766-4.7 8.901 1.067 7.397 1.942l-.013.012z" fill="#0061FF"/>
</svg>
