<svg xmlns="http://www.w3.org/2000/svg" width="173" height="28.104" viewBox="0 0 173 28.104">
  <g id="Group_14632" data-name="Group 14632" transform="translate(-109.034 -89.229)">
    <g id="Group_14632-2" data-name="Group 14632" transform="translate(109.034 89.229)">
      <path id="Path_31793" data-name="Path 31793" d="M141.327,164.8c-.1.008-2.246.052-2.759.019a13.009,13.009,0,0,1-2.428-.42,18.286,18.286,0,0,1-2.91-1.347,12.09,12.09,0,0,0-4.924-.633l-6.259,0a12.1,12.1,0,0,0-4.924.633,18.442,18.442,0,0,1-2.918,1.343,12.9,12.9,0,0,1-2.42.424c-.513.033-2.651-.016-2.752-.023v-2.439c.1.008,2.238-.006,2.752-.039a13.137,13.137,0,0,0,2.428-.355c1.378-.344,2.012-1.086,2.91-1.412a12.092,12.092,0,0,1,4.924-.633l6.259,0a12.094,12.094,0,0,1,4.924.633c.9.326,1.532,1.069,2.91,1.412a13.092,13.092,0,0,0,2.428.355c.513.033,2.651.046,2.752.039Z" transform="translate(-109.034 -141.548)" fill="#307fc3" fill-rule="evenodd"/>
      <path id="Path_31794" data-name="Path 31794" d="M125.179,177.761l6.216.03a8.6,8.6,0,0,1,4.108,1.2,10.654,10.654,0,0,0,5.829,1.167v2.41c-2.259.046-4.616-.151-6.329-1.516a9.785,9.785,0,0,0-4.214-.91l-5.6.015-5.6-.015a9.786,9.786,0,0,0-4.214.91c-1.713,1.364-4.07,1.561-6.329,1.516v-2.41a10.654,10.654,0,0,0,5.829-1.167,8.6,8.6,0,0,1,4.108-1.2l6.2-.03Z" transform="translate(-109.042 -154.763)" fill="#307fc3" fill-rule="evenodd"/>
      <path id="Path_31795" data-name="Path 31795" d="M128.742,103.009a9.744,9.744,0,0,1,4.169.97c2.289,1.652,5.465,1.365,8.421,1.41v2.426c-2.987.015-6.253.273-8.542-1.471a9.672,9.672,0,0,0-4.305-.91h-6.591a9.671,9.671,0,0,0-4.305.91c-2.289,1.743-5.556,1.486-8.542,1.471v-2.426c2.956-.045,6.132.242,8.421-1.41a9.743,9.743,0,0,1,4.169-.97Zm-3.563-4.652c2.407-.008,4.866-.055,6.822,1.089a8.9,8.9,0,0,0,5,1.319l4.328.015v2.426c-1.668,0-3.237.061-4.874,0a8.233,8.233,0,0,1-4.457-1.38,10.164,10.164,0,0,0-4.654-1.015l-2.159.006-2.159-.006a10.164,10.164,0,0,0-4.654,1.015,8.234,8.234,0,0,1-4.457,1.38c-1.637.061-3.206,0-4.874,0v-2.426l4.328-.015a8.9,8.9,0,0,0,5-1.319c1.956-1.145,4.4-1.1,6.8-1.089Zm0-4.6c.42,0,.84.011,1.259.018a9.839,9.839,0,0,1,4.427,1.076,8.563,8.563,0,0,0,5.079,1.349l5.389.015v2.4l-6.1.015a10.38,10.38,0,0,1-3.638-.834,7.521,7.521,0,0,0-3.108-1.3,23.683,23.683,0,0,0-6.591,0,7.521,7.521,0,0,0-3.108,1.3,10.379,10.379,0,0,1-3.638.834l-6.1-.015v-2.4l5.389-.015a8.563,8.563,0,0,0,5.079-1.349,9.839,9.839,0,0,1,4.427-1.076c.418-.007.82-.015,1.24-.018Zm.091-4.53a8.844,8.844,0,0,1,4.912,1.319A9.5,9.5,0,0,0,135,91.639l6.329.015v2.4h-7.224a9.143,9.143,0,0,1-3.76-.97,10.074,10.074,0,0,0-10.321,0,9.143,9.143,0,0,1-3.76.97h-7.224v-2.4l6.329-.015a9.5,9.5,0,0,0,4.821-1.092,8.844,8.844,0,0,1,4.912-1.319Z" transform="translate(-109.042 -89.229)" fill="#307fc3" fill-rule="evenodd"/>
    </g>
    <g id="Group_14633" data-name="Group 14633" transform="translate(153.954 91.423)">
      <path id="Path_31796" data-name="Path 31796" d="M295.462,103.82s.031-.633.046-1.2.016-2.918.016-2.918-1.76-2.1-5.727-2.022a7.261,7.261,0,0,0-6.067,2.918,6.632,6.632,0,0,0-1.08,4.847c.37,2.5,1.894,3.967,4.23,5.449,2.408,1.528,4.091,2.007,5.7,3.6a4.58,4.58,0,0,1,.12,5.831,4.881,4.881,0,0,1-2.825,1.667,5.7,5.7,0,0,1-4.712-1.146,11.141,11.141,0,0,1-3.095-4.84l-.108,4.786a10.409,10.409,0,0,0,6.838,2.794,7.754,7.754,0,0,0,7.734-5.947,6.359,6.359,0,0,0-1.019-5.164,11.031,11.031,0,0,0-2.176-2.049c-2.027-1.6-7-3.6-7.7-5.812a4.1,4.1,0,0,1,3.9-5.557,6.3,6.3,0,0,1,5.187,3.01A6.662,6.662,0,0,1,295.462,103.82Z" transform="translate(-281.955 -97.674)"/>
      <path id="Path_31797" data-name="Path 31797" d="M731.866,103.82s.031-.633.046-1.2.015-2.918.015-2.918-1.76-2.1-5.727-2.022a7.261,7.261,0,0,0-6.067,2.918,6.63,6.63,0,0,0-1.081,4.847c.37,2.5,1.894,3.967,4.23,5.449,2.408,1.528,4.091,2.007,5.7,3.6a4.58,4.58,0,0,1,.12,5.831,4.881,4.881,0,0,1-2.825,1.667,5.7,5.7,0,0,1-4.712-1.146,11.141,11.141,0,0,1-3.095-4.84l-.108,4.786a10.409,10.409,0,0,0,6.838,2.794,7.755,7.755,0,0,0,7.734-5.947,6.361,6.361,0,0,0-1.019-5.164,11.032,11.032,0,0,0-2.177-2.049c-2.027-1.6-7-3.6-7.7-5.812a4.094,4.094,0,0,1,3.9-5.557,6.294,6.294,0,0,1,5.187,3.01A6.66,6.66,0,0,1,731.866,103.82Z" transform="translate(-604.993 -97.674)"/>
      <path id="Path_31798" data-name="Path 31798" d="M363.628,101.806s-.077-.656-.092-1.158.038-1.683.046-1.822l17.328-.015s.038,1.544.038,2.007a5.2,5.2,0,0,1-.108.957,3.094,3.094,0,0,0-1.312-1.219,26.938,26.938,0,0,0-3.319-.185c-.845-.021-1.574-.047-1.714-.047-.278,0-.532.069-.548.347,0,0-.07,21.295-.07,21.511s.216,1.667,1.08,2.022h-5.464a2.147,2.147,0,0,0,1.08-2.007c.016-1.528-.031-21.411-.031-21.519s-.046-.278-.34-.309c-.416-.044-4.708.031-5.187.154A2.7,2.7,0,0,0,363.628,101.806Z" transform="translate(-342.341 -98.516)"/>
      <path id="Path_31799" data-name="Path 31799" d="M474.475,101.71a16.807,16.807,0,0,0,.015-2.393c-.046-.386-.308-.448-.4-.448h-14.1a5.018,5.018,0,0,1,1.088,1.2,1.942,1.942,0,0,1,.27,1.081c0,.135.062,7.85.062,9.285s-.014,10.92-.154,12.272c-.077.741-1.189,1.544-1.189,1.544l15.321-.023a10.179,10.179,0,0,0,.741-3.844,4.27,4.27,0,0,1-2.987,2.123,34.107,34.107,0,0,1-8.019-.116s-.409-.016-.409-.355c0-2.439,0-7.587-.093-10.15-.013-.355.031-.675.355-.71.571-.062,3.844-.154,6.36-.031.4.02.757.432,1.127.864a16.063,16.063,0,0,0-.016-3.319s-.494.714-.973.756c-1.644.147-6.4.093-6.507.093s-.3-.123-.332-.417c-.024-.231-.034-8.089-.031-8.15a.5.5,0,0,1,.417-.509c.277-.026,5.387-.046,7.579.17A3.2,3.2,0,0,1,474.475,101.71Z" transform="translate(-413.739 -98.559)"/>
      <path id="Path_31800" data-name="Path 31800" d="M552.25,124.248s.984-.652,1-1.378-.089-22.348-.089-22.6.019-.838-1.231-1.393l8.332-.012c.432,0,7.611.232,7.687,6.236.027,2.111-1.258,5.075-5.044,6.337,0,0-.162.081-.162.174a.307.307,0,0,0,.081.22,11.6,11.6,0,0,1,1.868,1.945c1.019,1.281,5.814,8.714,6.02,8.969a4.924,4.924,0,0,0,2.146,1.5,22.605,22.605,0,0,1-3.581.031,2.975,2.975,0,0,1-2.393-1.544c-.772-1.081-4.95-7.942-6.036-9.324a2.29,2.29,0,0,0-1.81-.88c-.155-.008-1.91-.023-2.177-.035-.247-.011-.486.143-.486.544,0,.294.058,9.524.073,9.833a2.179,2.179,0,0,0,1.034,1.374Zm4.079-13.789c0,.139.081.59.278.614a19.363,19.363,0,0,0,3.763-.116,5.713,5.713,0,0,0,4.388-6.044,4.584,4.584,0,0,0-4.434-4.747,22.07,22.07,0,0,0-3.566-.1c-.405.011-.475.313-.463.614S556.33,110.459,556.33,110.459Z" transform="translate(-481.798 -98.559)"/>
      <path id="Path_31801" data-name="Path 31801" d="M663.125,124.2a2.184,2.184,0,0,1-.961-1.2c-.023-.232-.046-21.688,0-22.707a1.856,1.856,0,0,1,.868-1.478l-4.82,0a1.742,1.742,0,0,1,.849,1.436c.046,1.019,0,22.395,0,22.672a2.145,2.145,0,0,1-.926,1.3Z" transform="translate(-560.413 -98.516)"/>
    </g>
  </g>
</svg>
