<?xml version="1.0" encoding="utf-8"?>
<!-- Generator: Adobe Illustrator 24.0.3, SVG Export Plug-In . SVG Version: 6.00 Build 0)  -->
<svg version="1.1" id="Layer_1" xmlns="http://www.w3.org/2000/svg" xmlns:xlink="http://www.w3.org/1999/xlink" x="0px" y="0px"
	 viewBox="0 0 974.66 281.76" style="enable-background:new 0 0 974.66 281.76;" xml:space="preserve">
<style type="text/css">
	.st0{fill:#008BC3;}
</style>
<g>
	<path class="st0" d="M929.11,118.21V92.98h7.05v-2.51h-17.73v2.51h7.05v25.23H929.11z M965.88,118.21V90.47h-5.55
		c-3.85,11.79-6.28,19.28-7.56,23.88h-0.1c-1.28-4.57-3.71-12-7.57-23.88h-5.54v27.74h3.34c0-12.22-0.02-20.46-0.17-24.9h0.12
		c1.36,4.42,4.06,12.67,8.08,24.9h3.52c4.14-12.46,6.78-20.49,8.07-24.9h0.12c-0.1,4.43-0.12,12.68-0.12,24.9H965.88z
		 M604.16,155.17h-12.78v-31.92h13.24c13.94,0,19.65,4.59,19.65,15.83C624.27,153.62,610.22,155.17,604.16,155.17 M591.39,48.29
		h13.47c11.82,0,17.81,5.07,17.81,15.03c0,9.79-6.43,14.77-19.18,14.77h-12.09V48.29z M436.27,88.3h-12.51V54.75h13.42
		c12.55,0,20.35,2.7,20.35,16.11C457.53,85.6,450.37,88.3,436.27,88.3 M271.23,151.97c-13.81,0-20.81-16.36-20.81-48.61
		c0-32.26,7-48.61,20.81-48.61c18.71,0,21.23,27.76,21.5,48.65C292.47,126.85,290.58,151.97,271.23,151.97 M966.9,140.12
		c-11.53,4.78-21.49,7-31.36,7c-24.87,0-39.68-16.95-39.68-45.37c0-27.01,15.98-43.78,41.7-43.78c9.82,0,19.73,3.26,28.98,6.77
		l4.4,1.68V9.7l-5.85-1.28c-14.61-3.17-24.28-5.27-40.09-5.27c-42.59,0-85.47,23.39-95.14,74.95h-73.82V57.97h77.09V6.37H690.7
		v128.36c-3.45-14.08-13.58-27.8-28.99-33.46c18.02-8.24,27.4-22.9,27.4-45.45c0-31.88-20.68-49.44-58.17-49.44H527.25v187.46
		c-2.17-7.22-3.51-15.98-4.84-25.27c-1.99-13.89-4.03-28.24-9.48-39.97c-5.49-9.7-12.31-15.94-21-19.5
		c21.05-8.74,32.32-25.05,32.32-49.51c0-35.31-21.51-53.2-63.93-53.2H359.77v69.9c-8.39-46.78-39.56-73.12-88.53-73.12
		c-50.24,0-81.69,28.04-88.71,77.85V6.37h-58.16v107.62C116.85,79.75,100.75,6.37,100.75,6.37H4.77v193.99h58.17V88.29
		c7.72,34.29,25.21,112.07,25.21,112.07h94.38v-74.08c6.95,50.07,37.84,77.29,88.71,77.29c48.98,0,80.14-26.32,88.53-73.13v69.91
		h66.69v-63.67h10.26c7.39,0,11.37,1.15,14.11,7.69c2.91,6.64,4.33,20.75,5.58,33.2l2.9,23l2.82-0.21h161.04
		c31.52,0,60.97-5.25,67.54-39.74v39.74h144v-51.61h-78.67v-19.05h74.77c9.86,46.19,44.03,73.88,94.19,73.88
		c19.71,0,38.79-5.89,44.18-7.69l2.2-0.74v-56.87L966.9,140.12z"/>
	<g>
		<path class="st0" d="M7.69,270.38v-25.1h4.9v25.1H7.69z"/>
		<path class="st0" d="M28.77,270.38v-11.11c0-2.5-1.59-3.35-3.03-3.35c-1.44,0-3.07,0.85-3.07,3.35v11.11h-4.58v-18.37h4.47v1.69
			c1.2-1.27,2.9-1.9,4.59-1.9c1.83,0,3.31,0.59,4.33,1.62c1.48,1.48,1.87,3.21,1.87,5.22v11.74H28.77z"/>
		<path class="st0" d="M44.31,270.59c-2.89,0-5.5-0.32-7.83-2.64l3-3c1.51,1.52,3.49,1.73,4.89,1.73c1.59,0,3.25-0.54,3.25-1.9
			c0-0.92-0.5-1.56-1.94-1.69l-2.9-0.29c-3.31-0.32-5.35-1.76-5.35-5.14c0-3.81,3.35-5.85,7.08-5.85c2.86,0,5.26,0.49,7.02,2.15
			l-2.82,2.85c-1.06-0.95-2.68-1.23-4.26-1.23c-1.84,0-2.61,0.85-2.61,1.77c0,0.67,0.28,1.44,1.9,1.59l2.89,0.28
			c3.63,0.35,5.47,2.29,5.47,5.39C52.1,268.64,48.65,270.59,44.31,270.59z"/>
		<path class="st0" d="M66.51,270.38v-1.69c-1.2,1.27-2.9,1.9-4.59,1.9c-1.83,0-3.31-0.6-4.33-1.62c-1.48-1.48-1.87-3.21-1.87-5.22
			v-11.74h4.59v11.1c0,2.51,1.59,3.36,3.03,3.36c1.44,0,3.07-0.85,3.07-3.36v-11.1h4.58v18.37H66.51z"/>
		<path class="st0" d="M81.3,270.38c-3.78,0-5.35-2.65-5.35-5.25v-19.85h4.58v19.56c0,1.09,0.46,1.65,1.62,1.65h1.76v3.88H81.3z"/>
		<path class="st0" d="M96.99,270.38v-1.59c-1.24,1.23-2.4,1.76-4.51,1.76c-2.08,0-3.6-0.53-4.69-1.62
			c-0.98-1.02-1.51-2.51-1.51-4.13c0-2.93,2.01-5.32,6.27-5.32h4.33v-0.92c0-2.01-0.98-2.9-3.41-2.9c-1.77,0-2.57,0.43-3.53,1.52
			l-2.92-2.86c1.8-1.97,3.56-2.53,6.62-2.53c5.15,0,7.83,2.18,7.83,6.48v12.1H96.99z M96.87,262.62h-3.62
			c-1.66,0-2.58,0.77-2.58,2.07c0,1.27,0.85,2.12,2.65,2.12c1.27,0,2.08-0.11,2.89-0.89c0.5-0.46,0.67-1.2,0.67-2.32V262.62z"/>
		<path class="st0" d="M112.14,270.38c-3.74,0-5.32-2.65-5.32-5.25v-9.1h-1.94v-3.49h1.94v-5.43h4.58v5.43h3.24v3.49h-3.24v8.82
			c0,1.06,0.5,1.65,1.59,1.65h1.65v3.88H112.14z"/>
		<path class="st0" d="M122.38,262.62c0,2.36,1.44,4.09,4.01,4.09c2.02,0,3-0.57,4.17-1.73l2.78,2.72
			c-1.87,1.86-3.67,2.89-6.98,2.89c-4.34,0-8.5-1.97-8.5-9.41c0-5.99,3.24-9.38,8-9.38c5.11,0,8,3.74,8,8.78v2.05H122.38z
			 M128.94,257.51c-0.5-1.09-1.52-1.9-3.07-1.9s-2.57,0.81-3.07,1.9c-0.28,0.67-0.38,1.17-0.42,1.98h6.98
			C129.33,258.67,129.22,258.18,128.94,257.51z"/>
		<path class="st0" d="M148.25,270.38v-1.73c-1.27,1.42-2.61,1.94-4.55,1.94c-1.8,0-3.49-0.63-4.51-1.65
			c-1.83-1.84-1.86-5.01-1.86-7.75c0-2.75,0.04-5.89,1.86-7.73c1.02-1.02,2.69-1.65,4.48-1.65c1.86,0,3.28,0.49,4.47,1.83v-8.35
			h4.58v25.1H148.25z M145.01,255.92c-2.75,0-3.11,2.26-3.11,5.26c0,2.99,0.35,5.29,3.11,5.29c2.74,0,3.13-2.29,3.13-5.29
			C148.14,258.18,147.75,255.92,145.01,255.92z"/>
		<path class="st0" d="M187.39,270.38v-11.11c0-2.5-1.59-3.35-3.04-3.35c-1.4,0-3.06,0.85-3.06,3.24v11.22h-4.59v-11.11
			c0-2.5-1.59-3.35-3.03-3.35s-3.07,0.85-3.07,3.35v11.11h-4.58v-18.37h4.47v1.69c1.2-1.23,2.9-1.9,4.59-1.9
			c2.05,0,3.7,0.74,4.86,2.32c1.55-1.63,3.2-2.32,5.5-2.32c1.84,0,3.49,0.59,4.51,1.62c1.48,1.48,2.01,3.21,2.01,5.22v11.74H187.39z
			"/>
		<path class="st0" d="M200.49,262.62c0,2.36,1.44,4.09,4.01,4.09c2.02,0,3-0.57,4.17-1.73l2.78,2.72
			c-1.87,1.86-3.67,2.89-6.98,2.89c-4.34,0-8.5-1.97-8.5-9.41c0-5.99,3.24-9.38,8-9.38c5.11,0,8,3.74,8,8.78v2.05H200.49z
			 M207.04,257.51c-0.5-1.09-1.52-1.9-3.07-1.9s-2.57,0.81-3.07,1.9c-0.28,0.67-0.38,1.17-0.42,1.98h6.98
			C207.43,258.67,207.32,258.18,207.04,257.51z"/>
		<path class="st0" d="M221.94,270.38c-3.74,0-5.32-2.65-5.32-5.25v-9.1h-1.94v-3.49h1.94v-5.43h4.59v5.43h3.24v3.49h-3.24v8.82
			c0,1.06,0.49,1.65,1.59,1.65h1.65v3.88H221.94z"/>
		<path class="st0" d="M238.01,270.38v-1.59c-1.23,1.23-2.4,1.76-4.51,1.76c-2.08,0-3.59-0.53-4.68-1.62
			c-0.99-1.02-1.52-2.51-1.52-4.13c0-2.93,2.01-5.32,6.27-5.32h4.34v-0.92c0-2.01-0.98-2.9-3.42-2.9c-1.76,0-2.57,0.43-3.52,1.52
			l-2.93-2.86c1.81-1.97,3.56-2.53,6.63-2.53c5.14,0,7.82,2.18,7.82,6.48v12.1H238.01z M237.9,262.62h-3.63
			c-1.65,0-2.57,0.77-2.57,2.07c0,1.27,0.84,2.12,2.65,2.12c1.26,0,2.07-0.11,2.89-0.89c0.5-0.46,0.67-1.2,0.67-2.32V262.62z"/>
		<path class="st0" d="M252.59,270.38c-3.78,0-5.35-2.65-5.35-5.25v-19.85h4.58v19.56c0,1.09,0.46,1.65,1.62,1.65h1.76v3.88H252.59z
			"/>
		<path class="st0" d="M280.53,268.93c-1.02,1.02-2.68,1.65-4.47,1.65c-1.86,0-3.24-0.49-4.44-1.84v8.36h-4.58v-25.1h4.44v1.72
			c1.26-1.41,2.64-1.93,4.58-1.93c1.8,0,3.45,0.63,4.47,1.65c1.84,1.84,1.87,4.97,1.87,7.73
			C282.4,263.92,282.37,267.1,280.53,268.93z M274.72,255.92c-2.75,0-3.11,2.26-3.11,5.26c0,2.99,0.35,5.29,3.11,5.29
			c2.74,0,3.1-2.29,3.1-5.29C277.82,258.18,277.46,255.92,274.72,255.92z"/>
		<path class="st0" d="M296.18,270.38v-1.59c-1.23,1.23-2.4,1.76-4.51,1.76c-2.08,0-3.59-0.53-4.68-1.62
			c-0.99-1.02-1.52-2.51-1.52-4.13c0-2.93,2.01-5.32,6.27-5.32h4.34v-0.92c0-2.01-0.98-2.9-3.42-2.9c-1.76,0-2.57,0.43-3.52,1.52
			l-2.93-2.86c1.81-1.97,3.56-2.53,6.63-2.53c5.14,0,7.82,2.18,7.82,6.48v12.1H296.18z M296.07,262.62h-3.63
			c-1.65,0-2.57,0.77-2.57,2.07c0,1.27,0.84,2.12,2.65,2.12c1.26,0,2.07-0.11,2.89-0.89c0.5-0.46,0.67-1.2,0.67-2.32V262.62z"/>
		<path class="st0" d="M316.26,270.38v-11.11c0-2.5-1.59-3.35-3.03-3.35s-3.07,0.85-3.07,3.35v11.11h-4.58v-18.37h4.47v1.69
			c1.2-1.27,2.9-1.9,4.59-1.9c1.83,0,3.31,0.59,4.33,1.62c1.48,1.48,1.87,3.21,1.87,5.22v11.74H316.26z"/>
		<path class="st0" d="M329.37,262.62c0,2.36,1.44,4.09,4.01,4.09c2.01,0,2.99-0.57,4.16-1.73l2.78,2.72
			c-1.86,1.86-3.66,2.89-6.98,2.89c-4.33,0-8.49-1.97-8.49-9.41c0-5.99,3.24-9.38,8-9.38c5.1,0,8,3.74,8,8.78v2.05H329.37z
			 M335.92,257.51c-0.49-1.09-1.51-1.9-3.06-1.9c-1.56,0-2.58,0.81-3.07,1.9c-0.29,0.67-0.39,1.17-0.42,1.98h6.98
			C336.31,258.67,336.2,258.18,335.92,257.51z"/>
		<path class="st0" d="M350.26,270.38c-3.78,0-5.36-2.65-5.36-5.25v-19.85h4.58v19.56c0,1.09,0.46,1.65,1.62,1.65h1.76v3.88H350.26z
			"/>
		<path class="st0" d="M370.72,270.59c-2.89,0-5.5-0.32-7.83-2.64l3-3c1.51,1.52,3.49,1.73,4.89,1.73c1.59,0,3.25-0.54,3.25-1.9
			c0-0.92-0.5-1.56-1.94-1.69l-2.9-0.29c-3.31-0.32-5.35-1.76-5.35-5.14c0-3.81,3.35-5.85,7.08-5.85c2.86,0,5.26,0.49,7.02,2.15
			l-2.82,2.85c-1.06-0.95-2.68-1.23-4.26-1.23c-1.84,0-2.61,0.85-2.61,1.77c0,0.67,0.28,1.44,1.9,1.59l2.89,0.28
			c3.63,0.35,5.47,2.29,5.47,5.39C378.51,268.64,375.06,270.59,370.72,270.59z"/>
		<path class="st0" d="M395.04,268.33c-1.13,1.2-2.99,2.26-5.71,2.26s-4.55-1.06-5.68-2.26c-1.65-1.73-2.08-3.81-2.08-7.15
			c0-3.32,0.43-5.4,2.08-7.12c1.13-1.2,2.96-2.26,5.68-2.26s4.58,1.05,5.71,2.26c1.65,1.72,2.08,3.81,2.08,7.12
			C397.12,264.52,396.69,266.6,395.04,268.33z M391.48,256.73c-0.54-0.53-1.24-0.81-2.15-0.81c-0.92,0-1.59,0.29-2.12,0.81
			c-0.95,0.96-1.05,2.53-1.05,4.45c0,1.9,0.11,3.52,1.05,4.47c0.54,0.53,1.2,0.81,2.12,0.81c0.91,0,1.62-0.29,2.15-0.81
			c0.95-0.96,1.05-2.57,1.05-4.47C392.53,259.27,392.43,257.69,391.48,256.73z"/>
		<path class="st0" d="M406.66,270.38c-3.78,0-5.35-2.65-5.35-5.25v-19.85h4.58v19.56c0,1.09,0.46,1.65,1.62,1.65h1.76v3.88H406.66z
			"/>
		<path class="st0" d="M423.5,270.38v-1.69c-1.19,1.27-2.89,1.9-4.58,1.9c-1.84,0-3.32-0.6-4.34-1.62
			c-1.48-1.48-1.86-3.21-1.86-5.22v-11.74h4.58v11.1c0,2.51,1.59,3.36,3.03,3.36c1.45,0,3.07-0.85,3.07-3.36v-11.1h4.59v18.37H423.5
			z"/>
		<path class="st0" d="M438.87,270.38c-3.74,0-5.32-2.65-5.32-5.25v-9.1h-1.94v-3.49h1.94v-5.43h4.58v5.43h3.24v3.49h-3.24v8.82
			c0,1.06,0.5,1.65,1.59,1.65h1.65v3.88H438.87z"/>
		<path class="st0" d="M445.45,248.87v-3.74h4.68v3.74H445.45z M445.52,270.38v-18.37h4.58v18.37H445.52z"/>
		<path class="st0" d="M467.89,268.33c-1.13,1.2-2.99,2.26-5.71,2.26s-4.55-1.06-5.68-2.26c-1.65-1.73-2.08-3.81-2.08-7.15
			c0-3.32,0.43-5.4,2.08-7.12c1.13-1.2,2.96-2.26,5.68-2.26s4.58,1.05,5.71,2.26c1.65,1.72,2.08,3.81,2.08,7.12
			C469.98,264.52,469.55,266.6,467.89,268.33z M464.34,256.73c-0.54-0.53-1.24-0.81-2.15-0.81c-0.92,0-1.59,0.29-2.12,0.81
			c-0.95,0.96-1.05,2.53-1.05,4.45c0,1.9,0.11,3.52,1.05,4.47c0.54,0.53,1.2,0.81,2.12,0.81c0.91,0,1.62-0.29,2.15-0.81
			c0.95-0.96,1.05-2.57,1.05-4.47C465.39,259.27,465.29,257.69,464.34,256.73z"/>
		<path class="st0" d="M485.01,270.38v-11.11c0-2.5-1.59-3.35-3.03-3.35s-3.07,0.85-3.07,3.35v11.11h-4.58v-18.37h4.47v1.69
			c1.2-1.27,2.9-1.9,4.59-1.9c1.83,0,3.31,0.59,4.33,1.62c1.48,1.48,1.87,3.21,1.87,5.22v11.74H485.01z"/>
		<path class="st0" d="M500.55,270.59c-2.89,0-5.5-0.32-7.83-2.64l3-3c1.52,1.52,3.49,1.73,4.9,1.73c1.59,0,3.24-0.54,3.24-1.9
			c0-0.92-0.5-1.56-1.94-1.69l-2.89-0.29c-3.32-0.32-5.36-1.76-5.36-5.14c0-3.81,3.35-5.85,7.08-5.85c2.86,0,5.26,0.49,7.02,2.15
			l-2.82,2.85c-1.05-0.95-2.68-1.23-4.26-1.23c-1.84,0-2.61,0.85-2.61,1.77c0,0.67,0.29,1.44,1.9,1.59l2.9,0.28
			c3.62,0.35,5.46,2.29,5.46,5.39C508.34,268.64,504.89,270.59,500.55,270.59z"/>
		<path class="st0" d="M521.13,271.5v-27.1h3.83v27.1H521.13z"/>
		<path class="st0" d="M561.06,270.38h-4.08l-4.62-15.23l-4.62,15.23h-4.09l-6.7-25.1h5.11l3.87,15.82l4.59-15.82h3.66l4.59,15.82
			l3.91-15.82h5.11L561.06,270.38z"/>
		<path class="st0" d="M579.98,270.38v-1.59c-1.23,1.23-2.4,1.76-4.51,1.76c-2.08,0-3.59-0.53-4.69-1.62
			c-0.98-1.02-1.51-2.51-1.51-4.13c0-2.93,2.01-5.32,6.27-5.32h4.34v-0.92c0-2.01-0.99-2.9-3.42-2.9c-1.76,0-2.57,0.43-3.53,1.52
			l-2.92-2.86c1.8-1.97,3.56-2.53,6.62-2.53c5.15,0,7.83,2.18,7.83,6.48v12.1H579.98z M579.88,262.62h-3.63
			c-1.65,0-2.57,0.77-2.57,2.07c0,1.27,0.84,2.12,2.64,2.12c1.27,0,2.08-0.11,2.9-0.89c0.49-0.46,0.67-1.2,0.67-2.32V262.62z"/>
		<path class="st0" d="M594.57,270.38c-3.77,0-5.35-2.65-5.35-5.25v-19.85h4.58v19.56c0,1.09,0.46,1.65,1.62,1.65h1.76v3.88H594.57z
			"/>
		<path class="st0" d="M611.87,270.38l-4.51-7.65l-1.93,2.18v5.47h-4.59v-25.1h4.59v14.24l6.09-7.51h5.53l-6.55,7.4l7.04,10.97
			H611.87z"/>
		<path class="st0" d="M620.05,262.44v-4.26h10.85v4.26H620.05z"/>
		<path class="st0" d="M635.48,248.87v-3.74h4.68v3.74H635.48z M635.54,270.38v-18.37h4.59v18.37H635.54z"/>
		<path class="st0" d="M655.92,270.38v-11.11c0-2.5-1.59-3.35-3.04-3.35c-1.44,0-3.06,0.85-3.06,3.35v11.11h-4.59v-18.37h4.47v1.69
			c1.2-1.27,2.9-1.9,4.59-1.9c1.84,0,3.31,0.59,4.33,1.62c1.48,1.48,1.87,3.21,1.87,5.22v11.74H655.92z"/>
		<path class="st0" d="M680.88,270.59c-3.66,0-8.21-1.97-8.21-9.41c0-7.45,4.55-9.38,8.21-9.38c2.54,0,4.44,0.77,6.07,2.47
			l-3.11,3.1c-0.95-1.02-1.76-1.44-2.96-1.44c-1.09,0-1.93,0.39-2.6,1.2c-0.71,0.89-1.02,2.12-1.02,4.06c0,1.93,0.32,3.2,1.02,4.08
			c0.67,0.81,1.51,1.2,2.6,1.2c1.2,0,2.02-0.43,2.96-1.45l3.11,3.07C685.33,269.77,683.43,270.59,680.88,270.59z"/>
		<path class="st0" d="M703.19,268.33c-1.13,1.2-3,2.26-5.72,2.26s-4.54-1.06-5.67-2.26c-1.66-1.73-2.08-3.81-2.08-7.15
			c0-3.32,0.42-5.4,2.08-7.12c1.13-1.2,2.95-2.26,5.67-2.26s4.59,1.05,5.72,2.26c1.65,1.72,2.07,3.81,2.07,7.12
			C705.26,264.52,704.84,266.6,703.19,268.33z M699.62,256.73c-0.53-0.53-1.23-0.81-2.15-0.81s-1.59,0.29-2.11,0.81
			c-0.95,0.96-1.06,2.53-1.06,4.45c0,1.9,0.11,3.52,1.06,4.47c0.53,0.53,1.19,0.81,2.11,0.81s1.62-0.29,2.15-0.81
			c0.96-0.96,1.06-2.57,1.06-4.47C700.69,259.27,700.58,257.69,699.62,256.73z"/>
		<path class="st0" d="M722.32,268.33c-1.13,1.2-3,2.26-5.72,2.26c-2.71,0-4.54-1.06-5.67-2.26c-1.66-1.73-2.08-3.81-2.08-7.15
			c0-3.32,0.42-5.4,2.08-7.12c1.13-1.2,2.95-2.26,5.67-2.26c2.71,0,4.59,1.05,5.72,2.26c1.65,1.72,2.07,3.81,2.07,7.12
			C724.4,264.52,723.98,266.6,722.32,268.33z M718.76,256.73c-0.53-0.53-1.23-0.81-2.15-0.81c-0.92,0-1.59,0.29-2.11,0.81
			c-0.95,0.96-1.06,2.53-1.06,4.45c0,1.9,0.11,3.52,1.06,4.47c0.53,0.53,1.19,0.81,2.11,0.81c0.92,0,1.62-0.29,2.15-0.81
			c0.96-0.96,1.06-2.57,1.06-4.47C719.82,259.27,719.71,257.69,718.76,256.73z"/>
		<path class="st0" d="M733.95,270.38c-3.77,0-5.35-2.65-5.35-5.25v-19.85h4.58v19.56c0,1.09,0.46,1.65,1.62,1.65h1.76v3.88H733.95z
			"/>
		<path class="st0" d="M743.81,262.62c0,2.36,1.45,4.09,4.02,4.09c2.01,0,2.99-0.57,4.16-1.73l2.78,2.72
			c-1.86,1.86-3.66,2.89-6.98,2.89c-4.34,0-8.5-1.97-8.5-9.41c0-5.99,3.25-9.38,8-9.38c5.11,0,8,3.74,8,8.78v2.05H743.81z
			 M750.37,257.51c-0.49-1.09-1.51-1.9-3.07-1.9c-1.55,0-2.57,0.81-3.06,1.9c-0.29,0.67-0.39,1.17-0.43,1.98h6.98
			C750.76,258.67,750.65,258.18,750.37,257.51z"/>
		<path class="st0" d="M769.5,257.01c-0.71-0.7-1.31-1.09-2.44-1.09c-1.4,0-2.95,1.06-2.95,3.38v11.07h-4.59v-18.37h4.47v1.76
			c0.89-1.05,2.65-1.97,4.63-1.97c1.8,0,3.06,0.46,4.33,1.72L769.5,257.01z"/>
		<path class="st0" d="M781.58,270.59c-2.9,0-5.51-0.32-7.83-2.64l3-3c1.51,1.52,3.49,1.73,4.89,1.73c1.59,0,3.24-0.54,3.24-1.9
			c0-0.92-0.49-1.56-1.93-1.69l-2.9-0.29c-3.31-0.32-5.35-1.76-5.35-5.14c0-3.81,3.35-5.85,7.08-5.85c2.86,0,5.25,0.49,7.02,2.15
			l-2.82,2.85c-1.06-0.95-2.69-1.23-4.27-1.23c-1.83,0-2.6,0.85-2.6,1.77c0,0.67,0.28,1.44,1.9,1.59l2.89,0.28
			c3.63,0.35,5.47,2.29,5.47,5.39C789.37,268.64,785.91,270.59,781.58,270.59z"/>
		<path class="st0" d="M817.52,270.38l-1.84-2.19c-1.16,0.92-2.89,2.4-6.48,2.4c-5.53,0-8.29-2.89-8.29-7.61
			c0-3.21,2.33-5.29,4.51-6.74c-1.02-1.16-2.5-2.93-2.5-5.32c0-3.42,2.5-5.86,6.7-5.86c3.95,0,6.41,2.51,6.41,5.93
			c0,1.94-1.02,3.24-2.57,4.37c0,0-1.17,0.88-1.8,1.31l4.22,5c0.81-1.09,1.2-2.61,1.27-4.41h4.34c-0.18,3.24-0.92,5.82-2.69,7.79
			l4.51,5.33H817.52z M807.89,259.05c-1.51,1.06-2.53,2.05-2.53,3.84c0,2.08,1.69,3.53,3.8,3.53c1.48,0,2.57-0.46,3.74-1.48
			L807.89,259.05z M809.62,248.98c-1.38,0-2.08,0.88-2.08,2.05c0,0.91,0.78,1.8,1.66,2.82c0.35-0.22,1.05-0.71,1.05-0.71
			c0.81-0.56,1.45-1.23,1.45-2.11C811.71,249.86,810.92,248.98,809.62,248.98z"/>
		<path class="st0" d="M840.1,256.02v14.35h-4.59v-14.35h-1.9v-3.49h1.9v-2.29c0-2.6,1.62-5.25,5.36-5.25h2.61v3.88h-1.81
			c-1.09,0-1.58,0.59-1.58,1.65v2.01h3.38v3.49H840.1z"/>
		<path class="st0" d="M856.98,257.01c-0.71-0.7-1.31-1.09-2.44-1.09c-1.4,0-2.95,1.06-2.95,3.38v11.07H847v-18.37h4.48v1.76
			c0.88-1.05,2.64-1.97,4.62-1.97c1.8,0,3.06,0.46,4.33,1.72L856.98,257.01z"/>
		<path class="st0" d="M866.62,262.62c0,2.36,1.45,4.09,4.02,4.09c2.01,0,2.99-0.57,4.16-1.73l2.78,2.72
			c-1.86,1.86-3.66,2.89-6.98,2.89c-4.34,0-8.5-1.97-8.5-9.41c0-5.99,3.25-9.38,8-9.38c5.11,0,8,3.74,8,8.78v2.05H866.62z
			 M873.18,257.51c-0.49-1.09-1.51-1.9-3.07-1.9c-1.55,0-2.57,0.81-3.06,1.9c-0.29,0.67-0.39,1.17-0.43,1.98h6.98
			C873.57,258.67,873.47,258.18,873.18,257.51z"/>
		<path class="st0" d="M885.93,262.62c0,2.36,1.45,4.09,4.02,4.09c2.01,0,2.99-0.57,4.16-1.73l2.78,2.72
			c-1.86,1.86-3.66,2.89-6.98,2.89c-4.34,0-8.5-1.97-8.5-9.41c0-5.99,3.25-9.38,8-9.38c5.11,0,8,3.74,8,8.78v2.05H885.93z
			 M892.49,257.51c-0.49-1.09-1.51-1.9-3.07-1.9c-1.55,0-2.57,0.81-3.06,1.9c-0.29,0.67-0.39,1.17-0.43,1.98h6.98
			C892.88,258.67,892.77,258.18,892.49,257.51z"/>
		<path class="st0" d="M900.37,270.38v-3.49l8.14-10.76h-7.68v-4.12h13.53v3.49l-8.25,10.76h8.25v4.12H900.37z"/>
		<path class="st0" d="M922.07,262.62c0,2.36,1.45,4.09,4.02,4.09c2.01,0,2.99-0.57,4.16-1.73l2.78,2.72
			c-1.86,1.86-3.66,2.89-6.98,2.89c-4.34,0-8.5-1.97-8.5-9.41c0-5.99,3.25-9.38,8-9.38c5.11,0,8,3.74,8,8.78v2.05H922.07z
			 M928.63,257.51c-0.49-1.09-1.51-1.9-3.07-1.9c-1.55,0-2.57,0.81-3.06,1.9c-0.29,0.67-0.39,1.17-0.43,1.98h6.98
			C929.02,258.67,928.92,258.18,928.63,257.51z"/>
		<path class="st0" d="M947.77,257.01c-0.71-0.7-1.31-1.09-2.44-1.09c-1.4,0-2.95,1.06-2.95,3.38v11.07h-4.59v-18.37h4.47v1.76
			c0.89-1.05,2.65-1.97,4.63-1.97c1.8,0,3.06,0.46,4.33,1.72L947.77,257.01z"/>
		<path class="st0" d="M959.85,270.59c-2.9,0-5.51-0.32-7.83-2.64l3-3c1.51,1.52,3.49,1.73,4.89,1.73c1.59,0,3.24-0.54,3.24-1.9
			c0-0.92-0.49-1.56-1.93-1.69l-2.9-0.29c-3.31-0.32-5.35-1.76-5.35-5.14c0-3.81,3.35-5.85,7.08-5.85c2.86,0,5.25,0.49,7.02,2.15
			l-2.82,2.85c-1.06-0.95-2.69-1.23-4.27-1.23c-1.83,0-2.6,0.85-2.6,1.77c0,0.67,0.28,1.44,1.9,1.59l2.89,0.28
			c3.63,0.35,5.47,2.29,5.47,5.39C967.64,268.64,964.18,270.59,959.85,270.59z"/>
	</g>
</g>
</svg>
