<?xml version="1.0" encoding="UTF-8"?> <svg xmlns="http://www.w3.org/2000/svg" width="228" height="29" viewBox="0 0 228 29" fill="none"> <path d="M53.9008 21.1031H42.8115L56.9895 2.38601C57.2934 1.98241 57.1921 1.377 56.787 1.0743C56.6351 0.973396 56.4325 0.872495 56.23 0.872495H35.7225C33.8996 0.872495 32.4312 2.33556 32.4312 4.15177C32.4312 5.96799 33.8996 7.43105 35.7225 7.43105H44.9382L30.7096 26.0977C30.4058 26.5013 30.4564 27.1067 30.8615 27.4094C31.0134 27.5608 31.216 27.6112 31.4691 27.6112H53.9008C55.7236 27.5103 57.0908 25.9968 56.9895 24.1806C56.9389 22.5157 55.5717 21.204 53.9008 21.1031ZM125.55 0.872495C123.727 0.872495 122.259 2.33556 122.259 4.15177V15.0995L104.536 1.0743C104.131 0.771594 103.524 0.822045 103.22 1.22565C103.068 1.377 103.017 1.62925 103.017 1.83105V24.332C103.017 26.1482 104.486 27.6112 106.309 27.6112C108.132 27.6112 109.6 26.1482 109.6 24.332V13.3842L127.323 27.4094C127.728 27.7121 128.335 27.6617 128.639 27.2581C128.791 27.1067 128.842 26.9049 128.842 26.6527V4.15177C128.842 2.33556 127.373 0.872495 125.55 0.872495ZM78.7123 21.7085C71.2182 21.7085 65.5976 17.7734 65.5976 14.2419C65.5976 10.7103 71.2182 6.7752 78.7123 6.7752C86.2064 6.7752 91.7763 10.7103 91.7763 14.2419C91.7763 17.7734 86.2064 21.7085 78.7123 21.7085ZM78.7123 0.26709C67.8762 0.26709 59.0656 6.52295 59.0656 14.2419C59.0656 21.9608 67.8762 28.2166 78.7123 28.2166C89.5483 28.2166 98.3589 21.9608 98.3589 14.2419C98.3589 6.52295 89.5483 0.26709 78.7123 0.26709ZM14.1517 21.7085C9.99958 21.7085 6.65762 18.3788 6.65762 14.2419C6.65762 10.1049 9.99958 6.7752 14.1517 6.7752C18.3038 6.7752 21.6458 10.1049 21.6458 14.2419C21.6458 18.3788 18.3038 21.7085 14.1517 21.7085ZM14.1517 0.26709C6.40444 0.26709 0.12561 6.52295 0.12561 14.2419C0.12561 21.9608 6.40444 28.2166 14.1517 28.2671C21.899 28.2671 28.1778 22.0112 28.1778 14.2923C28.2284 6.52295 21.9496 0.26709 14.1517 0.26709Z" fill="#005BFF"></path> <path d="M163.527 16.1082V17.3695C163.527 22.7172 160.135 28.0649 152.995 28.0649C146.665 28.0649 141.956 23.8271 141.956 17.2685C141.956 10.8613 146.463 6.3208 153.046 6.3208C156.59 6.3208 159.274 7.58206 161.097 9.09558L158.97 11.6685C157.603 10.4577 155.527 9.44873 152.894 9.44873C148.336 9.44873 145.349 12.7785 145.349 17.1676C145.349 21.6577 148.438 24.8361 153.096 24.8361C157.653 24.8361 159.932 21.7082 160.185 18.9334H153.603V16.0073H163.527V16.1082Z" fill="#001A34"></path> <path d="M169.148 27.6109H166.211V6.7749H169.148V27.6109Z" fill="#001A34"></path> <path d="M187.123 20.7499C187.123 24.9877 183.883 28.0652 179.579 28.0652C175.224 28.0652 172.034 24.9877 172.034 20.7499C172.034 16.512 175.275 13.4346 179.579 13.4346C183.883 13.4346 187.123 16.512 187.123 20.7499ZM175.123 20.7499C175.123 23.4742 176.946 25.24 179.579 25.24C182.212 25.24 184.035 23.4742 184.035 20.7499C184.035 18.0256 182.212 16.2598 179.579 16.2598C176.895 16.2598 175.123 18.0256 175.123 20.7499Z" fill="#001A34"></path> <path d="M192.946 25.5929H192.896V27.6109H189.959V6.7749H192.896V15.9064H192.946C193.807 14.3929 195.326 13.4344 197.605 13.4344C201.251 13.4344 204.339 16.1587 204.339 20.7497C204.339 25.3407 201.251 28.065 197.605 28.065C195.326 28.065 193.807 27.056 192.946 25.5929ZM201.2 20.7497C201.2 18.1263 199.529 16.2596 196.947 16.2596C194.364 16.2596 192.693 18.1263 192.693 20.7497C192.693 23.3731 194.364 25.2398 196.947 25.2398C199.529 25.1893 201.2 23.3731 201.2 20.7497Z" fill="#001A34"></path> <path d="M206.112 20.7499C206.112 16.1589 209.2 13.4346 212.846 13.4346C215.125 13.4346 216.644 14.3931 217.505 15.9066H217.555V13.8886H220.492V27.6616H217.555V25.6436H217.505C216.644 27.1571 215.125 28.1157 212.846 28.1157C209.2 28.0652 206.112 25.3409 206.112 20.7499ZM217.707 20.7499C217.707 18.1265 216.036 16.2598 213.454 16.2598C210.871 16.2598 209.2 18.1265 209.2 20.7499C209.2 23.3733 210.871 25.24 213.454 25.24C216.036 25.1895 217.707 23.3733 217.707 20.7499Z" fill="#001A34"></path> <path d="M227.126 27.6109H224.189V6.7749H227.126V27.6109Z" fill="#001A34"></path> </svg> 