<?xml version="1.0" encoding="utf-8"?>
<!-- Generator: Adobe Illustrator 24.0.0, SVG Export Plug-In . SVG Version: 6.00 Build 0)  -->
<svg version="1.1" id="Layer_1" xmlns="http://www.w3.org/2000/svg" xmlns:xlink="http://www.w3.org/1999/xlink" x="0px" y="0px"
	 viewBox="0 0 236.9 107.7" style="enable-background:new 0 0 236.9 107.7;" xml:space="preserve">
<style type="text/css">
	.st0{fill:#004987;}
	.st1{fill:#A2A9AD;}
</style>
<path class="st0" d="M3.1,98.2c0,0-3.1,0.9-3.1,0.8C1.8,73.5,39.3,1.1,236.9,3.3L234.4,16C234.4,16,27.4,7.6,3.1,98.2z"/>
<path class="st1" d="M0,98.9c0,0,0,3.3,0,3.3c0,0,81.5-8.6,84.8-101.9L73.9,0C73.9,0,80.4,82.6,0,98.9z"/>
<g>
	<g>
		<path class="st0" d="M110,42.6c2-0.5,5.2-0.8,8.3-0.8c2.9,0,6.2,0.5,8.5,2.1c2.2,1.4,3.5,3.7,3.5,6.8c0,4-1.8,7-4.3,8.9
			c-2.6,2-6.3,3-10.2,3c-1.1,0-2.1-0.1-2.8-0.2l-2.2,11.4H104L110,42.6z M113.9,56.9c0.8,0.1,1.5,0.2,2.6,0.2c4.1,0,6.8-2.6,6.8-5.8
			c0-3-2.2-4-4.8-4c-1.3,0-2.2,0.1-2.8,0.2L113.9,56.9z"/>
		<path class="st0" d="M129.1,73.9l6.4-33.6h6.8l-6.4,33.6H129.1z"/>
		<path class="st0" d="M160,72.6c-2.7,1.4-6.1,1.8-8.6,1.8c-6.6,0-10-3.7-10-9.8c0-7,5.1-14.4,13.5-14.4c4.7,0,8,2.6,8,7
			c0,5.9-5.7,8-15,7.8c0,0.7,0.2,1.7,0.7,2.4c0.9,1.2,2.5,1.8,4.4,1.8c2.5,0,4.6-0.6,6.5-1.5L160,72.6z M156.5,57.1
			c0-1.1-0.9-1.9-2.5-1.9c-3.2,0-5,2.6-5.4,4.8C153.8,60,156.5,59.3,156.5,57.1L156.5,57.1z"/>
		<path class="st0" d="M173.8,74.4c-5.9,0-9.8-3.8-9.8-9.6c0-8,5.6-14.6,13.8-14.6c6.2,0,9.8,4.3,9.8,9.6
			C187.6,68.2,181.8,74.4,173.8,74.4L173.8,74.4z M174.7,69.2c3.7,0,5.8-5.4,5.8-9.4c0-2.2-0.9-4.4-3.6-4.4c-3.9,0-5.9,5.7-5.9,9.3
			C171,67.4,172.4,69.2,174.7,69.2L174.7,69.2z"/>
		<path class="st0" d="M188.6,73.9l2.6-13.8c0.6-3.5,0.9-7.4,1.2-9.4h5.9c-0.1,1.6-0.2,3.1-0.4,4.8h0.2c1.6-3.1,4.2-5.3,7.3-5.3
			c0.5,0,0.9,0,1.3,0l-1.3,6.7c-0.3,0-0.7,0-1,0c-4.3,0-6.4,3.8-7.2,8.4l-1.6,8.6H188.6z"/>
		<path class="st0" d="M220.4,73.9c0-1.3,0.2-2.9,0.3-4.6h-0.1c-2.2,3.8-5.2,5.1-7.9,5.1c-4.2,0-7-3.2-7-8c0-7.8,5.2-16.1,16.6-16.1
			c2.8,0,5.7,0.5,7.6,1.1l-2.3,12.1c-0.6,3-1,7.5-0.9,10.4H220.4z M222.3,55.6c-0.5-0.1-1.1-0.2-1.8-0.2c-4.4,0-7.6,5.4-7.6,9.7
			c0,2.3,0.9,3.8,2.8,3.8c2,0,4.6-2.3,5.7-8L222.3,55.6z"/>
		<path class="st0" d="M86.1,87.9h-4.7l0.7-3.3h13.1l-0.6,3.3h-4.7l-2.7,14.4h-3.8L86.1,87.9z"/>
		<path class="st0" d="M102.3,101.5c-1.5,0.8-3.4,1-4.8,1c-3.7,0-5.6-2.1-5.6-5.4c0-3.9,2.8-8,7.5-8c2.6,0,4.5,1.5,4.5,3.9
			c0,3.2-3.2,4.4-8.3,4.3c0,0.4,0.1,0.9,0.4,1.3c0.5,0.7,1.4,1,2.5,1c1.4,0,2.6-0.3,3.6-0.8L102.3,101.5z M100.4,93
			c0-0.6-0.5-1.1-1.4-1.1c-1.8,0-2.8,1.5-3,2.6C98.9,94.6,100.4,94.2,100.4,93L100.4,93z"/>
		<path class="st0" d="M113.8,101.9c-0.8,0.4-2.1,0.7-3.6,0.7c-3.2,0-5.4-1.9-5.4-5.3c0-4.6,3.5-8.1,8.4-8.1c1.1,0,2,0.2,2.6,0.4
			l-0.9,2.9c-0.4-0.2-1-0.3-1.7-0.3c-2.7,0-4.3,2.3-4.3,4.7c0,1.8,1.1,2.7,2.5,2.7c1.1,0,1.9-0.3,2.5-0.5L113.8,101.9z"/>
		<path class="st0" d="M115.4,102.3l3.5-18.6h3.8l-1.4,7.4h0.1c1.1-1.2,2.4-1.9,4.1-1.9c2,0,3.2,1.3,3.2,3.5c0,0.6-0.1,1.6-0.2,2.3
			l-1.4,7.3h-3.8l1.3-7c0.1-0.5,0.2-1,0.2-1.6c0-0.9-0.3-1.5-1.3-1.5c-1.3,0-2.7,1.6-3.1,4.2l-1.1,5.9H115.4z"/>
		<path class="st0" d="M129.8,102.3l1.6-8.6c0.3-1.6,0.5-3,0.7-4.2h3.3l-0.2,2.1h0.1c1.2-1.7,2.8-2.4,4.5-2.4c2.1,0,3.3,1.3,3.3,3.5
			c0,0.6-0.1,1.5-0.2,2.1l-1.4,7.4h-3.8l1.3-7.1c0.1-0.4,0.1-0.9,0.1-1.4c0-0.9-0.3-1.5-1.3-1.5c-1.2,0-2.6,1.5-3.2,4.4l-1,5.7
			H129.8z"/>
		<path class="st0" d="M150.1,102.6c-3.3,0-5.5-2.1-5.5-5.3c0-4.4,3.1-8.1,7.7-8.1c3.5,0,5.4,2.4,5.4,5.3
			C157.7,99.1,154.5,102.6,150.1,102.6L150.1,102.6z M150.6,99.7c2,0,3.2-3,3.2-5.2c0-1.2-0.5-2.4-2-2.4c-2.2,0-3.3,3.1-3.3,5.1
			C148.5,98.7,149.3,99.7,150.6,99.7L150.6,99.7z"/>
		<path class="st0" d="M158.5,102.3l3.6-18.6h3.8l-3.6,18.6H158.5z"/>
		<path class="st0" d="M171,102.6c-3.3,0-5.5-2.1-5.5-5.3c0-4.4,3.1-8.1,7.7-8.1c3.5,0,5.4,2.4,5.4,5.3
			C178.6,99.1,175.4,102.6,171,102.6L171,102.6z M171.5,99.7c2,0,3.2-3,3.2-5.2c0-1.2-0.5-2.4-2-2.4c-2.2,0-3.3,3.1-3.3,5.1
			C169.4,98.7,170.2,99.7,171.5,99.7L171.5,99.7z"/>
		<path class="st0" d="M180.3,104.1c0.7,0.4,2.3,0.7,3.4,0.7c1.9,0,3.3-0.8,3.8-3.4l0.2-1.1h-0.1c-1,1.3-2.1,1.9-3.7,1.9
			c-2.5,0-4.1-2.1-4.1-4.6c0-4.2,3-8.4,8.6-8.4c1.8,0,3.4,0.3,4.7,0.9l-1.9,10.6c-0.4,2.4-1.2,4.5-2.7,5.7c-1.4,1.1-3.2,1.4-5,1.4
			c-1.7,0-3.3-0.3-4.2-0.8L180.3,104.1z M189.1,92.3c-0.3-0.1-0.8-0.2-1.4-0.2c-2.3,0-3.9,2.5-3.9,5c0,1.3,0.6,2.3,1.7,2.3
			c1.2,0,2.5-1.4,2.9-3.5L189.1,92.3z"/>
		<path class="st0" d="M193.7,102.3l2.4-12.8h3.7l-2.4,12.8H193.7z M198.5,87.8c-1.1,0-1.9-0.8-1.9-2c0-1.4,1.1-2.3,2.3-2.3
			c1.2,0,2,0.8,2,2C200.9,86.9,199.8,87.8,198.5,87.8L198.5,87.8z"/>
		<path class="st0" d="M211,101.5c-1.5,0.8-3.4,1-4.8,1c-3.7,0-5.6-2.1-5.6-5.4c0-3.9,2.8-8,7.5-8c2.6,0,4.5,1.5,4.5,3.9
			c0,3.2-3.2,4.4-8.3,4.3c0,0.4,0.1,0.9,0.4,1.3c0.5,0.7,1.4,1,2.5,1c1.4,0,2.6-0.3,3.6-0.8L211,101.5z M209.1,93
			c0-0.6-0.5-1.1-1.4-1.1c-1.8,0-2.8,1.5-3,2.6C207.6,94.6,209.1,94.2,209.1,93L209.1,93z"/>
		<path class="st0" d="M213.6,98.9c0.7,0.4,2.1,0.9,3.4,0.9c1,0,1.6-0.5,1.6-1.2c0-0.6-0.4-1.1-1.6-1.7c-1.5-0.7-2.7-1.8-2.7-3.4
			c0-2.7,2.3-4.4,5.6-4.4c1.5,0,2.7,0.3,3.3,0.7l-0.9,2.7c-0.5-0.2-1.4-0.6-2.6-0.6c-1,0-1.7,0.4-1.7,1.1c0,0.5,0.5,1,1.5,1.4
			c1.4,0.7,2.9,1.8,2.9,3.5c0,2.9-2.5,4.5-5.9,4.5c-1.6,0-3.1-0.4-3.9-1L213.6,98.9z"/>
	</g>
	<g>
		<path class="st0" d="M110,42.6c2-0.5,5.2-0.8,8.3-0.8c2.9,0,6.2,0.5,8.5,2.1c2.2,1.4,3.5,3.7,3.5,6.8c0,4-1.8,7-4.3,8.9
			c-2.6,2-6.3,3-10.2,3c-1.1,0-2.1-0.1-2.8-0.2l-2.2,11.4H104L110,42.6z M113.9,56.9c0.8,0.1,1.5,0.2,2.6,0.2c4.1,0,6.8-2.6,6.8-5.8
			c0-3-2.2-4-4.8-4c-1.3,0-2.2,0.1-2.8,0.2L113.9,56.9z"/>
		<path class="st0" d="M129.1,73.9l6.4-33.6h6.8l-6.4,33.6H129.1z"/>
		<path class="st0" d="M160,72.6c-2.7,1.4-6.1,1.8-8.6,1.8c-6.6,0-10-3.7-10-9.8c0-7,5.1-14.4,13.5-14.4c4.7,0,8,2.6,8,7
			c0,5.9-5.7,8-15,7.8c0,0.7,0.2,1.7,0.7,2.4c0.9,1.2,2.5,1.8,4.4,1.8c2.5,0,4.6-0.6,6.5-1.5L160,72.6z M156.5,57.1
			c0-1.1-0.9-1.9-2.5-1.9c-3.2,0-5,2.6-5.4,4.8C153.8,60,156.5,59.3,156.5,57.1L156.5,57.1z"/>
		<path class="st0" d="M173.8,74.4c-5.9,0-9.8-3.8-9.8-9.6c0-8,5.6-14.6,13.8-14.6c6.2,0,9.8,4.3,9.8,9.6
			C187.6,68.2,181.8,74.4,173.8,74.4L173.8,74.4z M174.7,69.2c3.7,0,5.8-5.4,5.8-9.4c0-2.2-0.9-4.4-3.6-4.4c-3.9,0-5.9,5.7-5.9,9.3
			C171,67.4,172.4,69.2,174.7,69.2L174.7,69.2z"/>
		<path class="st0" d="M188.6,73.9l2.6-13.8c0.6-3.5,0.9-7.4,1.2-9.4h5.9c-0.1,1.6-0.2,3.1-0.4,4.8h0.2c1.6-3.1,4.2-5.3,7.3-5.3
			c0.5,0,0.9,0,1.3,0l-1.3,6.7c-0.3,0-0.7,0-1,0c-4.3,0-6.4,3.8-7.2,8.4l-1.6,8.6H188.6z"/>
		<path class="st0" d="M220.4,73.9c0-1.3,0.2-2.9,0.3-4.6h-0.1c-2.2,3.8-5.2,5.1-7.9,5.1c-4.2,0-7-3.2-7-8c0-7.8,5.2-16.1,16.6-16.1
			c2.8,0,5.7,0.5,7.6,1.1l-2.3,12.1c-0.6,3-1,7.5-0.9,10.4H220.4z M222.3,55.6c-0.5-0.1-1.1-0.2-1.8-0.2c-4.4,0-7.6,5.4-7.6,9.7
			c0,2.3,0.9,3.8,2.8,3.8c2,0,4.6-2.3,5.7-8L222.3,55.6z"/>
		<path class="st0" d="M86.1,87.9h-4.7l0.7-3.3h13.1l-0.6,3.3h-4.7l-2.7,14.4h-3.8L86.1,87.9z"/>
		<path class="st0" d="M102.3,101.5c-1.5,0.8-3.4,1-4.8,1c-3.7,0-5.6-2.1-5.6-5.4c0-3.9,2.8-8,7.5-8c2.6,0,4.5,1.5,4.5,3.9
			c0,3.2-3.2,4.4-8.3,4.3c0,0.4,0.1,0.9,0.4,1.3c0.5,0.7,1.4,1,2.5,1c1.4,0,2.6-0.3,3.6-0.8L102.3,101.5z M100.4,93
			c0-0.6-0.5-1.1-1.4-1.1c-1.8,0-2.8,1.5-3,2.6C98.9,94.6,100.4,94.2,100.4,93L100.4,93z"/>
		<path class="st0" d="M113.8,101.9c-0.8,0.4-2.1,0.7-3.6,0.7c-3.2,0-5.4-1.9-5.4-5.3c0-4.6,3.5-8.1,8.4-8.1c1.1,0,2,0.2,2.6,0.4
			l-0.9,2.9c-0.4-0.2-1-0.3-1.7-0.3c-2.7,0-4.3,2.3-4.3,4.7c0,1.8,1.1,2.7,2.5,2.7c1.1,0,1.9-0.3,2.5-0.5L113.8,101.9z"/>
		<path class="st0" d="M115.4,102.3l3.5-18.6h3.8l-1.4,7.4h0.1c1.1-1.2,2.4-1.9,4.1-1.9c2,0,3.2,1.3,3.2,3.5c0,0.6-0.1,1.6-0.2,2.3
			l-1.4,7.3h-3.8l1.3-7c0.1-0.5,0.2-1,0.2-1.6c0-0.9-0.3-1.5-1.3-1.5c-1.3,0-2.7,1.6-3.1,4.2l-1.1,5.9H115.4z"/>
		<path class="st0" d="M129.8,102.3l1.6-8.6c0.3-1.6,0.5-3,0.7-4.2h3.3l-0.2,2.1h0.1c1.2-1.7,2.8-2.4,4.5-2.4c2.1,0,3.3,1.3,3.3,3.5
			c0,0.6-0.1,1.5-0.2,2.1l-1.4,7.4h-3.8l1.3-7.1c0.1-0.4,0.1-0.9,0.1-1.4c0-0.9-0.3-1.5-1.3-1.5c-1.2,0-2.6,1.5-3.2,4.4l-1,5.7
			H129.8z"/>
		<path class="st0" d="M150.1,102.6c-3.3,0-5.5-2.1-5.5-5.3c0-4.4,3.1-8.1,7.7-8.1c3.5,0,5.4,2.4,5.4,5.3
			C157.7,99.1,154.5,102.6,150.1,102.6L150.1,102.6z M150.6,99.7c2,0,3.2-3,3.2-5.2c0-1.2-0.5-2.4-2-2.4c-2.2,0-3.3,3.1-3.3,5.1
			C148.5,98.7,149.3,99.7,150.6,99.7L150.6,99.7z"/>
		<path class="st0" d="M158.5,102.3l3.6-18.6h3.8l-3.6,18.6H158.5z"/>
		<path class="st0" d="M171,102.6c-3.3,0-5.5-2.1-5.5-5.3c0-4.4,3.1-8.1,7.7-8.1c3.5,0,5.4,2.4,5.4,5.3
			C178.6,99.1,175.4,102.6,171,102.6L171,102.6z M171.5,99.7c2,0,3.2-3,3.2-5.2c0-1.2-0.5-2.4-2-2.4c-2.2,0-3.3,3.1-3.3,5.1
			C169.4,98.7,170.2,99.7,171.5,99.7L171.5,99.7z"/>
		<path class="st0" d="M180.3,104.1c0.7,0.4,2.3,0.7,3.4,0.7c1.9,0,3.3-0.8,3.8-3.4l0.2-1.1h-0.1c-1,1.3-2.1,1.9-3.7,1.9
			c-2.5,0-4.1-2.1-4.1-4.6c0-4.2,3-8.4,8.6-8.4c1.8,0,3.4,0.3,4.7,0.9l-1.9,10.6c-0.4,2.4-1.2,4.5-2.7,5.7c-1.4,1.1-3.2,1.4-5,1.4
			c-1.7,0-3.3-0.3-4.2-0.8L180.3,104.1z M189.1,92.3c-0.3-0.1-0.8-0.2-1.4-0.2c-2.3,0-3.9,2.5-3.9,5c0,1.3,0.6,2.3,1.7,2.3
			c1.2,0,2.5-1.4,2.9-3.5L189.1,92.3z"/>
		<path class="st0" d="M193.7,102.3l2.4-12.8h3.7l-2.4,12.8H193.7z M198.5,87.8c-1.1,0-1.9-0.8-1.9-2c0-1.4,1.1-2.3,2.3-2.3
			c1.2,0,2,0.8,2,2C200.9,86.9,199.8,87.8,198.5,87.8L198.5,87.8z"/>
		<path class="st0" d="M211,101.5c-1.5,0.8-3.4,1-4.8,1c-3.7,0-5.6-2.1-5.6-5.4c0-3.9,2.8-8,7.5-8c2.6,0,4.5,1.5,4.5,3.9
			c0,3.2-3.2,4.4-8.3,4.3c0,0.4,0.1,0.9,0.4,1.3c0.5,0.7,1.4,1,2.5,1c1.4,0,2.6-0.3,3.6-0.8L211,101.5z M209.1,93
			c0-0.6-0.5-1.1-1.4-1.1c-1.8,0-2.8,1.5-3,2.6C207.6,94.6,209.1,94.2,209.1,93L209.1,93z"/>
		<path class="st0" d="M213.6,98.9c0.7,0.4,2.1,0.9,3.4,0.9c1,0,1.6-0.5,1.6-1.2c0-0.6-0.4-1.1-1.6-1.7c-1.5-0.7-2.7-1.8-2.7-3.4
			c0-2.7,2.3-4.4,5.6-4.4c1.5,0,2.7,0.3,3.3,0.7l-0.9,2.7c-0.5-0.2-1.4-0.6-2.6-0.6c-1,0-1.7,0.4-1.7,1.1c0,0.5,0.5,1,1.5,1.4
			c1.4,0.7,2.9,1.8,2.9,3.5c0,2.9-2.5,4.5-5.9,4.5c-1.6,0-3.1-0.4-3.9-1L213.6,98.9z"/>
	</g>
</g>
</svg>
