<?xml version="1.0" encoding="utf-8"?>
<!-- Generator: Adobe Illustrator 24.3.0, SVG Export Plug-In . SVG Version: 6.00 Build 0)  -->
<svg version="1.1" id="Layer_1" xmlns="http://www.w3.org/2000/svg" xmlns:xlink="http://www.w3.org/1999/xlink" x="0px" y="0px"
	 viewBox="0 0 661.67 272.75" style="enable-background:new 0 0 661.67 272.75;" xml:space="preserve">
<style type="text/css">
	.st0{fill-rule:evenodd;clip-rule:evenodd;fill:#D2D3D4;}
	.st1{fill:#A8AAAD;}
	.st2{clip-path:url(#SVGID_2_);fill:url(#SVGID_3_);}
	.st3{clip-path:url(#SVGID_5_);fill:url(#SVGID_6_);}
	.st4{fill:#2075BC;}
	.st5{fill:#818285;}
</style>
<g>
	<g>
		<path class="st0" d="M3.35,148.71c5.5-16.22,60.08-33.55,126.59-33.55c66.47,0,121.02,17.32,126.58,33.52
			c0.31,0.9,7.25-15.6,0.47-28.47c-8.7-16.54-56.88-27.08-127.05-27.08c-70.17,0-118.51,10.5-127.05,27.08
			C-2.88,131.41,3.04,149.61,3.35,148.71"/>
		<path class="st1" d="M140.37,5.57c13.93-0.1,26.17,33.87,31.12,82.18c0.1,0.13,0.44,1.55,0.44,1.55l0.21-0.06
			c-4.9-49.22-17.1-84.3-31.77-84.41V5.57z"/>
		<path class="st0" d="M140.06,268.22c14.39,0,26.99-35.61,31.84-84.88c0,0-21.57,91.04-46.03,70.26l5.87,12.57L140.06,268.22z"/>
		<path class="st0" d="M140.37,5.01c14.4,0,26.68,34.99,31.54,84.28c0,0-26.16-91.04-50.62-70.26l5.88-12.57L140.37,5.01z"/>
	</g>
	<g>
		<defs>
			<path id="SVGID_1_" d="M126.72,0c-7.95,0.18-15.31,2.78-19.63,5.21c-17.43,9.81-29.18,58.74-29.18,131.21
				c0,72.46,16.06,122.57,33.77,131.19c10.93,5.33,33.4,12.93,44.34-14.92c-4.68,9.52-10,14.92-15.65,14.92
				c-18.64,0-29.17-58.73-29.17-131.19c0-72.47,10.53-131.21,29.17-131.21c6.07,0,12.08,6.23,17,17.13
				C151.34,5.46,139.56,0.26,128.52,0H126.72z"/>
		</defs>
		<clipPath id="SVGID_2_">
			<use xlink:href="#SVGID_1_"  style="overflow:visible;"/>
		</clipPath>
		
			<linearGradient id="SVGID_3_" gradientUnits="userSpaceOnUse" x1="8.6917" y1="560.334" x2="12.1044" y2="560.334" gradientTransform="matrix(0 -79.9027 -79.9027 0 44889.8359 967.3098)">
			<stop  offset="0" style="stop-color:#007E7B"/>
			<stop  offset="0.1964" style="stop-color:#096461"/>
			<stop  offset="0.4396" style="stop-color:#024442"/>
			<stop  offset="0.5979" style="stop-color:#0B635C"/>
			<stop  offset="0.8626" style="stop-color:#00AB97"/>
			<stop  offset="0.8795" style="stop-color:#00A492"/>
			<stop  offset="1" style="stop-color:#007E7B"/>
		</linearGradient>
		<rect x="77.91" y="0" class="st2" width="79.45" height="280.54"/>
	</g>
	<g>
		<defs>
			<path id="SVGID_4_" d="M257.15,120.53c-5.43,16.25-60.24,29.14-126.76,29.14c-66.47,0-122.42-12.72-127.72-29.02
				c-0.06-0.2-2.52,5.41-2.67,13.08v1.54c0.09,4.31,0.95,9.17,3.34,13.95c8.36,16.71,56.88,31.66,127.05,31.66
				c70.16,0,119.08-14.82,127.05-31.66c6.26-13.24,0.01-28.69-0.28-28.69C257.15,120.53,257.15,120.53,257.15,120.53"/>
		</defs>
		<clipPath id="SVGID_5_">
			<use xlink:href="#SVGID_4_"  style="overflow:visible;"/>
		</clipPath>
		
			<linearGradient id="SVGID_6_" gradientUnits="userSpaceOnUse" x1="13.5535" y1="556.0863" x2="16.9661" y2="556.0863" gradientTransform="matrix(76.2667 0 0 -76.2667 -1033.678 42561.5312)">
			<stop  offset="0" style="stop-color:#123C64"/>
			<stop  offset="0.0934" style="stop-color:#02629A"/>
			<stop  offset="0.1817" style="stop-color:#11679F"/>
			<stop  offset="0.3338" style="stop-color:#2676AA"/>
			<stop  offset="0.5301" style="stop-color:#4092C1"/>
			<stop  offset="0.7253" style="stop-color:#5AB7DE"/>
			<stop  offset="0.7832" style="stop-color:#3E90BF"/>
			<stop  offset="0.8359" style="stop-color:#2575AA"/>
			<stop  offset="0.8768" style="stop-color:#10679E"/>
			<stop  offset="0.9011" style="stop-color:#02629A"/>
			<stop  offset="1" style="stop-color:#123C64"/>
		</linearGradient>
		<rect y="120.45" class="st3" width="263.7" height="60.43"/>
	</g>
</g>
<path class="st4" d="M319.75,119.21h-7.25v11.74h-6.42V94.43h14.4c8.5,0,13.88,4.8,13.88,12.26
	C334.37,114.94,327.79,119.21,319.75,119.21 M319.97,100.28h-7.46v13.15h7.46c4.85,0,7.88-2.66,7.88-6.57
	C327.85,102.52,324.77,100.28,319.97,100.28"/>
<path class="st4" d="M364.37,130.96l-8.98-12.73h-8.04v12.73h-6.42V94.43h16.28c8.4,0,13.57,4.44,13.57,11.59
	c0,6.05-3.59,9.7-8.71,11.11l9.87,13.83H364.37z M356.69,100.28h-9.34v12.26h9.39c4.6,0,7.51-2.4,7.51-6.16
	C364.26,102.37,361.44,100.28,356.69,100.28"/>
<polygon class="st4" points="405.74,100.17 385.08,100.17 385.08,109.67 403.38,109.67 403.38,115.41 385.08,115.41 385.08,125.22 
	405.99,125.22 405.99,130.96 378.66,130.96 378.66,94.43 405.74,94.43 "/>
<polygon class="st4" points="431.56,121.98 431.35,121.98 419.92,104.87 419.92,130.96 413.61,130.96 413.61,94.43 420.44,94.43 
	431.56,111.7 442.67,94.43 449.5,94.43 449.5,130.96 443.08,130.96 443.08,104.77 "/>
<rect x="459.26" y="94.43" class="st4" width="6.41" height="36.52"/>
<polygon class="st4" points="502.51,100.17 481.84,100.17 481.84,109.67 500.15,109.67 500.15,115.41 481.84,115.41 481.84,125.22 
	502.76,125.22 502.76,130.96 475.42,130.96 475.42,94.43 502.51,94.43 "/>
<path class="st4" d="M533.81,130.96l-8.98-12.73h-8.03v12.73h-6.42V94.43h16.27c8.4,0,13.57,4.44,13.57,11.59
	c0,6.05-3.6,9.7-8.71,11.11l9.85,13.83H533.81z M526.14,100.28h-9.34v12.26h9.39c4.59,0,7.51-2.4,7.51-6.16
	C533.7,102.37,530.88,100.28,526.14,100.28"/>
<polygon class="st5" points="334.04,143.19 338.47,143.19 322.77,179.95 319.12,179.95 303.42,143.19 308.02,143.19 321,174.63 "/>
<polygon class="st5" points="368.91,146.94 346.65,146.94 346.65,159.4 366.57,159.4 366.57,163.16 346.65,163.16 346.65,175.93 
	369.17,175.93 369.17,179.69 342.53,179.69 342.53,143.18 368.91,143.18 "/>
<polygon class="st5" points="388.15,179.69 383.98,179.69 383.98,146.99 371.72,146.99 371.72,143.18 400.41,143.18 400.41,146.99 
	388.15,146.99 "/>
<path class="st5" d="M454.08,179.79h-4.43l-4.28-9.65H425.5l-4.33,9.65h-4.22l16.64-36.77h3.85L454.08,179.79z M435.46,147.82
	l-8.34,18.62h16.64L435.46,147.82z"/>
<path class="st5" d="M559.98,179.79h-4.43l-4.28-9.65H531.4l-4.33,9.65h-4.22l16.64-36.77h3.85L559.98,179.79z M541.36,147.82
	l-8.34,18.62h16.64L541.36,147.82z"/>
<polygon class="st5" points="461.73,175.71 481.88,175.71 481.88,179.83 457.6,179.83 457.61,179.83 457.61,143.32 461.73,143.32 
	"/>
<polygon class="st5" points="490.66,175.71 510.8,175.71 510.8,179.83 486.53,179.83 486.54,179.83 486.54,143.32 490.66,143.32 "/>
<rect x="514.4" y="143.33" class="st5" width="4.12" height="36.51"/>
<polygon class="st5" points="589.7,143.33 593.72,143.33 593.72,179.83 590.43,179.83 566.87,149.9 566.87,179.83 562.84,179.83 
	562.84,143.33 566.71,143.33 589.7,172.58 "/>
<path class="st5" d="M627.65,172.12c-2.53,2.79-6.15,4.53-10.4,4.53c-8.35,0-14.39-6.77-14.39-15.12c0-8.34,5.94-15.02,14.29-15.02
	c3.75,0,7.03,1.38,9.52,3.64l3.91-1.96c-3.25-3.37-7.83-5.49-13.32-5.49c-11.11,0-18.67,8.82-18.67,18.93
	c0,10.12,7.45,18.83,18.56,18.83c5.98,0,10.92-2.57,14.21-6.51L627.65,172.12z"/>
<polygon class="st5" points="661.41,147.08 639.14,147.08 639.14,159.55 659.07,159.55 659.07,163.3 639.14,163.3 639.14,176.08 
	661.67,176.08 661.67,179.83 635.02,179.83 635.02,143.33 661.41,143.33 "/>
<path class="st4" d="M-476.25,93.71h-7.25v11.74h-6.42V68.93h14.4c8.5,0,13.88,4.8,13.88,12.26
	C-461.63,89.44-468.21,93.71-476.25,93.71 M-476.03,74.78h-7.46v13.15h7.46c4.85,0,7.88-2.66,7.88-6.57
	C-468.15,77.02-471.23,74.78-476.03,74.78"/>
<path class="st4" d="M-431.63,105.46l-8.98-12.73h-8.04v12.73h-6.42V68.93h16.28c8.4,0,13.57,4.44,13.57,11.59
	c0,6.05-3.59,9.7-8.71,11.11l9.87,13.83H-431.63z M-439.31,74.78h-9.34v12.26h9.39c4.6,0,7.51-2.4,7.51-6.16
	C-431.74,76.86-434.56,74.78-439.31,74.78"/>
<polygon class="st4" points="-390.26,74.67 -410.92,74.67 -410.92,84.17 -392.62,84.17 -392.62,89.91 -410.92,89.91 -410.92,99.71 
	-390.01,99.71 -390.01,105.45 -417.34,105.45 -417.34,68.93 -390.26,68.93 "/>
<polygon class="st4" points="-364.44,96.48 -364.65,96.48 -376.08,79.37 -376.08,105.45 -382.39,105.45 -382.39,68.93 
	-375.56,68.93 -364.44,86.2 -353.33,68.93 -346.5,68.93 -346.5,105.45 -352.92,105.45 -352.92,79.27 "/>
<rect x="-336.74" y="68.93" class="st4" width="6.41" height="36.52"/>
<polygon class="st4" points="-293.49,74.67 -314.16,74.67 -314.16,84.17 -295.85,84.17 -295.85,89.91 -314.16,89.91 -314.16,99.71 
	-293.24,99.71 -293.24,105.45 -320.58,105.45 -320.58,68.93 -293.49,68.93 "/>
<path class="st4" d="M-262.19,105.46l-8.98-12.73h-8.03v12.73h-6.42V68.93h16.27c8.4,0,13.57,4.44,13.57,11.59
	c0,6.05-3.6,9.7-8.71,11.11l9.85,13.83H-262.19z M-269.86,74.78h-9.34v12.26h9.39c4.59,0,7.51-2.4,7.51-6.16
	C-262.3,76.86-265.12,74.78-269.86,74.78"/>
<polygon class="st5" points="-461.96,117.68 -457.53,117.68 -473.23,154.45 -476.88,154.45 -492.58,117.68 -487.98,117.68 
	-475,149.13 "/>
<polygon class="st5" points="-427.09,121.44 -449.35,121.44 -449.35,133.9 -429.43,133.9 -429.43,137.65 -449.35,137.65 
	-449.35,150.43 -426.83,150.43 -426.83,154.18 -453.47,154.18 -453.47,117.68 -427.09,117.68 "/>
<polygon class="st5" points="-407.85,154.19 -412.02,154.19 -412.02,121.49 -424.28,121.49 -424.28,117.68 -395.59,117.68 
	-395.59,121.49 -407.85,121.49 "/>
<path class="st5" d="M-477.11,190.32h-8.87v12.87h-4.13v-36.5h13.67c8.24,0,13.66,4.38,13.66,11.63
	C-462.78,186.24-469.34,190.32-477.11,190.32 M-476.75,170.49h-9.23v16.06h9.02c6.05,0,10.02-3.23,10.02-8.09
	C-466.94,173.21-470.86,170.49-476.75,170.49"/>
<polygon class="st5" points="-453.22,199.02 -433.08,199.02 -433.08,203.14 -457.35,203.14 -457.34,203.14 -457.34,166.64 
	-453.22,166.64 "/>
<path class="st5" d="M-401.19,195.48c-2.53,2.79-6.15,4.53-10.4,4.53c-8.35,0-14.39-6.77-14.39-15.12c0-8.34,5.94-15.02,14.29-15.02
	c3.75,0,7.03,1.38,9.52,3.64l3.91-1.96c-3.25-3.37-7.83-5.5-13.32-5.5c-11.11,0-18.67,8.82-18.67,18.93
	c0,10.12,7.45,18.83,18.56,18.83c5.98,0,10.92-2.57,14.21-6.5L-401.19,195.48z"/>
<path class="st5" d="M-341.92,154.29h-4.43l-4.28-9.65h-19.87l-4.33,9.65h-4.22l16.64-36.76h3.85L-341.92,154.29z M-360.54,122.32
	l-8.34,18.62h16.64L-360.54,122.32z"/>
<path class="st5" d="M-236.02,154.29h-4.43l-4.28-9.65h-19.87l-4.33,9.65h-4.22l16.64-36.76h3.85L-236.02,154.29z M-254.64,122.32
	l-8.34,18.62h16.64L-254.64,122.32z"/>
<polygon class="st5" points="-334.27,150.21 -314.12,150.21 -314.12,154.33 -338.4,154.33 -338.39,154.33 -338.39,117.82 
	-334.27,117.82 "/>
<polygon class="st5" points="-305.34,150.21 -285.2,150.21 -285.2,154.33 -309.47,154.33 -309.46,154.33 -309.46,117.82 
	-305.34,117.82 "/>
<rect x="-281.6" y="117.82" class="st5" width="4.12" height="36.5"/>
<polygon class="st5" points="-206.3,117.83 -202.28,117.83 -202.28,154.33 -205.57,154.33 -229.13,124.4 -229.13,154.33 
	-233.16,154.33 -233.16,117.83 -229.29,117.83 -206.3,147.08 "/>
<path class="st5" d="M-168.35,146.62c-2.53,2.79-6.15,4.53-10.4,4.53c-8.35,0-14.39-6.77-14.39-15.12c0-8.34,5.94-15.02,14.29-15.02
	c3.75,0,7.03,1.38,9.52,3.64l3.91-1.96c-3.25-3.37-7.83-5.5-13.32-5.5c-11.11,0-18.67,8.82-18.67,18.93
	c0,10.12,7.45,18.83,18.56,18.83c5.98,0,10.92-2.57,14.21-6.5L-168.35,146.62z"/>
<polygon class="st5" points="-134.59,121.58 -156.86,121.58 -156.86,134.05 -136.93,134.05 -136.93,137.8 -156.86,137.8 
	-156.86,150.58 -134.33,150.58 -134.33,154.33 -160.98,154.33 -160.98,117.83 -134.59,117.83 "/>
</svg>
