<svg width="293" height="45" viewBox="0 0 293 45" fill="none" xmlns="http://www.w3.org/2000/svg">
<path d="M61.0651 22.0873H57.0895V14.3694H61.2242C63.7685 14.3694 65.1998 15.6557 65.1998 18.0676C65.0407 20.801 63.6095 22.0873 61.0651 22.0873ZM61.7012 8.7417H51.5237V36.8801H57.0895V27.715H61.7012C67.1081 27.715 70.7656 23.6952 70.7656 18.2283C70.7656 12.7615 67.1081 8.7417 61.7012 8.7417Z" fill="white"/>
<path d="M86.6681 17.7462C86.6681 20.158 85.3959 21.4444 83.1696 21.4444H79.0349V14.2088H82.2154C84.2827 14.2088 84.7598 14.3696 85.2369 14.6911C86.191 15.1735 86.6681 16.2991 86.6681 17.7462ZM88.2583 25.1425C90.8027 23.8562 92.393 20.962 92.393 17.5854C92.393 13.8872 90.4847 10.8322 87.4632 9.54585C86.35 9.22427 85.0778 9.06348 82.2154 9.06348H73.3101V37.0411H78.8759V26.7504H82.6925L88.0993 37.0411H94.4603L88.0993 25.4641C88.4174 25.3033 88.2583 25.1425 88.2583 25.1425Z" fill="white"/>
<path d="M142.486 9.06348L135.807 28.0368V28.1976V28.0368L129.128 9.06348H123.085L133.262 37.0411H138.351L146.62 14.2088H148.37V37.0411H165.862V31.8958H153.935V25.6249H163.159V20.3188H153.935V14.2088H173.654V37.0411H179.22V14.2088H187.967V9.06348H142.486Z" fill="white"/>
<path d="M117.678 26.5896C117.678 27.3936 117.042 28.3583 116.406 28.6799L110.045 32.3781C109.409 32.6997 108.295 32.6997 107.5 32.3781L101.298 28.6799C100.662 28.3583 100.026 27.2328 100.026 26.5896V19.354C100.026 18.5501 100.503 17.5853 101.298 17.2638L107.5 13.5656C108.136 13.244 109.25 13.244 110.045 13.5656L116.406 17.2638C117.042 17.5853 117.678 18.7109 117.678 19.354V26.5896ZM108.931 8.58105C100.98 8.58105 94.7783 14.8519 94.7783 22.8914C94.7783 31.0917 100.98 37.5234 108.931 37.5234C116.883 37.5234 123.085 31.0917 123.085 22.8914C123.085 14.8519 116.883 8.58105 108.931 8.58105Z" fill="white"/>
<path d="M207.526 9.06348C213.887 9.06348 217.227 12.6009 217.227 12.6009L215.478 15.4951C215.478 15.4951 212.297 12.6009 207.685 12.6009C201.643 12.6009 197.826 17.2638 197.826 22.8915C197.826 28.6799 201.802 33.5037 207.685 33.5037C212.774 33.5037 215.955 29.9663 215.955 29.9663L218.022 32.6997C218.022 32.6997 214.364 37.0411 207.685 37.0411C199.734 37.0411 194.009 30.7702 194.009 22.8915C194.009 15.0127 199.893 9.06348 207.526 9.06348Z" fill="white"/>
<path d="M221.362 9.54565H225.019V30.6092C225.019 33.0211 225.973 33.3427 227.086 33.3427C227.405 33.3427 227.723 33.3427 227.723 33.3427V36.5585C227.723 36.5585 227.086 36.5585 226.45 36.5585C224.383 36.5585 221.362 35.9153 221.362 31.0916V9.54565V9.54565Z" fill="white"/>
<path d="M239.808 33.8253C243.466 33.8253 246.328 30.9311 246.328 26.9113C246.328 22.8915 243.307 19.9973 239.808 19.9973C236.151 19.9973 233.288 22.8915 233.288 26.9113C233.288 30.9311 236.31 33.8253 239.808 33.8253ZM239.808 16.7815C245.533 16.7815 250.145 20.9621 250.145 26.9113C250.145 32.8606 245.533 37.0411 239.808 37.0411C234.084 37.0411 229.472 32.6998 229.472 26.9113C229.472 20.9621 234.084 16.7815 239.808 16.7815Z" fill="white"/>
<path d="M253.484 17.103H257.142V28.68C257.142 31.4134 257.619 33.5037 260.8 33.5037C264.775 33.5037 267.001 29.9663 267.001 26.2681V17.103H270.659V36.5587H267.16V33.986C267.16 33.1821 267.16 32.5389 267.16 32.5389C266.365 34.4684 263.821 37.0411 260.163 37.0411C255.87 37.0411 253.643 34.79 253.643 29.6447V17.103H253.484Z" fill="white"/>
<path d="M283.699 33.825C286.562 33.825 289.265 31.7348 289.265 26.911C289.265 23.5344 287.516 19.997 283.858 19.997C280.837 19.997 278.292 22.5697 278.292 26.911C278.133 31.0916 280.519 33.825 283.699 33.825ZM283.063 16.7812C287.516 16.7812 288.947 19.8363 288.947 19.8363C288.947 19.8363 288.947 19.1931 288.947 18.5499V9.54565H292.605V36.5585H289.106V34.7898C289.106 33.9858 289.106 33.5035 289.106 33.5035C289.106 33.5035 287.516 37.0409 282.745 37.0409C277.497 37.0409 274.317 32.8603 274.317 26.911C274.476 20.6402 278.133 16.7812 283.063 16.7812Z" fill="white"/>
<path d="M20.9911 18.0676H15.7433V25.6248H20.9911C23.5355 25.6248 24.8077 24.3385 24.8077 21.7658C24.8077 19.1932 23.3764 18.0676 20.9911 18.0676Z" fill="white"/>
<path d="M21.4683 30.77H17.1746L9.54145 38.9703V13.4046H21.6273C26.8751 13.4046 30.5326 16.7812 30.5326 22.0873C30.3736 27.3934 26.7161 30.77 21.4683 30.77ZM37.3707 9.86724L22.8995 1.66692C21.3092 0.702173 18.7649 0.702173 17.1746 1.66692L2.86243 9.86724C1.43122 10.832 0 13.0831 0 14.8518V31.2524C0 33.0211 1.43122 35.2722 3.02146 36.0761L17.4927 44.2764C19.0829 45.2412 21.6273 45.2412 23.2175 44.2764L37.5297 36.0761C39.1199 35.1114 40.5512 33.0211 40.5512 31.2524V14.8518C40.3921 13.0831 38.9609 10.832 37.3707 9.86724Z" fill="white"/>
</svg>
