<?xml version="1.0" encoding="utf-8"?>
<!-- Generator: Adobe Illustrator 16.0.0, SVG Export Plug-In . SVG Version: 6.00 Build 0)  -->
<!DOCTYPE svg PUBLIC "-//W3C//DTD SVG 1.1//EN" "http://www.w3.org/Graphics/SVG/1.1/DTD/svg11.dtd">
<svg version="1.1" id="Layer_1" xmlns="http://www.w3.org/2000/svg" xmlns:xlink="http://www.w3.org/1999/xlink" x="0px" y="0px"
	 width="311px" height="100px" viewBox="9.001 0 311 100" enable-background="new 9.001 0 311 100" xml:space="preserve">
<rect x="9.001" y="6.835" fill="#306799" width="71.977" height="64.998"/>
<path fill="#FFFFFF" d="M67.067,62.001H54.859c-2.705-4.238-5.145-7.901-7.327-10.989c-2.18-3.089-4.548-6.274-7.101-9.555h-4.643
	v14.377c0,0.746,0.117,1.399,0.353,1.963c0.233,0.567,0.734,0.997,1.501,1.297c0.383,0.146,1.056,0.287,2.013,0.412
	c0.96,0.13,1.768,0.206,2.429,0.226v2.268H22.913v-2.268c0.512-0.041,1.251-0.114,2.22-0.226c0.97-0.102,1.646-0.242,2.03-0.412
	c0.64-0.278,1.102-0.683,1.389-1.216c0.288-0.532,0.432-1.214,0.432-2.044v-32.78c0-0.745-0.107-1.405-0.319-1.98
	c-0.213-0.575-0.714-1.01-1.501-1.311c-0.533-0.192-1.225-0.365-2.077-0.526c-0.853-0.16-1.576-0.261-2.172-0.305v-2.267h20.928
	c1.917,0,3.716,0.197,5.399,0.591c1.682,0.394,3.205,1.027,4.568,1.9c1.32,0.852,2.374,1.966,3.164,3.338
	c0.788,1.375,1.182,3.032,1.182,4.968c0,1.747-0.266,3.29-0.799,4.632c-0.532,1.342-1.321,2.505-2.364,3.483
	c-0.958,0.917-2.109,1.711-3.451,2.383c-1.341,0.671-2.822,1.24-4.442,1.708c2.237,2.96,4.096,5.453,5.576,7.476
	c1.479,2.024,3.295,4.486,5.448,7.378c0.936,1.278,1.784,2.222,2.54,2.828c0.755,0.609,1.507,1.103,2.253,1.485
	c0.553,0.279,1.246,0.493,2.076,0.641c0.831,0.147,1.524,0.235,2.077,0.254V62.001z M50.263,28.214c0-2.744-0.789-4.918-2.365-6.522
	c-1.576-1.605-3.802-2.41-6.678-2.41h-5.432V38.71h4.186c2.939,0,5.389-0.942,7.349-2.823
	C49.282,34.007,50.263,31.449,50.263,28.214z"/>
<rect x="88.676" y="6.835" fill="#198E64" width="71.976" height="64.998"/>
<path fill="#FFFFFF" d="M148.018,62.321h-18.844v-2.267c1.66-0.106,3.04-0.321,4.136-0.641c1.096-0.317,1.645-0.714,1.645-1.181
	c0-0.19-0.021-0.428-0.062-0.703c-0.042-0.277-0.106-0.521-0.191-0.734l-3.755-10.162h-15.915c-0.598,1.492-1.082,2.79-1.457,3.899
	c-0.374,1.106-0.709,2.13-1.008,3.066c-0.277,0.914-0.469,1.662-0.576,2.236c-0.107,0.576-0.16,1.045-0.16,1.405
	c0,0.853,0.672,1.514,2.013,1.979c1.341,0.471,2.854,0.747,4.538,0.834v2.267h-17.074v-2.267c0.553-0.043,1.246-0.167,2.075-0.368
	c0.832-0.203,1.512-0.474,2.045-0.817c0.853-0.574,1.513-1.175,1.981-1.803c0.468-0.631,0.927-1.5,1.374-2.605
	c2.279-5.687,4.792-12.078,7.54-19.17c2.748-7.093,5.196-13.406,7.35-18.947h2.554l15.113,39.108c0.32,0.83,0.682,1.501,1.087,2.013
	c0.404,0.51,0.968,1.01,1.693,1.502c0.49,0.298,1.129,0.549,1.917,0.749c0.788,0.203,1.448,0.315,1.981,0.337v2.269H148.018z
	 M129.778,43.791l-6.866-17.594l-6.77,17.594H129.778z"/>
<rect x="168.349" y="6.835" fill="#306799" width="71.976" height="64.998"/>
<path fill="#FFFFFF" d="M232.422,62.001H212.39v-2.269c0.723-0.019,1.655-0.095,2.796-0.225c1.139-0.125,1.921-0.307,2.347-0.541
	c0.66-0.403,1.146-0.869,1.453-1.39c0.309-0.523,0.465-1.177,0.465-1.966V22.64h-0.479l-15.465,38.627h-1.599L187.179,21.84h-0.416
	v27.062c0,2.618,0.166,4.611,0.496,5.976c0.33,1.359,0.835,2.341,1.516,2.937c0.471,0.447,1.441,0.874,2.909,1.279
	c1.471,0.404,2.43,0.618,2.876,0.637v2.268h-18.306V59.73c0.958-0.084,1.963-0.244,3.019-0.48c1.054-0.23,1.868-0.585,2.443-1.052
	c0.747-0.598,1.255-1.514,1.534-2.747c0.276-1.234,0.415-3.303,0.415-6.199V26.058c0-1.342-0.159-2.438-0.479-3.292
	c-0.32-0.852-0.778-1.544-1.374-2.075c-0.662-0.576-1.47-1.002-2.428-1.278c-0.96-0.275-1.908-0.436-2.844-0.48v-2.267h15.457
	l12.987,34.028l11.085-28.467c0.404-1.042,0.751-2.136,1.037-3.274c0.287-1.141,0.443-1.903,0.463-2.286h14.783v2.267
	c-0.594,0.022-1.357,0.118-2.284,0.289c-0.926,0.171-1.604,0.331-2.028,0.479c-0.726,0.254-1.214,0.681-1.47,1.278
	s-0.384,1.245-0.384,1.949v32.684c0,0.746,0.128,1.374,0.384,1.884c0.256,0.513,0.744,0.958,1.47,1.34
	c0.383,0.216,1.065,0.413,2.045,0.594c0.981,0.183,1.759,0.283,2.332,0.303v2.27H232.422z"/>
<rect x="248.025" y="6.835" fill="#198E64" width="71.976" height="64.998"/>
<path fill="#FFFFFF" d="M301.475,27.846c0,2.365-0.464,4.457-1.392,6.279c-0.926,1.824-2.21,3.33-3.85,4.521
	c-1.619,1.193-3.397,2.068-5.335,2.62c-1.938,0.556-3.996,0.831-6.167,0.831h-5.082v13.74c0,0.745,0.122,1.399,0.369,1.963
	c0.244,0.565,0.751,0.995,1.517,1.296c0.384,0.147,1.062,0.288,2.031,0.413c0.969,0.129,1.857,0.206,2.666,0.225v2.269h-19.457
	v-2.269c0.511-0.041,1.249-0.115,2.22-0.225c0.969-0.104,1.646-0.243,2.029-0.413c0.64-0.277,1.103-0.684,1.391-1.216
	s0.43-1.214,0.43-2.043V23.119c0-0.745-0.104-1.416-0.315-2.012c-0.214-0.597-0.715-1.043-1.505-1.343
	c-0.81-0.274-1.612-0.471-2.41-0.589s-1.486-0.197-2.061-0.242v-2.267h20.702c4.219,0,7.642,1.016,10.272,3.051
	C300.157,21.751,301.475,24.461,301.475,27.846z M291.76,35.579c0.725-1.021,1.203-2.081,1.438-3.179
	c0.234-1.096,0.352-2.08,0.352-2.955c0-1.216-0.142-2.448-0.431-3.708c-0.289-1.254-0.783-2.351-1.486-3.289
	c-0.745-1.003-1.726-1.78-2.938-2.334c-1.216-0.553-2.728-0.832-4.539-0.832h-4.506v20.032h3.261c2.301,0,4.17-0.356,5.606-1.068
	C289.955,37.534,291.036,36.644,291.76,35.579z"/>
<rect x="9.001" y="79.249" fill="#306799" width="71.977" height="12.41"/>
<rect x="88.676" y="79.249" fill="#198E64" width="71.976" height="12.41"/>
<rect x="168.349" y="79.249" fill="#306799" width="71.976" height="12.41"/>
<rect x="247.324" y="79.249" fill="#198E64" width="72.677" height="12.41"/>
</svg>
