<svg id="Layer_1" xmlns="http://www.w3.org/2000/svg" viewBox="0 0 129 24"><style>.st0{fill:#595A5C;}</style><path class="st0" d="M25.93 22.1v-.9h-.38v-.13h.93v.12h-.4v.9h-.15zm.7 0h.15v-.88l.34.9h.15l.34-.88v.87h.16v-1.03h-.2l-.3.72-.06.16-.05-.15-.28-.73h-.24v1.04zM12.46 6.8h1.17c.36 0 1.96.18 1.96 2.08 0 1.1-1.03 1.85-1.97 1.9-1.03.06-1.17 0-1.17 0v4.6c0 .47 3.5 6.73 3.5 6.73h9.16l-6.16-8.2c1.27 0 4.3-1.4 4.3-5.56 0-4.17-3.92-7.17-7.44-7.17h-3.36V6.8zM10.5 20.57v1.54h1.53v-1.53H10.5zm0-1.94v1.54h1.53v-1.54H10.5zm0-1.94v1.53h1.53V16.7H10.5zm0-1.95v1.54h1.53v-1.55H10.5zm0-1.94v1.55h1.53V12.8H10.5zm0-1.93v1.54h1.53v-1.53H10.5zm0-1.94v1.54h1.53V8.93H10.5zm0-1.94v1.53h1.53V7H10.5zm0-1.95V6.6h1.53V5.04H10.5zm0-1.94v1.55h1.53V3.1H10.5zm0-1.93V2.7h1.53V1.18H10.5zm-1.96 19.4v1.54h1.54v-1.53H8.54zm0-1.94v1.54h1.54v-1.54H8.54zm0-1.94v1.53h1.54V16.7H8.54zm0-1.95v1.54h1.54v-1.55H8.54zm0-1.94v1.55h1.54V12.8H8.54zm0-1.93v1.54h1.54v-1.53H8.54zm0-1.94v1.54h1.54V8.93H8.54zm0-1.94v1.53h1.54V7H8.54zm0-1.95V6.6h1.54V5.04H8.54zm0-1.94v1.55h1.54V3.1H8.54zm0-1.93V2.7h1.54V1.18H8.54zM6.6 20.57v1.54H8.1v-1.53H6.6zm0-1.94v1.54H8.1v-1.54H6.6zm0-1.94v1.53H8.1V16.7H6.6zm0-1.95v1.54H8.1v-1.55H6.6zm0-1.94v1.55H8.1V12.8H6.6zm0-1.93v1.54H8.1v-1.53H6.6zm0-1.94v1.54H8.1V8.93H6.6zM6.6 7v1.53H8.1V7H6.6zM4.62 20.56v1.54h1.54v-1.53H4.63zm0-1.94v1.54h1.54v-1.54H4.63zm0-1.94v1.53h1.54V16.7H4.63zm0-1.95v1.54h1.54v-1.55H4.63zm0-1.94v1.55h1.54V12.8H4.63zm0-1.93v1.54h1.54v-1.53H4.63zm0-1.94v1.54h1.54V8.93H4.63zm0-1.94v1.53h1.54V7H4.63zm0-1.95V6.6h1.54V5.04H4.63zm0-1.94v1.55h1.54V3.1H4.63zm0-1.93V2.7h1.54V1.18H4.63zM6.6 5.05V6.6H8.1V5.04H6.6zm-3.93 0V6.6H4.2V5.04H2.68zm-1.02 0L.7 6.47v.12h1.55V5.04h-.6zM6.6 3.1v1.55H8.1V3.1H6.6zm-3.67 0l-.26.4v1.15H4.2V3.1H2.93zm-.68 1.04l-.34.5h.35v-.5zM6.6 1.17V2.7H8.1V1.18H6.6zm-2.4 0l-1 1.54h1V1.18zM33 18.4v.85l.9-.17v-.42c0-.42-.06-.7-.2-.85-.13-.14-.4-.22-.77-.22h-2.36c-.4 0-.65.08-.78.23-.15.16-.2.44-.2.86v2.38c0 .42.05.7.2.85.12.14.38.2.77.2h2.36c.38 0 .64-.06.77-.2.14-.16.2-.44.2-.86v-.54l-.9-.2v.96h-2.5V18.4H33zm3.23 3v-2.3h2.6v2.3h-2.6zm-.8-2.12v1.95c0 .34.06.57.18.7.12.12.34.18.68.18h2.5c.33 0 .55-.05.67-.17.12-.12.17-.36.17-.7v-1.95c0-.34-.05-.57-.17-.7-.1-.12-.33-.18-.67-.18h-2.5c-.34 0-.56.06-.67.2-.1.1-.16.34-.16.68zM41 22.1h.7v-2.5l2.75 2.5H45v-3.7h-.72v2.47l-2.75-2.47H41v3.7zm8.44-3.03v.4l.68-.17v-.1c0-.3-.06-.5-.18-.62s-.34-.18-.67-.18h-1.93c-.33 0-.55.07-.67.2-.12.1-.18.34-.18.68v.4c0 .35.05.58.17.7.12.13.34.2.67.2h2.1v.84h-2.38v-.44l-.7.15v.1c0 .35.06.58.17.7.12.12.35.18.68.18h2.12c.32 0 .55-.05.66-.17.12-.12.18-.36.18-.7v-.5c0-.35-.06-.58-.17-.7-.13-.12-.35-.18-.68-.18h-2.1v-.78h2.22zm2.87-.67h-.78v2.83c0 .34.06.58.18.7.1.12.33.18.66.18h2.15c.34 0 .57-.05.68-.18.12-.12.18-.35.18-.7V18.4h-.8v3.02h-2.25V18.4zm4.5 3.7h3.34v-.68H57.6V18.4h-.8v3.7zm5.32-3.03h1.56v-.67h-3.92v.67h1.57v3.04h.8v-3.03zm2.6 3.04h.77v-3.7h-.8v3.7zm2.2 0h.73v-2.5l2.74 2.5h.54v-3.7h-.7v2.47l-2.76-2.47h-.55v3.7zm8.64-3.02v.4l.78-.15v-.1c0-.3-.06-.53-.18-.65-.1-.12-.34-.18-.66-.18h-2.35c-.33 0-.55.07-.67.2-.1.1-.17.34-.17.68v1.96c0 .34.07.57.18.7.12.1.34.17.67.17h2.35c.33 0 .55-.05.66-.17.12-.12.18-.35.18-.7v-1.28h-2.06v.66h1.28v.8H73.1v-2.32h2.46zm9.1-.7v.52l.9-.18v-.1c0-.4-.08-.66-.22-.8-.14-.16-.4-.24-.77-.24h-2.73c-.38 0-.64.08-.78.23-.13.16-.2.44-.2.86v2.38c0 .42.07.7.2.85.14.14.4.2.78.2h2.73c.38 0 .64-.06.78-.2.13-.16.2-.44.2-.86v-1.56h-2.4v.77h1.5v1h-2.87V18.4h2.87zm5.12.66c.14 0 .24.03.3.07.04.06.06.13.06.24v.43c0 .1-.02.18-.07.23-.05.05-.15.07-.3.07h-1.8v-1.03h1.8zM87.2 22.1h.78v-1.4h.74l1.36 1.4h1.14l-1.54-1.4h.44c.27 0 .46-.05.58-.16.12-.1.18-.3.18-.55v-.88c0-.25-.06-.44-.18-.55-.12-.1-.3-.17-.58-.17H87.2v3.7zm5.7-.7v-2.3h2.6v2.3h-2.6zm-.8-2.12v1.95c0 .34.06.57.18.7.1.12.33.18.66.18h2.5c.34 0 .56-.05.68-.17.1-.12.17-.36.17-.7v-1.95c0-.34-.06-.57-.18-.7-.1-.12-.34-.18-.67-.18h-2.5c-.34 0-.56.06-.68.2-.1.1-.17.34-.17.68zm6.34-.88h-.78v2.83c0 .34.05.58.17.7.12.12.34.18.67.18h2.14c.33 0 .56-.05.68-.18.12-.12.18-.35.18-.7V18.4h-.8v3.02h-2.26V18.4zm4.5 3.7h.77v-1.44h2.15c.27 0 .46-.05.58-.17.12-.12.18-.3.18-.56v-.82c0-.25-.05-.44-.17-.55-.1-.1-.3-.17-.58-.17h-2.9v3.7h-.02zm2.58-3.06c.13 0 .23.03.28.07.05.06.08.13.08.24v.4c0 .1-.03.17-.08.22-.05.04-.15.07-.28.07h-1.8v-1h1.8zm3.05 1.7H108c-.14.02-.23.03-.26.07-.03.05-.04.14-.04.28v.54c0 .13 0 .2.04.26.03.04.07.07.14.07h.44l-.65 1.33h.45l.76-1.3v-.9c0-.13 0-.2-.04-.26-.03-.04-.08-.07-.15-.07h-.14zm4.97 1.37h.92V17.6h-.92v4.53zm2.65 0h.7v-2.5l2.75 2.5h.54v-3.7h-.72v2.47l-2.75-2.47h-.54v3.7zm8.28-3.02v.7l.8-.14v-.36c0-.34-.06-.57-.18-.7-.1-.1-.34-.18-.67-.18h-2.03c-.33 0-.55.07-.67.2-.1.1-.17.34-.17.68v1.96c0 .34.06.57.18.7.1.1.33.17.66.17h2.03c.33 0 .55-.05.67-.17.12-.13.17-.36.17-.7v-.43l-.8-.18v.78h-2.12v-2.3h2.13v-.02zm2.9 1.68h-.53c-.16 0-.25 0-.28.05-.03.05-.04.14-.04.28v.7c0 .13 0 .22.04.26.02.05.07.07.14.07h.7c.15 0 .24 0 .27-.05.03-.04.04-.13.04-.26v-.72c0-.13 0-.2-.03-.26-.02-.04-.07-.07-.14-.07h-.14zM39.8 3.6c.56 0 .93.08 1.13.25.2.16.3.45.3.85v1.7c0 .4-.1.7-.3.87-.2.16-.56.24-1.1.24h-7.1V3.6h7.1zM29.6 15.2h3.1V9.9h3l5.47 5.3h4.53l-6.26-5.3h1.77c1.06 0 1.84-.2 2.33-.64.48-.43.72-1.12.72-2.07V3.9c0-.96-.24-1.65-.72-2.08-.5-.43-1.27-.65-2.34-.65H29.57V15.2zm20.67 0h2.68V3.54h-2.68V15.2zm8.54 0h2.15V8 7.4l-.06-.66c.06.18.15.37.26.56l.4.63 4.35 5.86h.54l4.32-5.83c.1-.12.2-.3.3-.48l.38-.75-.08.7-.02.54v7.2h2.48V3.54h-2.14l-5.3 7.06-5.43-7.07H58.8V15.2zm20.65 0h2.7v-5.13l6.9 5.14h4.3l-8.56-6.17 7.6-5.5h-3.87L82.15 8.4V3.53h-2.7V15.2zm19.6-11.67h-2.7v8.92c0 1.07.2 1.8.6 2.18.4.4 1.15.58 2.26.58h7.28c1.12 0 1.88-.18 2.27-.57.4-.38.6-1.1.6-2.18V3.53h-2.68V13h-7.63V3.54zm26.14 2.04V6.9l2.36-.57V6.1c0-.96-.2-1.63-.62-2-.4-.38-1.16-.57-2.24-.57h-6.53c-1.1 0-1.87.2-2.26.58-.38.4-.58 1.13-.58 2.2v1.28c0 1.07.2 1.8.6 2.18.38.4 1.14.6 2.25.6h7.18V13h-8.13v-1.37l-2.37.5v.32c0 1.06.2 1.8.6 2.18.4.4 1.15.58 2.28.58h7.1c1.13 0 1.9-.18 2.3-.57.38-.4.58-1.12.58-2.18v-1.6c0-1.07-.2-1.8-.6-2.18-.38-.4-1.14-.6-2.27-.6h-7.17v-2.5h7.53z"/></svg>
