<?xml version="1.0" encoding="UTF-8"?> <svg xmlns="http://www.w3.org/2000/svg" width="3952.935" height="822.72" viewBox="0 0 3952.935 822.72"><g transform="translate(-631.165 -347.795)"><path d="M2450.59,741.79V598.93h-51V569.82H2535.9v29.11h-50.55V741.79Z" transform="translate(310 142)" fill="#fff"></path><path d="M2641.28,503.5v63.6q15.93-18.92,38.06-18.92a48.359,48.359,0,0,1,20.5,4.22q9.13,4.23,13.76,10.79a39.089,39.089,0,0,1,6.32,14.53q1.709,8,1.7,24.73v73h-32.95V609.76q0-19.56-1.86-24.83a16.449,16.449,0,0,0-6.62-8.37,21.241,21.241,0,0,0-11.871-3.1,27.29,27.29,0,0,0-14.64,4,23,23,0,0,0-9.42,12q-3,8-3,23.71v62.31h-33v-172Z" transform="translate(259.44 208.32)" fill="#fff"></path><path d="M2827.45,635.75l32.73,5.41q-6.33,18.11-20,27.56t-34.13,9.45q-32.45,0-48-21.2-12.28-17-12.29-42.85,0-30.93,16.16-48.43t40.9-17.51q27.75,0,43.81,18.33T2862,622.66h-82.37q.34,14.64,7.95,22.77a24.85,24.85,0,0,0,19,8.14,20.1,20.1,0,0,0,13-4.22q5.27-4.22,8-13.6m1.81-33.18q-.36-14.25-7.36-21.68a22.561,22.561,0,0,0-17.06-7.43,22.82,22.82,0,0,0-17.76,7.83q-7,7.83-6.89,21.28Z" transform="translate(259.44 208.32)" fill="#fff"></path><path d="M2955.94,675.47v-172h72.94q27.51,0,40,4.63a39.53,39.53,0,0,1,20,16.48,49.61,49.61,0,0,1,7.49,27.11q0,19.35-11.33,32t-33.88,15.9A80.941,80.941,0,0,1,3069.65,614q7.3,7.86,19.71,27.91l20.95,33.55h-41.49l-25-37.43q-13.35-20-18.26-25.25a26.754,26.754,0,0,0-10.42-7.16q-5.51-1.92-17.45-1.93h-7v71.77Zm34.76-99.31h25.62q24.91,0,31.12-2.1a18.691,18.691,0,0,0,9.7-7.26q3.53-5.16,3.52-12.89,0-8.65-4.63-14t-13-6.73q-4.22-.59-25.27-.59h-27Z" transform="translate(259.44 208.32)" fill="#fff"></path><path d="M3128.9,503.5h32.94V534H3128.9Zm0,172V550.92h32.94V675.47H3128.9Z" transform="translate(259.44 208.32)" fill="#fff"></path><path d="M3192.68,683.81l37.68,4.51q.94,6.63,4.34,9.1,4.68,3.55,14.75,3.55,12.89,0,19.33-3.91a16.141,16.141,0,0,0,6.55-8.41q1.53-4.15,1.52-15.28L3277,655q-14.92,20.46-37.41,20.46-25.07,0-39.71-21.21-11.49-16.77-11.48-41.74,0-31.29,15.05-47.81a48.581,48.581,0,0,1,37.43-16.53q23.07,0,38,20.34V550.89h30.92V662.82q0,22.08-3.64,33T3296,713q-6.57,6.22-17.53,9.75t-27.73,3.52q-31.65,0-44.9-10.87t-13.25-27.57q0-1.63.12-4m29.56-73.13q0,19.77,7.64,29t18.84,9.19q12,0,20.3-9.43t8.29-27.91q0-19.32-7.94-28.67a25.159,25.159,0,0,0-20.06-9.37,24.17,24.17,0,0,0-19.43,9.19q-7.64,9.18-7.64,28" transform="translate(259.44 208.32)" fill="#fff"></path><path d="M3375,503.5v63.6q15.93-18.92,38.06-18.92a48.361,48.361,0,0,1,20.5,4.22q9.13,4.23,13.76,10.79a39.089,39.089,0,0,1,6.32,14.53q1.7,8,1.7,24.73v73H3422.4V609.76q0-19.56-1.87-24.83a16.432,16.432,0,0,0-6.61-8.37,21.248,21.248,0,0,0-11.88-3.1,27.28,27.28,0,0,0-14.63,4,23,23,0,0,0-9.42,12q-3,8-3,23.71v62.31h-33v-172Z" transform="translate(259.44 208.32)" fill="#fff"></path><path d="M3546.06,550.89v26.18h-22.57v50.21q0,15.26.65,17.78a7.2,7.2,0,0,0,2.94,4.16,9.291,9.291,0,0,0,5.59,1.65q4.57,0,13.27-3.17l2.83,25.55a65.462,65.462,0,0,1-26,4.92,41.252,41.252,0,0,1-16.05-3q-7.14-3-10.49-7.74t-4.62-12.85q-1.07-5.75-1.06-23.22v-54.3h-15.12V550.89h15.12V526.07l32.95-19.41v44.23Z" transform="translate(259.44 208.32)" fill="#fff"></path><path d="M3609.59,741.79l-40.76-171.97h35.73l25.77,118.12,31.47-118.12h41.58l29.86,120.11,26.12-120.11h34.92l-41.31,171.97H3715.6l-33.81-128.58-34.25,128.58Z" transform="translate(310 142)" fill="#fff"></path><path d="M3877.74,589.26l-29.56-5.42q5-18.18,17.38-26.92t36.63-8.74q22.09,0,32.89,5.22t15.21,13.24q4.39,8,4.4,29.48l-.44,38.44q0,16.41,1.56,24.2a71.339,71.339,0,0,0,5.88,16.71h-32.5q-1.29-3.32-3.17-9.8c-.54-2-.94-3.27-1.17-3.9a59.391,59.391,0,0,1-18.08,12.3,51.779,51.779,0,0,1-20.54,4.1q-19.24,0-30.35-10.39t-11.09-26.28a35.121,35.121,0,0,1,5-18.73A32.92,32.92,0,0,1,3864,610.15q9.09-4.36,26.21-7.65,23.1-4.31,32-8v-3.31q0-9.54-4.73-13.62t-17.84-4.06q-8.88,0-13.84,3.5t-8,12.3m44.45,26.63q-6.33,2.08-20.05,5t-17.95,5.69q-6.45,4.54-6.45,11.5a16,16,0,0,0,5.16,11.86,18.1,18.1,0,0,0,13.14,5,28.75,28.75,0,0,0,17-5.8,20.511,20.511,0,0,0,7.85-10.81c.87-2.79,1.29-8.09,1.29-15.92Z" transform="translate(259.44 208.32)" fill="#fff"></path><path d="M3971.11,550.89h35l29.68,88.51,29-88.51h34.07l-43.67,119.77-8.06,22.07a88.863,88.863,0,0,1-8.24,16.64,36.251,36.251,0,0,1-9,9.31,39.51,39.51,0,0,1-12.51,5.57,65.4,65.4,0,0,1-16.8,2,86.939,86.939,0,0,1-18.61-2L3979,698.52a71.476,71.476,0,0,0,13.93,1.54q11.45,0,17-6.8a47.409,47.409,0,0,0,8.43-17.35Z" transform="translate(259.44 208.32)" fill="#fff"></path><path d="M4133.41,631.23l-8.55-87.35V503.5h35.66v40.38l-8.44,87.35Zm-7.2,44.24v-33h32.95v33Z" transform="translate(259.44 208.32)" fill="#fff"></path><path d="M372.55,677.32h33.29Q433.29,806,494.51,864.47t140.26,58.44q76.85,0,109.25-40.09t32.41-84.4q0-51.54-33.87-84.09-22.41-21.3-90.68-55.5l-73.23-37q-109-54.92-153.86-108.71T380,380.33q0-84,59.36-156.84t181.92-72.83a383,383,0,0,1,120.64,19.23q58.25,19.25,66.55,19.23,18.75,0,25.93-10.56c4.79-7,8.65-16.35,11.61-27.9h34v250H848.18q-22.54-87.74-79.36-151.11t-138.09-63.4q-57.15,0-90.34,31.69T507.18,294.9q0,54.4,31.14,81.3,30.57,27.5,137,80.74l85,42.63q56.79,28.6,90.59,63.29Q914,627.81,914,720.71c0,57.83-14.46,120.95-59.56,172.25S729,961.37,629.55,961.37a398.411,398.411,0,0,1-69.35-6.22,384.993,384.993,0,0,1-69.3-19.26l-22.1-8.11q-7.73-2.14-14.9-3.51a67.239,67.239,0,0,0-12.16-1.36q-17.69,0-24.3,10t-11.6,28.44H372.55Z" transform="translate(259.44 208.32)" fill="none" stroke="#ffcd33" stroke-width="1.65"></path><rect width="250.24" height="133.14" transform="translate(1202.5 811.67)" fill="none" stroke="#ffcd33" stroke-width="1.65"></rect><path d="M1218.1,806.3q19.43-20.62,52.53-20.66,42.21,0,113.55,51.43t110.75,51.41q46.21,0,79.91-32.73t33.67-88.39q0-56.85-38.28-96.45T1484,609.5q-51.43-23.54-116.56-34.45c-28.19-4.59-84.13-17.15-146.23-21.36l125-397.13h377.3l-50.66,149.71H1348.06l-22.12,85.89c91,2.69,179.11,20,235.74,43.66,106.36,44.34,152.8,135.72,152.8,248.84,0,82.55-43.92,143.14-107.32,196.45s-143,80-238.88,80q-72.77,0-121.16-28.67t-48.42-75.68q0-29.78,19.4-50.42" transform="translate(259.44 208.32)" fill="none" stroke="#ffcd33" stroke-width="1.65"></path><path d="M1785.18,167q28.85-26.7,68-26.7,38.07,0,67.5,26.42t29.4,87.12q0,19.14-9.2,57.63t-33.14,126.17q-14.51,52.83-19.79,88T1871,667h-33.3q-16.29-133.79-21.89-165.26t-22.45-88.25Q1772,341,1765.87,316.78q-9.55-37.66-9.54-59,0-64.08,28.85-90.78m-.58,618.29q28.29-28.08,68.63-28.08t68.61,28.08q28.29,28.1,28.29,68.08t-28.29,68.09q-28.3,28-68.61,28.07t-68.63-28.07q-28.29-28.07-28.27-68.09t28.27-68.08" transform="translate(259.44 208.32)" fill="none" stroke="#ffcd33" stroke-width="1.65"></path><path d="M372.55,677.32h33.29Q433.29,806,494.51,864.47t140.26,58.44q76.85,0,109.25-40.09t32.41-84.4q0-51.54-33.87-84.09-22.41-21.3-90.68-55.5l-73.23-37q-109-54.92-153.86-108.71T380,380.33q0-84,59.36-156.84t181.92-72.83a383,383,0,0,1,120.64,19.23q58.25,19.25,66.55,19.23,18.75,0,25.93-10.56c4.79-7,8.65-16.35,11.61-27.9h34v250H848.18q-22.54-87.74-79.36-151.11t-138.09-63.4q-57.15,0-90.34,31.69T507.18,294.9q0,54.4,31.14,81.3,30.57,27.5,137,80.74l85,42.63q56.79,28.6,90.59,63.29Q914,627.81,914,720.71c0,57.83-14.46,120.95-59.56,172.25S729,961.37,629.55,961.37a398.411,398.411,0,0,1-69.35-6.22,384.993,384.993,0,0,1-69.3-19.26l-22.1-8.11q-7.73-2.14-14.9-3.51a67.239,67.239,0,0,0-12.16-1.36q-17.69,0-24.3,10t-11.6,28.44H372.55Z" transform="translate(259.44 208.32)" fill="#ffce34"></path><rect width="250.23" height="133.14" transform="translate(1202.5 811.67)" fill="#ffce34"></rect><path d="M1218.1,806.3q19.43-20.62,52.53-20.66,42.21,0,113.55,51.43t110.75,51.41q46.21,0,79.91-32.73t33.67-88.39q0-56.85-38.28-96.45T1484,609.5q-51.43-23.54-116.56-34.45c-28.19-4.59-84.13-17.15-146.23-21.36l125-397.13h377.3l-50.66,149.71H1348.06l-22.12,85.89c91,2.69,179.11,20,235.74,43.66,106.36,44.34,152.8,135.72,152.8,248.84,0,82.55-43.92,143.14-107.32,196.45s-143,80-238.88,80q-72.77,0-121.16-28.67t-48.42-75.68q0-29.78,19.4-50.42" transform="translate(259.44 208.32)" fill="#ffce34"></path><path d="M1785.18,167q28.85-26.7,68-26.7,38.07,0,67.5,26.42t29.4,87.12q0,19.14-9.2,57.63t-33.14,126.17q-14.51,52.83-19.79,88T1871,667h-33.3q-16.29-133.79-21.89-165.26t-22.45-88.25Q1772,341,1765.87,316.78q-9.55-37.66-9.54-59,0-64.08,28.85-90.78m-.58,618.29q28.29-28.08,68.63-28.08t68.61,28.08q28.29,28.1,28.29,68.08t-28.29,68.09q-28.3,28-68.61,28.07t-68.63-28.07q-28.29-28.07-28.27-68.09t28.27-68.08" transform="translate(259.44 208.32)" fill="#ffce34"></path><path d="M2130.83,170.35q24.42,0,47.6,12.48a89.261,89.261,0,0,1,36.2,35.73,96.79,96.79,0,0,1,.21,96.61A90.25,90.25,0,0,1,2179,351a97.12,97.12,0,0,1-96.21,0A90.369,90.369,0,0,1,2047,315.2a96.76,96.76,0,0,1,.2-96.61,89.222,89.222,0,0,1,36.21-35.73q23.17-12.48,47.45-12.48m0,12.14q-21.27,0-41.52,10.91a77.928,77.928,0,0,0-31.64,31.29,84.6,84.6,0,0,0-.2,84.41,78.9,78.9,0,0,0,31.36,31.3,84.61,84.61,0,0,0,84.07,0,79.071,79.071,0,0,0,31.3-31.3,84.79,84.79,0,0,0-.14-84.41,77.461,77.461,0,0,0-31.57-31.29,86.739,86.739,0,0,0-41.66-10.91m-51.68,28.36h49.37q24.95,0,34.63,6,13.77,8.6,13.78,23.87a26.869,26.869,0,0,1-6.07,17.25q-6.08,7.56-18.34,11l18.65,34q4.1,7.36,8.45,11a12.058,12.058,0,0,0,5.87,2.46v4.63h-33l-28-50.18h-6.27v27q0,11.6,3.07,14.87t13.29,3.68v4.63H2077v-4.63q8.45,0,10.91-2.87,3.4-3.94,3.41-15.68V233.62q0-11.18-2.39-14.24t-9.75-3.89ZM2118.29,264a54.377,54.377,0,0,0,7.77.69,20.229,20.229,0,0,0,15.21-6.69q6.33-6.67,6.34-17.86,0-11.46-5.94-17.39t-18.2-5.93h-5.18Z" transform="translate(259.44 208.32)" fill="#ffce34"></path><text transform="translate(4436.1 846.7)" fill="#fff" font-size="200.81" font-family="Helvetica"><tspan x="0" y="0">®</tspan></text></g></svg> 