<?xml version="1.0" encoding="UTF-8" standalone="no"?>
<!-- Created with Inkscape (http://www.inkscape.org/) -->

<svg
   xmlns:dc="http://purl.org/dc/elements/1.1/"
   xmlns:cc="http://creativecommons.org/ns#"
   xmlns:rdf="http://www.w3.org/1999/02/22-rdf-syntax-ns#"
   xmlns:svg="http://www.w3.org/2000/svg"
   xmlns="http://www.w3.org/2000/svg"
   xmlns:sodipodi="http://sodipodi.sourceforge.net/DTD/sodipodi-0.dtd"
   xmlns:inkscape="http://www.inkscape.org/namespaces/inkscape"
   width="1250.6865mm"
   height="277.5751mm"
   viewBox="0 0 1250.6865 277.5751"
   version="1.1"
   id="svg8"
   inkscape:version="0.92.2 (5c3e80d, 2017-08-06)"
   sodipodi:docname="ShridhanNameLogo.svg">
  <defs
     id="defs2">
    <clipPath
       id="clipPath852"
       clipPathUnits="userSpaceOnUse">
      <path
         inkscape:connector-curvature="0"
         id="path850"
         d="M 0,792 H 792 V 0 H 0 Z" />
    </clipPath>
    <clipPath
       id="clipPath980"
       clipPathUnits="userSpaceOnUse">
      <path
         inkscape:connector-curvature="0"
         id="path978"
         d="M 0,792 H 792 V 0 H 0 Z" />
    </clipPath>
    <clipPath
       id="clipPath1112"
       clipPathUnits="userSpaceOnUse">
      <path
         inkscape:connector-curvature="0"
         id="path1110"
         d="M 0,792 H 792 V 0 H 0 Z" />
    </clipPath>
  </defs>
  <sodipodi:namedview
     id="base"
     pagecolor="#ffffff"
     bordercolor="#666666"
     borderopacity="1.0"
     inkscape:pageopacity="0.0"
     inkscape:pageshadow="2"
     inkscape:zoom="0.22"
     inkscape:cx="1893.5021"
     inkscape:cy="458.83711"
     inkscape:document-units="mm"
     inkscape:current-layer="g1952"
     showgrid="false"
     fit-margin-top="0"
     fit-margin-left="0"
     fit-margin-right="0"
     fit-margin-bottom="0"
     inkscape:window-width="1920"
     inkscape:window-height="1027"
     inkscape:window-x="1912"
     inkscape:window-y="-8"
     inkscape:window-maximized="1" />
  <metadata
     id="metadata5">
    <rdf:RDF>
      <cc:Work
         rdf:about="">
        <dc:format>image/svg+xml</dc:format>
        <dc:type
           rdf:resource="http://purl.org/dc/dcmitype/StillImage" />
        <dc:title></dc:title>
      </cc:Work>
    </rdf:RDF>
  </metadata>
  <g
     inkscape:label="Layer 1"
     inkscape:groupmode="layer"
     id="layer1"
     transform="translate(517.62005,7.3411291)">
    <g
       id="g1952"
       transform="matrix(0.35277777,0,0,-0.35277777,-578.17627,270.95781)">
      <g
         id="g620">
        <g
           id="g1813">
          <path
             inkscape:connector-curvature="0"
             id="path840"
             style="fill:#0071bc;fill-opacity:1;fill-rule:nonzero;stroke:#ffffff;stroke-width:1;stroke-linecap:butt;stroke-linejoin:miter;stroke-miterlimit:4;stroke-dasharray:none;stroke-opacity:1"
             d="M 460.203,10.057 H 341.481 v 769.311 h 118.722 z" />
          <g
             transform="translate(341.4816,783.8793)"
             id="g842">
            <path
               inkscape:connector-curvature="0"
               id="path844"
               style="fill:#231f20;fill-opacity:1;fill-rule:nonzero;stroke:none"
               d="M 0,0 H 118.722 Z" />
          </g>
          <g
             id="g846">
            <g
               clip-path="url(#clipPath852)"
               id="g848">
              <g
                 transform="translate(341.4814,783.8789)"
                 id="g854">
                <path
                   inkscape:connector-curvature="0"
                   id="path856"
                   style="fill:none;stroke:#ffffff;stroke-width:10;stroke-linecap:butt;stroke-linejoin:miter;stroke-miterlimit:4;stroke-dasharray:none;stroke-opacity:1"
                   d="M 0,0 H 118.722" />
              </g>
            </g>
          </g>
          <g
             transform="translate(341.4816,732.0924)"
             id="g858">
            <path
               inkscape:connector-curvature="0"
               id="path860"
               style="fill:#231f20;fill-opacity:1;fill-rule:nonzero;stroke:none"
               d="M 0,0 H 118.722 Z" />
          </g>
          <g
             transform="translate(341.4814,732.0923)"
             id="g862">
            <path
               inkscape:connector-curvature="0"
               id="path864"
               style="fill:none;stroke:#ffffff;stroke-width:10;stroke-linecap:butt;stroke-linejoin:miter;stroke-miterlimit:4;stroke-dasharray:none;stroke-opacity:1"
               d="M 0,0 H 118.722" />
          </g>
          <g
             transform="translate(341.4816,680.3028)"
             id="g866">
            <path
               inkscape:connector-curvature="0"
               id="path868"
               style="fill:#231f20;fill-opacity:1;fill-rule:nonzero;stroke:none"
               d="M 0,0 H 118.722 Z" />
          </g>
          <g
             transform="translate(341.4814,680.3032)"
             id="g870">
            <path
               inkscape:connector-curvature="0"
               id="path872"
               style="fill:none;stroke:#ffffff;stroke-width:10;stroke-linecap:butt;stroke-linejoin:miter;stroke-miterlimit:4;stroke-dasharray:none;stroke-opacity:1"
               d="M 0,0 H 118.722" />
          </g>
          <g
             transform="translate(341.4816,628.515)"
             id="g874">
            <path
               inkscape:connector-curvature="0"
               id="path876"
               style="fill:#231f20;fill-opacity:1;fill-rule:nonzero;stroke:none"
               d="M 0,0 H 118.722 Z" />
          </g>
          <g
             transform="translate(341.4814,628.5151)"
             id="g878">
            <path
               inkscape:connector-curvature="0"
               id="path880"
               style="fill:none;stroke:#ffffff;stroke-width:10;stroke-linecap:butt;stroke-linejoin:miter;stroke-miterlimit:4;stroke-dasharray:none;stroke-opacity:1"
               d="M 0,0 H 118.722" />
          </g>
          <g
             transform="translate(341.4816,576.7254)"
             id="g882">
            <path
               inkscape:connector-curvature="0"
               id="path884"
               style="fill:#231f20;fill-opacity:1;fill-rule:nonzero;stroke:none"
               d="M 0,0 H 118.722 Z" />
          </g>
          <g
             transform="translate(341.4814,576.7256)"
             id="g886">
            <path
               inkscape:connector-curvature="0"
               id="path888"
               style="fill:none;stroke:#ffffff;stroke-width:10;stroke-linecap:butt;stroke-linejoin:miter;stroke-miterlimit:4;stroke-dasharray:none;stroke-opacity:1"
               d="M 0,0 H 118.722" />
          </g>
          <g
             transform="translate(341.4816,524.9358)"
             id="g890">
            <path
               inkscape:connector-curvature="0"
               id="path892"
               style="fill:#231f20;fill-opacity:1;fill-rule:nonzero;stroke:none"
               d="M 0,0 H 118.722 Z" />
          </g>
          <g
             transform="translate(341.4814,524.9355)"
             id="g894">
            <path
               inkscape:connector-curvature="0"
               id="path896"
               style="fill:none;stroke:#ffffff;stroke-width:10;stroke-linecap:butt;stroke-linejoin:miter;stroke-miterlimit:4;stroke-dasharray:none;stroke-opacity:1"
               d="M 0,0 H 118.722" />
          </g>
          <g
             transform="translate(341.4816,473.1471)"
             id="g898">
            <path
               inkscape:connector-curvature="0"
               id="path900"
               style="fill:#231f20;fill-opacity:1;fill-rule:nonzero;stroke:none"
               d="M 0,0 H 118.722 Z" />
          </g>
          <g
             transform="translate(341.4814,473.1475)"
             id="g902">
            <path
               inkscape:connector-curvature="0"
               id="path904"
               style="fill:none;stroke:#ffffff;stroke-width:10;stroke-linecap:butt;stroke-linejoin:miter;stroke-miterlimit:4;stroke-dasharray:none;stroke-opacity:1"
               d="M 0,0 H 118.722" />
          </g>
          <g
             transform="translate(341.4816,421.3602)"
             id="g906">
            <path
               inkscape:connector-curvature="0"
               id="path908"
               style="fill:#231f20;fill-opacity:1;fill-rule:nonzero;stroke:none"
               d="M 0,0 H 118.722 Z" />
          </g>
          <g
             transform="translate(341.4814,421.3599)"
             id="g910">
            <path
               inkscape:connector-curvature="0"
               id="path912"
               style="fill:none;stroke:#ffffff;stroke-width:10;stroke-linecap:butt;stroke-linejoin:miter;stroke-miterlimit:4;stroke-dasharray:none;stroke-opacity:1"
               d="M 0,0 H 118.722" />
          </g>
          <g
             transform="translate(341.4816,369.5715)"
             id="g914">
            <path
               inkscape:connector-curvature="0"
               id="path916"
               style="fill:#231f20;fill-opacity:1;fill-rule:nonzero;stroke:none"
               d="M 0,0 H 118.722 Z" />
          </g>
          <g
             transform="translate(341.4814,369.5713)"
             id="g918">
            <path
               inkscape:connector-curvature="0"
               id="path920"
               style="fill:none;stroke:#ffffff;stroke-width:10;stroke-linecap:butt;stroke-linejoin:miter;stroke-miterlimit:4;stroke-dasharray:none;stroke-opacity:1"
               d="M 0,0 H 118.722" />
          </g>
          <g
             transform="translate(341.4816,317.781)"
             id="g922">
            <path
               inkscape:connector-curvature="0"
               id="path924"
               style="fill:#231f20;fill-opacity:1;fill-rule:nonzero;stroke:none"
               d="M 0,0 H 118.722 Z" />
          </g>
          <g
             transform="translate(341.4814,317.7812)"
             id="g926">
            <path
               inkscape:connector-curvature="0"
               id="path928"
               style="fill:none;stroke:#ffffff;stroke-width:10;stroke-linecap:butt;stroke-linejoin:miter;stroke-miterlimit:4;stroke-dasharray:none;stroke-opacity:1"
               d="M 0,0 H 118.722" />
          </g>
          <g
             transform="translate(341.4816,265.9941)"
             id="g930">
            <path
               inkscape:connector-curvature="0"
               id="path932"
               style="fill:#231f20;fill-opacity:1;fill-rule:nonzero;stroke:none"
               d="M 0,0 H 118.722 Z" />
          </g>
          <g
             transform="translate(341.4814,265.9941)"
             id="g934">
            <path
               inkscape:connector-curvature="0"
               id="path936"
               style="fill:none;stroke:#ffffff;stroke-width:10;stroke-linecap:butt;stroke-linejoin:miter;stroke-miterlimit:4;stroke-dasharray:none;stroke-opacity:1"
               d="M 0,0 H 118.722" />
          </g>
          <g
             transform="translate(341.4816,214.2108)"
             id="g938">
            <path
               inkscape:connector-curvature="0"
               id="path940"
               style="fill:#231f20;fill-opacity:1;fill-rule:nonzero;stroke:none"
               d="M 0,0 H 118.722 Z" />
          </g>
          <g
             transform="translate(341.4814,214.2109)"
             id="g942">
            <path
               inkscape:connector-curvature="0"
               id="path944"
               style="fill:none;stroke:#ffffff;stroke-width:10;stroke-linecap:butt;stroke-linejoin:miter;stroke-miterlimit:4;stroke-dasharray:none;stroke-opacity:1"
               d="M 0,0 H 118.722" />
          </g>
          <g
             transform="translate(341.4816,162.4176)"
             id="g946">
            <path
               inkscape:connector-curvature="0"
               id="path948"
               style="fill:#231f20;fill-opacity:1;fill-rule:nonzero;stroke:none"
               d="M 0,0 H 118.722 Z" />
          </g>
          <g
             transform="translate(341.4814,162.418)"
             id="g950">
            <path
               inkscape:connector-curvature="0"
               id="path952"
               style="fill:none;stroke:#ffffff;stroke-width:10;stroke-linecap:butt;stroke-linejoin:miter;stroke-miterlimit:4;stroke-dasharray:none;stroke-opacity:1"
               d="M 0,0 H 118.722" />
          </g>
          <g
             transform="translate(341.4816,110.628)"
             id="g954">
            <path
               inkscape:connector-curvature="0"
               id="path956"
               style="fill:#231f20;fill-opacity:1;fill-rule:nonzero;stroke:none"
               d="M 0,0 H 118.722 Z" />
          </g>
          <g
             transform="translate(341.4814,110.6279)"
             id="g958">
            <path
               inkscape:connector-curvature="0"
               id="path960"
               style="fill:none;stroke:#ffffff;stroke-width:10;stroke-linecap:butt;stroke-linejoin:miter;stroke-miterlimit:4;stroke-dasharray:none;stroke-opacity:1"
               d="M 0,0 H 118.722" />
          </g>
          <g
             transform="translate(341.4816,58.8393)"
             id="g962">
            <path
               inkscape:connector-curvature="0"
               id="path964"
               style="fill:#231f20;fill-opacity:1;fill-rule:nonzero;stroke:none"
               d="M 0,0 H 118.722 Z" />
          </g>
          <g
             transform="translate(341.4814,58.8389)"
             id="g966">
            <path
               inkscape:connector-curvature="0"
               id="path968"
               style="fill:none;stroke:#ffffff;stroke-width:10;stroke-linecap:butt;stroke-linejoin:miter;stroke-miterlimit:4;stroke-dasharray:none;stroke-opacity:1"
               d="M 0,0 H 118.722" />
          </g>
          <g
             transform="translate(341.4816,7.0515)"
             id="g970">
            <path
               inkscape:connector-curvature="0"
               id="path972"
               style="fill:#231f20;fill-opacity:1;fill-rule:nonzero;stroke:none"
               d="M 0,0 H 118.722 Z" />
          </g>
          <g
             id="g974">
            <g
               clip-path="url(#clipPath980)"
               id="g976">
              <g
                 transform="translate(341.4814,7.0518)"
                 id="g982">
                <path
                   inkscape:connector-curvature="0"
                   id="path984"
                   style="fill:none;stroke:#ffffff;stroke-width:10;stroke-linecap:butt;stroke-linejoin:miter;stroke-miterlimit:4;stroke-dasharray:none;stroke-opacity:1"
                   d="M 0,0 H 118.722" />
              </g>
            </g>
          </g>
          <g
             transform="translate(341.4816,757.9845)"
             id="g986">
            <path
               inkscape:connector-curvature="0"
               id="path988"
               style="fill:#231f20;fill-opacity:1;fill-rule:nonzero;stroke:none"
               d="M 0,0 H 63.477 Z" />
          </g>
          <g
             transform="translate(341.4814,757.9844)"
             id="g990">
            <path
               inkscape:connector-curvature="0"
               id="path992"
               style="fill:none;stroke:#ffffff;stroke-width:10;stroke-linecap:butt;stroke-linejoin:miter;stroke-miterlimit:4;stroke-dasharray:none;stroke-opacity:1"
               d="M 0,0 H 63.478" />
          </g>
          <g
             transform="translate(341.4816,706.1976)"
             id="g994">
            <path
               inkscape:connector-curvature="0"
               id="path996"
               style="fill:#231f20;fill-opacity:1;fill-rule:nonzero;stroke:none"
               d="M 0,0 H 63.477 Z" />
          </g>
          <g
             transform="translate(341.4814,706.1973)"
             id="g998">
            <path
               inkscape:connector-curvature="0"
               id="path1000"
               style="fill:none;stroke:#ffffff;stroke-width:10;stroke-linecap:butt;stroke-linejoin:miter;stroke-miterlimit:4;stroke-dasharray:none;stroke-opacity:1"
               d="M 0,0 H 63.478" />
          </g>
          <g
             transform="translate(341.4816,654.4089)"
             id="g1002">
            <path
               inkscape:connector-curvature="0"
               id="path1004"
               style="fill:#231f20;fill-opacity:1;fill-rule:nonzero;stroke:none"
               d="M 0,0 H 63.477 Z" />
          </g>
          <g
             transform="translate(341.4814,654.4092)"
             id="g1006">
            <path
               inkscape:connector-curvature="0"
               id="path1008"
               style="fill:none;stroke:#ffffff;stroke-width:10;stroke-linecap:butt;stroke-linejoin:miter;stroke-miterlimit:4;stroke-dasharray:none;stroke-opacity:1"
               d="M 0,0 H 63.478" />
          </g>
          <g
             transform="translate(341.4816,602.6202)"
             id="g1010">
            <path
               inkscape:connector-curvature="0"
               id="path1012"
               style="fill:#231f20;fill-opacity:1;fill-rule:nonzero;stroke:none"
               d="M 0,0 H 63.477 Z" />
          </g>
          <g
             transform="translate(341.4814,602.6201)"
             id="g1014">
            <path
               inkscape:connector-curvature="0"
               id="path1016"
               style="fill:none;stroke:#ffffff;stroke-width:10;stroke-linecap:butt;stroke-linejoin:miter;stroke-miterlimit:4;stroke-dasharray:none;stroke-opacity:1"
               d="M 0,0 H 63.478" />
          </g>
          <g
             transform="translate(341.4816,550.8297)"
             id="g1018">
            <path
               inkscape:connector-curvature="0"
               id="path1020"
               style="fill:#231f20;fill-opacity:1;fill-rule:nonzero;stroke:none"
               d="M 0,0 H 63.477 Z" />
          </g>
          <g
             transform="translate(341.4814,550.8301)"
             id="g1022">
            <path
               inkscape:connector-curvature="0"
               id="path1024"
               style="fill:none;stroke:#ffffff;stroke-width:10;stroke-linecap:butt;stroke-linejoin:miter;stroke-miterlimit:4;stroke-dasharray:none;stroke-opacity:1"
               d="M 0,0 H 63.478" />
          </g>
          <g
             transform="translate(341.4816,499.0419)"
             id="g1026">
            <path
               inkscape:connector-curvature="0"
               id="path1028"
               style="fill:#231f20;fill-opacity:1;fill-rule:nonzero;stroke:none"
               d="M 0,0 H 63.477 Z" />
          </g>
          <g
             transform="translate(341.4814,499.042)"
             id="g1030">
            <path
               inkscape:connector-curvature="0"
               id="path1032"
               style="fill:none;stroke:#ffffff;stroke-width:10;stroke-linecap:butt;stroke-linejoin:miter;stroke-miterlimit:4;stroke-dasharray:none;stroke-opacity:1"
               d="M 0,0 H 63.478" />
          </g>
          <g
             transform="translate(341.4816,447.2541)"
             id="g1034">
            <path
               inkscape:connector-curvature="0"
               id="path1036"
               style="fill:#231f20;fill-opacity:1;fill-rule:nonzero;stroke:none"
               d="M 0,0 H 63.477 Z" />
          </g>
          <g
             transform="translate(341.4814,447.2539)"
             id="g1038">
            <path
               inkscape:connector-curvature="0"
               id="path1040"
               style="fill:none;stroke:#ffffff;stroke-width:10;stroke-linecap:butt;stroke-linejoin:miter;stroke-miterlimit:4;stroke-dasharray:none;stroke-opacity:1"
               d="M 0,0 H 63.478" />
          </g>
          <g
             transform="translate(341.4816,395.4654)"
             id="g1042">
            <path
               inkscape:connector-curvature="0"
               id="path1044"
               style="fill:#231f20;fill-opacity:1;fill-rule:nonzero;stroke:none"
               d="M 0,0 H 63.477 Z" />
          </g>
          <g
             transform="translate(341.4814,395.4658)"
             id="g1046">
            <path
               inkscape:connector-curvature="0"
               id="path1048"
               style="fill:none;stroke:#ffffff;stroke-width:10;stroke-linecap:butt;stroke-linejoin:miter;stroke-miterlimit:4;stroke-dasharray:none;stroke-opacity:1"
               d="M 0,0 H 63.478" />
          </g>
          <g
             transform="translate(341.4816,343.6776)"
             id="g1050">
            <path
               inkscape:connector-curvature="0"
               id="path1052"
               style="fill:#231f20;fill-opacity:1;fill-rule:nonzero;stroke:none"
               d="M 0,0 H 63.477 Z" />
          </g>
          <g
             transform="translate(341.4814,343.6777)"
             id="g1054">
            <path
               inkscape:connector-curvature="0"
               id="path1056"
               style="fill:none;stroke:#ffffff;stroke-width:10;stroke-linecap:butt;stroke-linejoin:miter;stroke-miterlimit:4;stroke-dasharray:none;stroke-opacity:1"
               d="M 0,0 H 63.478" />
          </g>
          <g
             transform="translate(341.4816,291.888)"
             id="g1058">
            <path
               inkscape:connector-curvature="0"
               id="path1060"
               style="fill:#231f20;fill-opacity:1;fill-rule:nonzero;stroke:none"
               d="M 0,0 H 63.477 Z" />
          </g>
          <g
             transform="translate(341.4814,291.8877)"
             id="g1062">
            <path
               inkscape:connector-curvature="0"
               id="path1064"
               style="fill:none;stroke:#ffffff;stroke-width:10;stroke-linecap:butt;stroke-linejoin:miter;stroke-miterlimit:4;stroke-dasharray:none;stroke-opacity:1"
               d="M 0,0 H 63.478" />
          </g>
          <g
             transform="translate(341.4816,240.1056)"
             id="g1066">
            <path
               inkscape:connector-curvature="0"
               id="path1068"
               style="fill:#231f20;fill-opacity:1;fill-rule:nonzero;stroke:none"
               d="M 0,0 H 63.477 Z" />
          </g>
          <g
             transform="translate(341.4814,240.1055)"
             id="g1070">
            <path
               inkscape:connector-curvature="0"
               id="path1072"
               style="fill:none;stroke:#ffffff;stroke-width:10;stroke-linecap:butt;stroke-linejoin:miter;stroke-miterlimit:4;stroke-dasharray:none;stroke-opacity:1"
               d="M 0,0 H 63.478" />
          </g>
          <g
             transform="translate(341.4816,188.316)"
             id="g1074">
            <path
               inkscape:connector-curvature="0"
               id="path1076"
               style="fill:#231f20;fill-opacity:1;fill-rule:nonzero;stroke:none"
               d="M 0,0 H 63.477 Z" />
          </g>
          <g
             transform="translate(341.4814,188.3164)"
             id="g1078">
            <path
               inkscape:connector-curvature="0"
               id="path1080"
               style="fill:none;stroke:#ffffff;stroke-width:10;stroke-linecap:butt;stroke-linejoin:miter;stroke-miterlimit:4;stroke-dasharray:none;stroke-opacity:1"
               d="M 0,0 H 63.478" />
          </g>
          <g
             transform="translate(341.4816,136.5237)"
             id="g1082">
            <path
               inkscape:connector-curvature="0"
               id="path1084"
               style="fill:#231f20;fill-opacity:1;fill-rule:nonzero;stroke:none"
               d="M 0,0 H 63.477 Z" />
          </g>
          <g
             transform="translate(341.4814,136.5234)"
             id="g1086">
            <path
               inkscape:connector-curvature="0"
               id="path1088"
               style="fill:none;stroke:#ffffff;stroke-width:10;stroke-linecap:butt;stroke-linejoin:miter;stroke-miterlimit:4;stroke-dasharray:none;stroke-opacity:1"
               d="M 0,0 H 63.478" />
          </g>
          <g
             transform="translate(341.4816,84.7332)"
             id="g1090">
            <path
               inkscape:connector-curvature="0"
               id="path1092"
               style="fill:#231f20;fill-opacity:1;fill-rule:nonzero;stroke:none"
               d="M 0,0 H 63.477 Z" />
          </g>
          <g
             transform="translate(341.4814,84.7334)"
             id="g1094">
            <path
               inkscape:connector-curvature="0"
               id="path1096"
               style="fill:none;stroke:#ffffff;stroke-width:10;stroke-linecap:butt;stroke-linejoin:miter;stroke-miterlimit:4;stroke-dasharray:none;stroke-opacity:1"
               d="M 0,0 H 63.478" />
          </g>
          <g
             transform="translate(341.4816,32.9463)"
             id="g1098">
            <path
               inkscape:connector-curvature="0"
               id="path1100"
               style="fill:#231f20;fill-opacity:1;fill-rule:nonzero;stroke:none"
               d="M 0,0 H 63.477 Z" />
          </g>
          <g
             transform="translate(341.4814,32.9463)"
             id="g1102">
            <path
               inkscape:connector-curvature="0"
               id="path1104"
               style="fill:none;stroke:#ffffff;stroke-width:10;stroke-linecap:butt;stroke-linejoin:miter;stroke-miterlimit:4;stroke-dasharray:none;stroke-opacity:1"
               d="M 0,0 H 63.478" />
          </g>
          <g
             id="g1106">
            <g
               clip-path="url(#clipPath1112)"
               id="g1108">
              <g
                 transform="translate(592.1475,367.9902)"
                 id="g1114">
                <path
                   inkscape:connector-curvature="0"
                   id="path1116"
                   style="fill:#0071bc;fill-opacity:1;fill-rule:nonzero;stroke:none"
                   d="m 0,0 c 14.135,-15.71 24.574,-32.907 31.333,-51.59 6.752,-18.692 10.129,-40.447 10.129,-65.258 0,-59.055 -21.838,-107.74 -65.491,-146.058 -43.664,-38.327 -97.848,-57.484 -162.55,-57.484 -29.846,0 -59.683,4.64 -89.52,13.904 -29.846,9.258 -55.598,20.492 -77.271,33.685 l -20.259,-34.395 h -37.693 l -6.597,228.983 h 38.164 c 7.848,-28.269 17.035,-53.792 27.563,-76.561 10.521,-22.78 24.42,-44.056 41.697,-63.844 16.329,-18.537 35.411,-33.297 57.246,-44.288 21.829,-10.999 47.189,-16.492 76.094,-16.492 21.673,0 40.593,2.827 56.774,8.491 16.176,5.659 29.283,13.682 39.342,24.063 10.048,10.381 17.508,22.568 22.379,36.568 4.869,13.995 7.305,30.116 7.305,48.36 0,26.732 -7.54,51.659 -22.617,74.776 -15.078,23.117 -37.539,40.651 -67.376,52.606 -20.423,8.129 -43.818,17.126 -70.203,26.975 -26.385,9.85 -49.162,19.162 -68.318,27.922 -37.693,16.955 -66.985,39.174 -87.871,66.648 -20.893,27.476 -31.332,63.356 -31.332,107.633 0,25.434 5.182,49.138 15.548,71.121 10.365,21.982 25.127,41.609 44.289,58.88 18.213,16.328 39.733,29.124 64.549,38.384 24.809,9.261 50.723,13.9 77.742,13.9 30.778,0 58.343,-4.712 82.687,-14.135 24.34,-9.423 46.564,-20.423 66.67,-32.982 l 19.317,32.04 H 9.424 l 3.768,-221.918 h -38.164 c -6.913,25.442 -14.684,49.782 -23.322,73.031 -8.642,23.242 -19.87,44.289 -33.688,63.136 -13.509,18.212 -30,32.745 -49.471,43.582 -19.482,10.836 -43.348,16.255 -71.617,16.255 -29.846,0 -55.288,-9.586 -76.328,-28.741 -21.047,-19.163 -31.567,-42.566 -31.567,-70.203 0,-28.903 6.751,-52.85 20.259,-71.85 13.502,-19.011 33.137,-34.633 58.895,-46.883 22.925,-10.998 45.468,-20.493 67.612,-28.503 22.144,-8.01 43.582,-16.572 64.313,-25.68 C -81.039,55.906 -62.9,46.645 -45.467,36.279 -28.033,25.913 -12.886,13.819 0,0" />
              </g>
              <g
                 transform="translate(592.1475,367.9902)"
                 id="g1118">
                <path
                   inkscape:connector-curvature="0"
                   id="path1120"
                   style="fill:none;stroke:#ffffff;stroke-width:5;stroke-linecap:butt;stroke-linejoin:miter;stroke-miterlimit:4;stroke-dasharray:none;stroke-opacity:1"
                   d="m 0,0 c 14.135,-15.71 24.574,-32.907 31.333,-51.59 6.752,-18.692 10.129,-40.447 10.129,-65.258 0,-59.055 -21.838,-107.74 -65.491,-146.058 -43.664,-38.327 -97.848,-57.484 -162.55,-57.484 -29.846,0 -59.683,4.64 -89.52,13.904 -29.846,9.258 -55.598,20.492 -77.271,33.685 l -20.259,-34.395 h -37.693 l -6.597,228.983 h 38.164 c 7.848,-28.269 17.035,-53.792 27.563,-76.561 10.521,-22.78 24.42,-44.056 41.697,-63.844 16.329,-18.537 35.411,-33.297 57.246,-44.288 21.829,-10.999 47.189,-16.492 76.094,-16.492 21.673,0 40.593,2.827 56.774,8.491 16.176,5.659 29.283,13.682 39.342,24.063 10.048,10.381 17.508,22.568 22.379,36.568 4.869,13.995 7.305,30.116 7.305,48.36 0,26.732 -7.54,51.659 -22.617,74.776 -15.078,23.117 -37.539,40.651 -67.376,52.606 -20.423,8.129 -43.818,17.126 -70.203,26.975 -26.385,9.85 -49.162,19.162 -68.318,27.922 -37.693,16.955 -66.985,39.174 -87.871,66.648 -20.893,27.476 -31.332,63.356 -31.332,107.633 0,25.434 5.182,49.138 15.548,71.121 10.365,21.982 25.127,41.609 44.289,58.88 18.213,16.328 39.733,29.124 64.549,38.384 24.809,9.261 50.723,13.9 77.742,13.9 30.778,0 58.343,-4.712 82.687,-14.135 24.34,-9.423 46.564,-20.423 66.67,-32.982 l 19.317,32.04 H 9.424 l 3.768,-221.918 h -38.164 c -6.913,25.442 -14.684,49.782 -23.322,73.031 -8.642,23.242 -19.87,44.289 -33.688,63.136 -13.509,18.212 -30,32.745 -49.471,43.582 -19.482,10.836 -43.348,16.255 -71.617,16.255 -29.846,0 -55.288,-9.586 -76.328,-28.741 -21.047,-19.163 -31.567,-42.566 -31.567,-70.203 0,-28.903 6.751,-52.85 20.259,-71.85 13.502,-19.011 33.137,-34.633 58.895,-46.883 22.925,-10.998 45.468,-20.493 67.612,-28.503 22.144,-8.01 43.582,-16.572 64.313,-25.68 C -81.039,55.906 -62.9,46.645 -45.467,36.279 -28.033,25.913 -12.886,13.819 0,0 Z" />
              </g>
            </g>
          </g>
        </g>
        <path
           style="fill:#0071bc;fill-opacity:1;stroke:none;stroke-width:12.17376232"
           d="m 766.49981,192.30768 c -56.37812,28.05332 -64.26264,62.63821 -25.8138,113.229 l 22.82791,30.03692 42.02664,-40.45028 c 73.25729,-70.50976 149.72148,-82.21467 141.85908,-21.71524 -2.62768,20.21825 -26.388,39.56241 -88.98663,72.44496 -94.22364,49.49573 -118.07445,75.81137 -118.07445,130.27857 0,92.41437 70.68881,158.1294 155.56764,144.6202 26.34952,-4.19403 62.67416,-9.91852 80.7208,-12.7212 18.04792,-2.80288 34.5898,-7.07259 36.7619,-9.48852 2.1731,-2.416 -9.2298,-28.82396 -25.33806,-58.6842 l -29.28664,-54.29176 -39.8548,38.35924 c -39.77084,38.27936 -89.10759,50.24469 -103.30903,25.05496 -12.34456,-21.89748 17.83964,-50.2134 93.74687,-87.94308 39.4536,-19.61048 80.35336,-49.14616 90.88886,-65.63501 41.9592,-65.66847 6.2833,-175.8996 -67.92966,-209.8914 -54.17599,-24.81444 -106.59731,-22.66559 -165.80663,6.79684 z m 311.02839,6.7162 c 0,10.51544 5.2323,19.11885 11.6272,19.11885 7.1973,0 11.6272,67.9786 11.6272,178.44392 0,110.46536 -4.4299,178.44388 -11.6272,178.44388 -6.3949,0 -11.6272,8.60352 -11.6272,19.11893 0,15.17379 16.7943,19.11895 81.3904,19.11895 64.5964,0 81.3907,-3.94516 81.3907,-19.11895 0,-10.51541 -5.2322,-19.11893 -11.6272,-19.11893 -6.3949,0 -11.6272,-25.81068 -11.6272,-57.35704 v -57.35688 h 52.3224 52.3226 v 57.35688 c 0,42.48665 -4.5218,57.35704 -17.4408,57.35704 -9.5924,0 -17.4409,8.60352 -17.4409,19.11893 0,15.29527 17.4409,19.11895 87.2042,19.11895 69.7633,0 87.2043,-3.82368 87.2043,-19.11895 0,-10.51541 -7.8485,-19.11893 -17.441,-19.11893 -14.6723,0 -17.4407,-28.3244 -17.4407,-178.44388 0,-150.11944 2.7684,-178.44392 17.4407,-178.44392 9.5925,0 17.441,-8.60341 17.441,-19.11885 0,-15.29527 -17.441,-19.119 -87.2043,-19.119 -69.7633,0 -87.2042,3.82373 -87.2042,19.119 0,10.51544 7.8485,19.11885 17.4409,19.11885 13.9526,0 17.4408,19.11904 17.4408,95.59492 v 95.59497 h -52.3226 -52.3224 v -95.59497 c 0,-55.23252 4.909,-95.59492 11.6272,-95.59492 6.395,0 11.6272,-8.60341 11.6272,-19.11885 0,-15.1738 -16.7943,-19.119 -81.3907,-19.119 -64.5961,0 -81.3904,3.9452 -81.3904,19.119 z m 441.8345,0 c 0,10.51544 7.8483,19.11885 17.4409,19.11885 14.6434,0 17.4409,27.66068 17.4409,172.47095 0,141.54934 -3.1267,173.78629 -17.4409,179.80745 -9.5926,4.03524 -17.4409,15.32653 -17.4409,25.09208 0,14.02464 25.0416,17.74512 119.1791,17.7076 98.5976,-0.04 125.7544,-4.44264 157.2572,-25.49792 70.9132,-47.39584 77.8408,-149.6378 14.12,-208.41372 l -34.2144,-31.5602 30.3216,-59.47157 c 16.6772,-32.70948 37.484,-62.48471 46.238,-66.16695 8.7532,-3.68228 15.9156,-14.97109 15.9156,-25.08633 0,-14.30348 -14.5856,-17.54172 -65.6196,-14.56879 l -65.6184,3.82259 -23.1428,66.9164 c -28.138,81.36245 -54.9096,89.13036 -54.9096,15.93244 0,-28.04112 5.2324,-50.98403 11.6272,-50.98403 6.3948,0 11.6272,-8.60341 11.6272,-19.11885 0,-15.1738 -16.7944,-19.119 -81.3904,-19.119 -64.5963,0 -81.3907,3.9452 -81.3907,19.119 z m 204.3171,198.58072 c 25.8288,31.28717 29.3588,113.35026 6.1916,143.95097 -8.6308,11.40085 -28.1332,20.729 -43.3372,20.729 -26.6504,0 -27.6448,-3.43728 -27.6448,-95.59492 0,-84.42093 2.5084,-95.59497 21.4524,-95.59497 11.7992,0 31.3004,11.92952 43.338,26.50992 z m 194.884,-198.58072 c 0,10.51544 6.9764,19.11885 15.5036,19.11885 12.1808,0 15.5028,38.23811 15.5028,178.44392 0,150.11948 -2.7684,178.44388 -17.4408,178.44388 -9.5924,0 -17.4408,8.60352 -17.4408,19.11893 0,15.29527 17.4408,19.11895 87.204,19.11895 69.7636,0 87.2044,-3.82368 87.2044,-19.11895 0,-10.51541 -7.8484,-19.11893 -17.4408,-19.11893 -14.6724,0 -17.4408,-28.3244 -17.4408,-178.44388 0,-150.11944 2.7684,-178.44392 17.4408,-178.44392 9.5924,0 17.4408,-8.60341 17.4408,-19.11885 0,-15.25671 -17.2256,-19.119 -85.266,-19.119 -68.0412,0 -85.2672,3.86229 -85.2672,19.119 z m 228.6692,-1.36375 c 0,9.76551 7.8484,21.05683 17.4408,25.09203 14.2716,6.00336 17.4408,37.59448 17.4408,173.83449 0,136.24008 -3.1692,167.83112 -17.4408,173.83448 -9.5924,4.03524 -17.4408,15.32653 -17.4408,25.09208 0,13.89824 23.3652,17.75092 107.552,17.73544 173.7813,-0.04 231.6521,-48.7988 238.6877,-201.137 4.6312,-100.32544 -17.5936,-157.72377 -78.8072,-203.52844 -33.3528,-24.95688 -53.1912,-28.67833 -152.8796,-28.67833 -90.1625,0 -114.5529,3.78021 -114.5529,17.75525 z m 210.0529,74.65311 c 19.528,34.16857 23.0556,58.49952 20.1444,138.90693 -3.7604,103.83316 -25.402,151.0644 -69.218,151.0644 -19.7512,0 -21.4525,-13.13708 -21.4525,-165.69792 0,-157.6036 1.1397,-165.69792 23.4257,-165.69792 13.8208,0 33.1315,16.98447 47.1004,41.42451 z m 196.8996,-73.28936 c 0,10.51544 5.2331,19.11885 11.628,19.11885 7.1976,0 11.6268,67.9786 11.6268,178.44392 0,110.46536 -4.4292,178.44388 -11.6268,178.44388 -6.3949,0 -11.628,8.60352 -11.628,19.11893 0,15.17379 16.7955,19.11895 81.392,19.11895 64.5956,0 81.39,-3.94516 81.39,-19.11895 0,-10.51541 -5.232,-19.11893 -11.6272,-19.11893 -6.3945,0 -11.6272,-25.81068 -11.6272,-57.35704 v -57.35688 h 52.322 52.3228 v 57.35688 c 0,42.48665 -4.5224,57.35704 -17.4416,57.35704 -9.5909,0 -17.4397,8.60352 -17.4397,19.11893 0,15.29527 17.4397,19.11895 87.2049,19.11895 69.7624,0 87.2032,-3.82368 87.2032,-19.11895 0,-10.51541 -7.8484,-19.11893 -17.4408,-19.11893 -14.6728,0 -17.4397,-28.3244 -17.4397,-178.44388 0,-150.11944 2.7669,-178.44392 17.4397,-178.44392 9.5924,0 17.4408,-8.60341 17.4408,-19.11885 0,-15.29527 -17.4408,-19.119 -87.2032,-19.119 -69.7652,0 -87.2049,3.82373 -87.2049,19.119 0,10.51544 7.8488,19.11885 17.4397,19.11885 13.9547,0 17.4416,19.11904 17.4416,95.59492 v 95.59497 h -52.3228 -52.322 v -95.59497 c 0,-55.23252 4.9088,-95.59492 11.6272,-95.59492 6.3952,0 11.6272,-8.60341 11.6272,-19.11885 0,-15.1738 -16.7944,-19.119 -81.39,-19.119 -64.5965,0 -81.392,3.9452 -81.392,19.119 z m 418.5804,0 c 0,10.51544 4.2148,19.11885 9.3668,19.11885 5.1523,0 35.2368,88.99827 66.8568,197.77388 l 57.49,197.7738 51.7308,-3.3974 51.73,-3.39764 55.8636,-191.18972 c 30.726,-105.15444 61.0791,-193.10184 67.4492,-195.43849 6.3712,-2.33676 11.5844,-12.37424 11.5844,-22.30544 0,-13.84423 -18.828,-18.05684 -80.7044,-18.05684 -81.1097,0 -110.5092,13.91552 -75.1836,35.5872 13.0336,7.99588 16.5188,20.26261 11.0884,39.02125 -6.9292,23.9316 -16.5621,27.35947 -76.9005,27.35947 -37.9391,0 -68.9807,-5.26664 -68.9807,-11.70363 0,-6.43692 -3.1741,-20.77624 -7.0569,-31.86485 -4.6319,-13.23024 -0.6399,-20.16159 11.6272,-20.16159 10.2765,0 18.6837,-8.60341 18.6837,-19.11885 0,-14.16223 -13.564,-19.119 -52.322,-19.119 -38.7568,0 -52.3228,4.95677 -52.3228,19.119 z m 197.4924,149.76528 c -0.116,8.76288 -9.8096,49.78353 -21.5904,91.15721 l -21.4197,75.2246 -24.6679,-80.07268 c -13.5672,-44.04005 -21.8552,-85.06076 -18.4184,-91.15717 9.9368,-17.6262 86.2916,-13.3266 86.0964,4.84804 z m 209.4612,-149.76528 c 0,10.51544 5.232,19.11885 11.6279,19.11885 7.1977,0 11.6268,67.9786 11.6268,178.44392 0,110.46536 -4.4291,178.44388 -11.6268,178.44388 -6.3959,0 -11.6279,8.88984 -11.6279,19.755 0,15.96524 12.6188,19.02176 65.7776,15.93244 l 65.7815,-3.8226 65.0257,-113.31216 65.0276,-113.31213 3.4704,93.98705 c 2.1283,57.56184 -1.2525,95.71352 -8.7196,98.44196 -6.706,2.45012 -12.1908,12.58028 -12.1908,22.51148 0,12.56904 14.1332,18.05684 46.5076,18.05684 33.5908,0 46.5092,-5.3108 46.5092,-19.11895 0,-10.51541 -5.232,-19.11893 -11.6272,-19.11893 -7.2524,0 -11.6276,-74.35152 -11.6276,-197.56281 V 179.90488 l -31.9748,0.0624 c -28.0556,0.0624 -42.4385,18.0248 -117.3412,146.57877 -46.9528,80.58291 -87.5024,146.514 -90.112,146.514 -2.6076,0 -4.7436,-57.35708 -4.7436,-127.45997 0,-104.80028 3.1012,-127.45995 17.4419,-127.45995 9.5917,0 17.4401,-8.60345 17.4401,-19.11885 0,-14.16231 -13.5645,-19.11896 -52.322,-19.11896 -38.758,0 -52.3228,4.95665 -52.3228,19.11896 z"
           id="path1676"
           inkscape:connector-curvature="0" />
      </g>
    </g>
  </g>
</svg>
