<?xml version="1.0" encoding="utf-8"?>
<!-- Generator: Adobe Illustrator 13.0.0, SVG Export Plug-In . SVG Version: 6.00 Build 14948)  -->
<!DOCTYPE svg PUBLIC "-//W3C//DTD SVG 1.1//EN" "http://www.w3.org/Graphics/SVG/1.1/DTD/svg11.dtd">
<svg version="1.1" xmlns="http://www.w3.org/2000/svg" xmlns:xlink="http://www.w3.org/1999/xlink" x="0px" y="0px" width="175px"
	 height="50.844px" viewBox="0 0 175 50.844" enable-background="new 0 0 175 50.844" xml:space="preserve">
<g id="Layer_1">
	<g>
		<path fill="#CF0A2C" d="M174.99,48.547c0,1.27-1.028,2.295-2.295,2.295H2.295C1.028,50.844,0,49.816,0,48.547V2.275
			C0,1.008,1.028-0.02,2.295-0.02h170.4c1.267,0,2.295,1.027,2.295,2.295V48.547L174.99,48.547z"/>
		<g>
			<path fill="#FFFFFF" d="M163.831,14.958v2.683h-0.437v-2.683h-1.17v-0.401h2.78v0.401H163.831z"/>
			<path fill="#FFFFFF" d="M165.402,17.64v-3.084h0.656l1.193,2.688l1.221-2.688h0.649v3.084h-0.429l0.027-2.765l-1.246,2.765
				h-0.445l-1.228-2.765l0.026,2.765H165.402z"/>
		</g>
		<g>
			<g>
				<path fill="#FFFFFF" d="M24.727,17.73v18.518h-3.01V17.73H13.64v-2.779h19.195v2.779H24.727z"/>
				<path fill="#FFFFFF" d="M25.124,36.646h-3.805V18.128h-8.078v-3.573h19.99v3.573h-8.107V36.646z"/>
			</g>
			<g>
				<path fill="#FFFFFF" d="M35.58,36.249V14.952h16.935v2.722H38.591v6.278h13.06v2.81h-13.06v6.622h14.126v2.866L35.58,36.249
					L35.58,36.249z"/>
				<path fill="#FFFFFF" d="M53.113,36.646h-17.93V14.554h17.729v3.517H38.988v5.482h13.061v3.604H38.988v5.828h14.125V36.646z"/>
			</g>
			<g>
				<path fill="#FFFFFF" d="M78.256,28.026c-0.286,2.669-1.408,4.8-3.362,6.393c-1.953,1.596-4.432,2.392-7.438,2.392
					c-3.581,0-6.417-1.008-8.509-3.024c-2.094-2.016-3.139-4.743-3.139-8.18s1.048-6.165,3.146-8.187
					c2.097-2.02,4.941-3.03,8.531-3.03c2.947,0,5.384,0.762,7.308,2.281c1.925,1.522,2.998,3.526,3.219,6.014h-3.125
					c-0.298-1.71-1.104-3.046-2.419-4.012c-1.315-0.964-2.986-1.446-5.012-1.446c-2.679,0-4.768,0.738-6.271,2.217
					c-1.502,1.478-2.252,3.533-2.252,6.162c0,2.621,0.752,4.671,2.26,6.148c1.508,1.479,3.604,2.219,6.292,2.219
					c2.064,0,3.789-0.54,5.177-1.62c1.388-1.081,2.211-2.523,2.468-4.328h3.126V28.026z"/>
				<path fill="#FFFFFF" d="M67.456,37.208c-1.826,0-3.49-0.262-4.944-0.778c-1.468-0.521-2.759-1.313-3.841-2.356
					c-1.085-1.043-1.908-2.289-2.448-3.701c-0.539-1.401-0.813-3.005-0.813-4.765c0-1.758,0.273-3.362,0.813-4.767
					c0.542-1.413,1.367-2.66,2.454-3.705c1.085-1.046,2.38-1.841,3.85-2.362c1.458-0.519,3.126-0.781,4.958-0.781
					c3.027,0,5.567,0.796,7.555,2.368c2.005,1.585,3.138,3.701,3.368,6.29l0.038,0.433h-3.894l-0.059-0.331
					c-0.281-1.616-1.021-2.847-2.262-3.757c-1.24-0.909-2.846-1.371-4.776-1.371c-2.557,0-4.573,0.709-5.991,2.104
					c-1.416,1.394-2.135,3.372-2.135,5.879c0,2.499,0.72,4.471,2.142,5.865c1.424,1.396,3.446,2.104,6.014,2.104
					c1.964,0,3.624-0.517,4.934-1.537c1.313-1.023,2.073-2.354,2.318-4.068l0.05-0.342h3.912l-0.048,0.44
					c-0.298,2.764-1.478,5.004-3.506,6.659C73.128,36.374,70.542,37.208,67.456,37.208z"/>
			</g>
			<g>
				<path fill="#FFFFFF" d="M82.197,36.249V14.952h3.011v8.582h12.974v-8.582h3.01v21.297h-3.01v-9.907H85.208v9.907H82.197z"/>
				<path fill="#FFFFFF" d="M101.588,36.646h-3.804V26.74H85.605v9.907H81.8V14.554h3.805v8.582h12.179v-8.582h3.804V36.646z"/>
			</g>
			<g>
				<path fill="#FFFFFF" d="M106.529,36.249V14.952h4.074l13.405,18.172V14.952h2.925v21.297h-4.063l-13.393-18.172v18.172H106.529z
					"/>
				<path fill="#FFFFFF" d="M127.331,36.646h-4.66l-12.793-17.36v17.36h-3.745V14.554h4.672l12.809,17.359V14.554h3.719
					L127.331,36.646L127.331,36.646z"/>
			</g>
			<g>
				<path fill="#FFFFFF" d="M132.502,36.249V14.952h3.012v21.297H132.502z"/>
				<path fill="#FFFFFF" d="M135.91,36.646h-3.807V14.554h3.807V36.646z"/>
			</g>
			<g>
				<path fill="#FFFFFF" d="M141.064,36.249V14.952h3.01v10.944l12.441-10.944h3.857l-10.107,8.855l10.137,12.44h-3.526
					l-8.642-10.642l-4.16,3.557v7.085L141.064,36.249L141.064,36.249z"/>
				<path fill="#FFFFFF" d="M161.24,36.646h-4.555l-8.502-10.473l-3.713,3.173v7.299h-3.805V14.554h3.805v10.461l11.895-10.461
					h5.068l-10.617,9.299L161.24,36.646z"/>
			</g>
		</g>
	</g>
	<rect x="-0.167" y="-0.078" fill="#CF0A2C" width="5.167" height="50.914"/>
	<rect x="169.667" y="-0.078" fill="#CF0A2C" width="5.334" height="50.912"/>
</g>
<g id="Layer_2">
</g>
</svg>
