<?xml version="1.0" encoding="utf-8"?>
<!-- Generator: Adobe Illustrator 16.0.0, SVG Export Plug-In . SVG Version: 6.00 Build 0)  -->
<!DOCTYPE svg PUBLIC "-//W3C//DTD SVG 1.1//EN" "http://www.w3.org/Graphics/SVG/1.1/DTD/svg11.dtd">
<svg version="1.1" id="Layer_1" xmlns="http://www.w3.org/2000/svg" xmlns:xlink="http://www.w3.org/1999/xlink" x="0px" y="0px"
	 width="897px" height="305px" viewBox="31.5 127.5 897 305" enable-background="new 31.5 127.5 897 305" xml:space="preserve">
<g>
	<path fill="#F7A42C" d="M195.96,147.64L195.96,147.64c-73.92,2.4-132.24,59.76-135.72,133.56c-0.48,9.479,0.12,18.96,1.44,28.2
		c1.92-0.96,4.2-1.561,6.84-1.561c1.56,0,3.12,0.24,4.44,0.601c-1.44-8.761-1.92-17.761-1.44-26.761
		c3.24-67.92,56.88-120.72,124.8-122.88c1.56,0,2.88-0.72,3.96-1.8c1.08-1.08,1.56-2.52,1.56-4.08
		C201.6,150.16,199.08,147.64,195.96,147.64z"/>
</g>
<g>
	<g>
		<path fill="#F7A42C" d="M200.52,428.56c-5.16,0-10.2-0.239-15.36-0.84c-17.64-1.92-34.08-9.24-46.32-20.52
			c-25.32-23.521-28.92-58.08-10.32-97.32l0.36-0.72c3.12-4.68,4.32-8.521,3.36-10.44c-1.08-2.28-5.4-3.479-7.2-3.6h-0.36
			c-14.28-2.28-24.12-8.16-29.52-17.4c-7.92-13.68-2.28-29.28-2.04-30l1.56-4.08l4.32,0.48c1.08,0.12,2.04,0.12,3.12,0.12
			c3.72,0,6.6-0.84,8.52-2.52c2.88-2.64,3-6.84,3-6.84v-0.6c0.84-7.32,3.84-12.84,8.88-16.32c3.72-2.52,8.52-3.84,14.04-3.84
			c4.44,0,7.92,0.84,8.28,0.96c0.48,0.12,0.96,0.24,1.32,0.24v-24.6l5.88,0.36c10.44,0.48,19.8,3.24,27.96,7.92
			c29.16-54.6,67.68-64.44,69.36-64.92l10.44-2.52L255.72,142c-4.08,10.56-0.6,23.04,8.64,30.96c16.2,13.8,13.44,31.2,9.72,38.52
			c-1.08,2.28-1.32,4.32-0.6,6.24c1.32,3.72,6,6,6,6l0.6,0.36l21.84,14.16l-1.32,4.08c-4.56,14.76-12.36,24.48-23.28,28.92
			c-4.32,1.8-9,2.64-14.04,2.64c-12.24,0-22.44-5.4-22.92-5.64c-3.84-2.16-6.36-2.521-7.8-2.521c-0.84,0-1.44,0.12-1.68,0.36
			c-0.96,10.44,17.28,20.279,17.52,20.279c44.28,25.801,41.28,67.081,41.16,68.761c-0.24,2.88-2.64,5.16-5.64,5.16
			c0,0-0.36,0-0.48,0c-3.12-0.24-5.4-3-5.16-6.12c0.12-1.44,2.4-36.12-35.28-57.96c-1.08-0.48-27.84-14.28-22.8-34.2l0.24-0.72
			l0.36-0.72c0.12-0.24,3.6-6.12,11.88-6.12c3.96,0,8.4,1.32,13.08,3.96c0.36,0.12,8.28,4.2,17.521,4.2c3.6,0,6.84-0.6,9.72-1.8
			c6.72-2.76,11.88-8.76,15.36-17.88l-14.28-9.24c-1.92-0.96-8.76-4.68-11.52-12.12c-1.8-4.8-1.44-9.84,1.08-15.12
			c0.24-0.6,6.48-13.44-6.96-24.96c-9.72-8.28-15-20.52-14.16-32.76c-12.72,6.48-35.04,21.96-53.28,56.88
			c15.72,13.92,19.56,32.64,19.56,32.88c1.92,8.4,1.8,15.72-0.36,21.84c-2.88,8.16-9.96,13.44-18.6,13.92c-0.36,0-0.72,0-0.96,0
			c-8.52,0-16.2-5.04-19.68-12.72c-3-6.84-3.36-13.44-3.48-14.16c-0.96-17.28,4.68-31.2,8.76-38.52c-5.04-2.88-10.8-4.8-17.04-5.76
			v14.4c0.12,1.92-0.6,4.92-3,6.96c-1.8,1.56-4.2,2.4-7.2,2.4c-1.56,0-3.36-0.24-5.28-0.72c-0.12,0-2.52-0.6-5.52-0.6
			c-3.12,0-5.76,0.6-7.56,1.92c-2.28,1.56-3.6,4.2-4.08,7.92c0,1.92-0.72,9.36-6.6,14.64c-3.84,3.6-9.12,5.4-15.48,5.52
			c-0.72,4.08-1.08,10.8,2.28,16.56c3.6,6.12,10.8,10.08,21.36,11.88c1.92,0.24,12.12,1.681,16.08,9.96
			c2.76,5.88,1.56,12.96-3.84,21.24c-9.36,19.8-20.76,57.24,8.04,84c10.44,9.72,24.6,15.96,39.84,17.52
			c4.68,0.48,9.36,0.721,14.04,0.721c2.04,0,4.08,0,6.12-0.12c66.36-3.12,120.36-57.48,123-123.96c1.68-42-17.4-82.44-50.76-107.88
			c-1.2-0.96-1.92-2.28-2.16-3.72c-0.24-1.44,0.24-3,1.08-4.2c1.08-1.44,2.64-2.16,4.44-2.16c1.2,0,2.4,0.36,3.36,1.2
			c36.36,27.72,57,71.64,55.2,117.24c-2.76,72.24-61.56,131.4-133.68,134.76C204.96,428.44,202.8,428.56,200.52,428.56z
			 M183.6,215.56c-3.12,6.36-7.44,17.52-6.6,31.08c0,0.12,0.24,5.28,2.52,10.2c2.52,5.64,7.92,6.12,9.48,6.12h0.48
			c3.96-0.12,7.2-2.52,8.52-6.36c1.44-4.08,1.44-9.36,0-15.84C197.64,240.16,194.76,226.36,183.6,215.56z"/>
	</g>
	<g>
		<path fill="#F7A42C" d="M74.16,373c-16.32,0-30.6-11.04-34.68-26.88c-2.4-9.24-1.08-18.84,3.84-27.12
			c4.8-8.28,12.6-14.04,21.84-16.44c3-0.72,6-1.199,9-1.199c6.36,0,12.6,1.68,18.12,4.92c8.28,4.8,14.04,12.6,16.44,21.84
			c2.4,9.24,1.08,18.84-3.84,27.12c-4.8,8.279-12.6,14.04-21.84,16.439C80.16,372.64,77.16,373,74.16,373z M74.28,312.4
			c-2.04,0-4.2,0.239-6.24,0.84c-6.36,1.68-11.76,5.76-15.12,11.399c-3.36,5.641-4.32,12.36-2.64,18.721
			c2.88,10.92,12.72,18.6,24,18.6l0,0c2.04,0,4.2-0.24,6.24-0.84c6.36-1.68,11.76-5.76,15.12-11.4c3.36-5.76,4.32-12.359,2.64-18.72
			c-1.68-6.36-5.76-11.76-11.4-15.12C82.92,313.6,78.6,312.4,74.28,312.4z"/>
	</g>
	<g>
		<g>
			<path fill="#FFFFFF" d="M74.16,354.76c-3.12,0-5.64-2.52-5.64-5.64v-23.76c0-3.12,2.52-5.641,5.64-5.641
				c3.12,0,5.64,2.521,5.64,5.641v23.76C79.8,352.24,77.28,354.76,74.16,354.76z"/>
		</g>
		<g>
			<path fill="#FFFFFF" d="M62.28,342.88c-3.12,0-5.64-2.52-5.64-5.64s2.52-5.641,5.64-5.641h23.76c3.12,0,5.64,2.521,5.64,5.641
				s-2.52,5.64-5.64,5.64H62.28z"/>
		</g>
	</g>
	<g>
		<path fill="#FFFFFF" d="M425.88,236.08h-24.84v84.6h-13.2v-84.6H363v-11.16h64.32L425.88,236.08z"/>
		<path fill="#FFFFFF" d="M451.56,320.56v-95.64h52.08l-1.8,10.92H465V265h30.84v11.28h-30.72v32.76h40.08v11.52H451.56z"/>
		<path fill="#FFFFFF" d="M613.92,320.56l-5.04-65.16c-0.36-5.16-0.6-12.72-0.72-15.6h-0.24c-0.6,2.76-1.92,9.12-3.48,14.28
			l-18.959,66.36H573.96l-17.521-63.36c-2.039-7.32-3.72-15-4.319-17.52h-0.24c-0.12,3.36-0.6,12.48-0.96,17.52l-4.8,63.36h-13.08
			l8.64-95.641H560.4l16.08,58.681c2.039,7.799,3.239,13.56,3.479,15.72h0.24c0.359-2.4,1.56-8.64,3.359-15l16.681-59.4h18.84
			l8.16,95.641h-13.32V320.56z"/>
		<path fill="#FFFFFF" d="M713.28,277.24c-4.92,3.72-9.96,5.88-20.16,5.88h-15.84v37.439h-13.32v-95.64h25.56
			c12.36,0,17.641,1.2,22.801,4.44c8.16,5.16,12.6,13.2,12.6,23.28C725.04,263.56,721.8,270.76,713.28,277.24z M705.36,240.64
			c-3.36-3.24-8.04-4.68-15.601-4.68H677.28v36.36h15.12c6.479,0,10.68-1.56,13.8-5.4c2.64-3.36,4.08-7.2,4.08-12.6
			C710.16,248.08,708.6,243.64,705.36,240.64z"/>
		<path fill="#FFFFFF" d="M814.92,310.84c-4.92,6-12.72,11.28-27.48,11.28c-14.399,0-24-4.561-28.92-13.32
			c-2.52-4.439-3-7.08-3-17.04v-66.72h13.44v61.8c0,6.96,0.72,15.36,3.48,18.601c2.64,3,7.439,5.399,15.119,5.399
			c7.2,0,12.48-2.28,15.601-6.24c2.399-3,3.479-8.16,3.479-15.84v-63.72h13.32v65.64C819.96,302.68,819.24,305.56,814.92,310.84z"/>
		<path fill="#FFFFFF" d="M885.48,322.36c-10.92,0-21.48-2.761-30.841-8.521l5.28-10.32c8.28,5.16,16.2,7.921,25.8,7.921
			c12.48,0,20.641-6.36,20.641-16.681c0-7.8-5.16-13.199-15.841-16.2l-9.959-2.88c-14.4-4.2-22.681-11.16-22.681-24.72
			c0-16.56,12.72-27.72,31.681-27.72c10.56,0,20.88,3,29.279,9l-6,9.48c-8.88-5.4-14.88-7.44-22.8-7.44
			c-10.68,0-17.399,5.52-17.399,14.4c0,6.84,3.84,10.68,14.159,13.8l11.28,3.36c12.72,3.72,23.28,12.12,23.28,26.881
			C921.6,306.04,910.68,322.36,885.48,322.36z"/>
	</g>
	<g>
		<path fill="#F7A42C" d="M376.8,373.24c-0.84-1.561-1.2-2.28-2.4-4.2c-2.16-3.6-2.88-4.8-4.92-7.08c-0.72-0.84-1.32-1.2-2.52-1.32
			v12.48H363V344.8h7.92c3.36,0,5.28,0.84,6.72,2.04c1.32,1.2,2.52,3.12,2.52,5.88c0,4.44-2.88,7.92-7.56,7.8
			c1.32,1.08,1.92,1.921,2.52,2.641c0.6,0.84,1.44,2.04,2.4,3.479c1.2,1.92,3.48,5.641,4.08,6.48h-4.8V373.24z M373.32,348.76
			c-0.84-0.359-1.92-0.479-3.48-0.479h-3v9.84h2.76c2.52,0,3.84-0.36,4.92-1.32c0.84-0.84,1.44-2.16,1.44-3.84
			C375.96,350.92,374.88,349.36,373.32,348.76z"/>
		<path fill="#F7A42C" d="M417.84,373.24v-28.32h15.36l-0.48,3.24H421.8v8.64h9.12v3.36h-9.12v9.72h11.88v3.36H417.84z"/>
		<path fill="#F7A42C" d="M480.72,373.6c-3.72,0-6.6-1.56-8.76-4.199c-2.04-2.641-3.12-6-3.12-10.08c0-3.24,0.601-6.12,1.8-8.4
			c2.04-4.08,5.88-6.479,10.2-6.479c2.641,0,5.16,0.84,6.96,2.159l-1.92,2.641c-1.56-1.2-3.12-1.681-5.04-1.681
			c-2.76,0-4.92,1.44-6.24,4.08c-0.96,1.801-1.319,4.2-1.319,7.561c0,3.12,0.359,5.04,1.08,6.6c1.319,3.12,3.96,4.561,6.96,4.561
			c2.159,0,3.72-0.601,5.159-1.801l1.921,2.641C486.12,372.88,483.6,373.6,480.72,373.6z"/>
		<path fill="#F7A42C" d="M539.16,373.24c-0.84-1.561-1.2-2.28-2.4-4.2c-2.16-3.6-2.88-4.8-4.92-7.08c-0.72-0.84-1.32-1.2-2.52-1.32
			v12.48h-3.96V344.8h7.92c3.359,0,5.279,0.84,6.72,2.04c1.32,1.2,2.52,3.12,2.52,5.88c0,4.44-2.88,7.92-7.56,7.8
			c1.32,1.08,1.92,1.921,2.521,2.641c0.6,0.84,1.439,2.04,2.399,3.479c1.2,1.92,3.48,5.641,4.08,6.48h-4.8V373.24z M535.8,348.76
			c-0.84-0.359-1.92-0.479-3.479-0.479h-3v9.84h2.76c2.52,0,3.84-0.36,4.92-1.32c0.84-0.84,1.44-2.16,1.44-3.84
			C538.44,350.92,537.36,349.36,535.8,348.76z"/>
		<path fill="#F7A42C" d="M597.72,370.36c-1.439,1.8-3.72,3.359-8.159,3.359c-4.32,0-7.08-1.319-8.521-3.96
			c-0.72-1.319-0.96-2.04-0.96-5.04v-19.8h3.96v18.24c0,2.04,0.24,4.56,1.08,5.52s2.16,1.561,4.44,1.561
			c2.159,0,3.72-0.601,4.56-1.8c0.72-0.96,1.08-2.4,1.08-4.681v-18.84h3.96v19.44C599.16,367.96,599.04,368.8,597.72,370.36z"/>
		<path fill="#F7A42C" d="M638.04,373.24v-28.32h4.08v28.32H638.04z"/>
		<path fill="#F7A42C" d="M696.48,348.28h-7.32v24.96h-3.96v-24.96h-7.32v-3.24h18.96L696.48,348.28z"/>
		<path fill="#F7A42C" d="M753.72,373.24l-1.439-19.2c-0.12-1.56-0.12-3.72-0.24-4.56h-0.12c-0.12,0.84-0.6,2.76-1.08,4.199
			l-5.64,19.681h-3.36l-5.16-18.721c-0.6-2.159-1.08-4.439-1.319-5.159h-0.12c0,0.96-0.12,3.72-0.24,5.159l-1.44,18.721h-3.84
			l2.521-28.32h5.52l4.8,17.4c0.601,2.279,0.96,4.079,1.08,4.68h0.12c0.12-0.72,0.48-2.521,0.96-4.44l4.92-17.52h5.641l2.399,28.32
			h-3.96V373.24z"/>
		<path fill="#F7A42C" d="M795.6,373.24v-28.32h15.36l-0.479,3.24H799.56v8.64h9.12v3.36h-9.12v9.72h11.881v3.36H795.6z"/>
		<path fill="#F7A42C" d="M862.44,373.24l-7.44-15c-1.44-2.88-2.88-6.12-3.48-7.8h-0.239c0.239,2.399,0.239,5.279,0.359,7.92
			l0.12,14.88h-3.96v-28.32h4.56l7.921,15.6c1.199,2.4,2.64,6,2.76,6.721l0.24-0.12c-0.12-0.84-0.36-5.28-0.36-8.4l-0.12-13.92h3.84
			v28.32h-4.199V373.24z"/>
		<path fill="#F7A42C" d="M921.24,348.28h-7.32v24.96h-3.96v-24.96h-7.319v-3.24H921.6L921.24,348.28z"/>
	</g>
</g>
</svg>
