<?xml version="1.0" encoding="utf-8"?>
<!-- Generator: Adobe Illustrator 16.0.0, SVG Export Plug-In . SVG Version: 6.00 Build 0)  -->
<!DOCTYPE svg PUBLIC "-//W3C//DTD SVG 1.1//EN" "http://www.w3.org/Graphics/SVG/1.1/DTD/svg11.dtd">
<svg version="1.1" id="Ebene_1" xmlns="http://www.w3.org/2000/svg" xmlns:xlink="http://www.w3.org/1999/xlink" x="0px" y="0px"
	 width="170px" height="170px" viewBox="0 0 170 170" enable-background="new 0 0 170 170" xml:space="preserve">
<path fill="#FFFFFF" d="M85,161.5c-43.032,0-77.917-34.885-77.917-77.916C7.083,40.552,41.968,5.666,85,5.666
	c43.033,0,77.917,34.886,77.917,77.919C162.917,126.615,128.033,161.5,85,161.5"/>
<path fill="#303E48" d="M145.824,93.453c-0.168-0.156-0.401-0.203-0.633-0.162L41.669,118.298c-0.341,0.083-0.568,0.409-0.525,0.757
	c0.042,0.352,0.338,0.61,0.689,0.61l93.079,0.019c0.237,0,0.546-0.124,0.67-0.324c5.227-7.427,8.957-16.008,10.46-25.289
	C146.077,93.842,145.995,93.611,145.824,93.453"/>
<path fill="#303E48" d="M24.189,73.675c0.168,0.156,0.399,0.203,0.634,0.162l103.52-25.006c0.343-0.084,0.566-0.41,0.526-0.757
	c-0.042-0.352-0.339-0.611-0.689-0.611L35.1,47.445c-0.236,0-0.543,0.123-0.672,0.324c-5.223,7.426-8.956,16.008-10.457,25.29
	C23.934,73.287,24.017,73.517,24.189,73.675"/>
<path fill="#303E48" d="M37.018,110.012c-0.109,0-0.212-0.056-0.267-0.154c-0.332-0.605-13.043-24.08-13.16-24.293
	c-0.046-0.082-0.048-0.182-0.01-0.267c0.039-0.086,0.114-0.15,0.207-0.172c0.82-0.199,4.515-1.087,5.03-1.214
	c0.137-0.033,0.284,0.029,0.344,0.156c0.257,0.516,7.375,14.701,8.796,17.532c0.036-3.156,0.216-19.145,0.222-19.712
	c0-0.142,0.098-0.26,0.231-0.295l4.885-1.173c0.125-0.019,0.271,0.034,0.339,0.156c0.26,0.498,7.708,14.845,9.202,17.723
	c-0.019-3.21-0.11-19.341-0.113-19.921c0-0.141,0.096-0.268,0.236-0.299c0.215-0.05,0.977-0.232,1.849-0.441
	c1.198-0.289,2.597-0.627,3.073-0.738c0.092-0.012,0.188,0.004,0.26,0.061c0.074,0.06,0.116,0.148,0.112,0.244
	c-0.028,1.228-0.288,11.588-0.479,19.266c-0.113,4.599-0.204,8.233-0.208,8.362v0.004v0.018c-0.014,0.148-0.129,0.267-0.277,0.279
	l-1.204,0.288c-1.434,0.349-3.591,0.869-3.964,0.961c-0.139,0.035-0.28-0.03-0.343-0.152c-0.263-0.508-7.625-14.575-9.089-17.379
	c-0.039,16.247-0.042,19.224-0.042,19.571v0.004v0.002c-0.001,0.08-0.028,0.154-0.082,0.208c-0.072,0.073-0.118,0.079-0.292,0.114
	c-0.711,0.176-3.167,0.769-4.448,1.077l-0.737,0.18C37.065,110.008,37.041,110.012,37.018,110.012"/>
<path fill="#303E48" d="M67.765,102.59c-0.137,0-0.261-0.092-0.296-0.23c-0.116-0.473-2.407-9.921-4.191-17.283
	c-1.113-4.588-2.029-8.369-2.101-8.662c-0.02-0.08-0.006-0.162,0.036-0.234c0.042-0.066,0.11-0.118,0.187-0.137l6.787-1.634
	c5.344-1.292,11.954-2.889,12.412-3c0.079-0.014,0.16-0.004,0.23,0.037c0.068,0.043,0.118,0.11,0.138,0.188l0.158,0.66
	c0.263,1.087,0.721,2.981,0.843,3.469c0.04,0.164-0.058,0.331-0.222,0.367c-0.692,0.178-11.859,2.868-13.83,3.342l1.442,5.958
	c1.87-0.449,11.984-2.892,12.664-3.063c0.083-0.019,0.163-0.009,0.233,0.035c0.069,0.041,0.119,0.107,0.137,0.188
	c0.102,0.418,0.424,1.748,0.663,2.739l0.25,1.028c0.04,0.164-0.059,0.326-0.221,0.369c-0.691,0.166-10.801,2.606-12.67,3.056
	l1.643,6.777c1.995-0.481,13.438-3.25,14.136-3.412c0.159-0.023,0.324,0.064,0.362,0.225l0.222,0.916
	c0.27,1.106,0.674,2.769,0.781,3.223c0.02,0.078,0.008,0.16-0.035,0.23s-0.109,0.117-0.191,0.139
	c-0.701,0.16-18.479,4.455-19.494,4.705C67.813,102.587,67.789,102.59,67.765,102.59"/>
<path fill="#303E48" d="M92.157,96.704c-0.057,0-0.11-0.017-0.158-0.044c-0.071-0.042-0.119-0.111-0.139-0.188
	c-0.211-0.893-6.239-25.76-6.286-25.949c-0.021-0.08-0.008-0.164,0.036-0.234c0.042-0.066,0.109-0.117,0.187-0.137
	c0.651-0.152,4.419-1.064,5.071-1.22c0.078-0.021,0.16-0.003,0.229,0.033c0.07,0.043,0.119,0.111,0.137,0.188
	c0.191,0.804,6.128,25.294,6.288,25.945c0.02,0.08,0.004,0.162-0.035,0.23c-0.043,0.07-0.109,0.117-0.188,0.139l-5.07,1.229
	C92.204,96.699,92.18,96.704,92.157,96.704"/>
<path fill="#303E48" d="M108.591,92.961c-2.237,0-4.252-0.509-5.826-1.479c-1.854-1.152-3.113-2.925-3.748-5.273
	c-0.019-0.08-0.008-0.165,0.034-0.236c0.04-0.07,0.108-0.123,0.188-0.141c0.691-0.166,4.283-1.029,4.882-1.183
	c0.185-0.031,0.319,0.049,0.364,0.203c0.696,2.262,2.449,3.505,4.937,3.505c0.684,0,1.426-0.093,2.194-0.281
	c0.936-0.228,3.217-0.925,4.162-2.463c0.414-0.681,0.521-1.442,0.325-2.267c-0.619-2.54-3.864-2.551-7.298-2.565l-1.821-0.025
	c-4.257-0.086-8.512-0.587-9.721-5.589c-0.491-2.013-0.206-3.902,0.84-5.617c1.356-2.229,4.018-4.007,7.116-4.761
	c0.728-0.172,2.199-0.467,3.863-0.467c3.17,0,7.242,1.044,8.668,6.011c0.023,0.08,0.011,0.166-0.032,0.236
	c-0.043,0.074-0.075,0.108-0.19,0.145c-0.699,0.166-4.371,1.049-4.912,1.182c-0.15,0.031-0.304-0.045-0.359-0.188
	c-0.933-2.495-2.958-3.305-6.243-2.493c-1.409,0.338-2.536,1.05-3.088,1.954c-0.398,0.648-0.5,1.388-0.309,2.194
	c0.504,2.073,1.712,2.094,8.42,2.196l0.899,0.006c2.43,0.014,8.079,0.041,9.48,5.782c0.52,2.171,0.219,4.266-0.875,6.05
	c-1.46,2.396-4.26,4.158-8.094,5.091C111.143,92.802,109.844,92.961,108.591,92.961"/>
<path fill="#303E48" d="M133.356,86.979c-2.235,0-4.244-0.514-5.81-1.485c-1.854-1.146-3.116-2.917-3.756-5.267
	c-0.024-0.08-0.008-0.163,0.031-0.237c0.042-0.07,0.112-0.123,0.19-0.14c0.697-0.166,4.29-1.039,4.889-1.185
	c0.155-0.043,0.318,0.055,0.363,0.205c0.693,2.263,2.446,3.506,4.938,3.506c0.685,0,1.425-0.094,2.196-0.281
	c0.933-0.229,3.213-0.92,4.154-2.468c0.414-0.681,0.527-1.439,0.324-2.263c-0.617-2.546-3.861-2.557-7.289-2.573l-1.825-0.018
	c-4.255-0.093-8.511-0.599-9.721-5.589c-0.489-2.009-0.207-3.9,0.835-5.617c1.356-2.235,4.021-4.014,7.126-4.759
	c0.727-0.176,2.196-0.466,3.863-0.466c3.17,0,7.246,1.041,8.666,6.009c0.021,0.08,0.01,0.166-0.031,0.236
	c-0.043,0.074-0.113,0.123-0.193,0.145c-0.404,0.096-1.81,0.434-3.023,0.728l-1.893,0.457c-0.138,0.022-0.299-0.048-0.354-0.191
	c-0.933-2.495-2.959-3.295-6.245-2.501c-1.415,0.344-2.539,1.061-3.09,1.958c-0.398,0.658-0.504,1.394-0.309,2.187
	c0.512,2.088,1.718,2.106,8.438,2.202l0.891,0.012c2.414,0.006,8.076,0.021,9.475,5.786c0.52,2.165,0.221,4.258-0.873,6.046
	c-1.464,2.401-4.267,4.159-8.099,5.085C135.918,86.817,134.611,86.979,133.356,86.979"/>
</svg>
